<svg width="375" height="752" viewBox="0 0 375 752" fill="none" xmlns="http://www.w3.org/2000/svg">
<path d="M93.75 375V469.125H0L93.75 375Z" fill="#27337E"/>
<path d="M0 469.125V375H93.75L0 469.125Z" fill="#27337E"/>
<path d="M187.5 375V469.125H93.75L187.5 375Z" fill="#3BB390"/>
<path d="M93.75 469.125V375H187.5L93.75 469.125Z" fill="#27337E"/>
<path d="M281.25 375V469.125H187.5L281.25 375Z" fill="#709DCD"/>
<path d="M187.5 469.125V375H281.25L187.5 469.125Z" fill="#3BB390"/>
<path d="M375 375V469.125H281.25L375 375Z" fill="#3BB390"/>
<path d="M281.25 469.125V375H375L281.25 469.125Z" fill="#3C3C3B"/>
<path d="M93.75 469.125V563.25H0L93.75 469.125Z" fill="#3BB390"/>
<path d="M0 563.25V469.125H93.75L0 563.25Z" fill="#709DCD"/>
<path d="M187.5 469.125V563.25H93.75L187.5 469.125Z" fill="#27337E"/>
<path d="M93.75 563.25V469.125H187.5L93.75 563.25Z" fill="#3BB390"/>
<path d="M281.25 563.25H187.5V469.125L281.25 563.25Z" fill="#3BB390"/>
<path d="M187.5 469.125H281.25V563.25L187.5 469.125Z" fill="#27337E"/>
<path d="M375 469.125V563.25H281.25L375 469.125Z" fill="#3C3C3B"/>
<path d="M281.25 563.25V469.125H375L281.25 563.25Z" fill="#709DCD"/>
<path d="M93.75 563.25V657.375H0L93.75 563.25Z" fill="#3BB390"/>
<path d="M0 657.375V563.25H93.75L0 657.375Z" fill="#709DCD"/>
<path d="M187.5 563.25V657.375H93.75L187.5 563.25Z" fill="#27337E"/>
<path d="M93.75 657.375V563.25H187.5L93.75 657.375Z" fill="#709DCD"/>
<path d="M187.5 563.25H281.25V657.375L187.5 563.25Z" fill="#709DCD"/>
<path d="M281.25 657.375H187.5V563.25L281.25 657.375Z" fill="#27337E"/>
<path d="M375 563.25V657.375H281.25L375 563.25Z" fill="#3BB390"/>
<path d="M281.25 657.375V563.25H375L281.25 657.375Z" fill="#709DCD"/>
<path d="M93.75 657.375V751.5H0L93.75 657.375Z" fill="#3BB390"/>
<path d="M0 751.5V657.375H93.75L0 751.5Z" fill="#27337E"/>
<path d="M187.5 657.375V751.5H93.75L187.5 657.375Z" fill="#3BB390"/>
<path d="M93.75 751.5V657.375H187.5L93.75 751.5Z" fill="#709DCD"/>
<path d="M281.25 657.375V751.5H187.5L281.25 657.375Z" fill="#27337E"/>
<path d="M187.5 751.5V657.375H281.25L187.5 751.5Z" fill="#709DCD"/>
<path d="M375 657.375V751.5H281.25L375 657.375Z" fill="#3C3C3B"/>
<path d="M281.25 751.5V657.375H375L281.25 751.5Z" fill="#27337E"/>
<path d="M228.389 633.483C229.759 633.483 229.759 631.311 228.389 631.311C227.019 631.311 227.019 633.483 228.389 633.483Z" fill="#27337E"/>
<path d="M93.75 0V93.75H0L93.75 0Z" fill="#27337E"/>
<path d="M0 93.75V0H93.75L0 93.75Z" fill="#27337E"/>
<path d="M187.5 0V93.75H93.75L187.5 0Z" fill="#3BB390"/>
<path d="M93.75 93.75V0H187.5L93.75 93.75Z" fill="#27337E"/>
<path d="M281.25 0V93.75H187.5L281.25 0Z" fill="#709DCD"/>
<path d="M187.5 93.75V0H281.25L187.5 93.75Z" fill="#3BB390"/>
<path d="M375 0V93.75H281.25L375 0Z" fill="#3BB390"/>
<path d="M281.25 93.75V0H375L281.25 93.75Z" fill="#3C3C3B"/>
<path d="M93.75 93.75V187.5H0L93.75 93.75Z" fill="#3BB390"/>
<path d="M0 187.5V93.75H93.75L0 187.5Z" fill="#709DCD"/>
<path d="M187.5 93.75V187.5H93.75L187.5 93.75Z" fill="#27337E"/>
<path d="M93.75 187.5V93.75H187.5L93.75 187.5Z" fill="#3BB390"/>
<path d="M281.25 187.5H187.5V93.75L281.25 187.5Z" fill="#3BB390"/>
<path d="M187.5 93.75H281.25V187.5L187.5 93.75Z" fill="#27337E"/>
<path d="M375 93.75V187.5H281.25L375 93.75Z" fill="#3C3C3B"/>
<path d="M281.25 187.5V93.75H375L281.25 187.5Z" fill="#709DCD"/>
<path d="M93.75 187.5V281.25H0L93.75 187.5Z" fill="#3BB390"/>
<path d="M0 281.25V187.5H93.75L0 281.25Z" fill="#709DCD"/>
<path d="M187.5 187.5V281.25H93.75L187.5 187.5Z" fill="#27337E"/>
<path d="M93.75 281.25V187.5H187.5L93.75 281.25Z" fill="#709DCD"/>
<path d="M187.5 187.5H281.25V281.25L187.5 187.5Z" fill="#709DCD"/>
<path d="M281.25 281.25H187.5V187.5L281.25 281.25Z" fill="#27337E"/>
<path d="M375 187.5V281.25H281.25L375 187.5Z" fill="#3BB390"/>
<path d="M281.25 281.25V187.5H375L281.25 281.25Z" fill="#709DCD"/>
<path d="M93.75 281.25V375H0L93.75 281.25Z" fill="#3BB390"/>
<path d="M0 375V281.25H93.75L0 375Z" fill="#27337E"/>
<path d="M187.5 281.25V375H93.75L187.5 281.25Z" fill="#3BB390"/>
<path d="M93.75 375V281.25H187.5L93.75 375Z" fill="#709DCD"/>
<path d="M281.25 281.25V375H187.5L281.25 281.25Z" fill="#27337E"/>
<path d="M187.5 375V281.25H281.25L187.5 375Z" fill="#709DCD"/>
<path d="M375 281.25V375H281.25L375 281.25Z" fill="#3C3C3B"/>
<path d="M281.25 375V281.25H375L281.25 375Z" fill="#27337E"/>
<path d="M228.389 257.451C229.759 257.451 229.759 255.287 228.389 255.287C227.019 255.287 227.019 257.451 228.389 257.451Z" fill="#27337E"/>
</svg>
