<svg width="1920" height="1600" viewBox="0 0 1920 1600" fill="none" xmlns="http://www.w3.org/2000/svg">
<g clip-path="url(#clip0_85_8617)">
<path d="M-1.39876e-05 -1.19209e-05L320 -2.59086e-05L320 320L-1.39876e-05 -1.19209e-05Z" fill="#27337E"/>
<path d="M640 0V320H320L640 0Z" fill="#3BB390"/>
<path d="M320 320V0H640L320 320Z" fill="#27337E"/>
<path d="M960 0V320H640L960 0Z" fill="#709DCD"/>
<path d="M640 320V0H960L640 320Z" fill="#3BB390"/>
<path d="M960 320V0H1280L960 320Z" fill="#3C3C3B"/>
<path d="M1600 0V320H1280L1600 0Z" fill="#709DCD"/>
<path d="M1920 320L1600 320L1600 -1.19209e-05L1920 320Z" fill="#709DCD"/>
<path d="M320 640L0 640L-1.39876e-05 320L320 640Z" fill="#709DCD"/>
<path d="M320 640V320H640L320 640Z" fill="#3BB390"/>
<path d="M960 640H640V320L960 640Z" fill="#3BB390"/>
<path d="M640 320H960V640L640 320Z" fill="#27337E"/>
<path d="M1280 320V640H960L1280 320Z" fill="#3C3C3B"/>
<path d="M960 640V320H1280L960 640Z" fill="#709DCD"/>
<path d="M1280 640V320H1600L1280 640Z" fill="#27337E"/>
<path d="M1920 320V640H1600L1920 320Z" fill="#27337E"/>
<path d="M319.999 640V960H-0.000732422L319.999 640Z" fill="#709DCD"/>
<path d="M0 960V640H320L0 960Z" fill="#709DCD"/>
<path d="M640 960L320 960L320 640L640 960Z" fill="#709DCD"/>
<path d="M640 640H960V960L640 640Z" fill="#709DCD"/>
<path d="M960 960H640V640L960 960Z" fill="#27337E"/>
<path d="M1280 640V960H960L1280 640Z" fill="#3BB390"/>
<path d="M960 960V640H1280L960 960Z" fill="#709DCD"/>
<path d="M1600 960H1280V640L1600 960Z" fill="#3BB390"/>
<path d="M1600 960V640H1920L1600 960Z" fill="#27337E"/>
<path d="M320 960V1280H0L320 960Z" fill="#709DCD"/>
<path d="M0 1280V960H320L0 1280Z" fill="#709DCD"/>
<path d="M320 1280V960H640L320 1280Z" fill="#709DCD"/>
<path d="M960 960V1280H640L960 960Z" fill="#27337E"/>
<path d="M1280 960V1280H960L1280 960Z" fill="#3C3C3B"/>
<path d="M960 1280V960H1280L960 1280Z" fill="#27337E"/>
<path d="M1280 1280V960H1600L1280 1280Z" fill="#3BB390"/>
<path d="M1920 960L1920 1280L1600 1280L1920 960Z" fill="#27337E"/>
<path d="M779.569 878.767C784.246 878.767 784.246 871.383 779.569 871.383C774.893 871.383 774.893 878.767 779.569 878.767Z" fill="#27337E"/>
</g>
<path d="M1600 1280H1920V1600L1600 1280Z" fill="#27337E"/>
<path d="M-1.19209e-05 1600L1.60544e-05 1280L320 1280L-1.19209e-05 1600Z" fill="#709DCD"/>
<path d="M640 1280V1600H320L640 1280Z" fill="#3BB390"/>
<defs>
<clipPath id="clip0_85_8617">
<rect width="1920" height="1280" fill="white"/>
</clipPath>
</defs>
</svg>
