<svg xmlns="http://www.w3.org/2000/svg" viewBox="0 0 141.73 15.36"><defs><style>.cls-1{fill:#fff;}</style></defs><g id="Ebene_2" data-name="Ebene 2"><g id="Ebene_1-2" data-name="Ebene 1"><path class="cls-1" d="M14.52,2.28c-.24.07-.47.13-.71.18a6,6,0,0,1-.72.11V15.18H10.51L6,7.67,5.33,6.56,4.66,5.4C4.44,5,4.23,4.64,4,4.28s-.39-.7-.55-1c0,.58.06,1.24.08,2s0,1.56.06,2.43,0,1.8,0,2.77v3.31c.28,0,.56.06.85.11s.56.11.81.17v1.13H0V14.05l.92-.18c.3,0,.6-.08.88-.1V2.56c-.29,0-.59-.06-.89-.11S.3,2.35,0,2.28V1.17H4.4L8.88,8.62l.67,1.12.67,1.15c.22.39.43.76.63,1.13s.39.69.55,1c0-.59-.07-1.26-.09-2s0-1.56-.05-2.43,0-1.78,0-2.73,0-2.05,0-3.29a6,6,0,0,1-.84-.1,5.78,5.78,0,0,1-.77-.19V1.17h4.91Z"/><path class="cls-1" d="M25.38,15l-.79.08-.89.05-.93,0c-.31,0-.6,0-.88,0,0-.37,0-.74,0-1.09s.05-.68.09-1h0a3.26,3.26,0,0,1-.51.88,3.34,3.34,0,0,1-.78.72,3.89,3.89,0,0,1-2.17.64,3.5,3.5,0,0,1-1.19-.19,2.45,2.45,0,0,1-.93-.54,2.53,2.53,0,0,1-.59-.87,3.14,3.14,0,0,1-.2-1.18A2.73,2.73,0,0,1,16,11.14,3.18,3.18,0,0,1,17.18,10a6.77,6.77,0,0,1,2-.69,13.27,13.27,0,0,1,2.63-.23V8.4a3.65,3.65,0,0,0-.11-1,1.73,1.73,0,0,0-.36-.73,1.53,1.53,0,0,0-.67-.45,3,3,0,0,0-1-.15,6.94,6.94,0,0,0-1,.08,5.5,5.5,0,0,0-.95.22c0,.25-.05.53-.1.82s-.09.58-.15.86H16.29V5.23A10.76,10.76,0,0,1,18,4.83a10.43,10.43,0,0,1,1.85-.16,6.06,6.06,0,0,1,1.86.25,2.77,2.77,0,0,1,1.18.71,2.67,2.67,0,0,1,.62,1.08,4.93,4.93,0,0,1,.19,1.48v5.53c.24,0,.52.08.83.11l.87.09Zm-3.6-4.64a13.18,13.18,0,0,0-2.05.14,4.59,4.59,0,0,0-1.36.4,1.8,1.8,0,0,0-.74.62,1.56,1.56,0,0,0-.21.79,1.7,1.7,0,0,0,.1.61,1.2,1.2,0,0,0,.31.5,1.31,1.31,0,0,0,.52.32,2,2,0,0,0,.66.11,2.29,2.29,0,0,0,1.14-.28,2.69,2.69,0,0,0,.87-.74,3.41,3.41,0,0,0,.56-1,3.5,3.5,0,0,0,.2-1.19Z"/><path class="cls-1" d="M32.64,15.1a7.66,7.66,0,0,1-1,.17,8,8,0,0,1-1.08.07,4.46,4.46,0,0,1-1.32-.17,1.89,1.89,0,0,1-.85-.54,2.4,2.4,0,0,1-.45-1,6.46,6.46,0,0,1-.13-1.43V6.32H25.69V4.86h2.12V1.51L29.67,1V4.86h2.89V6.32H29.67v5.26a7.64,7.64,0,0,0,.07,1.07,1.7,1.7,0,0,0,.24.65.91.91,0,0,0,.45.34,2.08,2.08,0,0,0,.72.1,5.09,5.09,0,0,0,.69-.05,4.88,4.88,0,0,0,.62-.12Z"/><path class="cls-1" d="M45.74,15l-.81.08c-.3,0-.6.05-.91.06l-1,0-.88,0c0-.16,0-.33,0-.51s0-.38,0-.58l.06-.58c0-.19,0-.36.07-.51h0a4.06,4.06,0,0,1-.57,1,4.13,4.13,0,0,1-.82.74,3.73,3.73,0,0,1-1,.48,4.07,4.07,0,0,1-1.23.17,3.69,3.69,0,0,1-1.45-.25,2.29,2.29,0,0,1-1-.69,2.91,2.91,0,0,1-.52-1,5,5,0,0,1-.16-1.32V6.33c-.25,0-.53-.09-.84-.13l-.89-.09V5c.26,0,.53-.06.82-.09l.91,0c.32,0,.63,0,1,0s.62,0,.91,0v6.65a4.78,4.78,0,0,0,.09,1,1.81,1.81,0,0,0,.29.72,1.2,1.2,0,0,0,.54.45,2,2,0,0,0,.85.16,2.33,2.33,0,0,0,1.16-.3,3.06,3.06,0,0,0,.94-.86,4.28,4.28,0,0,0,.61-1.29,5.74,5.74,0,0,0,.22-1.58V6.31l-.82-.11-.83-.09V5c.26,0,.53-.06.83-.09l.89,0c.3,0,.61,0,.92,0s.6,0,.87,0v8.85l.86.12.89.08Z"/><path class="cls-1" d="M54.06,6.52a3.31,3.31,0,0,0-1.6.07,2.23,2.23,0,0,0-1.06.8,4,4,0,0,0-.64,1.49A9.15,9.15,0,0,0,50.54,11v2.77c.29,0,.59.05.91.1s.6.1.85.16v1.13H46.93V14.05l.86-.16c.31-.05.6-.08.88-.1V6.33l-.8-.12-.94-.1V5c.26,0,.54-.06.84-.09l.93,0c.31,0,.62,0,.93,0s.59,0,.87,0c0,.31,0,.7-.06,1.15s-.1.89-.17,1.32l0,0a5.22,5.22,0,0,1,.46-1.11,3.22,3.22,0,0,1,.75-1,2.51,2.51,0,0,1,1.11-.54,4.63,4.63,0,0,1,1.51-.06Z"/><path class="cls-1" d="M57.51,14.07a1.18,1.18,0,0,1-.1.5,1.3,1.3,0,0,1-.28.41,1.42,1.42,0,0,1-.41.28,1.21,1.21,0,0,1-.5.1,1.24,1.24,0,0,1-.5-.1,1.42,1.42,0,0,1-.41-.28,1.27,1.27,0,0,1-.27-.41,1.3,1.3,0,0,1,.27-1.4,1.42,1.42,0,0,1,.41-.28,1.24,1.24,0,0,1,.5-.1,1.21,1.21,0,0,1,.5.1,1.42,1.42,0,0,1,.41.28,1.2,1.2,0,0,1,.28.41A1.16,1.16,0,0,1,57.51,14.07Z"/><path class="cls-1" d="M63,15.18V14.05l.89-.16c.31-.05.61-.08.92-.1V2.56c-.3,0-.6-.06-.9-.11s-.61-.1-.91-.17V1.17H72.1V4.33H70.77c0-.14-.07-.37-.13-.69s-.1-.64-.14-1H66.73V7.27h3a6.49,6.49,0,0,1,.16-.89c.06-.26.1-.44.13-.55h1.16v4.26H70c0-.11-.07-.29-.13-.55a6.33,6.33,0,0,1-.16-.88h-3v5h3.8c0-.36.08-.7.15-1s.1-.55.14-.7h1.34v3.26Z"/><path class="cls-1" d="M81.32,6.52a3.31,3.31,0,0,0-1.6.07,2.23,2.23,0,0,0-1.06.8A4,4,0,0,0,78,8.88,9.15,9.15,0,0,0,77.8,11v2.77c.29,0,.59.05.91.1s.6.1.85.16v1.13H74.19V14.05l.86-.16c.3-.05.6-.08.88-.1V6.33l-.8-.12-.94-.1V5c.26,0,.54-.06.84-.09l.93,0c.31,0,.62,0,.93,0s.59,0,.87,0c0,.31,0,.7-.06,1.15s-.1.89-.18,1.32l0,0A5.86,5.86,0,0,1,78,6.24a3.36,3.36,0,0,1,.74-1,2.61,2.61,0,0,1,1.12-.54,4.63,4.63,0,0,1,1.51-.06Z"/><path class="cls-1" d="M82.25,15.18V14.05l.86-.16c.3-.05.59-.08.88-.1V1.49l-.86-.12-.92-.08V.16l.85-.08c.3,0,.61,0,.92-.06l1,0,.9,0V13.79c.3,0,.59.05.89.1s.58.1.85.16v1.13Z"/><path class="cls-1" d="M97.48,8.94c0,.15,0,.3,0,.44s0,.27,0,.38,0,.2,0,.26a.88.88,0,0,0,0,.14H90.67a5.55,5.55,0,0,0,.17,1.65A2.85,2.85,0,0,0,91.43,13a2.41,2.41,0,0,0,1,.68,3.9,3.9,0,0,0,1.43.23,8,8,0,0,0,1.53-.14,8.62,8.62,0,0,0,1.52-.42l.24,1.43a9.28,9.28,0,0,1-1.74.46,9.74,9.74,0,0,1-1.78.16A6.2,6.2,0,0,1,91.51,15a3.71,3.71,0,0,1-1.52-1,4.07,4.07,0,0,1-.94-1.64,7.94,7.94,0,0,1-.31-2.36,7,7,0,0,1,.31-2.14A5.16,5.16,0,0,1,90,6.21a4.06,4.06,0,0,1,1.48-1.14A5.06,5.06,0,0,1,95.22,5a3.37,3.37,0,0,1,1.28.92,3.71,3.71,0,0,1,.74,1.35A5.57,5.57,0,0,1,97.48,8.94Zm-1.91-.1a3.83,3.83,0,0,0-.14-1.17A2.36,2.36,0,0,0,95,6.79a1.9,1.9,0,0,0-.74-.53,2.52,2.52,0,0,0-1-.18,2.41,2.41,0,0,0-1.72.72,2.9,2.9,0,0,0-.56.87,4.76,4.76,0,0,0-.3,1.17Z"/><path class="cls-1" d="M108.83,9.53a7.39,7.39,0,0,1-.38,2.44,4.94,4.94,0,0,1-1.07,1.81,4.61,4.61,0,0,1-1.7,1.15,6,6,0,0,1-2.25.4l-1,0-.89-.08c-.28,0-.56-.08-.83-.13s-.54-.12-.81-.2V1.48L99,1.36l-.93-.08V.17l.84-.08c.3,0,.61,0,.92-.06l1,0h.93V5c0,.15,0,.31,0,.48l0,.51-.06.5c0,.16,0,.31-.07.44l0,0a3.52,3.52,0,0,1,.54-1,3.58,3.58,0,0,1,.78-.73,4.09,4.09,0,0,1,1-.45,4.15,4.15,0,0,1,2.74.16,3.09,3.09,0,0,1,1.19.93,4.31,4.31,0,0,1,.74,1.52A8.14,8.14,0,0,1,108.83,9.53Zm-2,.18a7.45,7.45,0,0,0-.13-1.49,3.71,3.71,0,0,0-.42-1.1,1.93,1.93,0,0,0-1.74-.91,2,2,0,0,0-.85.17,2.5,2.5,0,0,0-.7.46,3.13,3.13,0,0,0-.56.68,4.84,4.84,0,0,0-.39.83,6.89,6.89,0,0,0-.24.92,5.82,5.82,0,0,0-.08.92v3.42a5.55,5.55,0,0,0,.85.19c.3,0,.63,0,1,0a3.75,3.75,0,0,0,1.33-.23,2.7,2.7,0,0,0,1-.73,3.52,3.52,0,0,0,.66-1.28A6.56,6.56,0,0,0,106.86,9.71Z"/><path class="cls-1" d="M118.63,15.18V8.54a5,5,0,0,0-.08-1,2.13,2.13,0,0,0-.29-.72,1.28,1.28,0,0,0-.54-.46,2,2,0,0,0-.83-.15,2.47,2.47,0,0,0-1.17.29,2.84,2.84,0,0,0-.94.86,4.19,4.19,0,0,0-.63,1.29,5.41,5.41,0,0,0-.22,1.59v3.55a8.26,8.26,0,0,1,1,.13c.29.05.5.1.62.13v1.13h-5.22V14.05c.13,0,.36-.08.68-.13a10.24,10.24,0,0,1,1.06-.13V6.33c-.25,0-.53-.09-.84-.13l-.9-.09V5c.27,0,.55-.06.85-.09l.91,0c.32,0,.63,0,.93,0s.6,0,.88,0c0,.16,0,.33,0,.52l0,.58c0,.2,0,.39,0,.57s0,.36-.08.51l0,0a4.16,4.16,0,0,1,.58-1,3.44,3.44,0,0,1,.81-.76,3.6,3.6,0,0,1,1-.48,4.24,4.24,0,0,1,1.2-.17,4,4,0,0,1,1.47.25,2.36,2.36,0,0,1,1,.7,2.73,2.73,0,0,1,.52,1A5.08,5.08,0,0,1,120.5,8v5.78a9.4,9.4,0,0,1,1,.13c.31.05.52.1.65.13v1.13Z"/><path class="cls-1" d="M123.3,15.18V14.05l.85-.16a8.54,8.54,0,0,1,.9-.1V6.32l-.83-.12-.92-.09V5l.82-.09.9,0c.32,0,.64,0,1,0h.93v8.94c.3,0,.61.05.91.1s.57.1.81.16v1.13Zm3.93-13.59a1.19,1.19,0,0,1-.09.47,1.36,1.36,0,0,1-.27.39,1.16,1.16,0,0,1-.39.26,1.2,1.2,0,0,1-1,0,1.11,1.11,0,0,1-.4-.26,1.19,1.19,0,0,1-.27-.38,1.12,1.12,0,0,1-.1-.48,1.12,1.12,0,0,1,.1-.48,1.46,1.46,0,0,1,.27-.38,1.26,1.26,0,0,1,.4-.26,1.2,1.2,0,0,1,1,0,1.14,1.14,0,0,1,.39.25,1.46,1.46,0,0,1,.27.38A1.33,1.33,0,0,1,127.23,1.59Z"/><path class="cls-1" d="M137.31,12.35a2.82,2.82,0,0,1-.27,1.24,2.6,2.6,0,0,1-.8.95,4,4,0,0,1-1.31.61,6.69,6.69,0,0,1-1.76.21c-.37,0-.72,0-1.07,0l-.9-.09-.61-.09-.3-.05V12.17h1.14c0,.12.08.33.14.62s.1.62.14,1l.63.11a6.08,6.08,0,0,0,1,.07,3.72,3.72,0,0,0,.86-.09,1.87,1.87,0,0,0,.64-.27,1.17,1.17,0,0,0,.4-.46,1.39,1.39,0,0,0,.14-.63,1.18,1.18,0,0,0-.21-.7,1.77,1.77,0,0,0-.57-.51,5,5,0,0,0-.87-.43l-1-.42a8.3,8.3,0,0,1-1-.44,3.8,3.8,0,0,1-.8-.58,2.41,2.41,0,0,1-.57-.82,2.75,2.75,0,0,1-.21-1.11,2.51,2.51,0,0,1,.27-1.16,2.47,2.47,0,0,1,.79-.89,3.82,3.82,0,0,1,1.29-.57,7.17,7.17,0,0,1,1.74-.2,11.22,11.22,0,0,1,1.46.09l1,.16V7.77h-1.14c0-.13-.07-.34-.12-.64s-.1-.62-.13-1l-.49-.07a5.81,5.81,0,0,0-.76-.05,2.74,2.74,0,0,0-1.48.34A1.19,1.19,0,0,0,132.29,8a1.84,1.84,0,0,0,.56.51,5.93,5.93,0,0,0,.87.42l1,.41a8.47,8.47,0,0,1,1,.44,3.8,3.8,0,0,1,.8.58,2.44,2.44,0,0,1,.58.83A2.76,2.76,0,0,1,137.31,12.35Z"/><path class="cls-1" d="M141.73,14.07a1.18,1.18,0,0,1-.1.5,1.34,1.34,0,0,1-.69.69,1.18,1.18,0,0,1-.5.1,1.16,1.16,0,0,1-.49-.1,1.34,1.34,0,0,1-.69-.69,1.18,1.18,0,0,1-.1-.5,1.16,1.16,0,0,1,.1-.49,1.2,1.2,0,0,1,.28-.41,1.3,1.3,0,0,1,.41-.28,1.16,1.16,0,0,1,.49-.1,1.18,1.18,0,0,1,.5.1,1.3,1.3,0,0,1,.41.28,1.2,1.2,0,0,1,.28.41A1.16,1.16,0,0,1,141.73,14.07Z"/></g></g></svg>