<svg width="1284" height="968" viewBox="0 0 1284 968" fill="none" xmlns="http://www.w3.org/2000/svg">
<g filter="url(#filter0_d_67_6338)">
<path d="M4 320.008H324V640.008L4 320.008Z" fill="#27337E"/>
<path d="M324 640.008V320.008H644L324 640.008Z" fill="#709DCD"/>
<path d="M644 640.008V320.008H964L644 640.008Z" fill="#27337E"/>
<path d="M964 -1.19209e-05L964 320L644 320L964 -1.19209e-05Z" fill="#709DCD"/>
<path d="M324 -1.19209e-05L324 320L3.99999 320L324 -1.19209e-05Z" fill="white"/>
<path d="M964 640.008V320.008H1284L964 640.008Z" fill="#3BB390"/>
<path d="M4 960V640H324L4 960Z" fill="#709DCD"/>
<path d="M324 960V640H644L324 960Z" fill="#3BB390"/>
<path d="M644 640H964V960L644 640Z" fill="white"/>
</g>
<defs>
<filter id="filter0_d_67_6338" x="0" y="0" width="1288" height="968" filterUnits="userSpaceOnUse" color-interpolation-filters="sRGB">
<feFlood flood-opacity="0" result="BackgroundImageFix"/>
<feColorMatrix in="SourceAlpha" type="matrix" values="0 0 0 0 0 0 0 0 0 0 0 0 0 0 0 0 0 0 127 0" result="hardAlpha"/>
<feOffset dy="4"/>
<feGaussianBlur stdDeviation="2"/>
<feComposite in2="hardAlpha" operator="out"/>
<feColorMatrix type="matrix" values="0 0 0 0 0 0 0 0 0 0 0 0 0 0 0 0 0 0 0.25 0"/>
<feBlend mode="normal" in2="BackgroundImageFix" result="effect1_dropShadow_67_6338"/>
<feBlend mode="normal" in="SourceGraphic" in2="effect1_dropShadow_67_6338" result="shape"/>
</filter>
</defs>
</svg>
