<?xml version="1.0" encoding="UTF-8" standalone="no"?><svg xmlns:dc="http://purl.org/dc/elements/1.1/" xmlns:cc="http://creativecommons.org/ns#" xmlns:rdf="http://www.w3.org/1999/02/22-rdf-syntax-ns#" xmlns:svg="http://www.w3.org/2000/svg" xmlns="http://www.w3.org/2000/svg" width="48" height="48" viewBox="0 0 48 48.000001" id="svg69016" version="1.1"><defs id="defs69018" /><path d="m 18.617,3.015 c -2.644,0 -4.529,1.876 -4.529,4.127 0,2.243 1.885,4.118 4.529,4.118 2.27,0 4.164,-1.875 4.164,-4.118 0,-2.251 -1.894,-4.127 -4.164,-4.127 m 2.172,9.898 0.544,0.197 0.394,-0.03 1.875,1.429 4.414,0.126 c 1.75,-0.06 2.072,2.671 0.312,2.707 l -4.404,0.125 c -0.876,0.03 -1.359,-0.304 -2.279,-0.625 l -0.285,2.107 -0,1.055 -0.17,7.673 0.58,2.422 5.219,-2.216 c 1.465,-0.214 3.072,-3.064 3.072,-3.064 1.287,1.331 0.796,4.833 -1.403,5.673 l -6.209,2.483 1.064,4.431 8.532,-6.431 c 1.375,-0.573 2.251,-3.735 2.251,-3.735 1.563,0.991 1.929,4.502 0,5.852 L 17.831,44.982 15.392,43.509 20.877,39.38 19.296,34.244 9.8,38.049 7.7901,36.031 14.4,33.226 l -0.67,-6.621 -0.312,-8.352 -2.359,1.92 -0.188,4.494 c 0,1.689 -2.4739,1.483 -2.4739,-0.196 l -0.027,-4.182 0.5993,-2.036 2.4642,-4.493 2.6,-1.788 c 2.555,0.117 4.119,0.814 6.754,0.938 m -3.117,18.93 0.767,-0.33 -1.267,-4.092 z M 47.982,9.25 0.01769,30.325 -8.8e-7,28.886 48,7.785 Z" style="fill:#ffffff;fill-opacity:1;fill-rule:nonzero;stroke:none" id="path56232" /></svg>