<?xml version="1.0" encoding="UTF-8" standalone="no"?><svg xmlns:dc="http://purl.org/dc/elements/1.1/" xmlns:cc="http://creativecommons.org/ns#" xmlns:rdf="http://www.w3.org/1999/02/22-rdf-syntax-ns#" xmlns:svg="http://www.w3.org/2000/svg" xmlns="http://www.w3.org/2000/svg" xmlns:sodipodi="http://sodipodi.sourceforge.net/DTD/sodipodi-0.dtd" xmlns:inkscape="http://www.inkscape.org/namespaces/inkscape" id="svg6185" version="1.1" viewBox="0 0 12.7 12.7" height="48" width="48" sodipodi:docname="100.svg" inkscape:version="0.92.3 (2405546, 2018-03-11)"><sodipodi:namedview pagecolor="#ffffff" bordercolor="#666666" borderopacity="1" objecttolerance="10" gridtolerance="10" guidetolerance="10" inkscape:pageopacity="0" inkscape:pageshadow="2" inkscape:window-width="1408" inkscape:window-height="788" id="namedview12" showgrid="false" inkscape:zoom="4.916667" inkscape:cx="24.81356" inkscape:cy="23.18644" inkscape:window-x="433" inkscape:window-y="131" inkscape:window-maximized="0" inkscape:current-layer="layer1" /><defs id="defs6179" /><g transform="translate(0,-284.29998)" id="layer1"><path d="m 12.61048,287.1478 0.0896,-0.552 h -0.36312 l -1.64759,0.8256 -0.09,0.092 -1.827594,-1.2862 -0.363123,-0.1845 H 8.131987 l -0.181352,0.092 H 7.766644 l -1.643142,0.092 h -0.0922 L 4.38636,287.9736 H 0.4580715 0.2758398 l 0.1822317,0.092 3.7460515,0.1844 0.182232,0.091 0.183571,0.092 h 0.08957 0.184451 l 0.274436,-0.1836 0.273096,-0.3684 0.364045,-0.4611 0.18353,-0.1835 0.184451,-0.1845 h 0.181771 0.366222 l 0.09225,0.094 v 0.09 l -1.282238,1.4733 -0.179552,0.7355 -1.46313,1.7474 -0.64024,0.2758 -1.827133,0.4606 c 0,0 -0.4983732,0.1636 -0.365803,0.6052 0.06959,0.2319 0.458008,0.2212 0.458008,0.2212 l 2.648264,-0.6428 0.366683,-0.094 0.180892,-0.1822 0.09488,-0.184 1.001144,-1.1022 0.18353,-0.1845 h 0.184451 l 0.363584,0.368 0.365762,0.3662 0.276236,0.2767 0.273557,0.2758 0.08999,0.184 0.09447,0.1822 -0.09447,0.4598 -0.08999,0.4602 -0.09133,0.4607 -0.182232,0.5516 -0.09446,0.5506 c 0,0 0.02387,0.2651 0.184451,0.368 0.301947,0.1951 0.639779,-0.1836 0.639779,-0.1836 l 0.09179,-0.1844 0.09003,-0.368 0.09133,-0.4575 0.182232,-0.8287 0.274017,-0.9187 v -0.2762 l -0.09003,-0.1844 -0.18399,-0.2758 -0.182232,-0.1836 -0.181352,-0.2749 -0.363543,-0.368 -0.368022,-0.4624 -0.08999,-0.184 0.273557,-0.458 1.280019,-1.4729 0.364003,-0.2767 h 0.183572 l 0.911578,0.7373 0.18399,0.091 h 0.27356 l 1.18781,-0.6442 h 0.0913 l 0.09,0.092 -0.27355,0.6442 -0.27398,0.6442 -0.27448,0.5525 -1.826672,3.8622 -0.48242,0.9745 -0.0335,0.1619 0.122395,-0.096 0.941265,-1.8688 0.274432,-0.5511 1.0047,-2.114 0.36669,-0.7369 0.3653,-0.7364 0.27401,-0.5525 0.27356,-0.5529 c 0,0 0.0931,-0.1835 0.18445,-0.2736 z m -3.964166,-1.7353 c 0,0.4824 0.390132,0.8725 0.873431,0.8725 0.483255,0 0.873435,-0.3901 0.873435,-0.8725 0,-0.4833 -0.39018,-0.8739 -0.873435,-0.8739 -0.483299,0 -0.873431,0.3906 -0.873431,0.8739 z m 3.232186,10.0118 c 0,0 0.36886,-0.1095 0.54757,-0.3684 0.24785,-0.3574 0.25715,-0.5658 0.25715,-0.744 0,0 -0.26912,0.4553 -0.33876,0.5249 -0.094,0.094 -0.0758,0.068 -0.28197,0.2191 H 5.025254 l -0.09133,-0.1845 h -0.09003 l -0.273976,0.092 H 4.386355 l -1.006002,-0.5498 -0.729345,-0.4602 v -0.091 L 0.9164982,292.8492 0.4580715,292.4803 H 0.3689656 L 0.0940687,292.2985 6.3575e-5,292.6647 1.005646,293.309 l 0.915555,0.5533 0.729807,0.4566 0.639779,0.4625 0.18399,0.09 v 0.092 H 2.651008 l -0.182232,0.1845 v 0.092 l 0.09086,0.184 H 3.01635 3.380353 4.386355 5.30191 6.397478 11.87846 Z" id="path558-8" style="fill:#ffffff;fill-rule:nonzero;stroke-width:0.418731;fill-opacity:1" inkscape:connector-curvature="0" /><g transform="matrix(-0.418731,0,0,0.418731,355.668,243.7225)" style="fill:#ffffff;fill-rule:evenodd;fill-opacity:1" id="_55612264-5"><path id="_87735872-6" d="m 835.987,126.212 0.072,0.011 0.069,0.01 0.067,0.01 h 0.064 0.062 0.058 0.057 0.054 0.052 0.05 0.049 l 0.045,-0.01 0.043,-0.01 0.041,-0.01 0.039,-0.01 0.038,-0.011 0.035,-0.013 0.034,-0.013 0.032,-0.015 0.031,-0.016 0.029,-0.017 0.028,-0.018 0.025,-0.018 0.023,-0.021 0.022,-0.02 0.02,-0.023 0.02,-0.022 0.018,-0.024 0.017,-0.025 0.015,-0.026 0.027,-0.055 0.022,-0.058 0.019,-0.062 0.015,-0.065 0.012,-0.068 0.01,-0.071 v -0.074 -0.076 -0.078 -0.081 -0.083 -0.084 -0.086 -0.1768 -0.089 l 0.094,-1.9885 0.3918,1.836 c 0.083,0.3399 0.1747,0.6597 -0.3198,0.918 -0.3505,0.3103 0.041,0.7327 0.4225,0.6809 1.1457,0.041 0.9805,-0.7222 0.8767,-1.259 l -0.061,-0.7836 -0.1853,-1.5988 0.1546,-0.4024 c 1.2484,-0.3198 2.0933,-0.5569 3.0527,-1.0726 l 0.6808,0.092 c 0.3198,0.052 0.2382,0.413 0.269,0.6501 l 0.1027,0.6502 0.5675,1.476 0.041,0.1228 c 0.041,0.1038 0.031,0.5051 -0.1133,0.7116 l -0.3092,0.6194 c -0.2276,0.3399 -0.289,1.2071 0.3505,0.9286 h -0.011 l 0.4744,-0.1959 c 0.3409,-0.144 0.6194,-1.0832 0.7433,-1.764 l -0.021,-0.9699 c 0.2996,-0.083 0.4235,1.6402 0.2996,2.0012 l -0.2996,0.8969 c -0.083,0.289 0.2583,0.3928 0.4955,0.3928 0.557,0 0.8047,-0.5675 0.918,-1.0419 l 0.083,-0.3611 c 0.1441,-0.5474 0.072,-1.3828 -0.2064,-1.8678 l -0.144,-0.2986 c -0.2383,-0.5982 0.072,-1.0218 0.144,-1.3309 0.2372,-0.97 0.433,-1.9081 -0.2372,-2.8367 l -0.062,-0.072 c 0.032,-0.073 0.2276,-0.2266 0.3409,-0.5887 0.2573,-0.8249 0.485,-2.176 0.1652,-2.176 l -0.217,-0.011 c -0.5358,0 -0.3717,2.2278 -1.0208,2.0839 l -4.642,0.052 -0.8259,-0.2265 c -0.289,-0.084 -0.5463,-0.269 -0.8142,-0.4342 l -0.5369,-0.3303 c -0.5982,0.6088 -1.1351,0.991 -2.0118,1.3108 -0.2372,1.8149 0.031,2.2183 0.2584,3.3005 l 0.083,0.4436 c 0.1747,0.7741 0.2266,1.5788 0.1853,2.3835 l -0.02,0.3706 c 0.02,0.3822 -0.2065,0.4129 -0.5062,0.5061 -0.1958,0.1027 -0.3303,0.485 0.052,0.6703 h -0.01 0.01 z" style="fill:#ffffff;fill-opacity:1" inkscape:connector-curvature="0" /><path id="_137707376-4" d="m 834.992,115.092 -0.018,0.017 -0.024,0.017 -0.049,0.038 -0.05,0.039 -0.052,0.042 -0.052,0.045 -0.052,0.047 -0.054,0.048 -0.053,0.05 -0.054,0.051 -0.054,0.052 -0.1059,0.1059 -0.052,0.053 -0.052,0.053 -0.05,0.053 -0.05,0.053 -0.3303,0.3505 c -0.2055,0.217 -0.5252,0.1853 -0.8037,0.2477 l -0.1144,0.01 c -0.2986,0.1663 -0.2054,0.4966 -0.1027,0.7433 l 0.061,0.1546 c 0.2997,0.7116 1.1658,0.7635 1.7852,0.4331 l 0.2679,-0.144 h 0.093 l 0.1959,0.1239 0.3812,0.3092 c 0.8047,-0.3505 1.4549,-0.7635 1.9705,-1.3204 l -1.1965,-1.5057 -0.4023,-0.5781 -0.083,-0.1959 -0.092,-0.216 c 0,0 -0.3717,-0.4649 -0.5888,-0.3717 -0.216,0.093 -0.3504,0.4945 -0.2986,0.701 l 0.061,0.2477 0.021,0.2478 v 0 z" style="fill:#ffffff;fill-opacity:1" inkscape:connector-curvature="0" /></g></g></svg>