<?xml version="1.0" encoding="UTF-8" standalone="no"?><svg xmlns:dc="http://purl.org/dc/elements/1.1/" xmlns:cc="http://creativecommons.org/ns#" xmlns:rdf="http://www.w3.org/1999/02/22-rdf-syntax-ns#" xmlns:svg="http://www.w3.org/2000/svg" xmlns="http://www.w3.org/2000/svg" version="1.1" id="svg69016" viewBox="0 0 48 48.000001" height="48" width="48"><defs id="defs69018" /><path id="path42066" d="M 20.221 0.60352 C 18.658 0.743 17.304 2.0135 17.074 3.8945 C 16.854 5.7598 18.193 7.4768 20.027 7.709 C 21.871 7.9307 23.579 6.571 23.811 4.7266 C 24.074 2.5874 22.734 0.83698 20.9 0.61523 C 20.671 0.58752 20.444 0.58359 20.221 0.60352 z M 33.381 1.7871 L 32.506 4.4102 L 28.447 9.8926 C 28.447 9.8926 22.314 9.9961 22.104 9.9961 C 21.882 9.9961 17.17 7.9199 17.17 7.9199 C 17.17 7.9199 6.2714 14.772 5.9453 14.982 C 5.6283 15.204 5.4068 15.74 5.4707 16.416 C 5.4916 16.815 5.8919 20.928 5.9023 24.174 C 5.9023 24.288 5.9122 24.486 5.918 24.645 L 3.4688 23.783 L 2.8457 25.564 L 5.9219 26.646 C 5.8555 27.542 5.8665 28.071 5.9023 28.18 C 6.1763 29.054 6.4628 28.948 6.8945 28.832 C 7.5976 28.636 7.9128 27.875 8.0996 27.41 L 10.076 28.105 L 7.209 36.285 L 0.62305 33.967 L 0 35.725 L 29.449 46.088 C 31.725 46.835 35.763 47.783 38.082 47.256 C 42.003 46.371 45.911 43.451 47.998 37.75 L 46.24 37.096 L 45.629 38.594 L 30.359 33.23 C 30.253 32.821 29.957 31.631 29.936 31.572 C 29.766 31.129 29.501 30.244 29.111 29.865 C 28.721 29.486 22.271 24.016 22.271 24.016 L 13.84 25.375 C 13.84 25.375 14.05 26.312 14.271 27.145 C 14.323 27.334 14.416 27.51 14.525 27.668 L 9.7852 26.002 C 9.7676 25.975 9.7627 25.955 9.7383 25.924 C 9.4539 25.596 8.5811 24.733 8.3594 24.553 C 8.1494 24.405 8.3594 17.619 8.3594 17.619 L 11.869 16.195 L 13.66 24.342 L 22.156 23.035 L 23.305 14.318 C 23.305 14.318 28.785 12.788 29.154 12.736 C 29.543 12.683 29.871 12.409 30.209 11.861 C 30.535 11.313 33.866 6.1802 34.193 5.5371 C 34.519 4.9045 35.131 2.3984 35.131 2.3984 L 33.381 1.7871 z M 11.848 28.727 L 25.459 33.504 L 29.758 44.195 L 29.756 44.199 L 8.9707 36.906 L 11.848 28.727 z M 30.92 35.42 L 32.633 36.021 L 31.727 38.598 C 31.352 37.102 31.265 36.781 30.92 35.42 z M 34.404 36.643 L 44.721 40.258 C 42.782 43.294 40.189 44.863 37.66 45.443 C 36.838 45.627 35.704 45.554 34.562 45.381 C 35.431 44.992 36.669 44.414 36.691 44.189 C 36.734 43.631 36.417 43.208 36.27 43.145 C 35.795 42.924 32.939 43.451 32.939 43.451 C 32.939 43.451 32.643 42.263 32.555 41.908 L 34.404 36.643 z " style="fill:#ffffff;fill-opacity:1;fill-rule:nonzero;stroke:none;stroke-width:1.3044" /></svg>