<?xml version="1.0" encoding="UTF-8" standalone="no"?><svg xmlns:dc="http://purl.org/dc/elements/1.1/" xmlns:cc="http://creativecommons.org/ns#" xmlns:rdf="http://www.w3.org/1999/02/22-rdf-syntax-ns#" xmlns:svg="http://www.w3.org/2000/svg" xmlns="http://www.w3.org/2000/svg" width="48" height="48" viewBox="0 0 48 48.000001" id="svg69016" version="1.1"><defs id="defs69018" /><path d="m 0.0061008,1029.592 c -0.2265372,-7.446 5.8517872,-18.584 19.0138492,-22.399 12.46337,-3.62 22.82045,-1.203 26.94393,3.939 4.20622,5.214 0.79161,4.114 -0.46325,3.65 -2.56954,-0.934 -5.7487,-2.199 -12.71027,-2.437 -7.7748,-0.268 -13.9244,1.513 -13.9244,1.513 0,0 -6.37486,6.818 -6.83939,12.648 -0.72924,9.009 -11.6717546,13.945 -12.0204692,3.086" style="fill-opacity:1;stroke:none;stroke-width:1.272681;fill:#ffffff;fill-rule:evenodd" id="path38362" transform="matrix(1.000000,0.000000,0.000000,1.000000,0.000000,-1004.362200)" /><path id="path38366" style="fill-opacity:1;stroke:none;fill:#ffffff;display:inline;fill-rule:nonzero" d="m 0,0 -24.992,5.681 0.113,0.501 25,-5.673 z" transform="matrix(1.272681,0.000000,0.000000,-1.272681,34.960160,38.557800)" /><path id="path38370" style="fill-opacity:1;stroke:none;fill:#ffffff;display:inline;fill-rule:nonzero" d="M 0,0 6.222,20.686 6.715,20.541 0.484,-0.146 Z" transform="matrix(1.272681,0.000000,0.000000,-1.272681,39.372400,36.634800)" /><path id="path38374" style="fill-opacity:1;stroke:none;fill:#ffffff;display:inline;fill-rule:nonzero" d="M 0,0 2.683,22.391 3.192,22.326 0.518,-0.064 Z" transform="matrix(1.272681,0.000000,0.000000,-1.272681,39.351210,36.675800)" /><path id="path38378" style="fill-opacity:1;stroke:none;fill:#ffffff;display:inline;fill-rule:nonzero" d="M 0,0 -2.804,23.312 -2.295,23.368 0.518,0.064 Z" transform="matrix(1.272681,0.000000,0.000000,-1.272681,39.351210,36.757800)" /><path id="path38382" style="fill-opacity:1;stroke:none;fill:#ffffff;display:inline;fill-rule:nonzero" d="M 0,0 -20.468,7.999 -20.274,8.484 0.193,0.469 Z" transform="matrix(1.272681,0.000000,0.000000,-1.272681,34.909150,38.526800)" /><path id="path38386" style="fill-opacity:1;stroke:none;fill:#ffffff;display:inline;fill-rule:nonzero" d="m 0,0 -19.288,13.293 0.299,0.428 19.28,-13.3 z" transform="matrix(1.272681,0.000000,0.000000,-1.272681,34.847040,38.506800)" /><path id="path38390" style="fill-opacity:1;stroke:none;fill:#ffffff;display:inline;fill-rule:evenodd" d="M 0,0 C 0,0.605 0.493,1.091 1.099,1.091 1.713,1.091 2.198,0.605 2.198,0 2.198,-0.607 1.713,-1.099 1.099,-1.099 0.493,-1.099 0,-0.607 0,0" transform="matrix(1.272681,0.000000,0.000000,-1.272681,35.886060,35.934800)" /><path id="path38394" style="fill-opacity:1;stroke:none;fill:#ffffff;display:inline;fill-rule:evenodd" d="m 0,0 c -0.259,0.274 -0.816,0.848 -0.93,0.889 -0.137,0.056 -0.573,0.145 -0.533,0.412 0.04,0.266 0.323,0.582 0.582,0.516 0.267,-0.047 0.38,-0.274 0.38,-0.274 L 0.63,1.155 c 0.049,0.17 0.129,0.405 0.194,0.469 0.097,0.137 0.379,0.307 0.501,0.38 0.129,0.057 0.864,0.38 0.864,0.38 0.243,0.258 0.428,0.452 0.93,0.363 0.258,-0.049 0.67,-0.056 0.88,-0.444 0.219,-0.388 0.211,-1.188 0.13,-2.481 -0.13,-2.06 -1.066,-2.57 -1.745,-2.457 -0.195,0.041 -0.486,0.138 -0.486,0.138 0,0 -0.727,-0.784 -1.236,-0.679 -0.703,0.113 -1.163,0.63 -1.163,0.63 l -0.784,-2.828 c 0,0 -0.17,-0.274 -0.8,-0.259 -0.646,0.009 -0.873,0.291 -0.856,0.542 0.015,0.25 0.128,0.437 0.387,0.437 0.259,0 0.493,0.008 0.493,0.008 0,0 0.17,1.05 0.17,1.414 0,0.363 -0.048,1.05 -0.048,1.05 0,0 -0.898,-0.21 -1.1,-0.364 -0.201,-0.145 -0.953,-0.541 -1.171,-0.686 -0.234,-0.129 -0.444,-0.284 -0.687,-0.057 -0.235,0.21 -0.751,0.703 -0.751,0.97 0,0.25 0.081,0.444 0.436,0.298 0.356,-0.128 0.525,-0.128 0.525,-0.128 0,0 0.525,0.217 1.001,0.614 0.486,0.388 1.092,0.84 1.261,1.195 0.17,0.348 0.493,0.59 0.89,0.404 0.388,-0.202 1.098,-0.476 1.098,-0.476 l 0.291,0.169 z" transform="matrix(1.272681,0.000000,0.000000,-1.272681,35.690980,39.729800)" /></svg>