<?xml version="1.0" encoding="UTF-8" standalone="no"?><svg xmlns:dc="http://purl.org/dc/elements/1.1/" xmlns:cc="http://creativecommons.org/ns#" xmlns:rdf="http://www.w3.org/1999/02/22-rdf-syntax-ns#" xmlns:svg="http://www.w3.org/2000/svg" xmlns="http://www.w3.org/2000/svg" xmlns:sodipodi="http://sodipodi.sourceforge.net/DTD/sodipodi-0.dtd" xmlns:inkscape="http://www.inkscape.org/namespaces/inkscape" version="1.1" id="svg53822" viewBox="0 0 48 48.000001" height="48" width="48" sodipodi:docname="111.svg" inkscape:version="0.92.3 (2405546, 2018-03-11)"><sodipodi:namedview pagecolor="#ffffff" bordercolor="#666666" borderopacity="1" objecttolerance="10" gridtolerance="10" guidetolerance="10" inkscape:pageopacity="0" inkscape:pageshadow="2" inkscape:window-width="1724" inkscape:window-height="871" id="namedview15" showgrid="false" inkscape:zoom="4.916667" inkscape:cx="24.40678" inkscape:cy="24" inkscape:window-x="0" inkscape:window-y="24" inkscape:window-maximized="0" inkscape:current-layer="svg53822" /><defs id="defs53824" /><g id="g29520" transform="matrix(0,3.512466,3.512466,0,24.76048,15.49805)" style="fill:#ffffff;fill-opacity:1"><path d="m 0,0 c -0.364,-0.361 -0.942,-0.361 -1.301,0 -0.363,0.358 -0.363,0.945 0,1.302 0.355,0.36 0.937,0.358 1.298,0 C 0.359,0.941 0.358,0.358 0,0" style="fill:#ffffff;fill-opacity:1;fill-rule:evenodd;stroke:none" id="path29522" inkscape:connector-curvature="0" /></g><path inkscape:connector-curvature="0" id="path29526" style="fill:#ffffff;fill-opacity:1;fill-rule:evenodd;stroke:none;stroke-width:3.512466" d="m 25.37518,17.52387 6.48401,-0.97295 5.24763,0.35124 4.18334,-4.5662 c 0.43555,-0.47419 1.3242,-0.80084 1.87566,-0.48472 0.55146,0.31261 0.85002,1.33825 0.44608,1.80892 l -3.94801,4.58025 c -0.46716,0.54092 -0.6779,1.18019 -1.63681,1.24342 l -5.59184,0.37583 0.69898,7.81524 6.28029,1.60519 c 0.57604,0.14753 1.12399,0.48824 1.52792,0.92378 l 4.68563,5.08957 c 0.49526,0.5374 0.40393,1.67544 -0.0773,2.19177 -0.48472,0.51634 -1.55602,0.54795 -2.05128,0.0773 l -5.66209,-5.353 -6.52967,0.15455 -5.13172,7.22865 3.65648,6.55427 c 0.31261,0.5655 -0.26695,1.46821 -0.87109,1.73515 -0.60415,0.26344 -1.58764,0.0738 -1.95996,-0.48823 L 25.34355,44.886 22.58977,40.40058 c -0.31612,-0.51633 -0.23533,-1.28205 0.0492,-1.81594 l 4.33789,-8.05058 -1.94239,-9.29398 -4.6505,1.35932 c -0.95188,0.27398 -1.29962,-0.0808 -1.93537,-0.56199 l -6.08711,-4.58377 c -0.46715,-0.35476 -0.38637,-1.30664 -0.007,-1.76326 0.37583,-0.45662 1.27502,-0.706 1.76326,-0.35476 l 5.92904,4.26062 5.32841,-2.07235" /><g id="g29528" transform="matrix(0,3.512466,3.512466,0,1.233992,1.391107)" style="stroke:#ffffff;stroke-opacity:1"><path d="m 0,0 1.596,8.997 -1.895,3.938" style="fill:none;stroke:#ffffff;stroke-width:0.216;stroke-linecap:butt;stroke-linejoin:miter;stroke-miterlimit:22.9260006;stroke-dasharray:none;stroke-opacity:1" id="path29530" inkscape:connector-curvature="0" /></g><g id="g29532" transform="matrix(0,3.512466,3.512466,0,32.72327,6.657173)" style="stroke:#ffffff;stroke-opacity:1"><path d="M 0,0 3.383,-0.596" style="fill:none;stroke:#ffffff;stroke-width:0.3;stroke-linecap:butt;stroke-linejoin:miter;stroke-miterlimit:22.9260006;stroke-dasharray:none;stroke-opacity:1" id="path29534" inkscape:connector-curvature="0" /></g></svg>