<?xml version="1.0" encoding="UTF-8" standalone="no"?><svg xmlns:dc="http://purl.org/dc/elements/1.1/" xmlns:cc="http://creativecommons.org/ns#" xmlns:rdf="http://www.w3.org/1999/02/22-rdf-syntax-ns#" xmlns:svg="http://www.w3.org/2000/svg" xmlns="http://www.w3.org/2000/svg" width="48" height="48" viewBox="0 0 48 48.000001" id="svg69016" version="1.1"><defs id="defs69018"><clipPath clipPathUnits="userSpaceOnUse" id="clipPath25293"><path d="M 1649.764,271.557 1658.267,271.557 1658.267,280.058 1649.764,280.058 1649.764,271.557 Z" id="path25295" /></clipPath><clipPath clipPathUnits="userSpaceOnUse" id="clipPath25271"><path d="M 0,0 1808.504,0 1808.504,765.354 0,765.354 0,0 Z" id="path25273" /></clipPath><clipPath clipPathUnits="userSpaceOnUse" id="clipPath25905"><path d="M 0,0 1808.504,0 1808.504,765.354 0,765.354 0,0 Z" id="path25907" /></clipPath><clipPath clipPathUnits="userSpaceOnUse" id="clipPath25585"><path d="M 0,0 1808.504,0 1808.504,765.354 0,765.354 0,0 Z" id="path25587" /></clipPath><clipPath clipPathUnits="userSpaceOnUse" id="clipPath25561"><path d="M 0,0 1808.504,0 1808.504,765.354 0,765.354 0,0 Z" id="path25563" /></clipPath><clipPath clipPathUnits="userSpaceOnUse" id="clipPath25201"><path d="M 0,0 1808.504,0 1808.504,765.354 0,765.354 0,0 Z" id="path25203" /></clipPath><clipPath clipPathUnits="userSpaceOnUse" id="clipPath25073"><path d="M 0,0 1808.504,0 1808.504,765.354 0,765.354 0,0 Z" id="path25075" /></clipPath></defs><path d="M 7.0962,48 40.937,7.5454 C 43.635,4.4583 42.616,3.8774e-6 43.972,3.8774e-6 47.016,0.34464 48.709,7.2081 44.31,12.348 L 14.546,48 H 7.0962 M 1.3547,48 1.0173,42.86 30.788,7.5454 C 33.149,4.4583 32.13,-8.212e-6 33.824,-8.212e-6 36.874,0.34463 38.554,7.2081 34.161,12.348 L 4.0604,48 H 1.3547 m 29.0933,-25.718 7.098,6.856 c 4.737,0 6.761,0.352 7.773,2.061 2.046,2.397 1.356,5.14 0.682,7.2 l -3.718,-3.769 -4.062,0.338 -0.338,3.769 3.725,3.776 c -2.713,0.682 -5.081,0.344 -7.098,-1.034 -2.031,-1.371 -2.031,-4.796 -1.356,-8.22 L 22.331,22.282 15.563,15.433 c -4.745,0.338 -6.7759,0 -7.7805,-1.716 C 5.7514,11.312 6.426,8.5771 7.0932,6.172 l 3.7248,4.121 3.725,-0.682 0.675,-3.7763 -4.062,-3.769 c 3.05,-0.352 5.418,-0.352 7.45,1.0192 2.031,1.7159 2.031,4.8029 1.356,8.5791 l 10.486,10.618" style="fill:#ffffff;fill-opacity:1;fill-rule:nonzero;stroke:none;stroke-width:5.866178" id="path19115" /></svg>