<?xml version="1.0" encoding="UTF-8" standalone="no"?><svg xmlns:dc="http://purl.org/dc/elements/1.1/" xmlns:cc="http://creativecommons.org/ns#" xmlns:rdf="http://www.w3.org/1999/02/22-rdf-syntax-ns#" xmlns:svg="http://www.w3.org/2000/svg" xmlns="http://www.w3.org/2000/svg" width="48" height="48" viewBox="0 0 48 48.000001" id="svg53822" version="1.1"><defs id="defs53824"><clipPath clipPathUnits="userSpaceOnUse" id="clipPath25407"><path d="M 0,0 H 1808.504 V 765.354 H 0 Z" id="path25409" /></clipPath></defs><path id="path16619" style="fill-opacity:1;stroke:none;fill:#fbc707;fill-rule:nonzero" d="m 0,0 c -1.923,0 -3.483,1.558 -3.483,3.481 0,1.923 1.56,3.483 3.483,3.483 1.923,0 3.483,-1.56 3.483,-3.483 C 3.483,1.558 1.923,0 0,0" transform="matrix(6.890494,0.000000,0.000000,-6.890494,23.999976,48.188800)" /><path id="path16623" style="fill-opacity:1;stroke:none;fill:#ffffff;fill-rule:nonzero" d="M 0,0 C 1.885,0 3.414,1.528 3.414,3.412 3.414,5.298 1.885,6.826 0,6.826 -1.884,6.826 -3.412,5.298 -3.412,3.412 -3.412,1.528 -1.884,0 0,0" transform="matrix(6.890494,0.000000,0.000000,-6.890494,23.999976,47.672000)" /><path id="path16627" style="fill-opacity:1;stroke:none;fill:#fbc707;fill-rule:nonzero" d="m 0,0 c -1.484,0 -2.687,1.204 -2.687,2.688 0,1.484 1.203,2.687 2.687,2.687 1.486,0 2.688,-1.203 2.688,-2.687 C 2.688,1.204 1.486,0 0,0 m 0,0.069 c 1.447,0 2.619,1.173 2.619,2.619 0,1.445 -1.172,2.618 -2.619,2.618 -1.445,0 -2.618,-1.173 -2.618,-2.618 0,-1.446 1.173,-2.619 2.618,-2.619" transform="matrix(6.890494,0.000000,0.000000,-6.890494,23.999976,42.504000)" /><path id="path16631" style="fill-opacity:1;stroke:none;fill:#fbc707;fill-rule:nonzero" d="m 0,0 c -2.428,1.437 -2.308,4.064 -2.308,4.064 0,0 0.662,0.608 2.308,0.608 1.648,0 2.31,-0.608 2.31,-0.608 C 2.31,4.064 2.429,1.437 0,0" transform="matrix(6.890494,0.000000,0.000000,-6.890494,23.999976,42.504000)" /><path id="path16635" style="fill-opacity:1;stroke:none;fill:#127bca;fill-rule:nonzero" d="m 0,0 h -4.472 c 0,0.092 0,0.159 0,0.193 0.019,0.017 0.05,0.041 0.098,0.071 0.083,0.055 0.214,0.129 0.396,0.203 0.362,0.149 0.931,0.3 1.745,0.3 0.816,0 1.384,-0.151 1.746,-0.3 0.179,-0.074 0.31,-0.148 0.394,-0.203 C -0.047,0.234 -0.015,0.21 0.005,0.193 0.005,0.159 0.005,0.092 0,0" transform="matrix(6.890494,0.000000,0.000000,-6.890494,39.410952,16.147200)" /><path id="path16639" style="fill-opacity:1;stroke:none;fill:#ed1c24;fill-rule:nonzero" d="M 0,0 H 0.654 V -1.791 C 0.441,-1.445 0.292,-1.099 0.187,-0.78 0.092,-0.491 0.034,-0.226 0,0" transform="matrix(6.890494,0.000000,0.000000,-6.890494,8.940424,19.248000)" /><path id="path16643" style="fill-opacity:1;stroke:none;fill:#ffffff;fill-rule:nonzero" d="M 0,0 H 0.326 V -2.333 C 0.205,-2.19 0.097,-2.044 0,-1.899 V 0" transform="matrix(6.890494,0.000000,0.000000,-6.890494,13.922376,19.248000)" /><path id="path16647" style="fill-opacity:1;stroke:none;fill:#ed1c24;fill-rule:nonzero" d="M 0,0 C -0.282,-0.316 -0.632,-0.618 -1.068,-0.88 -1.502,-0.618 -1.853,-0.316 -2.136,0 V 2.413 H 0 V 0" transform="matrix(6.890494,0.000000,0.000000,-6.890494,31.359208,35.785600)" /><path id="path16651" style="fill-opacity:1;stroke:none;fill:#ffffff;fill-rule:nonzero" d="M 0,0 C -0.095,-0.146 -0.203,-0.292 -0.324,-0.434 V 1.899 H 0 V 0" transform="matrix(6.890494,0.000000,0.000000,-6.890494,34.082744,32.168000)" /><path id="path16655" style="fill-opacity:1;stroke:none;fill:#ed1c24;fill-rule:nonzero" d="M 0,0 C -0.034,-0.226 -0.093,-0.491 -0.187,-0.78 -0.292,-1.099 -0.441,-1.445 -0.654,-1.791 V 0 H 0" transform="matrix(6.890494,0.000000,0.000000,-6.890494,39.069864,19.248000)" /><path id="path16659" style="fill-opacity:1;stroke:none;fill:#fbc707;fill-rule:nonzero" d="M 0,0 H 0.595 V -0.583 H 0 v -0.595 h -0.582 v 0.595 H -1.178 V 0 h 0.596 V 0.595 H 0 Z" transform="matrix(6.890494,0.000000,0.000000,-6.890494,26.010328,27.000000)" /><path id="path16663" style="fill-opacity:1;stroke:none;fill:#ffffff;fill-rule:nonzero" d="M 0,0 V 0.596 H -0.444 V 0 h -0.595 v -0.442 h 0.595 V -1.039 H 0 v 0.597 H 0.595 V 0 Z" transform="matrix(6.890494,0.000000,0.000000,-6.890494,25.534872,27.516800)" /><path id="path16667" style="fill-opacity:1;stroke:none;fill:#231f20;fill-rule:nonzero" d="m 0,0 c -0.077,-0.007 -0.115,-0.046 -0.108,-0.126 0.007,-0.107 0.085,-0.116 0.124,-0.115 0.154,0.012 0.071,0.205 0.19,0.213 0.045,0.003 0.077,-0.026 0.079,-0.067 0.007,-0.077 -0.044,-0.084 -0.092,-0.087 l 0.004,-0.051 c 0.09,0.007 0.139,0.038 0.131,0.136 C 0.324,-0.036 0.292,0.033 0.195,0.026 0.041,0.015 0.126,-0.179 0.007,-0.187 c -0.045,-0.003 -0.069,0.022 -0.073,0.064 -0.003,0.051 0.027,0.069 0.071,0.072 L 0,0" transform="matrix(6.890494,0.000000,0.000000,-6.890494,2.294376,24.416000)" /><path id="path16671" style="fill-opacity:1;stroke:none;fill:#231f20;fill-rule:nonzero" d="M 0,0 C 0.052,-0.003 0.11,-0.015 0.108,-0.077 0.106,-0.149 0.026,-0.156 -0.07,-0.152 c -0.099,0.003 -0.177,0.014 -0.174,0.086 0.001,0.055 0.042,0.068 0.09,0.068 l 0.003,0.054 C -0.234,0.057 -0.283,0.023 -0.287,-0.064 -0.29,-0.18 -0.179,-0.203 -0.072,-0.206 0.033,-0.211 0.146,-0.198 0.151,-0.079 0.154,0.013 0.082,0.046 0.003,0.054 L 0,0" transform="matrix(6.890494,0.000000,0.000000,-6.890494,3.488184,22.348800)" /><path id="path16675" style="fill-opacity:1;stroke:none;fill:#231f20;fill-rule:nonzero" d="m 0,0 -0.008,-0.052 0.17,-0.023 -0.02,-0.145 -0.17,0.025 -0.006,-0.051 0.416,-0.059 0.008,0.051 -0.202,0.03 0.02,0.142 0.202,-0.028 0.006,0.051 z" transform="matrix(6.890494,0.000000,0.000000,-6.890494,1.922280,19.764800)" /><path id="path16679" style="fill-opacity:1;stroke:none;fill:#231f20;fill-rule:nonzero" d="M 0,0 0.02,0.061 -0.29,0.218 -0.288,0.22 0.054,0.175 0.072,0.236 -0.305,0.441 -0.319,0.392 -0.01,0.229 V 0.228 L -0.357,0.272 -0.375,0.213 -0.062,0.054 h -0.002 l -0.347,0.039 -0.015,-0.05 z" transform="matrix(6.890494,0.000000,0.000000,-6.890494,4.955896,19.248000)" /><path id="path16683" style="fill-opacity:1;stroke:none;fill:#231f20;fill-rule:nonzero" d="M 0,0 0.09,0.206 0.049,0.224 -0.021,0.067 -0.159,0.128 -0.095,0.27 -0.138,0.29 -0.202,0.147 -0.323,0.2 -0.254,0.352 -0.297,0.37 -0.385,0.172 Z" transform="matrix(6.890494,0.000000,0.000000,-6.890494,5.725928,17.180800)" /><path id="path16687" style="fill-opacity:1;stroke:none;fill:#231f20;fill-rule:nonzero" d="M 0,0 0.023,0.046 -0.355,0.231 -0.378,0.183 Z" transform="matrix(6.890494,0.000000,0.000000,-6.890494,6.490792,15.113600)" /><path id="path16691" style="fill-opacity:1;stroke:none;fill:#231f20;fill-rule:nonzero" d="M 0,0 0.126,0.21 0.087,0.234 -0.011,0.07 l -0.184,0.331 -0.041,0.025 -0.119,-0.2 0.039,-0.024 0.092,0.153 0.186,-0.334 z" transform="matrix(6.890494,0.000000,0.000000,-6.890494,6.806040,14.596800)" /><path id="path16695" style="fill-opacity:1;stroke:none;fill:#231f20;fill-rule:nonzero" d="M 0,0 0.133,0.182 0.095,0.21 -0.007,0.069 -0.128,0.157 -0.036,0.285 -0.074,0.311 -0.165,0.185 -0.272,0.262 -0.175,0.396 -0.213,0.424 -0.341,0.247 Z" transform="matrix(6.890494,0.000000,0.000000,-6.890494,7.849976,13.046400)" /><path id="path16699" style="fill-opacity:1;stroke:none;fill:#231f20;fill-rule:evenodd" d="m 0,0 0.036,0.038 -0.138,0.127 0.05,0.053 c 0.018,0.018 0.041,0.039 0.086,0.003 L 0.085,0.179 C 0.1,0.165 0.126,0.147 0.139,0.147 L 0.182,0.193 C 0.167,0.19 0.154,0.192 0.118,0.223 L 0.062,0.269 c -0.028,0.023 -0.064,0.028 -0.092,0.005 0.025,0.044 0,0.088 -0.034,0.119 -0.049,0.046 -0.105,0.043 -0.151,-0.006 l -0.093,-0.1 z m -0.241,0.297 0.043,0.044 c 0.032,0.036 0.07,0.039 0.1,0.01 0.06,-0.056 0.023,-0.097 0.001,-0.118 L -0.133,0.195 -0.241,0.297" transform="matrix(6.890494,0.000000,0.000000,-6.890494,8.976600,11.496000)" /><path id="path16703" style="fill-opacity:1;stroke:none;fill:#231f20;fill-rule:nonzero" d="m 0,0 c -0.051,0.061 -0.103,0.069 -0.166,0.018 -0.083,-0.067 -0.047,-0.138 -0.022,-0.169 0.096,-0.119 0.208,0.059 0.283,-0.032 0.028,-0.037 0.021,-0.079 -0.01,-0.105 -0.06,-0.048 -0.093,-0.01 -0.124,0.026 l -0.04,-0.033 c 0.056,-0.069 0.11,-0.09 0.187,-0.028 0.046,0.038 0.085,0.103 0.023,0.179 -0.097,0.119 -0.206,-0.061 -0.28,0.033 -0.03,0.034 -0.023,0.068 0.01,0.096 0.039,0.031 0.07,0.017 0.098,-0.018 L 0,0" transform="matrix(6.890494,0.000000,0.000000,-6.890494,11.043800,6.328000)" /><path id="path16707" style="fill-opacity:1;stroke:none;fill:#231f20;fill-rule:nonzero" d="M 0,0 0.043,0.028 -0.036,0.149 -0.031,0.223 0.175,0.115 0.223,0.146 -0.026,0.277 -0.015,0.493 -0.064,0.462 -0.074,0.211 -0.075,0.21 -0.187,0.382 -0.229,0.354 Z" transform="matrix(6.890494,0.000000,0.000000,-6.890494,12.769912,7.878400)" /><path id="path16711" style="fill-opacity:1;stroke:none;fill:#231f20;fill-rule:nonzero" d="M 0,0 0.046,0.025 -0.159,0.393 -0.205,0.369 Z" transform="matrix(6.890494,0.000000,0.000000,-6.890494,14.485688,6.844800)" /><path id="path16715" style="fill-opacity:1;stroke:none;fill:#231f20;fill-rule:nonzero" d="M 0,0 0.131,0.062 0.111,0.103 -0.02,0.043 Z" transform="matrix(6.890494,0.000000,0.000000,-6.890494,14.764760,5.811200)" /><path id="path16719" style="fill-opacity:1;stroke:none;fill:#231f20;fill-rule:nonzero" d="m 0,0 c 0.025,-0.084 0.077,-0.116 0.157,-0.092 0.079,0.025 0.103,0.087 0.079,0.164 L 0.149,0.355 0.1,0.339 0.187,0.057 C 0.203,0 0.198,-0.034 0.144,-0.051 0.095,-0.066 0.067,-0.044 0.049,0.015 L -0.038,0.298 -0.087,0.283 0,0" transform="matrix(6.890494,0.000000,0.000000,-6.890494,17.126536,4.777600)" /><path id="path16723" style="fill-opacity:1;stroke:none;fill:#231f20;fill-rule:nonzero" d="m 0,0 0.051,0.01 -0.066,0.334 h 0.002 L 0.185,0.036 0.256,0.049 0.174,0.462 0.123,0.452 0.19,0.108 V 0.106 L -0.015,0.426 -0.08,0.413 Z" transform="matrix(6.890494,0.000000,0.000000,-6.890494,19.426296,4.777600)" /><path id="path16727" style="fill-opacity:1;stroke:none;fill:#231f20;fill-rule:evenodd" d="M 0,0 0.054,0.003 C 0.147,0.01 0.159,-0.077 0.166,-0.157 0.17,-0.233 0.167,-0.326 0.077,-0.333 L 0.023,-0.336 Z m -0.026,-0.382 0.118,0.008 c 0.115,0.009 0.134,0.115 0.128,0.22 -0.009,0.116 -0.032,0.21 -0.163,0.2 l -0.113,-0.008 0.03,-0.42" transform="matrix(6.890494,0.000000,0.000000,-6.890494,21.865592,1.676800)" /><path id="path16731" style="fill-opacity:1;stroke:none;fill:#231f20;fill-rule:nonzero" d="M 0,0 C 0.007,0.077 -0.028,0.12 -0.106,0.128 -0.213,0.136 -0.236,0.061 -0.239,0.021 -0.254,-0.133 -0.049,-0.08 -0.061,-0.2 -0.064,-0.244 -0.098,-0.27 -0.139,-0.267 -0.214,-0.26 -0.213,-0.21 -0.21,-0.162 l -0.05,0.005 c -0.009,-0.09 0.016,-0.143 0.114,-0.151 0.059,-0.007 0.133,0.015 0.141,0.113 0.013,0.152 -0.19,0.1 -0.18,0.218 0.003,0.044 0.031,0.065 0.075,0.062 0.049,-0.005 0.063,-0.036 0.059,-0.08 L 0,0" transform="matrix(6.890494,0.000000,0.000000,-6.890494,26.661496,2.193600)" /><path id="path16735" style="fill-opacity:1;stroke:none;fill:#231f20;fill-rule:nonzero" d="M 0,0 0.051,-0.01 0.116,0.324 H 0.118 L 0.185,-0.036 0.256,-0.051 0.336,0.364 0.283,0.374 0.218,0.028 H 0.216 L 0.146,0.4 0.08,0.413 Z" transform="matrix(6.890494,0.000000,0.000000,-6.890494,26.899224,4.777600)" /><path id="path16739" style="fill-opacity:1;stroke:none;fill:#231f20;fill-rule:evenodd" d="m 0,0 c -0.11,0.036 -0.164,-0.066 -0.197,-0.167 -0.032,-0.1 -0.049,-0.213 0.063,-0.249 0.109,-0.036 0.163,0.065 0.196,0.165 C 0.095,-0.149 0.111,-0.036 0,0 m -0.013,-0.041 c 0.069,-0.021 0.052,-0.1 0.023,-0.193 -0.03,-0.092 -0.064,-0.164 -0.131,-0.143 -0.069,0.023 -0.054,0.102 -0.023,0.194 0.029,0.093 0.062,0.165 0.131,0.142" transform="matrix(6.890494,0.000000,0.000000,-6.890494,30.873416,2.710400)" /><path id="path16743" style="fill-opacity:1;stroke:none;fill:#231f20;fill-rule:nonzero" d="m 0,0 0.056,-0.026 0.2,0.282 H 0.257 L 0.165,-0.077 0.223,-0.105 0.478,0.241 0.431,0.262 0.228,-0.023 0.226,-0.021 0.318,0.316 0.262,0.342 0.062,0.056 H 0.061 L 0.149,0.395 0.101,0.416 Z" transform="matrix(6.890494,0.000000,0.000000,-6.890494,31.607272,5.811200)" /><path id="path16747" style="fill-opacity:1;stroke:none;fill:#231f20;fill-rule:evenodd" d="M 0,0 0.051,-0.033 C 0.09,-0.057 0.108,-0.097 0.077,-0.146 0.054,-0.18 0.018,-0.2 -0.028,-0.17 l -0.059,0.039 z m -0.152,-0.139 0.095,-0.062 c 0.073,-0.048 0.132,-0.045 0.18,0.026 0.028,0.044 0.029,0.09 -0.007,0.127 v 0.002 c 0.04,-0.011 0.079,0.008 0.1,0.041 C 0.26,0.062 0.231,0.113 0.185,0.144 L 0.077,0.215 Z M 0.097,0.151 0.146,0.118 C 0.188,0.09 0.193,0.057 0.169,0.021 0.133,-0.033 0.088,-0.011 0.07,0.002 L 0.021,0.033 0.097,0.151" transform="matrix(6.890494,0.000000,0.000000,-6.890494,34.961304,6.328000)" /><path id="path16751" style="fill-opacity:1;stroke:none;fill:#231f20;fill-rule:evenodd" d="m 0,0 c -0.09,0.074 -0.177,-0.002 -0.244,-0.085 -0.066,-0.082 -0.123,-0.182 -0.031,-0.254 0.09,-0.074 0.175,0.002 0.242,0.083 C 0.034,-0.172 0.09,-0.072 0,0 m -0.028,-0.033 c 0.056,-0.046 0.015,-0.113 -0.047,-0.188 -0.061,-0.076 -0.118,-0.131 -0.174,-0.085 -0.056,0.044 -0.013,0.111 0.048,0.188 0.06,0.075 0.118,0.131 0.173,0.085" transform="matrix(6.890494,0.000000,0.000000,-6.890494,38.211976,6.328000)" /><path id="path16755" style="fill-opacity:1;stroke:none;fill:#231f20;fill-rule:evenodd" d="M 0,0 0.038,-0.039 0.142,0.018 0.236,-0.079 0.174,-0.18 0.211,-0.22 0.434,0.154 0.386,0.205 Z m 0.367,0.139 v 0 L 0.259,-0.041 0.18,0.041 Z" transform="matrix(6.890494,0.000000,0.000000,-6.890494,37.199048,9.428800)" /><path id="path16759" style="fill-opacity:1;stroke:none;fill:#231f20;fill-rule:evenodd" d="M 0,0 0.033,-0.041 0.179,0.077 0.223,0.023 C 0.239,0.002 0.255,-0.025 0.215,-0.064 L 0.165,-0.108 C 0.151,-0.123 0.128,-0.146 0.128,-0.157 l 0.039,-0.049 c -0.003,0.014 0.002,0.027 0.036,0.059 L 0.257,-0.1 c 0.026,0.025 0.036,0.061 0.017,0.092 H 0.275 C 0.315,-0.039 0.362,-0.021 0.398,0.008 0.45,0.051 0.454,0.106 0.413,0.159 L 0.328,0.264 Z M 0.326,0.197 0.365,0.149 C 0.396,0.111 0.393,0.074 0.36,0.048 0.298,-0.003 0.262,0.039 0.244,0.064 L 0.211,0.103 0.326,0.197" transform="matrix(6.890494,0.000000,0.000000,-6.890494,38.785624,10.979200)" /><path id="path16763" style="fill-opacity:1;stroke:none;fill:#231f20;fill-rule:evenodd" d="m 0,0 0.029,-0.046 c 0.05,-0.08 -0.021,-0.131 -0.09,-0.174 -0.064,-0.04 -0.147,-0.08 -0.195,-0.004 l -0.029,0.045 z m -0.347,-0.157 0.062,-0.1 c 0.061,-0.098 0.164,-0.066 0.254,-0.008 0.098,0.06 0.169,0.124 0.1,0.236 L 0.01,0.066 -0.347,-0.157" transform="matrix(6.890494,0.000000,0.000000,-6.890494,42.501416,12.012800)" /><path id="path16767" style="fill-opacity:1;stroke:none;fill:#231f20;fill-rule:nonzero" d="M 0,0 C 0.069,0.034 0.09,0.084 0.056,0.157 0.011,0.254 -0.065,0.236 -0.102,0.22 -0.241,0.154 -0.095,0.003 -0.203,-0.048 -0.244,-0.066 -0.283,-0.049 -0.301,-0.013 -0.333,0.057 -0.288,0.08 -0.246,0.1 L -0.267,0.147 C -0.349,0.11 -0.383,0.062 -0.341,-0.028 c 0.025,-0.054 0.081,-0.106 0.169,-0.065 0.139,0.065 -0.01,0.216 0.098,0.265 0.041,0.02 0.074,0.007 0.092,-0.034 0.021,-0.045 0,-0.072 -0.041,-0.09 L 0,0" transform="matrix(6.890494,0.000000,0.000000,-6.890494,43.881272,15.113600)" /><path id="path16771" style="fill-opacity:1;stroke:none;fill:#231f20;fill-rule:nonzero" d="M 0,0 C -0.049,-0.015 -0.106,-0.026 -0.128,0.034 -0.151,0.102 -0.08,0.138 0.013,0.169 0.105,0.2 0.182,0.216 0.206,0.149 0.223,0.098 0.19,0.07 0.144,0.054 L 0.162,0.003 C 0.239,0.031 0.274,0.082 0.246,0.162 0.208,0.272 0.095,0.254 -0.005,0.22 -0.105,0.185 -0.206,0.134 -0.167,0.02 -0.138,-0.067 -0.059,-0.072 0.018,-0.051 L 0,0" transform="matrix(6.890494,0.000000,0.000000,-6.890494,43.504008,17.697600)" /><path id="path16775" style="fill-opacity:1;stroke:none;fill:#231f20;fill-rule:nonzero" d="m 0,0 -0.011,0.051 -0.168,-0.043 -0.036,0.141 0.167,0.041 -0.011,0.051 -0.41,-0.102 0.014,-0.051 0.196,0.05 0.035,-0.14 -0.197,-0.049 0.013,-0.051 z" transform="matrix(6.890494,0.000000,0.000000,-6.890494,46.010488,19.764800)" /><path id="path16779" style="fill-opacity:1;stroke:none;fill:#231f20;fill-rule:nonzero" d="m 0,0 c -0.085,-0.01 -0.128,-0.054 -0.116,-0.138 0.01,-0.082 0.067,-0.116 0.147,-0.106 l 0.293,0.036 -0.006,0.051 -0.293,-0.036 c -0.059,-0.007 -0.092,0.005 -0.1,0.06 -0.005,0.051 0.021,0.074 0.082,0.082 L 0.302,-0.015 0.295,0.036 0,0" transform="matrix(6.890494,0.000000,0.000000,-6.890494,44.129336,20.798400)" /><path id="path16783" style="fill-opacity:1;stroke:none;fill:#231f20;fill-rule:nonzero" d="M 0,0 0.003,-0.223 H 0.051 L 0.047,-0.051 0.423,-0.044 0.421,0.008 Z" transform="matrix(6.890494,0.000000,0.000000,-6.890494,43.493672,22.865600)" /><path id="path16787" style="fill-opacity:1;stroke:none;fill:#231f20;fill-rule:nonzero" d="M 0,0 -0.016,-0.223 0.03,-0.226 0.043,-0.054 0.193,-0.066 0.182,-0.221 0.228,-0.224 0.239,-0.069 0.37,-0.077 0.359,-0.242 0.405,-0.246 0.419,-0.029 Z" transform="matrix(6.890494,0.000000,0.000000,-6.890494,43.504008,24.416000)" /></svg>