<?xml version="1.0" encoding="UTF-8" standalone="no"?><svg xmlns:dc="http://purl.org/dc/elements/1.1/" xmlns:cc="http://creativecommons.org/ns#" xmlns:rdf="http://www.w3.org/1999/02/22-rdf-syntax-ns#" xmlns:svg="http://www.w3.org/2000/svg" xmlns="http://www.w3.org/2000/svg" width="48" height="48" viewBox="0 0 12.7 12.7" version="1.1" id="svg31309"><defs id="defs31303" /><path d="m 34.023,-0.01172 c -0.366,0.0111405 -0.729,0.16686 -1.002,0.46094 L 26.074,7.4434 H 21.971 L 14.975,0.44727 C 14.429,-0.12306 13.524,-0.15374 12.951,0.38867 12.376,0.93524 12.349,1.8409 12.896,2.416 l 7.307,7.3184 V 20.484 l -1.918,10.877 c -0.153,0.867 0.418,1.683 1.276,1.834 0.866,0.155 1.681,-0.42 1.834,-1.285 L 23.35,20.824 c 0.626,0.05 0.978,0.04 1.298,-0.02 l 1.957,11.105 c 0.154,0.865 0.968,1.44 1.834,1.285 0.859,-0.151 1.43,-0.967 1.276,-1.834 L 27.723,20.064 c 0.03,-0 0.05,-0.01 0.08,-0.02 l -0,-10.3107 7.31,-7.3203 C 35.656,1.8397 35.625,0.93464 35.049,0.38867 34.761,0.10945 34.39,-0.02286 34.023,-0.01172 Z M 23.98,1.1895 c -1.547,0 -2.806,1.2596 -2.806,2.8066 0,1.5565 1.259,2.8164 2.806,2.8164 1.556,0 2.817,-1.2599 2.817,-2.8164 0,-1.547 -1.261,-2.8066 -2.817,-2.8066 z M 48.001,48.001 c 0,-0.189 0,-0.341 0,-0.53 C 48.001,40.604 37.22,35 24.002,35 10.782,35 8.3151e-4,40.604 8.3151e-4,47.471 c 0,0.189 0.0120985,0.341 0.0260785,0.53 z" style="fill:#ffffff;fill-opacity:1;fill-rule:evenodd;stroke-width:5.94093" transform="scale(0.26458)" id="path25575" /></svg>