<?xml version="1.0" encoding="UTF-8" standalone="no"?><svg xmlns:dc="http://purl.org/dc/elements/1.1/" xmlns:cc="http://creativecommons.org/ns#" xmlns:rdf="http://www.w3.org/1999/02/22-rdf-syntax-ns#" xmlns:svg="http://www.w3.org/2000/svg" xmlns="http://www.w3.org/2000/svg" width="48" height="48" viewBox="0 0 48 48.000001" id="svg69809" version="1.1"><defs id="defs69811" /><path d="M 25.395,35.207 C 16.236,35.247 6.3467,38.805 -8.5e-5,48 H 48 C 47.736,40.922 37.17,35.156 25.395,35.207 Z m 7.31,-35.20534 c -0.211,0.0107 -0.438,0.0673 -0.67,0.18164 L 19.62,6.3118 c -0.516,0.217 -1.031,0.483 -1.496,0.8644 -0.669,0.5156 -2.021,1.6816 -2.98,2.7857 -0.267,0.2781 -0.809,0.9551 -0.863,1.0311 -0.247,0.3 -0.395,0.648 -0.372,1.092 l 0.453,9.208 c 0,0.145 0.391,0.952 0.504,1.051 l 5.827,5.343 c 1.505,1.372 3.597,-0.909 2.071,-2.291 l -5.339,-4.897 -0.05,-4.246 3.229,3.195 5.433,-5.25 c 0,0 -1.759,-4.176 -2.357,-5.0112 C 23.458,8.8784 23.341,8.6293 23.329,8.3831 L 33.407,2.9604 C 35.023,2.1577 34.184,-0.06944 32.705,0.00166 Z M 13.526,2.1754 c -1.95,0 -3.526,1.5694 -3.526,3.5078 0,1.9384 1.576,3.5036 3.526,3.5036 1.927,0 3.506,-1.5652 3.506,-3.5036 0,-1.9384 -1.579,-3.5078 -3.506,-3.5078 z m 30.762,6.0407 c -1.253,0.046 -1.944,1.408 -2.362,2.1229 -0.898,1.527 -1.342,4.272 -1.733,7.448 -0.391,3.166 -2.455,9.734 -3.518,11.827 -1.082,2.103 -1.606,3.351 -1.606,3.351 l 6.711,-3.424 c 0,0 5.237,-11.476 5.598,-12.444 0.35,-0.959 1.639,-5.66 -1.011,-7.939 C 45.54,8.449 44.856,8.1954 44.288,8.2161 Z M 30.944,11.661 v 0 c -0.631,-0.03 -1.263,0.27 -2.062,0.9 -1.331,1.062 -3.107,3.012 -6.097,5.867 -0.463,0.422 -1.629,1.59 -1.629,1.59 0,0 1.061,1.33 1.608,1.856 0.836,0.805 2.186,1.072 3.312,0 l 5.218,-4.03 4.278,3.668 c 2.218,2.279 5.124,-0.729 2.906,-3.008 -2.784,-2.858 -4.197,-4.632 -5.477,-5.757 -0.794,-0.7 -1.423,-1.064 -2.057,-1.094 z m 2.325,8.527 0.271,5.394 c 0.143,2.62 4.064,2.412 3.93,-0.197 l -0.127,-2.474 c -0.586,0.04 -1.235,-0.174 -1.834,-0.793 z" style="fill:#ffffff;fill-opacity:1;fill-rule:evenodd;stroke:none;stroke-width:1.19366" id="path43851" /></svg>