<?xml version="1.0" encoding="UTF-8" standalone="no"?><svg xmlns:dc="http://purl.org/dc/elements/1.1/" xmlns:cc="http://creativecommons.org/ns#" xmlns:rdf="http://www.w3.org/1999/02/22-rdf-syntax-ns#" xmlns:svg="http://www.w3.org/2000/svg" xmlns="http://www.w3.org/2000/svg" version="1.1" id="svg69016" viewBox="0 0 48 48.000001" height="48" width="48"><defs id="defs69018" /><path id="path25207" style="fill:#ffffff;fill-opacity:1;fill-rule:nonzero;stroke:none" d="M 47.121863,23.456985 44.627759,22.959894 42.192044,11.97254 42.754323,11.994755 43.370512,13.032032 44.847915,15.861831 C 45.634887,17.509616 46.293822,19.227929 46.679974,20.996372 L 47.121863,23.456985 Z M 42.729332,22.446045 34.178094,20.498372 34.067715,11.062161 40.250967,11.787154 42.729332,22.446045 Z M 41.568958,36.115222 C 40.895344,36.159823 40.559459,36.115318 40.251404,36.022562 39.93964,35.944652 39.642715,35.807359 39.388467,35.625524 L 38.685096,34.968674 38.213671,34.141078 C 38.102299,33.829331 38.041031,33.506445 38.033578,33.189122 38.011279,32.868088 38.053929,32.539626 38.14483,32.238994 L 38.553,31.363066 C 38.729267,31.099541 38.948216,30.854568 39.209851,30.659695 39.451072,30.451834 39.742401,30.295928 40.04487,30.190125 L 40.98198,30.006322 41.65189,30.039661 C 41.971074,30.087879 42.279129,30.180635 42.563065,30.338342 42.852567,30.473781 43.110528,30.672316 43.346223,30.896833 L 43.903005,31.666895 44.203714,32.578014 C 44.264982,32.900899 44.263157,33.223791 44.207516,33.54112 44.159298,33.860305 44.066543,34.168359 43.908835,34.452296 43.765974,34.739943 43.580429,35.009036 43.350344,35.235453 L 42.578428,35.799658 C 42.290808,35.940718 41.979061,36.05209 41.661741,36.091089 L 41.568958,36.115222 Z M 33.60992,36.626292 C 33.016098,36.635626 32.659799,36.578134 32.333185,36.464967 31.988016,36.362936 31.679955,36.207087 31.401581,35.995564 L 30.655521,35.257067 C 30.449512,34.976876 30.284325,34.659567 30.187796,34.319984 30.08199,33.985968 30.018863,33.638959 30.018831,33.291943 30.018798,32.944928 30.076291,32.588629 30.191312,32.254592 30.297056,31.926124 30.45476,31.61064 30.658861,31.330411 30.862961,31.050181 31.115312,30.797782 31.410349,30.595483 31.692394,30.382051 32.000425,30.222432 32.332586,30.124049 32.670311,30.003397 33.022888,29.949548 33.368049,29.956938 L 34.542717,30.08487 C 34.882319,30.177623 35.199657,30.327904 35.494733,30.535715 L 36.253781,31.253798 36.751194,32.166754 C 36.875557,32.489633 36.936828,32.844066 36.944284,33.192936 36.961018,33.536239 36.910948,33.894393 36.812627,34.224716 36.719874,34.564318 36.569593,34.881656 36.37106,35.171164 36.165105,35.458816 35.925745,35.722348 35.654832,35.922789 35.378355,36.145499 35.068469,36.312541 34.738166,36.435048 34.407864,36.557556 34.060854,36.620682 33.713839,36.620715 L 33.60992,36.626292 Z M 25.994143,36.678972 C 25.584037,36.710557 25.25372,36.67533 24.941955,36.597421 24.607922,36.513946 24.286873,36.37851 24.004789,36.181833 23.715284,36.014848 23.466598,35.779198 23.242034,35.510143 23.023037,35.250366 22.844862,34.953471 22.726067,34.639869 22.59985,34.324413 22.518168,33.988539 22.501434,33.645237 22.475422,33.307502 22.506936,32.960484 22.595979,32.635729 L 22.996721,31.694852 23.675834,30.933952 C 23.935611,30.714955 24.223228,30.542348 24.547962,30.410563 24.854141,30.289913 25.197437,30.210086 25.54074,30.193352 L 26.431481,30.258217 C 26.769224,30.326846 27.084704,30.453004 27.383487,30.614421 L 28.170363,31.252707 C 28.406061,31.508771 28.586091,31.798242 28.719731,32.115554 28.870072,32.429153 28.955465,32.75018 28.996322,33.091625 29.029757,33.431214 29.014944,33.77452 28.946315,34.112263 28.86284,34.446296 28.751529,34.765487 28.575265,35.060559 28.413848,35.359342 28.196757,35.628439 27.93698,35.847436 L 27.087123,36.407937 C 26.77538,36.550855 26.437651,36.63996 26.098062,36.673395 L 25.994143,36.678972 Z M 18.370928,36.572062 17.817934,36.607373 C 17.485764,36.611116 17.146166,36.54991 16.836254,36.43303 16.50593,36.33471 16.214571,36.175147 15.951042,35.967334 15.678235,35.765089 15.436972,35.531294 15.247664,35.24739 15.054646,34.978332 14.90245,34.672156 14.809635,34.349274 14.709396,34.024536 14.666684,33.690515 14.670364,33.3602 14.675899,33.022463 14.720404,32.686577 14.837284,32.376665 14.943027,32.048196 15.097022,31.747559 15.304835,31.48403 L 16.032202,30.782508 16.930318,30.344478 C 17.247633,30.242385 17.592787,30.186681 17.919392,30.205207 L 18.732193,30.266369 19.66193,30.617007 C 19.95329,30.77657 20.216819,30.984383 20.446949,31.231169 L 21.003737,32.064324 C 21.141087,32.36679 21.233902,32.689673 21.261769,33.019984 21.311905,33.355861 21.291523,33.689888 21.230318,34.029487 L 20.887102,34.961079 20.250671,35.740532 C 20.011308,35.972517 19.736682,36.156257 19.426794,36.291752 19.122473,36.436525 18.792167,36.527486 18.467424,36.56463 L 18.370928,36.572062 Z M 10.549187,36.817754 9.8458724,36.760294 8.882733,36.417081 C 8.5858055,36.248241 8.3148538,36.038573 8.086579,35.784364 7.8564492,35.537578 7.6597182,35.251819 7.5168,34.940075 L 7.2327858,33.96215 7.2753702,32.939657 7.622296,31.993218 C 7.7855684,31.687013 7.9933816,31.423484 8.2494456,31.187786 L 9.091879,30.62543 C 9.4036226,30.482512 9.7283602,30.382274 10.077228,30.343271 L 10.46321,30.313543 C 10.813935,30.298664 11.147966,30.350592 11.485712,30.450768 11.810468,30.539811 12.122238,30.680814 12.3969,30.875637 12.680839,31.064891 12.936948,31.302396 13.142957,31.582587 L 13.629234,32.476987 13.813043,33.47719 C 13.829777,33.820493 13.783417,34.163801 13.679528,34.484847 13.581207,34.81517 13.438349,35.134364 13.245382,35.401602 13.056127,35.685542 12.818622,35.941651 12.545854,36.149514 L 11.644031,36.633937 C 11.332285,36.745308 10.98342,36.815858 10.651251,36.8196 L 10.549187,36.817754 Z M 3.6198867,35.480452 2.693886,35.398889 1.9719884,35.068643 1.3966713,34.530545 1.0087655,33.842118 0.85652455,33.06274 0.95109051,32.274059 1.2813364,31.552162 1.8194342,30.976845 2.5004382,30.587084 3.2798167,30.434843 3.9014789,30.471898 4.6419293,30.759461 5.2673462,31.254873 5.7109198,31.909892 5.9169735,32.663286 5.8836463,33.459383 5.6109292,34.203544 5.1229401,34.830816 4.4642079,35.257688 3.6922583,35.474878 3.6198867,35.480452 Z M 40.487233,37.666687 C 41.082917,37.713024 41.557971,37.674009 41.99776,37.555203 42.45054,37.447529 42.882901,37.263775 43.270717,37.005796 43.660391,36.771941 44.0148,36.458295 44.309822,36.098262 44.608556,35.754929 44.846046,35.341086 45.014875,34.917971 45.192981,34.489288 45.293145,34.025355 45.32836,33.56885 45.36543,33.104922 45.315283,32.642858 45.200186,32.188223 45.099936,31.737298 44.906903,31.310506 44.65078,30.915267 44.409502,30.523737 44.103278,30.171184 43.748813,29.88544 43.390635,29.582995 42.993493,29.341792 42.555532,29.169253 42.134272,28.993002 41.666625,28.876137 41.221256,28.859478 L 3.4355856,29.275017 C 2.9345519,29.323313 2.5634215,29.419844 2.2071431,29.583179 1.8545746,29.731669 1.5168581,29.946961 1.2385282,30.208641 0.94535244,30.466611 0.69486244,30.77468 0.50746913,31.114291 0.31450785,31.444623 0.15866438,31.815777 0.09003851,32.185067 0.00471172,32.558071 -0.02494135,32.96076 0.02148725,33.343029 0.05863788,33.730866 0.16073722,34.111275 0.31664933,34.465698 0.46513847,34.818267 0.68970927,35.150415 0.94953394,35.436168 1.2000806,35.727489 1.5100051,35.970556 1.8477605,36.165372 L 2.4564555,36.443669 4.7204867,37.293364 5.1324657,37.443637 C 6.5038682,37.888874 7.9643254,38.135544 9.4061998,38.109428 L 10.61982,38.049931 11.016935,38.007212 40.487233,37.666687 Z M 30.044668,12.170393 29.863574,20.248261 23.15707,20.102295 23.347442,12.01886 30.044668,12.170393 Z M 11.00708,12.29467 10.825986,20.372538 4.115769,20.209871 4.3024312,12.141282 11.00708,12.29467 Z M 20.643723,12.360564 20.468197,20.447709 13.763548,20.294321 13.939074,12.207175 20.643723,12.360564 Z M 47.690103,27.652663 47.999619,23.573811 C 47.806517,22.421441 47.605993,21.267216 47.29413,20.14826 46.763219,18.233231 45.900148,16.416585 44.986977,14.642624 L 43.663623,12.080031 43.695104,11.385998 C 43.67095,11.072387 43.568857,10.755073 43.463053,10.452604 L 1.4110416,9.8887384 C 1.5989303,14.785906 1.777541,19.688642 1.1229366,24.517228 L 2.2960187,27.4918 35.770909,27.126772 47.690103,27.652663 Z" /></svg>