<?xml version="1.0" encoding="UTF-8" standalone="no"?><svg xmlns:dc="http://purl.org/dc/elements/1.1/" xmlns:cc="http://creativecommons.org/ns#" xmlns:rdf="http://www.w3.org/1999/02/22-rdf-syntax-ns#" xmlns:svg="http://www.w3.org/2000/svg" xmlns="http://www.w3.org/2000/svg" width="48" height="48" viewBox="0 0 12.7 12.7" version="1.1" id="svg6185"><defs id="defs6179" /><path d="M 7.866254,3.609357 C 7.81003,3.353223 7.753805,3.100213 7.656974,2.858135 7.603873,2.731629 7.541401,2.608248 7.472682,2.489552 7.321188,2.22717 7.136897,1.986654 7.004145,1.719588 6.938549,1.589959 6.880763,1.454083 6.8261,1.319769 H 6.80892 C 6.7933,1.505622 6.77925,1.688352 6.78862,1.872643 c 0.01093,0.231146 0.05935,0.456044 0.12182,0.677818 0.04685,0.165551 0.101516,0.327977 0.154617,0.490403 0.16555,0.110888 0.331101,0.223337 0.493527,0.342033 0.10464,0.07497 0.204595,0.151494 0.307673,0.22646 M 3.557267,5.291408 3.52447,5.199262 3.902424,4.829117 4.035176,4.766646 4.541197,4.738533 4.633343,4.829117 4.24758,5.199262 4.124198,5.260172 Z M 11.06793,10.5609 c -0.0422,-0.0312 -0.0859,-0.064 -0.12338,-0.10152 -0.11089,-0.11245 -0.17024,-0.27956 -0.2577,-0.39669 -0.14368,-0.210846 -0.3639,-0.287374 -0.54194,-0.591924 -0.0219,-0.02967 -0.0437,-0.0656 -0.0328,-0.08434 0.0109,-0.02343 0.0562,-0.02967 0.0953,-0.02967 0.11245,0 0.19054,0.04373 0.26551,0.09058 h 0.0734 C 10.39948,9.26461 10.24955,9.080318 10.08088,8.921015 9.78726,8.638331 9.426485,8.425927 9.065711,8.216646 L 7.680401,7.751232 C 7.802221,7.670019 7.924041,7.587244 8.050546,7.506031 8.189545,7.41857 8.33323,7.329548 8.420691,7.198357 8.481601,7.110897 8.517522,7.001572 8.544072,6.892246 8.570623,6.778235 8.587803,6.664224 8.573746,6.553337 8.561252,6.42527 8.506589,6.305012 8.451927,6.183192 c 0.07184,-0.01718 0.145246,-0.03592 0.213965,-0.03124 0.114011,0.0078 0.221775,0.07809 0.338909,0.09215 0.06091,0.01093 0.12182,0.0062 0.185854,0 C 9.111003,6.158203 9.031352,6.070743 8.94233,5.997339 8.815824,5.892698 8.66433,5.817732 8.511275,5.752137 8.192669,5.616261 7.860007,5.528801 7.527345,5.444464 7.577323,5.433531 7.630424,5.422599 7.680401,5.413228 7.825648,5.386678 7.966209,5.369498 8.111456,5.349195 L 8.539387,5.300779 C 8.408196,5.264858 8.277006,5.227375 8.142692,5.199262 8.072411,5.183644 8.000568,5.168027 7.930288,5.155532 L 6.326326,5.107117 C 6.171709,4.852544 6.012406,4.601096 5.868721,4.335591 5.796879,4.2044 5.72816,4.070086 5.618834,3.967008 5.565733,3.915469 5.5017,3.870177 5.434543,3.842064 5.312723,3.79521 5.173723,3.803019 5.034724,3.813952 L 4.72705,3.874862 3.925851,4.17785 C 3.752491,4.374636 3.579132,4.574545 3.399526,4.766646 3.277706,4.897836 3.151201,5.025903 3.012202,5.136791 2.815416,5.296094 2.582709,5.421037 2.340631,5.505374 2.212564,5.553789 2.078249,5.589711 1.945497,5.627194 L 1.876778,5.566284 2.140721,5.413228 3.002831,4.619837 C 3.076235,4.519882 3.148078,4.418366 3.187122,4.304355 3.224605,4.196591 3.232414,4.076333 3.279268,3.967008 3.305819,3.895165 3.349549,3.82957 3.404212,3.781154 3.496357,3.699941 3.622863,3.671829 3.741559,3.628099 3.818087,3.60311 3.889929,3.56875 3.96021,3.535953 4.183546,3.448492 4.408445,3.362594 4.634905,3.290751 5.028476,3.165808 5.429857,3.084595 5.834362,3.003381 L 5.58916,2.889371 5.526688,2.794101 C 5.509509,2.589506 5.492329,2.386473 5.486082,2.181878 c -0.0031,-0.143685 0,-0.28737 0.01249,-0.431055 C 5.514194,1.561846 5.546992,1.374431 5.609463,1.196387 5.639137,1.110488 5.67662,1.029275 5.71098,0.9465 L 5.834362,0.85904 c 0.04529,0.176482 0.08902,0.352965 0.154617,0.521639 0.0656,0.170235 0.151494,0.3311 0.237393,0.491964 L 6.348191,2.058497 C 6.363809,1.721149 6.377866,1.383802 6.482506,1.073005 6.530921,0.9261967 6.598078,0.7840736 6.665235,0.6419504 l 0.09371,-0.092146 c 0.08902,0.1327524 0.181168,0.2655048 0.263943,0.399819 0.0656,0.1015166 0.128067,0.2045956 0.187415,0.3076736 0.415437,0.481032 0.830874,0.957379 1.188525,1.479018 0.124943,0.179606 0.243639,0.365459 0.362336,0.554436 0.459167,0.128067 0.919896,0.26082 1.360316,0.446673 0.25301,0.107764 0.50446,0.234269 0.73561,0.381078 0.22333,0.137437 0.43105,0.29674 0.64189,0.451358 l -0.30923,0.04217 0.37171,0.431055 c 0.21396,0.196786 0.42637,0.39201 0.61378,0.615347 0.18429,0.221774 0.3436,0.470099 0.43262,0.740289 0.0375,0.109326 0.064,0.224899 0.0921,0.337348 l -0.278,0.03436 v 0.302988 l 0.0328,1.019851 -0.24832,0.983929 c -0.14213,0.245202 -0.28113,0.490403 -0.43418,0.738728 -0.12963,0.213965 -0.26394,0.431055 -0.45761,0.579425 -0.0765,0.064 -0.16086,0.11401 -0.24676,0.16555 m -6.650113,1.55242 v 0 c 0.163989,-0.10776 0.3311,-0.21709 0.493527,-0.32798 0.195224,-0.13431 0.387325,-0.27487 0.566931,-0.43105 0.129629,-0.10933 0.251448,-0.2249 0.356089,-0.35921 0.06403,-0.0797 0.121819,-0.16555 0.171797,-0.25614 0.06872,-0.11557 0.124943,-0.23739 0.149932,-0.37014 0.01249,-0.0594 0.01718,-0.12026 0.01874,-0.18429 C 6.182641,10.0377 6.173271,9.884641 6.110799,9.753451 6.082687,9.689417 6.043642,9.628507 6.004597,9.569159 L 5.495452,9.077194 C 5.28461,8.963184 5.070645,8.847611 4.845747,8.769521 4.572433,8.671128 4.278816,8.622713 3.98676,8.583668 3.287077,8.491522 2.590517,8.449354 1.893958,8.410309 1.790879,8.390005 1.687801,8.371264 1.586285,8.344713 1.417611,8.300983 1.252067,8.240073 1.092764,8.165107 1.006866,8.126062 0.920967,8.082332 0.8475628,8.024546 0.7257429,7.933962 0.6351589,7.812142 0.5398895,7.690322 0.3462272,7.440435 0.1416323,7.203043 0.0479247,6.892246 0.0073181,6.78292 -0.0176706,6.662662 0.0151271,6.553337 0.0276214,6.508045 0.0494865,6.465877 0.0775988,6.429955 0.1619356,6.32063 0.310306,6.283147 0.4524291,6.244102 c 0.095269,-0.02343 0.1842916,-0.05154 0.271752,-0.02967 0.031236,0.0062 0.062472,0.01874 0.092146,0.02967 C 0.7632259,6.315944 0.7116868,6.386225 0.6632712,6.461191 0.611732,6.537719 0.5695636,6.618932 0.5398895,6.707954 0.5070919,6.795415 0.4930357,6.89537 0.5070919,6.984392 0.5273952,7.118706 0.611732,7.23584 0.6913835,7.352975 0.7616641,7.45293 0.8256976,7.549761 0.9084727,7.630974 1.042787,7.763726 1.223955,7.849625 1.409802,7.90585 1.806497,8.038602 2.223496,8.030793 2.632686,8.00112 3.024696,7.97145 3.412021,7.92303 3.802469,7.899603 c 0.532571,-0.0328 1.069828,-0.0078 1.600838,0.05466 0.248325,0.02967 0.495088,0.06403 0.738728,0.128067 0.188977,0.04529 0.37483,0.107764 0.554436,0.18273 0.254573,0.106202 0.498212,0.238954 0.738728,0.373269 L 7.820962,8.917892 6.694909,8.753903 c 0.124944,0.0531 0.249887,0.106202 0.370145,0.168674 0.118697,0.06247 0.232708,0.132752 0.334224,0.215527 0.106202,0.08277 0.19991,0.178045 0.281123,0.279561 0.09839,0.12182 0.181168,0.254573 0.248325,0.399819 0.07184,0.15618 0.126505,0.324856 0.12182,0.490406 0,0.0843 -0.0125,0.16399 -0.02811,0.24832 -0.02655,0.12651 -0.06091,0.25614 -0.124944,0.36859 -0.03592,0.064 -0.07965,0.1265 -0.124943,0.18585 -0.08278,0.10464 -0.173359,0.20459 -0.274876,0.29362 -0.07809,0.0703 -0.160865,0.13119 -0.246763,0.18585 -0.120258,0.0765 -0.246763,0.14056 -0.379516,0.19679 -0.168674,0.0718 -0.340471,0.13119 -0.518515,0.18429 -0.210842,0.0625 -0.424808,0.11557 -0.641897,0.14368 -0.424808,0.0609 -0.858986,0.0312 -1.293165,-0.002" style="fill:#ffffff;fill-opacity:1;fill-rule:nonzero;stroke:none;stroke-width:1.561793" id="path33074" /></svg>