<?xml version="1.0" encoding="UTF-8" standalone="no"?><svg xmlns:dc="http://purl.org/dc/elements/1.1/" xmlns:cc="http://creativecommons.org/ns#" xmlns:rdf="http://www.w3.org/1999/02/22-rdf-syntax-ns#" xmlns:svg="http://www.w3.org/2000/svg" xmlns="http://www.w3.org/2000/svg" width="48" height="48" viewBox="0 0 48 48.000001" id="svg69016" version="1.1"><defs id="defs69018" /><path d="M 7.0322,7.0305 10.034,4.0276 22.632,22.63 4.0262,10.033 Z M 40.97,40.982 43.975,37.979 25.371,25.369 37.965,43.974 Z m 0,-33.9515 3.005,3.0025 L 25.371,22.63 37.965,4.0276 Z M 7.0322,40.982 10.034,43.974 22.632,25.369 4.0262,37.979 Z M 48,24.009 v 4.237 L 25.94,24.009 48,19.753 Z m -48.000042051,0 v 4.237 L 22.064,24.009 -4.2051e-5,19.753 Z M 23.994,47.999 h -4.241 l 4.241,-22.063 4.254,22.063 z m 0,-47.99844932 H 19.753 L 23.994,22.076 28.248,5.5068e-4 Z" style="fill:#ffffff;fill-opacity:1;fill-rule:evenodd;stroke:none;stroke-width:2.566612" id="path5792" /></svg>