<?xml version="1.0" encoding="UTF-8" standalone="no"?><svg xmlns:dc="http://purl.org/dc/elements/1.1/" xmlns:cc="http://creativecommons.org/ns#" xmlns:rdf="http://www.w3.org/1999/02/22-rdf-syntax-ns#" xmlns:svg="http://www.w3.org/2000/svg" xmlns="http://www.w3.org/2000/svg" width="48" height="48" viewBox="0 0 48 48.000001" id="svg69016" version="1.1"><defs id="defs69018" /><path style="fill:#ffffff;fill-opacity:1;stroke-width:0.08347" id="path2" d="M 42.463,31.982 40.335,22.51 v 0 L 36.503,4.9502 C 36.291,3.9924 35.439,3.3538 34.481,3.3538 h -5.96 c -1.17,0 -2.128,0.9578 -2.128,2.1285 0,1.1707 0.958,2.1285 2.128,2.1285 h 4.257 L 36.184,22.83 29.904,36.132 H 17.666 C 17.134,30.918 12.77,26.98 7.4492,26.98 c -0.8514,0 -1.5964,0.745 -1.5964,1.597 0,0.851 0.745,1.595 1.5964,1.595 3.6188,0 6.5978,2.662 7.0238,6.067 h -2.235 c -0.851,-2.448 -3.1929,-4.151 -5.9595,-4.151 -3.4056,0 -6.27903563,2.767 -6.27903563,6.28 0,3.511 2.76703563,6.278 6.27903563,6.278 2.7666,0 5.1085,-1.703 5.9595,-4.15 l 18.837,-0.107 c 0.852,0 1.49,-0.425 1.916,-1.17 l 4.576,-9.685 0.745,3.512 c -1.703,1.065 -2.874,3.086 -2.874,5.322 0,3.405 2.767,6.278 6.28,6.278 3.511,0 6.279,-2.766 6.279,-6.278 0.106,-3.406 -2.341,-6.067 -5.534,-6.386 z M 6.3849,41.347 c -1.7028,0 -3.0863,-1.383 -3.0863,-3.086 0,-1.703 1.3835,-3.086 3.0863,-3.086 0.9578,0 1.7028,0.426 2.3414,1.064 H 7.4492 c -1.1707,0 -2.1285,0.957 -2.1285,2.129 0,1.17 0.9578,2.128 2.1285,2.128 v 0 h 1.2771 c -0.5322,0.426 -1.3836,0.851 -2.3414,0.851 z m 35.4391,0 c -1.702,0 -3.086,-1.383 -3.086,-3.086 0,-0.639 0.213,-1.277 0.532,-1.703 l 0.212,1.064 c 0.213,0.958 1.065,1.597 2.023,1.597 0.106,0 0.319,0 0.426,0 1.17,-0.213 1.809,-1.384 1.596,-2.448 l -0.212,-1.17 c 0.957,0.531 1.702,1.595 1.702,2.767 -0.107,1.596 -1.49,2.979 -3.193,2.979 z" /></svg>