<?xml version="1.0" encoding="UTF-8" standalone="no"?><svg xmlns:dc="http://purl.org/dc/elements/1.1/" xmlns:cc="http://creativecommons.org/ns#" xmlns:rdf="http://www.w3.org/1999/02/22-rdf-syntax-ns#" xmlns:svg="http://www.w3.org/2000/svg" xmlns="http://www.w3.org/2000/svg" xmlns:sodipodi="http://sodipodi.sourceforge.net/DTD/sodipodi-0.dtd" xmlns:inkscape="http://www.inkscape.org/namespaces/inkscape" version="1.1" id="svg8076" height="48" width="48" sodipodi:docname="122.svg" inkscape:version="0.92.3 (2405546, 2018-03-11)"><sodipodi:namedview pagecolor="#ffffff" bordercolor="#666666" borderopacity="1" objecttolerance="10" gridtolerance="10" guidetolerance="10" inkscape:pageopacity="0" inkscape:pageshadow="2" inkscape:window-width="1756" inkscape:window-height="862" id="namedview15" showgrid="false" inkscape:zoom="4.916667" inkscape:cx="24.40678" inkscape:cy="24" inkscape:window-x="0" inkscape:window-y="24" inkscape:window-maximized="0" inkscape:current-layer="svg8076" /><defs id="defs8078" /><g id="g8274" transform="matrix(-1.184197,0,0,1.184197,278.793,-944.9288)" style="display:inline;fill:#ffffff;fill-rule:evenodd;fill-opacity:1"><path style="fill:#ffffff;fill-rule:nonzero;fill-opacity:1" d="m 221.0039,837.3864 c 0.9921,-0.014 1.2198,-0.5855 1.2198,-1.1562 v -5.1439 c 0.7952,-0.034 5.7199,0.3007 6.676,-0.6565 0.3113,-0.3113 0.6237,-8.3787 -0.067,-9.3761 -1.1922,-1.7228 -3.617,-1.3374 -4.1612,0.9805 v 5.6288 c -1.4676,0.1631 -2.9352,0.3261 -4.4027,0.4892 -0.2764,0.075 -0.4585,0.3187 -0.4903,0.7327 v 7.3453 c 0.1324,0.5665 0.233,1.17 1.2251,1.1562 z" id="path8276" inkscape:connector-curvature="0" /><path style="fill:#ffffff;fill-rule:nonzero;fill-opacity:1" d="m 227.1198,833.5364 c 1.5194,0 4.1465,-0.7814 4.6494,-2.4502 0.4648,-1.5395 0.2404,-14.5486 0.2404,-17.1301 l -5.8703,-1.9599 c 0,-0.9477 -0.091,-0.7909 0.2467,-1.4676 l -1.7132,-0.7327 c -0.2933,0.882 -1.1276,2.2564 0.7328,3.4285 l 4.894,1.7122 c 0.1027,4.2725 0,8.4994 0,12.7263 0,2.7107 -0.012,3.9368 -3.1798,4.1602 h -4.1602 v 1.7132 h 4.1602 z" id="path8278" inkscape:connector-curvature="0" /><circle transform="translate(158.7605,790.2083)" style="fill:#ffffff;fill-opacity:1" r="2.06158" cy="27.421" cx="67.868" id="circle8280" /></g><path inkscape:connector-curvature="0" style="fill:#ffffff;fill-rule:nonzero;stroke-width:1.073247;fill-opacity:1" d="m 40.565,13.16208 v 1.60987 h 0.0333 c 0,0 3.62221,3.78105 3.62221,11.70484 v 0.0322 c 0,2.48135 -0.32595,4.5334 -0.80494,6.20444 -1.07217,3.76388 -2.81727,5.53474 -2.81727,5.53474 H 24.7008 c 0,0 -1.75433,-1.77622 -2.85087,-5.53474 -0.46675,-1.67104 -0.80493,-3.73704 -0.80493,-6.20444 0.0107,-8.02252 3.68928,-11.7381 3.68928,-11.7381 h -0.0333 V 13.16101 H 40.565 Z m -0.77145,2.78401 h -14.2876 c 0,0 -3.31569,3.34209 -3.32031,10.56397 h 20.89473 v -0.0322 c 0,-7.12314 -3.28682,-10.5307 -3.28682,-10.5307 z" id="path8284" /><polygon id="polygon8286" points="63.5691,469.128 63.5691,462.041 61.9914,462.041 61.9914,469.128 " style="fill:#ffffff;fill-rule:nonzero;fill-opacity:1" transform="matrix(-1.157129,0,0,1.157129,105.2861,-528.1382)" /><path style="display:inline;fill:#ffffff;fill-rule:nonzero;stroke-width:1.221195;fill-opacity:1" d="M -2.9132e-5,17.76691 44.15631,1.298602 h 3.84371 L 0.5033474,19.07566 Z" id="path8288" inkscape:connector-curvature="0" /></svg>