<?xml version="1.0" encoding="UTF-8" standalone="no"?><svg xmlns:dc="http://purl.org/dc/elements/1.1/" xmlns:cc="http://creativecommons.org/ns#" xmlns:rdf="http://www.w3.org/1999/02/22-rdf-syntax-ns#" xmlns:svg="http://www.w3.org/2000/svg" xmlns="http://www.w3.org/2000/svg" width="48" height="48" viewBox="0 0 12.7 12.7" version="1.1" id="svg6185"><defs id="defs6179" /><path d="m 5.7648,9.6369 c 0.2897,0 0.5244,-0.2343 0.5244,-0.5216 0,-0.2904 -0.2347,-0.5251 -0.5244,-0.5251 -0.2872,0 -0.5215,0.2343 -0.5215,0.5251 0,0.2873 0.2343,0.5216 0.5215,0.5216 z M 5.5102,10.294 C 4.965,10.175 4.5574,9.6934 4.5574,9.1153 c 0,-0.6669 0.5398,-1.2088 1.2074,-1.2088 0.6701,0 1.2079,0.5419 1.2079,1.2088 0,0.5776 -0.4056,1.0597 -0.9512,1.1787 z M 5.3661,5.3547 c 0.2421,0 0.4366,-0.1986 0.4366,-0.4429 V 4.1851 C 5.8027,3.9409 5.6082,3.7466 5.3661,3.7466 H 2.0688 c -0.2424,0 -0.4373,0.1943 -0.4373,0.4385 v 0.7267 c 0,0.2443 0.1949,0.4429 0.4373,0.4429 z m 4.3522,2.8374 c 0.2409,0 0.4397,-0.1986 0.4397,-0.4424 V 4.1851 C 10.158,3.9409 9.9592,3.7466 9.7183,3.7466 H 8.587 c -0.2421,0 -0.4362,0.1943 -0.4362,0.4385 v 3.5646 c 0,0.2443 0.1941,0.4424 0.4362,0.4424 z M 3.8902,8.8245 H 1.5668 C 0.70355,8.8245 0.00422,8.124 0.00422,7.2599 L 1.4868e-4,4.5285 C 1.4868e-4,3.3563 0.94886,2.4056 2.1205,2.4056 H 9.338 c 1.171,0 2.12,0.9507 2.12,2.1229 l 0,3.8566 h 0.805 c 0.238,0 0.433,0.1951 0.433,0.4394 H 7.5662 C 7.5101,7.9466 6.6216,7.2492 5.7262,7.2492 c -0.8918,0 -1.7799,0.6974 -1.836,1.5753 z" style="fill:#ffffff;fill-rule:evenodd;stroke-width:0.4068231;fill-opacity:1" id="path1644-1" /></svg>