<?xml version="1.0" encoding="UTF-8" standalone="no"?><svg xmlns:dc="http://purl.org/dc/elements/1.1/" xmlns:cc="http://creativecommons.org/ns#" xmlns:rdf="http://www.w3.org/1999/02/22-rdf-syntax-ns#" xmlns:svg="http://www.w3.org/2000/svg" xmlns="http://www.w3.org/2000/svg" width="48" height="48" viewBox="0 0 48 48.000001" id="svg69016" version="1.1"><defs id="defs69018" /><path id="path18074" style="fill:#ffffff;fill-opacity:1;fill-rule:nonzero;stroke:none;stroke-width:2.6932321" d="m 23.417,25.55 v 0.385 c 0,0 0.382,0.384 0.382,0.766 0,0.387 0,0.782 0.386,0.782 0,0.385 0.384,0.771 0.384,0.771 0.397,0.383 0.781,0.383 0.781,0.766 0.383,0 0.781,0.397 1.167,0.397 h 0.766 1.155 c 0,-0.397 0.396,-0.397 0.782,-0.397 0.397,-0.383 0.397,-0.383 0.765,-0.766 0,0 0.397,-0.386 0.397,-0.771 0.386,-0.395 0.386,-0.395 0.386,-0.782 0,-0.382 0.396,-0.766 0.396,-1.151 0,0 -0.396,-0.383 -0.396,-0.781 0,-0.384 0,-0.77 -0.386,-0.77 0,-0.384 -0.397,-0.781 -0.397,-0.781 -0.368,-0.384 -0.765,-0.384 -0.765,-0.771 -0.386,0 -0.782,-0.378 -1.153,-0.378 h -0.784 -1.152 c 0,0.378 -0.398,0.378 -0.781,0.378 -0.384,0.387 -0.384,0.387 -0.781,0.771 0,0 -0.384,0.397 -0.384,0.781 -0.386,0.386 -0.386,0.386 -0.386,0.77 0,0.398 -0.382,0.781 -0.382,0.781 M 2.1337,38.32 c 0.3832,-0.398 1.1497,-0.398 1.5353,-0.398 2.7166,-1.153 5.8151,-1.539 8.899,-1.153 3.1,0 5.814,0.383 8.915,1.153 2.702,0.398 5.801,0.78 8.503,1.561 2.332,0 4.65,0.383 6.98,0.383 2.319,0 5.019,-0.383 7.352,-1.164 0.385,0 0.766,-0.382 1.15,-0.382 v -0.398 c 0.397,0 0.397,-0.384 0.397,-0.384 v -0.386 -0.769 -0.384 -0.397 h 0.385 c -0.782,0 -1.166,0 -1.547,0.397 -0.77,0.384 -1.538,0.384 -2.718,0.77 -1.921,0.383 -4.251,0.383 -6.569,0.383 -3.098,0 -5.799,-0.769 -8.9,-1.153 -2.717,-0.783 -5.799,-1.165 -8.899,-1.548 -2.331,-0.399 -4.65,-0.769 -6.981,-0.769 -2.7017,0 -5.0193,0.37 -7.3526,1.152 -0.7665,0.382 -1.1497,0.382 -1.5451,0.768 v 0.397 c 0.3954,0.384 0.3954,0.384 0.3954,0.77 v 0.383 0.386 z m 0,8.129 c 0.3832,0 1.1497,-0.386 1.5353,-0.386 2.7166,-1.16 5.8151,-1.16 8.899,-1.16 3.1,0 5.814,0.379 8.915,1.16 2.702,0.386 5.801,1.155 8.503,1.539 2.332,0.398 4.65,0.398 6.98,0.398 2.319,0 5.019,-0.398 7.352,-1.178 0.385,0 0.766,-0.373 1.15,-0.373 v -0.386 c 0.397,0 0.397,0 0.397,-0.396 V 45.282 44.517 44.12 43.735 h 0.385 c -0.782,0 -1.166,0.385 -1.547,0.385 -0.77,0.397 -1.538,0.397 -2.718,0.783 -1.921,0.379 -4.251,0.379 -6.569,0.379 -3.098,0 -5.799,-0.765 -8.9,-1.162 -2.717,-0.385 -5.799,-1.154 -8.899,-1.539 -2.331,-0.399 -4.65,-0.399 -6.981,-0.399 -2.7017,0 -5.0193,0 -7.3526,1.17 -0.7665,0 -1.1497,0 -1.5451,0.383 v 0.782 c 0.3954,0 0.3954,0 0.3954,0.386 v 0.379 0.781 z m 0,-3.868 c 0.3832,-0.398 1.1497,-0.398 1.5353,-0.398 2.7166,-1.164 5.8151,-1.547 8.899,-1.164 3.1,0 5.814,0.398 8.915,1.164 2.702,0.398 5.801,1.169 8.503,1.551 2.332,0.387 4.65,0.387 6.98,0.387 2.319,0 5.019,-0.387 7.352,-1.156 0.385,0 0.766,-0.384 1.15,-0.384 v -0.398 c 0.397,0 0.397,-0.382 0.397,-0.382 v -0.384 -0.781 -0.384 -0.385 h 0.385 c -0.782,0 -1.166,0 -1.547,0.385 -0.77,0.384 -1.538,0.384 -2.718,0.767 -1.921,0.398 -4.251,0.398 -6.569,0.398 -3.098,0 -5.799,-0.781 -8.9,-1.165 -2.717,-0.385 -5.799,-1.167 -8.899,-1.549 -2.331,-0.384 -4.65,-0.781 -6.981,-0.781 -2.7017,0.397 -5.0193,0.397 -7.3526,1.163 -0.7665,0.397 -1.1497,0.397 -1.5451,0.782 v 0.385 c 0.3954,0.384 0.3954,0.384 0.3954,0.767 v 0.398 0.384 z M 29.985,30.967 C 29.22,30.583 28.834,30.583 28.438,30.184 27.283,29.8 25.733,29.416 24.569,28.637 21.483,27.088 18.767,25.167 16.065,23.218 l -4.647,-2.7 c -0.385,-0.397 -0.782,-0.397 -1.153,0 H 9.0874 L 2.9023,25.55 c -0.3844,0 -0.7688,0.386 -0.7688,0.769 -0.3954,0 -0.3954,0.382 -0.3954,0.769 0,0.395 0.3954,0.78 0.7798,1.165 0.3844,0.384 0.3844,0.384 0.7652,0.384 0.3857,0 0.7835,0 1.1679,-0.384 l 5.4162,-3.868 6.5838,3.868 -10.0657,5.033 c 2.7021,0 5.4307,-0.385 8.1327,0 1.933,0 3.865,0.396 5.799,0.767 l 3.482,-1.536 5.421,1.536 15.098,0.397 c 0.385,0 1.151,0 1.547,-0.397 l 0.385,-0.371 v -0.781 c 0,-0.384 -0.781,-0.384 -1.547,-0.783 z M 47.416,11.617 23.799,1.4898e-5 0.58369,11.617 v 5.802 L 23.799,5.8018 47.416,17.419 Z" /></svg>