<?xml version="1.0" encoding="UTF-8" standalone="no"?><svg xmlns:dc="http://purl.org/dc/elements/1.1/" xmlns:cc="http://creativecommons.org/ns#" xmlns:rdf="http://www.w3.org/1999/02/22-rdf-syntax-ns#" xmlns:svg="http://www.w3.org/2000/svg" xmlns="http://www.w3.org/2000/svg" id="svg31309" version="1.1" viewBox="0 0 12.7 12.7" height="48" width="48"><defs id="defs31303" /><path id="path21237" style="fill:#ffffff;fill-opacity:1;fill-rule:evenodd;stroke-width:1.643" d="M 0.26359,3.4103 0.83864,4.4619 6.9342,1.0773 6.3427,0.0422 Z" /><path id="path21239" style="fill:#ffffff;fill-opacity:1;fill-rule:evenodd;stroke-width:1.643" d="M 12.455,3.3775 11.88,4.429 5.7841,1.0609 6.3755,0.00934 Z" /><path d="m 3.8619,5.57 c 0,-0.26 0.079,-0.34 0.3394,-0.34 H 7.821 c 0.7191,0 0.901,1.33 1.131,1.81 v 0.23 c 0,0.58 0.4775,0.1 0.905,0.68 H 2.8439 C 3.1176,7.58 2.9669,7.82 3.4094,7.61 H 3.7488 7.5947 C 7.7799,7.61 7.934,7.51 7.934,7.38 L 7.904,6.94 7.821,6.37 C 7.5878,6.21 7.5274,6.03 7.2553,6.03 H 4.7668 4.4294 L 3.8619,5.8 Z m -2.036,4.98 0.2262,0.11 h 8.5969 0.226 c 0.08,-0.13 0.113,-0.12 0.113,-0.34 V 9.53 9.32 L 10.768,9.19 H 1.9389 c -0.2054,0 -0.113,1.12 -0.113,1.36 z M 2.1652,8.06 C 1.7961,8.33 1.598,8.88 1.3734,9.31 v 0.22 0.46 0.45 c 0.4163,0.87 0.051,0.66 0.8217,1.44 0.6737,0.68 0.7939,0.46 1.5537,0.82 H 4.2013 8.4997 8.952 c 0.8134,-0.39 0.7457,0 1.5,-0.76 0.81,-0.81 0.434,-0.58 0.876,-1.5 V 9.99 9.53 9.31 C 11.074,8.83 11.002,8.58 10.649,8.18 10.36,7.74 10.003,7.29 9.2914,7.27 9.2914,5.89 8.7274,5.26 7.821,4.78 H 7.5947 4.5406 4.2064 L 3.7488,4.88 C 3.5927,5.11 3.4094,5.17 3.4094,5.44 v 0.23 c 0,0.27 0.1833,0.33 0.3458,0.54 L 4.2013,6.35 H 4.5406 7.029 c 0.2639,0 0.5657,0.3 0.5657,0.56 V 7.25 H 3.5226 c -0.3901,0 -0.438,0.1 -0.7697,0.13 z M 7.821,5.23 H 4.2013 c -0.2607,0 -0.3394,0.1 -0.3394,0.34 V 5.8 l 0.5675,0.22 h 0.3374 2.4885 c 0.2721,0 0.3325,0.19 0.5657,0.34 l 0.083,0.57 0.03,0.45 c 0,0.16 -0.1541,0.23 -0.3393,0.23 H 3.7488 3.4094 C 2.9669,7.82 3.1176,7.61 2.8439,7.94 H 9.857 C 9.4295,7.36 8.952,7.84 8.952,7.27 V 7.04 C 8.722,6.56 8.5401,5.23 7.821,5.23 Z" style="fill:#ffffff;fill-opacity:1;fill-rule:evenodd;stroke-width:1.64298" id="path21291" /></svg>