<?xml version="1.0" encoding="UTF-8" standalone="no"?><svg xmlns:dc="http://purl.org/dc/elements/1.1/" xmlns:cc="http://creativecommons.org/ns#" xmlns:rdf="http://www.w3.org/1999/02/22-rdf-syntax-ns#" xmlns:svg="http://www.w3.org/2000/svg" xmlns="http://www.w3.org/2000/svg" xml:space="preserve" style="enable-background:new 0 0 330.655 330.655;" viewBox="0 0 330.655 330.655" y="0px" x="0px" id="Layer_1" version="1.1"><defs id="defs40" /><path id="path2" d="M 75.452,201.53 H 60 c -33.084,0 -60,-26.92 -60,-60 0,-33.09 26.916,-60.004 60,-60.004 h 0.194 c 0.01,-12.151 0.03,-21.429 0.04,-21.914 l 0.02,-0.483 H 311.05 l 0,0.482 c 0.1,1.422 0.1,78.629 0.1,81.919 0,40.77 -19.54,77.06 -49.76,100 h 69.26 v 29.99 H 40.655 v -29.99 h 69.265 c -14.123,-10.72 -25.914,-24.36 -34.468,-40 z m -15.296,-60 c 0,-1.32 0,-14.55 0.02,-30 0,0 -0.171,0 -0.171,0 -16.542,0 -30,13.45 -30,30 0,16.54 13.458,30 30,30 h 3.788 c -2.368,-9.62 -3.633,-19.67 -3.633,-30 z" style="fill:#ffffff;fill-opacity:1" /></svg>