<?xml version="1.0" encoding="UTF-8" standalone="no"?><svg xmlns:dc="http://purl.org/dc/elements/1.1/" xmlns:cc="http://creativecommons.org/ns#" xmlns:rdf="http://www.w3.org/1999/02/22-rdf-syntax-ns#" xmlns:svg="http://www.w3.org/2000/svg" xmlns="http://www.w3.org/2000/svg" xml:space="preserve" viewBox="0 0 592.14 592.14" height="592.14" width="592.14" y="0px" x="0px" id="ico" version="1.1"><defs id="defs43"></defs><path d="m 409.3,158.5 h -29.76 c 0.59,34.29 -8.64,68.3 -27.32,97.92 -10.5,16.64 -36.98,1.3 -26.43,-15.44 15.9,-25.21 23.8,-53.61 23.18,-82.49 H 182.83 c -1.33,46.23 10.38,94.27 34.57,117.65 40.19,38.85 117.19,38.85 157.37,0 24.18,-23.36 35.89,-71.38 34.53,-117.62 z m -72.19,213.15 c 33.36,-7.34 63.69,-23.49 87.73,-46.7 33.43,-32.32 54.45,-90.62 56.23,-155.96 C 482.85,103.69 465.08,43.859 433.54,8.944 L 430.85,5.976 C 429.23,4.189 425.44,0 399.95,0 H 192.14 c -25.5,0 -29.28,4.198 -30.9,5.992 l -2.67,2.956 C 127.04,43.863 109.28,103.69 111.07,169 c 1.79,65.34 22.82,123.64 56.25,155.94 24,23.21 54.33,39.37 87.7,46.72 7.81,1.72 13.93,8.67 13.93,15.84 v 138.18 c 0,6.75 -5.49,12.24 -12.24,12.24 h -68.23 c -14.95,0 -27.11,12.16 -27.11,27.11 0,14.95 12.16,27.11 27.11,27.11 h 89.65 35.86 89.65 c 14.95,0 27.11,-12.16 27.11,-27.11 0,-14.95 -12.16,-27.11 -27.11,-27.11 h -68.23 c -6.75,0 -12.24,-5.49 -12.24,-12.24 V 387.5 c 0,-7.17 6.13,-14.13 13.94,-15.85 z m 50.04,-85.7 c -23.35,22.56 -56.55,35.49 -91.11,35.49 -34.53,0 -67.71,-12.93 -91.02,-35.47 -42.9,-41.45 -53.69,-153.82 -21,-218.609 3.41,-6.753 15.31,-13.137 24.49,-13.137 h 175.08 c 9.19,0 21.09,6.383 24.5,13.137 32.71,64.809 21.95,177.159 -20.94,218.589 z" style="fill:#ffffff;fill-opacity:1" id="path4" /></svg>