<?xml version="1.0" encoding="UTF-8" standalone="no"?><svg xmlns:dc="http://purl.org/dc/elements/1.1/" xmlns:cc="http://creativecommons.org/ns#" xmlns:rdf="http://www.w3.org/1999/02/22-rdf-syntax-ns#" xmlns:svg="http://www.w3.org/2000/svg" xmlns="http://www.w3.org/2000/svg" xml:space="preserve" viewBox="0 0 40 40" y="0px" x="0px" id="ico" version="1.1" width="40" height="40"><defs id="defs37" /><path style="display:inline;fill:#ffffff;fill-opacity:1;fill-rule:evenodd;stroke-width:1.59121" id="path534-1" d="M 37.434,11.525 H 10.61 C 9.718,7.7038 9.058,4.8648 8.979,4.5211 c 1.166,0 28.699,0 29.825,0 -0.06,0.3337 -0.62,3.176 -1.37,7.0039 z M 6.246,20.46 c -2.088,0 -3.786,-1.699 -3.786,-3.788 0,-2.085 1.698,-3.784 3.786,-3.784 2.087,0 3.787,1.698 3.787,3.784 0,2.089 -1.7,3.788 -3.787,3.788 z M 39.402,3.5373 H 7.739 L 9.567,11.394 C 8.603,10.785 7.467,10.428 6.246,10.428 2.802,10.428 0,13.229 0,16.672 c 0,3.446 2.802,6.248 6.246,6.248 2.244,0 4.21,-1.193 5.312,-2.976 l 3.848,16.519 H 33.559 L 40,3.5374 h -0.598 z" /></svg>