<?xml version="1.0" encoding="UTF-8" standalone="no"?><svg xmlns:dc="http://purl.org/dc/elements/1.1/" xmlns:cc="http://creativecommons.org/ns#" xmlns:rdf="http://www.w3.org/1999/02/22-rdf-syntax-ns#" xmlns:svg="http://www.w3.org/2000/svg" xmlns="http://www.w3.org/2000/svg" width="48" height="48" viewBox="0 0 48 48.000001" id="svg69016" version="1.1"><defs id="defs69018" /><path id="path38752" d="M 8.0114,0 C 3.5837,0 0.00401,3.6 0.00401,8 v 32 c 0,4.4 3.57969,8 8.00739,8 H 39.997 c 4.435,0 7.999,-3.6 7.999,-8 V 8 c 0,-4.4 -3.564,-8 -7.999,-8 z M 23.779,6.1 c 3.342,0 6.051,2.7 6.051,6.1 0,3.4 -2.709,6.2 -6.051,6.2 -3.334,0 -6.05,-2.8 -6.05,-6.2 0,-3.4 2.716,-6.1 6.05,-6.1 z M 17.024,21 h 3.263 7.337 c 0.83,0 1.5,0.5 1.5,1.2 0,0.1 0,0.1 0,0.1 0,0.1 0,0.1 0,0.2 v 14.8 c 0,1.3 0.555,2.4 1.234,2.4 h 0.636 c 0.829,0 1.497,0.5 1.497,1.1 0,0.6 -0.668,1.1 -1.497,1.1 h -3.37 -7.337 -3.263 c -0.838,0 -1.509,-0.5 -1.509,-1.1 0,-0.6 0.671,-1.1 1.509,-1.1 h 0.705 c 0.583,0 1.059,-1.1 1.059,-2.4 V 23.5 h -1.764 c -0.838,0 -1.509,-0.6 -1.509,-1.3 0,-0.7 0.671,-1.2 1.509,-1.2 z" style="fill:#ffffff;fill-opacity:1;fill-rule:evenodd;stroke:none;stroke-width:1.09136" /></svg>