<?xml version="1.0" encoding="UTF-8" standalone="no"?><svg xmlns:dc="http://purl.org/dc/elements/1.1/" xmlns:cc="http://creativecommons.org/ns#" xmlns:rdf="http://www.w3.org/1999/02/22-rdf-syntax-ns#" xmlns:svg="http://www.w3.org/2000/svg" xmlns="http://www.w3.org/2000/svg" width="48" height="48" viewBox="0 0 12.7 12.7" version="1.1" id="svg6185"><defs id="defs6179" /><path d="m 6.3077,10.16 c 0.2987,0 0.5395,-0.24 0.5395,-0.54 0,-0.3 -0.2408,-0.54 -0.5395,-0.54 H 0.53988 C 0.24262,9.08 -2.8148e-6,9.32 -2.8148e-6,9.62 c 0,0.3 0.2426228148,0.54 0.5398828148,0.54 z m -6.01572,0.58 c 0,0 -0.12825,1.19 1.69192,1.19 h 2.9045 c 1.8238,0 1.6919,-1.19 1.6919,-1.19 H 0.292 Z M 6.5806,8.51 c 0,0 0.1315,-1.19 -1.6919,-1.19 H 1.9837 C 0.16359,7.32 0.29231,8.51 0.29231,8.51 Z M 11.373,3.7311 12.226,0.76625 12.702,0.90181 11.893,3.7267 h 0.783 L 11.635,11.926 H 8.1196 L 7.0832,3.7267 Z" style="fill:#ffffff;fill-opacity:1;fill-rule:evenodd;stroke-width:0.43729" id="_140398536-9" /></svg>