<?xml version="1.0" encoding="UTF-8" standalone="no"?><svg xmlns:dc="http://purl.org/dc/elements/1.1/" xmlns:cc="http://creativecommons.org/ns#" xmlns:rdf="http://www.w3.org/1999/02/22-rdf-syntax-ns#" xmlns:svg="http://www.w3.org/2000/svg" xmlns="http://www.w3.org/2000/svg" xmlns:sodipodi="http://sodipodi.sourceforge.net/DTD/sodipodi-0.dtd" xmlns:inkscape="http://www.inkscape.org/namespaces/inkscape" version="1.1" id="svg53822" viewBox="0 0 48 48.000001" height="48" width="48" sodipodi:docname="136.svg" inkscape:version="0.92.3 (2405546, 2018-03-11)"><sodipodi:namedview pagecolor="#ffffff" bordercolor="#666666" borderopacity="1" objecttolerance="10" gridtolerance="10" guidetolerance="10" inkscape:pageopacity="0" inkscape:pageshadow="2" inkscape:window-width="1651" inkscape:window-height="868" id="namedview8" showgrid="false" inkscape:zoom="4.916667" inkscape:cx="24.40678" inkscape:cy="24" inkscape:window-x="732" inkscape:window-y="326" inkscape:window-maximized="0" inkscape:current-layer="svg53822" /><defs id="defs53824" /><path id="path29380" style="fill:#ffffff;fill-opacity:1;fill-rule:evenodd;stroke:none;stroke-width:4.0353088" d="M 46.97249,21.6858 V 16.94028 L 23.99948,4.9434e-5 1.074885,16.94028 v 4.68903 L 23.99948,4.806102 Z m -23.6227,1.11375 c 0,-3.16772 -2.52207,-5.68576 -5.68575,-5.68576 -3.10315,0 -5.67768,2.51804 -5.67768,5.68576 0,3.16368 2.57453,5.68575 5.67768,5.68575 3.16368,0 5.68575,-2.52207 5.68575,-5.68575 z M 46.916,29.83309 c -0.0565,-0.64565 -0.17756,-0.93619 -0.41161,-1.52535 -0.23404,-0.58512 -0.4116,-0.93215 -0.75863,-1.52534 -0.52863,-0.70215 -0.94023,-1.10971 -1.7029,-1.63834 -0.58512,-0.4116 -0.99673,-0.64161 -1.64238,-0.93619 -1.00075,-0.4681 -1.5778,-0.58916 -2.63505,-0.8232 -1.52131,-0.23405 -2.46154,-0.23405 -3.98285,-0.0525 -1.88046,0.17351 -2.87314,0.40756 -4.63657,1.04918 -1.64237,0.64565 -2.57453,1.10971 -4.04338,2.10643 -1.05322,0.76267 -1.63834,1.2348 -2.51803,2.23556 -0.64565,0.75864 -0.99673,1.22673 -1.52535,2.0459 -0.4681,0.75864 -0.58916,1.29533 -0.93619,2.1145 -0.17756,0.40757 -0.23405,0.64162 -0.47213,1.05322 -0.28651,0.4116 -0.4681,0.64565 -0.82321,1.05321 -0.40353,0.4681 -0.70214,0.70618 -1.22673,1.05725 -0.8232,0.58916 -1.2913,0.87567 -2.28802,1.22674 l -16.290544,5.5728 1.985372,5.15309 15.830522,-6.79546 c 0.99268,-0.4116 1.64237,-0.58512 2.69558,-0.64161 0.70215,-0.0646 1.11375,-0.0646 1.7594,0.0565 0.40756,0.0565 0.70618,0.11702 1.11374,0.23405 0.35107,0.12106 0.58916,0.23405 0.93619,0.40756 0.9362,0.35108 1.41236,0.70215 2.34452,0.99673 0.94023,0.29457 1.52535,0.35107 2.46154,0.4116 1.29533,0.12106 2.058,0.0605 3.40176,-0.11703 1.63834,-0.18159 2.52207,-0.4116 4.09988,-1.05725 1.87641,-0.70214 2.87314,-1.22673 4.45498,-2.4575 1.12181,-0.8797 1.7029,-1.41236 2.58663,-2.46558 0.70214,-0.87566 1.05322,-1.46481 1.46482,-2.4575 0.34703,-0.75864 0.52459,-1.23077 0.70214,-2.04994 0.11299,-0.88776 0.16948,-1.41235 0.0565,-2.23152" inkscape:connector-curvature="0" /></svg>