<?xml version="1.0" encoding="UTF-8" standalone="no"?><svg xmlns:dc="http://purl.org/dc/elements/1.1/" xmlns:cc="http://creativecommons.org/ns#" xmlns:rdf="http://www.w3.org/1999/02/22-rdf-syntax-ns#" xmlns:svg="http://www.w3.org/2000/svg" xmlns="http://www.w3.org/2000/svg" version="1.1" id="ico" x="0px" y="0px" viewBox="0 0 48 48" xml:space="preserve" width="48" height="48"><defs id="defs43" /><path d="m 2.5e-5,31.266 c 4.255975,-0.7 5.015975,4.5 8.341975,1.7 6.003,-5.2 8.663,3.3 11.446,0.2 4.892,-5.4 8.593,2.8 11.792,-0.1 2.577,-2.4 6.4,-2.5 8.815,0.3 1.473,1.7 3.935,-2.2 7.605,-2.1 l -0.08,3.5 c -3.187,0 -6.249,5.6 -10.216,0.9 -3.026,-3.5 -6.72,5.601 -11.922,0 -3.015,-3.4 -5.728,5.2 -11.171,0.3 -1.599,-1.4 -2.542,-1.6 -3.946,-0.4 -5.42,4.7 -8.26,-1.1 -10.09997,-0.8 z m 0,-10.373 c 4.255975,-0.7 5.015975,4.5 8.341975,1.7 6.003,-5.2 8.663,3.3 11.446,0.2 4.892,-5.4 8.593,2.8 11.792,-0.1 2.577,-2.4 6.4,-2.5 8.815,0.3 1.473,1.7 3.935,-2.2 7.605,-2.1 l -0.08,3.5 c -3.187,0 -6.249,5.6 -10.216,0.9 -3.026,-3.5 -6.72,5.601 -11.922,0 -3.015,-3.4 -5.728,5.2 -11.171,0.3 -1.599,-1.4 -2.542,-1.6 -3.946,-0.4 -5.42,4.7 -8.26,-1.1 -10.09997,-0.8 z m 1e-4,-10.373 C 4.2561,9.8205 5.0161,15.02 8.3421,12.22 c 6.0029,-5.1996 8.6629,3.3 11.4459,0.2 4.892,-5.3996 8.593,2.8 11.792,-0.1 2.577,-2.3995 6.4,-2.4995 8.815,0.3 1.473,1.7 3.935,-2.2 7.605,-2.1 l -0.08,3.5 c -3.187,0 -6.249,5.6 -10.216,0.9 -3.026,-3.5 -6.72,5.601 -11.922,0 -3.015,-3.4 -5.728,5.2 -11.171,0.3 -1.599,-1.4 -2.542,-1.6 -3.946,-0.4 -5.4199,4.7 -8.2599,-1.1 -10.09987,-0.8 z" style="fill:#ffffff;fill-opacity:1;fill-rule:nonzero;stroke:none;stroke-width:2.3396" id="path830" /></svg>