<?xml version="1.0" encoding="UTF-8" standalone="no"?><svg xmlns:dc="http://purl.org/dc/elements/1.1/" xmlns:cc="http://creativecommons.org/ns#" xmlns:rdf="http://www.w3.org/1999/02/22-rdf-syntax-ns#" xmlns:svg="http://www.w3.org/2000/svg" xmlns="http://www.w3.org/2000/svg" width="48" height="48" viewBox="0 0 48 48.000001" id="svg69016" version="1.1"><defs id="defs69018" /><path d="M 3.8988e-5,40.1 C 4.256,39.4 5.0166,44.6 8.3426,41.8 14.346,36.6 17.006,45.1 19.789,42 c 4.892,-5.4 8.593,2.8 11.792,-0.1 2.577,-2.4 6.399,-2.5 8.814,0.3 C 41.868,43.9 44.33,40 48,40.1 l -0.08,3.5 c -3.187,0 -6.249,5.6 -10.216,0.9 -3.026,-3.5 -6.719,5.6 -11.921,0 -3.015,-3.4 -5.728,5.2 -11.171,0.3 -1.6,-1.4 -2.543,-1.6 -3.947,-0.4 C 5.2457,49.1 2.4057,43.3 0.56509,43.6 Z M 38.807,1.6 c 0,0 -9.158,0.1 -16.014,7.8 -7.17,8 -6.558,16 -8.586,21.5 -0.862,2.4 -8.6511,8.6 -8.6511,8.6 0,0 8.5161,-3.9 9.8041,-0.4 0.38,0.9 2.254,-2.1 3.509,-4.5 2.127,-4 1.691,-9.3 3.073,-15.6 C 25.312,3.8 38.807,1.6 38.807,1.6 m 4.764,0.5 c 0,0 -5.638,0.7 -7.571,9.1 -1.795,7.8 1.679,12.8 2.002,15.8 0.39,3.5 -0.552,7.7 -0.552,7.7 0,0 1.863,-0.8 4.624,-3.3 2.3,-2 -0.691,-5.2 -0.989,-6.3 C 40.786,24 39.452,21.8 38.6,18.5 35.286,5.6 43.571,2.1 43.571,2.1 M 43.26,1.7 c 0,0 -7.57,-0.1 -11.286,7.9 -3.661,7.9 -1.127,17.8 -1.014,20.8 0.105,3.3 -1.253,7.2 -1.253,7.2 0,0 2.842,-3 5.498,-2.1 0.956,0.4 0.563,-1.6 0.727,-3.9 C 36.369,25.1 33.997,21.8 33.767,18.2 32.938,5.2 43.26,1.7 43.26,1.7 M 40.509,1.6 c 0,0 -8.455,0.5 -13.301,8.4 -4.645,7.5 -3.346,16.9 -3.656,19.9 -0.415,4.1 -4.579,9.6 -4.579,9.6 0,0 6.418,-3.4 7.548,-1 0.413,0.8 1.104,-3.8 1.448,-5.2 0.806,-3.3 -0.04,-6.8 0.07,-12.6 C 28.315,5.3 40.51,1.6 40.51,1.6" style="fill:#ffffff;fill-opacity:1;fill-rule:nonzero;stroke:none;stroke-width:2.3396" id="path16228" /></svg>