<?xml version="1.0" encoding="UTF-8" standalone="no"?><svg xmlns:dc="http://purl.org/dc/elements/1.1/" xmlns:cc="http://creativecommons.org/ns#" xmlns:rdf="http://www.w3.org/1999/02/22-rdf-syntax-ns#" xmlns:svg="http://www.w3.org/2000/svg" xmlns="http://www.w3.org/2000/svg" xmlns:sodipodi="http://sodipodi.sourceforge.net/DTD/sodipodi-0.dtd" xmlns:inkscape="http://www.inkscape.org/namespaces/inkscape" version="1.1" id="ico" x="0px" y="0px" width="48" height="48" viewBox="0 0 48 48" xml:space="preserve" sodipodi:docname="143.svg" inkscape:version="0.92.3 (2405546, 2018-03-11)"><defs id="defs45"></defs><sodipodi:namedview pagecolor="#ffffff" bordercolor="#666666" borderopacity="1" objecttolerance="10" gridtolerance="10" guidetolerance="10" inkscape:pageopacity="0" inkscape:pageshadow="2" inkscape:window-width="1495" inkscape:window-height="742" id="namedview43" showgrid="false" inkscape:zoom="7.2867" inkscape:cx="31.482" inkscape:cy="33.062" inkscape:window-x="1227" inkscape:window-y="326" inkscape:window-maximized="0" inkscape:current-layer="ico" /><path id="path4" d="M 48,6.5187 A 4.9771,4.9771 0 0 1 43.023,11.495 4.9771,4.9771 0 0 1 38.046,6.5187 4.9771,4.9771 0 0 1 43.023,1.5416 4.9771,4.9771 0 0 1 48,6.5187 Z M 36.353,27.56 c -1.143,0.289 -1.836,1.449 -1.544,2.593 0.482,1.901 -0.671,3.84 -2.571,4.321 L 14.76,38.913 c 0.107,-0.133 0.21,-0.272 0.304,-0.421 l 7.715,-12.297 13.376,-9.826 c 1.899,-1.396 2.309,-4.068 0.912,-5.967 C 36.02,8.9762 34.386,8.4907 32.635,8.7767 32.469,8.8087 14.296,12.447 14.296,12.447 c -1.443,0.294 -2.376,1.702 -2.084,3.146 0.258,1.265 1.369,2.138 2.613,2.138 0.176,0 0.354,-0.02 0.533,-0.05 l 6.354,-1.29 -4.643,3.411 c -0.433,0.318 -0.803,0.716 -1.089,1.171 L 7.8317,33.955 c -1.2528,1.997 -0.6498,4.632 1.3468,5.885 0.2091,0.131 0.4268,0.235 0.6467,0.327 l -8.2159,2.086 c -1.14291,0.29 -1.83335,1.451 -1.54309,2.595 0.24544,0.965 1.11409,1.61 2.06699,1.61 0.174,0 0.3511,-0.02 0.5272,-0.06 L 33.289,38.616 c 4.18,-1.063 6.719,-5.328 5.658,-9.509 -0.29,-1.145 -1.455,-1.836 -2.594,-1.545 z" inkscape:connector-curvature="0" style="stroke-width:1.06714;fill:#ffffff;fill-opacity:1" /></svg>