<?xml version="1.0" encoding="UTF-8" standalone="no"?><svg xmlns:dc="http://purl.org/dc/elements/1.1/" xmlns:cc="http://creativecommons.org/ns#" xmlns:rdf="http://www.w3.org/1999/02/22-rdf-syntax-ns#" xmlns:svg="http://www.w3.org/2000/svg" xmlns="http://www.w3.org/2000/svg" width="48" height="48" viewBox="0 0 48 48.000001" id="svg69016" version="1.1"><defs id="defs69018" /><path d="m 1027.7,563.24 5.7,1.93 -6.8,2.26 v -3.77 l 1.1,-0.38 m 8.5,-3.49 6.8,-2.27 v 3.77 l -1.2,0.38 m -6.5,-2.77 c -0.2,-0.64 -1,-2.04 1.4,-4.81 1.2,-1.48 1.7,-3.68 1.8,-4.5 0,0 4.2,2.38 0,8.2 l -3.2,1.11 z m -4.9,-1.04 c -0.6,-0.63 -4.3,-4.96 -0.6,-8.71 3.2,-3.12 3.6,-5.74 2.6,-7.02 0,0 8,3.3 3.3,10.94 -0.8,1.29 -2.8,2.83 -1.8,5.98 z m -3.8,3.76 16.4,5.48 v -3.77 l -16.4,-5.47 v 3.77 m -3,2.27 h -2.4 v 4.78 c 0,1.47 1.3,2.67 2.9,2.67 h 21.3 c 1.6,0 3,-1.2 3,-2.67 l 0,-4.78 h -2.4 v 4.28 c 0,0.53 -0.5,0.97 -1.1,0.97 l -19.6,0.1 c -0.6,0 -1.7,0.43 -1.7,-1.38 l 0.1,-3.95 h -0.1 z" style="fill:#ffffff;fill-opacity:1;fill-rule:evenodd" transform="matrix(1.643104,0,0,1.643104,-1676.319,-890.7824)" id="_135978568-6" /></svg>