<?xml version="1.0" encoding="UTF-8" standalone="no"?><svg xmlns:dc="http://purl.org/dc/elements/1.1/" xmlns:cc="http://creativecommons.org/ns#" xmlns:rdf="http://www.w3.org/1999/02/22-rdf-syntax-ns#" xmlns:svg="http://www.w3.org/2000/svg" xmlns="http://www.w3.org/2000/svg" width="48" height="48" viewBox="0 0 12.7 12.7" version="1.1" id="svg6185"><defs id="defs6179" /><path d="M 1.5926,3.3961 H 3.0191 L 4.6118,9.2962 H 3.446 L 3.0824,7.838 H 1.5215 L 1.1659,9.2962 H -1.849e-5 Z M 2.3039,4.4631 1.7546,6.8777 H 2.8572 Z M 7.1684,9.2962 H 6.0027 V 4.4156 H 4.5048 V 3.3961 H 8.6662 V 4.4156 H 7.1684 Z M 12.7,9.1263 q -0.276,0.1423 -0.58,0.2134 -0.304,0.071 -0.64,0.071 -1.194,0 -1.8223,-0.7863 -0.6284,-0.7865 -0.6284,-2.2723 0,-1.4899 0.6284,-2.2765 0.6283,-0.7864 1.8223,-0.7864 0.336,0 0.643,0.071 0.308,0.071 0.577,0.2135 V 4.8701 Q 12.4,4.5935 12.116,4.467 11.834,4.3366 11.535,4.3366 q -0.64,0 -0.968,0.5098 -0.325,0.5059 -0.325,1.5058 0,0.9957 0.325,1.5055 0.328,0.5059 0.968,0.5059 0.299,0 0.581,-0.1265 Q 12.4,8.1067 12.7,7.8301 Z" style="font-style:normal;font-variant:normal;font-weight:bold;font-stretch:normal;font-size:7.40592px;line-height:1.25;font-family:'DejaVu Sans Mono';-inkscape-font-specification:'DejaVu Sans Mono, Bold';font-variant-ligatures:normal;font-variant-caps:normal;font-variant-numeric:normal;font-feature-settings:normal;text-align:start;letter-spacing:0px;word-spacing:0px;writing-mode:lr-tb;text-anchor:start;fill:#ffffff;fill-opacity:1;stroke:none;stroke-width:1.01168" id="path824" /></svg>