<?xml version="1.0" encoding="UTF-8" standalone="no"?><svg xmlns:dc="http://purl.org/dc/elements/1.1/" xmlns:cc="http://creativecommons.org/ns#" xmlns:rdf="http://www.w3.org/1999/02/22-rdf-syntax-ns#" xmlns:svg="http://www.w3.org/2000/svg" xmlns="http://www.w3.org/2000/svg" width="48" height="48" viewBox="0 0 12.7 12.7" version="1.1" id="svg31309"><defs id="defs31303" /><path id="path21335" style="fill:#ffffff;fill-rule:evenodd;stroke-width:1.8472705;fill-opacity:1" d="M 7.1829736,8.5075889 C 7.2376412,8.8353151 7.4561718,8.9991782 7.5653673,9.4362395 7.6200349,9.8733008 7.7291606,10.146359 7.783898,10.528683 7.8930237,11.293471 7.2376412,11.839728 6.5275213,11.839728 6.0360018,11.839728 5.4350774,11.347999 5.4350774,10.911077 V 10.747284 C 5.4350774,9.8186332 5.7080662,9.2177088 6.0360018,8.671452 Z M 2.2123436,9.545435 C 2.2123436,8.5623263 3.7416394,7.9614019 4.4517593,7.6336757 4.6702899,7.9067343 4.9434882,8.2890583 5.3258819,8.3984632 5.2712143,9.2177088 4.2334381,10.692546 3.3593154,10.692546 2.7585307,10.692546 2.2123436,10.201027 2.2123436,9.545435 Z M 7.7291606,8.125265 C 7.7291606,8.125265 8.2209593,7.6336757 8.2754174,7.3059494 8.9855373,7.4698127 10.952104,8.4529213 10.952104,9.2177088 V 9.3815719 C 10.952104,9.9278288 10.405917,10.474016 9.85966,10.474016 H 9.5864617 C 8.9310094,10.474016 7.7291606,8.6169939 7.7291606,8.125265 Z M 6.1998649,8.0707371 C 5.5442031,8.0707371 4.7796251,7.3604775 4.7796251,6.6503574 4.7796251,5.9403074 5.4350774,5.1755204 6.1451275,5.1755204 H 6.3089906 C 7.1284457,5.1755204 7.783898,5.7764444 7.783898,6.5958994 V 6.7050254 C 7.783898,7.4698127 6.9644429,8.0707371 6.1998649,8.0707371 Z M 0.62810109,6.4864944 C 0.62810109,5.8311124 1.11983,5.3395224 1.8299499,5.3395224 H 1.9390756 C 2.5946676,5.3395224 3.8510443,5.7217764 4.2878962,5.9403074 4.2334381,6.1588384 4.1787007,6.2679634 4.1787007,6.5412324 V 7.0327514 C 3.413983,7.1966144 2.9223937,7.5790082 1.884408,7.5790082 H 1.7205449 C 1.1743579,7.5790082 0.62810109,7.0327514 0.62810109,6.4864944 Z M 8.2754174,5.7764444 C 9.1494004,5.5579134 9.6411293,5.0663244 10.842769,5.0663244 H 11.006632 C 11.552889,5.0663244 12.099076,5.6125814 12.099076,6.1588384 V 6.2135054 C 12.099076,6.7050254 11.552889,7.3059494 11.115967,7.3059494 H 10.952104 C 10.077981,7.3059494 8.9310094,6.9235554 8.3847526,6.6503574 Z M 7.3468367,4.7385984 C 7.3468367,4.1377434 8.6031436,2.0621214 9.3134031,2.0621214 H 9.750255 C 10.187386,2.0621214 10.678906,2.6083784 10.678906,3.0998974 V 3.3729554 C 10.678906,3.8646854 9.85966,4.3562744 9.5317243,4.5748054 9.3134031,4.6839304 8.1115543,5.2301874 7.8930237,5.2301874 7.8930237,5.2301874 7.3468367,4.8477934 7.3468367,4.7385984 Z M 1.884408,3.0998974 C 1.884408,2.7175044 2.4853324,2.1166484 2.8677262,2.1166484 H 3.2501199 C 3.8510443,2.1166484 4.2878962,2.8266994 4.5064268,3.2090934 4.6156224,3.4276234 5.2165468,4.5748054 5.2165468,4.7933354 5.2165468,4.7933354 4.6702899,5.2848554 4.6156224,5.3395224 3.8510443,4.9024614 1.884408,4.3562744 1.884408,3.2637604 Z M 5.1073512,1.7889234 C 5.1073512,1.2426664 5.7080662,0.8602724 6.3089906,0.8602724 6.8552474,0.8602724 7.4561718,1.3520014 7.4561718,1.8982584 V 1.9527864 C 7.4561718,3.1545654 6.8552474,3.8100174 6.6913843,4.5748054 H 5.9813342 C 5.7080662,4.5748054 5.1073512,2.6628364 5.1073512,2.1166484 Z M 4.4517593,2.0621214 4.5064268,2.1713164 4.2334381,1.8982584 C 3.8510443,1.6250604 3.5778461,1.5158644 2.9769217,1.5158644 2.1029387,1.5158644 1.2836931,2.2804424 1.2836931,3.1545654 V 3.4276234 C 1.2836931,4.0285484 1.7752823,4.4654004 2.1029387,4.7385984 0.68276869,4.7385984 0.30037489,5.4487184 0.08184429,5.9403074 -0.02728141,6.3227014 -0.02728141,6.6503574 0.08184429,6.9782934 0.24591679,7.4151451 0.24591679,7.5244802 0.79196419,7.9067343 1.1743579,8.125265 1.5567517,8.1799326 2.1576063,8.1799326 L 2.3214693,8.125265 1.9390756,8.5075889 C 1.7752823,8.780857 1.6114192,8.9991782 1.6114192,9.4362395 V 9.6547702 C 1.6114192,10.419558 2.3761369,11.238803 3.0315893,11.238803 H 3.6871812 C 4.0149074,11.238803 4.2878962,11.020273 4.5064268,10.911077 L 4.834153,10.583421 V 11.020273 C 4.9980161,11.78506 5.6536081,12.440443 6.5275213,12.440443 H 6.8005798 C 7.1829736,12.440443 7.783898,12.058258 8.0024286,11.839728 8.330085,11.457334 8.3847526,11.129608 8.3847526,10.474016 8.8763418,10.801742 8.9310094,11.07494 9.8049924,11.07494 H 9.85966 C 10.733573,11.07494 11.552889,10.36489 11.552889,9.4362395 V 9.2723764 C 11.552889,8.5075889 11.115967,8.3437957 10.842769,7.9067343 11.880545,7.9067343 12.7,7.2512824 12.7,6.2679634 V 6.1041004 C 12.7,5.0663244 11.826087,4.4654004 10.733573,4.4654004 10.952104,4.0830064 11.334288,3.8100174 11.334288,3.2090934 V 3.1545654 C 11.334288,2.3351804 10.515042,1.4611974 9.6955874,1.4611974 H 9.4225986 C 8.8763418,1.4611974 8.6031436,1.6797274 8.2754174,1.8982584 L 8.0568868,2.1166484 V 1.8982584 C 8.0024286,1.0241354 7.2923087,0.2595574 6.3636582,0.2595574 H 6.254323 C 5.2712143,0.2595574 4.4517593,1.0241354 4.4517593,2.0621214 Z" /></svg>