<?xml version="1.0" encoding="UTF-8" standalone="no"?><svg xmlns:dc="http://purl.org/dc/elements/1.1/" xmlns:cc="http://creativecommons.org/ns#" xmlns:rdf="http://www.w3.org/1999/02/22-rdf-syntax-ns#" xmlns:svg="http://www.w3.org/2000/svg" xmlns="http://www.w3.org/2000/svg" id="svg31309" version="1.1" viewBox="0 0 12.7 12.7" height="48" width="48"><defs id="defs31303" /><path id="path25594" style="fill:#ffffff;fill-rule:evenodd;stroke-width:1.6642206;fill-opacity:1" d="M 1.63959,11.792913 C 1.63959,11.341243 1.2717973,10.979941 0.81879645,10.979941 0.36646129,10.979941 -8.9220009e-8,11.341243 -8.9220009e-8,11.792913 -8.9220009e-8,12.240089 0.36646129,12.611043 0.81879645,12.611043 1.2717973,12.611043 1.63959,12.240089 1.63959,11.792913 Z" /><path id="path25596" style="fill:#ffffff;fill-rule:evenodd;stroke-width:1.6642206;fill-opacity:1" d="M 4.4045262,11.792913 C 4.4045262,11.341243 4.0380648,10.979941 3.5857296,10.979941 3.1289011,10.979941 2.7624397,11.341243 2.7624397,11.792913 2.7624397,12.240089 3.1289011,12.611043 3.5857296,12.611043 4.0380648,12.611043 4.4045262,12.240089 4.4045262,11.792913 Z" /><path id="path25598" style="fill:#ffffff;fill-rule:evenodd;stroke-width:1.6642206;fill-opacity:1" d="M 7.1681309,11.792913 C 7.1681309,11.341243 6.8049979,10.979941 6.348003,10.979941 5.8969992,10.979941 5.5292064,11.341243 5.5292064,11.792913 5.5292064,12.240089 5.8969992,12.611043 6.348003,12.611043 6.8049979,12.611043 7.1681309,12.240089 7.1681309,11.792913 Z" /><path id="path25600" style="fill:#ffffff;fill-rule:evenodd;stroke-width:1.6642206;fill-opacity:1" d="M 9.935064,11.792913 C 9.935064,11.341243 9.5686027,10.979941 9.1156018,10.979941 8.6632667,10.979941 8.2968053,11.341243 8.2968053,11.792913 8.2968053,12.240089 8.6632667,12.611043 9.1156018,12.611043 9.5686027,12.611043 9.935064,12.240089 9.935064,11.792913 Z" /><path id="path25602" style="fill:#ffffff;fill-rule:evenodd;stroke-width:1.6642206;fill-opacity:1" d="M 12.7,11.792913 C 12.7,11.341243 12.333539,10.979941 11.881204,10.979941 11.428203,10.979941 11.061741,11.341243 11.061741,11.792913 11.061741,12.240089 11.428203,12.611043 11.881204,12.611043 12.333539,12.611043 12.7,12.240089 12.7,11.792913 Z" /><path id="path25604" style="fill:#ffffff;fill-rule:evenodd;stroke-width:1.6642206;fill-opacity:1" d="M 11.191883,2.2486074 10.358775,1.4675887 C 10.088672,1.8255625 9.9279079,2.0207756 9.5907368,2.3025281 9.3986857,2.4776042 9.2730371,2.5694691 9.0491994,2.7100958 8.7920773,2.8903309 8.6489544,2.959396 8.37752,3.0810505 8.0723019,3.2418143 7.8977252,3.2959014 7.5613862,3.3849372 7.1473281,3.4877861 6.8895404,3.5080895 6.4443613,3.5255639 6.0441163,3.5255639 5.8202786,3.5085888 5.4355108,3.419553 5.1341205,3.3446631 4.9733568,3.2959014 4.6857794,3.1845651 4.380395,3.0439384 4.2053189,2.9762046 3.9177416,2.7986323 3.6463072,2.6168994 3.5023522,2.532357 3.2628708,2.3201689 2.9263654,2.0377506 2.7526208,1.8430368 2.4811864,1.4843973 L 1.6650526,2.2486074 C 1.9051997,2.5694691 2.0619692,2.7302328 2.3367321,2.992514 2.559904,3.2047021 2.6875498,3.3173699 2.9095568,3.4877861 3.2154405,3.7201113 3.3891852,3.8439293 3.7113783,4.0268271 4.0921519,4.214884 4.332299,4.3208949 4.7338754,4.4536997 5.1823829,4.5903322 5.4355108,4.6216195 5.8996619,4.6763724 V 6.0964518 L 1.919512,10.506137 H 3.4243002 L 6.4443613,7.1567268 9.4650882,10.506137 H 10.966049 L 6.9546114,6.0749834 V 4.6763724 C 7.3874752,4.6417566 7.6264572,4.5903322 8.042346,4.4608558 8.394495,4.358007 8.5870454,4.2864455 8.9190574,4.1087068 9.1936538,3.9870522 9.3519212,3.8940223 9.6251862,3.7201113 9.9929789,3.4683147 10.183699,3.3173699 10.503229,3.0139825 10.791638,2.7302328 10.934761,2.5694691 11.191883,2.2486074 Z" /><path id="path25606" style="fill:#ffffff;fill-rule:evenodd;stroke-width:1.6642206;fill-opacity:1" d="M 7.6888655,1.4687536 C 7.6888655,0.70803839 7.1160408,0.08894832 6.426887,0.08894832 5.7413946,0.08894832 5.1654078,0.70803839 5.1654078,1.4687536 5.1654078,2.2499388 5.7413946,2.867531 6.426887,2.867531 7.1160408,2.867531 7.6888655,2.2499388 7.6888655,1.4687536 Z" /></svg>