<?xml version="1.0" encoding="UTF-8" standalone="no"?><svg xmlns:dc="http://purl.org/dc/elements/1.1/" xmlns:cc="http://creativecommons.org/ns#" xmlns:rdf="http://www.w3.org/1999/02/22-rdf-syntax-ns#" xmlns:svg="http://www.w3.org/2000/svg" xmlns="http://www.w3.org/2000/svg" id="svg3114" version="1.1" viewBox="0 0 12.7 12.7" height="48" width="48"><defs id="defs3108" /><path d="M 8.016,6.6506 C 8.003,6.6189 7.9885,6.5885 7.9842,6.5553 7.9712,6.5091 7.9712,6.46 7.9698,6.4109 L 7.9871,3.6872 7.33,4.3371 c -0.037,0.035 -0.077,0.071 -0.1228,0.094 -0.055,0.027 -0.1169,0.038 -0.1805,0.03 -0.065,-0.01 -0.1271,-0.038 -0.1675,-0.085 -0.046,-0.049 -0.071,-0.117 -0.069,-0.1849 -0,-0.071 0.023,-0.1401 0.063,-0.1964 0.036,-0.059 0.088,-0.104 0.1401,-0.1502 l 1.2839,-1.112 1.3041,1.1842 c 0.029,0.03 0.059,0.059 0.081,0.097 0.033,0.052 0.049,0.117 0.045,0.1805 -0,0.061 -0.025,0.1184 -0.062,0.1632 -0.039,0.049 -0.094,0.085 -0.1531,0.095 -0.072,0.019 -0.1516,0 -0.2123,-0.039 -0.035,-0.017 -0.065,-0.043 -0.092,-0.068 L 8.5185,3.6886 8.5503,5.8145 c 0.012,0.032 0.025,0.062 0.033,0.095 0.01,0.046 0.012,0.094 0.012,0.1429 L 8.5778,8.775 9.2349,8.1266 c 0.039,-0.035 0.077,-0.069 0.1242,-0.092 0.052,-0.027 0.1169,-0.04 0.1805,-0.03 0.065,0.01 0.1256,0.037 0.1675,0.085 0.046,0.049 0.069,0.1184 0.069,0.1849 0,0.071 -0.025,0.14 -0.064,0.1964 -0.038,0.056 -0.088,0.1025 -0.1387,0.1502 L 8.2889,9.7325 6.9848,8.5497 c -0.03,-0.03 -0.059,-0.063 -0.081,-0.098 -0.033,-0.053 -0.051,-0.117 -0.048,-0.1805 0,-0.061 0.025,-0.1199 0.065,-0.1647 0.038,-0.048 0.091,-0.084 0.1531,-0.095 0.069,-0.017 0.1502,0 0.2123,0.039 0.035,0.019 0.062,0.045 0.092,0.069 L 8.0463,8.775 8.016,6.6506 M 2.0009,10.422 H 10.491 V 1.9322 H 2.0009 Z M 1.5864,1.5178 H 10.906 V 10.836 H 1.5864 Z M 11.596,-6.0731e-5 h 0.829 V 12.7 h -0.829 z m -11.32088,0 H 1.1041 V 12.7 H 0.27512 Z M 4.156,10.034 4.0145,9.9069 3.9581,9.7351 3.9856,4.4724 3.9004,4.4579 v 2.2126 l -0.027,0.1 L 3.7025,6.6979 3.561,6.5578 3.4902,6.3744 3.4469,6.1895 V 4.3467 4.2182 l 0.029,-0.143 0.056,-0.1415 0.1285,-0.1849 0.1401,-0.098 0.1719,-0.072 0.5806,-0.056 0.5675,0.029 0.1444,0.027 0.1387,0.058 0.143,0.071 0.1834,0.1718 0.085,0.169 0.059,0.1978 v 1.645 L 5.8587,6.0769 5.8154,6.2617 5.7591,6.4293 5.6883,6.6011 5.5179,6.7701 5.3922,6.7441 5.333,6.5853 V 4.4579 L 5.248,4.4719 V 9.5661 L 5.2348,9.7221 5.1785,9.8607 5.05,10.02 4.8535,10.047 4.7236,9.9603 4.6802,9.9069 4.6528,9.5661 V 7.0387 H 4.5676 V 9.6224 L 4.5243,9.7928 4.4405,9.9603 4.299,10.034 H 4.156 M 4.6124,3.4095 4.4261,3.3401 4.2845,3.239 4.2152,3.0961 4.1863,2.9126 4.2282,2.6859 4.3293,2.5444 l 0.156,-0.084 0.1545,-0.03 0.1979,0.03 0.1126,0.084 0.1,0.1285 0.042,0.1112 0.029,0.2123 -0.042,0.143 -0.085,0.13 -0.1559,0.097 z" style="fill:#ffffff;fill-opacity:1;fill-rule:nonzero;stroke:none;stroke-width:1.444163" id="path5073" /></svg>