<?xml version="1.0" encoding="UTF-8" standalone="no"?><svg xmlns:dc="http://purl.org/dc/elements/1.1/" xmlns:cc="http://creativecommons.org/ns#" xmlns:rdf="http://www.w3.org/1999/02/22-rdf-syntax-ns#" xmlns:svg="http://www.w3.org/2000/svg" xmlns="http://www.w3.org/2000/svg" version="1.1" id="svg69016" viewBox="0 0 48 48.000001" height="48" width="48"><defs id="defs69018"><clipPath clipPathUnits="userSpaceOnUse" id="clipPath25293"><path d="M 1649.764,271.557 1658.267,271.557 1658.267,280.058 1649.764,280.058 1649.764,271.557 Z" id="path25295" /></clipPath></defs><path d="M 0,0 -0.724,-1.254 M 0.724,1.253 -1.3697e-7,-6.6185e-8 M -0.485,0.1595 -0.981,-1.2015 m 0.993,2.7209 -0.496,-1.36 m -0.058,-2.2797 c 0,0 2.258,-0.389 2.258,0.304 v 0.02 c 0,0.695 -2.258,0.305 -2.258,0.305 m 0.012,0.2391 c 0,0 0.182,-2.145 -1.004,-2.145 H -3.62 c -1.186,0 -1.004,2.145 -1.004,2.145 z m 0,0 c 0,0 0.182,-2.145 -1.004,-2.145 H -3.62 c -1.186,0 -1.004,2.145 -1.004,2.145 z" style="stroke-linejoin:miter;stroke-opacity:1;fill-opacity:1;stroke:#ffffff;stroke-linecap:butt;stroke-miterlimit:10;stroke-dasharray:none;stroke-width:0.122;fill:#ffffff" transform="matrix(7.388413,0.000000,0.000000,-7.388413,34.785650,16.947250)" id="path25323" /></svg>