<?xml version="1.0" encoding="UTF-8" standalone="no"?><svg xmlns:dc="http://purl.org/dc/elements/1.1/" xmlns:cc="http://creativecommons.org/ns#" xmlns:rdf="http://www.w3.org/1999/02/22-rdf-syntax-ns#" xmlns:svg="http://www.w3.org/2000/svg" xmlns="http://www.w3.org/2000/svg" xmlns:sodipodi="http://sodipodi.sourceforge.net/DTD/sodipodi-0.dtd" xmlns:inkscape="http://www.inkscape.org/namespaces/inkscape" id="svg2461" height="48" width="48" version="1.0" sodipodi:docname="162.svg" inkscape:version="0.92.3 (2405546, 2018-03-11)"><sodipodi:namedview pagecolor="#ffffff" bordercolor="#666666" borderopacity="1" objecttolerance="10" gridtolerance="10" guidetolerance="10" inkscape:pageopacity="0" inkscape:pageshadow="2" inkscape:window-width="1549" inkscape:window-height="808" id="namedview10" showgrid="false" inkscape:zoom="4.916667" inkscape:cx="24.40678" inkscape:cy="24" inkscape:window-x="1139" inkscape:window-y="264" inkscape:window-maximized="0" inkscape:current-layer="svg2461" /><defs id="defs2463" /><path inkscape:connector-curvature="0" d="m 15.21665,17.47244 c -0.34944,2.02625 1.52351,4.51357 3.52179,5.61741 4.06664,2.27777 13.81976,1.85853 14.50552,5.85508 0.7593,4.37382 -8.28745,8.67784 -10.99816,10.2987 -2.13816,1.27156 -4.38709,2.40352 -6.79047,3.74503 -2.25037,1.27157 -4.58366,3.29782 -6.791769,3.75888 -2.655184,0.54485 -6.260184,-0.41938 -8.6634214141,0 C 5.030872,36.95201 10.27014,27.3519 15.21665,17.47244" id="path8295" style="fill:#ffffff;fill-opacity:1;fill-rule:nonzero;stroke:none;stroke-width:1.442173" /><path inkscape:connector-curvature="0" d="m 23.88137,1.081278 c 1.0486,1.607013 1.9416,3.381607 2.80834,5.156345 -3.25541,2.906556 -7.41969,4.904687 -9.82307,8.663567 1.75974,-4.23393 4.80676,-9.236542 7.01473,-13.819912" id="path8297" style="fill:#ffffff;fill-opacity:1;fill-rule:nonzero;stroke:none;stroke-width:1.442173" /><path inkscape:connector-curvature="0" d="m 27.62626,7.87247 c 3.24201,6.20437 6.42777,12.4647 9.83735,18.50135 -2.08278,-2.55726 -6.66514,-3.10226 -11.93326,-4.22009 -2.94939,-0.61465 -6.97391,-1.34151 -7.5042,-3.50751 -0.45789,-1.95616 1.14508,-4.05236 2.11047,-5.1562 1.92732,-2.20796 5.044,-4.206095 7.48964,-5.61755" id="path8299" style="fill:#ffffff;fill-opacity:1;fill-rule:nonzero;stroke:none;stroke-width:1.442173" /><path inkscape:connector-curvature="0" d="m 38.16263,28.48386 c 3.32551,5.10039 6.66515,12.21304 9.83764,18.26368 -8.18866,0 -16.39174,0 -24.58039,0 -0.47015,-0.79665 1.32809,-1.56519 2.33329,-2.34757 3.54962,-2.76681 11.76597,-7.81138 12.64699,-13.10748 0.14436,-0.89429 0.1197,-1.87237 -0.24099,-2.80863" id="path8301" style="fill:#ffffff;fill-opacity:1;fill-rule:nonzero;stroke:none;stroke-width:1.442173" /></svg>