<?xml version="1.0" encoding="UTF-8" standalone="no"?><svg xmlns:dc="http://purl.org/dc/elements/1.1/" xmlns:cc="http://creativecommons.org/ns#" xmlns:rdf="http://www.w3.org/1999/02/22-rdf-syntax-ns#" xmlns:svg="http://www.w3.org/2000/svg" xmlns="http://www.w3.org/2000/svg" width="48" height="48" viewBox="0 0 12.7 12.7" version="1.1" id="svg6185"><defs id="defs6179" /><path d="m 3.4952,5.8123 c 0.4958,0 0.8952,-0.4021 0.8952,-0.8961 0,-0.4971 -0.3994,-0.896 -0.8952,-0.896 -0.494,0 -0.8961,0.3992 -0.8961,0.896 -4e-4,0.494 0.4021,0.8961 0.8961,0.8961 z m 1.45,0.4135 C 4.8091,6.0866 4.6235,6.0043 4.4162,6.0043 H 2.5373 c -0.2073,0 -0.3939,0.082 -0.5262,0.2215 L 0.1266,8.1089 c -0.17416,0.1838 -0.16818,0.4733 0.0152,0.6475 0.18289,0.1747 0.47606,0.1692 0.64746,-0.015 L 2.2506,7.2807 V 9.2314 H 0.61138 c -0.30099,0 -0.54408,0.2431 -0.54408,0.5451 0,0.1562 0.05927,0.2945 0.16543,0.3955 l 1.84547,1.845 c 0.1626,0.239 0.4825,0.317 0.737,0.169 0.2689,-0.154 0.3576,-0.494 0.2036,-0.76 L 1.9665,10.377 h 0.021 3.0237 l -1.0565,1.048 c -0.1502,0.267 -0.062,0.608 0.2045,0.761 0.2546,0.148 0.5763,0.07 0.7394,-0.169 l 1.844,-1.845 c 0.1071,-0.1 0.1659,-0.2394 0.1659,-0.3957 0,-0.3019 -0.2426,-0.544 -0.5445,-0.544 H 4.7296 V 7.3013 L 6.1633,8.7411 C 6.3375,8.9244 6.627,8.9303 6.8108,8.7563 6.9942,8.5821 6.9997,8.2927 6.826,8.1088 L 4.9452,6.2229 Z M 9.6912,2.8104 H 8.3815 L 6.1483,0.57661 C 5.9741,0.3942 5.6846,0.38462 5.5022,0.5614 5.3184,0.73605 5.3096,1.0256 5.4838,1.2089 l 2.333,2.3366 v 7.7405 c 0,0.281 0.2243,0.507 0.5023,0.507 0.2812,0 0.5054,-0.226 0.5054,-0.507 V 7.0884 h 0.409 l 0,4.1976 c 0,0.281 0.227,0.507 0.505,0.507 0.2789,0 0.5029,-0.226 0.5029,-0.507 l -0,-7.7405 2.333,-2.3366 C 12.748,1.0256 12.74,0.73605 12.556,0.5614 12.372,0.38356 12.083,0.39314 11.909,0.57661 Z M 9.0229,2.6087 c 0.4967,0 0.8992,-0.4021 0.8992,-0.8994 0,-0.4934 -0.4025,-0.89612 -0.8992,-0.89612 -0.494,0 -0.8961,0.40272 -0.8961,0.89612 0,0.4973 0.4021,0.8994 0.8961,0.8994 z" style="fill:#ffffff;fill-rule:evenodd;stroke-width:0.4339823;fill-opacity:1" id="_141404784-0" /></svg>