<?xml version="1.0" encoding="UTF-8" standalone="no"?><svg xmlns:dc="http://purl.org/dc/elements/1.1/" xmlns:cc="http://creativecommons.org/ns#" xmlns:rdf="http://www.w3.org/1999/02/22-rdf-syntax-ns#" xmlns:svg="http://www.w3.org/2000/svg" xmlns="http://www.w3.org/2000/svg" xmlns:sodipodi="http://sodipodi.sourceforge.net/DTD/sodipodi-0.dtd" xmlns:inkscape="http://www.inkscape.org/namespaces/inkscape" version="1.1" id="svg69016" viewBox="0 0 48 48.000001" height="48" width="48" sodipodi:docname="165.svg" inkscape:version="0.92.3 (2405546, 2018-03-11)"><sodipodi:namedview pagecolor="#ffffff" bordercolor="#666666" borderopacity="1" objecttolerance="10" gridtolerance="10" guidetolerance="10" inkscape:pageopacity="0" inkscape:pageshadow="2" inkscape:window-width="1485" inkscape:window-height="954" id="namedview8" showgrid="false" inkscape:zoom="4.916667" inkscape:cx="-32.23729" inkscape:cy="23.18644" inkscape:window-x="1704" inkscape:window-y="254" inkscape:window-maximized="0" inkscape:current-layer="svg69016" /><defs id="defs69018" /><g transform="matrix(0.8125,0,0,0.8125,4.5,-811.5441)" id="layer1" style="fill:#ffffff;fill-opacity:1"><path id="path38496" style="fill:#ffffff;fill-opacity:1;fill-rule:evenodd;stroke:none;stroke-width:1.3531023" d="m 31.4514,1030.811 c 0,4.046 -2.82122,4.767 -5.98071,4.767 h -5.25951 v -9.501 h 5.25951 c 3.15949,0 5.98071,0.733 5.98071,4.734 m 6.54901,0 c 0,-5.128 -2.97276,-10.168 -10.68138,-10.168 H 13.43349 v 31.719 h 6.77769 v -11.339 h 7.10785 c 7.70862,0 10.68138,-5.04 10.68138,-10.212 m -37.0322404,-13.918 22.8295404,-12.531 23.23412,12.114 -1.96741,3.774 -21.21123,-11.053 -20.828305,11.436 z m -6.5066286,-8.212 c 0,-5.449 4.407765,-9.8564 9.858017,-9.8564 H 43.69119 c 5.43815,0 9.84727,4.4074 9.84727,9.8564 v 39.384 c 0,5.428 -4.40912,9.834 -9.84727,9.834 H 4.319558 c -5.450252,0 -9.858017,-4.406 -9.858017,-9.834 z" /></g></svg>