<?xml version="1.0" encoding="UTF-8" standalone="no"?><svg xmlns:dc="http://purl.org/dc/elements/1.1/" xmlns:cc="http://creativecommons.org/ns#" xmlns:rdf="http://www.w3.org/1999/02/22-rdf-syntax-ns#" xmlns:svg="http://www.w3.org/2000/svg" xmlns="http://www.w3.org/2000/svg" width="48" height="48" viewBox="0 0 48 48.000001" id="svg69016" version="1.1"><defs id="defs69018" /><path d="m 21.632,24 c 0,6.786 0.438,8.901 2.361,8.901 1.942,0 2.369,-2.115 2.369,-8.901 0,-6.786 -0.427,-8.902 -2.369,-8.902 -1.923,0 -2.361,2.116 -2.361,8.902 m 9.044,9.197 c -0.956,2.614 -2.909,4.333 -6.683,4.333 -7.976,0 -7.599,-7.955 -7.599,-13.53 0,-5.586 -0.387,-13.53 7.599,-13.53 8.005,0 7.609,7.944 7.609,13.53 0,2.848 0.07,6.51 -0.926,9.197 m 12.757,-11.15 c 2.238,1.526 4.567,3.53 4.567,7.721 0,6.928 -4.273,7.761 -7.701,7.761 -6.001,0 -6.806,-4.485 -6.562,-9.083 h 5.168 v 0.407 c 0,1.607 -0.202,4.048 2.065,4.048 1.12,0 1.792,-0.834 1.792,-2.461 0,-4.202 -8.79,-4.669 -8.79,-12.411 0,-4.13 1.669,-7.558 7.284,-7.558 5.483,0 6.724,3.661 6.47,8.462 H 42.67 v -0.416 c 0,-1.088 0.01,-3.418 -1.608,-3.418 -1.118,0 -1.841,0.702 -1.841,2.288 0,2.29 2.584,3.561 4.212,4.66 m -33.6927,0 c 2.2287,1.526 4.5677,3.53 4.5677,7.721 0,6.928 -4.273,7.761 -7.7012,7.761 -6.00144,0 -6.80591,-4.485 -6.57175,-9.083 H 5.203 v 0.407 c 0,1.607 -0.1926,4.048 2.0748,4.048 1.1293,0 1.7801,-0.834 1.7801,-2.461 0,-4.202 -8.77861,-4.669 -8.77861,-12.411 0,-4.13 1.66811,-7.558 7.28431,-7.558 5.4724,0 6.7244,3.661 6.4694,8.462 H 8.9774 v -0.416 c 0,-1.088 0.01,-3.418 -1.6077,-3.418 -1.1293,0 -1.8406,0.702 -1.8406,2.288 0,2.29 2.5733,3.561 4.2112,4.66" style="fill:#ffffff;fill-opacity:1;fill-rule:evenodd;stroke:none;stroke-width:1.2589502;stroke-opacity:1" id="path40972" /></svg>