<?xml version="1.0" encoding="UTF-8" standalone="no"?><svg xmlns:dc="http://purl.org/dc/elements/1.1/" xmlns:cc="http://creativecommons.org/ns#" xmlns:rdf="http://www.w3.org/1999/02/22-rdf-syntax-ns#" xmlns:svg="http://www.w3.org/2000/svg" xmlns="http://www.w3.org/2000/svg" version="1.1" id="_x31_0" x="0px" y="0px" viewBox="0 0 48 48" style="opacity:1" xml:space="preserve" width="48" height="48"><defs id="defs9" /><path id="polygon7" d="M 24.016 3.8477 C 22.65 3.8477 21.541 4.9546 21.541 6.3203 C 21.541 7.3365 22.157 8.2105 23.033 8.5898 L 23.033 38.107 L 24.996 38.107 L 24.996 8.5898 C 25.876 8.2105 26.486 7.3365 26.486 6.3203 C 26.486 4.9546 25.382 3.8477 24.016 3.8477 z M 6.0605 12.486 L 2.082 15.91 L 1.4805 16.422 L 1.4824 16.424 L 1.4727 16.434 L 6.0605 20.379 L 19.32 20.379 L 19.32 16.434 L 19.32 12.514 L 19.32 12.502 L 19.32 12.486 L 6.0605 12.486 z M 28.713 12.512 L 28.713 20.564 L 41.879 20.564 L 45.924 17.086 L 46.551 16.551 L 46.549 16.549 L 46.561 16.541 L 41.879 12.512 L 28.713 12.512 z M 31.24 15.039 L 40.941 15.039 L 42.465 16.352 L 42.682 16.541 L 40.941 18.037 L 31.24 18.037 L 31.24 15.039 z M 20.316 41.086 C 19.094 41.086 18.107 42.076 18.107 43.295 L 18.107 44.152 L 29.926 44.152 L 29.926 43.295 C 29.926 42.076 28.936 41.086 27.717 41.086 L 20.316 41.086 z " style="fill:#ffffff;fill-opacity:1;stroke:#ffffff;stroke-width:1.87866;stroke-miterlimit:4;stroke-dasharray:none;stroke-opacity:1" /></svg>