<?xml version="1.0" encoding="UTF-8" standalone="no"?><svg xmlns:dc="http://purl.org/dc/elements/1.1/" xmlns:cc="http://creativecommons.org/ns#" xmlns:rdf="http://www.w3.org/1999/02/22-rdf-syntax-ns#" xmlns:svg="http://www.w3.org/2000/svg" xmlns="http://www.w3.org/2000/svg" version="1.1" id="svg69016" viewBox="0 0 48 48.000001" height="48" width="48"><defs id="defs69018" /><path d="m 6.013249,22.48809 c 0,-1.1802 0.949502,-2.12622 2.126228,-2.12622 H 8.9881 c 1.16514,0 2.11464,0.94602 2.11464,2.12622 v 3.44207 c 0,1.16398 -0.9495,2.12739 -2.11464,2.12739 H 8.139477 c -1.176726,0 -2.126228,-0.96341 -2.126228,-2.12739 z m 7.419901,0 c 0,-1.1802 0.94834,-2.12622 2.1262,-2.12622 h 0.84994 c 1.1638,0 2.11338,0.94602 2.11338,2.12622 v 3.44207 c 0,1.16398 -0.94958,2.12739 -2.11338,2.12739 h -0.84994 c -1.17786,0 -2.1262,-0.96341 -2.1262,-2.12739 z m 34.31302,16.21716 -4.77287,-3.8606 v -7.116 l 1.59508,-5.36888 0.0394,-0.0893 v -0.10093 -3.54292 -0.65735 h -0.67459 -9.1518 -0.67253 v 0.65735 3.3899 0.0754 l 0.0129,0.0662 1.01215,4.82285 H 22.14333 V 17.44654 16.77762 H 21.48495 0.6585543 5.401334e-5 v 0.66892 3.39454 0.67125 H 0.6585543 2.355824 v 7.81279 H 0.8092562 0.1380108 v 0.66892 11.30587 0.66081 H 0.8092562 47.33936 48.00005 v -0.66081 -2.07407 -0.31649 z" style="fill:#ffffff;fill-opacity:1;fill-rule:evenodd;stroke:none;stroke-width:2.5747809" id="path5976" /><path id="path5980" style="fill:#ffffff;fill-opacity:1;fill-rule:nonzero;stroke:none;stroke-width:2.5747809" d="m 29.53938,43.46597 c 0,0.87529 0.33962,1.71001 0.96117,2.33259 0.62129,0.61561 1.45604,0.95993 2.32786,0.95993 0.88933,0 1.7112,-0.34432 2.33146,-0.95993 0.6213,-0.62258 0.9622,-1.4573 0.9622,-2.33259 0,-0.88573 -0.3409,-1.71002 -0.9622,-2.33028 -0.62026,-0.63299 -1.44213,-0.97384 -2.33146,-0.97384 -1.80853,0 -3.28903,1.48164 -3.28903,3.30412" /><path id="path5984" style="fill:#ffffff;fill-opacity:1;fill-rule:nonzero;stroke:none;stroke-width:2.5747809" d="m 8.862682,36.93344 c 1.304258,0 2.544738,0.50432 3.468748,1.43178 0.92514,0.93558 1.44453,2.16681 1.44453,3.47918 0,2.71168 -2.20275,4.91443 -4.913278,4.91443 -1.315842,0 -2.557504,-0.50664 -3.483807,-1.4434 -0.923986,-0.92282 -1.442213,-2.16446 -1.442213,-3.47103 0,-1.31237 0.518227,-2.5436 1.442213,-3.47918 0.926303,-0.92746 2.167965,-1.43178 3.483807,-1.43178" /><path id="path5988" style="fill:#ffffff;fill-opacity:1;fill-rule:nonzero;stroke:none;stroke-width:2.5747809" d="m 36.94626,43.46597 c 0,0.87529 0.34321,1.71001 0.97507,2.33259 0.62026,0.61561 1.44213,0.95993 2.32914,0.95993 0.87414,0 1.69601,-0.34432 2.3325,-0.95993 0.61563,-0.62258 0.95885,-1.4573 0.95885,-2.33259 0,-0.88573 -0.34322,-1.71002 -0.95885,-2.33028 -0.63649,-0.63299 -1.45836,-0.97384 -2.3325,-0.97384 -1.82268,0 -3.30421,1.48164 -3.30421,3.30412" /><path id="path5992" style="fill:#ffffff;fill-opacity:1;fill-rule:nonzero;stroke:none;stroke-width:2.5747809" d="m 22.02875,36.93344 c 1.31932,0 2.54697,0.50432 3.47106,1.43178 0.93568,0.93558 1.44574,2.16681 1.44574,3.47918 0,2.71168 -2.20273,4.91443 -4.9168,4.91443 -1.317,0 -2.54363,-0.50664 -3.48033,-1.4434 -0.92409,-0.92282 -1.43055,-2.16446 -1.43055,-3.47103 0,-1.31237 0.50646,-2.5436 1.43055,-3.47918 0.9367,-0.92746 2.16333,-1.43178 3.48033,-1.43178" /><path id="path5996" style="fill:#ffffff;fill-opacity:1;fill-rule:evenodd;stroke:none;stroke-width:2.5747809" d="m 39.29986,17.06728 c 1.66125,-1.90016 3.72262,-4.22694 3.72262,-6.60939 0,-2.22708 -3.12784,-2.671101 -5.60658,-2.671101 -0.54611,0 -0.78943,0.444021 -1.33091,0.444021 -1.11514,0 -0.82547,-1.444529 -1.48281,-2.2294 -1.69498,-1.937265 -3.5962,-2.976009 -6.36821,-2.976009 -1.53019,0 -2.43214,0.593564 -3.72365,1.344808 C 22.37248,2.43297 20.54979,1.241181 17.53678,1.241181 h -4.05535 c -3.87219,0 -7.480051,2.531988 -7.480051,6.027382 0,2.518084 3.392223,3.342377 6.203631,3.342377 2.55874,0 4.05185,-0.55765 6.53523,-1.037613 -0.29327,0.557643 -0.67357,0.922823 -0.67357,1.559313 0,0.92167 1.07807,1.15005 1.98696,1.55581 2.06601,0.9356 3.38301,1.49556 5.69825,1.49556 2.77304,0 4.09133,-1.78885 6.86205,-1.78885 3.02949,0 8.49806,-0.86024 6.68593,4.67212" /></svg>