<?xml version="1.0" encoding="UTF-8" standalone="no"?><svg xmlns:dc="http://purl.org/dc/elements/1.1/" xmlns:cc="http://creativecommons.org/ns#" xmlns:rdf="http://www.w3.org/1999/02/22-rdf-syntax-ns#" xmlns:svg="http://www.w3.org/2000/svg" xmlns="http://www.w3.org/2000/svg" xml:space="preserve" style="enable-background:new 0 0 582.892 582.893;" viewBox="0 0 582.892 582.893" height="582.893px" width="582.892px" y="0px" x="0px" id="Capa_1" version="1.1"><defs id="defs41" /><path id="path2" d="M 526.834,235.822 C 514.9303,209.7459 509.492,176.503 480.804,162.989 442.517,158.6005 466.1536,120.1285 459.5878,94.67051 454.0939,68.08584 453.2255,41.1524 438.0724,17.861 429.8216,3.449406 405.5499,-8.897721 406.232,18.04553 398.9159,34.37722 402.4323,61.60069 392.68,72.421 366.8132,43.32596 328.5851,22.46393 288.927,23.086 c -18.6212,10.1295 14.5321,37.0945 19.3009,52.56069 15.0833,24.92891 36.8893,44.62621 53.2288,68.39281 15.3879,25.211 8.5365,48.0606 -5.9112,70.2968 0.95,19.0546 -12.2709,48.9755 -20.8455,53.6087 -9.9066,11.5856 -29.1954,19.1773 -48.3398,14.1661 -25.2391,3.6278 -51.2986,5.1505 -74.945,14.7242 -23.4772,6.447 -42.6236,20.2643 -63.8136,32.7176 -13.1689,3.5874 -31.5973,25.2539 -32.9397,29.2936 -20.77966,16.8984 -23.76806,27.7987 -37.24878,48.0169 -10.4665,15.2474 -10.67042,33.1623 -20.24837,56.8723 3.33402,14.0074 -6.20658,34.9554 -3.12713,49.9719 -1.22951,19.0849 -12.6415,26.8235 -4.683,44.0308 13.02714,14.9323 34.65316,23.1887 51.63448,20.4457 30.6244,9.2379 62.7103,2.3642 93.8999,2.3789 23.3802,-1.1698 45.4607,-4.9012 62.2242,-19.9425 24.1041,-0.6166 16.9993,-27.0018 3.8068,-31.7175 4.6276,-10.8767 6.5972,3.7228 11.204,-10.033 4.1385,8.5502 25.9707,-28.6856 41.2182,-14.4344 10.244,15.0868 25.7739,31.6438 36.4898,41.5554 9.718,7.389 21.0664,28.373 27.868,24.427 9.4404,10.2072 28.2435,9.9375 45.4258,12.163 18.6763,-3.8881 60.1935,-22.9696 28.3712,-39.821 -8.5729,-1.4135 -13.4978,-13.6055 -28.6635,-18.1327 0.4039,-7.5962 -12.3639,-16.5856 -9.5516,-31.9497 -11.2939,-18.1689 9.6812,-25.5743 19.1221,-35.2576 13.7933,-21.6632 23.1459,-37.4876 28.6209,-63.03 13.4575,-18.6462 12.3079,-35.8901 7.9841,-56.9999 -4.0905,-31.8035 35.2159,-31.6082 48.2068,-54.9988 17.1592,-15.8353 27.978,-24.2639 9.6182,-46.5693 z" style="fill:#ffffff;fill-opacity:1" /></svg>