<?xml version="1.0" encoding="UTF-8" standalone="no"?><svg xmlns:dc="http://purl.org/dc/elements/1.1/" xmlns:cc="http://creativecommons.org/ns#" xmlns:rdf="http://www.w3.org/1999/02/22-rdf-syntax-ns#" xmlns:svg="http://www.w3.org/2000/svg" xmlns="http://www.w3.org/2000/svg" id="svg6185" version="1.1" viewBox="0 0 12.7 12.7" height="48" width="48"><defs id="defs6179" /><g transform="translate(0,-284.29998)" id="layer1"><path d="M 1.3715691e-4,286.74116 C 1.3715691e-4,286.74116 1.0236482,288.06197 1.4292632,288.17223 1.8343912,288.27667 5.7190647,288.14989 6.4671321,288.27715 7.2137538,288.40492 7.084542,288.38209 7.5120133,288.21207 7.9380338,288.04204 8.6453074,287.6345 8.8133861,287.61458 8.9834055,287.59613 9.0931887,287.40181 9.2160879,287.44407 9.3491858,287.48682 8.23727,287.3168 8.4102025,286.4191 8.4102025,286.4191 8.8556479,286.58912 9.1330233,286.60904 9.4108811,286.63331 9.7985215,286.63381 10.031204,286.52598 10.2668,286.4191 10.481508,286.29134 10.481508,286.29134 10.481508,286.29092 10.158962,285.56804 9.6236439,285.50295 9.0946432,285.4398 8.4101978,285.39608 8.1750883,285.52579 8.1755151,285.52487 9.8582671,283.92277 11.096972,286.12135 L 11.462271,286.22627 C 11.462271,286.22627 11.90723,286.37879 11.971839,286.54882 12.034988,286.71593 12.294384,287.57377 12.229781,287.91432 12.166145,288.25385 12.164686,288.67987 12.249691,288.89507 12.337614,289.10978 12.400277,289.64267 12.699995,289.98514 12.700912,289.98514 12.572237,290.32565 12.18751,290.43348 11.800355,290.54328 11.76198,290.64529 11.674538,290.68852 11.590497,290.73319 11.589529,290.62536 11.481691,290.94305 11.377734,291.26367 11.118824,291.49829 11.141652,291.62896 11.141652,291.62896 10.481494,291.28651 10.56359,291.09365 10.6486,290.90323 11.011953,290.66813 10.926944,290.39075 10.844366,290.11288 10.223556,289.53775 10.20121,289.36481 10.20121,289.36481 8.898382,290.13281 8.7084477,290.58069 8.5131729,291.03049 8.5578614,291.82181 8.3431534,291.98892 8.133304,292.15894 7.9603668,292.31146 7.9603668,292.31146 7.9603668,292.31105 8.3577243,294.27494 8.3849288,294.90984 L 8.3853556,294.97785 C 8.3853556,295.53258 9.2407927,295.64091 9.2407927,295.83327 9.2407927,296.02515 9.1781251,296.11114 9.1781251,296.11114 L 8.3231745,296.06791 C 8.3231745,296.06791 7.7898015,295.66085 7.7898015,295.553 7.7898015,295.4476 7.5950129,293.91257 7.3394983,293.33694 7.0849554,292.75888 6.8916201,292.67388 6.9144538,292.58935 6.9348687,292.50627 6.6992595,292.6967 6.6569984,292.75888 6.6181403,292.82348 6.6817716,294.27738 6.616672,294.66066 6.5549818,295.04538 6.7191694,295.51075 6.8066026,295.59769 6.8921026,295.68076 7.3200596,296.11115 7.2991719,296.21802 7.2777936,296.321 6.2066838,296.40795 6.2066838,296.25836 6.2071068,296.11019 5.8467358,293.0824 5.6961409,292.84196 5.5475033,292.60928 5.4610351,292.52621 5.2283529,292.52621 4.9942152,292.52621 4.6930352,292.43926 4.4831852,292.567 4.2679912,292.69668 3.7351042,293.01682 3.4747352,293.08239 3.4761122,293.08239 3.5854912,294.55281 3.6700152,294.7 3.7564832,294.84961 4.0328812,295.14739 4.1407232,295.3004 4.2490492,295.44758 4.4385002,295.49083 4.4831902,295.68076 4.5235162,295.87555 4.5235162,295.9183 4.5235162,295.9183 L 3.6277662,295.94063 C 3.6277662,295.94063 3.3926482,295.53308 3.2226332,295.44806 L 3.0501782,295.36209 C 3.0501782,295.36209 3.1371272,294.47023 3.0074202,294.21034 2.8801492,293.95482 2.2593392,292.96968 2.3671832,292.48149 2.3671832,292.48107 1.6846832,292.84194 1.4490822,292.94977 1.4504582,292.94886 1.4738552,294.29533 1.4490822,294.59506 1.4291722,294.89236 1.5987002,295.13037 1.7269442,295.34022 1.8551872,295.5525 2.3671832,295.72544 2.3919612,295.89546 2.4128342,296.06791 1.4291722,296.23841 1.3213332,296.17331 1.2134902,296.11017 0.93854716,295.61809 0.78893316,295.53308 L 0.76365516,293.52685 C 0.76365516,293.52685 0.12584316,292.96968 0.29634916,292.567 0.46733616,292.15894 0.70099216,291.65132 0.74567916,291.4813 0.78889616,291.30836 0.93852716,289.79326 0.80883516,289.53775 0.68205016,289.2798 0.21328416,289.15497 0.12584316,288.85233 0.04180616,288.55261 -0.00142784,286.74168 3.6156915e-5,286.74119 Z" id="path892-5" style="display:inline;fill:#ffffff;fill-rule:evenodd;stroke-width:0.458768;fill-opacity:1" /></g></svg>