<?xml version="1.0" encoding="UTF-8" standalone="no"?><svg xmlns:dc="http://purl.org/dc/elements/1.1/" xmlns:cc="http://creativecommons.org/ns#" xmlns:rdf="http://www.w3.org/1999/02/22-rdf-syntax-ns#" xmlns:svg="http://www.w3.org/2000/svg" xmlns="http://www.w3.org/2000/svg" xmlns:sodipodi="http://sodipodi.sourceforge.net/DTD/sodipodi-0.dtd" xmlns:inkscape="http://www.inkscape.org/namespaces/inkscape" version="1.1" id="svg2" height="48" width="48" sodipodi:docname="176.svg" inkscape:version="0.92.3 (2405546, 2018-03-11)"><sodipodi:namedview pagecolor="#ffffff" bordercolor="#666666" borderopacity="1" objecttolerance="10" gridtolerance="10" guidetolerance="10" inkscape:pageopacity="0" inkscape:pageshadow="2" inkscape:window-width="1290" inkscape:window-height="649" id="namedview7" showgrid="false" inkscape:zoom="4.916667" inkscape:cx="24" inkscape:cy="24" inkscape:window-x="1615" inkscape:window-y="364" inkscape:window-maximized="0" inkscape:current-layer="svg2" /><defs id="defs4" /><path inkscape:connector-curvature="0" id="path8356" d="m 18.45054,45.78 c -0.70956,-2.648 1.19851,-8.228 1.07088,-10.618 -0.71003,-0.86 -0.99,-1.457 -2.28468,-2.022 -2.79884,2.539 -6.7131,8.323 -10.652669,8.025 -3.3316,-0.47 -3.39754,-2.353 -4.02778,-3.67 -0.63026,-1.317 -0.92049,-3.521 -0.92049,-3.521 -0.43866,-2.933 -0.19094,-6.035 0.73383,-9.19 1.08952,-3.719 1.1259,-3.392 -0.4777,-4.294 C 0.0787807,19.471 0.0038807,19.266 0.9727907,17.975 2.016611,16.584 3.045461,14.512 5.142211,9.575 c 1.23229,-2.9 2.07707,-4.35 3.34222,-5.734 2.954919,-3.233 6.817189,-4.832 7.698019,-3.186 0.19321,0.362 1.04942,1.23 1.9016,1.928 L 19.63349,3.852 22.25927,2.94 C 28.7526,0.683 34.2234,1.004 38.51642,3.892 c 3.96283,2.667 4.76104,3.011 6.36691,2.739 2.0303,-0.343 1.62417,0.693 -0.79733,2.033 l -1.92743,1.067 1.35325,0.778 c 1.48595,0.856 3.35364,3.484 3.35364,4.719 0,0.831 -0.83989,1.097 -1.13733,0.359 -0.095,-0.234 -0.18462,0.05 -0.19974,0.631 -0.0299,1.202 -1.81121,3.885 -2.57848,3.885 -0.40033,0 -0.4594,-0.316 -0.28941,-1.554 0.21276,-1.548 0.20415,-1.563 -1.86835,-3.579 -3.21258,-2.809 -2.77434,-3.104 -4.80024,-2.024 -0.86053,0.636 -1.15406,0.669 -2.24599,1.49 -0.60672,0.443 -0.58001,0.518 0.54029,1.502 3.40866,2.992 3.58271,8.184 0.32066,9.554 l -1.36799,0.575 v 2.442 c 0,3.103 0.12138,3.398 1.82775,4.265 0.7734,0.394 2.40413,1.439 3.43493,2.135 5.94093,4.008 7.27319,4.57 9.07012,5.78 0.12953,0.762 0.14693,1.011 -0.46432,0.912 -1.12838,-0.686 -8.89693,-5.398 -9.83947,-6.032 -1.99249,-1.341 -2.18747,-1.38 -2.42096,-0.487 -0.25229,0.964 -1.78802,1.241 -3.18768,0.574 -1.163,-0.555 -1.16651,-0.554 -1.52007,0.376 -0.19533,0.513 -0.27147,1.394 -0.16878,1.958 0.61604,3.428 -1.50919,5.5 -4.20865,4.104 -0.95816,-0.496 -1.34936,-0.147 -1.37872,1.23 -0.51153,6.35 -1.09647,5.248 -5.93273,2.456 z m 4.5568,-2.831 c 0.30136,-2.642 0.27095,-2.903 -0.52058,-4.466 -1.01954,-2.011 -1.04273,-2.363 -0.15475,-2.363 0.5009,0 0.90227,0.489 1.48792,1.814 0.87677,1.982 2.25639,3.298 3.45862,3.298 0.96838,0 1.18322,-0.566 1.18322,-3.112 0,-2.8 0.67864,-4.045 2.20399,-4.045 0.63996,0 1.25848,0.153 1.37435,0.341 0.31014,0.502 1.53345,0.415 1.53345,-0.109 0,-0.584 -1.40493,-1.799 -2.43308,-2.105 -1.34025,-0.399 -3.4224,-1.971 -4.40416,-3.324 -0.68759,-0.948 -0.97821,-1.146 -1.1238,-0.767 -0.25596,0.667 -1.24001,0.664 -1.24001,0 0.20749,-0.821 0.10471,-0.6 0.24682,-1.018 l 0.98406,-0.91 c 1.17867,-1.091 3.54001,-1.67 3.54001,-0.868 0,0.281 -0.38978,0.61 -0.86659,0.729 -1.21786,0.306 -1.3594,1.002 -0.45308,2.228 0.66669,0.902 3.25045,2.741 3.85103,2.741 0.10725,0 0.1955,-1.457 0.1955,-3.238 0,-3.206 0,-3.237 0.83301,-3.237 0.45799,0 1.26304,-0.37 1.78908,-0.823 2.28928,-1.969 0.7073,-6.166 -3.09396,-8.208 -1.72121,-0.925 -2.50131,-1.875 -1.53943,-1.875 0.61991,0 -1.51922,-2.334 -2.16356,-2.36 -1.62006,0.511 -2.10263,0.567 -4.3449,1.685 l -1.64439,1.012 c -2.66006,1.637 -3.05476,2.229 -1.78064,2.673 0.79257,0.277 1.03943,0.569 1.03943,1.233 0,0.478 0.15296,0.869 0.33702,0.869 0.18443,0 0.3249,0.345 0.31048,0.767 -0.0492,1.44 0.5948,4.227 1.1669,5.044 0.85691,1.224 0.69921,1.84 -0.63312,2.475 -1.53573,0.733 -1.39351,0.778 -2.07496,-0.658 -0.99457,-2.096 -3.33167,-3.088 -4.74925,-2.016 -0.31109,0.5 -0.48108,0.717 -0.49516,1.272 -0.012,1.196 -0.24622,1.936 1.41926,3.828 2.0797,2.363 4.011,2.305 4.54689,-0.136 0.12659,-0.568 0.44514,-1.034 0.7115,-1.034 0.72508,0 0.5962,1.613 -0.23647,2.96 -0.82262,1.331 -0.69077,2.982 0.29554,3.711 0.47699,0.352 0.51059,0.526 0.16879,0.872 -0.23419,0.237 -0.42599,0.71 -0.42599,1.05 0,0.34 -0.14769,0.884 -0.32753,1.209 -0.40174,0.726 -1.06158,5.897 -0.80542,6.312 0.23542,0.381 2.25763,1.619 2.40479,1.471 0.0615,-0.06 0.25439,-1.373 0.43039,-2.917 z m 3.49484,-23.341 c -1.46471,-0.654 -1.53399,-1.72 -0.0931,-1.432 l 1.01444,0.203 -0.20832,-1.524 c -0.27374,-1.997 0.67705,-2.202 1.14226,-0.245 0.24543,1.032 0.45957,1.278 1.1113,1.278 0.96698,0 1.20522,0.497 0.61659,1.287 -0.6064,0.814 -2.27748,1.016 -3.58272,0.433 z M 10.02966,38.217 c 1.04716,-0.734 2.85434,-2.488 4.01647,-3.896 l 2.11293,-2.561 -1.94239,-2.22 c -1.06844,-1.22 -1.99373,-2.08 -2.05597,-1.909 -0.17405,0.472 -0.98351,0.37 -1.1827,-0.15 -0.36692,-0.956 0.5772,-3.825 2.07989,-6.322 3.01941,-5.017 8.30263,-9.36 13.33054,-10.96 1.04644,-0.333 2.82288,-0.997 3.94738,-1.477 2.40795,-1.026 5.59331,-1.174 8.20979,-0.38 2.06739,0.627 2.56934,0.636 3.35592,0.06 C 42.47346,7.984 42.40471,7.887 41.0295,7.17 40.20863,6.742 38.97423,5.947 38.28628,5.402 35.15064,2.918 31.02164,2.27 25.56106,3.404 11.69937,6.282 -0.1007293,23.91 3.624941,36.175 c 1.25057,4.118 2.75851,4.598 6.404719,2.041 z M 4.978701,18.314 C 7.241801,13.805 14.47688,6.193 17.62571,5.01 17.91139,4.902 17.43898,4.203 16.29073,3.033 L 14.51362,1.222 13.39403,1.761 c -3.20843,1.546 -5.071339,4.035 -7.792059,10.41 -0.94218,2.207 -2.08744,4.583 -2.54509,5.281 l -0.83228,1.268 0.9355,0.507 c 0.51426,0.279 0.97031,0.514 1.01355,0.521 0.04389,0 0.40545,-0.638 0.80505,-1.434 z M 27.25407,13.78 c 0.45979,-0.478 0.0811,-0.871 -0.83884,-0.66 -0.56243,0.129 -1.8347,0.401 -2.11584,0.693 -0.45993,0.478 -0.80899,1.127 0.11072,0.915 0.56224,-0.129 2.5629,-0.656 2.84398,-0.948 z" style="fill:#ffffff;fill-rule:evenodd;stroke-width:1.3339108;fill-opacity:1" /></svg>