<?xml version="1.0" encoding="UTF-8" standalone="no"?><svg xmlns:dc="http://purl.org/dc/elements/1.1/" xmlns:cc="http://creativecommons.org/ns#" xmlns:rdf="http://www.w3.org/1999/02/22-rdf-syntax-ns#" xmlns:svg="http://www.w3.org/2000/svg" xmlns="http://www.w3.org/2000/svg" id="svg31309" version="1.1" viewBox="0 0 12.7 12.7" height="48" width="48"><defs id="defs31303" /><path d="m 11.393,2.3621 10e-4,6.7819 c 0,0 -2.3957,-0.5566 -4.6256,0.3827 V 2.8048 c 0,0 1.0583,-0.6885 2.8861,-0.7962 1.3395,0 1.7415,0.3535 1.7415,0.3535 z M 7.008,10.69 C 6.7109,10.729 6.5849,10.321 6.863,10.156 8.6507,9.6302 10.093,9.7041 12.019,9.9541 V 3.4327 c 0,-0.185 0.147,-0.3361 0.327,-0.3361 l 0.03,6.3304 C 12.554,3.0966 12.7,3.2477 12.7,3.4327 v 6.8643 c 0,0.179 0,0.41 -0.303,0.393 z M 3.0489,2.0086 C 4.8778,2.116 5.9353,2.8048 5.9353,2.8048 V 9.5277 C 3.7046,8.5881 1.3096,9.1447 1.3096,9.1447 l 10e-4,-6.7826 c 0,0 0.4019,-0.3535 1.7408,-0.3535 z M 0.30242,10.691 C 6.6721e-5,10.708 6.6721e-5,10.476 6.6721e-5,10.298 V 3.4317 C 6.6721e-5,3.247 0.14673,3.0957 0.32664,3.0957 L 0.35392,9.428 C 0.53452,3.0957 0.6805,3.247 0.6805,3.4317 V 9.9531 C 2.6074,9.7041 4.0489,9.6302 5.8369,10.155 6.1166,10.32 5.9887,10.729 5.692,10.689 Z" style="fill:#ffffff;fill-rule:evenodd;stroke-width:1.705339;fill-opacity:1" id="path25633" /></svg>