<?xml version="1.0" encoding="UTF-8" standalone="no"?><svg xmlns:dc="http://purl.org/dc/elements/1.1/" xmlns:cc="http://creativecommons.org/ns#" xmlns:rdf="http://www.w3.org/1999/02/22-rdf-syntax-ns#" xmlns:svg="http://www.w3.org/2000/svg" xmlns="http://www.w3.org/2000/svg" version="1.1" id="Capa_1" x="0px" y="0px" viewBox="0 0 310 310" style="enable-background:new 0 0 310 310;" xml:space="preserve"><defs id="defs45" /><path d="m 155,87.083 112.5,92.697 15,-18.19 L 162,62.297 V 40.202 h 21.63 v -14 H 162 V 10.535 h -14 v 15.667 h -21.63 v 14 H 148 V 62.297 L 27.502,161.59 42.498,179.78 Z M 66.619,174.56 v 124.6 h 58.051 v -52.83 c 0,-16.57 13.43,-30 30,-30 h 0.66 c 16.57,0 30,13.43 30,30 v 52.83 h 58.05 V 174.56 L 155,101.25 Z m -10,124.6 V 206.18 L 0,238.98 v 60.48 h 56.619 z m 196.761,0.3 H 310 v -60.48 l -56.62,-32.73 v 92.91 z" style="fill:#ffffff;fill-opacity:1" id="polygon8" /></svg>