<?xml version="1.0" encoding="UTF-8" standalone="no"?><svg xmlns:dc="http://purl.org/dc/elements/1.1/" xmlns:cc="http://creativecommons.org/ns#" xmlns:rdf="http://www.w3.org/1999/02/22-rdf-syntax-ns#" xmlns:svg="http://www.w3.org/2000/svg" xmlns="http://www.w3.org/2000/svg" width="48" height="48" viewBox="0 0 12.7 12.7" version="1.1" id="svg6185"><defs id="defs6179" /><path d="m 9.4534,8.53 c 0,-0.32 0.2803,-0.57 0.5986,-0.57 0.368,0 0.671,0.21 0.671,0.57 v 0.12 c 0,0.31 -0.305,0.58 -0.623,0.58 H 10.05 C 9.7524,9.23 9.4514,8.97 9.4514,8.67 Z m -7.453,-0.1 c 0,-0.25 0.3421,-0.47 0.6234,-0.47 0.3255,0 0.6469,0.26 0.6469,0.55 v 0.16 c 0,0.28 -0.3152,0.56 -0.6229,0.56 C 2.3123,9.23 2.0004,9.02 2.0004,8.7 Z M 7.9435,5.42 c 0,-0.55 0.4728,-1.11 0.9824,-1.11 h 0.2637 c 0.5252,0 0.9824,0.57 0.9824,1.11 z m 3.2595,0 H 10.7 C 10.596,5.42 10.63,5.31 10.63,5.2 10.57,4.47 9.8839,3.83 9.0728,3.83 8.1819,3.83 7.4675,4.52 7.4675,5.42 H 1.5456 C 1.3927,5.42 1.2337,5.26 1.2337,5.1 1.2337,4.85 1.581,3.81 1.6555,3.46 1.7095,3.22 1.7919,2.88 1.8707,2.65 1.9167,2.51 2.0113,1.89 2.1203,1.89 h 8.5307 c 0.02,0.21 0.336,1.3 0.421,1.55 0.05,0.13 0.418,1.51 0.418,1.54 V 5.1 c 0,0.15 -0.131,0.29 -0.287,0.29 z M 3.6062,0.89 c 0,-0.16 0.2468,-0.38 0.4072,-0.38 h 4.6251 c 0.235,0 0.4794,0.22 0.4794,0.45 v 0.15 c 0,0.19 -0.1246,0.38 -0.3114,0.38 H 4.0615 C 3.8246,1.49 3.6062,1.27 3.6062,1.04 Z m 0.072,10.28 c 0.1335,-0.1 2.9595,0 3.379,0 0.5671,0 1.1343,0 1.7015,0 0.4581,0 0.3355,0 0.3355,0.5 0,0.28 0,0.56 0,0.84 0.015,0.18 0.1425,0.24 0.3354,0.24 h 1.4134 c 0.135,0 0.288,-0.15 0.288,-0.29 v -1.29 h 0.1 c 0.344,0 0.671,-0.39 0.671,-0.74 V 4.87 c 0,-0.1 -0.282,-1.2 -0.329,-1.33 C 11.442,3.18 11.325,2.61 11.231,2.23 11.127,1.81 10.971,1.35 10.881,0.93 10.791,0.53 10.567,0.05 10.128,0.05 H 2.6238 C 2.452,0.05 2.167,0.23 2.0863,0.35 1.916,0.61 1.957,0.68 1.8565,0.96 1.7845,1.16 1.748,1.41 1.6753,1.62 1.6213,1.78 1.5319,2.12 1.5031,2.26 1.4251,2.65 1.2577,3.21 1.1426,3.58 1.0886,3.75 0.80239,4.78 0.80239,4.89 v 5.39 c 0,0.51 0.30861,0.89 0.81491,0.89 v 1.27 c 0,0.14 0.094,0.31 0.2156,0.31 h 1.5817 c 0.4105,0 0.2633,-1.13 0.2633,-1.56 z" id="path522-4" style="display:inline;fill:#ffffff;fill-opacity:1;fill-rule:evenodd;stroke-width:0.44563" /></svg>