<?xml version="1.0" encoding="UTF-8" standalone="no"?><svg xmlns:dc="http://purl.org/dc/elements/1.1/" xmlns:cc="http://creativecommons.org/ns#" xmlns:rdf="http://www.w3.org/1999/02/22-rdf-syntax-ns#" xmlns:svg="http://www.w3.org/2000/svg" xmlns="http://www.w3.org/2000/svg" height="48" width="48" xml:space="preserve" viewBox="0 0 48 48" y="0px" x="0px" id="ico" version="1.1"><defs id="defs39"></defs><path style="fill:#ffffff;stroke-width:0.14844;fill-opacity:1" d="m 38.848,19.947 c -0.374,0 -0.742,0.02 -1.106,0.07 l -2.28,-7.808 c 0.223,-0.259 0.358,-0.596 0.358,-0.964 0,-0.82 -0.665,-1.4855 -1.485,-1.4855 h -6.123 c -0.819,0 -1.484,0.6655 -1.484,1.4855 0,0.819 0.665,1.484 1.484,1.484 h 3.879 l -1.578,2.509 c -0.07,-0.02 -0.141,-0.02 -0.212,-0.02 l -13.256,0.193 c 0.328,-0.273 0.537,-0.685 0.537,-1.143 0,-0.821 -0.663,-1.485 -1.484,-1.485 h -3.576 c -0.819,0 -1.484,0.664 -1.484,1.485 0,0.819 0.665,1.484 1.484,1.484 h 0.267 c 0.04,0.132 0.09,0.263 0.165,0.386 l 0.596,0.981 -1.645,3.247 c -0.871,-0.273 -1.797,-0.423 -2.7577,-0.423 -5.0449,0 -9.1493,4.104 -9.1493,9.15 0,5.044 4.1044,9.148 9.1493,9.148 4.3567,0 8.0087,-3.061 8.9267,-7.146 l 4.894,0.284 c 0.03,0 0.06,0 0.09,0 0.509,0 0.984,-0.262 1.257,-0.695 l 9.186,-14.622 1.395,4.779 c -3.07,1.478 -5.192,4.619 -5.192,8.249 0,5.044 4.104,9.148 9.148,9.148 5.046,0 9.15,-4.104 9.15,-9.148 0,-5.046 -4.104,-9.15 -9.15,-9.15 z m -23.483,0.166 4.947,8.142 -2.066,-0.119 C 17.97,25.507 16.576,23.205 14.551,21.719 Z M 2.9668,29.097 c 0,-3.409 2.7726,-6.182 6.1805,-6.182 0.4773,0 0.9417,0.06 1.3877,0.159 l -2.7118,5.352 c -0.2263,0.446 -0.2124,0.976 0.037,1.41 0.2497,0.435 0.7012,0.714 1.201,0.742 l 5.9898,0.347 c -0.781,2.518 -3.132,4.351 -5.904,4.351 -3.4079,0 -6.1805,-2.771 -6.1805,-6.179 z m 8.5292,-1.351 1.686,-3.327 c 1.04,0.9 1.777,2.138 2.04,3.542 z m 11.577,-0.665 -5.29,-8.705 10.857,-0.157 z m 15.775,8.195 c -3.408,0 -6.18,-2.771 -6.18,-6.179 0,-2.278 1.237,-4.268 3.075,-5.341 l 1.68,5.756 c 0.232,0.787 1.055,1.24 1.842,1.01 0.787,-0.23 1.238,-1.056 1.008,-1.843 l -1.682,-5.756 c 0.09,0 0.171,0 0.257,0 3.408,0 6.181,2.773 6.181,6.181 0,3.408 -2.773,6.18 -6.181,6.18 z" id="path2" /></svg>