<?xml version="1.0" encoding="UTF-8" standalone="no"?><svg xmlns:dc="http://purl.org/dc/elements/1.1/" xmlns:cc="http://creativecommons.org/ns#" xmlns:rdf="http://www.w3.org/1999/02/22-rdf-syntax-ns#" xmlns:svg="http://www.w3.org/2000/svg" xmlns="http://www.w3.org/2000/svg" id="svg3114" version="1.1" viewBox="0 0 12.7 12.7" height="48" width="48"><defs id="defs3108"><clipPath id="clipPath8507" clipPathUnits="userSpaceOnUse"><path id="path8509-3" d="M 0,253.696 156.72,253.696 156.72,0.06 0,0.06 0,253.696 z" /></clipPath><clipPath id="clipPath8460" clipPathUnits="userSpaceOnUse"><path id="path8462" d="M 0.060005,229.701 171.44801,229.701 171.44801,0.06 0.060005,0.06 0.060005,229.701 z" /></clipPath></defs><path d="M 9.4336,9.985 8.5261,5.4877 6.6266,5.1052 l 0.01,0.9071 c -0.036,0 -1.9117,0.01 -1.9117,0.01 V 5.871 H 4.0796 C 3.9164,5.8712 3.6311,5.5078 3.5447,5.4288 3.3976,5.2947 3.2542,5.1719 3.1256,4.9956 3.0542,4.8983 3.0447,4.793 3.0447,4.7032 3.0447,4.6038 3.2416,3.8381 3.2719,3.7202 3.3068,3.5893 3.3498,3.4608 3.379,3.331 3.4039,3.2207 3.4219,3.0643 3.5064,2.9573 3.5432,2.9108 3.5981,2.8666 3.6521,2.8288 3.6954,2.7983 3.9164,2.6702 4.0104,2.6702 h 0.4823 c 0.041,-0.023 0.066,-0.083 0.066,-0.1082 0,-0.034 -0.04,-0.065 -0.067,-0.1 H 3.9585 c -0.089,2e-4 -0.3093,0.1473 -0.3774,0.1473 -0.106,0 -0.1298,-0.095 -0.1298,-0.1471 0,-0.036 -0.012,-0.065 0.03,-0.092 C 3.5668,2.314 3.8309,2.177 3.9672,2.177 h 1.1484 c 0.022,0 0.136,-0.086 0.2074,-0.11 0.095,-0.031 0.2241,-0.054 0.3258,-0.054 0.319,0 0.7166,0.1822 0.9015,0.6169 0.032,0.077 0.067,0.2148 0.067,0.2364 v 1.0619 c 0,0.022 1.3924,0.2454 1.9767,0.3884 0.2431,0.059 0.5234,0.3397 0.3904,0.7574 C 8.9468,5.1932 8.8262,5.3971 8.6964,5.431 8.8149,6.0047 9.5981,9.9137 9.6035,9.9444 L 9.4354,9.9852 M 8.0011,7.5419 c 0,0.022 0.6371,2.0438 0.6371,2.0438 C 8.7225,9.8561 8.6101,10.117 8.311,10.234 8.0462,10.338 7.68,10.183 7.57,9.8823 c 0,0 -0.3918,-1.0436 -0.678,-1.8507 0,0 -1.1941,-0.8853 -1.1962,-0.889 -0.01,0.048 -0.014,0.1105 -0.027,0.1613 -0.2466,0.9777 -0.5158,1.9629 -0.7645,2.9411 -0.01,0.04 -0,0.09 -0.014,0.13 -0.022,0.09 -0.046,0.183 -0.069,0.277 -0.063,0.251 -0.1319,0.512 -0.2022,0.761 -0.034,0.123 -0.046,0.273 -0.127,0.408 -0.1427,0.236 -0.3531,0.296 -0.5282,0.296 -0.3342,0 -0.6013,-0.3 -0.6013,-0.623 0,-0.132 0.3754,-1.467 0.4641,-1.8216 C 3.9478,9.19 4.0614,8.6914 4.1954,8.2015 4.3718,7.5537 4.5178,6.9036 4.714,6.2872 H 6.6571 L 8.0007,7.5419 M 1.6104,12.381 6.3151,11.998 7.783,10.406 11.018,9.624 11.09,9.9361 7.9513,10.696 6.4655,12.307 1.6355,12.7 1.6106,12.381 M 5.8914,-6.8857e-5 c 0.5083,0 0.9041,0.436918857 0.9041,0.921428857 0,0.47254 -0.3806,0.93004 -0.8824,0.93004 -0.5645,0 -0.8998,-0.4618 -0.8998,-0.94306 0,-0.46718 0.3374,-0.908408857 0.8781,-0.908408857" style="fill:#ffffff;fill-opacity:1;fill-rule:nonzero;stroke:none;stroke-width:0.3956487" id="path8474" /></svg>