<?xml version="1.0" encoding="UTF-8" standalone="no"?><svg xmlns:dc="http://purl.org/dc/elements/1.1/" xmlns:cc="http://creativecommons.org/ns#" xmlns:rdf="http://www.w3.org/1999/02/22-rdf-syntax-ns#" xmlns:svg="http://www.w3.org/2000/svg" xmlns="http://www.w3.org/2000/svg" width="48" height="48" viewBox="0 0 12.7 12.7" version="1.1" id="svg3114"><defs id="defs3108"><clipPath clipPathUnits="userSpaceOnUse" id="clipPath8507"><path d="M 0,253.696 156.72,253.696 156.72,0.06 0,0.06 0,253.696 z" id="path8509-3" /></clipPath></defs><path d="m 7.7135,3.1763 -1.8004,0.9963 0.048,2.002 c -0.01,0.01 -1.7848,0.1023 -1.7848,0.1023 L 4.16,6.1346 4.1382,6.1135 H 3.5806 C 3.4337,6.1136 3.1772,5.7867 3.0994,5.7158 2.9671,5.5951 2.8382,5.4847 2.7224,5.3261 2.6582,5.2386 2.6496,5.1438 2.6496,5.0631 c 0,-0.09 0.1772,-0.7782 0.2044,-0.8842 0.031,-0.1177 0.07,-0.2333 0.096,-0.3501 0.022,-0.099 0.039,-0.2398 0.1146,-0.3361 0.033,-0.042 0.083,-0.082 0.1312,-0.1156 0.039,-0.027 0.2376,-0.1428 0.3222,-0.1427 h 0.4339 c 0.037,-0.021 0.059,-0.075 0.059,-0.097 0,-0.031 -0.036,-0.059 -0.06,-0.09 H 3.4716 c -0.08,2e-4 -0.2782,0.1325 -0.3394,0.1325 -0.095,0 -0.1168,-0.086 -0.1168,-0.1323 0,-0.032 -0.011,-0.059 0.027,-0.083 0.077,-0.051 0.3144,-0.1738 0.437,-0.1738 h 1.033 c 0.019,0 0.1223,-0.078 0.1865,-0.099 0.086,-0.028 0.2016,-0.049 0.293,-0.049 0.287,0 0.6527,0.185 0.802,0.5285 0,0 0.7812,-0.4491 1.3806,-0.8101 C 7.3983,2.2322 7.688,2.3011 7.8209,2.5055 7.9232,2.6629 7.9925,2.9998 7.7135,3.1763 M 7.3774,6.6456 c 0.096,0.684 0.2768,1.7737 0.2768,1.7737 0.039,0.2517 -0.025,0.4778 -0.2943,0.5833 -0.2381,0.094 -0.7093,0.01 -0.7506,-0.3046 0,0 -0.084,-0.4681 -0.1681,-1.2724 0,0 -1.3065,0.039 -1.3084,0.036 -0.01,0.044 -0.9608,3.6924 -1.0338,3.8134 -0.1284,0.212 -0.3174,0.267 -0.4751,0.267 -0.3005,0 -0.5408,-0.271 -0.5408,-0.561 0,-0.119 0.9609,-3.9492 1.1374,-4.5037 0,0 1.5605,-0.072 2.6165,-0.108 0.2366,-0.01 0.5074,0.042 0.5404,0.2763 M 2.426,12.454 7.6929,9.3885 9.0418,1.5364 10.032,1.171e-5 10.274,0.15606 9.3168,1.6415 7.9566,9.5649 2.5765,12.7 2.426,12.454 M 4.8451,0.76798 c 0.4572,0 0.8133,0.39302 0.8133,0.82872 0,0.4251 -0.3425,0.8366 -0.7938,0.8366 -0.5078,0 -0.8093,-0.4154 -0.8093,-0.8482 0,-0.4202 0.3034,-0.81712 0.7898,-0.81712" style="fill:#ffffff;fill-opacity:1;fill-rule:nonzero;stroke:none;stroke-width:0.3582276" id="path8521-9" /></svg>