<?xml version="1.0" encoding="UTF-8" standalone="no"?><svg xmlns:dc="http://purl.org/dc/elements/1.1/" xmlns:cc="http://creativecommons.org/ns#" xmlns:rdf="http://www.w3.org/1999/02/22-rdf-syntax-ns#" xmlns:svg="http://www.w3.org/2000/svg" xmlns="http://www.w3.org/2000/svg" width="48" height="48" viewBox="0 0 12.7 12.7" version="1.1" id="svg31309"><defs id="defs31303" /><path d="M 11.234,9.35 10.671,6.8444 v 0 L 9.6575,2.1994 C 9.6012,1.946 9.376,1.7771 9.1225,1.7771 H 7.546 c -0.3096,0 -0.5631,0.2534 -0.5631,0.563 0,0.3097 0.2535,0.5631 0.5631,0.5631 H 8.672 L 9.5729,6.929 7.9118,10.448 H 4.6745 C 4.5338,9.0685 3.3795,8.0268 1.9719,8.0268 c -0.2252,0 -0.4223,0.1971 -0.4223,0.4224 0,0.2252 0.1971,0.4221 0.4223,0.4221 0.9571,0 1.7454,0.7039 1.858,1.6047 H 3.2386 C 3.0136,9.8285 2.394,9.3781 1.6622,9.3781 c -0.90087,0 -1.66097,0.7319 -1.66097,1.6609 0,0.929 0.73195,1.661 1.66097,1.661 0.7318,0 1.3514,-0.45 1.5764,-1.098 l 4.983,-0.03 c 0.2252,0 0.3941,-0.113 0.5067,-0.31 L 9.9388,8.7024 10.136,9.6315 C 9.6855,9.9131 9.3757,10.448 9.3757,11.039 c 0,0.901 0.7323,1.661 1.6613,1.661 0.929,0 1.661,-0.732 1.661,-1.661 0.03,-0.901 -0.619,-1.6046 -1.464,-1.689 z m -9.5436,2.477 c -0.4505,0 -0.81646,-0.366 -0.81646,-0.816 0,-0.451 0.36596,-0.816 0.81646,-0.816 0.2533,0 0.4504,0.112 0.6193,0.281 H 1.9719 c -0.3097,0 -0.5631,0.253 -0.5631,0.563 0,0.31 0.2534,0.563 0.5631,0.563 v 0 h 0.3378 c -0.1408,0.113 -0.366,0.225 -0.6193,0.225 z m 9.3746,0 c -0.45,0 -0.816,-0.366 -0.816,-0.816 0,-0.169 0.06,-0.338 0.14,-0.451 l 0.06,0.282 c 0.06,0.253 0.281,0.422 0.535,0.422 0.03,0 0.08,0 0.112,0 0.31,-0.06 0.479,-0.366 0.423,-0.647 l -0.06,-0.31 c 0.253,0.141 0.45,0.422 0.45,0.732 -0.03,0.422 -0.393,0.788 -0.844,0.788 z M 5.5138,0.63507 3.529,5.9991 H 2.2713 L 0.28659,0.63507 H 1.4331 L 2.8446,4.8612 4.2562,0.63507 Z" style="fill:#ffffff;fill-opacity:1;stroke-width:0.02208" id="path2" /></svg>