<?xml version="1.0" encoding="UTF-8" standalone="no"?><svg xmlns:dc="http://purl.org/dc/elements/1.1/" xmlns:cc="http://creativecommons.org/ns#" xmlns:rdf="http://www.w3.org/1999/02/22-rdf-syntax-ns#" xmlns:svg="http://www.w3.org/2000/svg" xmlns="http://www.w3.org/2000/svg" width="48" height="48" viewBox="0 0 48 48.000001" id="svg69016" version="1.1"><defs id="defs69018" /><path id="path17096" style="display:inline;fill:#ffffff;fill-opacity:1;fill-rule:evenodd;stroke:none" d="m 28.10412,23.447 6.58066,5.554 c -0.24068,0.106 -1.0511,-0.211 -1.43835,-0.388 -0.75403,-0.342 -2.53505,-1.338 -2.89508,-1.574 -0.72102,-0.471 -1.15442,-0.851 -1.99648,-0.415 -0.84534,0.426 -4.12656,1.295 -4.93132,1.446 -0.80353,0.152 -1.55329,-0.261 -1.77192,-0.507 -0.20104,-0.253 -0.554,-1 -0.554,-1 0.57299,-0.181 4.04804,-1.452 4.42239,-1.701 0.37246,-0.248 0.44112,-0.488 1.06092,-0.547 0.62139,-0.06 0.54215,0.04 0.95021,-0.144 0.3513,-0.161 0.37287,-0.34 0.57297,-0.724 m 7.99307,4.836 -7.30141,-5.934 c 0.16349,-0.445 0.2836,-0.912 0.1213,-1.089 l -0.48319,-0.504 0.79253,-1.645 c 0.25564,-0.498 0.42219,-0.751 0.18004,-1.095 l -0.56227,-0.678 c -0.28444,-0.346 -0.47185,0 -0.76755,0.489 l -2.09463,3.576 c 0,0 -0.41259,0.349 -1.33332,0.528 -0.91857,0.188 -3.3521,0.01 -3.80896,-0.02 -0.45763,-0.03 -0.69871,-0.372 -1.02946,-0.748 l -0.80696,-1.034 -0.62468,-1.935 c -0.1458,-0.467 -1.86971,-0.484 -2.14357,-0.515 -2.12208,-0.161 -2.75764,-0.794 -2.75764,-0.794 -0.18707,0.346 -1.14611,1.711 -0.90267,5.309 0.0532,0.682 0.45294,1.81 0.45294,1.81 0,0 -0.87053,-0.407 -1.61362,-1.608 -0.8478,-1.751 -1.01511,-2.573 -1.524256,-2.569 -0.615018,0 -1.194536,-0.211 -1.349294,0.816 -0.03474,0.295 -0.03925,4.245 0.512114,5.05 l -7.847656,7.255 c -1.0218877,0 -1.191738,0.25 -1.2010804,0.926 -0.0349882,0.653 0.1492894,0.837 1.2220544,0.88 0.14536,0 1.403231,0.05 3.031054,0 0.01792,-0.638 0.125529,-1.245 0.304369,-1.807 H 3.498521 l 6.673969,-5.935 c 1.30973,1.36 4.27375,4.144 6.28787,5.977 h -1.1463 c 0.18929,0.56 0.28405,1.162 0.28423,1.795 l 2.85053,0.02 h 1.00384 l 16.13902,0.06 c 0.39514,-2.219 2.36524,-3.903 4.69864,-3.901 2.35501,0 4.29549,1.705 4.69976,3.934 l 2.47823,0.01 c 0.45549,0.03 0.52839,-0.282 0.52127,-0.498 L 48,33.579 c -0.009,-0.398 -0.32149,-0.336 -0.75106,-0.34 -0.4516,0 -0.3348,-3.003 -2.9187,-4.208 -3.27227,-1.517 -4.62997,-1.455 -5.20056,-1.089 l 1.1872,-2.163 c 0,0 -0.15175,-0.394 -0.61664,-0.37 -0.80967,0.04 -1.4515,0.277 -2.88681,1.974 z M 20.78432,11.485 c -0.76376,-2.283 -3.19585,-3.53 -5.39673,-2.774 -2.2066,0.746 -3.36521,3.209 -2.58156,5.485 0.78401,2.287 3.19366,3.531 5.40027,2.785 2.20276,-0.748 3.36196,-3.208 2.57802,-5.496 M 14.55397,34.79 c 0.0158,-2.551 -2.0537,-4.628 -4.613741,-4.641 -2.536983,0 -4.62834,2.054 -4.639528,4.614 0.0046,2.546 2.05157,4.628 4.613508,4.64 2.558661,0 4.629361,-2.054 4.639761,-4.613 m 29.46671,0.991 c 0.0174,-2.08 -1.65175,-3.758 -3.72226,-3.767 -2.08803,0 -3.75561,1.659 -3.77246,3.741 -0.002,2.065 1.6665,3.744 3.73644,3.756 2.06818,0 3.75616,-1.662 3.75828,-3.73" /></svg>