<?xml version="1.0" encoding="UTF-8" standalone="no"?><svg xmlns:dc="http://purl.org/dc/elements/1.1/" xmlns:cc="http://creativecommons.org/ns#" xmlns:rdf="http://www.w3.org/1999/02/22-rdf-syntax-ns#" xmlns:svg="http://www.w3.org/2000/svg" xmlns="http://www.w3.org/2000/svg" height="48" width="48" xml:space="preserve" viewBox="0 0 48 48" y="0px" x="0px" id="Capa_1" version="1.1"><defs id="defs43" /><path d="M 25.584084,40.520142 C 26.059239,40.811366 31.170985,43.884544 32.627104,45.218043 34.159862,46.612853 33.883965,47.999998 33.883965,47.999998 L 25.269869,45.218043 H 22.717828 L 14.119059,47.999998 C 14.119059,47.999998 13.843162,46.612853 15.368256,45.218043 16.770729,43.938191 21.606579,41.010624 22.342302,40.558461 L 21.867147,31.453882 C 21.782846,30.388616 20.916838,30.373288 19.935873,30.511236 L 2.8839472,32.871683 C 2.8839472,32.871683 2.0409306,29.683547 5.7961862,27.736945 7.6048399,26.7943 14.394955,23.721121 17.445142,22.203691 20.296071,20.770563 21.162079,19.781935 21.261708,18.609375 21.12376,15.459559 21.054786,12.800225 21.054786,11.244476 21.054786,8.0640045 21.338346,2.1935437 23.71412,0.04768338 24.074318,-0.05960964 24.189275,0.04768338 24.189275,0.04768338 26.565049,2.1935437 26.848609,8.0640045 26.848609,11.244476 26.848609,12.761906 26.779635,15.336938 26.64935,18.371798 26.64935,19.65165 27.507695,20.670934 30.557882,22.203691 33.608069,23.721121 40.382857,26.7943 42.206838,27.736945 45.946766,29.683547 45.119077,32.871683 45.119077,32.871683 L 28.059487,30.511236 C 27.139833,30.388616 26.227842,30.403943 26.059239,31.315934 L 25.584084,40.520142" style="fill:#ffffff;fill-opacity:1;fill-rule:nonzero;stroke:none;stroke-width:7.6637869" id="path14061" /></svg>