<?xml version="1.0" encoding="UTF-8" standalone="no"?><svg xmlns:dc="http://purl.org/dc/elements/1.1/" xmlns:cc="http://creativecommons.org/ns#" xmlns:rdf="http://www.w3.org/1999/02/22-rdf-syntax-ns#" xmlns:svg="http://www.w3.org/2000/svg" xmlns="http://www.w3.org/2000/svg" width="48" height="48" viewBox="0 0 48 48.000001" id="svg69809" version="1.1"><defs id="defs69811" /><path d="M 15.452,28.204 0,33.097 v 7.896 c 0,0 0.62853,3.004 2.1935,4.45 C 4.3612,47.445 7.2256,48 7.2256,48 L 45.06,47.889 c 0,0 0.974,-0.557 1.47,-0.779 C 47.045,46.887 48,46.109 48,46.109 L 34.237,38.436 H 15.452 Z m 17.818,-8.017 0.271,5.393 c 0.144,2.62 4.062,2.412 3.929,-0.196 l -0.126,-2.475 c -0.586,0.04 -1.237,-0.175 -1.836,-0.793 z M 30.946,11.69 c -0.633,-0.03 -1.265,0.27 -2.064,0.93 -1.331,0.961 -3.105,3.006 -6.094,5.768 v 0.12 c -0.464,0.36 -1.63,1.561 -1.63,1.561 0,0 1.062,1.321 1.608,1.802 0.837,0.841 2.184,1.081 3.309,0 l 5.217,-3.965 4.281,3.606 c 2.217,2.283 5.122,-0.722 2.905,-3.004 -2.782,-2.883 -4.194,-4.565 -5.472,-5.767 -0.795,-0.661 -1.428,-1.021 -2.06,-1.051 z m 13.34,-3.4745 c -1.252,0.045 -1.944,1.4085 -2.362,2.1245 -0.898,1.527 -1.342,4.27 -1.733,7.446 -0.392,3.165 -2.454,9.731 -3.517,11.824 -1.081,2.102 -1.606,3.354 -1.606,3.354 l 6.711,-3.425 c 0,0 5.238,-11.476 5.599,-12.446 0.35,-0.957 1.639,-5.658 -1.011,-7.9379 -0.829,-0.709 -1.512,-0.9603 -2.081,-0.9396 z m -30.758,-6.04 c -1.949,0 -3.528,1.5687 -3.528,3.507 0,1.9384 1.579,3.5049 3.528,3.5049 1.927,0 3.506,-1.5665 3.506,-3.5049 0,-1.9383 -1.579,-3.507 -3.506,-3.507 z M 32.704,0.00167 c -0.21,0.01 -0.434,0.066 -0.666,0.1806 L 19.623,6.3083 c -0.515,0.217 -1.033,0.485 -1.497,0.8665 -0.671,0.5156 -2.021,1.6807 -2.98,2.7845 -0.268,0.2777 -0.812,0.9547 -0.867,1.0317 -0.247,0.299 -0.392,0.648 -0.37,1.09 l 0.454,9.209 c 0,0.145 0.392,0.953 0.505,1.052 l 5.825,5.341 v 0 c 1.506,1.372 3.6,-0.906 2.073,-2.288 l -5.339,-4.898 -0.05,-4.249 3.226,3.198 5.437,-5.251 c 0,0 -1.765,-4.175 -2.364,-5.0098 C 23.459,8.8764 23.345,8.6273 23.334,8.3811 L 33.407,2.956 c 1.615,-0.8028 0.777,-3.02543 -0.703,-2.95433 z" style="fill:#ffffff;fill-opacity:1;fill-rule:evenodd;stroke:none;stroke-width:1.18123" id="path43847" /></svg>