<?xml version="1.0" encoding="UTF-8" standalone="no"?><svg xmlns:dc="http://purl.org/dc/elements/1.1/" xmlns:cc="http://creativecommons.org/ns#" xmlns:rdf="http://www.w3.org/1999/02/22-rdf-syntax-ns#" xmlns:svg="http://www.w3.org/2000/svg" xmlns="http://www.w3.org/2000/svg" id="svg31309" version="1.1" viewBox="0 0 12.7 12.7" height="48" width="48"><defs id="defs31303" /><path d="M 7.5086728,12.52084 H 4.5872527 C 4.2679214,12.52084 4.0094448,12.260948 4.0094448,11.941164 V 11.311502 C 4.0094448,10.992171 4.2679214,10.732335 4.5872527,10.732335 H 5.6963926 C 5.6250653,10.149376 5.4169141,8.4113668 5.2329915,6.5952929 H 0.5778645 C 0.2580804,6.5952929 0,6.3354589 0,6.0161269 V 4.4678719 C 0,4.1471809 0.2580804,3.8868929 0.5778645,3.8868929 H 1.5562377 V 3.1817149 C 1.5562377,3.0202669 1.6869478,2.8913109 1.8466418,2.8913109 H 2.0855317 C 2.2451691,2.8913109 2.3741243,3.0202669 2.3741243,3.1817149 V 3.8868929 H 4.9876481 C 4.9341526,3.1881689 4.9034705,2.5796219 4.9034705,2.1505259 4.9034705,0.00521489 6.332338,0.18273989 6.332338,0.18273989 6.332338,0.18273989 7.762281,0.00521489 7.762281,2.1505259 7.762281,2.5796219 7.7315423,3.1881689 7.676575,3.8868929 H 10.323894 V 3.1817149 C 10.323894,3.0202669 10.453019,2.8913109 10.612713,2.8913109 H 10.851603 C 11.011694,2.8913109 11.142007,3.0202669 11.142007,3.1817149 V 3.8868929 H 12.118852 C 12.441467,3.8868929 12.7,4.1471809 12.7,4.4678719 V 6.0161269 C 12.7,6.3354589 12.441467,6.5952929 12.118852,6.5952929 H 7.4327601 C 7.2488375,8.4113668 7.0424411,10.149376 6.9715667,10.732335 H 8.1044824 C 8.4225117,10.732335 8.6837055,10.992171 8.6837055,11.311502 V 11.941164 C 8.6837055,12.260948 8.4242665,12.52084 8.1062938,12.52084 Z" style="fill:#ffffff;fill-rule:evenodd;stroke-width:1.4977794;fill-opacity:1" id="path25467" /></svg>