<?xml version="1.0" encoding="UTF-8" standalone="no"?><svg xmlns:dc="http://purl.org/dc/elements/1.1/" xmlns:cc="http://creativecommons.org/ns#" xmlns:rdf="http://www.w3.org/1999/02/22-rdf-syntax-ns#" xmlns:svg="http://www.w3.org/2000/svg" xmlns="http://www.w3.org/2000/svg" xml:space="preserve" style="enable-background:new 0 0 412.642 412.642;" viewBox="0 0 412.642 412.642" height="412.642px" width="412.642px" y="0px" x="0px" id="Capa_1" version="1.1"><defs id="defs49" /><path d="m 159.64,306.96 c 34.33,0 98.98,0 133.31,0 20.97,0 41.94,0 62.91,0 7.3,0 14.64,0.17 21.93,-0.17 3.11,-0.14 8.45,-0.51 9.81,-2.74 1.4,-2.33 1.12,-10.91 1.12,-13.9 0,-16.24 23.91,-15.95 23.91,0.3 0,13.19 0.82,27.52 -11.97,35.48 -10.43,6.48 -23.14,6.22 -34.98,6.22 -20.62,0 -41.24,0 -61.86,0 -37.95,0 -106.23,0 -144.18,0 -16.24,0 -16.24,-25.19 0,-25.19 z m -94.826,-155.35 92.446,5.56 c 14.98,-19.22 38.46,-21.2 64.73,-21.2 h 1.34 c -0.54,-1.13 -0.85,-2.39 -0.85,-3.72 0,-4.75 3.85,-8.6 8.6,-8.6 h 4.94 V 87.861 c 0,-4.07 3.3,-7.368 7.37,-7.368 4.07,0 7.37,3.297 7.37,7.368 v 35.789 h 5.85 c 4.75,0 8.6,3.85 8.6,8.6 0,1.34 -0.31,2.59 -0.85,3.72 h 19.32 c 44.98,0 85.99,25.86 100.48,68.43 15.51,45.58 4.91,88.41 -40.07,88.41 h -122.1 c -38.39,0 -53.27,-33.23 -79.47,-58.64 -11.36,-11.02 -53.274,-39.73 -77.127,-42.96 3.201,-5.71 5.031,-12.29 5.031,-19.29 0,-7.42 -2.051,-14.37 -5.61,-20.31 z m 221.926,90.83 h 47.6 c 23.69,0 35.95,-20.79 25.27,-45.2 -9.5,-21.7 -35.17,-40.07 -58.86,-40.07 h -14.01 c -23.69,0 -43.08,19.18 -43.08,42.63 0,23.45 19.39,42.64 43.08,42.64 z m -254.251,-103 c 17.944,0 32.486,14.53 32.486,32.48 0,17.95 -14.542,32.48 -32.486,32.48 C 14.539,204.4 6e-4,189.87 6e-4,171.92 -4e-4,153.97 14.538,139.44 32.489,139.44 Z m 0,46.6 c 7.801,0 14.121,-6.32 14.121,-14.12 0,-7.81 -6.32,-14.12 -14.121,-14.12 -7.801,0 -14.126,6.31 -14.126,14.12 0,7.8 6.325,14.12 14.126,14.12 z m 326.431,-77.62 -91.94,-3.35 c -2.89,0 -6.29,-0.43 -7.58,-2.78 -1.35,-2.462 -1.18,-8.687 0,-11.234 1.13,-2.433 4.69,-2.781 7.58,-2.781 l 91.94,-3.358 c 6.5,0 11.76,5.264 11.76,11.755 0,6.488 -5.26,11.748 -11.76,11.748 z m -138.31,-3.35 -91.94,3.35 c -6.49,0 -11.75,-5.26 -11.75,-11.749 0,-6.491 5.26,-11.755 11.75,-11.755 l 91.94,3.358 c 2.89,0 6.46,0.35 7.59,2.781 1.18,2.548 1.35,8.771 0,11.235 -1.29,2.35 -4.7,2.78 -7.59,2.78 z" style="fill:#ffffff;fill-opacity:1" id="path10" /></svg>