<?xml version="1.0" encoding="UTF-8" standalone="no"?><svg xmlns:dc="http://purl.org/dc/elements/1.1/" xmlns:cc="http://creativecommons.org/ns#" xmlns:rdf="http://www.w3.org/1999/02/22-rdf-syntax-ns#" xmlns:svg="http://www.w3.org/2000/svg" xmlns="http://www.w3.org/2000/svg" width="48" height="48" viewBox="0 0 12.7 12.7" version="1.1" id="svg6185"><defs id="defs6179" /><path d="M 8.263332,10.8853 H 7.716979 c -0.958371,0 -2.048961,-0.6691 -2.541367,-1.162 C 4.857212,9.4054 4.608633,9.0653 4.402891,8.6316 4.251092,8.3122 3.988762,7.6257 3.988762,7.1825 V 6.6356 c 0,-1.1329 0.67064,-2.1241 1.248203,-2.7027 C 5.851546,3.3194 6.840592,2.809 8.064474,2.809 h 0.05024 c 1.128677,0 2.145226,0.5669 2.714846,1.1366 0.3512,0.3512 0.58179,0.6352 0.81398,1.1001 0.16238,0.3258 0.42206,1.0398 0.42206,1.5153 v 0.5966 c 0,0.503 -0.25016,1.0927 -0.40513,1.4582 -0.16449,0.3866 -0.50457,0.8325 -0.78119,1.1075 -0.53049,0.5283 -1.577702,1.162 -2.615943,1.162 z M 0.534489,0.5469 c 0,-0.058 0.01698,-0.075 0.07457,-0.075 h 7.132235 c 0.05765,0 0.07458,0.017 0.07458,0.075 V 1.4412 H 0.534487 Z M 8.288158,12.252 v -0.4723 h -0.09943 -0.37287 v 0.3734 c 0,0.057 -0.01693,0.075 -0.07458,0.075 H 0.609043 c -0.05765,0 -0.07458,-0.018 -0.07458,-0.075 V 3.8525 h 3.553162 c 0.03332,0 0.601884,-0.6241 0.690212,-0.7024 C 5.014787,2.9359 5.29986,2.7497 5.578063,2.5837 6.014935,2.3256 6.983881,1.9389 7.666694,1.9389 H 8.313539 V 0.5722 C 8.313539,0.2761 8.102508,0 7.815841,0 H 0.633357 c -0.30888,0 -0.57121,0.1761 -0.57121,0.4723 v 11.73 c 0,0.3051 0.269737,0.4977 0.595535,0.4977 h 7.107909 c 0.266037,0 0.517268,-0.1947 0.522558,-0.448 z M 4.262165,11.7797 c 0.259688,0 0.596066,-0.3406 0.596066,-0.621 v -0.099 c 0,-0.3215 -0.326863,-0.6468 -0.645786,-0.6468 h -0.09996 c -0.2634,0 -0.596076,0.3057 -0.596076,0.5966 v 0.1491 c 0,0.3396 0.305703,0.621 0.645796,0.621 z M 9.779146,8.4 c 0,0.257 0.240124,0.4977 0.497694,0.4977 h 0.0243 c 0.24382,0 0.49664,-0.228 0.49664,-0.4723 V 8.3011 c 0,-0.1984 -0.27556,-0.448 -0.47178,-0.448 h -0.0746 C 9.996521,7.8531 9.779141,8.1155 9.779141,8.4 Z M 5.628861,8.8474 h 0.94462 V 7.1333 L 7.5181,7.1073 V 6.4868 H 6.573481 V 5.4682 H 7.666718 V 4.8473 H 5.628861 V 8.8479 Z M 8.163352,5.8655 V 8.8474 H 9.05879 V 6.3378 c 0,-0.07 0.01004,-0.047 0.0492,-0.075 0.05607,-0.014 0.05766,-0.025 0.124292,-0.025 h 0.174537 c 0.134342,0 0.133812,0.047 0.268154,0.049 L 9.828886,5.6664 H 9.083665 c -0.429994,0 -0.611944,0.1269 -0.920289,0.1988 z M 3.416997,7.1576 c 0,1.2456 0.777491,2.3975 1.410584,3.038 0.6516,0.6595 1.8575,1.2815 3.162297,1.2863 1.318015,0.01 2.548242,-0.5908 3.199842,-1.2487 0.38505,-0.3888 0.7008,-0.7595 0.9589,-1.2779 0.19411,-0.3887 0.48923,-1.1673 0.48923,-1.7231 V 6.5113 c 0,-1.1324 -0.77008,-2.3748 -1.3471,-2.9518 C 10.71266,2.9814 9.450696,2.2367 8.313557,2.2367 H 7.765621 c -1.219123,0 -2.380587,0.7278 -3.000463,1.3482 -0.635212,0.6346 -1.34817,1.7543 -1.34817,3.0009 v 0.5718 z" id="path526-1" style="display:inline;fill:#ffffff;fill-rule:evenodd;stroke-width:0.4995052;fill-opacity:1" /></svg>