<?xml version="1.0" encoding="UTF-8" standalone="no"?><svg xmlns:dc="http://purl.org/dc/elements/1.1/" xmlns:cc="http://creativecommons.org/ns#" xmlns:rdf="http://www.w3.org/1999/02/22-rdf-syntax-ns#" xmlns:svg="http://www.w3.org/2000/svg" xmlns="http://www.w3.org/2000/svg" width="48" height="48" viewBox="0 0 48 48.000001" id="svg69016" version="1.1"><defs id="defs69018" /><path id="path38434" d="M 15.57448,0 5.197525,6.584 13.05495,11.563 H 12.7737 L 0.1994779,11.553 v 5.135 H 20.41628 v 1.488 H 0.1994779 v 1.41 H 20.41628 v 1.488 H 0.1994779 v 1.391 H 20.41628 v 1.496 H 0.1994779 V 37.186 H 46.72292 c -0.0494,0 -4.63086,-19.934 -4.63086,-19.934 -0.45611,-2.022 -1.54531,-3.715 -3.61524,-3.715 l -12.63281,-0.1 C 25.29885,12.563 25.00609,11.56 23.9651,11.56 h -5.87304 l 7.85742,-4.979 z m 0,1.42 8.14844,5.164 -7.85547,4.979 H 15.28151 L 7.42604,6.584 Z m 18.06836,14.664 h 3.52929 c 1.55606,0 1.83724,0.41 2.35352,2.801 l 1.4375,6.963 c 0.37066,1.517 0.63418,2.762 -0.92187,2.762 H 34.2737 c -1.34185,0 -1.96289,-0.37 -1.96289,-1.799 v -9.52 c 0,-0.953 0.18394,-1.304 1.33203,-1.207 z" style="fill:#ffffff;fill-opacity:1;fill-rule:nonzero;stroke:none;stroke-width:1.2034472" /><path d="m 10.16743,42.866 c 0,-2.83 2.3046,-5.135 5.12548,-5.135 2.83893,0 5.12428,2.305 5.12428,5.135 0,2.83 -2.28535,5.134 -5.12428,5.134 -2.82088,0 -5.12548,-2.304 -5.12548,-5.134" style="fill:#ffffff;fill-opacity:1;fill-rule:evenodd;stroke:none;stroke-width:1.2034472" id="path38438" /><path d="m 22.44981,42.866 c 0,-2.83 2.29497,-5.116 5.12428,-5.116 2.82088,0 5.12548,2.286 5.12548,5.116 0,2.83 -2.28655,5.134 -5.12548,5.134 -2.82931,0 -5.12428,-2.304 -5.12428,-5.134" style="fill:#ffffff;fill-opacity:1;fill-rule:evenodd;stroke:none;stroke-width:1.2034472" id="path38442" /><path d="m 34.60472,38.51 h 12.39912 l 0.79668,3.422 c 0,1.04 -0.83639,1.886 -1.87617,1.886 l -11.31963,-0.02 z" style="fill:#ffffff;fill-opacity:1;fill-rule:evenodd;stroke:none;stroke-width:1.2034472" id="path38446" /><path d="M 0.2389878,38.51 H 8.446498 V 43.8 H 0.2774981 Z" style="fill:#ffffff;fill-opacity:1;fill-rule:evenodd;stroke:none;stroke-width:1.2034472" id="path38450" /></svg>