<?xml version="1.0" encoding="UTF-8" standalone="no"?><svg xmlns:dc="http://purl.org/dc/elements/1.1/" xmlns:cc="http://creativecommons.org/ns#" xmlns:rdf="http://www.w3.org/1999/02/22-rdf-syntax-ns#" xmlns:svg="http://www.w3.org/2000/svg" xmlns="http://www.w3.org/2000/svg" version="1.1" id="Capa_1" x="0px" y="0px" viewBox="0 0 47.999999 47.999999" xml:space="preserve" width="48" height="48"><defs id="defs41" /><path id="path2" d="M 6.6717722,24.238977 C 7.6050029,21.744334 10.410853,14.260309 10.410853,14.260309 11.027109,12.61787 12.85682,11.784628 14.499846,12.400689 L 17.163776,13.398918 21.396155,14.156019 25.790588,9.9384968 C 26.142065,9.5983582 26.608778,9.4747159 27.060243,9.523 L 31.423595,0.58048406 C 31.613408,0.18600154 32.08794,0.0210148 32.487799,0.21395546 32.883063,0.40689611 33.047854,0.88377426 32.854914,1.278941 L 28.361273,10.487508 C 28.600543,11.074149 28.482276,11.771238 27.996797,12.236582 L 27.079009,13.116544 21.25316,25.058144 22.666201,29.540251 24.670184,28.168652 C 25.3704,27.689526 25.846496,26.948063 25.989784,26.112475 L 27.536437,17.13878 C 27.593811,16.801965 27.707484,16.477562 27.869538,16.177986 L 30.875562,10.623074 33.542717,0.92678028 C 33.693824,0.37982187 34.191424,4.9488e-7 34.75969,4.9488e-7 H 40.305023 C 41.000743,4.9488e-7 41.565784,0.56494324 41.565784,1.2612498 V 46.539847 C 41.565784,47.236252 41.000743,47.800901 40.305121,47.800901 H 13.899716 C 13.448251,47.800901 13.028062,47.55821 12.804235,47.16451 12.580115,46.771591 12.583243,46.287676 12.813619,45.897982 L 17.344694,38.228347 C 17.444292,38.060233 17.526785,37.88293 17.593543,37.700155 L 19.359526,32.815746 C 18.853814,32.527117 18.449167,32.06099 18.259354,31.46262 L 18.209799,31.300956 10.280173,47.552639 C 10.143531,47.83599 9.8603755,48 9.5647091,48 9.4479087,48 9.3280782,47.974391 9.2159694,47.919168 8.8208027,47.726227 8.6559137,47.249349 8.8488543,46.854182 L 12.831994,38.690369 C 12.801206,38.691932 12.771492,38.706007 12.738651,38.706007 12.558221,38.706007 12.371536,38.685091 12.187979,38.6414 10.902685,38.33811 10.107465,37.050471 10.41095,35.765959 L 11.752152,30.090337 7.4701203,27.502743 C 6.6296458,26.993903 6.1029198,25.759826 6.6717722,24.238977 Z M 23.746238,16.316485 23.017873,17.016702 C 22.719176,17.304549 22.320784,17.460934 21.913009,17.460934 21.819666,17.460934 21.726324,17.452333 21.632981,17.435913 L 16.379698,16.495254 14.374249,21.847353 17.770747,21.146355 C 18.972081,20.898973 20.164032,21.599971 20.532711,22.769246 L 20.559296,22.85086 Z M 17.512711,29.09289 16.622584,26.264169 15.161552,26.565993 15.713788,26.900463 C 16.603818,27.437256 17.042772,28.485333 16.804578,29.495095 L 16.323887,31.534362 Z" style="stroke-width:0.097741;fill:#ffffff;fill-opacity:1" /><path id="path4" d="M 16.465612,11.917556 C 14.490951,11.917556 12.889759,10.316559 12.889759,8.3411163 12.889759,6.3664557 14.490951,4.7654587 16.465612,4.7654587 18.439882,4.7654587 20.042736,6.3664557 20.042736,8.3411163 20.042638,10.316559 18.439882,11.917556 16.465612,11.917556 Z" style="stroke-width:0.09774096" /></svg>