<?xml version="1.0" encoding="UTF-8" standalone="no"?><svg xmlns:dc="http://purl.org/dc/elements/1.1/" xmlns:cc="http://creativecommons.org/ns#" xmlns:rdf="http://www.w3.org/1999/02/22-rdf-syntax-ns#" xmlns:svg="http://www.w3.org/2000/svg" xmlns="http://www.w3.org/2000/svg" xmlns:sodipodi="http://sodipodi.sourceforge.net/DTD/sodipodi-0.dtd" xmlns:inkscape="http://www.inkscape.org/namespaces/inkscape" width="48" height="48" viewBox="0 0 48 48.000001" id="svg69016" version="1.1" sodipodi:docname="200.svg" inkscape:version="0.92.3 (2405546, 2018-03-11)"><sodipodi:namedview pagecolor="#ffffff" bordercolor="#666666" borderopacity="1" objecttolerance="10" gridtolerance="10" guidetolerance="10" inkscape:pageopacity="0" inkscape:pageshadow="2" inkscape:window-width="2071" inkscape:window-height="785" id="namedview9" showgrid="false" inkscape:zoom="4.9167" inkscape:cx="-29.694" inkscape:cy="22.373" inkscape:window-x="666" inkscape:window-y="400" inkscape:window-maximized="0" inkscape:current-layer="svg69016" /><defs id="defs69018" /><path id="path43442" style="fill:#ffffff;fill-opacity:1;fill-rule:evenodd;stroke:none;stroke-width:0.66728" d="m 39.243,7.8332 c 0.392,-0.4004 1.022,-1.7349 0.637,-2.0686 -0.415,-0.4003 -1.652,0.267 -2,0.6673 L 32.548,11.77 c -0.392,0.334 -1.8,-1.067 -1.407,-1.468 L 36.473,5.0306 C 36.82,4.6303 37.451,3.2957 37.065,2.8953 36.673,2.5617 35.45,3.229 35.023,3.6293 l -5.288,5.2716 c -0.394,0.4003 -1.8,-1.001 -1.407,-1.4013 l 5.286,-5.2715 c 0.393,-0.4004 1.023,-1.73497 0.638,-2.13534 -0.393,-0.40037 -1.615,0.33364 -2,0.73401 L 26.158,6.899 c -0.615,0.6673 -0.704,3.27 -0.63,5.005 L 23.543,13.839 10.199,0.49313 C 9.6065,1.027 9.3252,1.4273 8.9778,2.1613 8.6589,2.6284 8.5553,3.0288 8.3849,3.5626 8.1622,4.2299 8.1255,4.6303 8.0889,5.3643 c 0,0.6005 0,0.9342 0.1109,1.5347 0.1475,0.734 0.3106,1.2011 0.6662,1.8684 0.3849,0.8007 0.7039,1.2676 1.37,1.8686 l 6.984,7.006 2.421,-2.469 1.295,1.335 -12.3807,12.411 c -0.7405,0.668 -0.7405,1.869 0,2.536 0.6956,0.734 1.9037,0.734 2.6427,0 L 23.543,19.11 35.97,31.522 c 0.703,0.667 1.866,0.667 2.606,-0.07 0.712,-0.667 0.712,-1.802 0,-2.536 L 26.158,16.508 28.134,14.506 c 1.378,0.07 4.444,-0.07 5.058,-0.601 z M 2.8625,33.706 C 16.355,32.902 23.762,32.902 33.74,37.349 36.921,34.527 40.27,33.342 45.148,33.342 V 29.239 H 48 V 48 H 45.148 V 42.857 H 2.8625 V 48 H 0 V 29.239 h 2.8625 z" /></svg>