<?xml version="1.0" encoding="UTF-8" standalone="no"?><svg xmlns:dc="http://purl.org/dc/elements/1.1/" xmlns:cc="http://creativecommons.org/ns#" xmlns:rdf="http://www.w3.org/1999/02/22-rdf-syntax-ns#" xmlns:svg="http://www.w3.org/2000/svg" xmlns="http://www.w3.org/2000/svg" width="40" height="40" viewBox="0 0 10.58333 10.58333" version="1.1" id="svg3193"><defs id="defs3187" /><path d="m 4.5664,4.47 c 0,0 -0.3901,-0.78 -0.2527,-1.48 C 4.4504,2.3 4.7342,1.8 5.0293,1.52 5.3249,1.23 5.5467,1.03 5.6828,1.32 5.8208,1.6 6.0388,1.94 6.1471,2.05 6.4396,2.36 6.4725,2.9 6.4521,3.15 6.4311,3.4 6.1793,4.09 6.1793,4.09 c 0,0 0.4838,-0.54 0.8329,-0.64 0.2182,-0.1 0.7762,-0.13 1.2081,0 0.1861,0 0.3211,0 0.4066,0 0.1349,0 0.2038,0.1 0.2292,0.19 0.019,0.1 -0.074,0.18 -0.1109,0.31 C 8.6612,4.26 8.3614,4.8 7.9282,5.16 7.4964,5.51 6.6327,5.56 6.6327,5.56 l 0.7587,0.15 c 0.347,0.1 0.6274,0.31 0.7273,0.45 0.1576,0.22 0.3548,0.81 0.463,0.97 0.1591,0.22 0.1951,0.33 0.1799,0.39 -0.032,0.13 -0.07,0.19 -0.4218,0.12 -0.2729,-0.1 -0.9947,0.1 -1.3812,0 C 6.4,7.54 5.8833,6.8 5.8833,6.8 c 0,0 0.2103,0.65 0.2743,0.79 0.064,0.13 0.221,0.65 -0.1159,0.97 C 5.9366,8.66 5.8182,8.67 5.7029,8.8 5.5884,8.93 5.5369,9.1 5.3458,9.11 5.1988,9.11 5.0285,8.87 4.9247,8.8 4.5763,8.58 4.323,8.29 4.2813,7.9 c -0.042,-0.39 0.169,-1 0.169,-1 0,0 -0.7085,0.56 -1.223,0.65 C 2.5531,7.65 2.2053,7.45 1.9735,7.37 1.8039,7.27 1.6994,7.1 1.5195,7.06 1.3409,7.06 1.1725,6.85 1.3206,6.72 1.4676,6.58 1.5107,6.54 1.5942,6.37 1.7102,6.13 1.8684,6 2.2895,5.79 2.456,5.69 2.8279,5.61 3.1855,5.61 c 0.2383,0 0.7069,0 0.7069,0 0,0 -1.2355,-0.23 -1.7928,-1.03 C 1.9489,4.37 1.8842,4.01 1.8153,3.63 1.7873,3.48 1.7095,3.36 1.6778,3.22 1.6478,3.09 1.8856,3.02 1.9932,3.07 c 0.2755,0.11 0.896,0 1.1392,0.1 0.325,0.1 0.7537,0.25 0.8967,0.61 0.1753,0.44 0.5371,0.73 0.5371,0.73 m 0.5832,1.1 C 5.0374,5.71 4.9797,5.91 4.7891,6.19 4.6877,6.34 4.8471,6.67 5.0664,6.72 5.3089,6.82 5.5067,6.62 5.4559,6.41 5.4139,6.2 5.3829,6.14 5.3465,6.01 5.3065,5.86 5.3295,5.52 5.1494,5.61 M 5.0584,5.39 C 5.0484,5.25 4.5562,5.12 4.4593,4.83 4.3833,4.61 4.027,4.63 3.9363,4.73 c -0.2007,0.25 -0.034,0.49 0.083,0.58 0.1786,0.15 0.2484,0.17 0.4225,0.17 0.2338,0 0.6244,0 0.6161,-0.11 M 5.5058,5.51 C 5.6594,5.61 6.4012,5.65 6.4734,5.17 6.5194,4.87 6.2183,4.72 6.0409,4.81 5.8344,4.91 5.7153,5.25 5.4557,5.3 c -0.2578,0 -0.1058,0.14 0.05,0.21 m 5.0753,-0.2 v 0.1 c 0,0.46 -0.07,0.92 -0.198,1.37 C 10.264,7.22 10.077,7.65 9.8372,8.04 9.6035,8.44 9.3148,8.81 8.9823,9.13 8.6537,9.45 8.2812,9.73 7.876,9.96 7.4738,10.18 7.0414,10.36 6.5924,10.47 6.1466,10.58 5.6829,10.64 5.2213,10.63 4.7596,10.63 4.2972,10.53 3.854,10.43 3.4082,10.31 2.9821,10.12 2.585,9.89 2.1878,9.65 1.8213,9.36 1.5015,9.03 1.1753,8.7 0.898,8.33 0.67511,7.92 0.44658,7.52 0.27432,7.09 0.16335,6.64 0.04564,6.19 -0.00897,5.73 6.2e-4,5.27 6.2e-4,4.81 0.07028,4.35 0.19937,3.9 0.32044,3.46 0.50547,3.03 0.74403,2.63 0.97651,2.23 1.2665,1.87 1.5991,1.55 1.9276,1.22 2.3006,0.94 2.7054,0.72 3.1068,0.49 3.5401,0.32 3.9878,0.21 4.436,0.09 4.897,0.04 5.36,0.05 c 0.4624,0 0.9226,0.1 1.366,0.2 0.4464,0.12 0.8751,0.3 1.269,0.54 0.399,0.23 0.765,0.52 1.0846,0.86 0.3251,0.32 0.6051,0.7 0.8273,1.1 0.2291,0.4 0.4011,0.84 0.5121,1.28 0.11,0.43 0.167,0.87 0.162,1.31" style="fill:#ffffff;fill-opacity:1;fill-rule:evenodd;stroke:none;stroke-width:0.16535" id="path14384" /></svg>