<?xml version="1.0" encoding="UTF-8" standalone="no"?><svg xmlns:dc="http://purl.org/dc/elements/1.1/" xmlns:cc="http://creativecommons.org/ns#" xmlns:rdf="http://www.w3.org/1999/02/22-rdf-syntax-ns#" xmlns:svg="http://www.w3.org/2000/svg" xmlns="http://www.w3.org/2000/svg" width="48" height="48" viewBox="0 0 48 48.000001" id="svg69016" version="1.1"><defs id="defs69018"><clipPath id="clipPath25293" clipPathUnits="userSpaceOnUse"><path id="path25295" d="M 1649.764,271.557 1658.267,271.557 1658.267,280.058 1649.764,280.058 1649.764,271.557 Z" /></clipPath><clipPath id="clipPath25271" clipPathUnits="userSpaceOnUse"><path id="path25273" d="M 0,0 1808.504,0 1808.504,765.354 0,765.354 0,0 Z" /></clipPath></defs><path id="path839" d="M 17.604 7.7754 L 31.445 21.713 L 31.445 37.471 L 23.924 37.471 L 23.924 40.193 L 41.379 40.193 L 41.379 37.471 L 34.15 37.471 L 34.15 21.713 L 48 7.7754 L 17.604 7.7754 z M 12.922 7.8086 C 12.328 7.83 11.776 8.0583 11.281 8.5156 C 10.403 9.1598 10.404 9.9502 10.404 10.857 L 10.404 26.932 L 10.404 27.369 L 12.248 27.369 L 12.248 37.969 L 12.248 38.406 C 12.335 39.313 12.98 40.018 13.799 40.018 C 14.737 40.106 15.206 39.579 15.645 38.672 L 15.645 37.881 L 15.645 11.006 L 15.645 10.273 C 15.499 9.219 15.028 8.4292 14.033 7.9902 C 13.649 7.8585 13.278 7.7957 12.922 7.8086 z M 2.8105 7.873 C 2.7227 7.873 2.2832 7.8713 2.2832 8.2812 L 2.2832 8.7207 L 2.2832 15.748 L 1.2598 15.748 L 1.2598 13.785 L 1.2598 8.6328 C 1.2598 8.34 1.0544 7.9004 0.61523 7.9004 C 0.43964 7.9004 0 8.1643 0 8.6035 L 0 18.383 C 0 19.612 0.78992 20.607 2.0195 20.607 L 2.459 20.607 L 2.459 21.223 L 2.459 38.32 L 2.459 38.877 C 2.576 39.491 2.9282 39.754 3.543 40.193 C 4.1578 40.281 4.7718 40.193 5.2988 39.754 C 5.8843 39.314 5.8848 38.759 5.8848 38.174 L 5.8848 20.754 C 5.8446 20.763 5.8089 20.776 5.7676 20.783 L 5.8848 20.607 L 5.8848 20.754 C 7.1255 20.488 7.8164 19.627 7.8164 18.322 L 7.8164 8.9551 L 7.8164 8.5156 C 7.7289 8.0473 7.4356 8.0469 6.9961 8.0469 C 6.5572 8.1347 6.5586 8.2816 6.5586 8.7207 L 6.5586 15.455 L 6.5586 15.893 L 5.5039 15.893 L 5.5039 8.8672 L 5.5039 8.4277 C 5.4454 7.9007 5.4157 7.9004 4.9766 7.9004 C 4.8009 7.9004 4.3633 7.9593 4.3633 8.3691 L 4.3633 8.8086 L 4.3633 15.836 L 3.3672 15.836 L 3.3672 15.396 L 3.3672 8.8086 L 3.3672 8.2812 C 3.2794 7.8713 3.2205 7.873 2.8105 7.873 z M 34.758 9.8926 C 36.864 9.8926 38.668 11.71 38.668 13.842 C 38.668 15.958 36.864 17.779 34.758 17.779 C 32.647 17.779 30.846 15.958 30.846 13.842 C 30.846 11.71 32.647 9.8926 34.758 9.8926 z " style="fill:#ffffff;fill-opacity:1;fill-rule:nonzero;stroke:none;stroke-width:5.4545" /></svg>