<?xml version="1.0" encoding="UTF-8" standalone="no"?><svg xmlns:dc="http://purl.org/dc/elements/1.1/" xmlns:cc="http://creativecommons.org/ns#" xmlns:rdf="http://www.w3.org/1999/02/22-rdf-syntax-ns#" xmlns:svg="http://www.w3.org/2000/svg" xmlns="http://www.w3.org/2000/svg" height="48" width="48" xml:space="preserve" viewBox="-63 65 48 48" y="0px" x="0px" id="Layer_1" version="1.2"><defs id="defs7" /><path style="stroke-width:0.43011;fill:#ffffff;fill-opacity:1" id="path2" d="m -45.537,97.172 v -8.301 c 0,-3.355 2.752,-6.108 6.107,-6.108 3.355,0 6.108,2.753 6.108,6.108 v 8.301 z M -39,69.559 c 8.86,0 16.086,7.183 16.086,16.086 v 20.735 h 4.559 V 85.645 C -18.355,74.247 -27.602,65 -39,65 c -11.398,0 -20.645,9.247 -20.645,20.645 v 20.735 h 4.559 V 85.645 c 0,-8.903 7.226,-16.086 16.086,-16.086 m 0.817,29.376 h -2.494 l -0.301,1.765 h 3.096 z m 0.732,4.435 h -4 l -0.474,2.62 h 4.947 z m 1.075,6.15 h -6.151 l -0.559,3.48 h 7.312 z" /></svg>