<?xml version="1.0" encoding="UTF-8" standalone="no"?><svg xmlns:dc="http://purl.org/dc/elements/1.1/" xmlns:cc="http://creativecommons.org/ns#" xmlns:rdf="http://www.w3.org/1999/02/22-rdf-syntax-ns#" xmlns:svg="http://www.w3.org/2000/svg" xmlns="http://www.w3.org/2000/svg" height="512" width="512" xml:space="preserve" viewBox="0 0 512 512" y="0px" x="0px" id="ico" version="1.1"><defs id="defs41"></defs><path style="fill:#ffffff;fill-opacity:1" d="m 480,128 c 0,-17.67 -14.33,-32 -32,-32 h -32 c -17.67,0 -32,14.33 -32,32 H 368 L 344.84,81.687 C 339.42,70.848 328.34,64 316.22,64 H 195.78 c -12.12,0 -23.2,6.848 -28.62,17.688 L 144,128 H 32 C 14.328,128 0,142.33 0,160 v 256 c 0,17.67 14.328,32 32,32 h 448 c 17.67,0 32,-14.33 32,-32 V 160 c 0,-17.67 -14.33,-32 -32,-32 z M 256,400 c -61.86,0 -112,-50.14 -112,-112 0,-61.85 50.14,-112 112,-112 61.86,0 112,50.15 112,112 0,61.86 -50.14,112 -112,112 z" id="path2" /><circle style="fill:#ffffff;fill-opacity:1" cx="256" cy="288" r="64" id="circle4" /></svg>