<?xml version="1.0" encoding="UTF-8" standalone="no"?><svg xmlns:dc="http://purl.org/dc/elements/1.1/" xmlns:cc="http://creativecommons.org/ns#" xmlns:rdf="http://www.w3.org/1999/02/22-rdf-syntax-ns#" xmlns:svg="http://www.w3.org/2000/svg" xmlns="http://www.w3.org/2000/svg" xml:space="preserve" style="enable-background:new 0 0 512 512;" viewBox="0 0 512 512" y="0px" x="0px" id="Layer_1" version="1.1"><defs id="defs41"></defs><path style="fill:#ffffff;fill-opacity:1" id="path2" d="M 482.153,345.994 V 165.633 c 0,-5.546 -2.68,-10.751 -7.196,-13.971 L 266.781,3.189 c -5.962,-4.252 -13.968,-4.252 -19.929,0 L 38.676,151.662 c -4.516,3.219 -7.196,8.425 -7.196,13.971 v 180.228 c -9.191,0.326 -16.548,7.86 -16.548,17.13 0,9.27 7.356,16.804 16.548,17.13 v 114.718 c 0,9.477 7.683,17.161 17.161,17.161 h 416.352 c 9.477,0 17.161,-7.683 17.161,-17.161 V 379.988 c 8.413,-1.104 14.914,-8.283 14.914,-16.997 0,-8.714 -6.501,-15.895 -14.915,-16.997 z M 256.817,38.237 426.497,159.253 H 87.138 Z m 190.588,155.339 c -2.308,11.16 -12.331,19.554 -23.968,19.554 -11.636,0 -21.658,-8.394 -23.967,-19.554 z m -83.31,0 c -2.308,11.16 -12.331,19.554 -23.968,19.554 -11.637,0 -21.66,-8.394 -23.967,-19.554 z m -83.31,0 c -2.307,11.161 -12.329,19.554 -23.968,19.554 -11.636,0 -21.659,-8.394 -23.967,-19.554 z m -83.311,0 c -2.307,11.16 -12.331,19.554 -23.967,19.554 -11.636,0 -21.659,-8.394 -23.968,-19.554 z m -83.31,0 c -2.308,11.16 -12.331,19.554 -23.968,19.554 -11.637,0 -21.66,-8.394 -23.968,-19.554 z M 98.649,477.678 H 65.802 V 380.151 H 98.65 v 97.527 z m 70.504,0 h -36.182 v -97.527 h 36.182 z m 13.3,-131.848 h -65.206 c 0,0 0,-22.878 0,-22.878 h 65.206 z m 57.203,131.848 h -36.182 v -97.527 h 36.182 z m 70.503,0 h -36.182 v -97.527 h 36.182 z m 70.503,0 H 344.48 v -97.527 h 36.182 z M 365.56,345.83 H 332.3 c -0.591,-8.941 -8.012,-16.016 -17.102,-16.016 h -33.212 c -9.091,0 -16.511,7.075 -17.102,16.016 h -48.108 v -40.038 c 0,-9.477 -7.683,-17.161 -17.161,-17.161 h -9.722 v -2.885 c 0,-9.477 -7.683,-17.161 -17.161,-17.161 -9.478,0 -17.161,7.683 -17.161,17.161 v 2.885 h -11.44 v -2.885 c 0,-9.477 -7.683,-17.161 -17.161,-17.161 -9.478,0 -17.161,7.683 -17.161,17.161 v 2.885 h -9.722 c -9.477,0 -17.161,7.683 -17.161,17.161 V 345.83 H 65.802 V 242.155 c 7.584,3.461 15.878,5.297 24.393,5.297 14.803,0 28.949,-5.521 39.831,-15.547 0.622,-0.573 1.23,-1.158 1.825,-1.754 0.595,0.596 1.202,1.181 1.824,1.754 10.883,10.025 25.028,15.547 39.831,15.547 14.803,0 28.949,-5.521 39.83,-15.547 0.622,-0.573 1.23,-1.158 1.825,-1.753 0.595,0.596 1.202,1.18 1.824,1.753 10.883,10.025 25.028,15.547 39.831,15.547 14.803,0 28.95,-5.521 39.831,-15.547 0.621,-0.572 1.23,-1.158 1.824,-1.753 0.595,0.596 1.202,1.18 1.824,1.753 10.882,10.025 25.028,15.547 39.831,15.547 14.803,0 28.949,-5.521 39.831,-15.547 0.622,-0.573 1.23,-1.158 1.825,-1.753 0.594,0.596 1.202,1.18 1.824,1.753 10.882,10.025 25.027,15.547 39.83,15.547 8.516,0 16.811,-1.836 24.395,-5.297 V 345.83 h -14.853 c -0.591,-8.941 -8.012,-16.016 -17.102,-16.016 h -33.212 c -9.092,0 -16.513,7.075 -17.104,16.016 z m 82.271,131.848 h -32.847 v -97.527 h 32.847 z" /></svg>