<?xml version="1.0" encoding="UTF-8" standalone="no"?><svg xmlns:dc="http://purl.org/dc/elements/1.1/" xmlns:cc="http://creativecommons.org/ns#" xmlns:rdf="http://www.w3.org/1999/02/22-rdf-syntax-ns#" xmlns:svg="http://www.w3.org/2000/svg" xmlns="http://www.w3.org/2000/svg" width="48" height="48" viewBox="0 0 48 48.000001" id="svg69809" version="1.1"><defs id="defs69811" /><path d="m 23.27,20.179 0.268,5.383 c 0.134,2.62 4.063,2.423 3.927,-0.195 l -0.133,-2.475 c -0.578,0.04 -1.227,-0.177 -1.826,-0.795 z M 20.949,11.66 c -0.632,-0.03 -1.267,0.27 -2.073,0.91 -1.329,1.041 -3.122,3.002 -6.101,5.857 -0.454,0.434 -1.619,1.586 -1.619,1.586 0,0 1.072,1.33 1.609,1.857 0.824,0.803 2.186,1.07 3.298,0 l 5.228,-4.019 4.276,3.669 c 2.218,2.277 5.125,-0.741 2.897,-3.02 C 25.692,15.653 24.27,13.891 23.003,12.757 22.208,12.056 21.58,11.69 20.949,11.66 Z M 34.278,8.2128 c -1.255,0.033 -1.951,1.4025 -2.369,2.1102 -0.897,1.538 -1.32,4.269 -1.732,7.446 -0.402,3.165 -2.464,9.741 -3.516,11.834 -1.072,2.093 -1.598,3.339 -1.598,3.339 l 6.721,-3.422 c 0,0 5.229,-11.464 5.588,-12.433 0.363,-0.959 1.641,-5.659 -1.007,-7.9263 C 35.535,8.4484 34.849,8.1944 34.278,8.2128 Z M 3.5165,2.1575 C 1.5889,2.1575 0,3.726 0,5.674 c 0,1.9384 1.5889,3.5051 3.5165,3.5051 1.938,0 3.5066,-1.5667 3.5066,-3.5051 0,-1.948 -1.5686,-3.5165 -3.5066,-3.5165 z M 22.699,0.00149 c -0.212,0.012 -0.435,0.065 -0.667,0.1783 L 9.6101,6.2938 C 9.1151,6.5304 8.5981,6.7992 8.1241,7.1597 7.4451,7.6852 6.094,8.8502 5.1364,9.9408 4.8769,10.241 4.3297,10.91 4.2798,10.973 4.0322,11.272 3.8878,11.644 3.9085,12.076 l 0.4408,9.198 c 0.022,0.153 0.3941,0.969 0.507,1.071 l 5.8167,5.319 c 1.536,1.381 3.607,-0.886 2.092,-2.287 l -5.3599,-4.878 -0.03,-4.268 3.2279,3.195 5.434,-5.226 c 0,0 -1.754,-4.197 -2.363,-5.0209 C 13.448,8.8708 13.347,8.6135 13.347,8.3659 L 23.408,2.9434 C 25.016,2.1498 24.18,-0.06561 22.703,0.00149 Z M 44.379,21.583 c -2.537,-0.06 -5.606,1.164 -6.386,4.699 C 36.934,30.984 31.949,43.286 22.241,43.055 12.615,42.814 9.9743,37.382 7.4143,32.182 4.8544,26.982 0.28748,28.067 0.11798,29.011 L 7.2e-4,41.463 c 0,0 0.49836,2.445 2.04498,4.098 1.5468,1.654 4.1873,2.409 4.1873,2.409 L 41.577,48 c 0,0 2.462,-0.657 4.185,-2.373 1.422,-1.423 2.178,-3.705 2.187,-5.715 0.02,-7.076 0.05,-16.259 0.05,-16.348 0,-1.116 -1.649,-1.94 -3.622,-1.986 z" style="fill:#ffffff;fill-opacity:1;fill-rule:evenodd;stroke:none;stroke-width:1.27588" id="path29469" /></svg>