<?xml version="1.0" encoding="UTF-8" standalone="no"?><svg xmlns:dc="http://purl.org/dc/elements/1.1/" xmlns:cc="http://creativecommons.org/ns#" xmlns:rdf="http://www.w3.org/1999/02/22-rdf-syntax-ns#" xmlns:svg="http://www.w3.org/2000/svg" xmlns="http://www.w3.org/2000/svg" xmlns:sodipodi="http://sodipodi.sourceforge.net/DTD/sodipodi-0.dtd" xmlns:inkscape="http://www.inkscape.org/namespaces/inkscape" version="1.1" id="Capa_1" x="0px" y="0px" viewBox="0 0 48 48" xml:space="preserve" sodipodi:docname="210.svg" width="48" height="48" inkscape:version="0.92.3 (2405546, 2018-03-11)"><defs id="defs49" /><sodipodi:namedview pagecolor="#ffffff" bordercolor="#666666" borderopacity="1" objecttolerance="10" gridtolerance="10" guidetolerance="10" inkscape:pageopacity="0" inkscape:pageshadow="2" inkscape:window-width="2018" inkscape:window-height="771" id="namedview47" showgrid="false" inkscape:zoom="4.779747" inkscape:cx="-4.87318" inkscape:cy="-6.732997" inkscape:window-x="561" inkscape:window-y="436" inkscape:window-maximized="0" inkscape:current-layer="Capa_1" /><path inkscape:connector-curvature="0" d="M 40.72365,24.69423 C 45.38288,18.96104 44.90113,11.54293 44.40976,8.343479 44.27423,7.462332 43.61898,6.222887 42.99513,5.586962 39.80133,2.337468 37.30143,0.9535558 35.80866,0.3660681 34.97915,0.0400893 34.83789,0.3830295 35.37374,1.095576 c 0.98038,1.303156 2.28843,3.843394 2.54024,8.285584 0.28403,5.01508 -1.74863,11.13889 -2.79601,13.91718 -0.31468,0.83431 -0.0428,1.98009 0.76098,2.3659 3.05169,1.46374 4.8447,-0.97001 4.8447,-0.97001 z" id="path2" style="stroke-width:0.0843849;fill:#ffffff;fill-opacity:1" /><path inkscape:connector-curvature="0" d="M 29.517,0.1474269 C 25.03043,1.068151 22.74925,4.356377 22.42816,6.747254 c -0.0436,0.33003 0.0517,0.855326 0.19367,1.155567 0.3777,0.794821 1.21522,2.184299 2.53053,2.354589 0.32843,0.0435 0.78917,-0.20016 1.02638,-0.430107 1.31125,-1.26687 5.41936,-5.011028 9.39271,-6.266591 -8e-5,0 -1.17818,-4.4130774 -6.05445,-3.4132851 z" id="path4" style="stroke-width:0.0843849;fill:#ffffff;fill-opacity:1" /><circle cx="11.57416" cy="17.81999" r="3.232617" id="circle6" style="stroke-width:0.0843849;fill:#ffffff;fill-opacity:1" /><path inkscape:connector-curvature="0" d="m 7.90181,21.75781 -4.295276,7.71987 c -0.664868,1.17809 -0.25096,2.67896 0.914226,3.34155 l 8.68177,5.23778 c 0.30581,0.17349 0.74799,0.5825 0.94655,0.87549 l 0.65525,0.96427 h -0.005 c -5.340302,0.40344 -7.610931,1.38635 -8.574438,2.13839 -0.403444,0.31552 -0.62217,0.91988 -0.62217,1.32822 v 0.99659 c 0,0.40909 0.218642,1.0143 0.62217,1.32822 0.994139,0.77617 3.854698,2.10768 11.832028,2.29889 0.36151,0.009 0.71499,0.0129 1.0603,0.0129 8.12331,0 11.77059,-2.33855 12.96084,-3.34316 0.23164,-0.19518 0.36395,-0.48496 0.36395,-0.79397 0,-0.31071 -0.13231,-0.59956 -0.36395,-0.79398 C 30.9468,42.11346 27.49149,39.87743 19.8798,39.73626 l -0.55761,-0.0105 -1.34915,-2.68386 c -0.22193,-0.44539 -0.70039,-1.04013 -1.0878,-1.35404 l -6.39089,-5.19499 c -0.12996,-0.10565 -0.15814,-0.30986 -0.0605,-0.44699 l 0.45517,-0.64639 c 0.29932,0.30666 0.73668,0.51239 1.14663,0.51239 h 9.50646 c 0.0621,0 0.1816,-0.004 0.29932,-0.0331 l 3.15025,4.02491 c 0.15898,0.20336 0.39619,0.30986 0.63584,0.30986 0.1735,0 0.34944,-0.0556 0.49627,-0.1719 0.35104,-0.27433 0.41315,-0.78191 0.13805,-1.1321 l -7.26233,-9.27964 c -0.27518,-0.35104 -0.78191,-0.41484 -1.13211,-0.13797 -0.35104,0.27433 -0.41315,0.78182 -0.13797,1.13211 l 2.29738,2.93558 c -0.26227,-0.0565 -0.55356,-0.0871 -0.87313,-0.0871 h -5.22731 c -0.64714,0 -1.4823,-0.17425 -1.55977,-0.31231 l -1.66634,-3.7288 c -0.002,-0.006 -0.1719,-0.3123 -0.47847,-0.57618 l 0.99819,0.39299 c 0.0702,0.10168 0.10894,0.17189 0.11055,0.17425 l 1.27741,2.85246 0.28404,-0.4042 c 0.19451,-0.27442 0.2308,-0.65449 0.10245,-0.98047 l 3.66585,-1.7082 c 0.40673,-0.21459 0.84005,-0.72462 0.98527,-1.15709 l 2.39898,-6.46996 c 0.30986,-0.83515 0.0412,-1.70423 -0.60116,-1.93984 -0.64157,-0.23644 -1.41699,0.24852 -1.73166,1.08207 l -2.21907,5.87926 c -0.1178,0.37113 -0.54225,0.73837 -0.9392,0.80613 L 11.21611,22.41871 9.632123,21.5206 C 8.925737,21.05176 8.260024,21.12357 7.90181,21.75781 Z" id="path8" style="stroke-width:0.0843849;fill:#ffffff;fill-opacity:1" /></svg>