<?xml version="1.0" encoding="UTF-8" standalone="no"?><svg xmlns:dc="http://purl.org/dc/elements/1.1/" xmlns:cc="http://creativecommons.org/ns#" xmlns:rdf="http://www.w3.org/1999/02/22-rdf-syntax-ns#" xmlns:svg="http://www.w3.org/2000/svg" xmlns="http://www.w3.org/2000/svg" height="490.2" width="490.2" xml:space="preserve" viewBox="0 0 490.2 490.2" y="0px" x="0px" id="ico" version="1.1"><defs id="defs43"></defs><path style="fill:#ffffff;fill-opacity:1" id="path2" d="M 472.3,229.28 H 450.9 C 442.3,129.48 362.8,49.977 263,41.377 v -21.4 c 0,-9.9 -8,-17.8999 -17.9,-17.8999 -9.9,0 -17.9,7.9999 -17.9,17.8999 v 21.4 C 127.4,49.977 47.9,129.48 39.3,229.28 H 17.9 c -9.9,0 -17.9,8 -17.9,17.9 0,9.9 8,17.9 17.9,17.9 h 21.4 c 8.6,99.8 88.1,179.3 187.9,187.9 v 21.4 c 0,9.9 8,17.9 17.9,17.9 9.9,0 17.9,-8 17.9,-17.9 v -21.4 c 99.8,-8.6 179.3,-88.1 187.9,-187.9 h 21.4 c 9.9,0 17.9,-8 17.9,-17.9 0,-9.9 -8.1,-17.9 -17.9,-17.9 z m -77.5,35.8 h 21.4 c -8.3,80.7 -72.5,144.9 -153.2,153.2 v -21.4 c 0,-9.9 -8,-17.9 -17.9,-17.9 -9.9,0 -17.9,8 -17.9,17.9 v 21.4 C 146.5,409.98 82.3,345.78 74,265.08 h 21.4 c 9.9,0 17.9,-8 17.9,-17.9 0,-9.9 -8,-17.9 -17.9,-17.9 H 74 C 82.3,148.58 146.5,84.377 227.2,76.077 v 21.4 c 0,9.903 8,17.903 17.9,17.903 9.9,0 17.9,-8 17.9,-17.903 v -21.4 c 80.7,8.3 144.9,72.503 153.2,153.203 h -21.4 c -9.9,0 -17.9,8 -17.9,17.9 0,9.9 8,17.9 17.9,17.9 z" /></svg>