<?xml version="1.0" encoding="UTF-8" standalone="no"?><svg xmlns:dc="http://purl.org/dc/elements/1.1/" xmlns:cc="http://creativecommons.org/ns#" xmlns:rdf="http://www.w3.org/1999/02/22-rdf-syntax-ns#" xmlns:svg="http://www.w3.org/2000/svg" xmlns="http://www.w3.org/2000/svg" width="48" height="48" viewBox="0 0 48 48.000001" id="svg53822" version="1.1"><defs id="defs53824" /><path d="M 48,32.2998 45.98717,12.79906 3.522e-6,12.88589 V 32.2998 H 5.308341 c -0.359152,-3.44943 1.401085,-6.05427 4.59398,-6.074 3.192899,-0.0197 5.375429,2.4667 5.067589,6.074 h 16.52491 c -0.44992,-3.25604 1.48791,-6.0148 4.66502,-6.04637 3.18501,-0.0276 5.81352,2.39171 5.111,6.04637 z m -4.52294,-16.26048 0.35126,5.2886 h -9.17218 v -5.2886 z m -10.33251,0 v 5.41884 H 24.06591 V 16.03932 Z M 22.30291,15.78278 v 5.54711 h -8.94918 v -5.54711 z m -10.58904,0 v 5.54711 H 2.643121 v -5.54711 z m 24.64726,11.26394 c -2.24569,0 -4.07697,1.83127 -4.07697,4.07696 0,2.24568 1.83128,4.07696 4.07697,4.07696 2.24568,0 4.07696,-1.83128 4.07696,-4.07696 0,-2.24569 -1.83128,-4.07696 -4.07696,-4.07696 z m -26.25358,0 c -2.245682,0 -4.07696,1.83127 -4.07696,4.07696 0,2.24568 1.831278,4.07696 4.07696,4.07696 2.24568,0 4.07696,-1.83128 4.07696,-4.07696 0,-2.24569 -1.83128,-4.07696 -4.07696,-4.07696" style="fill:#ffffff;fill-opacity:1;fill-rule:evenodd;stroke:none;stroke-width:3.9467189" id="path27586" /></svg>