<?xml version="1.0" encoding="UTF-8" standalone="no"?><svg xmlns:dc="http://purl.org/dc/elements/1.1/" xmlns:cc="http://creativecommons.org/ns#" xmlns:rdf="http://www.w3.org/1999/02/22-rdf-syntax-ns#" xmlns:svg="http://www.w3.org/2000/svg" xmlns="http://www.w3.org/2000/svg" id="svg31309" version="1.1" viewBox="0 0 12.7 12.7" height="48" width="48"><defs id="defs31303" /><path id="path8781" style="display:inline;fill:#ffffff;fill-opacity:1;fill-rule:evenodd;stroke-width:1.8211" d="M 9.6429,8.9401 9.0735,8.9154 9.296,6.1019 11.965,6.7795 C 11.633,8.1779 11.025,8.9047 9.6429,8.9401 Z M 8.4599,8.8367 C 8.1883,8.7902 7.9038,8.7334 7.5896,8.655 L 5.0957,8.0304 2.4797,7.3841 2.6765,4.4287 6.5707,5.4111 8.659,5.9706 Z m 3.7411,-3.446 c -0.03,0.2757 -0.113,0.7737 -0.113,0.7737 L 0.04522,3.1191 8.5e-5,3.7536 c 0,0 1.264515,0.3191 2.033315,0.513 L 1.8363,7.2247 0.3449,6.8562 0.29975,7.4912 5.0468,8.6645 7.5413,9.2893 C 11.401,10.252 12.307,8.786 12.7,5.5517 Z" /></svg>