<?xml version="1.0" encoding="UTF-8" standalone="no"?><svg xmlns:dc="http://purl.org/dc/elements/1.1/" xmlns:cc="http://creativecommons.org/ns#" xmlns:rdf="http://www.w3.org/1999/02/22-rdf-syntax-ns#" xmlns:svg="http://www.w3.org/2000/svg" xmlns="http://www.w3.org/2000/svg" version="1.1" id="svg69016" viewBox="0 0 48 48.000001" height="48" width="48"><defs id="defs69018" /><path clip-path="none" style="fill:#ffffff;fill-opacity:1;fill-rule:nonzero;stroke:none;stroke-width:6.18056" d="M 25.958,7.6501 23.855,2.5017 23.238,4.8e-5 h 14.503 8.846 c 0,0 -1.74,9.063952 -2.211,10.876952 v 1.849 l -1.813,8.448 -0.979,18.744 v 1.849 L 40.968,47.205 40.351,44.16 39.554,32.667 v -3.01 L 38.72,19.941 c -1.233,-2.393 -2.466,-4.822 -3.952,-7.215 l -0.617,-1.378 -0.616,1.487 -0.979,11.384 v 1.088 L 31.94,28.606 31.323,26.757 30.562,19.832 V 17.983 L 29.764,12.11 C 28.532,10.659 27.227,9.2091 25.74,7.7226" id="path4533" /><path clip-path="none" style="fill:#ffffff;fill-opacity:1;fill-rule:evenodd;stroke:none;stroke-width:6.18056" d="m 16.495,10.877 c 0,-1.8855 -1.559,-3.4082 -3.408,-3.4082 -1.922,0 -3.4809,1.5227 -3.4809,3.4082 0,1.885 1.5589,3.444 3.4809,3.444 1.849,0 3.408,-1.559 3.408,-3.444" id="path4535" /><path clip-path="none" style="fill:#ffffff;fill-opacity:1;fill-rule:evenodd;stroke:none;stroke-width:6.18056" d="m 4.7478,45.9 c 0,0 -0.6163,1.595 1.6678,1.994 1.9578,0.617 2.3929,-1.668 2.3929,-1.668 l 3.7705,-15.59 c 0,0 2.611,0.617 3.771,-1.16 1.232,-1.668 3.48,-3.48 3.48,-3.48 l -0.616,6.453 c 0,0 0,1.414 1.486,1.523 1.886,0 2.031,-1.233 2.031,-1.233 l 1.341,-13.088 c 0,0 -0.834,-1.994 -2.936,0 -2.176,1.849 -4.895,3.952 -4.895,3.952 L 25.45,5.4747 c 0,0 0.725,-1.3052 -0.616,-2.1028 -1.378,-0.8702 -2.176,0.6163 -2.176,0.6163 L 15.117,17.548 11.491,18.164 5.2917,14.067 V 8.5202 c 0,0 0.7976,-2.3566 -1.5953,-2.6829 -1.3777,0 -1.3777,1.7403 -1.3777,1.7403 l -0.9064,8.5924 7.795,5.149 -0.9426,8.012 z m 0,0" id="path4537" /></svg>