<?xml version="1.0" encoding="UTF-8" standalone="no"?><svg xmlns:dc="http://purl.org/dc/elements/1.1/" xmlns:cc="http://creativecommons.org/ns#" xmlns:rdf="http://www.w3.org/1999/02/22-rdf-syntax-ns#" xmlns:svg="http://www.w3.org/2000/svg" xmlns="http://www.w3.org/2000/svg" width="48" height="48" viewBox="0 0 12.7 12.7" version="1.1" id="svg6314"><defs id="defs6308" /><path d="M 5.6778,1.8709 C 6.1059,1.6355 6.3199,1.0576 6.1059,0.54396 5.8918,0.05171 5.2498,-0.18371 4.8217,0.05171 4.1797,0.28714 3.9657,0.86499 4.1797,1.3786 4.3937,1.8709 5.0358,2.1063 5.6778,1.8709 m 6.6342,4.2376 c -0.214,0 -0.428,0 -0.428,0.214 0,0.214 -0.428,0.2568 -0.428,0.321 L 8.8881,7.8206 7.39,5.8945 c -0.214,0 -0.214,-0.2141 -0.4281,-0.2141 h -0.642 v 0.4495 l 0.214,0.9631 h 0.214 L 7.818,8.1417 6.5339,8.7195 6.1059,9.6398 11.67,7.1144 c 0.214,0 0.642,-0.2568 0.642,-0.6421 0.214,-0.214 0,-0.3424 0,-0.4066 M 9.4716,8.73 C 9.3005,8.63 9.1228,8.73 9.0475,8.88 8.9835,9 8.7824,9.14 8.6556,9.2 L 5.0513,10.83 C 5.385,10.29 5.9931,8.98 6.1814,8.64 6.2454,8.54 6.31,8.31 6.2454,8.08 L 5.9566,6.29 6.0206,4.63 6.3222,5.05 c 0.042,0.1 0.1286,0.13 0.2311,0.12 0.4751,0 1.6374,-0.15 2.1468,-0.21 L 8.4859,6.51 8.9804,7.13 9.3996,3.95 c 0,0 0.024,-0.29 -0.2463,-0.32 -0.2694,0 -0.3191,0.25 -0.3191,0.25 L 8.7912,4.15 6.974,4 c 0,0 -0.6955,-1.04 -0.9267,-1.4 0,0 -0.3209,-0.61 -1.1472,-0.25 L 2.4002,3.87 C 2.2935,3.97 2.2504,4.07 2.2935,4.18 l 0.6656,2.09 c 0,0 0.042,0.1 0.1498,0.14 l -2.0205,4.37 -0.21414,0.43 -0.3531,-0.16 c -0.12862,-0.1 -0.27848,0 -0.33611,0.13 -0.0643,0.13 0.002,0.28 0.12862,0.34 l 0.33793,0.15 c 0,0 -0.0243,0 -0.0425,0.1 -0.0643,0.16 -0.12862,0.31 -0.14985,0.48 0,0.1 0,0.11 0.0425,0.14 0.0643,0.1 0.14986,0.1 0.21417,0 0.10678,-0.13 0.21417,-0.27 0.29298,-0.41 0,0 0.042,-0.1 0.042,-0.1 h 0.042 l 0.3191,0.15 v 0 c 0.1286,0.1 0.2785,0 0.3379,-0.13 0,-0.1 0.024,-0.1 0,-0.15 0,-0.1 -0.042,-0.13 -0.1067,-0.16 0,0 -0.024,0 -0.042,0 L 1.2954,11.45 3.9622,5.89 c 0.064,-0.15 0,-0.32 -0.1286,-0.38 -0.086,0 -0.1711,0 -0.2463,0 L 3.3713,4.55 4.2467,4.19 4.2037,6.09 c 0,0.45 0.1068,0.67 0.1068,0.67 l 0.5909,1.75 c 0,0 -0.5521,1.45 -0.7127,1.93 -0.086,0.56 0.4387,0.6 0.4387,0.6 l -2.4272,1.11 0.2633,0.58 6.4253,-2.92 c 0.085,0 0.5369,-0.25 0.7084,-0.62 0.064,-0.16 0,-0.35 -0.1498,-0.42" style="display:inline;fill:#ffffff;fill-opacity:1;fill-rule:nonzero;stroke:none;stroke-width:1.78247" id="path3114" /></svg>