<?xml version="1.0" encoding="UTF-8" standalone="no"?><svg xmlns:dc="http://purl.org/dc/elements/1.1/" xmlns:cc="http://creativecommons.org/ns#" xmlns:rdf="http://www.w3.org/1999/02/22-rdf-syntax-ns#" xmlns:svg="http://www.w3.org/2000/svg" xmlns="http://www.w3.org/2000/svg" version="1.1" id="svg2" height="48" width="48"><defs id="defs11" /><path id="path6" d="M 6.6193782,1.886698 C 6.065527,2.5448171 5.958521,3.5047363 5.9955683,4.3819415 6.0198728,4.9572374 6.2811764,5.4329147 5.9327315,5.9781376 5.6086695,6.4852787 5.1310561,6.8338537 4.7969613,7.3100105 4.5754977,7.6255975 4.6765242,8.0369038 4.4581529,8.3605965 4.1854561,8.7648175 3.8184338,9.0147451 3.5237679,9.3891717 3.0102463,10.041606 2.6796983,10.833048 2.2252453,11.525694 1.9787536,11.901383 1.6223672,12.155395 1.3932769,12.560535 1.170923,12.95372 1.1645923,13.461249 1.0099154,13.887341 0.64028814,14.905297 0.14971224,16.045499 0.00572904,17.125014 -0.05902176,17.610531 0.44652844,17.85907 0.44337984,18.351766 0.44089014,18.751027 0.25543714,19.104306 0.22068784,19.495725 0.10814544,20.764799 0.27713904,22.302718 1.2032414,23.265236 1.791336,23.876433 2.7142116,24.116461 3.450195,24.429925 4.3349253,24.806821 5.2515576,25.151603 6.1339503,25.539392 6.3790108,25.647112 6.5584676,25.872256 6.7978794,25.967478 7.3743547,26.196797 8.1647333,26.048577 8.7782203,26.222616 9.0963793,26.312868 9.2905713,26.621045 9.5878003,26.758659 9.8524213,26.881171 10.314524,27.180959 10.593751,27.204894 10.953593,27.235815 11.252923,26.991375 11.618023,27.142985 11.916335,27.266863 12.447141,28.247203 12.554302,28.568491 12.635892,28.81305 12.964418,29.971759 12.761139,30.154944 12.588409,30.310591 12.277427,30.123079 12.097888,30.069748 11.59262,29.919599 11.031057,29.853407 10.506333,29.817572 8.8735773,29.70616 7.2284095,30.073258 5.7699902,30.804296 1.9603018,32.713802 -0.12608906,37.379463 1.1113957,41.486754 2.5969692,46.417477 8.0024613,49.221253 12.882754,47.471843 14.6948,46.822308 16.090289,45.615333 17.25128,44.11297 18.20394,42.880222 18.56376,41.000425 18.663891,39.488489 18.696501,38.996312 18.348394,38.018064 18.625738,37.579103 18.765315,37.358288 19.267152,37.509184 19.474786,37.533968 19.904712,37.585401 20.276019,37.461012 20.604859,37.177919 21.031048,36.811089 21.59351,36.29529 21.667031,35.707076 21.720116,35.282343 21.478725,34.671958 21.651509,34.285838 21.898496,33.73404 22.802955,33.406095 23.183848,32.968237 23.542192,32.556374 23.565977,31.935414 23.582076,31.418964 L 23.53553,31.380552 C 23.071895,31.048818 23.991534,29.843403 23.903203,29.302361 23.846181,28.953123 23.574204,28.719841 23.274261,28.568167 23.08681,28.473408 22.777218,28.458633 22.74779,28.204625 22.718598,27.952134 22.928489,27.727394 23.007379,27.501895 23.152232,27.087799 23.210273,26.640163 23.349417,26.219238 23.816701,24.80598 24.13241,23.338832 24.597016,21.928056 24.843178,21.180515 25.02362,20.40909 25.259814,19.658168 25.324841,19.451271 25.39515,18.959301 25.674661,18.953971 26.073518,18.94634 26.493035,19.750703 26.741232,20.005288 27.513276,20.797407 28.281682,21.620199 29.092473,22.371053 29.470916,22.721539 30.102657,23.107067 30.213277,23.652957 30.288454,24.023901 29.933716,24.472665 29.780262,24.796961 29.445022,25.505668 29.203591,26.260093 29.078183,27.034447 28.573834,30.148235 29.656511,33.277147 31.868066,35.505922 35.989213,39.659121 43.451199,39.440605 46.627821,34.239945 47.13365,33.411843 47.523672,32.506728 47.741656,31.559793 47.972244,30.558234 48.071811,29.470534 47.943299,28.4472 47.782982,27.170946 47.376377,25.899955 46.74655,24.777248 45.98047,23.411746 44.890717,22.268741 43.620674,21.359005 41.4367,19.794761 38.507792,19.228138 35.901413,19.832801 35.158108,20.005236 34.412281,20.271754 33.737775,20.62944 33.412128,20.802087 33.000296,21.20201 32.634326,21.249531 32.28949,21.294293 31.6555,21.092714 31.311831,21.009098 30.973651,20.926895 30.651648,20.530675 30.435829,20.269093 29.913003,19.635219 28.871122,19.02831 28.551195,18.271259 28.493483,18.134679 28.593125,17.977952 28.574929,17.833597 28.521375,17.408663 28.378724,16.703395 28.091263,16.378153 27.428264,15.627979 25.841015,15.390688 25.832851,14.18435 25.542885,14.070269 25.230947,13.931445 24.92224,13.88037 24.796614,13.859559 24.565523,13.964205 24.465368,13.879912 24.253789,13.701942 24.526172,13.46837 24.712846,13.470387 25.15258,13.475135 25.650184,13.767106 26.063321,13.905068 26.17818,13.713637 26.271331,13.536755 26.137883,13.340627 26.438798,13.133565 26.990445,13.513817 27.148566,13.164809 27.227058,12.991561 27.143377,12.771297 27.038294,12.628783 26.789138,12.290786 26.419522,12.031625 26.166432,11.694126 25.984335,11.451225 25.916086,11.170776 25.650409,10.991989 25.084222,10.610915 24.35309,11.005313 23.760172,10.89434 23.514016,10.84825 23.392742,10.586592 23.15751,10.504606 22.308961,10.208741 21.357532,10.141937 20.481757,9.9543506 20.028071,9.8571808 19.64333,9.5573492 19.164122,9.5687649 18.388672,9.587295 17.5987,9.6327366 16.821034,9.5546778 16.569504,9.5294188 16.259245,9.591257 16.028128,9.4725196 15.07397,8.9825349 14.513415,7.9315255 14.741034,6.9017064 14.827953,6.5084169 15.387924,6.112665 15.164901,5.6621172 15.081663,5.4938924 14.655132,4.9766527 14.445744,5.0490936 14.298194,5.1001747 13.86058,5.8914122 13.608837,5.4587884 13.515456,5.2983969 13.701255,5.0914053 13.650663,4.9162371 13.574075,4.6510128 13.34316,4.472151 13.279576,4.1747678 13.171395,3.6690619 13.407248,3.2256236 13.469433,2.7298455 13.493996,2.5337689 13.419997,2.2481294 13.528581,2.0744481 13.812859,1.6196877 16.093921,1.0211279 15.111626,0.15316068 14.699321,-0.21109657 13.619614,0.20635296 13.136148,0.25658802 11.210798,0.45669046 9.1380063,0.49784 7.3322449,1.3428609 7.0372632,1.4808989 6.803992,1.6673275 6.6193782,1.886698 Z M 10.322576,15.699039 C 10.528798,15.462655 10.912559,15.519467 11.16261,15.335929 11.337047,15.207892 11.383534,14.969697 11.569352,14.854894 11.780058,14.724626 12.033475,14.780997 12.259988,14.708378 13.377489,14.35007 14.596273,14.30621 15.786465,14.307734 16.186995,14.308221 16.620787,13.956643 16.991675,14.008788 17.577881,14.091295 17.989824,14.545949 18.452449,14.783899 18.6306,14.875606 19.465563,15.161054 19.662289,15.148993 19.834469,15.138422 19.978551,15.020833 20.155946,15.015985 20.465598,15.007506 20.738464,15.209725 21.042234,15.233881 21.270583,15.252052 21.417312,15.072039 21.633914,15.047273 22.094602,14.994584 22.338431,15.452584 22.603318,15.72743 22.862019,15.995931 23.318181,16.145899 23.094656,16.619487 22.919989,16.989589 22.499085,17.255456 22.216727,17.538165 21.800726,17.954567 21.444834,18.409062 21.0155,18.816021 20.507643,19.297461 20.124707,19.913825 19.656533,20.433177 19.09217,21.059137 18.44647,21.630573 17.941405,22.304144 17.585735,22.778381 17.076799,23.244535 16.663357,23.675091 16.534834,23.808932 16.34018,23.984463 16.136951,23.927788 15.965435,23.879909 15.878436,23.669518 15.745705,23.563355 15.311171,23.215792 14.841903,22.871543 14.367954,22.578002 14.210606,22.480619 13.807278,22.411364 13.827491,22.166231 13.847096,21.927711 14.800196,21.591336 15.020348,21.458536 15.160291,21.3741 15.315626,21.133645 15.159814,20.984337 14.981486,20.813386 14.599269,20.953701 14.413183,21.035738 13.890177,21.266252 13.4189,21.799108 12.798847,21.720828 12.389161,21.669045 11.924948,21.294041 11.555942,21.108386 11.089916,20.873893 10.505482,20.854046 10.0225,20.637634 9.5938103,20.445604 9.3138343,20.054023 8.8738793,19.848716 8.5412333,19.693526 7.6111101,19.702313 7.6087909,19.242411 7.6072276,18.936906 8.1977753,18.58202 8.3972123,18.340343 9.0975353,17.491697 9.6826273,16.674072 10.284673,15.750897 10.296749,15.732381 10.308829,15.714798 10.322576,15.699039 Z M 4.7665742,34.301785 C 5.1874549,33.798254 5.8248085,33.121969 6.2282038,33.29506 6.4550403,32.885541 7.025054,32.723554 7.4485599,32.580711 8.7187743,32.152266 9.9711273,32.230979 11.254818,32.513644 11.649867,32.60061 12.736853,32.835338 12.824401,33.31987 12.867734,33.559683 12.653258,33.707344 12.52523,33.875003 12.212342,34.284784 11.823127,34.875241 11.333324,35.082301 10.741298,35.332548 10.082383,35.39262 9.5019853,35.683675 8.5522133,36.159973 7.7486193,37.162114 7.5779013,38.240462 7.4774191,38.874905 7.8679763,39.377047 7.9009953,39.949747 7.9145013,40.184839 7.7305453,40.360582 7.6787293,40.580581 7.6289756,40.791633 7.6916253,41.00806 7.6704653,41.221728 7.6430433,41.49769 7.4372291,41.974352 7.7416933,42.175447 8.1340143,42.434494 8.9530053,41.702987 9.2774673,41.523334 9.5639003,41.36464 9.8556023,41.476117 10.156552,41.498098 10.413111,41.516788 10.726749,41.403544 10.97078,41.495157 11.360899,41.641576 11.618572,42.497225 11.559529,42.858822 L 11.606075,42.897234 C 13.151561,42.097289 14.219669,40.663961 15.336574,39.324819 15.639788,38.961274 16.009677,38.704956 16.313142,38.331054 16.595889,38.877911 16.423422,39.774929 16.305022,40.358739 15.887885,42.415727 14.488274,44.244799 12.539454,45.075908 8.9915473,46.589016 4.9777527,44.721476 3.4866583,41.263325 2.5518004,39.095095 2.9432371,36.517219 4.4345828,34.710016 4.510099,34.618507 4.6262831,34.469626 4.7665742,34.301785 Z M 16.546449,25.476075 C 16.562457,25.455234 16.578939,25.436164 16.595919,25.41909 17.365551,24.645084 18.104152,23.846792 18.875264,23.074786 19.285978,22.663654 19.657604,22.157968 20.182678,21.884557 20.030595,21.709678 20.564498,21.292065 20.700676,21.138328 21.363538,20.389975 21.950166,19.673792 22.890052,19.267501 L 23.446355,19.257103 23.53945,19.333928 C 23.420313,19.918062 23.311855,20.584498 23.060302,21.12941 22.785892,21.723825 22.030367,22.75291 22.307585,23.481595 L 21.990251,23.623167 21.98402,23.684053 21.937473,23.645641 21.814104,23.70032 21.668588,23.971473 21.622042,23.933061 21.690728,23.755008 21.644181,23.716596 C 21.53058,23.828087 21.401389,23.90746 21.54522,24.026152 L 21.506807,24.072703 C 21.237691,23.858446 21.584921,23.660023 21.751283,23.491993 L 21.937473,23.645641 21.990251,23.623167 22.028301,23.251122 21.866518,23.352351 21.214853,22.814583 21.253267,22.768033 21.423184,22.751767 20.982117,22.622523 20.94371,22.669065 20.844742,22.978629 C 20.52538,22.90178 20.203232,23.218863 19.989274,23.446372 19.720269,23.292762 19.504309,23.249051 19.208369,23.349671 L 19.564481,23.487044 19.690116,23.903707 C 19.4631,24.072704 19.214793,24.236019 19.322265,24.539104 L 19.160482,24.640334 C 19.398583,24.815841 19.578389,24.85586 19.856426,24.745171 L 20.398729,25.036192 20.143851,25.060597 20.083297,25.323611 19.71905,25.101277 19.565401,25.287468 19.743458,25.356154 19.496714,25.465521 19.814413,25.649444 C 19.634619,25.791841 19.529885,25.64938 19.373346,25.520201 L 19.173149,25.66798 19.181282,25.752942 19.490848,25.851903 19.230098,26.262696 C 19.059751,26.081125 18.937118,26.056214 18.704068,26.141591 L 19.114863,26.402337 18.884385,26.681628 C 18.503815,26.401136 18.183589,26.545404 17.966104,26.941034 18.132971,27.092115 18.155661,27.389941 17.883409,27.420515 L 17.845002,27.467056 17.992778,27.667253 18.108013,27.527613 18.15456,27.566025 17.800715,27.899994 C 17.603766,27.781667 17.493906,27.937646 17.345641,28.072179 L 17.531831,28.225827 17.238539,28.296781 17.345641,28.072179 17.252546,27.995355 16.928981,28.197813 C 16.605891,27.718047 15.929676,27.339837 16.489253,26.739496 16.185724,26.496714 16.306295,25.788711 16.546449,25.476075 Z M 23.67864,17.947439 C 23.786568,17.811526 23.928072,17.711729 24.111104,17.69302 24.084222,18.066373 23.891617,18.224009 23.518649,18.221319 23.561554,18.123599 23.613882,18.02899 23.67864,17.947439 Z M 20.151057,23.345142 20.236019,23.337004 20.151057,23.345142 Z M 19.971669,24.605522 20.240553,24.279689 20.884076,24.732503 20.845668,24.779045 C 20.696152,24.633429 20.573327,24.652237 20.418366,24.751647 L 20.444142,24.838932 20.513964,24.89655 20.47555,24.9431 20.444142,24.838932 20.374322,24.781314 C 20.389587,24.770552 20.403739,24.761029 20.418366,24.751647 L 20.349914,24.526437 20.303367,24.488025 19.971669,24.605522 Z M 18.190707,27.048132 18.322216,27.078406 18.245388,27.171506 18.190707,27.048132 Z M 19.17181,26.997054 19.325459,26.810863 19.558196,27.002922 20.081958,26.652686 19.602477,26.569992 19.756126,26.383801 C 20.301481,26.581898 20.485547,26.080273 20.904877,25.845112 L 20.633733,25.699593 21.29776,25.443097 22.049102,24.363731 C 22.153454,24.700464 21.951929,25.185316 21.815025,25.500744 L 22.039629,25.607843 21.795152,26.188552 C 21.350085,26.392701 21.49086,27.418638 21.190047,27.801842 20.80081,28.297602 20.128008,27.987386 19.617404,28.06899 L 19.601138,27.899067 19.214751,27.893197 C 19.030495,28.064612 18.810259,27.86878 18.642175,27.73368 L 19.697838,27.118159 19.17181,26.997054 Z M 17.963773,28.917257 C 18.258328,28.521162 19.579773,28.751707 19.493668,29.253041 19.418112,29.692486 17.681628,29.781579 17.918554,29.004645 17.928335,28.972568 17.944136,28.943663 17.963773,28.917257 Z M 16.194198,31.870531 C 16.309819,31.7424 16.542659,31.874225 16.675421,32.013337 16.892469,32.240813 17.352586,33.413006 16.972668,33.620607 16.756186,33.738911 16.572167,33.457282 16.458814,33.318817 16.199696,33.002181 15.578768,32.320971 16.135917,32.003381 16.147458,31.942993 16.167521,31.900093 16.194198,31.870531 Z M 12.912945,36.468976 C 13.047958,36.305704 13.217239,36.161452 13.402635,36.112617 13.718625,36.029421 13.711692,36.55406 13.613016,36.728819 13.39181,37.120516 12.275859,37.530497 12.709601,36.765758 12.763363,36.670955 12.831937,36.566938 12.912945,36.468976 Z M 18.690371,29.873866 C 18.875534,29.62918 19.467731,29.760161 19.304607,30.160684 19.149494,30.541507 18.514255,30.266702 18.65923,29.926417 18.667615,29.906734 18.678031,29.890174 18.690371,29.873866 Z M 27.874646,19.390367 28.518177,19.843172 30.17601,21.626935 30.740714,22.459718 27.874646,19.390367 Z M 20.455706,29.254693 C 20.674839,28.998364 21.000039,29.198403 20.816219,29.606 20.620998,30.038936 20.179032,29.813802 20.368473,29.392996 20.393654,29.337058 20.424397,29.291318 20.455706,29.254693 Z M 13.073158,38.603794 C 13.49454,38.032852 14.646892,37.988825 15.232314,37.830366 15.480572,37.763161 15.9174,37.75617 15.795491,38.143498 15.674845,38.526649 15.105219,38.94197 14.819273,39.210915 14.151853,39.838683 13.659389,40.784116 12.913034,41.310507 12.765534,41.414529 11.907419,41.186863 11.86411,41.017092 11.804192,40.782205 12.15101,40.550031 12.292475,40.412072 12.817346,39.900154 12.708007,39.315256 12.999136,38.726089 13.020345,38.683159 13.04507,38.641853 13.073158,38.603794 Z M 31.968142,25.42877 C 32.808882,26.473962 34.007864,27.296198 34.787928,28.364572 34.943062,28.577092 34.91742,28.823618 35.036023,29.038777 35.137224,29.222215 35.355382,29.254515 35.440391,29.470279 35.517584,29.666216 35.494262,29.992017 35.681395,30.126411 35.896377,30.280821 36.209578,30.097653 36.423887,30.26966 36.579135,30.394336 36.591704,30.641088 36.684368,30.807373 36.831734,31.071785 37.226729,31.407238 37.511416,31.511882 38.223559,31.773738 39.247243,31.891036 39.948767,31.54508 41.48165,30.789042 41.805242,28.610925 40.915949,27.291473 40.386929,26.506569 39.424394,25.661451 38.410341,25.817978 38.017813,25.878622 37.597454,25.944072 37.226748,26.090729 36.987637,26.185346 36.769038,26.375836 36.497006,26.290559 36.102638,26.166832 35.862431,25.677869 35.596589,25.393465 34.963029,24.715709 34.264479,24.095566 33.619861,23.427227 34.332672,22.694201 35.447059,22.282066 36.423083,22.062961 41.473135,20.929529 46.430678,25.837018 45.234888,30.899579 45.046561,31.696891 44.716992,32.531003 44.198797,33.174402 42.189678,35.668869 39.024672,36.761786 35.951049,35.488719 32.951127,34.246195 30.886076,31.202213 31.192425,27.918461 31.27021,27.084621 31.481959,26.12668 31.968142,25.42877 Z" style="fill:#ffffff;stroke:none;fill-opacity:1" /></svg>