<?xml version="1.0" encoding="UTF-8" standalone="no"?><svg xmlns:dc="http://purl.org/dc/elements/1.1/" xmlns:cc="http://creativecommons.org/ns#" xmlns:rdf="http://www.w3.org/1999/02/22-rdf-syntax-ns#" xmlns:svg="http://www.w3.org/2000/svg" xmlns="http://www.w3.org/2000/svg" xmlns:sodipodi="http://sodipodi.sourceforge.net/DTD/sodipodi-0.dtd" xmlns:inkscape="http://www.inkscape.org/namespaces/inkscape" width="48" height="48" viewBox="0 0 12.7 12.7" version="1.1" id="svg31309" sodipodi:docname="22.svg" inkscape:version="0.92.3 (2405546, 2018-03-11)"><sodipodi:namedview pagecolor="#ffffff" bordercolor="#666666" borderopacity="1" objecttolerance="10" gridtolerance="10" guidetolerance="10" inkscape:pageopacity="0" inkscape:pageshadow="2" inkscape:window-width="1595" inkscape:window-height="842" id="namedview14" showgrid="false" inkscape:zoom="4.916667" inkscape:cx="25.28349" inkscape:cy="24" inkscape:window-x="626" inkscape:window-y="171" inkscape:window-maximized="0" inkscape:current-layer="svg31309" /><defs id="defs31303" /><path inkscape:connector-curvature="0" d="m 1.90575,5.142589 0.02538,0.112992 c 0.03644,0.01083 0.07636,0.02275 0.112802,0.03412 0.07896,0.02654 0.159876,0.05146 0.240789,0.07811 0.118443,0.03846 0.237102,0.07637 0.351207,0.115212 0.116058,0.039 0.228859,0.07632 0.341662,0.115213 0.134711,0.04712 0.270078,0.09371 0.403271,0.141592 0.02494,0.0092 0.05076,0.01842 0.07636,0.02654 0.03167,0.01138 0.06356,0.02275 0.09371,0.03358 0.06486,0.02329 0.130155,0.04713 0.191982,0.0696 0.160308,0.05899 0.317582,0.116892 0.476588,0.175933 0.196323,0.07291 0.395027,0.149013 0.590261,0.223004 0.163999,0.06164 0.326045,0.122742 0.489606,0.184817 0.107811,0.04225 0.217144,0.08374 0.325179,0.123175 0.02887,0.01029 0.05574,0.02058 0.08395,0.02979 0.0082,0 0.01452,0.0054 0.0208,0.007 0.008,0 0.0143,0 0.0208,0 0.0093,0 0.01907,0 0.02844,0 0.0143,0 0.03017,0.0054 0.0462,0.0054 h 0.05205 c 0.01777,0 0.03689,-0.0054 0.05445,-0.0054 0.02952,-0.0054 0.05879,-0.007 0.08678,-0.01246 0.02887,-0.006 0.05596,-0.01192 0.08265,-0.02275 0.01018,-0.0054 0.01777,-0.0087 0.02432,-0.01408 0.0043,0 0.008,-0.006 0.01105,-0.0087 0.0016,0 0.0027,-0.0054 0.0027,-0.0054 0.0022,0 0.0022,0 0.0022,-0.0054 v -0.0054 c 0,0 0,-0.0054 -0.0022,-0.0054 0,0 -0.0011,0 -0.0027,-0.0054 -0.0032,-0.0054 -0.0054,-0.0054 -0.0078,-0.006 -0.0033,0 -0.008,-0.0054 -0.01148,-0.0065 -0.0076,0 -0.01609,-0.0054 -0.02188,-0.0054 -0.01609,-0.0054 -0.03689,-0.0054 -0.05424,-0.0054 -0.02519,0 -0.0527,0 -0.07635,0 -0.02367,0 -0.0462,0 -0.06616,-0.0054 -0.0195,0 -0.0397,-0.0054 -0.05879,-0.0054 -0.01625,0 -0.0306,-0.0054 -0.04642,-0.0076 -0.0156,0 -0.03342,-0.007 -0.0475,-0.01138 C 5.654726,6.451364 5.572512,6.411389 5.486392,6.374935 5.343435,6.309881 5.195923,6.25436 5.049713,6.195102 4.875085,6.126797 4.701979,6.054756 4.530387,5.982768 4.398927,5.92806 4.268774,5.872972 4.136448,5.818752 4.027116,5.773252 3.919303,5.726722 3.812574,5.679868 c -0.01584,-0.0054 -0.03015,-0.013 -0.04252,-0.01788 v -0.0054 c 0,-0.0054 0,-0.0054 0.0016,-0.0076 8.12e-4,-0.0076 0.003,-0.01517 0.0043,-0.02275 v -0.03196 c 0,-0.01029 0,-0.02058 -0.0043,-0.03087 -0.0016,-0.0087 -0.005,-0.01788 -0.01021,-0.02329 -0.0046,-0.007 -0.01063,-0.01137 -0.01692,-0.01625 -0.01453,-0.01029 -0.02582,-0.02167 -0.03644,-0.03467 -0.01627,-0.01788 -0.02886,-0.03792 -0.04144,-0.05893 -0.01584,-0.02275 -0.03015,-0.04604 -0.04924,-0.06836 -0.01454,-0.02167 -0.03059,-0.04225 -0.04708,-0.06056 -0.02299,-0.02167 -0.04968,-0.04225 -0.07679,-0.05612 -0.01606,-0.0092 -0.03362,-0.01571 -0.04924,-0.02167 -0.0093,-0.0054 -0.02234,-0.0081 -0.03168,-0.01246 -0.0069,0 -0.01237,-0.0054 -0.01758,-0.0087 -0.0063,0 -0.0095,-0.006 -0.01301,-0.0097 -0.0043,-0.0054 -0.0061,-0.0092 -0.0078,-0.01408 -10e-4,-0.0054 -0.0032,-0.0054 -0.0046,-0.0092 -0.0014,-0.0065 -0.0032,-0.01408 -0.0032,-0.02221 0,-0.01246 0,-0.026 0.0032,-0.039 0.0035,-0.02383 0.0063,-0.04658 0.01107,-0.07074 0.0065,-0.02925 0.01432,-0.05899 0.02083,-0.08889 0.0063,-0.03196 0.01518,-0.06381 0.02213,-0.09723 0.0091,-0.02979 0.01715,-0.05937 0.02364,-0.08916 0.0035,-0.0054 0.0035,-0.0092 0.0046,-0.01354 l 0.138401,0.01354 c 0.03514,0.0054 0.06638,0.007 0.101522,0.01029 0.260531,0.02546 0.520844,0.04713 0.779856,0.06722 0.255543,0.02058 0.508264,0.04008 0.761851,0.05975 0.220835,0.01733 0.443617,0.03358 0.664449,0.04767 0.159879,0.01029 0.32214,0.01788 0.482663,0.0325 0.03299,0.0054 0.06812,0.007 0.102825,0.0076 h 0.03017 c 0.01105,0 0.02237,-5.42e-4 0.03364,0 0.01733,0 0.03472,-0.006 0.05075,-0.01029 0.0208,-0.0054 0.03927,-0.01029 0.05858,-0.01679 0.01777,-0.006 0.03472,-0.013 0.05119,-0.02112 0.02345,-0.0087 0.04577,-0.01896 0.0679,-0.02979 0.02605,-0.013 0.05075,-0.02492 0.07333,-0.04171 0.008,-0.006 0.01408,-0.01192 0.02037,-0.0195 0.0032,-0.0054 0.0063,-0.0065 0.0063,-0.01138 0.0016,0 0.0016,0 0.0032,-0.0054 v -0.0054 c 0,0 0,0 -0.0016,-0.0054 0,0 -0.0016,0 -0.0016,-0.0054 -0.0016,0 -0.0033,0 -0.0033,0 -0.0032,0 -0.0043,0 -0.008,-0.0054 -0.0043,0 -0.0091,-0.0054 -0.01387,-0.0054 -0.0084,0 -0.0143,0 -0.02086,0 -0.01733,0 -0.03515,0.0065 -0.05423,0.0092 -0.02535,0.007 -0.04924,0.013 -0.07419,0.01842 -0.02085,0.0054 -0.0449,0.0081 -0.06703,0.01138 -0.01733,0.0054 -0.03645,0.006 -0.05662,0.0076 -0.01582,0 -0.0306,0 -0.04642,0.0054 -0.01777,0 -0.03364,0 -0.04924,0 -0.08721,0 -0.171156,-0.01354 -0.259014,-0.02275 C 6.068927,4.816018 5.91686,4.80356 5.762626,4.789476 5.572165,4.771601 5.37975,4.752101 5.187118,4.732872 5.032013,4.717164 4.871702,4.700914 4.71443,4.684122 4.563883,4.668956 4.413768,4.653247 4.261919,4.635914 c -0.02408,-0.0054 -0.0449,-0.0054 -0.06985,-0.0076 0.0012,0 0.0012,0 0.0012,-0.0054 0,-0.0054 0.0016,-0.006 0.0016,-0.0081 0.0016,-0.0065 0.005,-0.013 0.0063,-0.0195 0.0014,-0.0087 0.0033,-0.01842 0.0033,-0.02546 0,-0.0087 -0.0016,-0.01517 -0.0033,-0.02383 -0.0012,-0.0054 -0.0046,-0.01083 -0.008,-0.01625 -0.0035,0 -0.0061,-0.0054 -0.0093,-0.007 -0.003,-0.0054 -0.0082,-0.006 -0.01409,-0.0087 -0.02712,-0.0098 -0.05553,-0.02167 -0.08092,-0.03629 -0.02582,-0.01408 -0.0462,-0.03087 -0.06985,-0.04767 -0.02104,-0.01788 -0.03992,-0.03358 -0.06204,-0.05092 -0.01801,-0.01354 -0.03644,-0.02817 -0.05727,-0.03846 -0.008,-0.0054 -0.01606,-0.0076 -0.02365,-0.01029 -0.01106,-0.0054 -0.02408,-0.0065 -0.03688,-0.0076 -0.01409,-0.0054 -0.02712,-0.0054 -0.04122,-0.0054 -0.0032,0 -0.0076,0 -0.01106,-0.0054 -0.0035,0 -0.0078,-0.007 -0.0078,-0.013 0,0 0,0 0.0014,-0.0054 0,0 0,-0.0054 0.0012,-0.007 0.0014,-0.0054 0.005,-0.01029 0.0063,-0.01571 0.0022,-0.0054 0.0022,-0.0081 0.0052,-0.01246 0,-0.006 0.0012,-0.01192 0.0012,-0.01842 0.0014,-0.01192 0.0014,-0.02546 0.0046,-0.03846 0.0035,-0.02871 0.008,-0.05725 0.01454,-0.08564 0.0063,-0.03521 0.01432,-0.06944 0.02256,-0.104759 0.0078,-0.03683 0.01715,-0.07329 0.02712,-0.108712 0.0056,-0.01625 0.01084,-0.03304 0.0167,-0.04875 0.0035,-0.0195 0.01323,-0.03792 0.01953,-0.05682 0.0128,-0.03196 0.02364,-0.06554 0.03145,-0.09999 0.0078,-0.0325 0.01301,-0.06727 0.01649,-0.100208 0.0016,-0.03629 0.0024,-0.07334 0.0016,-0.108712 -0.0016,-0.02979 -0.0052,-0.05839 -0.01149,-0.08721 C 3.929524,3.366031 3.918464,3.33131 3.907403,3.298701 3.883326,3.235651 3.851651,3.176231 3.821499,3.117135 3.784839,3.045797 3.750131,2.974622 3.716723,2.903068 3.68028,2.830593 3.643401,2.756872 3.608692,2.683747 3.583098,2.62541 3.555977,2.566368 3.527995,2.508085 3.514985,2.483168 3.50218,2.45771 3.499146,2.430572 c 0,-0.01408 0,-0.02871 0.0012,-0.04225 0.0035,-0.0195 0.0085,-0.03629 0.01606,-0.05487 0.0046,-0.01679 0.01453,-0.03304 0.02256,-0.04929 0.0076,-0.013 0.01409,-0.02546 0.02018,-0.03792 0.0052,-0.0054 0.0082,-0.0092 0.01041,-0.01246 5.96e-4,0 0.0024,-0.0054 0.0024,-0.0054 0.01106,-0.01029 0.0193,-0.02058 0.03016,-0.03087 0.06984,-0.07313 0.145116,-0.142946 0.215836,-0.213471 0.07007,-0.06532 0.138618,-0.131408 0.204782,-0.1989 0.06226,-0.06143 0.119524,-0.124096 0.173539,-0.193267 0.03471,-0.0455 0.06812,-0.09441 0.09349,-0.147062 0.01106,-0.02871 0.02386,-0.05715 0.03015,-0.08791 0.0048,-0.0195 0.0082,-0.04063 0.0065,-0.05942 0,-0.0076 0,-0.01733 -0.0016,-0.02492 -0.0012,-0.0081 -0.0012,-0.01625 -0.0035,-0.02383 -0.0012,-0.01517 -0.0012,-0.02817 -0.003,-0.04387 -0.0028,-0.02871 -0.0059,-0.05579 -0.0093,-0.08461 -0.0045,-0.02275 -0.008,-0.0455 -0.0093,-0.0683 -0.0016,-0.01029 -0.0016,-0.02058 -0.0032,-0.03087 -0.0016,-0.0054 -0.0016,-0.006 -0.0016,-0.0087 L 3.832783,0.8288095 c -0.03016,-0.00542 -0.06074,-0.013 -0.09046,-0.018417 -0.059,-0.010833 -0.11606,-0.021667 -0.172459,-0.02925 -0.07224,-0.011917 -0.145126,-0.0195 -0.216276,-0.024375 -0.05597,-0.00542 -0.111503,-0.0065 -0.167034,-0.00542 -0.05098,0 -0.101957,0.00542 -0.147729,0.021667 -0.0045,0 -0.01301,0.00596 -0.0206,0.00812 -0.0065,0.00542 -0.01237,0.00596 -0.01909,0.00813 -0.01409,0.0065 -0.03058,0.011375 -0.04295,0.016792 -0.04448,0.01625 -0.08742,0.029792 -0.128422,0.042792 -0.06703,0.018417 -0.13016,0.036833 -0.19719,0.054871 -0.06139,0.015708 -0.125383,0.030875 -0.188943,0.047667 -0.04121,0.011375 -0.08243,0.023833 -0.123434,0.031958 -0.03514,0.00596 -0.06985,0.00921 -0.0987,0.026542 -0.0243,0.01246 -0.04078,0.03304 -0.059,0.05363 -0.03818,0.04496 -0.07116,0.08959 -0.103043,0.1365 C 2.014503,1.259007 1.973503,1.320754 1.931849,1.38245 1.889119,1.44832 1.846159,1.515429 1.80343,1.581079 1.76655,1.638389 1.73011,1.695642 1.693666,1.752463 c -0.0048,0.0081 -0.0093,0.01625 -0.01409,0.02383 l -1.1291104,-0.164396 0.00607,0.03792 1.0768284,0.199549 c 0,0 -0.0028,0 -0.0028,0.0054 -0.0048,0.007 -0.0097,0.01408 -0.01453,0.02004 -0.0032,0.007 -0.0063,0.013 -0.01106,0.01842 -0.005,0.0054 -0.008,0.01029 -0.01129,0.01517 -0.003,0.0054 -0.0052,0.006 -0.0061,0.0092 -0.0016,0.0054 -0.0046,0.0054 -0.0067,0.0087 -0.01063,0.01517 -0.02712,0.02763 -0.04447,0.03521 -0.01561,0.0081 -0.03189,0.013 -0.04708,0.01733 -0.01627,0.0054 -0.03232,0.0065 -0.04794,0.01246 -0.01606,0.0054 -0.02842,0.01029 -0.03948,0.01787 -0.0067,0.0054 -0.01301,0.0081 -0.01819,0.013 -0.0043,0.0054 -0.0089,0.01137 -0.01346,0.01842 -0.0022,0 -0.0052,0.0054 -0.0052,0.0081 -0.003,0 -0.003,0.0054 -0.0048,0.0076 -0.0014,0 -0.0032,0.0054 -0.0045,0.007 0,0 -0.0016,0.0054 -0.0035,0.007 0,0 -0.0014,0.0054 -0.0014,0.006 0,0 -0.0016,0.0054 -0.0016,0.0076 L 0.0112916,1.596351 0,1.651276 l 1.357534,0.5837 c 0.0016,0 0.0016,0.0054 0.0032,0.006 0.0048,0.01354 0.01106,0.02654 0.01909,0.03737 0.0078,0.01138 0.01584,0.02221 0.02668,0.03087 0.01,0.01029 0.02104,0.01842 0.03406,0.02654 0.0078,0.006 0.01909,0.01029 0.03145,0.01354 0.01106,0.0054 0.02364,0.0076 0.03818,0.0092 0.0014,0 0.0032,0 0.008,0 h 0.01432 c 0.0076,0 0.01692,0 0.02517,0 0.01561,0 0.03037,-0.0054 0.04447,-0.0092 0.01736,-0.0065 0.03644,-0.01679 0.0525,-0.02979 0.01758,-0.01246 0.03189,-0.02871 0.04621,-0.04604 0.0128,-0.01788 0.02343,-0.03737 0.03644,-0.0579 0.0061,-0.01083 0.0093,-0.02275 0.01409,-0.03413 0.0063,-0.01137 0.0098,-0.02438 0.01561,-0.03521 0.005,-0.0092 0.01106,-0.01842 0.01453,-0.02763 0.0078,-0.01192 0.01606,-0.02492 0.02538,-0.03792 0.0095,-0.01571 0.01909,-0.03196 0.03037,-0.04821 0.0093,-0.01408 0.01909,-0.02925 0.02863,-0.04387 0.01258,-0.01679 0.02364,-0.03412 0.03471,-0.052 0.0014,0 0.005,-0.006 0.008,-0.0097 l 0.790702,0.1482 c -0.0012,0.0076 -0.0048,0.01408 -0.0063,0.02167 -0.02364,0.05709 -0.04469,0.115158 -0.06356,0.17355 -0.02083,0.06012 -0.03493,0.120846 -0.05098,0.18265 -0.01238,0.06094 -0.02191,0.121062 -0.02712,0.182866 -0.003,0.05037 -0.003,0.101292 0.0097,0.14923 0.0085,0.04388 0.02842,0.08504 0.05098,0.122795 0.04599,0.07508 0.106295,0.137963 0.160527,0.203071 0.06161,0.07091 0.120831,0.14403 0.180484,0.216071 0.05575,0.06722 0.114756,0.132546 0.173542,0.198629 0.04621,0.05254 0.09219,0.105084 0.139484,0.15535 0.02712,0.02817 0.05424,0.05688 0.08091,0.08564 0.01149,0.01138 0.02257,0.02275 0.02885,0.03629 0.0048,0.0081 0.0078,0.01625 0.0078,0.02492 0.0016,0.0081 0.0016,0.01625 0,0.02438 0,0.0097 -0.003,0.01842 -0.0048,0.02708 -0.003,0.0092 -0.0048,0.01842 -0.0093,0.02654 -0.0033,0.01083 -0.0067,0.02167 -0.0097,0.03304 -0.008,0.02004 -0.01432,0.04225 -0.02038,0.06424 -0.01129,0.03467 -0.02538,0.07166 -0.03644,0.108062 -0.01606,0.04712 -0.03037,0.09501 -0.04794,0.143 -0.01432,0.04333 -0.02712,0.08678 -0.04274,0.131192 -0.01606,0.04821 -0.03189,0.09604 -0.04621,0.144896 -0.003,0.0087 -0.0059,0.01733 -0.008,0.02546 h -0.04599 c -0.03037,0 -0.06009,0 -0.09002,-0.0054 -0.07658,0 -0.152936,0 -0.228642,0 -0.09697,0 -0.192417,0 -0.287864,0 H 2.265623 2.132645 c -0.02082,0 -0.04273,0 -0.06529,0 l -0.04577,0.08878 c 0.02582,0 0.04924,0.0054 0.07463,0.006 0.05553,0.0054 0.107596,0.0087 0.161825,0.01192 0.08287,0.007 0.165082,0.01463 0.244695,0.02058 0.08265,0.0065 0.163347,0.01517 0.244694,0.02167 0.100003,0.0092 0.200008,0.01788 0.30023,0.02708 0.01867,0 0.03753,0.0054 0.05553,0.0054 0,0.0054 0,0.0092 -0.0035,0.01354 -0.0016,0.0092 -0.0048,0.01842 -0.0076,0.02763 -0.007,0.02167 -0.01281,0.04333 -0.01953,0.06424 -0.0063,0.026 -0.0141,0.052 -0.02038,0.0787 -0.0063,0.02167 -0.0128,0.04333 -0.01606,0.06511 -0.0048,0.01679 -0.008,0.03358 -0.01106,0.05146 0,0.0097 -0.0016,0.01896 -0.0016,0.02817 -10e-4,0.01842 -10e-4,0.03792 -0.0046,0.05444 -0.0012,0.01192 -0.0035,0.02221 -0.0097,0.0325 -0.0026,0.0081 -0.0061,0.01463 -0.0093,0.02167 -0.0035,0.006 -0.0063,0.01138 -0.01149,0.01625 -0.0043,0.0054 -0.0076,0.0081 -0.0089,0.01138 -0.0035,0.0054 -0.0067,0.0081 -0.008,0.01138 -0.0022,0.0054 -0.0035,0.007 -0.0035,0.01138 -0.0012,0.007 -0.0012,0.01408 -0.0012,0.02112 v 0.02329 c 0.0012,0.01192 0.0012,0.02492 0.0012,0.03629 0.0012,0.013 0.0035,0.026 0.0048,0.03954 0.0016,0.01192 0.0032,0.02492 0.005,0.03792 0.0016,0.007 0.0016,0.01354 0.0016,0.02004 0.0012,0.006 0.003,0.01138 0.003,0.01788 v 0.0054 c -0.01453,-0.0054 -0.02907,-0.0076 -0.04447,-0.01246 -0.03037,-0.0087 -0.06204,-0.01625 -0.09219,-0.02438 C 2.77107,5.363535 2.69471,5.344035 2.618352,5.325131 2.524857,5.300214 2.428107,5.275839 2.334395,5.252276 2.256517,5.232235 2.17929,5.211651 2.099028,5.193722 c -0.04404,-0.01192 -0.08547,-0.02167 -0.130156,-0.0325 -0.01867,-0.0054 -0.041,-0.01138 -0.06313,-0.01571 z M 4.736866,0.5428637 c 0.0016,-0.00758 0.0016,-0.015708 0.0033,-0.023292 0.008,-0.053083 0.01107,-0.1070333 0,-0.1590875 -0.0063,-0.0455 -0.01909,-0.091758 -0.041,-0.1325458 C 4.67829,0.1878553 4.654429,0.1511845 4.621021,0.1195512 4.595644,0.0940928 4.568529,0.0724262 4.538156,0.0557428 4.49889,0.0324512 4.457241,0.0167428 4.414508,0.0086178 4.365265,-0.0016738 4.314286,-0.0032988 4.265261,0.0032012 4.222524,0.0118678 4.181526,0.0264928 4.143131,0.0481595 4.101482,0.0687428 4.066771,0.0974512 4.035101,0.130222 c -0.02886,0.030333 -0.05402,0.066083 -0.0731,0.103675 -0.02365,0.044958 -0.04274,0.093708 -0.04903,0.1451125 -0.01149,0.052542 -0.01149,0.1080625 0,0.1602792 0.0063,0.043333 0.02364,0.085475 0.04295,0.1232833 0.02191,0.039 0.04859,0.073287 0.07918,0.1040542 0.02538,0.023292 0.05249,0.0455 0.08438,0.062508 0.03774,0.022208 0.08091,0.037917 0.124951,0.0455 0.05098,0.010833 0.106513,0.010292 0.159008,0 0.04469,-0.00921 0.08439,-0.023833 0.122565,-0.0455 0.03644,-0.020583 0.07289,-0.048208 0.101304,-0.078758 0.0256,-0.024917 0.0462,-0.053625 0.06378,-0.084392 0.01887,-0.033583 0.03297,-0.068954 0.04057,-0.1060583 0.0022,-0.00704 0.0035,-0.013542 0.0052,-0.020042 z M 2.745685,1.958293 1.961277,1.843135 c 0.0063,-0.0054 0.0093,-0.01137 0.01409,-0.01733 0.02885,-0.04225 0.05553,-0.08455 0.0859,-0.125937 0.02559,-0.03846 0.05228,-0.07638 0.07593,-0.113913 0.02386,-0.03196 0.0462,-0.06245 0.0666,-0.09441 0.01453,-0.0195 0.02712,-0.03954 0.03992,-0.05725 0.0098,-0.013 0.01627,-0.02438 0.02408,-0.03575 0.0012,0 0.0012,0 0.003,0 0,0 0.0016,-0.0054 0.0045,-0.0054 0.0048,-0.0054 0.0098,-0.0054 0.01584,-0.007 0.0085,0 0.01952,-0.0054 0.03059,-0.006 0.041,-0.007 0.08677,-0.0081 0.130158,-0.0092 0.0538,0 0.109766,0 0.163562,0 0.04751,0 0.09675,0 0.144261,0.0054 0.01561,0 0.03384,0 0.04945,0 0.0078,0 0.01909,0 0.0269,0 0,0.01896 -0.0016,0.039 -0.003,0.05948 -0.0016,0.03792 -0.007,0.07659 -0.01,0.115646 -0.0061,0.04658 -0.01041,0.09452 -0.01715,0.141375 -0.0063,0.03792 -0.01106,0.07513 -0.01758,0.112233 -0.0063,0.03358 -0.01301,0.06657 -0.02191,0.09885 -0.0033,0.0054 -0.005,0.0092 -0.005,0.01354 l -0.01584,0.04008 z" id="path560-8" style="display:inline;fill:#ffffff;fill-opacity:1;fill-rule:nonzero;stroke-width:0.2048712" /><path style="fill:#ffffff;fill-opacity:1;fill-rule:evenodd;stroke:none;stroke-width:1.9839761" d="M 28.14648 25.4707 L 27.6875 25.55078 C 26.47132 26.13208 26.05337 27.44158 27.14258 28.43555 L 27.47852 28.64844 L 27.89648 28.85547 L 28.39844 28.89648 L 28.89844 28.85547 C 30.72173 28.20869 30.39101 25.91114 28.60742 25.4707 L 28.14648 25.4707 z M 30.73633 28.60156 L 30.06836 28.9375 L 26.30664 31.57227 L 25.97266 31.48242 L 22.75391 29.72656 L 22 29.65234 L 22.08594 30.90234 L 22.08594 30.91797 C 22.2129 30.96112 22.54102 31.50391 22.54102 31.50391 L 23.0918 32.63281 L 23.63281 33.7207 L 24.34375 35.09766 L 25.0957 36.64648 L 26.14062 38.85938 L 27.8125 42.20508 L 28.39648 43.45703 L 28.85547 44.58594 L 29.44141 45.67383 L 29.73438 46.00781 L 30.0293 46.38672 L 30.06836 46.29688 L 30.0293 46.08789 L 28.93945 43.87305 L 25.17773 35.96875 L 24.63477 34.84375 L 23.9668 33.50195 L 23.71484 32.875 L 23.42188 32.20898 L 23.63281 31.91602 L 23.8418 31.96094 L 26.30664 33.29688 L 26.72461 33.29688 L 27.10156 33.0918 L 29.15039 31.66992 L 29.52539 31.66992 L 30.15234 32.21094 L 32.74414 35.22266 L 33.45508 36.05664 L 33.28711 36.43164 L 32.49219 37.35352 L 31.69727 38.27148 L 31.32227 38.73438 L 30.86328 39.19141 L 30.57031 39.61133 L 30.36133 40.02734 L 30.44531 40.61523 L 30.94727 42.57812 L 31.36719 44.29297 L 31.53125 45.08594 L 31.69727 45.83789 L 31.86719 46.21289 L 32.45117 46.67383 L 33.12109 46.58398 L 33.37305 46.29688 L 33.49609 45.87891 L 33.41406 45.29102 L 33.33008 44.75 L 33.03711 43.6582 L 32.78516 42.61719 L 32.61914 41.69727 L 32.45117 40.73633 L 32.57617 40.52734 L 32.86914 40.15039 L 33.37305 39.56445 L 33.87305 39.02148 L 34.625 38.22852 L 35.41992 37.43359 L 35.83789 37.43359 L 36.25391 37.76953 L 38.26172 40.10547 L 38.55469 40.44336 L 38.88867 40.73633 L 39.51367 41.02734 L 45.07422 42.40625 L 45.49219 42.33203 L 45.91016 41.99414 L 46.0332 41.61914 L 45.91016 41.0332 L 45.66016 40.82617 L 45.24219 40.57617 L 43.27734 40.11328 L 41.43945 39.61523 L 40.77148 39.4043 L 40.09766 39.19531 L 37.13281 35.64258 L 36.71289 33.96875 L 34.16211 30.96094 L 34.16211 30.79297 L 34.24805 30.625 L 35.00195 30.58008 L 35.41992 30.6543 L 35.88086 31.0332 L 36.21289 31.49219 L 36.88281 32.33008 L 37.55078 33.08398 L 38.09375 33.49805 L 38.42773 33.54102 L 38.5957 33.49805 L 39.01562 33.28906 L 39.39062 33.08398 L 39.84961 33.08398 L 42.06641 33.03906 L 44.27734 32.99414 L 45.70312 32.875 L 47.20508 32.66797 L 47.41602 32.5 L 47.20508 32.45508 L 39.05664 32.5 L 35.71094 28.98828 L 35.41992 28.90039 L 31.99414 28.81055 L 31.6582 28.69141 L 31.28125 28.60156 L 30.73633 28.60156 z M 47.875 41.43555 L 47.33203 41.68945 L 47.12305 41.73242 L 46.16211 42.44531 L 42.65234 44.6582 L 42.56836 44.69727 L 41.10352 45.66211 L 41.01953 45.70312 L 38.97266 46.91602 L 38.5957 46.87109 L 38.0957 46.66406 L 37.92773 46.70703 L 37.80273 47.04102 L 23.25586 47 L 22.67773 46.32031 L 22.83789 46.70703 L 22.71484 46.70703 L 22.54297 46.41602 L 22.33789 46.08008 L 22.125 46.16211 L 22.21289 46.41602 L 22.50195 46.95703 L 22.83789 47.29102 L 23.21484 47.54102 L 23.63281 47.75195 L 24.05078 47.91992 L 24.76172 48 L 24.76172 48.00195 L 24.92773 48.00195 C 30.84197 47.88668 36.91603 47.91724 42.81836 47.70898 L 43.02734 47.41602 L 42.94531 47.21094 L 42.52539 46.91602 L 40.93555 46.91602 L 40.89453 46.70703 L 41.26953 46.41602 L 42.69141 45.53906 L 44.07422 44.61914 L 46.03711 43.4043 L 48 42.15039 L 47.91406 41.43555 L 47.875 41.43555 z M 22.67773 46.32031 L 22.62891 46.20312 L 22.54297 46.16211 L 22.67773 46.32031 z " transform="scale(0.2645833)" id="path28950" /></svg>