<?xml version="1.0" encoding="UTF-8" standalone="no"?><svg xmlns:dc="http://purl.org/dc/elements/1.1/" xmlns:cc="http://creativecommons.org/ns#" xmlns:rdf="http://www.w3.org/1999/02/22-rdf-syntax-ns#" xmlns:svg="http://www.w3.org/2000/svg" xmlns="http://www.w3.org/2000/svg" xmlns:sodipodi="http://sodipodi.sourceforge.net/DTD/sodipodi-0.dtd" xmlns:inkscape="http://www.inkscape.org/namespaces/inkscape" version="1.1" id="Capa_1" x="0px" y="0px" width="504.256px" height="504.256px" viewBox="0 0 504.256 504.256" style="enable-background:new 0 0 504.256 504.256;" xml:space="preserve" sodipodi:docname="221.svg" inkscape:version="0.92.3 (2405546, 2018-03-11)"><defs id="defs39" /><sodipodi:namedview pagecolor="#ffffff" bordercolor="#666666" borderopacity="1" objecttolerance="10" gridtolerance="10" guidetolerance="10" inkscape:pageopacity="0" inkscape:pageshadow="2" inkscape:window-width="1639" inkscape:window-height="840" id="namedview37" showgrid="false" inkscape:zoom="0.4680162" inkscape:cx="-347.2102" inkscape:cy="252.128" inkscape:window-x="1202" inkscape:window-y="315" inkscape:window-maximized="0" inkscape:current-layer="Capa_1" /><path inkscape:connector-curvature="0" id="path2" d="M 478.755,125.762 114.773,125.699 99.517,73.176 C 97.243,65.345 90.939,59.158 83.067,57.029 L 29.673,42.591 C 27.661,42.047 25.592,41.771 23.524,41.771 12.928,41.771 3.594,48.921 0.826,59.159 -0.815,65.224 0.006,71.566 3.136,77.015 6.265,82.464 11.328,86.368 17.394,88.008 L 58.025,98.995 140.511,396.517 C 128.762,402.314 121.144,414.326 121.144,427.701 121.144,446.881 136.748,462.484 155.927,462.484 175.106,462.484 190.711,446.88 190.711,427.701 190.711,427.248 190.702,426.797 190.685,426.344 H 358.602 C 358.583,426.797 358.576,427.25 358.576,427.701 358.576,446.881 374.18,462.484 393.36,462.484 412.54,462.484 428.143,446.88 428.143,427.701 428.143,410.072 414.741,395.293 397.589,393.183 355.852,386.443 185.516,378.206 185.516,378.206 L 179.921,356.312 H 392.451 C 403.317,356.312 412.977,349.01 415.946,338.558 L 461.876,176.761 H 478.756 C 492.839,176.761 504.256,165.344 504.256,151.261 504.256,137.178 492.838,125.762 478.755,125.762 Z M 208.05,302.168 H 168.211 C 167.122,302.148 165.523,302.399 164.794,299.836 163.868,296.582 162.571,292.111 162.571,292.111 L 131.348,182.121 C 131.196,181.586 131.306,181 131.641,180.557 131.978,180.111 132.512,179.845 133.071,179.845 H 181.489 C 182.333,179.845 183.051,180.42 183.234,181.244 L 209.641,299.49 209.737,299.855 C 209.787,300.018 209.812,300.193 209.812,300.376 209.812,301.356 209.023,302.153 208.05,302.168 Z M 309.718,182.025 288.199,300.771 C 288.016,301.593 287.299,302.167 286.455,302.167 H 256.405 C 255.56,302.167 254.842,301.591 254.657,300.769 L 233.14,182.021 C 233.021,181.491 233.149,180.942 233.492,180.515 233.833,180.09 234.342,179.846 234.887,179.846 H 307.971 C 308.517,179.846 309.026,180.09 309.368,180.518 309.71,180.942 309.837,181.493 309.718,182.025 Z M 411.511,182.125 377.802,300.867 C 377.584,301.634 376.876,302.171 376.08,302.171 H 334.853 C 334.306,302.171 333.797,301.927 333.457,301.501 333.115,301.074 332.988,300.522 333.106,299.99 L 359.623,181.245 C 359.804,180.435 360.539,179.847 361.371,179.847 H 409.788 C 410.346,179.847 410.879,180.112 411.215,180.557 411.553,181.001 411.662,181.587 411.511,182.125 Z" style="fill:#ffffff;fill-opacity:1" /></svg>