<?xml version="1.0" encoding="UTF-8" standalone="no"?><svg xmlns:dc="http://purl.org/dc/elements/1.1/" xmlns:cc="http://creativecommons.org/ns#" xmlns:rdf="http://www.w3.org/1999/02/22-rdf-syntax-ns#" xmlns:svg="http://www.w3.org/2000/svg" xmlns="http://www.w3.org/2000/svg" height="48" width="48" xml:space="preserve" viewBox="0 0 47.999999 47.999999" y="0px" x="0px" id="Ebene_1" version="1.1"><defs id="defs21" /><path style="stroke-width:0.2387466;fill:#ffffff;fill-opacity:1" id="path3389" d="M 0.30535753,23.95822 C 0.30535753,18.467049 0.30535753,12.975877 0.30535753,7.4847053 0.30535753,7.0549616 0.30535753,6.6013429 0.3292322,6.1715992 0.52022953,2.3755284 2.7405728,0.05968682 6.5366432,0.03581215 18.235227,-0.01193718 29.933808,-0.01193718 41.608515,0.03581215 45.141964,0.05968682 47.290684,2.1606567 47.648804,5.6702314 47.696555,6.1715992 47.720427,6.6968416 47.720427,7.222084 47.720427,18.443174 47.720427,29.664262 47.720427,40.885353 47.720427,41.720964 47.696555,42.556577 47.529431,43.368315 47.004187,46.018404 45.070341,47.665755 42.277007,47.95225 41.727888,48 41.154896,48 40.60578,48 29.551813,48 18.497846,48 7.4200056,48 6.7515152,48 6.0591501,48 5.3906597,47.904502 2.2630797,47.403133 0.37698153,45.373787 0.3292322,42.079084 0.23373353,36.038797 0.30535753,29.998507 0.30535753,23.934345 0.3292322,23.95822 0.3292322,23.95822 0.30535753,23.95822 Z M 8.9479838,1.8980354 C 7.7781256,1.8980354 6.7515152,1.8264114 5.7249051,1.92191 3.9820549,2.0890327 2.5734501,3.3305149 2.2869544,5.0494901 2.095957,6.1238498 2.0720824,7.2698333 2.0720824,8.3680677 2.0482077,17.941805 2.0482077,27.539417 2.0720824,37.113157 2.0720824,38.927629 2.167581,40.76598 2.2630797,42.580452 2.3585781,44.156181 3.5523112,45.827405 5.0086653,45.946778 7.3245069,46.137777 9.6403488,45.994528 11.980065,45.994528 11.980065,39.858741 11.980065,33.794578 11.980065,27.754289 9.0434824,27.420044 8.9718584,27.348421 8.9718584,24.435713 8.9718584,20.186024 8.9718584,15.936334 8.9718584,11.686645 8.9479838,8.4635664 8.9479838,5.2643621 8.9479838,1.8980354 Z M 39.292673,1.8980354 C 39.292673,2.4949018 39.292673,2.9007711 39.292673,3.3305149 39.292673,10.492912 39.292673,17.631435 39.292673,24.793833 39.292673,27.300671 39.125552,27.467794 36.642588,27.706541 36.570962,27.706541 36.523214,27.802039 36.475464,27.825914 36.475464,33.890077 36.475464,39.954239 36.475464,46.090027 38.218313,46.090027 39.88954,46.113902 41.560767,46.090027 44.306351,46.066151 45.905955,44.585924 45.92983,41.840337 45.977578,29.831386 45.977578,17.822432 45.953702,5.8134792 45.953702,3.6886346 44.210853,1.993534 42.086008,1.8980354 41.202647,1.850286 40.343158,1.8980354 39.292673,1.8980354 Z M 13.651291,27.730416 C 13.651291,33.890077 13.651291,39.954239 13.651291,46.233275 16.51625,46.233275 19.285712,46.233275 22.055171,46.233275 23.153406,46.233275 23.463776,45.612533 23.4399,44.609799 23.4399,40.718229 23.463776,36.82666 23.487651,32.911215 23.487651,31.216115 23.487651,29.521014 23.487651,27.825914 23.272779,27.754289 23.153406,27.682666 23.057905,27.658791 20.336196,27.324546 20.336196,27.324546 20.336196,24.602834 20.336196,17.535936 20.336196,10.445163 20.336196,3.3782642 20.336196,2.9007711 20.336196,2.4471524 20.336196,1.9457847 18.951464,1.9457847 17.709983,1.9457847 16.373002,1.9457847 16.373002,4.643621 16.373002,7.2698333 16.373002,9.8721712 16.373002,15.124596 16.373002,20.37702 16.373002,25.605571 16.373002,27.014176 15.967133,27.443919 14.582403,27.611043 14.295907,27.706541 14.009411,27.706541 13.651291,27.730416 Z M 25.039504,27.730416 C 25.039504,33.890077 25.039504,39.930366 25.039504,45.970653 28.334207,45.970653 31.533409,45.970653 34.708739,45.970653 34.708739,39.858741 34.708739,33.818454 34.708739,27.802039 31.867654,27.276795 31.867654,27.276795 31.867654,24.340215 31.867654,17.29719 31.867654,10.27804 31.867654,3.2350162 31.867654,2.8052725 31.867654,2.3994031 31.867654,1.9696594 30.435177,1.9696594 29.145945,1.9696594 27.761213,1.9696594 27.761213,2.5187764 27.761213,2.9962695 27.761213,3.4737629 27.761213,10.588411 27.761213,17.703059 27.761213,24.817706 27.761213,27.229048 27.522466,27.49167 25.039504,27.730416 Z" /><path style="fill:none;stroke-width:0.23874657;fill-opacity:1" id="path3391" d="M 8.9479838,1.8980354 C 8.9479838,5.2404874 8.9479838,8.4635664 8.9479838,11.66277 8.9479838,15.91246 8.9479838,20.162148 8.9479838,24.411838 8.9479838,27.300671 9.0196078,27.372296 11.956191,27.730416 11.956191,33.770703 11.956191,39.834865 11.956191,45.970653 9.6403488,45.970653 7.3006323,46.113902 4.9847907,45.922905 3.5284365,45.803532 2.3347034,44.132305 2.239205,42.556577 2.1198317,40.742104 2.0482077,38.903754 2.0482077,37.089281 2.024333,27.515542 2.024333,17.917931 2.0482077,8.3441931 2.0482077,7.2459586 2.0720824,6.1238498 2.2630797,5.0256157 2.5734501,3.3066402 3.9581802,2.065158 5.7010304,1.8980354 6.7515152,1.8264114 7.7781256,1.8980354 8.9479838,1.8980354 Z" class="st0" /><path style="fill:none;stroke-width:0.23874657" id="path3393" d="M 39.292673,1.8980354 C 40.343158,1.8980354 41.226522,1.8741607 42.086008,1.8980354 44.186978,1.993534 45.953702,3.7125093 45.953702,5.8134792 45.977578,17.822432 45.977578,29.831386 45.92983,41.840337 45.92983,44.585924 44.306351,46.066151 41.560767,46.090027 39.88954,46.113902 38.242189,46.090027 36.475464,46.090027 36.475464,39.954239 36.475464,33.890077 36.475464,27.825914 36.523214,27.802039 36.570962,27.706541 36.642588,27.706541 39.125552,27.467794 39.292673,27.300671 39.292673,24.793833 39.292673,17.631435 39.292673,10.492912 39.292673,3.3305149 39.292673,2.9007711 39.292673,2.4710271 39.292673,1.8980354 Z" class="st0" /><path style="fill:none;stroke-width:0.23874657" id="path3395" d="M 13.651291,27.730416 C 14.033286,27.706541 14.295907,27.706541 14.582403,27.658791 15.967133,27.467794 16.373002,27.061924 16.373002,25.653319 16.373002,20.400895 16.373002,15.14847 16.373002,9.9199205 16.373002,7.293708 16.373002,4.6913703 16.373002,1.993534 17.709983,1.993534 18.951464,1.993534 20.336196,1.993534 20.336196,2.4949018 20.336196,2.9723949 20.336196,3.4260135 20.336196,10.492912 20.336196,17.583686 20.336196,24.650585 20.336196,27.372296 20.336196,27.372296 23.057905,27.706541 23.177279,27.730416 23.272779,27.778164 23.487651,27.873662 23.487651,29.544889 23.487651,31.263866 23.487651,32.958965 23.463776,36.850535 23.4399,40.742104 23.4399,44.657547 23.4399,45.660284 23.153406,46.281025 22.055171,46.281025 19.285712,46.281025 16.51625,46.281025 13.651291,46.281025 13.651291,39.954239 13.651291,33.890077 13.651291,27.730416 Z" class="st0" /><path style="fill:none;stroke-width:0.23874657" id="path3397" d="M 25.039504,27.730416 C 27.522466,27.49167 27.785088,27.205172 27.785088,24.817706 27.785088,17.703059 27.785088,10.588411 27.785088,3.4737629 27.785088,2.9962695 27.785088,2.5426511 27.785088,1.9696594 29.145945,1.9696594 30.435177,1.9696594 31.891529,1.9696594 31.891529,2.3994031 31.891529,2.8052725 31.891529,3.2350162 31.891529,10.27804 31.891529,17.29719 31.891529,24.340215 31.891529,27.276795 31.891529,27.276795 34.732614,27.802039 34.732614,33.818454 34.732614,39.858741 34.732614,45.970653 31.533409,45.970653 28.334207,45.970653 25.063377,45.970653 25.039504,39.954239 25.039504,33.890077 25.039504,27.730416 Z" class="st0" /></svg>