<?xml version="1.0" encoding="UTF-8" standalone="no"?><svg xmlns:dc="http://purl.org/dc/elements/1.1/" xmlns:cc="http://creativecommons.org/ns#" xmlns:rdf="http://www.w3.org/1999/02/22-rdf-syntax-ns#" xmlns:svg="http://www.w3.org/2000/svg" xmlns="http://www.w3.org/2000/svg" width="48" height="48" viewBox="0 0 48 48.000001" id="svg69016" version="1.1"><defs id="defs69018" /><path d="m 46.895,19.107 v 13.22 H 48 V 4.4323 C 43.163,4.5474 36.272,2.1051 35.283,0.65116 V 25.621 h 1.115 V 14.115 c 2.132,1.91 6.242,4.507 10.497,4.992 M 5.3216,21.152 0.17418,18.274 v -0.873 l 9.24762,5.195 10.8752,5.7 c 1.057,0.503 0.534,1.929 0.534,1.929 0,0 -3.016,3.905 -5.39,6.658 -2.152,2.492 -4.168,0.892 -2.676,-1.036 l 3.606,-5.254 c 0,0 -1.172,-0.708 -7.7445,-2.656 C 1.6281,25.863 3.9157,22.345 5.3216,21.152 M 31.493,46.781 -5.005e-6,36.691 0.01919,35.344 31.532,45.336 c 1.415,0.427 5.292,1.687 7.483,0.603 -0.436,1.298 -4.895,1.957 -7.522,0.842 M 21.044,25.639 c 0.378,0.622 0.91,4.228 0.959,5.051 0.06,0.824 0.737,1.755 1.27,1.996 0.533,0.253 4.061,1.648 7.425,2.85 1.87,0.669 2.637,-1.648 1.192,-2.17 -0.872,-0.341 -5.447,-2.075 -5.864,-2.337 -0.417,-0.271 -0.407,-0.757 -0.407,-0.757 0,0 -0.388,-11.001 -5.05,-13.221 -6.32,-3.025 -11.4959,1.823 -12.9498,2.851 4.6708,3.275 11.7568,5.737 13.4248,5.737 m 10.642,-7.715 c 0.1,-1.968 -1.415,-3.644 -3.382,-3.741 -1.968,-0.1 -3.645,1.414 -3.751,3.381 -0.1,1.979 1.425,3.656 3.392,3.753 1.968,0.1 3.644,-1.416 3.741,-3.393" style="fill:#ffffff;fill-opacity:1;fill-rule:nonzero;stroke:none;stroke-width:1.199585" id="path42118" /></svg>