<?xml version="1.0" encoding="UTF-8" standalone="no"?><svg xmlns:dc="http://purl.org/dc/elements/1.1/" xmlns:cc="http://creativecommons.org/ns#" xmlns:rdf="http://www.w3.org/1999/02/22-rdf-syntax-ns#" xmlns:svg="http://www.w3.org/2000/svg" xmlns="http://www.w3.org/2000/svg" height="196" width="196" xml:space="preserve" viewBox="0 0 196 196" y="0px" x="0px" id="ico" version="1.1"><defs id="defs37" /><path style="fill:#ffffff;fill-opacity:1" id="path2" d="m 98,84.962 c 14.89,0 27,-12.112 27,-27 0,-14.888 -12.11,-27 -27,-27 -14.888,0 -27,12.112 -27,27 0,14.888 12.112,27 27,27 z m 0,-39 c 6.62,0 12,5.383 12,12 0,6.617 -5.38,12 -12,12 -6.617,0 -12,-5.383 -12,-12 0,-6.617 5.383,-12 12,-12 z m 81.67,89.798 H 14.667 V 75.295 c 0,-27.835 14.291,-52.436 35.164,-67.375 2.44,-1.746 5.836,0.05 5.836,3.05 v 69.741 c 0,10.221 9.196,19.053 19.417,19.053 h 47.166 c 10.04,0 17.42,-8.682 17.42,-18.72 V 10.987 c 0,-3.053 3.45,-4.773 5.93,-2.984 20.67,14.947 34.07,39.508 34.07,67.292 v 60.465 z m 16.33,22.5 c 0,4.15 -3.36,7.5 -7.5,7.5 h -8.83 v 23 H 14.667 v -23 H 7.5 c -4.142,0 -7.5,-3.35 -7.5,-7.5 0,-4.14 3.358,-7.5 7.5,-7.5 h 181 c 4.14,0 7.5,3.36 7.5,7.5 z" /></svg>