<?xml version="1.0" encoding="UTF-8" standalone="no"?><svg xmlns:dc="http://purl.org/dc/elements/1.1/" xmlns:cc="http://creativecommons.org/ns#" xmlns:rdf="http://www.w3.org/1999/02/22-rdf-syntax-ns#" xmlns:svg="http://www.w3.org/2000/svg" xmlns="http://www.w3.org/2000/svg" xmlns:sodipodi="http://sodipodi.sourceforge.net/DTD/sodipodi-0.dtd" xmlns:inkscape="http://www.inkscape.org/namespaces/inkscape" version="1.1" id="svg2" xml:space="preserve" width="40" height="40" viewBox="0 0 40 40" sodipodi:docname="237.svg" inkscape:version="0.92.3 (2405546, 2018-03-11)"><defs id="defs6"><clipPath clipPathUnits="userSpaceOnUse" id="clipPath22"><path d="M 0,425.197 H 425.197 V 0 H 0 Z" id="path20" inkscape:connector-curvature="0" /></clipPath></defs><sodipodi:namedview pagecolor="#ffffff" bordercolor="#666666" borderopacity="1" objecttolerance="10" gridtolerance="10" guidetolerance="10" inkscape:pageopacity="0" inkscape:pageshadow="2" inkscape:window-width="1719" inkscape:window-height="902" id="namedview4" showgrid="false" inkscape:zoom="11.31371" inkscape:cx="8.705358" inkscape:cy="12.32839" inkscape:window-x="559" inkscape:window-y="160" inkscape:window-maximized="0" inkscape:current-layer="svg2" /><g id="g10" inkscape:groupmode="layer" inkscape:label="Icon_Wakeboardlift" transform="matrix(1.3333333,0,0,-1.3333333,0,40.000009)"><path inkscape:connector-curvature="0" id="path26" style="fill:#ffffff;fill-opacity:1;fill-rule:nonzero;stroke:none;stroke-width:6.1481171" d="M 0.095814,5.872162 C 2.130841,5.023722 4.221201,4.513428 6.40993,4.581057 c 1.844435,0.04304 3.578204,0.461109 5.24434,1.205031 4.31598,1.912065 8.57663,1.752214 12.91105,-0.03074 1.45096,-0.602516 3.06791,-0.780811 4.61109,-1.137402 0.25207,-0.06763 0.51644,-0.07993 0.82385,-0.110666 V 3.455952 c -2.10881,-0.03074 -4.07621,0.387331 -5.95138,1.254216 -1.90592,0.879181 -3.87946,1.389474 -6.00056,1.389474 -2.08422,0 -4.03317,-0.485701 -5.91449,-1.340289 C 8.481846,3.080917 4.762235,3.044028 0.9749947,4.267503 0.1941839,4.513428 -0.1931475,4.90076 0.095814,5.872162" /><path d="M 17.95978,19.41585 H 29.9978 v 0.99599 H 17.95978 Z" style="fill:#ffffff;fill-opacity:1;fill-rule:nonzero;stroke:none;stroke-width:6.1481171" id="path28" inkscape:connector-curvature="0" /><path inkscape:connector-curvature="0" id="path32" style="fill:#ffffff;fill-opacity:1;fill-rule:evenodd;stroke:none;stroke-width:6.1481171" d="M 9.930342,19.55234 9.161827,16.50287 11.47352,16.37376 c 1.06977,-0.0246 1.99199,-0.38733 2.84043,-1.05132 1.61081,-1.26652 3.28924,-2.41621 4.8939,-3.69502 0.57178,-0.44267 0.98985,-1.08207 1.67229,-1.850586 l 2.80354,0.295106 c 0.65785,0.0861 1.24192,0.0246 1.32184,-0.780807 0.0553,-0.737774 -0.45496,-0.897625 -1.10051,-0.952958 L 4.851997,6.266259 4.05889,6.192482 C 3.468671,6.137149 3.155117,6.39537 3.099784,6.967145 3.038303,7.545067 3.30882,7.86477 3.886743,7.926251 L 8.56546,8.430396 7.311244,10.31172 c -0.276665,0.41192 -0.596367,0.79926 -0.836144,1.24807 -0.387331,0.76236 -0.873032,1.19888 -1.832139,1.19273 -0.94681,-0.0184 -1.518585,0.6517 -1.641547,1.66614 -0.06763,0.57178 -0.06763,1.18659 0.03689,1.76451 0.233628,1.27266 0.528738,2.53917 0.84844,3.79954 0.497997,1.99814 1.24192,2.56991 3.190873,2.6191 -0.227481,0.61481 -0.584071,1.25421 -0.682441,1.91821 -0.104518,0.76851 0.258221,1.45095 0.989847,1.83829 0.94681,0.51029 2.102656,0.12296 2.569912,-0.83 0.620955,-1.3157 0.06148,-2.45925 -1.537029,-3.17243 1.43866,-0.68244 2.871174,-1.44481 4.359014,-2.03503 0.54718,-0.20903 1.26651,-0.043 1.90592,0.006 0.55333,0.0492 1.10051,0.20904 1.65999,0.25822 0.56562,0.043 1.00214,-0.166 1.07592,-0.79925 0.0615,-0.61481 -0.25207,-0.95296 -0.84229,-1.02059 -2.24407,-0.25822 -4.51887,-1.02673 -6.646117,0.78696 M 18.18726,9.469428 c -1.45095,0.971402 -2.7728,1.666142 -3.87331,2.612952 -1.93666,1.67843 -4.03317,0.69474 -6.228043,0.77466 l 2.742063,-4.174571 7.35929,0.786959" /></g></svg>