<?xml version="1.0" encoding="UTF-8" standalone="no"?><svg xmlns:dc="http://purl.org/dc/elements/1.1/" xmlns:cc="http://creativecommons.org/ns#" xmlns:rdf="http://www.w3.org/1999/02/22-rdf-syntax-ns#" xmlns:svg="http://www.w3.org/2000/svg" xmlns="http://www.w3.org/2000/svg" id="svg1691" version="1.1" viewBox="0 0 10.583333 10.583333" height="40" width="40"><defs id="defs1685" /><path d="M 4.413,4.49 C 4.433,4.39 4.453,4.34 4.465,4.28 4.528,3.95 4.51,3.64 4.2449,3.37 4.1979,3.55 4.1509,3.73 4.1072,3.91 c -0.015,0.1 0,0.12 0.039,0.18 0.059,0.1 0.1137,0.16 0.1647,0.25 0.03,0.1 0.058,0.1 0.102,0.15 M 8.015,3.06 c -0.01,0 0,0 -0.01,0 -0.064,0 -0.1275,0 -0.1909,0 -0.1428,0 -0.2842,0 -0.4277,0.1 -0.093,0 -0.193,0 -0.2805,0 -0.1122,0 -0.2237,-0.1 -0.3395,-0.1 -0.082,0 -0.1661,0 -0.2477,0 -0.089,0 -0.1778,0 -0.2645,-0.1 -0.075,0 -0.1464,-0.1 -0.2193,-0.1 -0.041,0 -0.073,0 -0.093,0 C 5.8729,3 5.8158,3.15 5.8202,3.31 c 0.01,0.27 0.015,0.54 0.03,0.81 0,0.1 -0.015,0.12 -0.081,0.16 -0.2812,0.17 -0.5588,0.35 -0.8364,0.53 -0.02,0 -0.047,0 -0.043,0.1 0.01,0 0.077,0.1 0.1093,0.1 0.018,0 0.035,0 0.053,0 C 6.021,4.4 6.9901,3.78 7.959,3.16 c 0.02,0 0.038,0 0.057,0 M 4.3199,8.81 c 0.01,0.11 0.02,0.23 0.026,0.34 0,0.1 0.023,0.1 0.075,0.1 0.2688,0 0.5377,0 0.8065,0 0.095,0 0.094,0 0.1144,-0.1 0.069,-0.3 0.082,-0.61 0.059,-0.91 -0.01,-0.12 0,-0.23 0.01,-0.35 0.01,-0.16 0.026,-0.31 0.035,-0.47 0,-0.1 0,-0.1 -0.083,-0.1 -0.084,0 -0.086,0 -0.094,-0.1 -0.01,-0.1 -0.016,-0.21 -0.026,-0.32 -0.01,-0.1 -0.018,-0.15 -0.028,-0.23 0,0 -0.012,0 -0.019,0 -0.01,0 -0.027,0 -0.031,0 C 5.1008,6.84 5.0329,7.01 4.9761,7.18 4.9401,7.29 4.9421,7.3 4.8253,7.3 c -0.025,0 -0.051,0 -0.074,0 -0.026,0 -0.058,0 -0.072,0 C 4.5943,7.42 4.5219,7.54 4.524,7.69 4.5248,7.79 4.51,7.84 4.492,7.91 4.467,8.02 4.439,8.13 4.408,8.23 4.356,8.41 4.31,8.58 4.324,8.77 M 1.6667e-7,8.13 C 0.04299,8.03 0.11586,7.96 0.19963,7.9 0.62003,7.59 1.0521,7.3 1.5155,7.06 1.7719,6.93 2.0175,6.77 2.2666,6.63 2.467,6.51 2.6659,6.39 2.8648,6.28 3.3973,5.96 3.93,5.64 4.4625,5.33 c 0.082,-0.1 0.098,-0.1 0.058,-0.18 0,0 -0.035,0 -0.047,0 -0.068,0 -0.1326,0.1 -0.2004,0.12 -0.018,0 -0.042,0 -0.063,0 0,0 -0.01,0 0,-0.1 0.028,-0.1 0.05,-0.2 0.089,-0.29 C 4.3321,4.78 4.3131,4.75 4.2581,4.69 4.1321,4.57 4.0089,4.44 3.8778,4.32 3.6985,4.15 3.6927,4.16 3.7044,3.92 3.7144,3.75 3.7304,3.59 3.7434,3.42 3.7554,3.25 3.7634,3.07 3.7774,2.9 3.7884,2.76 3.8214,2.62 3.8786,2.49 3.9296,2.38 4.009,2.28 4.1285,2.23 4.2837,2.13 4.4389,2.1 4.5926,2.02 c 0.031,0 0.068,0 0.079,-0.1 0.023,-0.1 0.034,-0.13 0.042,-0.19 0,0 -0.03,0 -0.05,-0.1 C 4.5676,1.53 4.5179,1.5 4.507,1.39 4.497,1.29 4.486,1.28 4.479,1.22 4.45,0.99 4.522,0.81 4.7318,0.7 c 0.055,0 0.1122,0 0.1697,-0.1 0.046,0 0.094,0 0.1428,0 h 0.027 c 0.045,0 0.09,0 0.1319,0 0.018,0 0.036,0 0.054,0 0.1195,0 0.1763,0.12 0.2178,0.22 0.01,0 0.015,0 0.011,0.1 C 5.426,1.07 5.46,1.23 5.437,1.38 5.425,1.48 5.411,1.55 5.392,1.64 5.378,1.74 5.353,1.76 5.2762,1.78 c -0.033,0 -0.034,0 -0.01,0.1 0.1771,0.11 0.3417,0.25 0.5712,0.24 0.082,0 0.1654,0 0.2449,0 0.058,0 0.1136,0.1 0.161,0.1 0.068,0.1 0.1275,0.11 0.1923,0.17 0.07,0.1 0.1501,0.1 0.2462,0.1 0.02,0 0.042,0 0.061,0 0.1792,0.1 0.3642,0.1 0.5508,0.1 0.087,0 0.1734,0 0.2571,0 0.2281,0.1 0.4561,0.1 0.6878,0 0.188,0 0.2805,0.1 0.2426,0.26 -7e-4,0 0,0 0,0 C 8.4501,3 8.4501,3 8.2873,3.04 c -0.035,0 -0.072,0 -0.102,0 C 7.6556,3.38 7.1267,3.72 6.5977,4.06 6.3894,4.2 6.1795,4.33 5.9704,4.46 c -0.098,0.1 -0.096,0.1 -0.071,0.18 0.067,0.32 0.1347,0.63 0.1966,0.95 0.02,0.1 0.027,0.21 0.036,0.32 0.026,0.3 0.05,0.61 0.074,0.91 0.01,0.1 0.01,0.12 -0.077,0.13 -0.1217,0 -0.1253,0.11 -0.1406,0.2 -0.049,0.29 -0.095,0.58 -0.1567,0.86 -0.036,0.18 -0.1012,0.34 -0.1479,0.51 -0.017,0.1 0.01,0.14 0.063,0.17 0.091,0.1 0.1843,0.12 0.2769,0.18 0.068,0 0.145,0.1 0.22,0.1 0.2477,0.1 0.4998,0 0.7497,0 0.5668,0 1.1344,0 1.7013,0 0.161,0 0.3227,0 0.4837,0 0.3053,0 0.6113,0 0.9166,-0.1 0.03,0 0.06,0 0.1,0 0.07,0 0.134,0 0.203,-0.1 0.124,0 0.132,0 0.189,0.1 0,0 -10e-4,0.1 0,0.1 -0.08,0.13 -0.202,0.23 -0.345,0.29 -0.329,0.16 -0.667,0.26 -1.0372,0.26 -1.8542,0 -3.7121,0 -5.5663,0 -0.7323,0 -1.4645,0 -2.1974,0 C 1.3143,9.52 1.1795,9.4 1.1344,9.29 1.1084,9.19 1.1104,9.15 1.1574,9.1 1.2004,9 1.2514,9 1.3067,8.97 1.4547,8.87 1.6215,8.85 1.7883,8.82 2.1162,8.72 2.447,8.72 2.7778,8.72 c 0.381,0 0.7613,0 1.1423,0 0.098,0 0.098,0 0.093,-0.11 -0.017,-0.4 -0.035,-0.8 -0.048,-1.2 -0.01,-0.17 0.02,-0.35 0.1224,-0.5 0.028,0 0.059,-0.1 -0.011,-0.11 -0.01,0 -0.014,0 -0.012,-0.1 C 4.0815,6.55 4.1005,6.4 4.1205,6.25 4.1555,5.97 4.1965,5.7 4.1775,5.41 4.0925,5.51 4.0158,5.51 3.9386,5.56 3.5706,5.78 3.2027,6 2.834,6.22 2.4967,6.42 2.1579,6.62 1.8235,6.82 1.7475,6.92 1.6793,6.93 1.6195,7 1.3885,7.26 1.162,7.51 0.93611,7.77 0.87351,7.87 0.79912,7.89 0.70808,7.91 c -0.10058,0 -0.20111,0.1 -0.30238,0.1 -0.17413,0 -0.29073,0 -0.37666,-0.19 -0.003,0 -0.008,0 -0.01238,0 -0.0037,0 -0.00732,0 -0.01096,-0.1" style="fill:#ffffff;fill-opacity:1;fill-rule:nonzero;stroke:none;stroke-width:0.72858" id="path2986" /></svg>