<?xml version="1.0" encoding="UTF-8" standalone="no"?><svg xmlns:dc="http://purl.org/dc/elements/1.1/" xmlns:cc="http://creativecommons.org/ns#" xmlns:rdf="http://www.w3.org/1999/02/22-rdf-syntax-ns#" xmlns:svg="http://www.w3.org/2000/svg" xmlns="http://www.w3.org/2000/svg" xmlns:sodipodi="http://sodipodi.sourceforge.net/DTD/sodipodi-0.dtd" xmlns:inkscape="http://www.inkscape.org/namespaces/inkscape" width="10.583334mm" height="10.583334mm" viewBox="0 0 10.583334 10.583334" version="1.1" id="svg8440" inkscape:export-filename="/media/apgmountain/vorlagen/ico/baer.png" inkscape:export-xdpi="95.999992" inkscape:export-ydpi="95.999992" inkscape:version="0.92.3 (2405546, 2018-03-11)" sodipodi:docname="239.svg"><defs id="defs8434"><clipPath id="clipPath16" clipPathUnits="userSpaceOnUse"><path inkscape:connector-curvature="0" id="path18-9" d="M 0,768 H 1366 V 0 H 0 Z" /></clipPath></defs><sodipodi:namedview id="base" pagecolor="#ffffff" bordercolor="#666666" borderopacity="1.0" inkscape:pageopacity="0.0" inkscape:pageshadow="2" inkscape:zoom="16" inkscape:cx="-5.064252" inkscape:cy="8.621491" inkscape:document-units="mm" inkscape:current-layer="layer2" showgrid="false" fit-margin-top="0" fit-margin-left="0" fit-margin-right="0" fit-margin-bottom="0" showguides="true" inkscape:guide-bbox="true" inkscape:snap-global="true" inkscape:window-width="3440" inkscape:window-height="1369" inkscape:window-x="0" inkscape:window-y="24" inkscape:window-maximized="1" inkscape:snap-page="true" /><g inkscape:groupmode="layer" id="layer2" inkscape:label="motiv"><path inkscape:connector-curvature="0" style="display:inline;opacity:1;fill:#ffffff;fill-opacity:1;fill-rule:evenodd;stroke:none;stroke-width:1.0043454;stroke-miterlimit:4;stroke-dasharray:none;stroke-dashoffset:0;stroke-opacity:1" d="M 3.9512697,0 C 3.8633243,0.00764458 3.8075859,0.02403195 3.8075859,0.05080834 3.8075859,0.08000836 3.9239615,0.20396488 4.0659981,0.32615671 L 4.3244103,0.54796514 3.8267075,0.60696833 C 3.552998,0.63937171 3.2296906,0.72047572 3.1082883,0.78670968 2.8890197,0.90634307 2.889515,0.90764479 3.2022567,0.9992305 3.5386307,1.0977621 3.628184,1.2570402 3.3475794,1.2576427 3.2543381,1.2578648 3.0311799,1.3475253 2.8515149,1.4570518 2.5282905,1.6541044 2.5222589,1.6539692 2.3183008,1.4685247 1.6278757,0.84081946 1.0495379,0.95164041 0.63015294,1.7919497 0.33077982,2.391787 0.25810985,3.0620642 0.46734778,3.2932539 0.68899939,3.5381873 1.2040112,3.6303819 1.5927796,3.4948482 1.7625964,3.4356446 1.9252488,3.4110402 1.9539013,3.4396692 1.9825537,3.46833 1.9177891,3.9371474 1.8102174,4.4815134 1.6920482,5.0794264 1.6230428,5.7779314 1.635393,6.2461466 1.6795584,7.9207277 1.2072169,9.6644034 0.524712,10.351787 0.74346671,10.510144 1.0107968,10.605828 1.3026805,10.605828 H 9.2746717 C 9.713533,10.605828 10.098341,10.39272 10.340008,10.066606 10.094215,9.568448 9.8798602,9.0104252 9.8379339,8.6800296 9.8100132,8.4601519 9.6598161,7.894521 9.5035822,7.4229333 9.3473063,6.9513562 9.2425249,6.505102 9.2708474,6.4313513 9.299138,6.3576005 9.2414013,5.9803721 9.1430071,5.5932869 9.0446234,5.2062227 8.9335171,4.6177782 8.8955212,4.2853822 8.8575359,3.9529863 8.8195274,3.6500822 8.8113871,3.6123084 8.8032254,3.5745343 8.9875633,3.5389479 9.2211317,3.5330911 9.569703,3.5243374 9.6957734,3.4669549 9.9237069,3.2118512 10.163069,2.9439448 10.201241,2.8216351 10.201241,2.3273494 10.201241,1.3877262 9.8467632,0.77250517 9.3058122,0.77250517 8.9791673,0.77250517 8.7387695,0.88881015 8.2437541,1.2855055 L 7.8848178,1.5734193 7.4346451,1.3614449 C 7.1868891,1.2449935 6.7408323,1.100998 6.4436095,1.0412976 6.0214568,0.9565414 5.8384974,0.85889483 5.6077305,0.59604184 5.4452063,0.41094627 5.171395,0.20090752 4.9991233,0.12893297 4.7712229,0.03371311 4.2151057,-0.02293377 3.9512697,0 Z M 9.4287355,1.649905 C 9.4501424,1.6487172 9.4647982,1.6509645 9.471349,1.6575535 9.4907064,1.6770484 9.4524159,1.9326859 9.3866686,2.2257327 9.2821955,2.6913577 9.2352978,2.7621454 9.0135276,2.7884486 8.7394682,2.8209364 8.360668,2.5239905 8.360668,2.276541 8.360668,2.1978426 8.4607887,2.0676285 8.5830228,1.9875346 8.8059054,1.8415145 9.2788881,1.6582187 9.4287355,1.649905 Z M 1.307051,1.8383875 C 1.4669767,1.8383875 2.1609588,2.2996971 2.1609588,2.4060203 2.1609588,2.5077762 1.7781629,2.8526976 1.5135623,2.9889502 1.0747121,3.2149807 0.9657094,3.0620139 1.1415142,2.4672088 1.2046664,2.2535475 1.2378372,2.0246335 1.2158146,1.9585793 1.1937993,1.8925249 1.2350617,1.8383875 1.307051,1.8383875 Z M 5.9655742,1.8760839 C 6.1847819,1.8715512 6.4283921,1.9571575 6.5244658,2.1366815 6.6094018,2.295347 6.5916317,2.3213313 6.402635,2.3142376 6.2808872,2.3096704 6.0639316,2.270548 5.9207756,2.2273717 5.7776402,2.1841848 5.6360952,2.1733193 5.6060916,2.2033334 5.5760563,2.2333475 5.551459,2.2125469 5.551459,2.1568956 5.551459,1.9753945 5.7463665,1.8806167 5.9655742,1.8760839 Z M 3.6136402,1.9919051 C 3.6861045,1.9899341 3.7540569,2.0034942 3.813049,2.0350649 4.0950715,2.1860127 4.0416587,2.2906025 3.6502439,2.3541194 3.4571601,2.3854549 3.2249203,2.4788841 3.1339657,2.5611768 2.909687,2.7641605 2.8158795,2.6418982 2.9908282,2.3748798 3.1416465,2.1447076 3.3962473,1.9978182 3.6136402,1.9919051 Z M 3.6999595,3.0943911 C 3.8351286,3.1031398 3.9714186,3.1648058 4.0982315,3.2916148 4.3576591,3.5510427 4.3427037,3.6789601 4.0523401,3.6789601 3.6135151,3.6789601 3.3368443,4.4120809 3.54972,5.0109032 3.6205285,5.2100809 3.5980833,5.2288874 3.2891223,5.2288874 2.9873082,5.2288874 2.9388027,5.1916541 2.8367643,4.8825165 2.5472092,4.0051376 3.114227,3.0564799 3.6999595,3.0943911 Z M 5.9956222,3.1818033 C 6.1572698,3.1788807 6.3177622,3.2400614 6.4539899,3.3762955 6.6266841,3.5489687 6.6344707,3.5822604 6.5004274,3.5822604 6.0488421,3.5822604 5.7691936,4.5561821 6.0895902,5.0136348 6.2789781,5.2839941 6.1981149,5.2792985 5.6366859,4.9868649 5.1406978,4.7285049 5.0475924,4.5340158 5.1668454,4.005117 5.2799326,3.5037793 5.639997,3.1882331 5.9956222,3.1818033 Z M 4.1987555,4.1788487 C 4.262469,4.1905801 4.2921771,4.2458753 4.2921771,4.3498487 4.2921771,4.48848 4.2297604,4.5508968 4.0911292,4.5508968 3.8428847,4.5508968 3.8708446,4.2302222 4.1233623,4.1815801 4.1524245,4.1759875 4.1775176,4.1749379 4.1987555,4.1788487 Z M 6.5960346,4.1837656 C 6.708639,4.1954228 6.8187545,4.2927553 6.7938046,4.4214174 6.7765615,4.5104025 6.7141957,4.5991144 6.6555842,4.618641 6.4946139,4.6722098 6.324701,4.4194251 6.4190249,4.2668072 6.4600894,4.2003655 6.528472,4.1767709 6.5960346,4.1837656 Z M 4.8767462,4.876507 C 5.0515451,4.8775322 5.2301541,4.9485651 5.6323153,5.1250855 6.2928149,5.4149818 6.3563407,5.4244535 7.2264947,5.3632836 L 8.1323038,5.2993635 8.3431855,5.5676095 C 8.4592773,5.7151851 8.5546137,5.9314954 8.5546137,6.0478303 8.5546137,6.4903555 8.2521472,7.2327906 7.8826328,7.6988279 7.6713923,7.9652437 7.3558743,8.3947235 7.1811499,8.6527133 7.0063937,8.9106925 6.7448863,9.1830339 6.5998588,9.2580428 6.1383778,9.4966433 5.1641139,9.3888207 5.1641139,9.0990617 5.1641139,9.0484322 5.3056273,9.0057208 5.4787977,9.0045475 6.2601995,8.9992507 7.1321856,8.2239259 7.5466421,7.16616 7.6405958,6.9264069 7.7589645,6.7024776 7.809425,6.6684567 7.9548752,6.5704539 7.7890223,6.3909554 7.5559297,6.3942009 7.3763948,6.3966645 7.3677364,6.4113069 7.5002042,6.4887155 7.6392479,6.5699828 7.6203909,6.6563226 7.3324822,7.2590353 6.6810002,8.6227884 5.9045527,9.0434292 4.4418705,8.8258988 3.5573258,8.6943296 3.243059,8.546243 2.8575247,8.0785247 2.5689149,7.7283992 2.2576585,6.8429524 2.2576585,6.3723479 2.2576585,6.0279422 2.4731641,5.8614431 2.6182338,6.0937217 2.760667,6.3218033 3.4528351,6.6475567 3.9682058,6.729099 4.3477901,6.7891375 4.3961853,6.7681611 4.8155576,6.3663384 5.0602691,6.1318713 5.2608136,5.8675399 5.2608136,5.7784916 5.2608136,5.4668589 4.9018062,5.2288874 4.4314904,5.2288874 3.8997751,5.2288874 3.9374786,5.1053903 4.5189026,4.9426124 4.6683004,4.900783 4.7718668,4.8758918 4.8767462,4.876507 Z M 4.2774265,5.5293666 C 4.3557763,5.536544 4.3750614,5.5596412 4.3495414,5.6009355 4.3114821,5.6625389 4.2211825,5.7129322 4.1484934,5.7129322 4.0758062,5.7129322 3.8866619,5.8222934 3.7283687,5.9555012 3.3834659,6.2457254 3.2652638,6.2572212 3.1350583,6.0139579 2.9948159,5.7519191 3.1780573,5.634976 3.8534774,5.5555903 4.0620734,5.531079 4.1990763,5.5221896 4.2774265,5.5293666 Z M 5.9983536,6.8121406 C 5.96362,6.8062978 5.9388043,6.8277338 5.9388043,6.870051 5.9388043,6.9264636 5.9822312,6.9727605 6.0355039,6.9727605 6.0887764,6.9727605 6.13275,6.9531025 6.13275,6.9296007 6.13275,6.9060884 6.0887764,6.8603697 6.0355039,6.8274378 6.0221857,6.8192046 6.0099317,6.8140882 5.9983536,6.8121406 Z M 4.2839823,7.0694602 C 4.1795347,7.0694602 4.1726541,7.2661793 4.256666,7.8791155 4.3474198,8.5412327 4.4422048,8.4262559 4.4047205,7.6993742 4.3868557,7.3529702 4.3327152,7.0694602 4.2839823,7.0694602 Z" id="rect8423" /></g></svg>