<?xml version="1.0" encoding="UTF-8" standalone="no"?><svg xmlns:dc="http://purl.org/dc/elements/1.1/" xmlns:cc="http://creativecommons.org/ns#" xmlns:rdf="http://www.w3.org/1999/02/22-rdf-syntax-ns#" xmlns:svg="http://www.w3.org/2000/svg" xmlns="http://www.w3.org/2000/svg" xmlns:sodipodi="http://sodipodi.sourceforge.net/DTD/sodipodi-0.dtd" xmlns:inkscape="http://www.inkscape.org/namespaces/inkscape" width="48" height="48" viewBox="0 0 48 48.000001" id="svg69016" version="1.1" inkscape:version="0.92.3 (2405546, 2018-03-11)" sodipodi:docname="24.svg"><defs id="defs69018" /><sodipodi:namedview id="base" pagecolor="#ffffff" bordercolor="#666666" borderopacity="1.0" inkscape:pageopacity="0.0" inkscape:pageshadow="2" inkscape:zoom="5.6" inkscape:cx="-14.1215" inkscape:cy="36.63231" inkscape:document-units="px" inkscape:current-layer="layer1" showgrid="false" units="px" inkscape:window-width="1814" inkscape:window-height="876" inkscape:window-x="234" inkscape:window-y="234" inkscape:window-maximized="0" /><g inkscape:label="Ebene 1" inkscape:groupmode="layer" id="layer1" transform="translate(0,-1004.3622)"><g id="g56026" transform="matrix(1.24216,0,0,-1.24216,23.81463,1012.041)" style="fill:#ffffff;fill-opacity:1"><path d="m 0,0 c 2.061,0 3.548,-1.463 3.548,-3.225 0,-1.753 -1.487,-3.223 -3.548,-3.223 -1.762,0 -3.24,1.47 -3.24,3.223 C -3.24,-1.463 -1.762,0 0,0" style="fill:#ffffff;fill-opacity:1;fill-rule:nonzero;stroke:none" id="path56028" inkscape:connector-curvature="0" /></g><path inkscape:connector-curvature="0" id="path56032" style="fill:#ffffff;fill-opacity:1;fill-rule:nonzero;stroke:none;stroke-width:1.24216" d="m 19.78972,1021.155 h 8.43178 c 0.73288,0 1.46575,0.723 2.19863,1.084 l 2.91907,4.005 c 0.37265,0.733 0.74406,1.094 0.74406,1.816 v 3.655 c 0,1.455 -2.92157,1.455 -2.92157,0 v -4.015 l -3.31284,-2.91 v 8.38 l 3.31284,8.743 2.55016,-6.927 h 2.57872 l -6.60332,15.679 c -0.73287,1.806 -3.67431,2.178 -4.77859,1.083 0.37141,-0.371 1.46575,-0.743 1.84709,-1.466 l 2.57003,-5.82 -5.51146,-9.837 -5.12888,9.837 2.56009,5.82 c 0.38134,0.723 1.48562,1.095 1.82722,1.466 -1.08441,1.095 -4.02584,0.723 -4.75747,-1.083 l -6.59587,-15.679 h 2.18868 l 2.94144,6.927 3.30166,-8.743 v -8.38 l -3.30166,2.91 v 4.015 c 0,1.455 -2.94144,1.455 -2.94144,0 v -3.655 c 0,-0.722 0.37017,-1.083 0.73163,-1.816 l 2.94268,-4.005 c 0.36147,-0.361 1.46451,-1.084 2.20732,-1.084" /><g id="g56034" transform="matrix(1.24216,0,0,-1.24216,1.652303,1048.255)" style="fill:#ffffff;fill-opacity:1"><path d="m 0,0 v 17.349 c 0,9.938 8.049,17.987 17.995,17.987 9.94,0 17.987,-8.049 17.987,-17.987 V 0 h -2.667 v 17.349 c 0,8.46 -6.859,15.328 -15.32,15.328 -8.476,0 -15.328,-6.868 -15.328,-15.328 V 0 Z" style="fill:#ffffff;fill-opacity:1;fill-rule:nonzero;stroke:none" id="path56036" inkscape:connector-curvature="0" /></g></g></svg>