<?xml version="1.0" encoding="UTF-8" standalone="no"?><svg xmlns:dc="http://purl.org/dc/elements/1.1/" xmlns:cc="http://creativecommons.org/ns#" xmlns:rdf="http://www.w3.org/1999/02/22-rdf-syntax-ns#" xmlns:svg="http://www.w3.org/2000/svg" xmlns="http://www.w3.org/2000/svg" id="svg2" version="1.1" xml:space="preserve" width="40" height="40" viewBox="0 0 40 40"><defs id="defs6" /><path d="m 16.846,32.396 c 0,0 -3.727,-1.751 -9.7012,-0.631 -5.9737,1.12 -5.2889,4.661 -0.8411,3.977 4.4473,-0.684 7.5493,-1.79 10.7703,-1.196 0,0 -0.684,-0.963 -0.228,-2.15" style="fill:#ffffff;fill-opacity:1;fill-rule:nonzero;stroke:none;stroke-width:0.0959" id="path50" /><path d="m 27.858,37.048 c 0,0 -2.258,0.629 -2.703,1.521 -0.444,0.891 1.779,1.993 3.935,1.102 2.155,-0.892 2.702,-2.308 2.702,-2.308 z" style="fill:#ffffff;fill-opacity:1;fill-rule:nonzero;stroke:none;stroke-width:0.0959" id="path54" /><path d="m 21.369,37.048 c 0,0 2.258,0.629 2.703,1.521 0.444,0.891 -1.779,1.993 -3.935,1.102 -2.155,-0.892 -2.703,-2.308 -2.703,-2.308 z" style="fill:#ffffff;fill-opacity:1;fill-rule:nonzero;stroke:none;stroke-width:0.0959" id="path58" /><path d="m 29.714,3.565 c 0,0 0.355,-2.9004 1.714,-3.21514 1.36,-0.31475 2.943,1.99674 2.077,3.37374 -0.867,1.377 -2.312,1.8849 -2.312,1.8849 z" style="fill:#ffffff;fill-opacity:1;fill-rule:nonzero;stroke:none;stroke-width:0.0959;stroke-opacity:1" id="path62" /><path d="m 30.196,4.065 c 0,0 0.548,-2.3931 1.329,-2.573 0.781,-0.1797 1.698,1.197 1.205,2.0083 -0.494,0.8113 -1.676,1.7823 -1.676,1.7823 z" style="fill:#ffffff;fill-opacity:1;fill-rule:nonzero;stroke:none;stroke-width:0.0959" id="path66" /><path d="m 20.141,3.565 c 0,0 -0.355,-2.9004 -1.715,-3.21514 -1.359,-0.31475 -2.942,1.99674 -2.076,3.37374 0.866,1.377 2.312,1.8849 2.312,1.8849 z" style="fill:#ffffff;fill-opacity:1;fill-rule:nonzero;stroke:none;stroke-width:0.0959;stroke-opacity:1" id="path70" /><path d="m 19.659,4.065 c 0,0 -0.548,-2.3931 -1.329,-2.573 -0.781,-0.1797 -1.699,1.197 -1.205,2.0083 0.494,0.8113 1.676,1.7823 1.676,1.7823 z" style="fill:#ffffff;fill-opacity:1;fill-rule:nonzero;stroke:none;stroke-width:0.0959" id="path74" /><path id="path78" style="fill:#ffffff;fill-opacity:1;fill-rule:nonzero;stroke:none;stroke-width:0.09589" d="m 32.771,5.3475 c -2.24,-5.68375 -7.841,-5.34375 -7.843,-5.34375 0,0 -5.603,-0.34 -7.844,5.34375 -2.24,5.6845 -4.669,22.8525 -4.389,27.2865 0.281,4.434 2.149,5.116 12.233,5.116 v 0 C 35.012,37.75 36.88,37.068 37.16,32.634 37.441,28.2 35.013,11.032 32.771,5.3475" /><path d="M 28.354,9.865 C 27.33,7.6225 24.93,7.5533 24.93,7.5533 V 7.6666 7.5533 c 0,0 -2.4,0.069 -3.424,2.3117 -1.004,2.201 -1.755,6.792 3.281,6.961 v 0 c 0.05,0 0.1,0 0.145,0 0.05,0 0.1,0 0.145,0 v 0 c 5.036,-0.169 4.285,-4.76 3.281,-6.961" style="fill:#ffffff;fill-opacity:1;fill-rule:nonzero;stroke:none;stroke-width:0.0959" id="path82" /><path d="m 29.114,6.51 c 0,0.6777 -0.303,1.2272 -0.676,1.2272 -0.373,0 -0.676,-0.5495 -0.676,-1.2272 0,-0.6777 0.303,-1.2271 0.676,-1.2271 0.373,0 0.676,0.5494 0.676,1.2271" style="fill:#ffffff;fill-opacity:1;fill-rule:nonzero;stroke:none;stroke-width:0.0959" id="path86" /><path d="m 22.094,6.51 c 0,0.6777 -0.302,1.2272 -0.676,1.2272 -0.373,0 -0.676,-0.5495 -0.676,-1.2272 0,-0.6777 0.303,-1.2271 0.676,-1.2271 0.374,0 0.676,0.5494 0.676,1.2271" style="fill:#ffffff;fill-opacity:1;fill-rule:nonzero;stroke:none;stroke-width:0.0959" id="path90" /><path d="m 26.792,8.8712 c -0.14,-0.3123 -0.816,-0.5108 -1.864,-0.5108 -1.049,0 -1.725,0.1985 -1.865,0.5108 -0.139,0.3123 1.742,2.4968 1.742,2.4968 h 0.123 0.122 c 0,0 1.882,-2.1845 1.742,-2.4968" style="fill:#ffffff;fill-opacity:1;fill-rule:nonzero;stroke:none;stroke-width:0.0959" id="path94" /><path d="m 23.832,13.555 c 0,0 0.06,2.182 1.095,2.182 1.037,0 1.096,-2.182 1.096,-2.182 0,0 -0.933,0 -1.096,-0.882 0,0 -0.07,0.866 -1.095,0.882 z" style="fill:none;fill-opacity:1;stroke:#ffffff;stroke-width:0.0959;stroke-linecap:butt;stroke-linejoin:miter;stroke-miterlimit:10;stroke-dasharray:none;stroke-opacity:1" id="path98" /><path d="m 24.779,11.369 c 0,0.448 0.09,1.063 -0.05,1.419 -0.22,0.538 -0.808,0.534 -1.227,0.502 -0.226,-0.02 -0.669,-0.09 -0.812,-0.35 -0.09,-0.16 -0.299,-0.01 -0.211,0.15 0.401,0.732 1.702,0.653 2.209,0.204 0.498,-0.44 0.338,-1.284 0.338,-1.925 0,-0.192 -0.245,-0.192 -0.245,0" style="fill:#ffffff;fill-opacity:1;fill-rule:nonzero;stroke:none;stroke-width:0.0959" id="path102" /><path d="m 24.832,11.369 c 0,0.668 -0.145,1.413 0.313,1.901 0.48,0.512 1.842,0.536 2.234,-0.18 0.09,-0.161 -0.124,-0.31 -0.211,-0.15 -0.112,0.204 -0.411,0.269 -0.592,0.315 -0.464,0.118 -1.122,0.118 -1.419,-0.409 -0.199,-0.352 -0.08,-1.022 -0.08,-1.477 0,-0.192 -0.245,-0.192 -0.245,0" style="fill:#ffffff;fill-opacity:1;fill-rule:nonzero;stroke:none;stroke-width:0.0959" id="path106" /><path d="m 24.928,0.00375 c 0,0 -0.281,-0.0125 -0.738,0.025 5.063,1.88375 7.304,7.10625 7.344,15.71425 0.04,8.642 -4.655,19.602 -10.117,20.091 -5.461,0.489 -8.557,-1.841 -8.558,-1.842 0.638,3.225 3.115,3.763 12.069,3.763 v 0 c 10.084,0 11.952,-0.682 12.232,-5.116 C 37.44,28.205 35.013,11.038 32.771,5.3525 30.531,-0.33125 24.93,0.00875 24.928,0.00875" style="fill:#ffffff;fill-opacity:1;fill-rule:nonzero;stroke:none;stroke-width:0.09589" id="path122" /><path d="m 21.724,6.51 c 0,0.3071 -0.137,0.5558 -0.306,0.5558 -0.169,0 -0.306,-0.2487 -0.306,-0.5558 0,-0.307 0.137,-0.5557 0.306,-0.5557 0.169,0 0.306,0.2487 0.306,0.5557" style="fill:#ffffff;fill-opacity:1;fill-rule:nonzero;stroke:none;stroke-width:0.0959" id="path126" /><path d="m 28.764,6.51 c 0,0.3268 -0.146,0.5918 -0.326,0.5918 -0.18,0 -0.326,-0.265 -0.326,-0.5918 0,-0.3267 0.146,-0.5917 0.326,-0.5917 0.18,0 0.326,0.265 0.326,0.5917" style="fill:#ffffff;fill-opacity:1;fill-rule:nonzero;stroke:none;stroke-width:0.0959" id="path130" /><path id="path134" style="fill:#ffffff;fill-opacity:1;fill-rule:nonzero;stroke:none;stroke-width:0.09589" d="M 28.986,20.465 C 27.794,17.439 24.811,17.62 24.81,17.62 c -10e-4,0 -2.984,-0.181 -4.176,2.845 -1.194,3.027 -2.487,12.169 -2.338,14.529 0.15,2.362 1.144,2.725 6.514,2.725 5.37,0 6.365,-0.363 6.514,-2.725 0.148,-2.36 -1.144,-11.502 -2.338,-14.529" /></svg>