<?xml version="1.0" encoding="UTF-8" standalone="no"?><svg xmlns:dc="http://purl.org/dc/elements/1.1/" xmlns:cc="http://creativecommons.org/ns#" xmlns:rdf="http://www.w3.org/1999/02/22-rdf-syntax-ns#" xmlns:svg="http://www.w3.org/2000/svg" xmlns="http://www.w3.org/2000/svg" id="svg9127" version="1.1" viewBox="0 0 10.583333 10.583334" height="40" width="40"><defs id="defs9121" /><path style="display:inline;fill:#ffffff;fill-opacity:1;fill-rule:nonzero;stroke:none;stroke-width:0.18464" d="m 2.8556,2e-4 c 0.026,9e-4 0.054,0.01 0.085,0.018 0.4987,0.1763 0.9969,0.3369 1.4955,0.5053 0.144,0.052 0.2661,0.038 0.3991,-0.029 0.2881,-0.1437 0.576,-0.2808 0.864,-0.42 0.083,-0.04 0.17,-0.05 0.2559,-0.045 0.086,0 0.1716,0.025 0.2547,0.05 v 6e-4 c 0.011,0 0.025,0.035 0.033,0.07 0.01,0.034 0.011,0.072 0,0.089 v 6e-4 c -0.017,0.04 -0.043,0.08 -0.073,0.1169 -0.03,0.037 -0.066,0.07 -0.1052,0.092 C 5.6547,0.681 5.2231,0.9034 4.8022,1.128 4.5627,1.2502 4.323,1.3765 4.0836,1.4984 4.0238,1.5294 3.9634,1.5614 3.9036,1.5914 3.7749,1.6564 3.6394,1.697 3.5017,1.7304 3.272,1.7874 3.0363,1.8204 2.8077,1.8823 2.6193,1.9303 2.4856,1.9093 2.3526,1.7701 2.2196,1.6208 2.0649,1.5085 1.9097,1.3805 v -6e-4 -6e-4 c 0.072,-0.051 0.1407,-0.086 0.2127,-0.099 0.074,-0.015 0.152,-0.01 0.2413,0.027 0.061,0.024 0.1258,0.04 0.1899,0.057 0.099,0.025 0.1983,0.047 0.2979,0.071 0.01,0 0.019,0 0.028,0 0.019,0 0.036,6e-4 0.055,0 0.01,0 0.02,0 0.028,-0.01 C 3.2835,1.2683 3.6038,1.1077 3.9469,0.944 3.5041,0.6578 3.084,0.3748 2.6412,0.091 2.7159,0.033 2.7777,-0.007 2.8556,-0.004 Z M 0.87454,1.3795 C 1.035,1.3895 1.1228,1.5553 1.1228,1.5553 l 1.54,2.7464 0.697,0.054 1.2566,-0.8085 -0.044,-1.1328 c 0,0 -0.1661,-0.4743 0.3213,-0.5322 0.01,0 0.017,0 0.026,0 0.01,-9e-4 0.01,0 0.015,0 C 5.2117,1.8442 5.2123,2.235 5.2123,2.235 L 5.3893,3.9654 3.816,5.0059 4.0035,6.6283 4.5802,8.2518 4.8133,10.073 c 0,0 0.055,0.329 -0.3441,0.405 -0.015,0 -0.026,0 -0.04,0 -6e-4,0 -4e-4,0 -0,0 -0.3991,0.07 -0.4995,-0.345 -0.4995,-0.345 L 3.7628,8.4136 3.1985,7.0396 2.453,10.23 c 0,0 -0.067,0.336 -0.3733,0.35 -0.043,0.01 -0.09,0.01 -0.1443,0 -0.3879,-0.08 -0.3219,-0.404 -0.3219,-0.404 l 0.7758,-3.4502 0.022,0.01 V 5.5353 L 0.53857,1.8729 c 0,0 -0.15506,-0.2612 0.11101,-0.4271 0.0726,-0.046 0.13577,-0.059 0.19104,-0.054 0.0112,-9e-4 0.0233,0 0.0339,0 z M 3.1173,2.2961 c 0.3878,0 0.6987,0.3098 0.6987,0.6894 0,0.3851 -0.3109,0.701 -0.6987,0.701 -0.3769,0 -0.6981,-0.3159 -0.6981,-0.701 0,-0.3796 0.3212,-0.6894 0.6981,-0.6894 z M 6.515,5.7371 C 6.9256,5.7521 7.4912,5.895 7.9989,6.1589 8.6621,6.5036 9.3204,7.1619 9.6651,7.825 10.184,8.8241 10.24,10.012 9.7615,9.8855 9.6917,9.8675 9.6277,9.8465 9.6189,9.8385 9.5751,9.8025 9.5115,9.5005 9.5056,9.2993 9.4929,8.8695 9.152,8.0058 8.8431,7.6214 8.2578,6.8931 7.3808,6.3916 6.598,6.3368 6.1799,6.3078 6.0366,6.2508 5.9618,6.085 5.849,5.8353 6.1045,5.722 6.515,5.7368 Z M 6.1908,6.7676 c 0.237,-0.026 0.6572,0.035 1.0107,0.1607 0.4141,0.1478 0.4692,0.1876 0.9879,0.7063 0.5049,0.5049 0.5613,0.5812 0.694,0.9476 0.1792,0.4947 0.2435,1.0902 0.1303,1.2034 -0.047,0.047 -0.1499,0.085 -0.229,0.085 -0.206,0 -0.2573,-0.076 -0.2962,-0.4393 C 8.4239,8.8276 8.2291,8.4113 7.8207,8.0029 7.4124,7.5946 6.9966,7.3998 6.3929,7.3352 6.2161,7.3162 6.0446,7.2742 6.0121,7.2412 5.9305,7.1592 5.9378,6.9094 6.0243,6.8229 c 0.029,-0.029 0.087,-0.047 0.1665,-0.056 z m 0.088,1.0335 C 6.545,7.7841 6.9187,7.8811 7.212,8.0733 7.7003,8.3937 8.0337,8.9644 8.0439,9.497 8.0494,9.7786 7.9833,9.8709 7.7775,9.8709 7.5704,9.8709 7.5134,9.7879 7.4433,9.3831 7.3889,9.0687 7.3446,8.9864 7.0911,8.7329 6.8363,8.4781 6.756,8.4354 6.4327,8.3794 6.0459,8.3124 5.867,8.1541 5.9548,7.9571 5.9972,7.8621 6.1185,7.8111 6.2785,7.8011 Z m 0.033,1.235 c 0.1034,0.01 0.1785,0.057 0.2991,0.1776 C 6.7712,9.3746 6.8045,9.4546 6.7838,9.6285 6.7393,10.001 6.3544,10.234 6.0226,10.089 5.8246,10.003 5.7021,9.7855 5.713,9.5385 5.7248,9.2695 5.9145,9.0737 6.1955,9.0402 c 0.043,-0.01 0.081,-0.01 0.1157,0 z" id="path9018" /></svg>