<?xml version="1.0" encoding="UTF-8" standalone="no"?><svg xmlns:dc="http://purl.org/dc/elements/1.1/" xmlns:cc="http://creativecommons.org/ns#" xmlns:rdf="http://www.w3.org/1999/02/22-rdf-syntax-ns#" xmlns:svg="http://www.w3.org/2000/svg" xmlns="http://www.w3.org/2000/svg" version="1.1" id="svg2" xml:space="preserve" width="40" height="40" viewBox="0 0 40 39.999999"><defs id="defs6"><clipPath clipPathUnits="userSpaceOnUse" id="clipPath26"><path d="M 0,394.02 H 306.14 V 0 H 0 Z" id="path24" /></clipPath></defs><path d="M 20.241,13.982 H 40 C 40,9.9796 31.155,6.73 20.241,6.73 9.326,6.73 0.48171,9.9796 0.48171,13.982 c 0,4.002 8.84429,7.251 19.75929,7.251 z m -20.24116329,2.54 v 0 9.421 c 0,4.04 8.93256329,7.327 20.23616329,7.327 V 22.858 C 9.9613,22.858 1.4554,20.047 -1.6329e-4,16.522 M 38.847,26.133 H 23.604 c -0.312,0 -0.564,0.249 -0.564,0.565 0,0.312 0.249,0.577 0.564,0.577 H 39.989 V 15.846 h -1.142 z m -6.553,-6.366 c 0,1.017 0.828,1.845 1.845,1.845 1.028,0 1.856,-0.828 1.856,-1.845 0,-1.015 -0.828,-1.844 -1.856,-1.844 -1.017,0 -1.845,0.829 -1.845,1.844 m -6.275,2.506 c 0,0.715 0.577,1.292 1.292,1.292 0.703,0 1.28,-0.577 1.28,-1.292 0,-0.715 -0.577,-1.292 -1.28,-1.292 -0.715,0 -1.292,0.577 -1.292,1.292" style="fill:#ffffff;fill-opacity:1;fill-rule:nonzero;stroke:none;stroke-width:12.5454016" id="path5792" /></svg>