<?xml version="1.0" encoding="UTF-8" standalone="no"?><svg xmlns:dc="http://purl.org/dc/elements/1.1/" xmlns:cc="http://creativecommons.org/ns#" xmlns:rdf="http://www.w3.org/1999/02/22-rdf-syntax-ns#" xmlns:svg="http://www.w3.org/2000/svg" xmlns="http://www.w3.org/2000/svg" version="1.1" id="svg2" xml:space="preserve" width="40" height="40" viewBox="0 0 40 40"><defs id="defs6" /><path d="M 6.64568,31.39517 6.802062,31.37293 6.182602,31.2462 C 6.02622,31.19228 6.058575,30.75347 6.370664,30.41576 6.598496,30.16569 6.887667,29.96954 6.794647,29.75047 6.691516,29.53072 7.083818,28.58232 7.304236,28.10441 7.616999,27.42227 9.082403,25.43177 9.34933,24.99296 c 0.274342,-0.43881 0.314112,-1.27734 0.45499,-1.80243 0.148293,-0.52307 0.32085,-2.08689 0.32085,-2.08689 0,0 -1.457987,-1.31644 -1.724241,-1.97499 C 8.134002,18.47009 8.102321,17.90186 8.149505,17.48259 8.19669,17.06333 7.81315,17.43945 8.001887,16.89077 l 0.124026,-0.33298 c -0.250076,0.21974 -0.484648,0.43139 -0.673384,0.65046 -0.822352,0.972 -1.151967,-0.67743 -2.711065,-0.28984 -1.57595,0.38421 -0.5015,-0.87763 -0.580365,-2.91935 -0.08628,-2.0451 0.242661,-2.13947 0.744161,-4.773013 0.493411,-2.62546 0.98817,-2.33157 2.798018,-3.209195 1.810523,-0.877624 1.480908,0.29389 2.139463,1.46136 0,0 0.07078,0.438812 0.149641,1.089279 C 10.21078,8.422569 10.41502,8.301912 10.54781,8.246639 10.87675,8.121264 11.26905,7.999934 11.26905,7.57258 L 11.23804,7.368341 10.71295,6.32692 c 0,0 -0.870209,-1.744465 0.43073,-2.676688 1.13646,-0.823026 2.36729,-0.842574 3.16672,0.09032 0.65856,0.775841 0.33703,1.386539 0.33703,1.386539 l 0.0317,0.25075 c 0,0 0.47724,0.658555 0.20357,0.674058 -0.11796,0.0081 -0.0944,0.321527 -0.0627,0.533181 0.008,0.105827 -0.0155,0.270298 -0.0398,0.309393 -0.0391,0.09032 -0.0782,0.172559 -0.13279,0.235247 -0.10245,0.122004 -0.0472,0.246705 -0.0789,0.470493 -0.0236,0.219069 0.11054,0.399717 -0.23457,0.419264 -0.35254,0.02696 -0.39972,0.101783 -0.39972,0.101783 l 0.0236,0.399717 0.92481,-0.117286 0.63429,-0.03573 c 0.90122,-0.01955 0.71315,0.192107 1.12096,0.192107 0.39904,0 2.58569,-1.042095 3.43231,-1.677059 0.30535,-0.227158 1.16747,-0.874254 1.21533,-1.125004 l 0.0317,-0.344444 0.1557,-0.431398 c 0.11796,-0.317482 0.29052,-0.591824 0.55004,-0.57632 0.52441,0.03572 0.72798,0.01955 1.02524,-0.04314 0.29052,-0.06606 0.65114,-0.148293 0.65855,0.126049 0,0.12133 -0.0856,0.697651 -0.0856,0.697651 -0.0634,0.171885 -0.18065,0.317482 -0.36871,0.399043 -0.486,0.192781 -1.16814,0.396346 -1.26117,0.917394 -0.095,0.528462 -1.06568,1.058272 -1.78827,1.818611 -0.72799,0.767753 -2.82094,1.994539 -3.5651,2.229109 -0.45566,0.13751 -1.003,0.23929 -1.37171,0.30198 -0.15638,0.0741 -0.31344,0.21098 -0.31344,0.45904 -0.0155,0.40308 -0.40039,1.19038 -0.41522,1.48899 -0.008,0.30131 0.16447,0.75967 0.0708,1.28071 -0.10179,0.52172 -0.14088,2.23383 -0.21233,2.37067 -0.34444,0.30198 -0.21166,2.14755 -0.34444,3.0454 l -0.17256,0.77584 1.06636,1.11624 c 0.20289,0.2002 0.37545,0.43949 0.27367,0.94099 -0.0472,0.26625 0.50958,2.44279 0.94772,3.07775 0.43949,0.63496 1.12164,1.53618 1.2942,1.60628 0.16447,0.0634 0.57969,0.0789 0.46173,0.34512 -0.12471,0.26693 0.73,0.59519 0.99625,0.32894 0.26626,-0.26625 0.75225,-0.76775 1.05019,-0.56351 0.28917,0.18739 0.46173,0.40713 0.21907,0.73607 -0.24334,0.32961 -0.68215,0.70574 -0.68215,0.70574 0,0 -0.85336,0.43881 -1.07378,0.75225 -0.21974,0.30535 -0.9248,0.83044 -0.9248,0.83044 0,0 -0.36872,0.0634 -0.56419,-0.46173 C 16.74712,29.162 16.43368,28.30056 16.14451,28.26079 15.84657,28.22169 15.87017,28.48053 15.24262,27.6265 14.60833,26.7637 14.16884,26.17592 13.6761,25.00845 13.18943,23.8484 13.29122,23.3233 13.14225,23.1649 l -0.35995,-0.30198 -0.8547,1.47147 c -0.21975,0.36871 -0.10111,0.56419 -0.34512,1.05019 -0.24334,0.48599 -1.12029,1.26992 -1.699979,1.97499 -0.58778,0.70574 -0.533181,1.3407 -0.70574,1.73975 -0.171885,0.3923 -0.101783,0.58845 -0.344444,0.69765 -0.243335,0.10987 -0.392302,0.21974 -0.172559,0.57295 0.219069,0.35253 0.508914,0.52509 1.058272,0.85268 0.36804,0.21974 0.72866,0.46375 0.58711,0.72933 -0.21907,0.3923 -0.399047,0.52509 -1.253754,0.10987 L 8.19669,31.69378 Z" style="fill:#ffffff;fill-opacity:1;fill-rule:nonzero;stroke:none;stroke-width:0.6740589" id="path26" /><path d="M 39.42044,4.927163 38.42486,5.511572 38.06423,8.383063 C 38.62909,8.046708 39.1461,7.725856 39.593,7.431292 l 0.11054,1.49304 C 39.1461,9.280909 38.52799,9.665123 37.85393,10.06888 l -1.37171,10.90156 c 1.08051,-0.65114 2.13137,-1.32048 3.16605,-1.99859 l 0.0553,3.80507 c -11.00401,6.94954 -24.4771,12.9062 -37.995347,14.47272 0,0 -0.525766,-0.57161 -1.003674,-1.52001 C 0.4847758,35.28273 0.3209794,33.3866 0.3209794,33.3866 1.723022,33.26864 3.110909,33.09608 4.490708,32.8851 L 5.822648,22.02804 C 4.026955,22.29496 2.217107,22.4864 0.4227623,22.58885 L 0.3209794,20.82889 C 2.224522,20.73924 4.137501,20.53972 6.034977,20.25728 l 0.335681,-2.73533 c -2.17047,0.3249 -4.177143,0.49409 -5.9957538,0.54464 V 16.39762 C 10.05506,15.95814 23.84766,12.72939 38.93444,3.646451 Z m -1.9669,1.144552 C 35.08624,7.435336 32.7358,8.670212 30.43119,9.774321 L 30.10225,12.59998 C 32.83017,11.31117 35.2042,10.04934 37.101,8.951969 Z M 29.48346,10.2219 c -2.31269,1.08119 -4.57753,2.04105 -6.78035,2.87958 l -0.33636,2.77038 c 2.4138,-0.90459 4.69415,-1.87321 6.7871,-2.83307 z m -7.71258,3.23683 c -2.34303,0.86212 -4.61595,1.59078 -6.78642,2.1981 l -0.34512,2.74275 c 2.33561,-0.64238 4.61595,-1.39126 6.79451,-2.17856 z m -7.71123,2.4529 c -2.39021,0.63092 -4.655727,1.11691 -6.779686,1.46945 l -0.328941,2.73533 c 2.280341,-0.37613 4.545857,-0.86954 6.756097,-1.46204 z m 15.83903,-1.61842 -1.27734,10.95076 c 2.36595,-1.14455 4.67056,-2.38482 6.89697,-3.69721 l 1.37171,-10.9056 c -1.96825,1.13646 -4.33487,2.39021 -6.99134,3.65205 M 6.73128,21.88311 5.398665,32.73614 C 7.656762,32.36743 9.897334,31.90502 12.10016,31.33342 L 13.4867,20.4103 c -2.21766,0.58778 -4.474405,1.09669 -6.75542,1.47281 m 7.68023,-1.72761 -1.38654,10.93391 c 2.32685,-0.61811 4.61595,-1.34812 6.85787,-2.15429 L 21.2222,17.94931 c -2.19474,0.80685 -4.47508,1.55505 -6.81069,2.20619 M 22.1551,17.60082 20.82315,28.59 c 2.33494,-0.87762 4.62405,-1.84085 6.84979,-2.89171 l 1.28543,-10.95818 c -2.11587,0.97941 -4.39756,1.94736 -6.80327,2.86071" style="fill:#ffffff;fill-opacity:1;fill-rule:nonzero;stroke:none;stroke-width:0.6740589" id="path30" /></svg>