<?xml version="1.0" encoding="UTF-8" standalone="no"?><svg xmlns:dc="http://purl.org/dc/elements/1.1/" xmlns:cc="http://creativecommons.org/ns#" xmlns:rdf="http://www.w3.org/1999/02/22-rdf-syntax-ns#" xmlns:svg="http://www.w3.org/2000/svg" xmlns="http://www.w3.org/2000/svg" viewBox="0 0 40 40" height="40" width="40" xml:space="preserve" id="svg2" version="1.1"><defs id="defs6" /><path id="path820" d="m 37.832,15.636 -1.062,2.357 -9.089,-4.116 c -0.113,-0.04 -0.886,0.03 -0.997,0.105 l -7.154,4.959 c -0.15,-0.284 -0.347,-0.553 -0.57,-0.794 l -6.057,-6.303 c -2.579,-2.6857 -5.261,3.123 -2.681,5.803 l 6.056,6.306 c 0.12,0.136 0.241,0.232 0.361,0.322 0.363,0.504 0.903,0.708 1.507,0.296 0.283,-0.12 0.544,-0.296 0.772,-0.534 l 8.462,-5.862 9.088,4.102 c 0.473,0.225 0.876,0.103 1.184,-0.218 0.128,-0.124 0.255,-0.297 0.36,-0.534 l 1.762,-3.905 c 0.885,-1.945 -1.057,-3.928 -1.942,-1.984" style="fill:#ffffff;fill-opacity:1;fill-rule:nonzero;stroke:none;stroke-width:0.90189" /><path id="path818" d="m 6.281,36.177 4.745,-10.248 5.895,6.132 7.34,-5.216 4.34,9.345 1.93,-2.028 -4.117,-8.851 1.301,-0.926 9.233,4.179 0.674,-3.376 L 27.53,20.609 17.144,27.992 1.333,11.546 0,14.451 9.095,23.92 4.354,34.162 Z" style="fill:#ffffff;fill-opacity:1;fill-rule:nonzero;stroke:none;stroke-width:0.90189" /><path style="fill:#ffffff;fill-opacity:1;fill-rule:nonzero;stroke:none;stroke-width:0.73548" d="m 3.453,8.7955 c 0,-1.7485 1.409,-3.1661 3.157,-3.1661 1.747,0 3.166,1.4176 3.166,3.1661 0,1.7385 -1.419,3.1525 -3.166,3.1525 -1.748,0 -3.157,-1.414 -3.157,-3.1525" id="path822" /></svg>