<?xml version="1.0" encoding="UTF-8" standalone="no"?><svg xmlns:dc="http://purl.org/dc/elements/1.1/" xmlns:cc="http://creativecommons.org/ns#" xmlns:rdf="http://www.w3.org/1999/02/22-rdf-syntax-ns#" xmlns:svg="http://www.w3.org/2000/svg" xmlns="http://www.w3.org/2000/svg" version="1.1" id="svg2" xml:space="preserve" width="40" height="40" viewBox="0 0 40 40"><defs id="defs6"><clipPath clipPathUnits="userSpaceOnUse" id="clipPath22"><path d="M 0,394.02 H 306.14 V 0 H 0 Z" id="path20" /></clipPath></defs><path d="m 14.072,5.5979 c 0.02,-0.6674 0.594,-1.202 1.305,-1.202 h 9.243 c 0.715,0 1.293,0.5346 1.308,1.202 h 2.898 c 0.371,0 1.024,0.4575 1.148,0.7995 1.843,5.0796 3.174,8.2586 3.772,10.1906 h 4.58 c 3.688,0 0.688,5.234 -3.272,17.821 -0.167,0.536 -1.075,1.195 -1.641,1.195 H 6.5832 C 6.0208,35.604 5.1147,34.945 4.9468,34.409 0.98675,21.822 -2.0155,16.588 1.6741,16.588 H 6.2546 C 6.8481,14.656 8.1795,11.485 10.023,6.3974 10.148,6.0554 10.8,5.5979 11.174,5.5979 Z M 25.901,8.0258 C 25.772,8.5755 25.248,8.9955 24.62,8.9955 h -9.243 c -0.625,0 -1.153,-0.42 -1.278,-0.9697 h -2.07 L 8.9255,16.588 H 31.075 L 27.967,8.0258 Z M 7.8485,32.2 H 10.483 V 27.298 H 6.3055 Z m 5.0525,0 h 5.888 v -4.902 h -5.888 z m 8.306,0 h 5.892 v -4.902 h -5.892 z m 8.306,0 h 2.64 l 1.542,-4.902 h -4.182 z m 4.936,-7.306 1.543,-4.901 h -6.479 v 4.901 z m -7.35,-4.901 h -5.892 v 4.901 h 5.892 z m -8.31,0 h -5.888 v 4.901 h 5.888 z m -8.306,0 H 4.0089 l 1.5433,4.901 h 4.9308 z" style="fill:#ffffff;fill-opacity:1;fill-rule:nonzero;stroke:none;stroke-width:0.7955" id="path26" /></svg>