<?xml version="1.0" encoding="UTF-8" standalone="no"?><svg xmlns:dc="http://purl.org/dc/elements/1.1/" xmlns:cc="http://creativecommons.org/ns#" xmlns:rdf="http://www.w3.org/1999/02/22-rdf-syntax-ns#" xmlns:svg="http://www.w3.org/2000/svg" xmlns="http://www.w3.org/2000/svg" xmlns:sodipodi="http://sodipodi.sourceforge.net/DTD/sodipodi-0.dtd" xmlns:inkscape="http://www.inkscape.org/namespaces/inkscape" version="1.1" id="svg69016" viewBox="0 0 48 48.000001" height="48" width="48" sodipodi:docname="25.svg" inkscape:version="0.92.3 (2405546, 2018-03-11)"><sodipodi:namedview pagecolor="#ffffff" bordercolor="#666666" borderopacity="1" objecttolerance="10" gridtolerance="10" guidetolerance="10" inkscape:pageopacity="0" inkscape:pageshadow="2" inkscape:window-width="1945" inkscape:window-height="922" id="namedview11" showgrid="false" inkscape:zoom="4.916667" inkscape:cx="24.40678" inkscape:cy="24" inkscape:window-x="0" inkscape:window-y="24" inkscape:window-maximized="0" inkscape:current-layer="svg69016" /><defs id="defs69018" /><g style="display:inline;fill:#ffffff;fill-opacity:1" id="g32378" transform="matrix(1.224221,0,0,-1.224221,30.66841,6.728522)"><path d="M 0,0 C -0.67,1.939 -2.723,2.982 -4.598,2.344 -6.465,1.697 -7.441,-0.389 -6.779,-2.328 -6.117,-4.266 -4.049,-5.309 -2.174,-4.67 -0.314,-4.023 0.662,-1.939 0,0" style="fill:#ffffff;fill-opacity:1;fill-rule:evenodd;stroke:none" id="path32380" inkscape:connector-curvature="0" /></g><path inkscape:connector-curvature="0" id="path32384" style="fill:#ffffff;fill-opacity:1;fill-rule:evenodd;stroke:none;stroke-width:1.224221" d="m 21.96263,17.01688 11.96921,8.50711 -2.45334,0.57416 c -2.66023,-2.53169 -6.2019,-2.61371 -8.55486,-2.38356 -1.80083,0.17629 -5.42085,0.27423 -7.03437,0.37461 0,0 -1.58292,-0.73086 -0.45419,-1.58291 l 0.81044,-0.60477 4.30436,-3.24418 c 0.65251,-0.48357 1.10669,-1.04794 1.41275,-1.64046 M 37.31559,22.96047 36.80141,22.46589 20.4397,10.84313 c -1.51314,-1.482528 -3.60166,-2.017513 -6.29127,-0.3844 -0.70271,0.4346 -6.608348,4.62878 -6.608348,4.62878 l 3.304168,9.4975 c 0,0 0.0698,0.30606 0.7223,0.98673 0.27667,0.3085 1.24503,0.88266 1.24503,0.88266 l 5.105,2.49129 7.81665,-0.65251 c 0.27545,-0.0282 0.54233,0.01 0.81043,0.0784 -0.73085,0.56437 -1.46294,1.2181 -2.21584,2.01874 -0.89,0.93898 -1.66249,1.86939 -2.17666,2.53169 L 11.14052,27.5513 C 8.677384,26.35401 6.165282,16.39253 5.969407,15.64208 5.234874,12.90227 -0.6683194,13.20833 0.0625405,15.96772 0.7848309,18.61939 1.160667,27.0763 3.970254,28.74737 l 31.258036,15.315 c 3.96647,0.76024 8.30879,0.19588 11.72314,-2.65166 2.17544,-1.82042 0.74188,-3.15604 -2.24522,-1.97712 -2.89773,1.12506 -6.30964,0.84839 -8.15087,0.51295 L 24.10991,33.88297 c 1.07854,-1.4152 3.00791,-3.13645 4.70836,-3.94689 l 4.92504,7.18006 c 0,0 3.0177,1.71146 4.79895,2.06771 1.78124,0.34768 0.89123,-0.89858 0.89123,-0.89858 l -5.72813,-9.13146 c 2.99567,-0.46398 5.92523,-1.59271 7.49835,-4.57859 1.16668,-2.23543 -2.53291,-4.22479 -3.70816,-1.97956 z" /></svg>