<?xml version="1.0" encoding="UTF-8" standalone="no"?><svg xmlns:dc="http://purl.org/dc/elements/1.1/" xmlns:cc="http://creativecommons.org/ns#" xmlns:rdf="http://www.w3.org/1999/02/22-rdf-syntax-ns#" xmlns:svg="http://www.w3.org/2000/svg" xmlns="http://www.w3.org/2000/svg" version="1.1" id="svg2" xml:space="preserve" width="111.02326" height="111.02299" viewBox="0 0 111.02327 111.02299"><defs id="defs6"></defs><path d="M 2.5986,93.306 H 108.42 V 17.716 H 2.5986 v 75.59" style="fill:none;stroke:#231f20;stroke-width:0.378;stroke-linecap:butt;stroke-linejoin:miter;stroke-miterlimit:4;stroke-dasharray:none;stroke-opacity:1" id="path16" /><rect ry="5.0876" y="16.516" x="1.217" height="77.991" width="108.59" id="rect4563" style="opacity:1;fill:#ffffff;fill-opacity:0.19608;stroke:#ffffff;stroke-width:2.43394;stroke-miterlimit:10;stroke-dasharray:none;stroke-dashoffset:0;stroke-opacity:1" /><path d="M 4.1106,91.795 H 106.91 V 19.228 H 4.1106 Z" style="fill:#1a67bb;fill-opacity:1;fill-rule:nonzero;stroke:none;stroke-width:0.13333" id="path18" /><path d="M 63.249,86.35 V 81.997 H 58.824 V 86.35 H 56.698 V 76.194 h 2.126 v 4.044 h 4.425 v -4.044 h 2.127 V 86.35 Z M 50.773,84.822 q 1.925,0 2.674,-1.932 l 1.852,0.699 q -0.598,1.471 -1.758,2.192 -1.153,0.713 -2.768,0.713 -2.451,0 -3.791,-1.384 -1.334,-1.391 -1.334,-3.885 0,-2.501 1.291,-3.841 1.29,-1.341 3.74,-1.341 1.788,0 2.912,0.721 1.125,0.713 1.579,2.104 l -1.874,0.512 q -0.238,-0.764 -0.937,-1.211 -0.692,-0.454 -1.636,-0.454 -1.442,0 -2.192,0.894 -0.742,0.894 -0.742,2.616 0,1.752 0.764,2.674 0.771,0.923 2.22,0.923 z M 69.53,54.786 v 6.745 q 0,3.167 2.133,3.167 1.134,0 1.823,-0.967 0.7,-0.978 0.7,-2.5 v -6.445 h 3.122 v 9.334 q 0,1.533 0.09,2.689 H 74.42 q -0.133,-1.6 -0.133,-2.389 h -0.06 q -0.622,1.367 -1.589,1.989 -0.955,0.622 -2.278,0.622 -1.911,0 -2.933,-1.167 -1.023,-1.177 -1.023,-3.444 V 54.786 Z M 58.84,67.031 q -2.711,0 -4.167,-1.6 -1.456,-1.611 -1.456,-4.689 0,-2.978 1.478,-4.578 1.478,-1.601 4.189,-1.601 2.59,0 3.956,1.723 1.367,1.711 1.367,5.022 v 0.09 h -7.712 q 0,1.756 0.645,2.656 0.655,0.889 1.856,0.889 1.655,0 2.089,-1.433 l 2.944,0.255 q -1.278,3.267 -5.189,3.267 z m 0,-10.501 q -1.1,0 -1.7,0.767 -0.589,0.767 -0.623,2.145 h 4.668 q -0.09,-1.456 -0.7,-2.178 Q 59.873,56.53 58.84,56.53 Z M 47.606,52.619 v -2.3 h 3.122 v 2.3 z m 0,14.19 V 54.786 h 3.122 v 12.023 z m -13.98,0 V 51.152 h 3.278 v 13.123 h 8.401 v 2.534 z M 71.307,42.991 q -1.575,0 -2.426,-0.851 -0.851,-0.864 -0.851,-2.604 v -8.104 h -1.741 v -2.414 h 1.918 l 1.118,-3.226 h 2.236 v 3.226 h 2.604 v 2.414 h -2.604 v 7.138 q 0,1.004 0.381,1.486 0.381,0.47 1.181,0.47 0.419,0 1.194,-0.177 v 2.21 q -1.321,0.432 -3.01,0.432 z M 57.677,42.762 V 32.245 q 0,-1.131 -0.04,-1.88 -0.03,-0.762 -0.06,-1.347 h 3.404 q 0.04,0.229 0.102,1.397 0.06,1.156 0.06,1.537 h 0.05 q 0.521,-1.448 0.927,-2.032 0.407,-0.597 0.965,-0.876 0.559,-0.293 1.398,-0.293 0.686,0 1.105,0.191 v 2.985 q -0.864,-0.191 -1.524,-0.191 -1.334,0 -2.084,1.08 -0.736,1.08 -0.736,3.201 v 6.745 z m -2.896,-9.031 q 0,2.794 -1.105,4.915 -1.105,2.122 -3.163,3.252 -2.057,1.118 -4.801,1.118 -4.217,0 -6.618,-2.477 -2.388,-2.49 -2.388,-6.808 0,-4.306 2.388,-6.72 2.388,-2.413 6.643,-2.413 4.256,0 6.644,2.439 2.4,2.438 2.4,6.694 z m -3.823,0 q 0,-2.896 -1.372,-4.535 -1.372,-1.651 -3.849,-1.651 -2.515,0 -3.887,1.638 -1.371,1.626 -1.371,4.548 0,2.947 1.397,4.649 1.41,1.689 3.836,1.689 2.515,0 3.874,-1.651 1.372,-1.651 1.372,-4.687 z" style="font-style:normal;font-variant:normal;font-weight:bold;font-stretch:normal;font-size:medium;line-height:21.29025px;font-family:'Liberation Sans';-inkscape-font-specification:'Liberation Sans Bold';letter-spacing:0px;word-spacing:0px;fill:#ffffff;fill-opacity:1;stroke:none;stroke-width:0.85161px;stroke-linecap:butt;stroke-linejoin:miter;stroke-opacity:1" id="path859" /></svg>