<?xml version="1.0" encoding="UTF-8" standalone="no"?><svg xmlns:dc="http://purl.org/dc/elements/1.1/" xmlns:cc="http://creativecommons.org/ns#" xmlns:rdf="http://www.w3.org/1999/02/22-rdf-syntax-ns#" xmlns:svg="http://www.w3.org/2000/svg" xmlns="http://www.w3.org/2000/svg" width="10.583335mm" height="10.583335mm" viewBox="0 0 10.583335 10.583335" version="1.1" id="svg13442"><defs id="defs13436" /><path style="fill:none;fill-rule:evenodd;stroke:#ffffff;stroke-width:0.1323061;stroke-linecap:butt;stroke-linejoin:miter;stroke-miterlimit:4;stroke-dasharray:none;stroke-opacity:1" d="m 0.4830917,3.682515 c 0,0 0.3406811,-0.110344 0.4994061,-0.19155 C 1.115954,3.422688 1.237,3.332117 1.358759,3.244683 1.490666,3.149958 1.607494,3.034878 1.741867,2.943676 1.835708,2.879978 1.931241,2.816052 2.036025,2.772647 2.11012,2.741955 2.195647,2.744327 2.268621,2.711079 2.409067,2.647097 2.532782,2.549444 2.651729,2.451115 2.756126,2.364815 2.827531,2.240648 2.93906,2.163789 3.118082,2.040417 3.326,1.959518 3.534243,1.896985 3.713571,1.843129 3.902068,1.822516 4.08863,1.806345 4.679819,1.755098 5.275389,1.793711 5.868779,1.786996 6.417031,1.780791 6.965386,1.780834 7.513495,1.767646 8.223244,1.750569 9.296009,1.701087 9.694971,1.70564" id="path13349" /><path id="path13351" style="fill:#ffffff;fill-rule:evenodd;stroke:#ffffff;stroke-width:0.0567026;stroke-linecap:butt;stroke-linejoin:miter;stroke-miterlimit:4;stroke-dasharray:none;stroke-opacity:1;fill-opacity:1" d="M 9.912854,1.903093 9.893495,3.683255 C 9.911081,3.9608 9.839757,4.033112 9.700004,4.166994 l -6.579069,5.902266 -1.67671,-0.002 C 0.9657063,9.93926 0.6647217,9.608472 0.5378273,9.134871 c 0,0 0.5932477,-0.70206 0.8893407,-1.053531 C 1.72854,7.72362 2.01475,7.352647 2.330203,7.007285 2.590106,6.722734 2.851944,6.437455 3.144288,6.186352 3.420411,5.949193 3.701568,5.706722 4.026803,5.543288 4.218846,5.446777 4.431002,5.390022 4.642486,5.351736 c 0.11913,-0.02156 0.242173,-0.03285 0.362588,-0.02052 0.140873,0.01442 0.277672,0.06028 0.410476,0.109457 0.192247,0.07119 0.365827,0.185722 0.554121,0.266804 0.170381,0.07337 0.337278,0.16597 0.519927,0.198391 0.170646,0.03029 0.34871,0.02015 0.519927,-0.0068 C 7.169839,5.873756 7.330867,5.830501 7.474716,5.755361 7.638862,5.669614 7.78322,5.545882 7.912539,5.413306 8.03548,5.287284 8.131176,5.136692 8.227238,4.989157 8.323077,4.841957 8.407299,4.687224 8.487202,4.530802 8.619496,4.271809 8.72642,4.000601 8.849769,3.737234 8.903425,3.622703 8.943325,3.500082 9.013955,3.395177 9.051835,3.338937 9.108595,3.297747 9.150794,3.244673 9.195664,3.188223 9.241904,3.131416 9.273919,3.066805 9.319729,2.974405 9.340839,2.871638 9.369699,2.772637 9.410579,2.632457 9.427209,2.484948 9.47917,2.348489 9.5111,2.264609 9.55866,2.187478 9.602294,2.10905 9.641094,2.03933 9.705815,1.981147 9.725439,1.903816 c 0.02262,-0.102481 0.02484,-0.13809 -0.03474,-0.163577 -0.04455,-0.01905 -0.02305,-0.07116 -0.02305,-0.07116 0.220878,-2.53e-4 0.24521,0.234008 0.24521,0.234008 z" /><path style="fill:none;fill-rule:evenodd;stroke:#ffffff;stroke-width:0.1323061;stroke-linecap:butt;stroke-linejoin:miter;stroke-miterlimit:4;stroke-dasharray:none;stroke-opacity:1" d="m 0.5378273,5.13283 c 0,0 0.2357339,-0.117064 0.3557405,-0.171027 C 1.033382,4.898922 1.170425,4.826466 1.317718,4.783935 1.477625,4.737756 1.645132,4.72275 1.810277,4.701842 c 0.104458,-0.01323 0.209405,-0.02842 0.314699,-0.02737 0.128422,0.0013 0.256988,0.01672 0.383088,0.04105 0.239585,0.04623 0.468757,0.13591 0.704633,0.198391 0.347529,0.09205 0.698949,0.168829 1.046701,0.259964 0.132723,0.03478 0.261288,0.08789 0.396782,0.109457 0.09694,0.01543 0.196588,0.02436 0.294158,0.01368 C 5.06307,5.28468 5.17087,5.243133 5.278711,5.208083 5.376179,5.176405 5.474035,5.143781 5.566042,5.098626 5.695606,5.035042 5.822541,4.962714 5.935456,4.872869 6.060394,4.773481 6.164017,4.64959 6.270676,4.530812 6.359443,4.431968 6.443523,4.32881 6.523792,4.222962 6.629697,4.083346 6.728083,3.938087 6.824818,3.791974 6.924365,3.641616 7.000945,3.475575 7.112128,3.333619 7.172794,3.256174 7.275296,3.14137 7.344724,3.148908 7.695431,3.169686 9.167892,3.254946 9.167892,3.254946" id="path13353" /><path style="fill:none;fill-rule:evenodd;stroke:#ffffff;stroke-width:0.1323061;stroke-linecap:butt;stroke-linejoin:miter;stroke-miterlimit:4;stroke-dasharray:none;stroke-opacity:1" d="m 8.425619,3.210479 c 0,0 0.328862,-0.03258 0.478886,-0.09577 C 9.00126,3.073939 9.089395,3.010233 9.164468,2.936833 9.242761,2.860299 9.30418,2.766464 9.356022,2.670031 9.406845,2.575465 9.510488,2.390962 9.510488,2.390962" id="path13355" /><path id="path13357" style="fill:#ffffff;fill-rule:evenodd;stroke:#ffffff;stroke-width:0.0567026;stroke-linecap:butt;stroke-linejoin:miter;stroke-miterlimit:4;stroke-dasharray:none;stroke-opacity:1;fill-opacity:1" d="m 7.077098,3.362986 c 0,0 -0.05816,-0.01076 -0.09494,-0.01568 C 6.814343,3.324828 6.644899,3.316622 6.475904,3.306254 6.311901,3.296191 6.147674,3.287074 5.983345,3.285731 5.803141,3.284264 5.623019,3.293578 5.442897,3.299413 5.269561,3.305029 5.096103,3.30941 4.922991,3.319935 4.756257,3.330074 4.590603,3.359952 4.423585,3.360983 4.325281,3.361594 4.226223,3.357474 4.129406,3.34046 4.014963,3.320343 3.898991,3.294913 3.794207,3.244683 3.690931,3.195187 3.607442,3.112099 3.513702,3.046292 3.43865,2.993584 3.368162,2.933469 3.287954,2.888947 3.227227,2.855229 3.164442,2.820821 3.0964,2.806854 c -0.05362,-0.011 -0.110042,-0.008 -0.164187,0 C 2.85443,2.818379 2.777768,2.84214 2.706465,2.875265 2.615252,2.917629 2.53323,2.978374 2.453348,3.039451 2.360954,3.110065 2.284414,3.199701 2.193385,3.272049 2.075498,3.365735 1.951517,3.452008 1.82395,3.53201 1.684727,3.61933 1.542142,3.702502 1.392974,3.771449 1.233801,3.845016 1.069431,3.909504 0.9004148,3.95616 0.7775145,3.990077 0.5104595,4.024571 0.5104595,4.024571 L 0.4985791,4.238725 2.959581,3.70304 3.78736,3.538851 l 0.636225,-0.08209 0.513079,-0.04789 0.533601,-0.01368 0.506253,0.0068 0.506233,0.02736 0.506253,0.05473 z" /><path style="fill:none;fill-rule:evenodd;stroke:#ffffff;stroke-width:0.1323061;stroke-linecap:butt;stroke-linejoin:miter;stroke-miterlimit:4;stroke-dasharray:none;stroke-opacity:1" d="M 3.024383,2.83671 1.986771,2.793174" id="path13360" /><path style="fill:none;fill-rule:evenodd;stroke:#ffffff;stroke-width:0.1323061;stroke-linecap:butt;stroke-linejoin:miter;stroke-miterlimit:4;stroke-dasharray:none;stroke-opacity:1" d="m 4.738263,1.787528 c 0.0046,0.759363 0.06386,1.306653 0.198401,1.559773" id="path13362" /><path style="fill:none;fill-rule:evenodd;stroke:#ffffff;stroke-width:0.1323061;stroke-linecap:butt;stroke-linejoin:miter;stroke-miterlimit:4;stroke-dasharray:none;stroke-opacity:1" d="m 5.395009,1.794369 c 0.0023,0.793569 0.01141,1.272446 0.02737,1.518725" id="path13364" /><path style="fill:none;fill-rule:evenodd;stroke:#ffffff;stroke-width:0.1323061;stroke-linecap:butt;stroke-linejoin:miter;stroke-miterlimit:4;stroke-dasharray:none;stroke-opacity:1" d="m 6.140704,1.780686 c -0.01826,0.602018 -0.02965,1.35454 -0.17788,1.539249" id="path13366" /><path style="fill:none;fill-rule:evenodd;stroke:#ffffff;stroke-width:0.1323061;stroke-linecap:butt;stroke-linejoin:miter;stroke-miterlimit:4;stroke-dasharray:none;stroke-opacity:1" d="m 6.790603,1.794369 c -0.0091,0.759363 -0.09349,1.279287 -0.212075,1.53925" id="path13368" /><path style="fill:none;fill-rule:evenodd;stroke:#ffffff;stroke-width:0.1323061;stroke-linecap:butt;stroke-linejoin:miter;stroke-miterlimit:4;stroke-dasharray:none;stroke-opacity:1" d="M 7.536278,1.780686 C 7.483825,2.597059 7.335615,3.191095 6.989004,3.378086" id="path13370" /><path style="fill:none;fill-rule:evenodd;stroke:#ffffff;stroke-width:0.1323061;stroke-linecap:butt;stroke-linejoin:miter;stroke-miterlimit:4;stroke-dasharray:none;stroke-opacity:1" d="M 1.297197,4.783935 4.074691,5.536457" id="path13372" /></svg>