<?xml version="1.0" encoding="UTF-8" standalone="no"?><svg xmlns:dc="http://purl.org/dc/elements/1.1/" xmlns:cc="http://creativecommons.org/ns#" xmlns:rdf="http://www.w3.org/1999/02/22-rdf-syntax-ns#" xmlns:svg="http://www.w3.org/2000/svg" xmlns="http://www.w3.org/2000/svg" width="10.583335mm" height="10.583335mm" viewBox="0 0 10.583335 10.583335" version="1.1" id="svg13250"><defs id="defs13244" /><path id="path13231" d="M 2.3454,10.118 C 3.0379,9.822 3.5859,9.0051 3.5859,8.2685 c 0,-0.1795 0.029,-0.2466 0.1049,-0.2466 0.058,0 0.1211,-0.028 0.141,-0.063 0.024,-0.04 0.099,-0.012 0.2143,0.082 0.1547,0.1248 0.1992,0.136 0.3382,0.087 0.2314,-0.083 0.3115,-0.2138 0.3115,-0.5073 0,-0.2138 0.033,-0.2797 0.1887,-0.377 0.1039,-0.065 0.2294,-0.1178 0.2791,-0.1178 0.05,0 0.2162,-0.069 0.3699,-0.1552 C 5.6873,6.8851 5.821,6.8234 5.8305,6.8334 6.2837,7.3069 6.5642,7.4803 7.0714,7.6009 8.0762,7.8395 9.2823,7.4106 10.018,6.5527 10.695,5.7636 10.776,4.5719 10.199,3.9009 9.4392,3.0164 8.002,2.9295 6.7994,3.6954 6.4736,3.9029 6.3743,3.9426 6.3223,3.886 6.2863,3.8473 6.1529,3.8109 6.0259,3.8063 5.8359,3.795 5.5096,3.6514 5.5096,3.5715 c 0,-0.011 0.1288,-0.034 0.2863,-0.051 0.1575,-0.017 0.3266,-0.064 0.3757,-0.1035 0.067,-0.053 0.1363,-0.06 0.2733,-0.025 0.2694,0.069 0.5431,0.057 0.5899,-0.025 0.022,-0.04 0,-0.1337 -0.058,-0.2097 C 6.885,3.0281 6.6023,2.9411 6.2495,2.9329 5.9932,2.9215 5.5468,2.826 5.4718,2.7567 5.4273,2.7158 5.3427,2.6873 5.2838,2.693 5.009,2.7192 4.8755,2.6703 4.4498,2.3883 4.1986,2.2215 3.8847,2.0545 3.7525,2.0172 3.6202,1.9796 3.512,1.9148 3.512,1.8722 c 0,-0.1281 0.5165,-0.4759 0.7069,-0.4759 0.1536,0 0.1674,-0.018 0.1313,-0.1676 C 4.328,1.1366 4.3433,1.0186 4.385,0.96664 4.5113,0.80763 4.4088,0.60187 4.1876,0.56991 4.0806,0.55511 3.8203,0.48801 3.6092,0.42102 3.3981,0.35502 3.1903,0.30011 3.1474,0.30011 c -0.1209,0 -0.4517,0.20928 -0.5672,0.35874 -0.128,0.16561 -0.1394,0.35945 -0.018,0.30904 0.06,-0.025 0.071,2.3e-4 0.038,0.0842 C 2.5742,1.1181 2.5522,1.2207 2.5512,1.28 2.5503,1.377 2.4972,1.3915 2.0508,1.4228 1.4207,1.4658 1.1563,1.574 0.90229,1.891 c -0.227,0.2831 -0.254,0.4395 -0.09,0.521 0.19501,0.097 -0.109,1.0398 -0.4295,1.3346 -0.08,0.073 -0.126,0.168 -0.102,0.2103 0.02,0.042 0,0.1466 -0.04,0.2319 -0.06,0.1213 -0.05,0.2236 0.05,0.4712 0.131,0.3266 0.216,0.4043 0.5945,0.541 C 1.0073,5.245 1.2709,5.3812 1.4707,5.5033 L 1.834,5.7251 1.6741,6.0063 C 1.5861,6.161 1.5143,6.3277 1.5143,6.3768 1.5143,6.4258 1.3968,6.5265 1.2532,6.6002 0.85829,6.8029 0.73229,6.9088 0.45479,7.269 0.11179,7.7132 7.9453e-4,8.0517 -2.0547e-4,8.6452 c 0,0.6741 0.23499547,1.1441 0.69849547,1.3948 l 0.184,0.1 c 0.25701,0.09 0.14801,0.108 0.62241,0.143 0.6941,-0.03 0.7332,-0.117 0.8406,-0.164 z M 1.1483,9.8914 C 0.47079,9.6558 0.17279,8.6087 0.55179,7.801 0.64129,7.611 0.76729,7.3981 0.83229,7.3277 1.0043,7.1398 1.3826,6.8759 1.48,6.8759 c 0.093,0 0.2901,0.6175 0.246,0.7716 -0.017,0.059 -0.1221,0.115 -0.2676,0.1431 -0.1682,0.033 -0.2421,0.077 -0.2481,0.1513 -0.02,0.2673 -0.04,0.3034 -0.121,0.2917 -0.15501,-0.021 -0.10401,0.094 0.05,0.1225 0.08,0.014 0.1298,0.045 0.1083,0.068 -0.021,0.024 0.047,0.057 0.1532,0.075 0.1138,0.018 0.1814,0.059 0.1615,0.095 -0.046,0.082 0.179,0.2064 0.3355,0.1858 0.2137,-0.028 0.2873,0.1458 0.1714,0.4053 -0.057,0.1276 -0.081,0.2318 -0.052,0.2314 0.1352,0 0.2012,-0.092 0.2153,-0.2951 0.01,-0.1416 0.058,-0.2369 0.1327,-0.2652 0.074,-0.027 0.1007,-0.08 0.072,-0.1402 -0.048,-0.1023 0.07,-0.1334 0.1544,-0.041 0.029,0.031 0.1422,0.042 0.2633,0.026 0.1544,-0.02 0.2129,-0.011 0.2129,0.042 0,0.039 -0.032,0.084 -0.071,0.1001 -0.039,0.016 -0.053,0.06 -0.032,0.098 C 3.0101,9.02 2.7667,9.3654 2.4957,9.6086 2.1266,9.94 1.6019,10.05 1.1473,9.892 Z M 2.6796,8.0885 c 0.051,-0.014 0.1342,-0.014 0.185,0 0.051,0.014 0.01,0.025 -0.093,0.025 -0.1017,0 -0.1433,-0.011 -0.092,-0.025 z M 4.1778,7.9222 c 0,-0.027 0.033,-0.05 0.074,-0.05 0.041,0 0.074,0.023 0.074,0.05 0,0.027 -0.033,0.05 -0.074,0.05 -0.041,0 -0.074,-0.023 -0.074,-0.05 z M 2.3734,7.7213 C 2.3253,7.5189 2.3886,7.3817 2.6081,7.2123 2.759,7.0958 2.8067,7.1019 2.9076,7.2509 2.9813,7.3601 2.9619,7.414 2.7644,7.6496 2.6388,7.7995 2.5102,7.9221 2.4786,7.9221 c -0.032,0 -0.079,-0.09 -0.1052,-0.201 z m 0.562,-0.047 c 0.062,-0.067 0.1071,-0.08 0.1437,-0.04 0.068,0.074 0.01,0.1374 -0.127,0.1374 -0.088,0 -0.091,-0.017 -0.017,-0.098 z M 3.4121,7.2508 c -0.023,-0.04 -0.01,-0.086 0.029,-0.1024 0.039,-0.016 0.071,0.017 0.071,0.073 0,0.1203 -0.041,0.1324 -0.1,0.03 z M 7.1152,7.1564 C 6.3297,6.9354 5.9055,6.0482 6.1778,5.1959 6.2995,4.815 6.3516,4.7882 6.5947,4.9813 c 0.3937,0.3127 0.4089,0.335 0.3044,0.4485 -0.069,0.075 -0.072,0.1126 -0.012,0.1389 0.045,0.019 0.1047,0.084 0.1319,0.1425 0.032,0.069 0.1263,0.1142 0.2712,0.1285 0.1524,0.015 0.198,0.011 0.1456,-0.03 C 7.3301,5.7396 7.3384,5.71 7.5,5.585 c 0.1029,-0.08 0.1527,-0.092 0.1849,-0.045 0.034,0.05 0.054,0.05 0.087,0 0.031,-0.044 0.1019,-0.032 0.2559,0.045 0.1768,0.088 0.2328,0.096 0.3273,0.042 0.1242,-0.069 0.1609,-0.2761 0.04,-0.2259 -0.041,0.017 -0.074,0 -0.074,-0.05 0,-0.044 -0.033,-0.067 -0.074,-0.05 -0.041,0.017 -0.074,0 -0.074,-0.025 0,-0.031 -0.034,-0.042 -0.076,-0.024 -0.042,0.017 -0.067,0.013 -0.056,-0.011 C 8.0633,5.1965 7.8703,5.0428 7.425,4.7504 7.2779,4.6537 7.0976,4.4853 7.0243,4.3757 L 6.8909,4.1767 7.1408,4.003 C 7.6617,3.6412 8.4906,3.4825 8.9722,3.6523 c 0.3093,0.1092 0.6548,0.378 0.8382,0.652 0.2236,0.3335 0.2406,1.109 0.035,1.5196 -0.285,0.5687 -0.968,1.1523 -1.5469,1.3219 -0.304,0.089 -0.8774,0.092 -1.1832,0.011 z M 2.5054,6.9382 c 0.075,-0.05 0.1373,0.026 0.076,0.093 -0.047,0.051 -0.064,0.051 -0.089,2e-4 -0.017,-0.034 -0.011,-0.076 0.013,-0.093 z m 1.2285,0.036 c 0,-0.027 0.035,-0.05 0.078,-0.05 0.043,0 0.058,0.023 0.033,0.05 -0.025,0.027 -0.06,0.05 -0.078,0.05 -0.018,0 -0.033,-0.023 -0.033,-0.05 z M 3.1935,6.9222 c -0.025,-0.065 -0.01,-0.096 0.047,-0.083 0.1065,0.024 0.162,0.1856 0.064,0.1856 -0.039,0 -0.089,-0.047 -0.1105,-0.1024 z M 2.7536,6.6021 C 2.5947,6.5081 2.5502,6.4374 2.5502,6.2799 c 0,-0.1103 0.025,-0.2016 0.055,-0.2016 0.078,3e-4 0.5308,0.5849 0.4796,0.6194 -0.068,0.045 -0.1171,0.032 -0.3317,-0.096 z m 1.0621,-0.044 c -0.099,-0.08 -0.042,-0.2111 0.1089,-0.25 0.079,-0.021 0.1052,0.017 0.1052,0.1456 0,0.1821 -0.074,0.2181 -0.2142,0.1046 z M 3.5945,6.07 C 3.8899,5.5558 3.9248,5.5276 3.9875,5.7527 4.0283,5.8987 4.0055,5.9588 3.8673,6.07 3.7736,6.1451 3.6306,6.2909 3.5496,6.3931 3.3124,6.6923 3.3364,6.5194 3.5945,6.07 Z m 1.1527,0.2553 c 0.01,-0.097 0.099,-0.4139 0.2034,-0.7044 0.1141,-0.319 0.1913,-0.6835 0.1947,-0.9199 0,-0.2154 0.046,-0.466 0.095,-0.5569 l 0.089,-0.1653 0.1969,0.1046 c 0.1083,0.057 0.2496,0.1754 0.314,0.2624 0.1097,0.148 0.1066,0.1804 -0.049,0.5095 C 5.6586,5.1348 5.6243,5.3259 5.6226,5.7917 v 0.585 L 5.4007,6.4517 C 5.2763,6.4927 5.0765,6.5207 4.9545,6.5147 4.7501,6.503 4.7336,6.4882 4.747,6.3255 Z M 2.9224,6.0407 c 0,-0.034 0.081,-0.063 0.1827,-0.063 0.2116,0 0.2105,0 0.1086,0.1785 C 3.1407,6.286 3.1327,6.2876 3.0311,6.1972 2.9721,6.1452 2.9237,6.0746 2.9224,6.0403 Z M 2.7721,5.7102 c 0,-0.072 0.073,-0.1512 0.1858,-0.2008 C 3.1026,5.4457 3.1336,5.4002 3.0978,5.3043 3.0541,5.1868 3.0674,5.1814 3.393,5.1814 c 0.1875,0 0.3409,0.011 0.3409,0.016 0,0.011 -0.052,0.1191 -0.1159,0.245 C 3.524,5.6284 3.4508,5.6858 3.2296,5.7477 2.8511,5.8535 2.7721,5.8467 2.7721,5.7097 Z m 4.2172,-0.202 c 0,-0.013 0.033,-0.035 0.074,-0.052 0.041,-0.017 0.074,-0.011 0.074,0.022 0,0.028 -0.033,0.052 -0.074,0.052 -0.041,0 -0.074,-0.011 -0.074,-0.022 z m 0.01,-0.5825 C 6.8331,4.7851 6.6981,4.645 6.6993,4.6144 c 0,-0.073 0.5845,0.3739 0.5874,0.4507 0,0.032 0.044,0.069 0.095,0.083 0.063,0.017 0.065,0.026 0.01,0.029 -0.047,0 -0.2222,-0.1114 -0.3884,-0.2517 z M 3.1241,3.9536 C 2.9715,3.9366 2.8466,3.8956 2.8466,3.8638 2.8466,3.8308 2.9548,3.7165 3.0871,3.6088 3.2193,3.5007 3.4087,3.3081 3.5079,3.1801 l 0.1804,-0.2329 0.2676,0.092 c 0.1473,0.05 0.3305,0.089 0.4073,0.083 0.1028,-0.011 0.1636,0.044 0.2307,0.1907 0.05,0.1092 0.094,0.1668 0.097,0.1271 0,-0.057 0.025,-0.059 0.096,-0.011 0.071,0.048 0.052,0.1081 -0.089,0.2818 -0.1941,0.2393 -0.1072,0.2186 -1.1108,0.2655 -0.1018,0 -0.3098,0 -0.4624,-0.022 z M 4.2816,0.81047 c 0.075,-0.05 0.1373,0.0262 0.075,0.0933 -0.047,0.0512 -0.064,0.0512 -0.089,2.3e-4 -0.017,-0.0341 -0.011,-0.0762 0.014,-0.0933 z" style="display:inline;fill:#ffffff;fill-opacity:1;fill-rule:evenodd;stroke-width:0.06071" /></svg>