<?xml version="1.0" encoding="UTF-8" standalone="no"?><svg xmlns:dc="http://purl.org/dc/elements/1.1/" xmlns:cc="http://creativecommons.org/ns#" xmlns:rdf="http://www.w3.org/1999/02/22-rdf-syntax-ns#" xmlns:svg="http://www.w3.org/2000/svg" xmlns="http://www.w3.org/2000/svg" xml:space="preserve" id="svg602" height="40" width="40" y="0" x="0" version="1.0"><defs id="defs604" /><path id="path634" style="font-size:12px;fill:#ea0000;fill-rule:evenodd;stroke-width:0.06007" d="M 38.11,36.906 1.5728,36.933 C 0.14479,36.934 -0.45609,35.478 0.38453,34.053 L 17.938,4.3034 c 1.003,-1.651 2.861,-1.6689 3.863,0.056 L 39.556,34.026 c 0.977,1.417 0.267,2.905 -1.446,2.88 z" /><path id="polygon611" d="M 19.816,7.4124 13.948,17.059 4.2598,33.695 15.902,33.808 35.764,33.643 29.988,23.883 Z" style="font-size:12px;fill:#ffffff;fill-rule:evenodd;stroke-width:0.06007" /><path id="path633" d="M 22.129 14.83 A 1.7975 1.8993 0 0 0 20.332 16.73 A 1.7975 1.8993 0 0 0 20.562 17.656 C 20.514 17.645 20.465 17.631 20.412 17.631 L 15.535 17.631 C 15.438 17.631 15.351 17.657 15.271 17.693 C 15.16 17.719 15.051 17.802 14.975 17.945 L 12.846 21.961 C 12.709 22.219 12.734 22.548 12.902 22.699 L 13.529 23.262 C 13.698 23.413 13.945 23.326 14.082 23.068 L 14.094 23.047 C 14.198 23.106 14.263 23.157 14.377 23.217 L 15.396 23.756 C 15.369 23.848 15.359 23.939 15.365 24.031 C 15.311 24.097 15.258 24.164 15.211 24.246 L 11.43 30.887 C 11.187 31.313 11.163 31.779 11.377 31.93 L 12.176 32.49 C 12.39 32.641 12.757 32.419 13 31.992 L 16.639 25.6 L 17.346 28.535 L 17.373 32.135 C 17.375 32.38 17.583 32.594 17.838 32.613 L 18.787 32.686 C 19.042 32.705 19.246 32.524 19.244 32.279 L 19.217 28.465 C 19.217 28.443 19.206 28.423 19.203 28.402 C 19.212 28.349 19.213 28.293 19.199 28.236 L 18.57 25.619 C 18.609 25.581 18.638 25.529 18.668 25.48 L 23.125 27.83 L 19.484 32.496 C 19.433 32.658 19.529 32.689 19.662 32.699 L 34.418 32.68 L 34.418 32.686 C 34.548 32.676 34.599 32.557 34.549 32.436 L 29.24 25.58 C 28.996 25.275 28.827 25.146 28.385 25.146 L 25.66 25.146 C 25.375 25.137 25.091 25.283 24.904 25.549 L 23.707 27.084 L 21.945 26.156 C 22.07 26.022 22.148 25.762 22.131 25.461 L 21.754 18.891 C 21.747 18.774 21.725 18.669 21.695 18.572 A 1.7975 1.8993 0 0 0 22.129 18.629 A 1.7975 1.8993 0 0 0 23.926 16.73 A 1.7975 1.8993 0 0 0 22.129 14.83 z M 15.932 19.582 L 17.242 19.582 L 15.762 22.895 L 14.783 22.379 C 14.681 22.325 14.612 22.304 14.514 22.256 L 15.932 19.582 z M 20.299 21.875 L 20.5 25.395 L 19.064 24.637 L 20.299 21.875 z " style="font-size:12px;fill-rule:evenodd;stroke-width:0.06007" /></svg>