<?xml version="1.0" encoding="UTF-8" standalone="no"?><svg xmlns:dc="http://purl.org/dc/elements/1.1/" xmlns:cc="http://creativecommons.org/ns#" xmlns:rdf="http://www.w3.org/1999/02/22-rdf-syntax-ns#" xmlns:svg="http://www.w3.org/2000/svg" xmlns="http://www.w3.org/2000/svg" width="40" height="40" viewBox="0 0 10.58333 10.58333" version="1.1" id="svg13216"><defs id="defs13210" /><path d="M 7.85,0.97 A 0.90227,0.90227 0 0 1 6.948,1.87 0.90227,0.90227 0 0 1 6.046,0.97 0.90227,0.90227 0 0 1 6.948,0.07 0.90227,0.90227 0 0 1 7.85,0.97 Z M 6.803,9.88 c 0.01,0 0.01,-0.56 0,-1.25 L 6.783,7.37 5.913,6.86 C 5.435,6.59 5.033,6.39 5.021,6.43 5.011,6.43 4.808,6.85 4.575,7.3 4.289,7.84 4.086,8.15 3.946,8.24 3.738,8.38 1.462,9.01 1.161,9.01 0.771,9.01 0.507,8.62 0.635,8.23 0.735,7.93 0.875,7.87 1.99,7.6 L 2.912,7.37 3.963,5.3 C 4.541,4.15 5.002,3.21 4.988,3.19 4.958,3.19 4.266,3.34 4.229,3.38 4.219,3.38 3.991,3.84 3.724,4.37 3.457,4.91 3.192,5.4 3.135,5.47 2.998,5.62 2.633,5.62 2.491,5.47 2.431,5.37 2.379,5.26 2.379,5.16 2.379,5.06 2.65,4.44 2.982,3.78 3.533,2.68 3.603,2.57 3.805,2.51 c 0.122,0 0.712,-0.2 1.311,-0.35 l 1.09,-0.29 0.327,0.18 c 0.18,0.1 0.628,0.35 0.994,0.57 0.505,0.31 0.685,0.39 0.739,0.33 0.04,0 0.245,-0.38 0.456,-0.74 0.385,-0.65 0.575,-0.86 0.801,-0.86 0.09,0 0.263,0.1 0.358,0.17 0.08,0.1 0.09,0.23 0.09,0.31 C 9.971,2 8.94,3.8 8.706,4.03 8.498,4.24 8.32,4.2 7.612,3.78 L 7.047,3.44 6.596,4.33 C 6.349,4.82 6.144,5.25 6.142,5.29 c 0,0 0.373,0.25 0.832,0.46 0.703,0.33 0.849,0.42 0.92,0.6 0.03,0.21 0.06,0.42 0.06,0.63 0.02,0.99 0.02,1.92 0.02,2.92 -0.01,0.79 -1.134,0.85 -1.181,0 z" style="display:inline;opacity:1;fill:#ffffff;fill-opacity:1;fill-rule:evenodd;stroke:#ffffff;stroke-width:0.13917;stroke-miterlimit:4;stroke-dasharray:none;stroke-dashoffset:0;stroke-opacity:1;paint-order:stroke markers fill" id="path13175" /></svg>