<?xml version="1.0" encoding="UTF-8" standalone="no"?><svg xmlns:dc="http://purl.org/dc/elements/1.1/" xmlns:cc="http://creativecommons.org/ns#" xmlns:rdf="http://www.w3.org/1999/02/22-rdf-syntax-ns#" xmlns:svg="http://www.w3.org/2000/svg" xmlns="http://www.w3.org/2000/svg" width="40" height="40" viewBox="0 0 10.58333 10.58333" version="1.1" id="svg2560"><defs id="defs2554" /><path clip-path="none" style="fill:none;fill-opacity:1;fill-rule:nonzero;stroke:#ffffff;stroke-width:0.49591;stroke-linecap:round;stroke-linejoin:miter;stroke-miterlimit:10;stroke-opacity:1" d="m 5.2923,10.11 c 1.8874,0 3.4183,-1.36 3.4183,-3.04 0,-1.29 -0.9035,-2.39 -2.1766,-2.84 -0.061,0 -0.07,-0.1 -0.01,-0.12 0.6667,-0.37 1.1114,-1.03 1.1114,-1.78 0,-1.15 -1.0494,-2.09 -2.3435,-2.09 -1.295,0 -2.3453,0.94 -2.3453,2.09 0,0.75 0.4457,1.41 1.1124,1.78 0.052,0 0.052,0.1 -0.01,0.12 -1.2731,0.45 -2.1767,1.55 -2.1767,2.84 0,1.68 1.5309,3.04 3.4192,3.04" id="path2601" /><path clip-path="none" style="fill:none;stroke:#ffffff;stroke-width:0.31021;stroke-linecap:round;stroke-linejoin:miter;stroke-miterlimit:10;stroke-opacity:1" d="m 5.2923,2.37 v 0.47 c 0,0.21 -0.094,0.45 -0.3722,0.45 C 4.817,3.29 4.685,3.19 4.6404,3.11" id="path2603" /><path clip-path="none" style="fill:none;stroke:#ffffff;stroke-width:0.31021;stroke-linecap:round;stroke-linejoin:miter;stroke-miterlimit:10;stroke-opacity:1" d="m 5.2923,2.37 v 0.47 c 0,0.21 0.093,0.45 0.3705,0.45 0.104,0 0.2359,-0.1 0.2805,-0.18" id="path2605" /><path clip-path="none" style="fill:none;stroke:#ffffff;stroke-width:0.39321;stroke-linecap:round;stroke-linejoin:miter;stroke-miterlimit:10;stroke-opacity:1" d="M 2.836,1.73 C 2.3467,1.47 2.2602,0.9 2.5826,0.51 2.9051,0.13 3.6041,0.18 4.0349,0.51" id="path2607" /><path clip-path="none" style="fill:none;stroke:#ffffff;stroke-width:0.39321;stroke-linecap:round;stroke-linejoin:miter;stroke-miterlimit:10;stroke-opacity:1" d="M 7.7477,1.73 C 8.237,1.47 8.3226,0.9 8.0002,0.51 7.6778,0.13 6.9787,0.18 6.5488,0.51" id="path2609" /><path clip-path="none" style="fill:#ffffff;fill-opacity:1;fill-rule:nonzero;stroke:none;stroke-width:0.23447" d="m 4.7296,1.57 c 0,0.16 -0.1355,0.29 -0.3024,0.29 -0.166,0 -0.3005,-0.13 -0.3005,-0.29 0,-0.16 0.1345,-0.29 0.3005,-0.29 0.1669,0 0.3024,0.13 0.3024,0.29" id="path2611" /><path clip-path="none" style="fill:#ffffff;fill-opacity:1;fill-rule:nonzero;stroke:none;stroke-width:0.23447" d="m 5.2923,1.97 c -0.1616,0 -0.6519,0 -0.6519,0.33 0,0.26 0.3006,0.57 0.6519,0.57 0.3495,0 0.6501,-0.31 0.6501,-0.57 0,-0.33 -0.4893,-0.33 -0.6501,-0.33" id="path2613" /><path clip-path="none" style="fill:none;stroke:#ffffff;stroke-width:0.3238;stroke-linecap:round;stroke-linejoin:miter;stroke-miterlimit:10;stroke-opacity:1" d="m 6.4361,3.01 c 0,0.51 -0.512,0.92 -1.1438,0.92 -0.6335,0 -1.1447,-0.41 -1.1447,-0.92 0,-0.5 0.5112,-0.72 1.1447,-0.72 0.6318,0 1.1438,0.22 1.1438,0.72 z m 0,0" id="path2615" /><path clip-path="none" style="fill:#ffffff;fill-opacity:1;fill-rule:nonzero;stroke:none;stroke-width:0.23447" d="m 2.5232,9.89 c 0.2333,0.19 0.7969,0.5 1.2426,0.43 C 4.3049,10.22 4.3678,9.94 4.2647,9.61 4.1599,9.26 3.6906,8.57 3.5447,8.19 3.4119,7.86 3.1882,7.46 2.6089,7.46 2.2497,7.46 1.7185,7.77 1.6975,8.41 1.6715,9.17 2.289,9.71 2.5232,9.89" id="path2617" /><path clip-path="none" style="fill:none;stroke:#ffffff;stroke-width:0.49591;stroke-linecap:round;stroke-linejoin:miter;stroke-miterlimit:10;stroke-opacity:1" d="m 2.5232,9.89 c 0.2333,0.19 0.7969,0.5 1.2426,0.43 C 4.3049,10.22 4.3678,9.94 4.2647,9.61 4.1599,9.26 3.6906,8.57 3.5447,8.19 3.4119,7.86 3.1882,7.46 2.6089,7.46 c -0.36,0 -0.8904,0.31 -0.9114,0.95 -0.026,0.76 0.5915,1.3 0.8257,1.48 z m 0,0" id="path2619" /><path clip-path="none" style="fill:none;stroke:#ffffff;stroke-width:0.39321;stroke-linecap:round;stroke-linejoin:miter;stroke-miterlimit:10;stroke-opacity:1" d="m 3.1795,4.66 c 0.1328,0.29 0.4063,0.72 0.9,0.83 C 4.6011,5.61 4.8021,5.8 4.8091,6.16 4.8191,6.47 4.581,7.63 3.8199,7.39 3.4661,7.28 3.1873,6.89 3.1873,6.89 3.1873,6.89 2.5267,6.43 2.0444,6" id="path2621" /><path clip-path="none" style="fill:none;stroke:#ffffff;stroke-width:0.39321;stroke-linecap:round;stroke-linejoin:miter;stroke-miterlimit:10;stroke-opacity:1" d="M 4.7907,6 C 4.484,6 4.2892,6 4.2892,6" id="path2623" /><path clip-path="none" style="fill:none;stroke:#ffffff;stroke-width:0.39321;stroke-linecap:round;stroke-linejoin:miter;stroke-miterlimit:10;stroke-opacity:1" d="m 4.7313,6.65 c 0,0 -0.2805,-0.15 -0.4054,-0.16" id="path2625" /><path clip-path="none" style="fill:none;stroke:#ffffff;stroke-width:0.39321;stroke-linecap:round;stroke-linejoin:miter;stroke-miterlimit:10;stroke-opacity:1" d="M 4.3975,7.26 C 4.2079,7.07 4.1441,6.98 4.1441,6.98" id="path2627" /><path clip-path="none" style="fill:none;stroke:#ffffff;stroke-width:0.39321;stroke-linecap:round;stroke-linejoin:miter;stroke-miterlimit:10;stroke-opacity:1" d="M 7.4043,4.66 C 7.2715,4.95 6.998,5.38 6.5043,5.49 5.9817,5.61 5.7816,5.8 5.7738,6.16 c -0.01,0.31 0.228,1.47 0.9891,1.23 0.3556,-0.11 0.6326,-0.5 0.6326,-0.5 0,0 0.6606,-0.46 1.1438,-0.89" id="path2629" /><path clip-path="none" style="fill:none;stroke:#ffffff;stroke-width:0.39321;stroke-linecap:round;stroke-linejoin:miter;stroke-miterlimit:10;stroke-opacity:1" d="M 5.7921,6 C 6.0988,6 6.2937,6 6.2937,6" id="path2631" /><path clip-path="none" style="fill:none;stroke:#ffffff;stroke-width:0.39321;stroke-linecap:round;stroke-linejoin:miter;stroke-miterlimit:10;stroke-opacity:1" d="m 5.8515,6.65 c 0,0 0.2805,-0.15 0.4064,-0.16" id="path2633" /><path clip-path="none" style="fill:none;stroke:#ffffff;stroke-width:0.39321;stroke-linecap:round;stroke-linejoin:miter;stroke-miterlimit:10;stroke-opacity:1" d="M 6.1853,7.26 C 6.3758,7.07 6.4387,6.98 6.4387,6.98" id="path2635" /><path clip-path="none" style="fill:#ffffff;fill-opacity:1;fill-rule:nonzero;stroke:none;stroke-width:0.23447" d="m 5.8542,1.57 c 0,0.16 0.1345,0.29 0.3014,0.29 0.1669,0 0.3015,-0.13 0.3015,-0.29 0,-0.16 -0.1346,-0.29 -0.3015,-0.29 -0.1669,0 -0.3014,0.13 -0.3014,0.29" id="path2637" /><path clip-path="none" style="fill:#ffffff;fill-opacity:1;fill-rule:nonzero;stroke:none;stroke-width:0.23447" d="M 8.0605,9.89 C 7.8263,10.08 7.2636,10.39 6.8171,10.32 6.278,10.22 6.215,9.94 6.3199,9.61 6.423,9.26 6.8922,8.57 7.0382,8.19 7.1718,7.86 7.3947,7.46 7.9749,7.46 c 0.3591,0 0.8904,0.31 0.9113,0.95 0.026,0.76 -0.5915,1.3 -0.8257,1.48" id="path2639" /><path clip-path="none" style="fill:none;stroke:#ffffff;stroke-width:0.49591;stroke-linecap:round;stroke-linejoin:miter;stroke-miterlimit:10;stroke-opacity:1" d="M 8.0605,9.89 C 7.8263,10.08 7.2627,10.39 6.8171,10.32 6.278,10.22 6.215,9.94 6.3199,9.61 6.423,9.26 6.8922,8.57 7.0382,8.19 7.171,7.86 7.3947,7.46 7.9749,7.46 c 0.3591,0 0.8895,0.31 0.9113,0.95 0.026,0.76 -0.5915,1.3 -0.8257,1.48 z m 0,0" id="path2641" /></svg>