<?xml version="1.0" encoding="UTF-8" standalone="no"?><svg xmlns:dc="http://purl.org/dc/elements/1.1/" xmlns:cc="http://creativecommons.org/ns#" xmlns:rdf="http://www.w3.org/1999/02/22-rdf-syntax-ns#" xmlns:svg="http://www.w3.org/2000/svg" xmlns="http://www.w3.org/2000/svg" width="48" height="48" viewBox="0 0 48 48.000001" id="svg69016" version="1.1"><defs id="defs69018" /><path d="M 22.649,-0.00104 17.244,21.594 H 12.328 L 4.654,47.965 3.1116,48.009 11.2,20.106 h 4.87 L 20.952,0.0078 Z M 25.174,43.721 c 0,0 -0.318,1.53 1.553,1.866 1.871,0.347 2.278,-1.588 2.278,-1.588 l 3.513,-14.587 c 0,0 2.419,0.491 3.554,-1.072 1.133,-1.563 3.267,-3.285 3.267,-3.285 l -0.47,6.022 c 0,0 0.106,1.384 1.352,1.485 1.792,0.155 1.915,-1.196 1.915,-1.196 l 1.301,-12.242 c 0,0 -0.832,-1.887 -2.819,-0.199 -1.994,1.709 -4.546,3.699 -4.546,3.699 L 44.684,5.6446 c 0,0 0.703,-1.2069 -0.497,-1.9784 -1.285,-0.8135 -2.018,0.5615 -2.018,0.5615 l -7.092,12.7103 -3.413,0.29 -5.781,-3.798 0.191,-5.2632 c 0,0 0.776,-2.1773 -1.491,-2.4558 -1.269,-0.1548 -1.264,1.6203 -1.264,1.6203 l -0.849,8.0417 7.274,4.815 -0.879,7.551 z M 36.167,10.87 c 0,-1.7659 -1.435,-3.1939 -3.208,-3.1939 -1.763,0 -3.199,1.428 -3.199,3.1939 0,1.775 1.436,3.239 3.199,3.239 1.773,0 3.208,-1.464 3.208,-3.239" style="fill:#ffffff;fill-opacity:1;fill-rule:nonzero;stroke:none;stroke-width:2.210525" id="path17162" /></svg>