<?xml version="1.0" encoding="UTF-8" standalone="no"?><svg xmlns:dc="http://purl.org/dc/elements/1.1/" xmlns:cc="http://creativecommons.org/ns#" xmlns:rdf="http://www.w3.org/1999/02/22-rdf-syntax-ns#" xmlns:svg="http://www.w3.org/2000/svg" xmlns="http://www.w3.org/2000/svg" xmlns:sodipodi="http://sodipodi.sourceforge.net/DTD/sodipodi-0.dtd" xmlns:inkscape="http://www.inkscape.org/namespaces/inkscape" width="100" height="100" viewBox="0 0 26.45833 26.45833" version="1.1" id="svg4415" inkscape:version="0.92.3 (2405546, 2018-03-11)" sodipodi:docname="259.svg"><defs id="defs4409" /><sodipodi:namedview id="base" pagecolor="#ffffff" bordercolor="#666666" borderopacity="1.0" inkscape:pageopacity="0.0" inkscape:pageshadow="2" inkscape:zoom="1.979899" inkscape:cx="18.68939" inkscape:cy="-8.641027" inkscape:document-units="mm" inkscape:current-layer="layer1" showgrid="false" units="px" inkscape:window-width="1556" inkscape:window-height="931" inkscape:window-x="1185" inkscape:window-y="197" inkscape:window-maximized="0" /><g inkscape:label="Ebene 1" inkscape:groupmode="layer" id="layer1" transform="translate(0,-270.5417)"><g transform="matrix(1.482683,0,0,1.482683,-1396.454,-508.0609)" style="display:inline" id="16317" inkscape:export-filename="/home/chris/Downloads/edelweiss.png" inkscape:export-xdpi="218.27675" inkscape:export-ydpi="218.27675"><path d="m 942.0882,542.5995 c 0,0 8.4703,0 9.1739,0 3.2825,0 5.0896,-1.4374 5.6896,-4.5306 l 2.4329,-12.5618 c 0,0 -8.4708,0 -9.1731,0 -3.2833,0 -5.0904,1.4374 -5.6895,4.5319 l -2.4338,12.5605" style="fill:#d21a38;fill-opacity:1;fill-rule:nonzero;stroke:#d21a38;stroke-width:0.5;stroke-miterlimit:4;stroke-dasharray:none;stroke-opacity:1;paint-order:markers stroke fill" id="path240" inkscape:connector-curvature="0" /><g id="g7173"><path inkscape:connector-curvature="0" id="path242" style="fill:#25417a;fill-opacity:1;fill-rule:nonzero;stroke:none;stroke-width:0.0437021" d="m 956.3604,532.565 c -0.1241,-0.014 -0.2613,0 -0.4033,0 -0.2605,0 -0.5122,-0.024 -0.6665,-0.037 -0.6236,-0.059 -1.2604,-0.1656 -1.8788,-0.02 0.2216,-0.2779 0.7653,-1.1834 0.2238,-1.4461 -0.3645,-0.177 -1.138,0.2509 -1.634,0.7124 0.034,-0.6267 0.028,-1.874 -0.3829,-2.6816 -0.1704,-0.3325 -0.4982,-0.7315 -0.7866,-0.7315 -0.6398,0 -0.5576,0.794 -0.5589,1.1703 0,0.361 0,0.7307 -0.035,1.079 -0.038,0.364 -0.1115,0.7023 -0.2185,1.0676 -0.3807,-0.3889 -1.4409,-1.3857 -1.9972,-1.1502 -0.2618,0.1106 -0.3138,0.3483 -0.1884,0.597 0.09,0.1783 0.2434,0.4108 0.3785,0.6096 0.1621,0.2399 0.2788,0.4558 0.3491,0.5834 -0.4099,-0.1468 -0.7381,-0.078 -1.1082,-0.01 -0.2465,0.047 -0.4698,0.095 -0.7001,0.1416 -0.2408,0.048 -0.5944,0.1219 -0.9165,0.2076 -0.2281,0.059 -0.4549,0.1101 -0.5816,0.2356 -0.2173,0.2141 -0.2312,0.534 0.012,0.7219 0.1551,0.1189 0.4558,0.2128 0.6525,0.2461 0.7888,0.1333 1.4041,0.4562 2.1291,0.5947 -0.3898,0.1513 -1.2525,0.5642 -1.041,1.1022 0.092,0.2281 0.3344,0.3029 0.6057,0.3404 0.3055,0.042 0.6486,0.025 0.8636,0 -0.1167,0.1765 -0.2259,0.3697 -0.3103,0.5598 -0.1796,0.4108 -0.2714,0.8325 -0.4951,1.2429 -0.05,0.095 -0.1276,0.2513 -0.2312,0.4069 -0.08,0.1184 -0.1827,0.2438 -0.2495,0.3649 -0.1,0.1818 0,0.4409 0.1791,0.5135 0.24,0.098 0.5026,0 0.774,-0.1381 0.2237,-0.1158 0.4615,-0.2583 0.6127,-0.3579 0.59,-0.3969 1.072,-0.8994 1.5165,-1.4483 0.066,0.3762 0.2119,0.9619 0.7167,0.8028 0.073,-0.022 0.1521,-0.093 0.2032,-0.1499 0.1058,-0.1171 0.2063,-0.3754 0.2517,-0.5839 0.3536,0.5795 1.5326,1.7791 2.6737,1.8884 0.1267,0.014 0.4069,-0.037 0.5074,-0.1307 0.2561,-0.2403 0.1813,-0.5559 0.065,-0.7438 -0.1189,-0.1901 -0.2928,-0.3579 -0.413,-0.5017 -0.4161,-0.4925 -0.7945,-0.9737 -1.0838,-1.5759 0.4396,0.1862 1.0654,0.2133 1.3215,-0.121 0.077,-0.1014 0.1193,-0.2644 0.063,-0.4558 -0.09,-0.3134 -0.4908,-0.6639 -0.7959,-0.8238 0.4349,-0.047 1.215,-0.177 2.1576,-0.6875 0.5026,-0.2722 0.8789,-0.6385 0.8452,-1.006 -0.018,-0.2089 -0.2281,-0.3645 -0.4248,-0.3859" /><path inkscape:connector-curvature="0" id="path244" style="fill:#ffffff;fill-opacity:1;fill-rule:nonzero;stroke:none;stroke-width:0.0437021" d="m 947.7083,534.0605 c -0.295,-0.08 -0.5847,-0.1879 -0.8784,-0.2849 -0.1237,-0.043 -0.4532,-0.1263 -0.7709,-0.2002 -0.3339,-0.081 -0.6569,-0.1525 -0.6569,-0.3164 0,-0.1621 0.2076,-0.2185 0.51,-0.2941 0.4895,-0.1233 1.1511,-0.2574 1.3054,-0.2876 0.319,-0.065 0.6669,-0.1564 0.9837,-0.1188 0.2142,0.024 0.4065,0.104 0.5804,0.2788 0.071,0.074 0.1836,0.1695 0.2745,0.1 0.039,-0.033 0.053,-0.058 0.062,-0.086 0.014,-0.051 -0.01,-0.1049 -0.045,-0.1915 -0.033,-0.079 -0.074,-0.1726 -0.1171,-0.2578 -0.043,-0.082 -0.094,-0.1796 -0.1124,-0.2176 -0.1665,-0.3199 -0.3684,-0.6202 -0.565,-0.923 -0.1128,-0.1718 -0.2155,-0.3239 -0.1971,-0.3955 0.014,-0.06 0.1311,-0.073 0.2403,-0.048 0.081,0.019 0.1556,0.052 0.267,0.1092 0.188,0.094 0.3606,0.2246 0.5315,0.3553 0.2207,0.1687 0.43,0.3514 0.6096,0.5494 0.1905,0.2084 0.2495,0.215 0.3785,0.1892 0.1468,-0.028 0.1739,-0.1787 0.215,-0.3007 0.029,-0.1005 0.07,-0.229 0.099,-0.3653 0.049,-0.2334 0.088,-0.3698 0.121,-0.6311 0.016,-0.1385 0.035,-0.4086 0.039,-0.562 0.01,-0.253 0.01,-0.5231 0.01,-0.7613 0,-0.3693 -0.023,-0.5943 0.1359,-0.7045 0.064,-0.045 0.1635,0 0.1927,0.019 0.3934,0.2596 0.5909,0.8801 0.6569,1.204 0.1123,0.5502 0.1473,1.11 0.1254,1.6711 -0.01,0.2216 -0.035,0.4217 -0.039,0.5568 -0.4138,-0.018 -0.6407,0.1761 -0.7534,0.3903 -0.1359,-0.4226 -0.6171,-0.4725 -1.0038,-0.2684 -0.3754,0.1993 -0.6713,0.6617 -0.4886,1.0441 -0.4952,-0.039 -0.7395,0.4951 -0.6984,0.9264 -0.3479,-0.038 -0.68,-0.089 -1.0095,-0.1787" /><path inkscape:connector-curvature="0" id="path246-2" style="fill:#ffffff;fill-opacity:1;fill-rule:nonzero;stroke:none;stroke-width:0.0437021" d="m 956.3137,533.2979 c -0.086,0.1145 -0.2491,0.2172 -0.403,0.3134 -0.2399,0.1459 -0.4755,0.2399 -0.5546,0.2775 -0.4064,0.1826 -0.8146,0.3124 -1.2524,0.3928 -0.1438,0.027 -0.3728,0.049 -0.5656,0.075 -0.1175,0.017 -0.2399,0.051 -0.3177,0.073 -0.067,0.018 -0.096,0.078 -0.1066,0.1166 -0.018,0.064 0.018,0.1438 0.084,0.174 0.1005,0.045 0.2919,0.089 0.6813,0.3592 0.257,0.177 0.4353,0.4244 0.4086,0.59 -0.012,0.083 -0.063,0.1342 -0.2154,0.1752 -0.2194,0.06 -0.4366,0.019 -0.6494,-0.044 -0.035,-0.01 -0.1674,-0.063 -0.2981,-0.125 -0.082,-0.039 -0.156,-0.1035 -0.2303,-0.1105 -0.1167,-0.013 -0.2251,0.087 -0.1538,0.2443 0.2766,0.6463 0.6367,1.2192 1.0851,1.755 0.079,0.091 0.2316,0.2771 0.382,0.4567 0.075,0.091 0.1206,0.1381 0.194,0.2321 0.1254,0.1656 0.1114,0.3535 -0.048,0.4034 -0.4934,0.1512 -1.3185,-0.3837 -1.6275,-0.6355 -0.2884,-0.2382 -0.5629,-0.4842 -0.7963,-0.7783 -0.04,-0.05 -0.1398,-0.1862 -0.277,-0.3933 -0.064,-0.099 -0.1351,-0.3501 -0.2601,-0.3697 -0.1031,-0.018 -0.1752,0.073 -0.1914,0.2097 -0.022,0.125 -0.05,0.3706 -0.1298,0.5834 -0.065,0.1687 -0.1494,0.3112 -0.2561,0.2898 -0.086,-0.018 -0.1481,-0.184 -0.1804,-0.33 -0.01,-0.038 -0.051,-0.2233 -0.072,-0.3705 -0.016,-0.1167 -0.027,-0.2282 -0.054,-0.3003 -0.02,-0.058 -0.1062,-0.1018 -0.1774,-0.076 -0.078,0.028 -0.1687,0.173 -0.2347,0.2639 -0.3046,0.4174 -0.7088,0.8863 -1.2612,1.2927 -0.3435,0.2553 -0.7229,0.4777 -1.0008,0.6075 -0.1665,0.076 -0.2937,0.091 -0.3523,0.039 -0.051,-0.048 0.01,-0.1084 0.07,-0.2032 0.087,-0.132 0.2207,-0.3029 0.2779,-0.4065 0.1578,-0.2862 0.2911,-0.5794 0.3999,-0.8893 0.055,-0.1547 0.1018,-0.3168 0.1613,-0.4659 0.064,-0.1621 0.1433,-0.3177 0.229,-0.4737 0.029,-0.05 0.1804,-0.2832 0.3771,-0.4903 0.1049,-0.1128 0.014,-0.3243 -0.1726,-0.2618 -0.2758,0.093 -0.774,0.149 -1.1826,0.098 -0.1652,-0.02 -0.3007,-0.032 -0.3492,-0.1761 -0.048,-0.1438 0.2085,-0.3492 0.4344,-0.4755 0.3523,-0.1923 0.7382,-0.3133 1.0624,-0.3911 0.198,0.4064 0.4497,0.4711 0.5537,0.4895 -0.2001,0.3413 -0.01,0.7512 0.2972,0.9802 0.3793,0.2854 0.9934,0.3024 1.287,-0.1363 0.212,0.2897 0.5288,0.3373 0.8129,0.2508 0.4488,-0.1363 0.8225,-0.6223 0.6149,-1.1393 0.3946,-0.153 0.6175,-0.6333 0.5668,-1.0764 -0.036,-0.3068 -0.1971,-0.6206 -0.5223,-0.7132 0.1154,-0.2898 0.019,-0.59 -0.1804,-0.7976 -0.07,-0.072 -0.1556,-0.1311 -0.2443,-0.1752 0.076,-0.078 0.3059,-0.3243 0.6481,-0.5533 0.1429,-0.095 0.3225,-0.2032 0.4951,-0.2705 0.1949,-0.074 0.3632,-0.1045 0.416,-0.041 0.042,0.054 0.016,0.2159 -0.041,0.3672 -0.053,0.1459 -0.132,0.2792 -0.1621,0.3286 -0.1267,0.2154 -0.2723,0.385 -0.4436,0.5406 -0.024,0.026 -0.1023,0.093 -0.1359,0.1167 -0.084,0.063 -0.1233,0.1197 -0.077,0.2237 0.016,0.039 0.091,0.1115 0.1866,0.077 0.2295,-0.082 0.4217,-0.1739 0.6346,-0.2203 0.3111,-0.065 0.6507,-0.063 1.0104,-0.039 0.1394,0.01 0.6022,0.071 1.0541,0.093 0.218,0.011 0.4064,0.018 0.5554,0.013 0.2194,-0.01 0.309,0 0.3501,0.094 0.033,0.064 -0.046,0.1888 -0.1547,0.3317" /><path inkscape:connector-curvature="0" id="path248" style="fill:#fccb33;fill-opacity:1;fill-rule:nonzero;stroke:none;stroke-width:0.0437021" d="m 949.7457,534.1505 c 0.022,0.2596 -0.082,0.5319 -0.3024,0.5511 -0.1386,0.011 -0.3545,-0.201 -0.3698,-0.4929 -0.014,-0.2894 0.1123,-0.5511 0.3024,-0.5594 0.1583,-0.01 0.344,0.2054 0.3698,0.5012" /><path inkscape:connector-curvature="0" id="path250" style="fill:#fccb33;fill-opacity:1;fill-rule:nonzero;stroke:none;stroke-width:0.0437021" d="m 949.9729,532.6393 c 0.229,-0.1599 0.5013,-0.2098 0.6193,-0.052 0.083,0.1167 0,0.389 -0.2295,0.5555 -0.2115,0.1534 -0.4828,0.1966 -0.6061,0.041 -0.078,-0.099 -0.015,-0.3872 0.2163,-0.545" /><path inkscape:connector-curvature="0" id="path252" style="fill:#fccb33;fill-opacity:1;fill-rule:nonzero;stroke:none;stroke-width:0.0437021" d="m 949.6639,535.2273 c 0.1036,-0.2294 0.434,-0.2425 0.6892,-0.1258 0.2574,0.121 0.4432,0.385 0.292,0.6227 -0.097,0.1556 -0.3816,0.2269 -0.6704,0.093 -0.2373,-0.1105 -0.4126,-0.3566 -0.3108,-0.59" /><path inkscape:connector-curvature="0" id="path254-7" style="fill:#fccb33;fill-opacity:1;fill-rule:nonzero;stroke:none;stroke-width:0.0437021" d="m 950.1272,534.1116 c 0,-0.3998 0.3147,-0.7263 0.7014,-0.7263 0.3894,0 0.7006,0.3265 0.7006,0.7263 0,0.4021 -0.3396,0.7137 -0.7006,0.7242 -0.4235,0.013 -0.7014,-0.3221 -0.7014,-0.7242" /><path inkscape:connector-curvature="0" id="path256" style="fill:#fccb33;fill-opacity:1;fill-rule:nonzero;stroke:none;stroke-width:0.0437021" d="m 951.4168,535.0565 c 0.2487,-0.1578 0.521,-0.1408 0.6377,0.056 0.1079,0.1792 0.028,0.4432 -0.1923,0.6031 -0.2207,0.1604 -0.4799,0.1495 -0.6184,-0.021 -0.1403,-0.1709 -0.059,-0.4886 0.173,-0.6376" /><path inkscape:connector-curvature="0" id="path258-0" style="fill:#fccb33;fill-opacity:1;fill-rule:nonzero;stroke:none;stroke-width:0.0437021" d="m 951.8512,534.0771 c 0.028,-0.3221 0.2509,-0.5533 0.4323,-0.5384 0.2141,0.015 0.3697,0.2657 0.322,0.6227 -0.039,0.32 -0.2657,0.5468 -0.4431,0.521 -0.2465,-0.037 -0.3369,-0.2876 -0.3112,-0.6053" /><path inkscape:connector-curvature="0" id="path260" style="fill:#fccb33;fill-opacity:1;fill-rule:nonzero;stroke:none;stroke-width:0.0437021" d="m 952.0986,533.089 c -0.077,0.1621 -0.3142,0.2596 -0.5826,0.1451 -0.2377,-0.1014 -0.3566,-0.3243 -0.2831,-0.5231 0.08,-0.2185 0.3456,-0.2815 0.586,-0.184 0.2377,0.097 0.3837,0.3483 0.2797,0.562" /></g></g></g></svg>