<?xml version="1.0" encoding="UTF-8" standalone="no"?><svg xmlns:dc="http://purl.org/dc/elements/1.1/" xmlns:cc="http://creativecommons.org/ns#" xmlns:rdf="http://www.w3.org/1999/02/22-rdf-syntax-ns#" xmlns:svg="http://www.w3.org/2000/svg" xmlns="http://www.w3.org/2000/svg" width="100" height="100" viewBox="0 0 26.45833 26.45833" version="1.1" id="svg3793"><defs id="defs3787" /><path id="path7005" transform="scale(0.26458)" d="M 48.9 5.0645 C 48.137 5.2156 47.398 5.6699 46.639 5.6699 C 45.384 5.8967 44.341 6.5383 43.393 7.332 C 41.174 9.184 39.552 11.527 38.369 14.135 C 37.057 17.045 35.632 19.842 33.729 22.412 C 32.326 24.302 31.239 26.38 30.125 28.459 C 29.074 30.387 28.214 32.39 27.494 34.469 C 27.087 35.678 26.697 36.888 26.471 38.098 C 26.24 39.345 26.168 40.629 26.1 41.914 C 25.973 44.106 26.375 46.223 26.932 48.34 C 27.237 49.511 27.629 50.645 27.908 51.816 C 28.194 53.026 28.548 54.199 29.146 55.295 C 29.256 55.484 29.328 55.56 29.385 55.938 C 29.453 56.278 29.482 56.579 29.539 56.957 C 27.235 57.864 26.55 58.281 25.068 59.604 C 24.714 59.906 24.338 60.208 24.043 60.586 C 23.479 61.266 22.863 61.947 22.463 62.74 C 21.89 63.874 21.481 65.084 21.018 66.293 C 20.456 67.729 20.047 69.242 19.361 70.678 C 17.77 73.928 18.13 77.216 19.418 80.504 C 19.795 81.449 20.509 82.242 21.566 82.242 C 22.661 82.393 23.776 82.243 24.764 81.789 C 26.189 81.147 27.463 80.239 28.598 79.143 C 28.863 78.878 29.198 78.765 29.592 78.387 C 29.145 78.991 28.721 79.445 28.438 80.012 C 28.287 80.276 28.166 80.654 27.875 80.654 C 26.629 81.335 26.156 83.15 26.881 84.359 C 26.986 84.737 27.108 84.736 27.346 84.736 C 27.542 84.396 27.329 84.095 27.246 83.717 C 27.032 82.848 27.38 82.015 28.207 81.486 C 28.26 81.562 28.32 81.939 28.377 81.939 C 28.637 82.658 29.082 83.338 29.896 83.338 L 30.158 83.338 C 30.548 83.565 30.93 83.716 31.342 84.094 C 31.274 84.526 31.123 84.833 30.861 85.021 C 31.592 84.675 31.986 84.049 31.986 83.074 L 32.781 83.074 C 32.558 83.83 32.309 84.549 32.615 85.305 C 32.933 86.098 33.627 86.325 34.322 86.703 L 34.322 86.777 C 33.794 87.949 32.957 88.742 31.811 89.271 C 32.108 88.705 32.289 88.138 32.287 87.533 C 32.287 87.042 32.125 86.665 31.834 86.287 C 31.431 85.531 30.998 85.53 30.471 85.908 C 30.314 85.908 30.174 86.287 29.932 86.287 C 30.064 85.871 30.162 85.606 30.279 85.229 C 30.318 85.219 30.353 85.206 30.391 85.195 C 30.318 85.205 30.259 85.229 30.176 85.229 C 30.093 85.04 30.036 84.964 29.938 84.586 C 29.759 84.17 29.532 84.019 29.109 83.641 C 28.67 83.452 28.379 83.679 28.322 84.133 C 28.266 84.133 28.322 84.51 28.322 84.51 C 28.414 85.266 28.793 85.796 29.525 86.174 C 29.103 86.892 28.759 87.269 28.02 86.891 C 27.677 86.891 27.333 86.514 26.875 86.514 C 27.587 87.61 28.309 87.724 29.727 87.232 C 29.181 88.328 29.211 89.348 29.924 90.293 C 29.326 90.293 29.302 90.292 28.984 89.914 C 28.416 89.461 28.209 88.82 28.092 88.102 C 28.05 88.064 28.079 87.686 27.766 87.686 C 27.459 87.723 27.471 87.798 27.527 88.176 C 27.645 88.705 27.713 89.273 27.963 89.727 C 28.407 90.369 29.414 91.351 30.645 90.746 L 30.908 90.746 C 31.817 90.822 32.48 90.33 33.135 89.801 C 33.303 89.763 33.476 89.387 33.703 89.387 C 33.572 90.861 33.887 91.05 35.701 91.428 C 35.62 92.221 34.666 92.976 33.85 92.598 C 33.63 92.598 33.438 92.221 33.219 92.221 L 32.859 92.221 C 32.818 92.221 32.859 92.598 32.916 92.598 C 32.95 92.976 33.061 92.977 33.137 92.977 C 34.07 93.543 35.097 93.429 35.971 92.598 C 36.243 92.333 36.463 92.069 36.395 91.691 C 36.27 91.011 36.702 90.672 37.137 90.143 C 37.137 90.407 37.193 90.785 37.137 90.785 C 36.98 91.276 36.836 91.767 36.598 92.221 C 36.29 92.825 36.135 93.43 36.191 94.072 C 36.218 94.526 36.376 94.942 36.52 95.357 C 36.595 95.357 36.788 95.735 37.041 95.357 C 36.992 94.602 36.466 93.884 36.936 93.09 C 38.022 93.959 38.384 93.921 39.246 93.09 L 39.973 93.09 C 40.169 93.581 40.4 94.11 40.551 94.602 C 40.812 95.395 41.33 95.999 41.896 96.566 C 42.085 96.566 42.342 96.944 42.531 96.566 C 42.758 96.34 42.568 95.963 42.379 95.963 C 42.088 95.698 41.827 95.433 41.562 95.055 C 42.708 95.395 43.423 94.98 43.805 93.922 C 44.984 94.224 45.343 93.278 45.891 92.598 C 46.08 93.013 46.268 93.354 46.457 93.732 C 46.892 94.488 47.717 94.866 48.484 94.488 C 48.685 94.413 48.91 94.374 49.023 93.996 C 49.061 93.883 48.986 93.506 48.873 93.506 L 48.449 93.506 C 47.879 93.695 47.475 93.656 47.07 93.127 C 46.753 92.711 46.565 92.295 46.451 91.729 C 47.4 91.88 48.272 92.07 48.926 91.352 C 49.368 91.541 49.742 91.918 50.154 91.918 C 50.593 91.994 50.956 91.993 51.334 92.371 C 51.557 92.371 51.795 92.75 52.021 92.75 C 52.932 93.015 53.844 93.43 54.77 93.43 C 56.969 93.808 59.107 93.505 61.205 92.787 C 61.923 92.56 62.631 92.296 63.232 91.805 C 64.54 90.709 65.359 89.386 65.51 87.609 L 66.168 87.609 L 66.301 87.609 C 65.938 87.647 65.711 87.837 65.598 88.215 C 65.273 89.273 66.316 90.671 67.416 90.293 C 67.696 90.255 67.937 89.801 68.277 89.801 C 68.41 90.217 68.636 90.596 68.674 91.012 C 68.749 91.39 68.635 91.805 68.598 92.221 C 69.115 92.183 69.229 92.069 69.305 91.578 C 69.411 90.558 68.992 89.725 68.451 88.932 C 68.017 88.289 67.692 87.535 67.352 86.816 L 67.428 86.816 C 67.93 86.779 68.044 87.118 68.119 87.496 C 68.387 88.706 69.215 89.423 70.334 89.801 C 70.882 89.952 71.032 89.725 70.881 89.158 C 69.989 89.045 69.347 88.592 68.814 87.723 C 69.17 88.101 69.374 88.102 69.562 88.102 C 70.035 88.177 70.406 88.327 70.746 88.705 C 70.909 88.743 71.116 89.121 71.305 89.121 C 71.758 89.499 72.272 89.5 72.801 89.5 C 73.33 89.387 73.727 88.97 73.727 88.479 C 73.727 88.479 73.652 88.102 73.576 88.102 L 73.156 88.102 C 73.156 88.48 73.156 88.479 73.08 88.479 C 72.834 88.856 72.545 88.857 72.129 88.857 C 71.857 88.82 71.595 88.441 71.33 88.441 C 72.634 87.308 72.881 86.59 72.371 85.418 L 72.711 85.418 C 73.369 85.569 74.022 85.947 74.688 85.947 C 75.175 86.023 75.629 85.946 76.025 85.568 C 76.691 85.077 76.718 84.019 76.102 83.641 C 75.913 83.641 75.684 83.263 75.533 83.641 C 75.42 83.754 75.534 84.133 75.686 84.133 C 75.988 84.397 76.026 84.624 75.686 85.002 C 75.474 85.38 75.183 85.379 74.918 85.379 C 74.215 85.341 73.541 85.152 72.91 84.736 L 73.1 84.736 C 74.162 83.98 74.276 83.641 73.822 82.432 C 73.784 82.318 73.859 82.317 73.896 81.939 C 74.048 82.317 74.087 82.318 74.162 82.318 C 74.506 82.583 74.82 82.772 75.205 83.15 C 75.568 83.528 76 83.528 76.34 83.15 C 76.68 82.886 76.604 82.47 76.49 82.092 C 76.305 81.449 75.87 80.957 75.326 80.541 C 75.133 80.503 74.982 80.127 74.793 80.127 C 75.662 79.031 75.965 78.992 76.83 79.408 C 76.83 79.446 76.754 79.824 76.83 79.824 C 76.943 80.127 76.981 80.353 77.17 80.73 C 77.461 81.486 78.289 81.487 78.629 81.109 C 78.973 80.807 78.875 80.239 78.402 79.785 C 78.327 79.407 78.251 79.408 78.176 79.408 C 78.081 79.408 77.968 79.407 77.779 79.029 C 78.161 78.651 78.44 78.652 78.742 78.652 C 78.927 78.274 79.116 78.273 79.268 78.273 C 79.457 78.16 79.608 78.122 79.457 77.744 L 78.959 77.744 C 78.369 77.971 77.771 78.009 77.174 78.387 L 77.023 78.387 C 76.619 78.009 76.214 78.01 75.779 78.01 C 76.04 77.67 76.309 77.442 76.498 77.064 C 76.8 76.611 76.838 76.081 76.498 75.59 C 76.196 75.212 75.767 75.213 75.299 75.213 L 75.072 75.213 C 75.579 74.759 76.211 75.138 76.627 74.76 C 76.948 75.364 77.544 75.742 78.205 75.742 C 78.613 75.78 78.803 75.629 78.916 75.213 C 78.977 75 78.997 74.746 79.039 74.445 C 78.878 74.374 78.732 74.269 78.617 74.078 C 78.462 73.927 78.153 73.549 77.889 73.549 C 77.866 73.488 77.842 73.453 77.818 73.41 C 77.64 73.521 77.468 73.701 77.23 73.701 C 77.397 73.505 77.477 73.44 77.568 73.193 C 77.539 73.189 77.506 73.172 77.48 73.172 C 77.144 72.907 76.819 72.794 76.479 72.416 C 76.312 72.416 76.161 72.037 76.01 72.037 C 76.199 71.432 76.49 71.206 77.076 70.828 C 77.428 70.828 77.692 70.829 77.768 71.207 C 77.832 71.623 77.591 71.621 77.326 71.621 C 77.251 71.621 77.098 72 77.098 72 C 77.098 72 77.174 72.379 77.25 72.379 C 77.738 72.681 78.496 72.264 78.496 71.697 C 78.496 71.357 78.308 71.13 78.232 70.752 C 79.582 70.412 80.068 69.391 80.068 68.598 C 80.106 68.295 79.88 68.259 79.805 67.881 C 79.729 67.616 79.881 67.351 79.881 66.973 C 79.87 66.595 79.725 66.596 79.344 66.596 C 79.344 66.633 79.268 67.012 79.268 67.012 C 79.256 67.123 79.22 67.234 79.174 67.344 C 79.239 67.305 79.303 67.282 79.369 67.238 C 79.426 68.329 78.686 68.968 77.518 68.975 C 77.555 68.711 77.632 68.446 77.707 68.068 C 77.713 68.066 77.719 68.063 77.725 68.061 C 77.178 67.874 76.7 67.572 76.342 67.129 C 76.211 67.27 76.074 67.314 75.938 67.654 C 75.756 67.276 75.606 67.275 75.379 67.275 C 75.549 67.011 75.7 66.86 75.889 66.482 L 75.896 66.633 C 76.034 66.689 76.133 66.913 76.252 67.023 C 76.135 66.861 76.031 66.683 75.949 66.482 C 76.218 66.293 76.474 66.292 76.701 65.914 C 77.106 65.498 77.098 65.084 76.701 64.668 C 76.588 64.668 76.475 64.289 76.324 64.289 C 76.285 64.264 76.249 64.26 76.211 64.24 C 75.986 64.34 75.792 64.417 75.533 64.705 C 75.552 64.481 75.581 64.303 75.609 64.125 C 75.382 64.179 75.194 64.354 75.076 64.668 C 74.976 64.97 74.96 65.276 74.906 65.604 C 75.059 65.701 75.206 65.801 75.383 65.801 C 75.19 66.103 75.001 66.179 74.85 66.557 L 74.623 66.557 L 74.623 66.443 C 74.6 66.262 74.552 66.037 74.51 65.83 C 74.053 65.954 73.776 65.984 73.533 65.842 C 73.429 66.141 73.327 66.416 73.191 66.822 C 72.776 66.595 72.404 66.521 71.973 66.143 C 72.233 65.84 72.439 65.649 72.703 65.271 C 72.892 65.317 73.06 65.468 73.229 65.584 C 73.152 65.509 73.085 65.451 72.99 65.348 C 73.141 65.348 73.255 64.971 73.406 64.971 C 73.882 64.555 74 63.762 73.406 63.232 C 73.232 63.043 73.119 62.968 73.006 62.59 C 72.79 62.128 72.487 61.818 72.107 61.623 C 72.18 61.699 72.253 61.776 72.324 61.871 C 71.788 62.287 71.713 62.891 71.789 63.496 C 71.343 63.647 70.916 63.647 70.439 64.025 C 70.34 64.025 70.238 63.747 70.113 63.676 C 70.768 63.085 70.442 62.461 70.221 61.871 C 70.334 61.658 70.463 61.5 70.602 61.379 L 70.561 61.379 C 70.26 61.142 70.008 60.772 69.742 60.693 C 69.688 60.915 69.647 60.963 69.584 60.963 L 69.584 60.646 C 69.23 60.514 68.946 60.722 68.697 61.078 C 68.327 60.685 68.002 60.356 67.674 60.027 C 67.218 60.086 67.196 60.055 67.125 59.49 C 67.305 59.596 67.451 59.634 67.588 59.773 C 67.782 59.504 68.022 59.49 68.326 59.49 L 70.318 59.49 C 72.503 59.566 74.611 59.263 76.584 58.242 C 77.215 57.902 77.846 57.675 78.5 57.297 C 80.25 56.541 81.567 55.295 82.689 53.783 C 82.977 53.367 83.24 52.876 83.354 52.385 C 83.58 51.478 83.082 50.758 82.391 50.191 C 79.976 48.226 77.364 46.677 74.182 46.262 C 71.774 45.884 69.384 45.505 66.961 45.883 C 64.485 45.921 62.003 46.299 59.52 46.299 C 58.151 46.374 58.171 46.565 57.684 45.053 C 57.54 44.599 57.336 44.409 56.859 44.031 C 56.693 44.031 56.58 43.654 56.467 43.654 C 55.477 42.445 54.473 41.198 53.215 40.215 C 50.656 38.174 48.88 35.528 47.229 32.807 C 47.153 32.655 47.078 32.655 47.002 32.277 C 46.435 30.879 46.36 29.406 46.549 27.932 C 46.859 25.702 47.122 23.432 47.047 21.127 C 46.971 20.636 47.047 20.107 47.047 19.578 C 47.104 17.348 47.746 15.27 48.861 13.305 C 49.704 11.831 50.483 10.318 51.307 8.8066 C 51.734 8.0129 51.847 7.1427 51.885 6.2734 C 51.915 5.5175 51.522 5.0645 50.793 5.0645 L 48.9 5.0645 z M 67.588 59.773 C 67.565 59.806 67.539 59.827 67.518 59.867 C 67.568 59.917 67.624 59.977 67.674 60.027 C 67.706 60.023 67.723 60.025 67.76 60.02 C 67.703 59.907 67.646 59.833 67.588 59.773 z M 69.584 60.646 C 69.606 60.655 69.626 60.651 69.648 60.662 C 69.68 60.662 69.711 60.684 69.742 60.693 C 69.753 60.65 69.761 60.648 69.773 60.586 C 69.66 60.586 69.547 60.207 69.434 60.207 L 69.244 60.207 C 69.358 60.207 69.471 60.586 69.584 60.586 L 69.584 60.646 z M 70.602 61.379 L 71.037 61.379 C 71.454 61.379 71.803 61.467 72.107 61.623 C 71.588 61.078 71.042 60.997 70.602 61.379 z M 73.229 65.584 C 73.333 65.686 73.441 65.788 73.533 65.842 C 73.545 65.807 73.56 65.762 73.572 65.727 C 73.452 65.727 73.34 65.661 73.229 65.584 z M 74.51 65.83 C 74.631 65.797 74.73 65.774 74.887 65.727 C 74.895 65.684 74.899 65.645 74.906 65.604 C 74.765 65.513 74.617 65.424 74.434 65.424 C 74.464 65.59 74.482 65.693 74.51 65.83 z M 75.609 64.125 C 75.788 64.082 75.994 64.128 76.211 64.24 C 76.282 64.209 76.342 64.184 76.426 64.139 L 76.414 64.139 C 76.149 63.761 75.973 63.76 75.686 63.533 C 75.666 63.762 75.638 63.944 75.609 64.125 z M 76.342 67.129 C 76.356 67.113 76.371 67.105 76.385 67.086 C 76.338 67.086 76.294 67.064 76.254 67.027 C 76.281 67.064 76.313 67.094 76.342 67.129 z M 77.725 68.061 C 77.731 68.063 77.737 68.066 77.744 68.068 C 78.31 68.385 78.939 67.907 79.174 67.344 C 78.68 67.639 78.194 67.831 77.725 68.061 z M 77.568 73.193 C 77.647 73.205 77.73 73.247 77.818 73.41 C 77.895 73.362 77.973 73.322 78.059 73.322 C 77.87 73.322 77.757 72.945 77.613 72.945 L 77.613 73.096 C 77.598 73.147 77.583 73.154 77.568 73.193 z M 79.039 74.445 C 79.055 74.452 79.075 74.454 79.092 74.461 L 79.068 74.23 C 79.054 74.312 79.049 74.372 79.039 74.445 z M 79.092 74.461 L 79.143 74.986 C 79.91 75.213 80.617 75.212 81.32 75.59 L 81.396 75.59 C 81.283 75.59 81.208 75.213 81.057 75.213 C 80.565 74.986 80.069 74.607 79.551 74.607 C 79.388 74.557 79.236 74.518 79.092 74.461 z M 30.391 85.195 C 30.579 85.169 30.736 85.111 30.861 85.021 C 30.717 85.09 30.561 85.149 30.391 85.195 z M 56.896 44.371 C 57.085 44.598 57.123 44.749 57.01 45.127 C 56.794 45.618 56.45 45.921 56.016 46.299 C 54.326 47.546 52.505 48.529 50.562 49.322 C 48.329 50.229 46.103 51.138 43.873 52.045 C 43.438 52.158 42.985 52.535 42.486 52.535 L 42.49 52.688 C 42.415 52.536 42.376 52.536 42.301 52.158 C 42.452 51.78 42.566 51.779 42.717 51.779 C 45.517 50.872 48.162 49.625 50.83 48.416 C 51.696 48.038 52.565 47.66 53.412 47.244 C 55.185 46.375 55.532 46.223 56.896 44.371 z M 40.611 50.305 L 40.637 50.418 C 41.4 51.779 42.154 53.103 42.494 54.652 C 41.973 55.03 41.413 54.652 40.91 54.652 C 40.328 54.577 39.82 54.349 39.707 53.631 C 39.654 53.328 39.431 53.14 39.242 52.762 C 38.94 52.422 39.017 52.157 39.168 51.779 C 39.47 51.137 39.897 50.683 40.611 50.305 z M 35.285 52.641 C 36.047 52.628 36.73 53.046 37.078 53.783 C 37.275 54.199 37.569 54.576 37.773 54.992 C 37.872 55.181 37.947 55.257 37.871 55.635 C 37.739 56.466 37.226 57.222 36.488 57.789 L 36.486 57.789 C 35.521 57.222 34.351 54.237 34.506 52.801 C 34.768 52.697 35.031 52.645 35.285 52.641 z M 38.07 52.838 L 38.373 52.838 C 38.819 53.254 39.047 53.82 39.16 54.35 L 39.176 54.539 C 39.176 54.955 38.948 54.955 38.607 54.955 C 38.199 54.766 37.58 53.668 37.637 53.215 C 37.66 52.837 37.806 52.838 38.07 52.838 z M 34.172 54.955 C 34.255 55.182 34.316 55.294 34.422 55.672 C 32.917 55.71 31.512 56.466 30.043 56.088 C 30.008 56.088 29.985 55.838 29.936 55.75 C 31.485 55.927 32.792 55.368 34.172 54.955 z M 60.652 58.652 C 60.985 58.569 61.063 58.725 61.205 59.264 C 60.827 59.188 60.525 58.809 60.223 58.809 C 60.402 58.733 60.541 58.68 60.652 58.652 z M 58.461 58.848 L 58.908 58.848 C 59.26 59.226 59.713 59.489 59.902 60.094 C 60.08 60.661 60.514 61.191 60.59 61.834 L 60.59 61.904 C 59.074 61.851 57.912 60.202 58.461 58.848 z M 63.553 58.961 L 63.994 58.961 C 64.861 59.215 65.632 59.616 66.225 60.314 C 65.147 60.278 64.193 59.538 63.061 59.943 C 63.042 59.49 63.288 59.339 63.553 58.961 z M 54.83 59.264 C 54.868 59.566 54.905 59.716 54.98 60.094 L 54.867 60.094 C 54.676 59.906 54.465 59.767 54.189 59.52 C 54.463 59.278 54.635 59.264 54.83 59.264 z M 56.617 59.414 L 57.66 59.414 L 57.66 60.094 C 57.653 61.87 58.916 63.232 60.711 63.232 L 61.156 63.232 C 61.512 63.497 61.838 63.724 62.178 64.102 C 61.977 65.84 62.748 66.558 64.074 67.012 C 64.112 67.238 64.188 67.313 64.188 67.691 C 64.252 68.296 64.083 68.674 63.229 68.674 C 63.229 68.938 63.227 69.052 63.303 69.43 C 63.737 70.979 63.852 72.53 63.928 74.117 C 63.928 74.457 63.851 74.722 63.775 75.1 C 63.447 76.725 63.065 78.313 62.215 79.711 C 61.531 80.845 60.891 82.015 59.803 82.809 C 59.527 82.96 59.225 83.338 58.885 83.338 C 58.382 83.489 57.871 83.867 57.35 83.867 C 55.607 84.245 53.836 84.624 52.029 84.246 L 51.953 84.246 C 50.203 83.755 48.613 82.922 47.26 81.713 C 46.561 81.07 45.915 80.39 45.291 79.672 C 44.717 79.029 44.201 78.312 43.668 77.594 C 43.464 77.367 43.295 77.179 43.068 76.801 C 42.902 76.423 42.674 76.422 42.334 76.422 L 42.357 76.572 C 42.286 76.875 42.358 77.367 41.908 77.367 C 41.511 77.405 41.234 77.216 41.045 76.838 C 40.705 76.347 40.297 75.855 40.184 75.213 C 40.146 75.213 40.07 74.834 39.994 74.834 C 39.692 74.532 39.693 74.154 39.693 73.738 C 39.716 72.869 39.769 72.528 40.146 71.621 C 40.335 71.13 40.411 70.639 40.26 70.109 C 40.184 69.731 40.221 69.618 40.523 69.24 C 40.977 68.824 41.016 68.258 40.902 67.729 C 40.865 67.426 40.903 67.351 40.979 66.973 C 41.054 66.519 41.133 66.028 41.129 65.574 C 41.091 65.234 41.166 65.196 41.469 64.818 C 43.929 63.042 46.583 61.643 49.512 60.85 C 50.604 60.547 51.689 60.284 52.781 59.906 L 53.367 59.906 C 53.628 60.209 53.821 60.358 54.086 60.736 C 54.313 60.812 54.603 61.191 54.867 61.191 C 55.593 61.305 56.039 61.757 56.379 62.324 C 56.761 62.929 57.35 63.005 58 63.383 L 58.266 63.383 C 58.266 63.383 58.228 63.004 58.152 63.004 C 58.013 63.004 57.823 62.627 57.672 62.627 C 57.449 62.476 57.222 62.098 56.957 62.098 C 57.433 61.795 57.698 61.455 57.547 60.926 C 57.433 60.359 57.083 60.359 56.693 60.359 C 56.693 60.095 56.617 59.792 56.617 59.414 z M 52.037 60.395 C 51.884 60.406 51.73 60.454 51.576 60.549 C 50.953 60.889 50.49 61.38 50.49 62.174 C 50.52 62.93 50.691 63.684 50.955 64.402 C 51.329 65.309 52.071 65.727 53.02 65.727 C 53.594 65.764 54.494 65.16 54.494 64.441 C 54.494 64.215 54.568 64.063 54.568 63.686 L 54.547 63.686 C 54.611 62.552 54.145 61.682 53.34 60.926 C 52.943 60.642 52.496 60.359 52.037 60.395 z M 64.059 60.426 C 64.145 60.441 64.235 60.484 64.328 60.555 C 64.185 60.819 64.047 61.035 63.875 61.379 C 63.633 61.114 63.405 60.964 63.178 60.586 C 63.487 60.586 63.757 60.373 64.059 60.426 z M 67.904 60.695 C 68.175 60.678 68.35 60.755 68.492 61.152 C 68.148 61.115 67.942 60.736 67.602 60.736 C 67.715 60.717 67.814 60.701 67.904 60.695 z M 65.213 60.775 C 65.251 61.153 65.251 61.152 65.326 61.152 C 65.167 61.152 65.015 61.531 64.75 61.531 L 64.744 61.229 C 64.873 60.775 64.911 60.775 65.213 60.775 z M 52.258 60.998 C 52.515 61 52.733 61.135 52.932 61.418 C 53.314 61.815 53.666 62.218 53.797 62.844 C 52.469 62.103 51.785 62.406 51.484 63.76 C 51.22 63.193 51.069 62.626 51.145 62.021 C 51.19 61.53 51.588 61.417 51.988 61.039 C 52.083 61.011 52.172 60.997 52.258 60.998 z M 61.58 61.152 C 61.467 61.304 61.39 61.682 61.314 61.682 C 61.076 61.153 61.077 61.152 61.58 61.152 z M 62.178 61.719 C 62.291 62.21 62.404 62.664 62.518 63.117 L 62.404 63.117 C 62.155 62.907 61.9 62.778 61.623 62.461 C 61.851 62.203 62.002 62.07 62.178 61.719 z M 67.359 61.795 C 67.658 61.795 67.839 62.174 68.217 62.174 C 67.873 62.174 67.684 62.551 67.42 62.551 C 67.382 62.286 67.344 62.249 67.344 61.871 L 67.359 61.795 z M 69.418 62.174 L 69.607 62.174 C 69.683 62.325 69.758 62.703 69.834 62.703 L 69.684 62.703 L 69.645 62.74 C 69.569 62.551 69.494 62.552 69.418 62.174 z M 72.713 62.541 C 72.939 62.553 73.059 62.646 73.115 62.93 C 73.195 63.27 72.906 63.269 72.68 63.646 L 72.492 63.646 L 72.488 63.609 C 72.488 63.269 72.449 62.929 72.449 62.551 C 72.549 62.541 72.638 62.537 72.713 62.541 z M 65.27 62.816 C 65.394 63.27 65.348 63.269 64.713 63.646 C 64.928 63.344 65.081 63.194 65.27 62.816 z M 66.361 62.967 L 66.838 62.967 C 66.913 63.118 66.912 63.496 66.912 63.496 L 66.799 63.496 L 66.75 63.383 C 66.625 63.345 66.55 63.345 66.361 62.967 z M 48.51 63.043 C 48.434 63.043 48.32 63.42 48.32 63.42 C 48.358 63.571 48.396 63.949 48.51 63.949 C 49.474 65.348 50.449 66.747 51.432 68.107 C 51.537 68.183 51.726 68.561 51.877 68.561 C 52.701 69.354 53.632 69.921 54.645 70.412 C 55.321 70.714 55.457 71.168 55.057 71.811 C 54.898 72.075 54.697 72.188 54.508 72.566 C 54.394 72.604 54.357 72.982 54.281 72.982 C 54.243 73.36 54.319 73.361 54.395 73.361 L 54.697 73.361 C 55.294 72.757 55.842 72.152 55.842 71.094 L 55.893 70.715 C 55.987 70.224 55.691 69.997 55.086 69.619 L 54.822 69.619 C 53.575 69.052 52.457 68.295 51.637 67.199 C 50.726 65.99 49.925 64.706 49.078 63.459 C 49.003 63.421 48.926 63.043 48.812 63.043 L 48.51 63.043 z M 68.588 63.574 C 68.863 64.404 68.801 64.63 68.141 65.045 C 67.944 64.78 67.792 64.593 67.604 64.215 C 67.961 63.989 68.249 63.949 68.588 63.574 z M 66.025 63.836 C 66.222 63.836 66.557 63.837 67.021 64.215 C 66.659 64.442 66.354 64.479 66.014 64.857 C 65.764 64.782 65.572 64.402 65.383 64.402 C 65.594 64.213 65.761 64.214 66.025 63.836 z M 43.963 64.15 C 43.517 64.184 43.097 64.432 42.842 64.857 C 42.615 65.235 42.539 65.612 42.426 65.99 L 42.438 66.029 C 42.475 66.521 42.512 66.784 42.588 67.162 C 42.902 68.22 43.346 69.203 44.477 69.656 L 45.57 69.656 C 46.443 69.316 46.885 68.712 46.885 67.768 C 46.839 66.218 46.111 65.046 44.762 64.328 C 44.508 64.186 44.23 64.13 43.963 64.15 z M 62.82 64.252 C 63.368 64.328 63.904 64.705 64.482 64.705 C 64.293 65.272 64.18 65.651 64.029 66.029 C 63.084 65.803 62.669 65.197 62.82 64.252 z M 69.729 64.338 C 70.5 64.609 70.36 65.352 70.734 65.764 C 70.349 65.915 70.348 65.916 69.656 65.387 C 69.656 65.098 69.722 64.732 69.729 64.338 z M 43.92 64.734 C 44.109 64.687 44.315 64.782 44.576 64.971 C 45.43 65.424 45.929 66.142 46.156 67.125 L 46.16 67.199 C 44.595 66.141 43.862 66.406 43.711 67.918 C 42.929 67.162 42.916 65.915 43.369 65.348 C 43.558 64.97 43.731 64.782 43.92 64.734 z M 71.16 64.744 L 72.182 64.744 C 71.978 65.047 71.827 65.122 71.676 65.5 C 71.313 65.387 71.236 65.159 71.16 64.781 L 71.16 64.744 z M 64.914 65.234 C 65.105 65.411 65.249 65.434 65.422 65.744 C 65.189 65.792 65.005 66.104 64.725 66.104 C 64.8 65.763 64.838 65.612 64.914 65.234 z M 57.26 65.387 C 57.184 65.387 56.996 65.764 56.996 65.764 C 57.034 65.764 57.146 66.143 57.26 66.143 C 57.335 66.143 57.45 65.764 57.639 65.764 L 57.66 65.764 C 57.486 65.386 57.373 65.387 57.26 65.387 z M 40.445 65.461 L 40.445 66.104 C 40.219 65.839 40.067 65.839 40.445 65.461 z M 39.508 66.029 L 39.516 66.029 C 40.109 67.277 40.192 67.238 39.326 68.107 C 39.213 67.578 39.099 67.087 39.023 66.596 C 39.012 66.445 39.319 66.407 39.508 66.029 z M 66.383 66.402 C 66.841 66.451 66.969 66.869 67.068 67.199 C 67.265 67.728 66.961 68.145 66.391 68.523 C 66.088 67.805 65.937 67.124 66.164 66.406 C 66.244 66.397 66.317 66.395 66.383 66.402 z M 69.756 66.557 C 69.856 66.568 69.963 66.614 70.068 66.709 C 70.503 67.049 70.846 67.501 70.922 68.068 C 70.306 68.106 69.722 68.484 69.113 68.484 L 69.105 68.484 C 69.105 68.031 69.18 67.579 69.18 67.125 C 69.205 66.813 69.455 66.523 69.756 66.557 z M 70.973 66.557 L 71.391 66.557 C 71.886 66.821 72.355 67.011 72.857 67.389 C 73.122 67.54 73.197 67.577 73.197 67.955 C 73.262 68.56 73.516 69.089 73.92 69.543 C 73.931 69.549 73.936 69.549 73.947 69.555 L 73.936 69.732 L 73.24 69.732 C 73.316 69.997 73.352 70.147 73.428 70.525 L 72.832 70.525 C 72.307 70.677 71.791 70.791 71.564 71.434 C 71.459 71.812 71.033 71.811 70.73 71.811 C 70.315 71.584 69.917 71.131 69.482 71.131 C 68.863 71.131 68.227 70.753 67.551 71.131 L 66.576 71.131 L 66.576 70.412 C 68.028 70.714 68.194 70.715 69.078 70.035 C 69.192 70.073 69.305 70.451 69.418 70.451 C 70.068 71.283 70.931 71.245 71.506 70.451 C 71.589 70.073 71.777 70.072 71.928 70.072 C 72.181 69.694 72.462 69.695 72.727 69.695 C 72.84 69.695 72.99 69.316 72.99 69.316 C 72.99 69.316 72.914 68.939 72.801 68.939 C 72.438 68.75 72.064 68.371 71.762 68.371 C 71.493 67.766 71.237 67.199 70.973 66.557 z M 65.447 66.596 L 65.412 66.822 C 65.412 67.238 65.488 67.616 65.488 67.994 L 65.375 67.994 C 65.19 67.692 65 67.351 64.773 66.973 C 65.042 66.595 65.22 66.596 65.447 66.596 z M 38.385 66.859 C 38.498 67.162 38.687 67.352 38.498 67.768 L 38.477 67.768 C 38.25 67.73 38.098 67.352 37.871 67.352 C 38.045 67.238 38.196 67.237 38.385 66.859 z M 59.66 66.936 C 59.585 66.936 59.391 67.312 59.395 67.312 C 59.395 67.312 59.547 67.691 59.66 67.691 C 59.755 67.691 59.905 67.312 60.094 67.312 L 60.08 67.312 C 59.887 66.935 59.774 66.936 59.66 66.936 z M 56.5 67.199 C 56.387 67.35 56.273 67.729 56.273 67.729 C 56.311 67.729 56.463 68.107 56.576 68.107 C 56.69 68.107 56.879 67.729 56.879 67.729 C 56.879 67.577 56.688 67.577 56.537 67.199 L 56.5 67.199 z M 67.719 67.389 L 68.609 67.389 C 68.572 67.502 68.535 67.503 68.459 67.881 C 68.228 67.805 67.872 67.843 67.721 67.428 L 67.719 67.389 z M 74.273 67.521 C 74.424 67.521 74.57 67.616 74.721 67.805 C 75.061 68.031 75.458 68.032 75.881 68.41 L 75.885 68.561 C 75.96 68.787 76.036 68.938 76.111 69.316 C 74.966 69.997 73.992 69.354 73.803 67.805 C 73.969 67.616 74.123 67.521 74.273 67.521 z M 37.262 67.994 L 37.602 67.994 C 37.707 67.994 37.863 68.371 37.863 68.371 C 37.923 68.52 37.892 68.696 37.875 68.938 C 37.561 68.931 37.303 68.561 37.205 68.561 C 37.118 68.447 37.186 68.372 37.262 67.994 z M 70.828 68.221 C 70.904 68.221 70.979 68.598 71.055 68.598 C 70.979 68.976 70.867 68.977 70.791 68.977 L 69.648 68.977 L 69.635 68.598 C 70.058 68.22 70.427 68.221 70.828 68.221 z M 58.555 68.855 C 58.47 68.802 58.363 69.014 58.363 69.014 C 58.325 69.392 58.439 69.393 58.666 69.393 C 58.735 69.393 58.805 69.254 58.883 69.145 C 58.785 69.023 58.707 69.014 58.629 69.014 C 58.61 68.919 58.583 68.873 58.555 68.855 z M 58.883 69.145 C 58.928 69.2 58.977 69.273 59.033 69.393 L 59.043 69.014 C 58.984 69.014 58.932 69.075 58.883 69.145 z M 36.355 68.977 C 36.533 69.166 37.004 69.317 36.477 69.695 C 36.431 69.431 36.412 69.355 36.355 68.977 z M 64.406 69.053 C 64.928 69.317 65.385 69.392 65.918 69.77 L 65.904 69.922 L 65.904 70.752 C 65.375 70.374 64.834 69.996 64.123 69.996 C 64.085 69.807 64.048 69.808 63.973 69.43 C 64.143 69.052 64.331 69.053 64.406 69.053 z M 67.275 69.354 L 68.221 69.354 C 67.809 69.731 67.808 69.731 67.275 69.354 z M 39.428 69.543 L 39.443 69.543 C 39.738 70.299 39.701 70.865 39.217 71.508 C 39.066 71.281 38.953 71.282 38.877 70.904 C 38.801 70.564 38.801 70.3 38.877 69.922 C 38.907 69.922 39.201 69.543 39.428 69.543 z M 61.213 69.543 C 61.137 69.543 60.986 69.922 60.986 69.922 C 61.024 70.3 61.175 70.299 61.326 70.299 C 61.364 70.299 61.478 69.922 61.629 69.922 L 61.621 69.922 C 61.44 69.544 61.326 69.543 61.213 69.543 z M 73.949 69.557 C 74.435 69.803 74.479 69.817 75.686 70.186 C 75.572 70.412 75.496 70.487 75.383 70.865 C 74.672 70.64 73.957 70.488 73.949 69.557 z M 37.734 69.883 C 37.686 70.223 37.503 70.639 37.125 70.639 C 37.028 70.261 37.129 69.883 37.734 69.883 z M 35.67 69.959 L 35.779 69.959 C 35.824 70.325 35.708 70.338 35.385 70.338 C 35.481 70.255 35.573 69.959 35.67 69.959 z M 47.906 70.564 C 47.679 70.564 47.528 70.563 47.604 70.941 C 47.604 71.319 47.792 71.32 47.867 71.32 C 47.992 71.32 48.107 70.941 48.258 70.941 L 48.283 70.941 C 48.094 70.563 48.02 70.564 47.906 70.564 z M 64.268 70.564 L 64.777 70.564 C 64.762 70.942 64.57 70.942 64.268 70.564 z M 57.479 70.715 C 57.365 70.715 57.215 71.094 57.215 71.094 C 57.177 71.207 57.291 71.206 57.404 71.584 L 57.404 71.508 C 57.593 71.47 57.744 71.094 57.744 71.094 C 57.744 71.094 57.554 70.715 57.479 70.715 z M 73.67 70.828 L 73.648 71.018 C 73.724 71.207 73.76 71.206 73.836 71.584 C 73.386 71.206 72.995 71.207 72.602 71.207 C 72.949 71.207 73.292 70.828 73.67 70.828 z M 50.223 70.865 C 50.185 70.865 49.961 71.244 49.957 71.244 C 49.957 71.32 50.072 71.319 50.186 71.697 L 50.186 71.621 C 50.337 71.621 50.486 71.244 50.486 71.244 C 50.486 71.244 50.336 70.865 50.223 70.865 z M 34.996 71.018 C 35.094 71.018 35.187 71.206 35.361 71.584 L 34.502 71.584 C 34.571 71.395 34.671 71.018 34.996 71.018 z M 67.986 71.281 L 68.605 71.281 C 68.492 71.357 68.416 71.736 68.303 71.736 C 68.189 71.736 68.115 71.357 68.002 71.357 L 67.986 71.281 z M 65.561 71.357 L 65.557 71.471 C 65.326 71.811 65.175 71.925 65.023 72.303 C 64.645 72.189 64.306 72.114 64.457 71.736 C 64.601 71.358 65.009 71.357 65.561 71.357 z M 66.082 71.697 L 66.195 71.697 L 66.195 72.113 L 66.082 72.113 L 66.082 71.697 z M 67.424 71.736 C 68.021 72.303 68.02 72.303 67.869 72.945 C 67.196 72.53 67.031 72.114 67.424 71.736 z M 69.246 71.758 C 69.459 71.742 69.684 71.849 70.205 72.189 C 70.092 72.492 69.979 72.718 69.865 73.096 L 69.865 72.945 L 69.361 72.945 L 68.949 72.945 C 68.647 72.265 68.685 72.188 69.025 71.811 C 69.105 71.782 69.175 71.763 69.246 71.758 z M 75.193 71.811 C 75.261 72.114 75.327 72.288 75.395 72.586 C 75.185 72.939 75.071 72.945 74.887 72.945 C 74.747 72.719 74.634 72.567 74.445 72.189 C 74.699 72.189 74.929 71.811 75.193 71.811 z M 72.662 71.963 L 72.736 71.963 L 73.361 71.963 C 73.361 72.341 73.285 72.34 73.285 72.34 L 73.273 72.34 C 73.069 71.962 72.851 71.963 72.662 71.963 z M 71.664 72.037 L 71.738 72.037 C 72.075 72.302 72.415 72.454 72.805 72.832 C 72.767 72.908 72.691 72.944 72.615 73.322 L 72.605 73.248 C 72.235 72.795 71.966 72.415 71.664 72.037 z M 34.078 72.227 C 34.04 72.605 34.251 72.983 33.863 73.361 C 33.615 72.643 33.614 72.642 34.078 72.227 z M 45.414 72.605 C 45.301 72.681 45.188 73.059 45.188 73.059 C 45.188 73.437 45.34 73.436 45.453 73.436 C 45.529 73.436 45.717 73.059 45.717 73.059 C 45.717 73.021 45.565 73.021 45.414 72.643 L 45.414 72.605 z M 71.098 72.756 C 71.986 73.474 72.175 73.891 71.91 74.646 C 71.241 74.798 70.806 74.495 70.504 73.891 C 70.708 73.513 70.909 73.134 71.098 72.756 z M 38.041 72.832 L 38.918 72.832 L 38.898 72.906 C 38.936 73.095 38.975 73.21 39.051 73.588 L 37.111 73.588 C 37.258 72.832 37.468 72.832 38.041 72.832 z M 74.068 72.906 C 74.182 73.095 74.294 73.097 74.369 73.475 C 74.483 73.853 74.558 74.192 74.596 74.57 C 74.637 74.91 74.555 75.099 74.215 75.477 C 74.056 75.061 73.742 74.684 73.221 74.684 C 73.073 73.701 73.301 73.284 74.068 72.906 z M 58.201 72.982 L 58.242 73.02 C 58.28 73.209 58.28 73.588 58.355 73.588 C 58.771 73.852 58.658 74.155 58.582 74.533 C 58.412 75.138 58.293 75.817 57.99 76.346 C 57.261 77.593 56.205 78.613 54.686 78.613 C 53.695 78.727 52.762 78.577 51.852 78.086 C 51.852 77.935 51.851 77.557 51.775 77.557 C 51.738 77.179 51.625 77.178 51.512 77.178 L 51.285 77.178 C 51.081 77.518 50.888 77.895 50.699 78.273 C 50.624 78.273 50.699 78.652 50.699 78.652 L 50.887 78.652 C 51.344 78.237 51.806 78.274 52.256 78.652 C 53.118 79.03 54.012 79.029 54.908 79.029 C 56.666 78.765 57.926 77.783 58.617 76.195 C 59.044 75.213 59.205 74.116 59.508 72.982 L 58.201 72.982 z M 64.852 73.012 C 65.154 72.959 65.47 73.172 65.779 73.172 C 65.893 73.172 66.006 73.549 66.082 73.549 C 66.158 73.549 66.157 73.928 66.232 73.928 C 66.561 74.306 66.954 75.062 67.736 74.684 C 67.661 74.948 67.624 74.948 67.586 75.326 C 67.034 75.326 66.539 75.325 66.082 74.947 C 65.942 74.569 65.75 74.57 65.561 74.57 C 64.669 74.419 64.441 74.078 64.555 73.096 L 64.555 73.172 C 64.652 73.077 64.751 73.029 64.852 73.012 z M 75.754 73.135 C 76.011 73.286 76.208 73.284 76.396 73.662 C 75.935 74.418 75.485 74.342 75.145 73.662 C 75.33 73.662 75.527 73.285 75.754 73.285 L 75.754 73.135 z M 33.123 73.398 C 33.307 73.701 33.454 73.813 33.609 74.191 C 33.123 74.154 33.123 74.154 33.123 73.398 z M 48.896 73.549 C 48.859 73.549 48.67 73.928 48.67 73.928 C 48.67 73.928 48.82 74.305 48.934 74.305 C 49.039 74.305 49.152 73.928 49.379 73.928 L 49.395 73.928 C 49.16 73.55 49.048 73.549 48.896 73.549 z M 34.732 73.625 C 34.789 73.89 34.789 73.89 34.789 74.268 C 34.385 74.079 34.483 74.003 34.732 73.625 z M 50.926 73.777 C 50.812 73.853 50.699 74.23 50.699 74.23 C 50.699 74.608 50.85 74.607 50.963 74.607 C 51.076 74.607 51.229 74.23 51.229 74.23 C 51.229 74.155 51.077 74.155 50.926 73.777 z M 78.414 73.965 C 78.338 74.305 78.337 74.495 78.262 74.873 C 77.959 74.873 77.756 74.494 77.529 74.494 L 77.549 74.344 C 77.791 74.344 78.032 73.965 78.414 73.965 z M 70.064 74.457 C 70.253 74.495 70.405 74.495 70.178 74.873 C 69.942 75.097 69.689 75.175 69.391 75.543 C 69.185 74.836 69.801 74.833 70.064 74.457 z M 32.285 74.721 C 32.376 75.59 31.691 76.195 31.918 76.875 C 31.158 77.177 30.506 77.253 29.838 77.631 C 30.617 76.724 31.389 75.779 32.285 74.721 z M 33.152 74.986 C 33.544 75.364 33.891 75.363 34.246 75.363 C 33.729 75.628 33.213 75.854 32.572 76.232 C 32.783 75.779 32.948 75.439 33.152 75.023 L 33.152 74.986 z M 71.234 75.254 C 71.476 75.259 71.763 75.308 72.109 75.402 L 72.098 75.402 C 72.06 75.894 71.985 76.309 71.947 76.725 C 70.976 77.027 70.628 76.951 69.914 76.195 C 70.195 75.6 70.509 75.238 71.234 75.254 z M 65.053 75.363 C 65.408 75.363 65.78 75.364 66.082 75.742 C 66.195 75.78 66.195 76.232 66.119 76.232 C 66.044 76.61 65.855 76.611 65.779 76.611 L 65.816 76.498 C 65.268 76.498 64.865 76.158 64.865 75.742 C 64.865 75.742 64.977 75.363 65.053 75.363 z M 39.572 75.59 C 39.852 76.006 39.686 76.309 39.346 76.725 C 39.421 76.271 38.934 75.968 39.572 75.59 z M 75.117 75.666 L 75.121 75.816 L 75.689 75.816 C 76.026 75.93 76.253 76.27 76.102 76.648 C 75.792 77.442 74.737 77.971 73.883 77.971 C 73.444 77.933 73.044 77.784 72.779 77.33 C 73.573 76.763 74.358 76.195 75.117 75.666 z M 67.465 75.742 C 67.854 76.234 68.152 76.649 68.492 77.064 C 68.417 77.064 68.303 77.443 68.189 77.443 C 67.766 77.065 67.373 76.687 66.916 76.309 C 67.086 76.233 67.276 75.855 67.465 75.855 L 67.465 75.742 z M 35.623 75.76 C 35.721 75.76 35.82 75.856 35.916 76.045 L 35.916 76.119 C 35.825 76.384 35.738 76.573 35.609 76.951 C 35.428 76.573 35.069 76.423 35.33 76.045 C 35.426 75.856 35.525 75.76 35.623 75.76 z M 37.432 75.969 L 37.936 75.969 C 37.868 76.044 37.822 76.422 37.75 76.422 L 37.75 76.385 C 37.629 76.347 37.549 75.969 37.432 75.969 z M 47.127 75.969 C 46.976 76.082 46.863 76.459 46.863 76.459 C 46.863 76.837 47.014 76.838 47.09 76.838 C 47.203 76.838 47.391 76.459 47.391 76.459 C 47.428 76.346 47.278 76.347 47.127 75.969 z M 73.156 75.969 L 73.346 75.969 C 73.308 75.969 73.271 76.346 73.195 76.346 L 73.08 76.346 L 73.156 75.969 z M 36.584 76.158 L 36.586 76.158 C 37.159 76.574 37.275 76.876 37.102 77.254 C 36.918 77.632 36.618 77.631 36.018 77.631 C 36.203 77.14 36.38 76.687 36.584 76.158 z M 49.6 76.498 C 49.486 76.574 49.334 76.951 49.334 76.951 C 49.326 77.329 49.528 77.33 49.717 77.33 C 49.83 77.33 49.943 76.951 49.943 76.951 C 49.906 76.913 49.753 76.535 49.602 76.535 L 49.6 76.498 z M 34.174 76.572 C 34.544 76.572 34.585 76.763 34.66 77.141 C 34.732 77.405 34.876 77.593 35.016 77.971 C 34.771 77.971 34.515 78.348 34.285 78.35 C 33.979 77.858 33.711 77.443 33.416 76.951 C 33.538 76.573 33.826 76.572 34.174 76.572 z M 38.457 76.648 L 38.607 76.648 C 38.645 76.8 38.684 77.178 38.76 77.178 L 38.607 77.178 L 38.607 77.215 C 38.57 77.026 38.495 77.026 38.457 76.648 z M 64.154 76.828 C 64.357 76.841 64.507 76.931 64.592 77.215 C 64.898 77.668 65.318 78.048 65.432 78.652 C 65.488 78.993 65.714 79.22 65.865 79.598 L 65.715 79.598 L 65.719 79.559 C 65.568 79.559 65.34 79.182 65.34 79.182 C 65.276 78.199 64.712 77.48 63.934 76.838 C 64.013 76.828 64.087 76.824 64.154 76.828 z M 37.779 77.215 L 37.855 77.215 L 37.879 77.215 C 37.917 77.253 37.917 77.631 37.992 77.631 L 37.84 77.631 C 37.84 77.593 37.779 77.215 37.779 77.215 z M 65.949 77.215 L 66.062 77.215 L 66.402 77.215 C 66.563 77.334 66.737 77.586 66.896 77.691 C 66.628 77.853 66.368 77.758 65.949 77.215 z M 42.791 77.33 L 42.773 77.631 C 42.944 77.744 43.057 78.123 43.17 78.123 C 43.132 78.425 43.02 78.651 43.02 79.029 C 43.031 79.445 42.886 79.56 42.508 79.938 C 41.816 79.182 41.816 79.181 40.52 79.559 C 40.497 79.445 40.596 79.068 40.898 79.068 C 41.446 78.955 41.827 78.653 41.979 78.086 C 42.096 77.708 42.602 77.746 42.791 77.33 z M 69.41 77.557 L 69.883 77.557 L 69.959 77.557 C 69.827 77.935 69.677 77.934 69.525 77.934 C 69.488 77.934 69.486 77.935 69.41 77.557 z M 72.186 77.707 C 72.817 78.236 73.641 78.613 74.635 78.613 C 74.567 78.84 74.371 79.219 74.182 79.219 C 73.281 79.036 72.407 78.847 71.783 78.047 C 71.895 77.961 72.027 77.707 72.186 77.707 z M 39.568 77.783 C 39.682 78.35 40.132 78.842 39.568 79.484 C 39.455 78.88 39.137 78.388 39.568 77.783 z M 31.078 77.896 C 30.991 78.69 30.906 79.408 30.826 80.164 C 30.307 79.975 29.729 79.598 29.094 79.598 C 29.531 78.766 30.184 78.274 31.078 77.896 z M 63.641 77.896 C 64.211 77.896 64.362 78.086 64.514 78.955 C 64.238 78.615 63.943 78.274 63.641 77.896 z M 68.523 78.312 C 68.901 78.312 68.901 78.311 68.674 78.803 C 68.598 78.689 68.599 78.312 68.523 78.312 z M 70.621 78.312 C 71.109 78.501 71.146 78.992 71.26 79.445 C 70.84 79.634 70.44 79.634 69.99 80.012 C 69.533 79.634 69.645 79.143 69.531 78.689 C 69.86 78.312 70.194 78.312 70.621 78.312 z M 35.941 78.387 L 36.336 78.387 C 36.191 78.727 36.058 78.991 35.918 79.369 L 35.84 79.369 C 35.876 79.041 35.89 78.746 35.941 78.387 z M 37.969 78.387 L 38.045 78.387 C 38.207 78.387 38.396 78.766 38.547 78.766 L 38.434 78.766 L 38.4 78.803 C 38.272 78.765 38.12 78.387 37.969 78.387 z M 66.273 78.5 L 66.35 78.5 C 66.512 78.878 66.702 78.879 66.777 78.879 C 66.853 78.954 66.74 79.03 66.664 79.408 L 66.66 79.143 C 66.464 78.878 66.387 78.5 66.273 78.5 z M 35.162 78.803 C 35.291 79.596 34.915 80.315 34.078 80.73 L 34.076 80.883 C 33.978 80.467 33.872 80.05 33.793 79.672 C 33.735 79.558 33.861 79.182 34.152 79.182 C 34.49 78.804 34.826 78.803 35.162 78.803 z M 43.781 78.803 C 43.857 78.803 43.934 79.182 44.01 79.182 C 43.67 79.182 43.668 79.181 43.781 78.803 z M 37.496 78.924 C 37.634 78.905 37.78 79.037 38.031 79.371 C 37.758 79.734 37.603 80.075 37.25 79.711 C 37.091 79.598 37.166 78.992 37.348 78.992 C 37.4 78.954 37.448 78.93 37.496 78.924 z M 68.396 79.146 C 68.892 79.86 68.884 79.863 68.318 80.24 C 68.186 80.051 68.074 80.013 67.885 79.635 C 68.058 79.522 68.209 79.52 68.396 79.146 z M 31.828 79.295 C 32.36 79.824 32.485 80.201 33.316 80.201 C 33.339 80.39 33.395 80.505 33.395 80.883 C 32.389 81.033 31.666 80.277 31.828 79.295 z M 63.16 79.295 C 63.595 79.219 63.847 79.672 64.188 79.672 C 63.609 79.899 63.61 79.9 63.16 79.295 z M 77.574 79.295 C 77.801 79.446 77.991 79.824 78.143 79.824 L 78.029 79.824 L 78.014 79.938 C 77.726 79.9 77.574 79.748 77.574 79.295 z M 72.238 79.559 C 73.013 79.899 73.392 80.845 73.127 81.525 L 73.111 81.713 C 72.828 81.335 72.54 81.336 72.162 81.336 C 72.642 80.769 72.96 80.239 72.238 79.559 z M 73.439 79.824 C 73.817 79.862 73.743 79.937 73.705 80.314 C 73.592 80.201 73.515 79.824 73.439 79.824 z M 44.018 79.852 C 44.286 79.864 44.379 79.957 44.492 80.24 C 44.602 80.505 44.591 80.505 44.104 80.883 L 44.104 80.807 C 43.949 80.429 43.835 80.239 43.684 79.861 C 43.82 79.852 43.928 79.847 44.018 79.852 z M 41.209 80.078 C 41.398 80.031 41.604 80.125 41.865 80.314 C 41.563 80.692 41.125 80.693 40.656 80.693 C 40.847 80.315 41.02 80.125 41.209 80.078 z M 38.373 80.164 C 38.442 80.404 38.482 80.576 38.545 80.885 C 38.291 80.891 38.081 81.26 37.818 81.26 C 37.713 81.033 37.614 80.995 37.504 80.617 C 37.791 80.542 38.071 80.542 38.373 80.164 z M 66.1 80.201 C 66.349 80.201 66.501 80.202 66.576 80.58 C 66.652 80.958 66.766 81.335 66.842 81.713 L 66.729 81.713 L 66.713 81.639 C 66.509 81.147 66.289 80.693 66.1 80.201 z M 28.926 80.24 L 29.598 80.24 C 29.567 80.694 29.568 81.108 29.512 81.6 L 29.51 81.525 C 29.168 81.147 28.924 80.807 28.926 80.24 z M 43.037 80.24 C 43.192 80.58 43.307 80.731 43.42 81.109 L 43.416 81.109 L 42.561 81.109 C 42.734 80.807 42.886 80.618 43.037 80.24 z M 35.877 80.277 C 36.017 80.618 36.162 80.958 36.324 81.336 C 35.414 81.638 35.629 82.393 35.75 83.111 C 35.092 82.922 34.846 82.507 34.789 81.902 C 34.754 81.184 35.112 80.655 35.877 80.277 z M 62.688 80.314 C 63.107 80.39 63.508 80.768 63.92 80.768 C 64.294 80.768 64.683 80.391 65.072 80.391 C 64.192 80.958 63.387 81.563 63.463 82.848 L 63.463 82.961 C 62.537 82.243 62.26 80.995 62.688 80.314 z M 71.777 80.314 L 71.891 80.314 L 71.891 80.693 L 71.664 80.693 C 71.702 80.693 71.702 80.314 71.777 80.314 z M 74.43 80.391 C 75.341 80.655 75.844 81.298 75.844 82.205 C 74.835 82.167 74.241 81.336 74.43 80.391 z M 67.211 80.693 C 68.058 81.071 68.776 81.298 69.49 80.693 C 69.49 80.996 69.414 81.185 69.414 81.562 C 68.885 81.751 68.409 81.751 67.797 82.129 L 67.82 82.016 C 67.65 81.638 67.476 81.26 67.211 80.693 z M 31.545 80.92 L 31.549 80.92 C 32.09 81.184 32.617 81.335 33.18 81.713 C 33.006 82.015 32.514 82.395 31.98 82.395 C 31.829 81.903 31.677 81.373 31.545 80.92 z M 39.988 80.92 C 40.143 80.92 40.255 81.297 40.406 81.297 C 40.191 81.675 40.034 81.676 39.693 81.676 L 39.686 81.41 C 39.837 81.297 39.913 80.92 39.988 80.92 z M 30.152 81.033 L 30.27 81.033 C 30.307 81.033 30.32 81.41 30.377 81.41 L 30.244 81.41 L 30.24 81.41 C 30.21 81.41 30.152 81.033 30.152 81.033 z M 45.932 81.252 C 46.038 81.27 46.143 81.316 46.238 81.41 C 46.427 81.561 46.54 81.638 46.465 82.016 C 46.359 82.299 46.352 82.669 46.289 82.717 C 45.945 82.305 45.588 81.858 45.215 81.41 C 45.289 81.41 45.613 81.199 45.932 81.252 z M 40.91 81.336 L 42.01 81.336 C 41.896 81.563 41.821 81.601 41.67 81.979 C 41.447 81.865 41.23 81.864 40.928 81.486 L 40.91 81.336 z M 70.076 81.336 C 70.435 81.714 70.768 81.713 71.184 81.713 C 70.779 82.276 70.66 82.876 70.736 83.535 C 70.607 83.41 70.481 83.15 70.416 83.15 C 70.265 82.659 70.19 82.204 70.076 81.713 C 70.001 81.713 70.076 81.336 70.076 81.336 z M 34.066 81.41 C 34.274 81.75 34.197 82.091 34.219 82.432 L 33.584 82.432 C 33.748 82.091 33.885 81.788 34.066 81.41 z M 31.055 81.6 C 31.13 81.864 31.192 82.017 31.26 82.395 C 30.738 82.206 30.737 82.204 31.055 81.6 z M 64.51 81.752 C 64.725 81.752 64.838 82.129 65.027 82.129 C 64.801 82.167 64.649 82.545 64.498 82.545 L 64.346 82.545 L 64.357 82.395 C 64.395 82.206 64.434 82.13 64.51 81.752 z M 61.486 81.902 C 61.766 83.301 62.199 84.511 62.951 85.531 L 63.367 85.531 C 63.394 84.624 62.736 84.018 62.547 83.111 C 63.121 83.678 64.165 83.415 64.316 84.436 C 63.587 85.116 63.556 85.832 64.24 86.777 C 64.165 86.966 64.014 87.005 64.09 87.383 C 64.32 88.63 63.723 89.423 62.805 90.104 C 60.922 91.464 58.794 92.068 56.48 92.068 C 54.44 92.144 52.607 91.616 50.898 90.52 L 50.709 90.52 L 50.283 90.52 C 50.321 90.595 50.321 90.973 50.396 90.973 C 50.578 91.086 50.836 91.087 51.176 91.465 L 51.182 91.541 C 49.84 91.503 49.614 91.312 49.236 89.914 C 49.524 89.763 49.849 89.387 50.113 89.387 C 50.688 89.009 50.801 88.441 50.688 87.799 C 50.612 87.421 50.317 87.043 49.859 87.043 L 49.859 84.17 C 50.547 84.397 51.186 84.775 51.852 84.775 C 53.133 85.153 54.411 85.153 55.719 84.775 C 56.826 84.586 57.868 84.321 58.926 83.943 C 59.678 83.679 60.264 83.262 60.797 82.695 C 61.009 82.469 61.184 82.28 61.486 81.902 z M 36.451 81.979 C 36.653 82.243 36.839 82.431 37.1 82.809 C 36.282 82.657 36.206 82.583 36.451 81.979 z M 38.207 81.979 C 38.056 82.016 37.981 82.395 37.867 82.395 C 37.829 81.979 37.829 81.979 38.207 81.979 z M 72.291 82.016 L 72.844 82.016 C 73.396 82.091 73.621 82.658 73.281 83.111 C 73.206 83.489 73.092 83.49 72.979 83.49 C 72.687 83.868 72.364 84.245 72.023 83.867 C 71.664 83.64 71.438 83.263 71.438 82.848 L 71.426 82.695 C 71.441 82.015 71.739 82.016 72.291 82.016 z M 40.488 82.182 C 40.671 82.186 40.846 82.338 41.137 82.621 C 40.532 83.226 40.347 83.226 39.795 82.621 C 40.116 82.319 40.306 82.177 40.488 82.182 z M 44.471 82.205 C 45.174 82.243 45.259 82.923 45.713 83.301 C 45.24 83.679 44.855 83.68 44.367 83.68 L 44.357 83.564 C 44.395 83.073 44.395 82.659 44.471 82.205 z M 69.426 82.432 C 69.464 82.621 69.463 82.696 69.539 83.074 C 69.042 83.289 68.8 83.091 68.455 82.75 C 68.74 82.443 69.02 82.432 69.426 82.432 z M 66.799 82.508 C 67.313 82.81 67.31 82.886 66.725 83.49 C 66.422 82.961 66.421 82.961 66.799 82.508 z M 39.125 82.885 C 39.412 83.149 39.674 83.187 39.9 83.564 C 39.602 83.942 39.601 83.944 38.547 84.359 C 38.622 83.641 38.637 83.603 39.125 82.885 z M 47.809 83.018 C 47.997 82.948 48.133 83.225 48.303 83.225 C 48 83.603 47.826 83.225 47.6 83.225 C 47.677 83.102 47.746 83.041 47.809 83.018 z M 33.648 83.074 C 34.501 83.603 34.902 84.396 34.773 85.266 C 34.689 85.644 34.424 86.022 33.938 85.645 C 33.089 85.153 32.852 84.397 33.281 83.527 C 33.364 83.452 33.527 83.074 33.648 83.074 z M 67.99 83.15 C 68.183 83.528 68.296 83.527 68.371 83.527 C 68.258 84.245 68.144 84.887 68.068 85.492 C 67.653 84.925 67.594 84.171 67.994 83.264 L 67.99 83.15 z M 49.092 83.49 C 49.167 84.019 49.244 84.473 49.018 84.889 L 49.027 84.963 C 48.914 84.623 48.801 84.245 48.688 83.867 C 48.79 83.867 48.903 83.49 49.092 83.49 z M 35.094 83.604 C 35.677 83.604 36.202 83.98 36.83 83.98 C 36.49 84.623 36.224 85.229 35.604 85.645 C 35.222 85.38 35.429 85.077 35.354 84.699 C 35.267 84.397 35.188 84.095 35.094 83.717 L 35.094 83.604 z M 64.801 83.68 L 65.561 83.68 C 65.561 83.906 65.635 84.058 65.635 84.436 C 65.344 84.209 65.129 84.208 64.826 83.83 L 64.801 83.68 z M 47.059 83.717 C 47.663 83.755 47.664 83.754 47.361 84.283 C 47.248 84.094 47.172 84.095 47.059 83.717 z M 41.393 83.754 C 41.657 84.661 41.393 85.53 41.469 86.438 L 41.279 86.438 L 41.283 86.551 C 41.158 86.551 41.046 86.174 40.895 86.174 C 41.238 85.418 41.14 84.774 40.373 84.32 C 40.619 84.131 40.981 83.754 41.393 83.754 z M 69.232 84.02 C 69.584 84.246 69.85 84.472 69.736 84.926 C 69.604 85.34 69.206 85.342 68.799 85.342 C 68.746 84.775 68.764 84.397 69.232 84.02 z M 70.371 84.094 C 70.628 84.094 70.816 84.473 71.043 84.473 C 70.858 84.473 70.707 84.85 70.518 84.85 C 70.48 84.623 70.443 84.511 70.367 84.133 L 70.371 84.094 z M 37.496 84.207 C 37.65 85.19 37.541 85.984 36.891 86.74 C 36.656 86.476 36.459 86.438 36.297 86.061 C 36.689 85.456 37.055 84.887 37.496 84.207 z M 44.705 84.359 L 45.389 84.359 L 45.285 84.879 C 45.077 84.724 44.891 84.359 44.705 84.359 z M 46.748 84.736 C 46.884 84.925 46.999 85.001 47.188 85.379 L 46.625 85.379 L 46.625 84.775 L 46.738 84.775 L 46.748 84.736 z M 48.045 84.775 L 48.197 84.775 C 48.159 84.775 48.16 85.152 48.084 85.152 L 47.971 85.152 L 48.045 84.775 z M 39.836 84.812 C 39.927 84.775 40.249 85.191 40.438 85.191 C 40.037 86.023 39.89 86.06 39.107 85.645 L 39.107 85.605 C 39.383 85.303 39.571 85.19 39.836 84.812 z M 44.568 85.229 C 44.799 85.606 44.987 85.757 45.139 86.135 L 45.143 86.135 C 44.972 86.777 44.69 86.777 44.229 86.777 C 44.342 86.286 44.417 85.833 44.568 85.229 z M 64.531 85.229 C 65.465 85.38 65.84 86.173 66.418 86.891 L 66.43 86.891 C 65.693 87.231 65.283 86.815 64.871 86.438 C 64.418 86.022 64.342 85.795 64.531 85.229 z M 71.35 85.379 C 72.245 85.908 72.101 86.21 71.689 86.891 C 71.527 87.117 71.283 87.269 70.98 87.646 C 70.867 87.042 70.752 86.627 70.752 86.174 C 70.737 85.758 71.009 85.379 71.35 85.379 z M 43.684 85.418 L 43.797 85.418 C 43.797 85.456 43.721 85.834 43.721 85.834 L 43.533 85.834 L 43.533 85.795 C 43.571 85.795 43.646 85.418 43.684 85.418 z M 48.707 85.682 C 48.87 86.362 48.87 86.361 48.197 86.361 C 48.367 86.135 48.518 86.06 48.707 85.682 z M 38.174 85.834 C 38.733 86.363 38.672 86.552 37.908 86.93 C 37.984 86.552 38.098 86.212 38.174 85.834 z M 42.383 86.061 C 42.496 86.438 42.686 86.438 42.762 86.438 C 42.796 86.507 42.831 86.626 42.865 86.732 C 42.756 86.841 42.646 87.043 42.535 87.043 C 42.422 86.816 42.345 86.815 42.27 86.438 C 42.27 86.437 42.307 86.061 42.383 86.061 z M 69.906 86.061 L 69.906 86.891 C 69.713 86.815 69.599 86.438 69.41 86.438 C 69.603 86.438 69.717 86.061 69.906 86.061 z M 46.611 86.164 C 46.756 86.111 46.93 86.324 47.043 86.324 C 47.156 86.475 47.234 86.552 47.271 86.93 C 47.347 87.005 47.271 87.383 47.271 87.383 L 47.309 87.533 C 46.727 87.495 46.442 87.345 46.291 86.93 C 46.178 86.703 46.254 86.324 46.48 86.324 C 46.518 86.23 46.563 86.182 46.611 86.164 z M 31.121 86.361 C 32.015 87.042 31.846 88.025 30.617 89.121 C 29.593 88.176 29.835 86.928 31.121 86.361 z M 35.764 86.424 C 35.911 86.476 36.02 86.665 36.203 87.043 C 35.549 87.459 35.288 87.345 35.092 86.627 C 35.43 86.457 35.616 86.372 35.764 86.424 z M 40.354 86.664 C 40.928 86.929 40.966 86.967 40.777 87.723 C 40.619 87.345 40.505 87.042 40.354 86.664 z M 49.229 86.967 C 48.96 87.609 48.719 88.139 48.492 88.668 C 48.039 88.403 47.962 88.138 48.227 87.307 L 48.23 87.346 C 48.552 87.346 48.832 86.967 49.229 86.967 z M 39.311 87.043 C 40.127 87.421 40.151 87.495 39.75 88.176 C 39.614 87.798 39.5 87.497 39.311 87.043 z M 74.781 87.262 C 74.719 87.279 74.665 87.325 74.627 87.42 C 74.442 87.949 74.933 87.949 75.197 87.949 C 76.392 88.441 77.549 88.932 78.551 89.764 C 79.333 90.406 80.129 91.049 80.945 91.691 C 81.059 91.616 81.173 91.616 81.324 91.238 L 81.309 91.238 C 80.662 90.709 80.038 90.217 79.43 89.688 C 78.247 88.667 76.921 87.911 75.443 87.42 C 75.242 87.42 74.969 87.209 74.781 87.262 z M 45.434 87.27 L 45.434 88.102 C 45.022 87.837 45.131 87.647 45.434 87.27 z M 37.18 87.383 L 37.357 87.383 L 37.361 87.42 L 37.43 87.875 L 37.287 87.875 C 37.249 87.762 37.236 87.383 37.18 87.383 z M 34.633 87.572 C 35.341 87.95 35.34 87.949 36.539 87.949 C 36.798 88.592 36.579 89.121 36.133 89.688 L 36.133 89.65 C 35.572 89.008 35.129 88.138 34 88.516 C 34.262 88.138 34.448 87.95 34.633 87.572 z M 49.928 87.572 C 50.018 88.29 49.976 88.366 49.262 88.744 C 49.281 88.253 49.493 87.95 49.928 87.572 z M 38.83 87.912 C 38.906 88.063 38.983 88.441 39.059 88.441 L 38.566 88.441 C 38.68 88.328 38.717 88.327 38.83 87.949 L 38.83 87.912 z M 46.209 87.949 L 46.213 88.252 L 46.799 88.252 L 47.391 88.252 C 46.801 88.554 46.284 88.857 46.02 89.537 C 45.906 89.046 45.944 88.819 46.209 87.949 z M 44.201 88.025 C 44.738 88.403 44.458 89.158 44.852 89.688 C 44.428 89.687 44.077 90.066 43.643 90.066 L 43.658 90.029 C 43.583 89.689 43.581 89.612 43.543 89.234 C 43.505 89.008 43.392 88.97 43.316 88.592 C 43.596 88.403 43.861 88.025 44.201 88.025 z M 41.938 88.289 C 41.937 88.591 41.861 88.593 41.861 88.971 L 41.674 88.971 L 41.68 89.045 C 41.642 89.045 41.529 88.668 41.529 88.668 C 41.548 88.668 41.749 88.289 41.938 88.289 z M 66.672 88.469 C 67.078 88.514 67.576 89.023 67.51 89.387 L 67.49 89.348 C 67.445 89.726 67.189 90.105 66.887 89.727 C 66.618 89.538 66.429 89.31 66.24 88.932 C 66.165 88.856 66.239 88.479 66.504 88.479 C 66.556 88.464 66.614 88.462 66.672 88.469 z M 42.439 88.781 L 42.668 88.781 C 42.781 89.008 42.855 89.122 42.969 89.5 L 42.781 89.5 C 42.668 89.273 42.553 89.159 42.439 88.781 z M 40.223 88.818 C 40.071 89.083 39.994 89.083 39.881 89.461 L 39.896 89.613 C 39.742 89.575 39.667 89.197 39.516 89.197 C 39.746 88.819 39.92 88.818 40.223 88.818 z M 47.281 88.922 C 47.453 88.875 47.644 88.969 47.863 89.158 C 48.351 89.536 48.617 90.179 48.428 90.557 C 48.22 91.313 47.611 91.313 46.973 90.936 C 46.791 90.936 46.636 90.557 46.371 90.557 L 46.367 90.557 C 46.552 90.179 46.627 89.915 46.816 89.537 C 46.956 89.159 47.109 88.969 47.281 88.922 z M 34.434 89.121 L 34.805 89.121 C 35.086 89.31 35.342 89.498 35.41 89.914 L 35.434 89.953 C 34.995 90.067 34.675 89.952 34.434 89.574 C 34.343 89.499 34.377 89.121 34.434 89.121 z M 38.93 89.574 C 39.043 89.574 39.194 89.953 39.27 89.953 C 39.443 90.369 38.99 90.368 38.688 90.746 L 38.688 90.785 C 38.544 90.483 38.43 90.331 38.279 89.953 C 38.544 89.575 38.741 89.574 38.93 89.574 z M 40.939 89.764 C 41.227 90.179 41.522 90.557 41.824 90.973 L 41.844 90.973 C 41.564 91.199 41.317 91.578 41.053 91.578 C 40.384 90.898 40.354 90.368 40.939 89.764 z M 45.232 90.406 C 45.648 90.709 45.498 91.163 45.385 91.541 C 45.154 92.259 44.814 92.825 43.881 93.203 L 43.869 93.316 C 43.854 92.485 43.458 91.88 42.895 91.389 C 43.152 91.162 43.483 90.785 43.951 90.785 C 44.371 90.785 44.783 90.406 45.232 90.406 z M 63.273 90.42 C 62.9 90.815 62.46 91.133 61.932 91.352 C 61.487 91.547 61.036 91.716 60.58 91.861 C 61.526 91.521 62.426 91.041 63.273 90.42 z M 39.613 91.049 C 39.651 91.313 39.651 91.351 39.727 91.729 L 39.613 91.729 C 39.48 91.663 39.33 91.64 39.146 91.396 C 39.338 91.321 39.449 91.049 39.613 91.049 z M 38.027 91.559 C 38.197 91.559 38.355 91.653 38.506 91.842 C 38.109 92.484 37.925 92.484 37.471 91.842 C 37.675 91.653 37.857 91.559 38.027 91.559 z M 51.715 91.805 L 51.791 91.805 C 52.377 91.994 52.959 92.032 53.541 92.41 L 53.504 92.41 L 53.473 92.41 C 52.887 92.221 52.301 92.183 51.715 91.805 z M 42.674 92.068 C 43.279 92.635 43.37 93.203 42.977 93.732 C 42.67 94.11 42.248 94.11 41.658 93.732 C 41.053 93.354 40.94 93.166 41.318 92.523 L 41.314 92.637 C 42.172 92.561 42.171 92.56 42.674 92.068 z M 31.621 93.656 C 31.394 93.656 31.16 94.035 30.967 94.035 C 30.121 94.602 29.268 95.207 28.459 95.85 C 28.086 96.152 27.807 96.567 27.479 96.945 C 27.663 96.983 27.788 97.361 27.943 97.361 L 27.936 97.398 C 28.616 96.454 29.478 95.773 30.406 95.168 C 30.836 94.866 31.308 94.829 31.777 94.451 C 31.989 94.413 32.199 94.413 32.143 94.035 C 32.085 93.657 31.825 93.656 31.621 93.656 z " style="fill:#ffffff;fill-opacity:1;fill-rule:nonzero;stroke:none;stroke-width:0.24824" /></svg>