<?xml version="1.0" encoding="UTF-8" standalone="no"?><svg xmlns:dc="http://purl.org/dc/elements/1.1/" xmlns:cc="http://creativecommons.org/ns#" xmlns:rdf="http://www.w3.org/1999/02/22-rdf-syntax-ns#" xmlns:svg="http://www.w3.org/2000/svg" xmlns="http://www.w3.org/2000/svg" id="svg3199" version="1.1" viewBox="0 0 26.45833 26.45833" height="100" width="100"><defs id="defs3193" /><g transform="translate(0,-270.5417)" id="layer1"><path id="path7211" d="m 17.71426,295.1927 c -1.09591,-0.1288 -2.03583,-0.2383 -2.0889,-0.2428 -0.0537,0 -0.0966,-0.1819 -0.0966,-0.3939 0,-0.3771 -0.0153,-0.3857 -0.64282,-0.3857 h -0.64267 v 0.45 c 0,0.3942 -0.0399,0.4499 -0.32134,0.4499 -0.2816,0 -0.32148,-0.055 -0.32148,-0.4499 v -0.45 h -0.70694 c -0.66843,0 -0.70693,0.017 -0.70693,0.3213 0,0.2572 -0.0644,0.3215 -0.32149,0.3215 -0.25707,0 -0.32134,-0.064 -0.32134,-0.3215 0,-0.2814 -0.0552,-0.3213 -0.44986,-0.3213 -0.29266,0 -0.45002,0.061 -0.45002,0.1741 0,0.138 -0.52396,0.1885 -2.538775,0.244 -1.396232,0.038 -2.555029,0.055 -2.574969,0.037 -0.01994,-0.018 0.139577,-1.3562 0.353391,-2.9721 0.464286,-3.4986 0.46812,-3.5817 0.164885,-3.4639 -0.405541,0.1574 -1.920643,0.237 -2.002089,0.1043 -0.138043,-0.2229 0.735311,-1.8455 2.513923,-4.6722 1.145606,-1.8208 2.347044,-3.9768 3.541114,-6.355 1.81282,-3.6105 2.61807,-5.0078 2.96165,-5.1397 0.42226,-0.1621 0.83133,0.5243 2.14811,3.6046 0.5422,1.2685 1.01385,2.3353 1.0479,2.3705 0.14111,0.1458 0.42655,-0.4695 0.42655,-0.9196 0,-0.5998 0.31183,-0.808 1.02797,-0.687 l 0.4945,0.083 0.0874,0.9867 c 0.0476,0.5427 0.18897,1.832 0.31352,2.8652 l 0.22639,1.8786 1.25159,1.785 c 1.28564,1.8333 2.15685,3.2428 2.30855,3.7353 0.0844,0.2757 0.0706,0.2784 -1.10849,0.2171 -0.68255,-0.035 -1.27353,-0.015 -1.3786,0.064 -0.15752,0.1074 -0.11503,0.631 0.29281,3.6393 0.26213,1.9321 0.47502,3.5564 0.47318,3.6095 0,0.138 -0.69911,0.1 -2.96011,-0.1667 z m -6.17023,-2.0507 c 0,-0.3643 -0.0291,-0.3857 -0.51413,-0.3857 -0.45294,0 -0.51429,0.035 -0.51429,0.3 0,0.3991 0.092,0.4713 0.59987,0.4713 0.39051,0 0.42855,-0.034 0.42855,-0.3856 z m 2.05669,0 c 0,-0.3817 0,-0.3857 -0.70693,-0.3857 -0.69988,0 -0.70694,0 -0.70694,0.3857 0,0.3818 0,0.3856 0.70694,0.3856 0.69988,0 0.70693,0 0.70693,-0.3856 z m 1.92832,0 c 0,-0.3771 -0.0153,-0.3857 -0.64283,-0.3857 -0.6284,0 -0.64266,0.015 -0.64266,0.3857 0,0.377 0.0153,0.3856 0.64266,0.3856 0.62841,0 0.64283,-0.015 0.64283,-0.3856 z m -3.98501,-1.6711 c 0,-0.4627 0.0322,-0.5143 0.32134,-0.5143 0.28927,0 0.32148,0.052 0.32148,0.5143 v 0.5142 h 0.70694 0.70693 v -0.5142 c 0,-0.4627 0.0322,-0.5143 0.32149,-0.5143 0.28913,0 0.32134,0.052 0.32134,0.5143 v 0.5142 h 0.58975 0.58975 l -0.0844,-0.5464 c -0.17777,-1.1514 -0.44925,-1.7295 -1.09606,-2.3344 -0.54773,-0.5123 -0.70372,-0.5899 -1.18534,-0.5899 -0.42302,0 -0.66261,0.089 -1.00894,0.3744 -0.53653,0.4422 -1.26524,1.8092 -1.36632,2.5633 l -0.0721,0.533 h 0.46674 c 0.45907,0 0.46689,-0.015 0.46689,-0.5142 z m 1.68428,-9.4171 c 0.5261,-0.3496 1.03763,-1.2981 0.98732,-1.8308 -0.0322,-0.3465 -0.0859,-0.3897 -0.52825,-0.4261 -0.30139,-0.024 -0.6172,0.041 -0.81522,0.1715 -0.26412,0.173 -0.38882,0.1847 -0.68071,0.064 -0.5307,-0.2198 -1.34178,-0.1212 -1.39684,0.1689 -0.0859,0.4495 0.11043,0.845 0.74145,1.4921 0.71981,0.739 1.02504,0.804 1.69225,0.3606 z" style="fill:#ffffff;stroke-width:0.1285463;fill-opacity:1" /></g></svg>