<?xml version="1.0" encoding="UTF-8" standalone="no"?><svg xmlns:dc="http://purl.org/dc/elements/1.1/" xmlns:cc="http://creativecommons.org/ns#" xmlns:rdf="http://www.w3.org/1999/02/22-rdf-syntax-ns#" xmlns:svg="http://www.w3.org/2000/svg" xmlns="http://www.w3.org/2000/svg" viewBox="0 0 40 40" height="40" width="40" id="svg2" version="1.1"><defs id="defs6" /><path id="path819" d="m 13.049,0.61728 a 4.4704,4.4704 0 0 1 3.027,1.18692 l 9.264,3.1986 c 0.898,0.354 1.368,1.2707 1.18,2.1535 -0.08,0.5041 -0.359,0.9795 -0.828,1.2975 l -5.598,4.2192 2.394,8.934 5.684,-1.979 c 0.727,-0.28 1.503,-0.188 2.125,0.179 a 2.4453,2.4453 0 0 1 0.121,0.08 c 0.02,0.01 0.03,0.02 0.05,0.03 a 2.4453,2.4453 0 0 1 0.993,1.445 l 0.34,1.658 a 2.4453,2.4453 0 0 1 0.328,0.413 l 7.554,12.901 c 0.605,0.952 0.327,2.17 -0.595,2.75 -0.922,0.58 -2.14,0.303 -2.737,-0.654 l -2.003,-2.97 0.112,0.548 c 0.266,1.096 -0.389,2.16 -1.449,2.412 -1.06,0.253 -2.124,-0.401 -2.38,-1.5 l -2.529,-9.29 -12.263,2.621 c -0.788,0.144 -1.546,-0.136 -2.107,-0.699 -0.402,-0.34 -0.736,-0.806 -0.947,-1.372 -0.04,-0.103 -0.07,-0.206 -0.1,-0.308 -0.06,-0.149 -0.122,-0.302 -0.165,-0.464 L 9.3553,15.611 1.0465,10.289 C 0.5307,9.9936 0.19887,9.519 0.07811,8.9981 -0.18575,8.0938 0.23156,7.1028 1.1388,6.6629 L 8.9702,3.2712 A 4.4704,4.4704 0 0 1 13.049,0.61728 Z M 17.488,5.5659 A 4.4704,4.4704 0 0 1 13.049,9.5578 4.4704,4.4704 0 0 1 8.9452,6.8573 L 6.0488,8.45 10.612,10.811 c 0.26,-0.154 0.543,-0.278 0.85,-0.36 l 4.243,-1.1366 c 0.516,-0.1383 1.034,-0.1465 1.524,-0.05 l 3.558,-2.1996 z" style="opacity:1;fill:#ffffff;fill-opacity:1;stroke:none;stroke-width:0.15832;stroke-miterlimit:4;stroke-dasharray:none;stroke-dashoffset:0;stroke-opacity:1;paint-order:stroke markers fill" /></svg>