<?xml version="1.0" encoding="UTF-8" standalone="no"?><svg xmlns:dc="http://purl.org/dc/elements/1.1/" xmlns:cc="http://creativecommons.org/ns#" xmlns:rdf="http://www.w3.org/1999/02/22-rdf-syntax-ns#" xmlns:svg="http://www.w3.org/2000/svg" xmlns="http://www.w3.org/2000/svg" id="svg9562" version="1.1" viewBox="0 0 10.583333 10.583333" height="40" width="40"><defs id="defs9556" /><path style="clip-rule:evenodd;display:inline;fill:#ffffff;fill-opacity:1;fill-rule:evenodd;stroke-width:0.58796" d="M 3.969,0 V 2.2 H 7.056 V 3.08 H 8.379 V 3.52 H 7.056 V 3.97 H 8.379 V 4.41 H 7.056 V 7.93 H 9.261 V 0 Z m 4.357,0.37 h 0.03 V 1.86 H 8.041 V 0.72 L 7.735,0.83 V 0.59 Z" id="path3" /><path style="clip-rule:evenodd;display:inline;fill:#ffffff;fill-opacity:1;fill-rule:evenodd;stroke-width:0.58796" d="m 1.323,2.64 v 7.94 H 6.615 V 2.64 Z m 3.922,0.37 c 0.141,0 0.25,0 0.327,0.11 0.08,0.1 0.117,0.18 0.117,0.31 0,0.1 -0.02,0.17 -0.06,0.25 C 5.589,3.78 5.507,3.88 5.394,4 L 5.192,4.27 H 5.73 V 4.51 H 4.798 V 4.31 L 5.226,3.8 c 0.05,-0.1 0.09,-0.13 0.119,-0.19 0.03,0 0.04,-0.1 0.04,-0.15 0,-0.1 -0.01,-0.12 -0.04,-0.15 -0.02,0 -0.06,-0.1 -0.104,-0.1 -0.05,0 -0.09,0 -0.12,0.1 -0.03,0 -0.04,0.11 -0.04,0.19 H 4.773 c 0,-0.1 0.02,-0.18 0.06,-0.25 0.04,-0.1 0.1,-0.14 0.169,-0.18 0.07,0 0.156,-0.1 0.248,-0.1 z M 2.205,5.73 H 5.733 V 6.17 H 2.205 Z m 0,0.88 H 5.733 V 7.05 H 2.205 Z" id="path5" /></svg>