<?xml version="1.0" encoding="UTF-8" standalone="no"?><svg xmlns:dc="http://purl.org/dc/elements/1.1/" xmlns:cc="http://creativecommons.org/ns#" xmlns:rdf="http://www.w3.org/1999/02/22-rdf-syntax-ns#" xmlns:svg="http://www.w3.org/2000/svg" xmlns="http://www.w3.org/2000/svg" id="svg9515" version="1.1" viewBox="0 0 10.58333 10.58333" height="40" width="40"><defs id="defs9509" /><path style="fill:#ffffff;fill-opacity:1;fill-rule:evenodd;stroke-width:0.3648" d="M 5.6426,-0.0033 A 0.91524,0.90251 0 0 0 4.7275,0.89897 0.91524,0.90251 0 0 0 5.6426,1.8017 0.91524,0.90251 0 0 0 6.5578,0.89897 0.91524,0.90251 0 0 0 5.6426,-0.0033 Z M 5.3683,1.9428 c -0.2289,-0.01 -0.4456,0.079 -0.6067,0.2295 -0.1895,0.1299 -0.3778,0.3015 -0.5911,0.48 -0.03,0.016 -0.059,0.034 -0.085,0.057 L 3.0738,3.6378 C 2.9952,3.7098 2.954,3.8067 2.9503,3.9048 2.8802,3.9614 2.8286,4.0416 2.8124,4.1379 L 2.585,5.4923 C 2.5501,5.7008 2.6899,5.8963 2.8981,5.9312 3.1066,5.9662 3.3024,5.8265 3.3373,5.618 L 3.5644,4.2641 c 0,-0.016 0,-0.032 0,-0.048 0.01,-0.01 0.016,-0.011 0.021,-0.016 L 4.2853,3.5603 4.2721,3.613 c -0.019,0.082 -0.021,0.1624 -0.019,0.2418 l -0.4585,2.328 c -0.027,0.05 -0.049,0.1038 -0.06,0.1628 l -0.284,1.5007 c -0.043,0.044 -0.084,0.092 -0.118,0.1479 L 2.3405,9.6203 C 2.1423,9.9452 2.1954,10.337 2.4599,10.498 2.7243,10.66 3.0971,10.528 3.2955,10.203 L 4.2877,8.5765 C 4.3253,8.5146 4.3507,8.4503 4.3703,8.3857 4.457,8.3069 4.5213,8.2019 4.5449,8.0772 L 4.8333,6.5538 c 0,-0.013 0,-0.028 0.01,-0.042 0.03,0.058 0.065,0.1143 0.1106,0.1664 L 6.195,8.0987 c 0,0.01 0,0.016 0,0.024 L 6.5287,9.997 c 0.068,0.375 0.3675,0.632 0.6723,0.577 0.3051,-0.05 0.4961,-0.401 0.4286,-0.7754 L 7.291,7.9233 C 7.2799,7.8396 7.2521,7.7648 7.2171,7.696 7.1873,7.5846 7.1317,7.474 7.0462,7.3761 L 5.7929,5.9415 C 5.7384,5.8788 5.6765,5.8286 5.6117,5.7876 l 0.3818,-1.9389 -0.024,-0.01 0.021,-0.091 0.33,0.7138 c 0.042,0.09 0.114,0.1546 0.1984,0.19 0.026,0.059 0.066,0.1119 0.1222,0.1524 L 7.7527,5.6148 C 7.9236,5.7389 8.1614,5.701 8.2853,5.5301 8.4093,5.3592 8.3715,5.1214 8.2006,4.9973 L 7.0891,4.1911 c -0.024,-0.018 -0.049,-0.03 -0.075,-0.041 0,0 0,0 0,0 L 6.438,2.9005 C 6.4149,2.8507 6.3827,2.8087 6.3443,2.7748 6.2408,2.401 5.9861,2.1448 5.7098,2.026 5.6564,2.0007 5.5992,1.9803 5.5392,1.9661 5.482,1.9525 5.4249,1.9446 5.3683,1.9428 Z" id="_55088384-6" /></svg>