<?xml version="1.0" encoding="UTF-8" standalone="no"?><svg xmlns:dc="http://purl.org/dc/elements/1.1/" xmlns:cc="http://creativecommons.org/ns#" xmlns:rdf="http://www.w3.org/1999/02/22-rdf-syntax-ns#" xmlns:svg="http://www.w3.org/2000/svg" xmlns="http://www.w3.org/2000/svg" width="10.583334mm" height="10.583334mm" viewBox="0 0 10.583334 10.583334" version="1.1" id="svg10217"><defs id="defs10211" /><path d="m 6.48,3.44 c -0.22,0 -0.35,0 -0.56,0 -0.1,0.89 -0.4,1.77 -0.46,2.62 0,0.27 0.11,0.52 0.21,0.67 C 5.78,6.89 5.94,7 6.1,7.11 6.28,7.24 6.63,7.4 6.68,7.45 c 0.1,0 0.11,0.12 0.14,0.2 0,0.1 0.1,0.11 0.1,0.44 0,0.33 0.1,1.04 -0.1,1.96 0,0 -0.1,0.1 -0.1,0.1 -0.43,0 -0.47,0.1 -0.93,0.1 0,0 -0.1,0 -0.1,0.1 0,0 0.1,0.1 0.17,0.1 0.16,0 0.24,0 0.37,0 0.24,0 0.72,0 0.72,0 0,0 0.48,0 0.72,0 0.13,0 0.21,0 0.38,0 0.1,0 0.16,0 0.16,-0.1 0,0 0,-0.1 -0.1,-0.1 -0.46,-0.1 -0.49,-0.1 -0.93,-0.1 0,0 -0.1,0 -0.1,-0.1 -0.14,-0.92 -0.1,-1.63 -0.1,-1.96 0,-0.33 0.1,-0.38 0.1,-0.44 0,-0.1 0.1,-0.15 0.14,-0.2 0,0 0.4,-0.21 0.58,-0.34 C 7.96,7 8.12,6.89 8.23,6.73 8.33,6.58 8.46,6.33 8.44,6.06 8.34,5.21 8.07,4.33 7.98,3.44 c -0.34,0 -0.46,0 -1.09,0 -0.24,0 -0.4,0 -0.53,0 z M 3.2,0 C 3.1,0 3.02,0 2.98,0 c -0.1,0 -0.1,0 -0.1,0.1 0,0 0,0.1 0,0.13 0,0.1 -0.12,0 -0.11,0.1 0,0 0,0.21 0,0.25 0,0 0,0 0,0 0,0 0,2.04 0,2.18 0,0.14 -0.12,0.22 -0.22,0.31 -0.1,0.1 -0.24,0.22 -0.31,0.3 -0.1,0.1 -0.16,0.27 -0.18,0.34 0,0.1 -0.1,0.34 -0.1,0.34 0,0 0,6.01 0,6.08 0,0.29 0.14,0.37 0.41,0.44 0.16,0 0.93,0 0.93,0 0,0 0.77,0 0.93,0 0.27,-0.1 0.41,-0.15 0.41,-0.44 0,-0.1 0,-6.08 0,-6.08 0,0 0,-0.26 0,-0.34 C 4.64,3.61 4.54,3.45 4.46,3.37 4.36,3.27 4.24,3.17 4.15,3.07 4.05,2.97 3.95,2.9 3.93,2.76 c 0,-0.14 0,-2.18 0,-2.18 0,0 0,0 0,0 0,0 0,-0.2 0,-0.25 0,-0.1 -0.1,0 -0.11,-0.1 0,0 0,-0.11 0,-0.13 0,0 0,0 -0.1,-0.1 -0.1,0 -0.39,0 -0.39,0 0,0 -0.1,0 -0.17,0 z" style="fill:#ffffff;fill-opacity:1;fill-rule:evenodd;stroke:none;stroke-width:0.00734px;stroke-linecap:butt;stroke-linejoin:miter;stroke-opacity:1" id="path10164" /></svg>