<?xml version="1.0" encoding="UTF-8" standalone="no"?><svg xmlns:dc="http://purl.org/dc/elements/1.1/" xmlns:cc="http://creativecommons.org/ns#" xmlns:rdf="http://www.w3.org/1999/02/22-rdf-syntax-ns#" xmlns:svg="http://www.w3.org/2000/svg" xmlns="http://www.w3.org/2000/svg" id="svg9799" version="1.1" viewBox="0 0 8.3298502 8.5938635" height="8.5938635mm" width="8.3298502mm"><defs id="defs9793" /><path style="display:inline;opacity:1;fill:#ffffff;fill-opacity:1;fill-rule:evenodd;stroke:none;stroke-width:0.02614;stroke-miterlimit:4;stroke-dasharray:none;stroke-dashoffset:0;stroke-opacity:1;paint-order:stroke markers fill" d="M 0.99965,0 C 2.8006,0.84 4.6826,1.83 7.9896,1.36 l 0.03,0.2 c -1.88,0.27 -3.319,0.1 -4.538,-0.31 l 0.07,1.22 c 0.03,0 0.06,0 0.08,0.1 l 0.962,1.53 a 0.29607,0.29607 0 0 1 0.03,0.1 c 0.03,0 0.06,0.1 0.06,0.16 0,0.16 -0.129,0.3 -0.292,0.3 h -0.547 l 0.327,1.28 1.956,-0.35 c 0.218,0 0.433,0.1 0.479,0.31 0.01,0 0.01,0.1 0,0.13 0,0 0,0 0,0 l -0.18,0.95 1.737,0.99 c 0.163,0.1 0.221,0.29 0.136,0.44 -0.09,0.16 -0.283,0.22 -0.445,0.13 l -1.577,-0.78 -0.09,0.48 c -0.03,0.18 -0.193,0.3 -0.371,0.27 -0.177,0 -0.3,-0.19 -0.271,-0.37 l 0.08,-0.65 -2.099,0.13 c -0.03,0 -0.06,0 -0.1,0 h -0.02 c -0.07,0 -0.129,0 -0.185,-0.1 -0.156,0 -0.307,-0.14 -0.377,-0.25 L 1.3026,4.98 0.68265,5.68 1.7916,6.78 c 0.101,0.1 0.106,0.24 0.02,0.34 -0.09,0.1 -0.245,0.1 -0.345,0 L 0.10665,5.92 a 0.29607,0.29607 0 0 1 -0.1,-0.3 c 0,-0.1 0,-0.11 0.1,-0.16 L 1.2066,4.02 c 0.1,-0.1 0.11,-0.1 0.18,-0.1 0,0 0,0 0,0 0.339,0 0.985,-0.14 1.342,0 h 0.75 v 0 L 3.4486,3.8 3.3986,3.02 3.2356,2.72 c -0.07,-0.12 -0.03,-0.26 0.08,-0.33 0.01,0 0.03,0 0.04,0 L 3.2756,1.12 C 2.4076,0.84 1.6456,0.47 0.91565,0.13 Z M 1.8276,2.29 a 0.73819,0.73819 0 0 1 0.738,0.74 0.73819,0.73819 0 0 1 -0.738,0.74 0.73819,0.73819 0 0 1 -0.738,-0.74 0.73819,0.73819 0 0 1 0.738,-0.74 z m 1.79,1.23 0.02,0.31 0.03,0.12 h 0.02 v 0 0 h 0.202 z m 0.01,1.12 h -0.123 l -0.104,0.4 0.476,0.91 h 0.08 z m -0.339,0 h -0.09 l 0.06,0.12 z m 2.448,1.82 -0.765,0.19 h 0.742 z" id="circle9728" /></svg>