<?xml version="1.0" encoding="UTF-8" standalone="no"?><svg xmlns:dc="http://purl.org/dc/elements/1.1/" xmlns:cc="http://creativecommons.org/ns#" xmlns:rdf="http://www.w3.org/1999/02/22-rdf-syntax-ns#" xmlns:svg="http://www.w3.org/2000/svg" xmlns="http://www.w3.org/2000/svg" id="svg5768" version="1.1" viewBox="0 0 12.7 12.7" height="48" width="48"><defs id="defs5762" /><path style="display:inline;fill:none;fill-opacity:1;stroke:#ffffff;stroke-width:0.25455;stroke-linecap:butt;stroke-linejoin:miter;stroke-miterlimit:4;stroke-opacity:1" d="m 6.35,12.57 c 1.2916,0 2.4921,-0.39 3.4798,-1.06 0.7372,-0.5 1.3522,-1.14 1.8162,-1.89 0.08,-0.12 0.143,-0.24 0.205,-0.36 0.463,-0.87 0.722,-1.85 0.722,-2.91 0,-3.43 -2.7811,-6.22 -6.223,-6.22 -1.4437,0 -2.7733,0.49 -3.8294,1.31 -1.4588,1.14 -2.39332,2.91 -2.39332,4.91 0,3.43 2.78842,6.22 6.22272,6.22 z m 0,0" id="path15576" /><path style="display:inline;fill:#ffffff;fill-opacity:1;fill-rule:nonzero;stroke:none;stroke-width:1.94508;stroke-opacity:1" d="M 4.0861,11.05 C 4.3292,10.92 5.013,10.45 5.3246,9.62 4.8839,9.26 4.3749,8.58 3.9873,7.73 3.2731,7.83 2.3006,7.83 1.913,7.83 1.6243,8.68 1.7156,9.23 2.1335,9.89 c 0.509,0.73 1.2156,1.01 1.9526,1.21" id="path15578" /><path style="display:inline;fill:none;stroke:#ffffff;stroke-width:0.09521;stroke-linecap:butt;stroke-linejoin:miter;stroke-miterlimit:4;stroke-opacity:1" d="M 4.0857,11.05 C 4.3289,10.92 5.0127,10.45 5.3243,9.62 4.8836,9.26 4.3744,8.58 3.987,7.73 3.2728,7.83 2.3003,7.83 1.9127,7.83 1.624,8.68 1.7152,9.23 2.1332,9.89 c 0.509,0.73 1.2155,1.01 1.9526,1.21 z m 0,0" id="path15580" /><path style="display:inline;fill:none;stroke:#ffffff;stroke-width:0.09521;stroke-linecap:butt;stroke-linejoin:miter;stroke-miterlimit:4;stroke-opacity:1" d="M 0.29439,5.6 C 0.21119,5.81 0.13444,6.09 0.13444,6.14" id="path15582" /><path style="display:inline;fill:none;stroke:#ffffff;stroke-width:0.25455;stroke-linecap:butt;stroke-linejoin:miter;stroke-miterlimit:3.864;stroke-opacity:1" d="m 2.0875,9.76 c -0.2203,0.1 -0.7445,0.1 -0.9117,0" id="path15584" /><path style="display:inline;fill:none;stroke:#ffffff;stroke-width:0.25455;stroke-linecap:butt;stroke-linejoin:miter;stroke-miterlimit:3.864;stroke-opacity:1" d="m 4.0857,11.05 c 0.1673,0.51 0.8663,1.14 1.2386,1.37" id="path15586" /><path style="display:inline;fill:#191719;fill-opacity:1;fill-rule:nonzero;stroke:none;stroke-width:1.94508" d="M 8.6221,11.05 C 8.3789,10.92 7.6951,10.45 7.376,9.62 7.8167,9.26 8.3257,8.58 8.7208,7.73 c 0.7067,0.1 1.6792,0.1 2.0662,0.1 0.297,0.85 0.206,1.4 -0.212,2.06 -0.509,0.73 -1.2235,1.01 -1.9529,1.21" id="path19584" /><path style="display:inline;fill:#ffffff;fill-opacity:1;stroke:#ffffff;stroke-width:0.09521;stroke-linecap:butt;stroke-linejoin:miter;stroke-miterlimit:4;stroke-opacity:1" d="M 8.6218,11.05 C 8.3786,10.92 7.6948,10.45 7.3757,9.62 7.8164,9.26 8.3254,8.58 8.7205,7.73 c 0.7067,0.1 1.6795,0.1 2.0665,0.1 0.297,0.85 0.205,1.4 -0.213,2.06 -0.509,0.73 -1.2229,1.01 -1.9523,1.21 z m 0,0" id="path15590" /><path style="display:inline;fill:none;stroke:#191719;stroke-width:0.09521;stroke-linecap:butt;stroke-linejoin:miter;stroke-miterlimit:4;stroke-opacity:1" d="m 12.406,5.6 c 0.09,0.21 0.16,0.49 0.16,0.54" id="path15592" /><path style="display:inline;fill:none;stroke:#ffffff;stroke-width:0.25455;stroke-linecap:butt;stroke-linejoin:miter;stroke-miterlimit:3.864;stroke-opacity:1" d="m 10.62,9.76 c 0.22,0.1 0.737,0.1 0.912,0" id="path15594" /><path style="display:inline;fill:none;stroke:#ffffff;stroke-width:0.25455;stroke-linecap:butt;stroke-linejoin:miter;stroke-miterlimit:3.864;stroke-opacity:1" d="M 8.6218,11.05 C 8.4547,11.56 7.7557,12.19 7.3757,12.42" id="path15596" /><path style="display:inline;fill:none;stroke:#ffffff;stroke-width:0.25455;stroke-linecap:butt;stroke-linejoin:miter;stroke-miterlimit:3.864;stroke-opacity:1" d="m 7.4821,9.62 c -0.8054,0.14 -1.512,0.15 -2.2566,0" id="path15598" /><path style="display:inline;fill:none;stroke:#ffffff;stroke-width:0.0719;stroke-linecap:butt;stroke-linejoin:miter;stroke-miterlimit:4;stroke-opacity:1" d="M 5.1798,0.23 C 4.1846,0.43 3.2803,0.85 2.5206,1.44 2.1558,1.73 1.8216,2.06 1.5404,2.41" id="path15600" /><path style="display:inline;fill:none;stroke:#ffffff;stroke-width:0.0719;stroke-linecap:butt;stroke-linejoin:miter;stroke-miterlimit:4;stroke-opacity:1" d="M 11.19,2.44 C 10.286,1.32 9.0017,0.52 7.5352,0.23" id="path15602" /><path style="display:inline;fill:none;stroke:#ffffff;stroke-width:0.08161;stroke-linecap:butt;stroke-linejoin:miter;stroke-miterlimit:4;stroke-opacity:1" d="m 5.2939,12.41 c 0.3419,0.1 0.699,0.1 1.0561,0.1 0.3646,0 0.7293,-0.1 1.0789,-0.1" id="path15604" /><path style="display:inline;fill:none;stroke:#ffffff;stroke-width:0.0719;stroke-linecap:butt;stroke-linejoin:miter;stroke-miterlimit:4;stroke-opacity:1" d="m 0.27153,5.03 c -0.0979,0.42 -0.14359,0.86 -0.14359,1.32 0,3.07 2.23386,5.63 5.16666,6.13" id="path15606" /><path style="display:inline;fill:none;stroke:#191719;stroke-width:0.09521;stroke-linecap:butt;stroke-linejoin:miter;stroke-miterlimit:4;stroke-opacity:1" d="M 4.405,3.37 C 3.6679,3.27 2.6422,3.27 2.2546,3.47" id="path15608" /><path style="display:inline;fill:none;stroke:#191719;stroke-width:0.09521;stroke-linecap:butt;stroke-linejoin:miter;stroke-miterlimit:4;stroke-opacity:1" d="m 8.3102,3.37 c 0.7295,-0.1 1.7478,-0.1 2.1428,0.1" id="path15610" /><path style="display:inline;fill:#ffffff;fill-opacity:1;fill-rule:evenodd;stroke:none;stroke-width:1.94508" d="m 4.3976,3.37 c 0.077,0.43 0.4712,1.26 0.8661,2.15 0.8359,0 1.2918,0 2.1882,0 C 7.8395,4.63 8.2346,3.8 8.303,3.37 7.8167,2.9 6.7835,2.16 6.3503,2.07 5.9097,2.17 4.8915,2.9 4.3976,3.37" id="path15612" /><path style="display:inline;fill:none;stroke:#ffffff;stroke-width:0.09521;stroke-linecap:butt;stroke-linejoin:miter;stroke-miterlimit:4;stroke-opacity:1" d="m 4.3973,3.37 c 0.077,0.43 0.471,1.26 0.8661,2.15 0.8358,0 1.2917,0 2.1882,0 C 7.8392,4.63 8.2343,3.8 8.3027,3.37 7.8163,2.9 6.783,2.16 6.35,2.07 5.9093,2.17 4.8911,2.9 4.3973,3.37 Z m 0,0" id="path15614" /><path style="display:inline;fill:none;fill-opacity:1;stroke:#ffffff;stroke-width:0.25455;stroke-linecap:butt;stroke-linejoin:miter;stroke-miterlimit:3.864;stroke-opacity:1" d="M 4.9063,3.43 C 3.9263,3.33 2.5433,3.31 2.0268,3.53" id="path15616" /><path style="display:inline;fill:none;stroke:#ffffff;stroke-width:0.25455;stroke-linecap:butt;stroke-linejoin:miter;stroke-miterlimit:3.864;stroke-opacity:1" d="m 0.81875,5.6 c 0.12078,0.94 0.72935,1.7 1.09415,2.17 0.3874,0 1.3674,0 2.0741,-0.1 0.3647,-0.78 0.8509,-1.66 1.2689,-2.2" id="path15618" /><path style="display:inline;fill:#ffffff;fill-opacity:1;fill-rule:evenodd;stroke:#ffffff;stroke-width:0.09521;stroke-linecap:butt;stroke-linejoin:miter;stroke-miterlimit:4;stroke-opacity:1" d="M 2.2851,3.46 C 2.0191,3.01 1.9356,2.54 2.0343,2.21 1.852,2.31 1.5861,2.41 1.5253,2.44 0.90984,3.19 0.47668,4.05 0.27153,5.03 0.24073,5.18 0.24873,5.42 0.29433,5.59 H 0.81869 C 1.0619,4.83 1.6772,3.79 2.2622,3.41 Z m 0,0" id="path15620" /><path style="display:inline;fill:none;stroke:#191719;stroke-width:0.09521;stroke-linecap:butt;stroke-linejoin:miter;stroke-miterlimit:4;stroke-opacity:1" d="M 6.35,0.74 V 2.07" id="path15622" /><path style="display:inline;fill:none;stroke:#191719;stroke-width:0.09521;stroke-linecap:butt;stroke-linejoin:miter;stroke-miterlimit:4;stroke-opacity:1" d="m 6.3575,0.74 v 0" id="path15624" /><path style="display:inline;fill:none;stroke:#ffffff;stroke-width:0.25455;stroke-linecap:butt;stroke-linejoin:miter;stroke-miterlimit:3.864;stroke-opacity:1" d="M 6.3575,0.6 V 2.21" id="path15626" /><path style="display:inline;fill:none;stroke:#ffffff;stroke-width:0.15351;stroke-linecap:butt;stroke-linejoin:miter;stroke-miterlimit:4;stroke-opacity:1" d="M 2.0495,2.2 C 2.5358,1.35 3.6451,0.79 4.3517,0.7" id="path15628" /><path style="display:inline;fill:#ffffff;fill-opacity:1;fill-rule:evenodd;stroke:#ffffff;stroke-width:0.0719;stroke-linecap:butt;stroke-linejoin:miter;stroke-miterlimit:4;stroke-opacity:1" d="M 7.5353,0.23 C 7.1554,0.13 6.7603,0.12 6.35,0.12 5.9549,0.12 5.5598,0.22 5.1798,0.23 h 0.046 c -0.16,0 -0.8661,0.29 -0.9042,0.45 h 0.031 C 4.9909,0.57 5.7734,0.58 6.3585,0.78 6.9436,0.68 7.749,0.62 8.3871,0.68 8.3491,0.52 7.6426,0.27 7.4755,0.23 Z m 0,0" id="path15630" /><path style="display:inline;fill:none;stroke:#ffffff;stroke-width:0.15351;stroke-linecap:butt;stroke-linejoin:miter;stroke-miterlimit:4;stroke-opacity:1" d="M 10.673,2.21 C 10.187,1.36 9.0624,0.79 8.3559,0.69" id="path15632" /><path style="display:inline;fill:none;stroke:#ffffff;stroke-width:0.25455;stroke-linecap:butt;stroke-linejoin:miter;stroke-miterlimit:3.864;stroke-opacity:1" d="M 8.1431,3.37 C 8.9865,3.27 10.172,3.27 10.62,3.47" id="path15634" /><path style="display:inline;fill:none;stroke:#ffffff;stroke-width:0.25455;stroke-linecap:butt;stroke-linejoin:miter;stroke-miterlimit:3.864;stroke-opacity:1" d="m 11.995,5.52 c -0.122,1.02 -0.767,1.81 -1.147,2.31 -0.41,0 -1.436,0 -2.173,-0.1 C 8.2875,6.91 7.7783,5.99 7.3377,5.42" id="path15636" /><path style="display:inline;fill:#ffffff;fill-opacity:1;fill-rule:evenodd;stroke:#ffffff;stroke-width:0.09521;stroke-linecap:butt;stroke-linejoin:miter;stroke-miterlimit:4;stroke-opacity:1" d="m 10.46,3.41 c 0.578,0.39 1.178,1.41 1.421,2.17 h 0.525 c 0.05,-0.19 0.05,-0.43 0.02,-0.57 C 12.221,4.04 11.78,3.17 11.18,2.42 c -0.06,0 -0.326,-0.19 -0.516,-0.23 0.1,0.33 0.04,0.81 -0.236,1.25 z m 0,0" id="path15638" /></svg>