<?xml version="1.0" encoding="UTF-8" standalone="no"?><svg xmlns:dc="http://purl.org/dc/elements/1.1/" xmlns:cc="http://creativecommons.org/ns#" xmlns:rdf="http://www.w3.org/1999/02/22-rdf-syntax-ns#" xmlns:svg="http://www.w3.org/2000/svg" xmlns="http://www.w3.org/2000/svg" id="svg31309" version="1.1" viewBox="0 0 12.7 12.7" height="48" width="48"><defs id="defs31303" /><path d="m 10.144,9.3836 c 1.09,0 1.678,-0.502 1.678,-2.0691 0,0 -1.139,0 -1.139,0 0,0.4653 0,1.1998 -0.539,1.1998 -0.6485,0 -0.7342,-0.6488 -0.7342,-2.1547 0,-1.4937 0.1225,-2.1426 0.7342,-2.1426 0.355,0 0.478,0.2939 0.478,1.0652 0,0 1.138,0 1.138,0 0,-1.2488 -0.428,-1.9344 -1.616,-1.9344 -1.9095,0 -1.9095,1.4691 -1.9095,3.0118 0,1.5303 0,3.024 1.9095,3.024 M 2.1865,9.2612 c 0,0 1.261,0 1.261,0 0,0 0.9672,-4.2729 0.9672,-4.2729 0,0 0,0 0,0 0,0 0.8692,4.2729 0.8692,4.2729 0,0 1.2856,0 1.2856,0 0,0 1.2243,-5.84 1.2243,-5.84 0,0 -1.1386,0 -1.1386,0 0,0 -0.6856,4.1014 -0.6856,4.1014 0,0 0,0 0,0 0,0 -0.8203,-4.1014 -0.8203,-4.1014 0,0 -1.3712,0 -1.3712,0 0,0 -0.8815,4.1014 -0.8815,4.1014 0,0 0,0 0,0 0,0 -0.7224,-4.1014 -0.7224,-4.1014 0,0 -1.19979,0 -1.19979,0 0,0 1.23659,5.84 1.23659,5.84 m -2.14257,-7.15 c 0,-1.17529 0.94267,-2.118 2.11807,-2.118 h 8.4595 c 1.163,0 2.118,0.94271 2.118,2.118 v 8.4598 c 0,1.175 -0.955,2.118 -2.118,2.118 H 2.1865 c -1.1754,0 -2.11807,-0.943 -2.11807,-2.118 z" style="fill:#ffffff;fill-opacity:1;fill-rule:evenodd;stroke:none;stroke-width:1.2243" id="path20186" /></svg>