<?xml version="1.0" encoding="UTF-8" standalone="no"?><svg xmlns:dc="http://purl.org/dc/elements/1.1/" xmlns:cc="http://creativecommons.org/ns#" xmlns:rdf="http://www.w3.org/1999/02/22-rdf-syntax-ns#" xmlns:svg="http://www.w3.org/2000/svg" xmlns="http://www.w3.org/2000/svg" id="svg4425" version="1.1" viewBox="0 0 12.7 12.7" height="48" width="48"><defs id="defs4419" /><path d="m 0.35538,9.1394 c 0,0 0.69482,0 0.69482,0 0,0 0,-0.4363 0,-0.4363 0,-0.1939 0.1615,-0.3393 0.3393,-0.3393 0,0 10.9705,0 10.9705,0 0.194,0 0.34,0.1616 0.34,0.3393 0,0 0,2.5859 0,2.5859 0,0.193 -0.162,0.355 -0.34,0.355 0,0 -10.9705,0 -10.9705,0 -0.1939,0 -0.3393,-0.162 -0.3393,-0.355 0,0 0,-0.437 0,-0.437 0,0 -0.69482,0 -0.69482,0 -0.1939,0 -0.3554775,-0.162 -0.3554775,-0.339 0,0 0,-1.0182 0,-1.0182 0,-0.1938 0.1615775,-0.3554 0.3554775,-0.3554 m 0,0.3231 c 0,0 0,1.0505 0,1.0505 0,0 0.72702,0 0.72702,0 0,0 0,-1.0343 0,-1.0343 0,0 -0.72702,0 -0.72702,0 M 1.4217,8.7031 c 0,0 0,2.6009 0,2.6009 0,0 3.3771,0 3.3771,0 0,0 0,-2.6009 0,-2.6009 0,0 -3.3609,0 -3.3609,0 m 8.1273,1.5829 c 0,0 2.1808,0 2.1808,0 0,0 0,-0.5488 0,-0.5488 0,0 -2.1808,0 -2.1808,0 0,0 0,0.5488 0,0.5488 M 2.6982,8.8969 c 0,0 0.614,0 0.614,0 0,0 0,0.7918 0,0.7918 0,0 0.7918,0 0.7918,0 0,0 0,0.6133 0,0.6133 0,0 -0.7918,0 -0.7918,0 0,0 0,0.792 0,0.792 0,0 -0.614,0 -0.614,0 0,0 0,-0.792 0,-0.792 0,0 -0.7917,0 -0.7917,0 0,0 0,-0.6133 0,-0.6133 0,0 0.7917,0 0.7917,0 0,0 0,-0.7918 0,-0.7918 M 4.9526,2.581 V 1.5889 C 7.1303,1.238 8.8391,2.581 8.8391,2.581 Z m -0.5637,0 H 1.7905 c 0,0 1.0774,-0.5623 2.5984,-0.8885 z m 8.3101,0.8928 c 0,0 -0.455,-1.1224 -3.3936,-1.0781 0,0 -2.9268,-3.27222 -8.84868,0.4102 0,0 0.1297,0.7172 -0.35806,0.7172 -0.1006,0.5391 -0.2038,1.2465 0.1284,1.6165 0.72509,0 0.79524,0 0.80094,0 C 1.01,5.0526 1,4.9634 1,4.8711 1,4.2011 1.4878,3.6578 2.0895,3.6578 c 0.6016,0 1.0894,0.5433 1.0894,1.2133 0,0.092 -0.01,0.1819 -0.028,0.2685 h 0.1696 5.2873 0.708 c -0.019,-0.087 -0.025,-0.1762 -0.025,-0.2685 0,-0.67 0.4878,-1.2133 1.0892,-1.2133 0.82,0 1.289,0.9286 1.206,1.474 L 12.7,5.0036 c -0.17,-1.1175 0,-1.5298 0,-1.5298 z m -2.321,1.7476 c -0.179,0 -0.324,-0.1614 -0.324,-0.3601 0,-0.1987 0.145,-0.3609 0.324,-0.3609 0.177,0 0.324,0.1614 0.324,0.3609 0,0.1987 -0.147,0.3601 -0.324,0.3601 z m 0,-1.2966 c -0.4646,0 -0.8416,0.4193 -0.8416,0.9372 0,0.5165 0.377,0.9365 0.8416,0.9365 0.464,0 0.958,-0.42 0.958,-0.9365 0,-0.5186 -0.493,-0.9372 -0.958,-0.9372 z M 2.0682,5.2214 c -0.1784,0 -0.3239,-0.1614 -0.3239,-0.3601 0,-0.1987 0.1455,-0.3609 0.3239,-0.3609 0.1784,0 0.3239,0.1614 0.3239,0.3609 0,0.1987 -0.1455,0.3601 -0.3239,0.3601 z m 0,-1.2966 c -0.4644,0 -0.8408,0.4193 -0.8408,0.9372 0,0.5165 0.3764,0.9365 0.8408,0.9365 0.465,0 0.8415,-0.42 0.8415,-0.9365 C 2.909,4.3434 2.5332,3.9248 2.0682,3.9248 Z" style="fill:#ffffff;fill-opacity:1;stroke-width:0.66769" id="path949" /></svg>