<?xml version="1.0" encoding="UTF-8" standalone="no"?><svg xmlns:dc="http://purl.org/dc/elements/1.1/" xmlns:cc="http://creativecommons.org/ns#" xmlns:rdf="http://www.w3.org/1999/02/22-rdf-syntax-ns#" xmlns:svg="http://www.w3.org/2000/svg" xmlns="http://www.w3.org/2000/svg" width="48" height="48" viewBox="0 0 48 48.000001" id="svg69016" version="1.1"><defs id="defs69018" /><path d="M 46.843,11.7 C 47.431,11.1 48.375,9.1 47.798,8.6 47.176,8 45.323,9 44.801,9.6 l -7.99,8 C 36.223,18.1 34.113,16 34.702,15.4 L 42.693,7.5 C 43.213,6.9 44.158,4.9 43.58,4.3 42.992,3.8 41.16,4.8 40.519,5.4 l -7.925,7.9 c -0.589,0.6 -2.697,-1.5 -2.108,-2.1 l 7.922,-7.9 c 0.589,-0.6 1.533,-2.6 0.956,-3.2 -0.589,-0.6 -2.42,0.5 -2.997,1.1 l -9.133,9.1 c -0.922,1 -1.055,4.9 -0.944,7.5 L 23.315,20.7 3.3183,0.7 C 2.4297,1.5 2.0081,2.1 1.4876,3.2 1.0096,3.9 0.85442,4.5 0.59896,5.3 0.26522,6.3 0.21029,6.9 0.15535,8 c 0,0.9 0,1.4 0.16618,2.3 0.22112,1.1 0.46559,1.8 0.99847,2.8 0.5768,1.2 1.0548,1.9 2.0533,2.8 l 10.4657,10.5 3.628,-3.7 1.942,2 -18.55458,18.6 c -1.10972,1 -1.10972,2.8 0,3.8 1.04238,1.1 2.85258,1.1 3.96098,0 L 23.315,28.6 41.939,47.2 c 1.053,1 2.796,1 3.905,-0.1 1.067,-1 1.067,-2.7 0,-3.8 l -18.61,-18.6 2.962,-3 c 2.064,0.1 6.66,-0.1 7.58,-0.9 z" style="fill:#ffffff;fill-opacity:1;fill-rule:evenodd;stroke:none" id="path43442" /></svg>