<?xml version="1.0" encoding="UTF-8" standalone="no"?><svg xmlns:dc="http://purl.org/dc/elements/1.1/" xmlns:cc="http://creativecommons.org/ns#" xmlns:rdf="http://www.w3.org/1999/02/22-rdf-syntax-ns#" xmlns:svg="http://www.w3.org/2000/svg" xmlns="http://www.w3.org/2000/svg" width="64" height="64" viewBox="0 0 16.93333 16.93333" version="1.1" id="svg7716"><defs id="defs7710" /><path id="path5476" style="fill:#ffffff;fill-opacity:1;fill-rule:nonzero;stroke:none;stroke-width:4.99056" d="m 14.951,10.545 -3.69,-1.6199 v -1.476 l 3.69,-1.6199 z m -9.0899,0.02 H 4.0261 V 5.7932 h 6.6409 v 1.9079 0.954 1.9079 H 8.7773 l 2.1777,5.742 c 0,0.234 0,0.486 -0.27,0.576 0,0 -0.18,0 -0.18,0 -0.18,0 -0.36,-0.18 -0.432,-0.288 L 7.7874,10.527 H 6.8151 l -2.304,6.066 c 0,0.18 -0.234,0.288 -0.413,0.288 0,0 -0.18,0 -0.18,0 -0.234,0 -0.36,-0.342 -0.27,-0.576 z m -1.44,-10.58345 c 1.404,0 2.5563,1.15195 2.5563,2.55585 0,1.4039 -1.1523,2.5379 -2.5563,2.5379 -1.403,0 -2.537,-1.134 -2.537,-2.5379 0,-1.4039 1.134,-2.55585 2.537,-2.55585 M 10.181,5.0733 c -1.4037,0 -2.5556,-1.134 -2.5556,-2.5379 0,-1.4039 1.1519,-2.55585 2.5556,-2.55585 1.404,0 2.538,1.15195 2.538,2.55585 0,1.4039 -1.134,2.5379 -2.538,2.5379" /></svg>