<?xml version="1.0" encoding="UTF-8" standalone="no"?><svg xmlns:dc="http://purl.org/dc/elements/1.1/" xmlns:cc="http://creativecommons.org/ns#" xmlns:rdf="http://www.w3.org/1999/02/22-rdf-syntax-ns#" xmlns:svg="http://www.w3.org/2000/svg" xmlns="http://www.w3.org/2000/svg" version="1.1" id="ico" x="0px" y="0px" viewBox="0 0 19.936 19.936" xml:space="preserve" width="19.936" height="19.936"><defs id="defs39" /><path id="path2" d="m 13.981,19.372 c -0.564,-0.689 -2.004,-2.533 -2.433,-4.002 -0.54,-1.841 -0.563,-3.275 -0.563,-3.275 h 0.245 v -0.791 h -0.318 c 0,0 -0.318,-2.955 -0.393,-3.96 C 10.444,6.338 10.373,5.629 10.373,5.629 L 10.494,5.438 V 4.883 L 10.423,4.666 V 4.11 L 10.541,3.959 V 3.362 L 10.238,3.095 10.033,0 H 9.903 L 9.698,3.095 9.392,3.362 V 3.959 L 9.514,4.11 V 4.666 L 9.443,4.883 v 0.555 l 0.123,0.191 c 0,0 -0.073,0.709 -0.148,1.715 -0.072,1.006 -0.391,3.96 -0.391,3.96 h -0.32 v 0.791 H 8.95 c 0,0 -0.021,1.436 -0.561,3.275 -0.434,1.469 -1.867,3.312 -2.435,4.002 h -1.29 v 0.564 h 10.607 v -0.564 c 10e-4,0 -1.29,0 -1.29,0 z m -3.693,-6.195 h 0.276 c 0.01,0.08 0.02,0.189 0.05,0.322 h -0.322 z m 0,0.615 h 0.362 c 0.03,0.188 0.06,0.396 0.09,0.607 h -0.457 z m 0,0.903 h 0.505 c 0.03,0.211 0.07,0.42 0.107,0.604 h -0.612 z m 0,0.898 h 0.675 c 0,0 0,0.02 0,0.02 0.05,0.201 0.101,0.4 0.152,0.586 h -0.833 z m 0,0.902 h 0.923 c 0.12,0.373 0.217,0.631 0.217,0.631 0,0 -0.367,-0.178 -0.627,-0.225 -0.255,-0.05 -0.513,-0.07 -0.513,-0.07 z M 9.373,13.177 h 0.274 v 0.322 h -0.32 c 0.017,-0.135 0.036,-0.244 0.046,-0.322 z m -0.088,0.615 h 0.362 v 0.607 H 9.189 c 0.035,-0.21 0.068,-0.419 0.096,-0.607 z m -0.143,0.903 h 0.506 v 0.604 H 9.033 c 0.038,-0.185 0.075,-0.394 0.109,-0.604 z m -0.173,0.921 c 0,0 0,-0.02 0,-0.02 h 0.676 v 0.609 H 8.812 C 8.868,16.017 8.92,15.818 8.969,15.616 Z m -0.245,0.879 h 0.925 v 0.34 c 0,0 -0.26,0.02 -0.519,0.07 -0.254,0.05 -0.62,0.225 -0.62,0.225 0,0 0.094,-0.258 0.214,-0.631 z M 9.7,17.322 v 2.051 H 6.702 C 7.174,18.751 8.306,17.48 9.7,17.322 Z m 0.533,2.05 v -2.051 c 1.394,0.158 2.526,1.43 3.002,2.051 z" style="fill:#ffffff;fill-opacity:1" /></svg>