<?xml version="1.0" encoding="UTF-8" standalone="no"?><svg xmlns:dc="http://purl.org/dc/elements/1.1/" xmlns:cc="http://creativecommons.org/ns#" xmlns:rdf="http://www.w3.org/1999/02/22-rdf-syntax-ns#" xmlns:svg="http://www.w3.org/2000/svg" xmlns="http://www.w3.org/2000/svg" version="1.1" id="Layer_1" x="0px" y="0px" viewBox="0 0 512 512" style="enable-background:new 0 0 512 512;" xml:space="preserve"><defs id="defs41"></defs><path d="m 510.728,345.181 -16.422,-44.703 c -2.362,-6.435 -7.72,-11.281 -14.338,-12.963 -6.607,-1.673 -13.595,-0.01 -18.65,4.405 -0.109,0.088 -0.496,0.396 -1.102,0.833 V 119.916 c 0,-6.277 -3.774,-11.937 -9.566,-14.35 L 261.98,26.949 c -3.828,-1.595 -8.132,-1.595 -11.959,0 l -188.67,78.617 c -5.794,2.414 -9.566,8.074 -9.566,14.35 v 172.843 c -0.607,-0.438 -0.975,-0.732 -1.036,-0.781 -5.122,-4.451 -12.101,-6.115 -18.702,-4.443 -6.629,1.685 -11.994,6.523 -14.351,12.942 L 1.272,345.181 c -3.941,10.729 1.581,22.664 12.311,26.605 10.729,3.944 22.664,-1.582 26.604,-12.31 l 8.128,-22.125 c 1.656,0.596 3.324,1.136 4.998,1.618 10.76,3.1 26.279,5.007 43.412,-1.009 l 8.384,24.684 c 2.857,8.413 10.744,14.065 19.627,14.065 2.269,0 4.514,-0.371 6.668,-1.104 10.821,-3.676 16.637,-15.472 12.961,-26.293 l -14.769,-43.489 1.802,-11.269 5.137,2.867 c 9.981,5.566 22.631,1.974 28.199,-8.002 5.569,-9.981 1.981,-22.632 -7.999,-28.202 l -31.021,-17.311 c -5.901,-3.291 -13.055,-3.499 -19.147,-0.548 -6.084,2.951 -10.353,8.699 -11.422,15.376 l -5.94,37.124 c -2.094,1.249 -4.201,2.23 -6.326,2.965 V 191.91 h 119.323 v 263.244 h -78.718 c -8.586,0 -15.546,6.961 -15.546,15.547 0,8.586 6.961,15.547 15.546,15.547 h 265.035 c 8.586,0 15.547,-6.961 15.547,-15.547 0,-8.586 -6.961,-15.547 -15.547,-15.547 H 309.8 V 191.91 h 119.323 v 106.912 c -2.127,-0.735 -4.234,-1.716 -6.326,-2.965 l -5.94,-37.123 c -1.068,-6.678 -5.337,-12.426 -11.425,-15.379 -6.082,-2.948 -13.238,-2.742 -19.144,0.551 l -31.02,17.309 c -9.98,5.571 -13.568,18.222 -7.999,28.203 5.57,9.977 18.219,13.567 28.202,7.999 l 5.133,-2.865 1.802,11.269 -14.769,43.488 c -3.676,10.822 2.138,22.618 12.961,26.294 2.157,0.733 4.401,1.104 6.668,1.104 8.881,0 16.77,-5.653 19.627,-14.065 l 8.384,-24.684 c 17.135,6.019 32.655,4.108 43.412,1.01 1.674,-0.482 3.343,-1.021 4.998,-1.618 l 8.127,22.124 c 1.909,5.198 5.726,9.34 10.751,11.666 5.024,2.325 10.654,2.555 15.855,0.645 10.727,-3.94 16.248,-15.876 12.308,-26.604 z M 278.707,455.154 h -45.412 v -25.849 h 45.412 z m 0,-56.942 h -45.412 v -30.786 h 45.412 z m 0,-61.879 h -45.412 v -30.786 h 45.412 z m 0,-61.88 h -45.412 v -30.786 h 45.412 z m 0,-61.879 H 233.295 V 191.91 h 45.412 z M 429.123,160.817 H 82.878 v -16.338 h 346.245 z" id="path2" style="fill:#ffffff;fill-opacity:1" /></svg>