<?xml version="1.0" encoding="UTF-8" standalone="no"?><svg xmlns:dc="http://purl.org/dc/elements/1.1/" xmlns:cc="http://creativecommons.org/ns#" xmlns:rdf="http://www.w3.org/1999/02/22-rdf-syntax-ns#" xmlns:svg="http://www.w3.org/2000/svg" xmlns="http://www.w3.org/2000/svg" version="1.1" id="ico" x="0px" y="0px" width="124.12" height="124.12" viewBox="0 0 124.12 124.12" xml:space="preserve"><defs id="defs43" /><path d="m 30.541,18.194 -0.2,2.5 c -0.1,1.3 0.4,2.5 1.301,3.4 l 11.699,11.699 c 0.301,0.301 0.801,0.301 1.101,0 2.399,-2.399 6.2,-2.399 8.6,0 l 3.9,3.9 -4.8,4.8 -3.801,3.8 -3.8,3.801 -4.8,4.8 -3.9,-3.9 c -2.399,-2.399 -2.399,-6.2 0,-8.6 0.301,-0.3 0.301,-0.8 0,-1.101 l -11.8,-11.699 c -0.899,-0.9 -2.1,-1.4 -3.399,-1.301 l -2.5,0.2 c -1,0.101 -1.9,-0.3 -2.601,-1.1 L 0.742,11.193 c -1,-1.2004 -0.9,-3.0004 0.2,-4.1004 l 3.1,-3.101 3.1,-3.09999 c 1.1,-1.101 2.8,-1.2 4.1,-0.2 l 18.2,14.80039 c 0.7,0.802 1.099,1.702 1.099,2.702 z m 14.415,45.931 17.2,-17.1 2.8,-2.8 c 1.3,-1.3 1.8,-3.1 1.3,-4.8 -0.8,-3 -1.1,-6.2 -0.8,-9.5 0.3,-3.7 1.3,-7.3 3,-10.6 1.6,-3.2 3.9,-6.1 6.6,-8.5 2.7,-2.4005 5.9,-4.3005 9.301,-5.5005 4.5,-1.6 9.3,-2 14,-1.3 2.403,0.4 3.403,3.4 1.6,5.1 l -11.7,11.7005 c -4.7,4.7 -5,12.7 -0.3,17.4 2.4,2.4 5.5,3.5 8.6,3.5 3.101,0 6.203,-1.2 8.603,-3.6 l 12,-11.8 c 0.6,-0.6 1.4,-0.9 2.1,-0.9 1.4,0 2.8,1 3,2.6 0.2,1.3 0.3,2.6 0.3,3.9 0.3,14.2 -11.6,27.6 -25.901,28.9 -0.9,0.1 -1.8,0.1 -2.7,0.1 -2.5,0 -4.8,-0.3 -7.1,-0.9 -1.801,-0.4 -3.601,0.1 -4.9,1.4 l -2.7,2.7 -4.8,4.8 -7.1,7.101 -5.2,5.199 -38.8,38.805 c -2.4,2.39 -5.5,3.6 -8.601,3.6 -3.1,0 -6.1996,-1.2 -8.5996,-3.6 -4.7,-4.7 -4.7,-12.4 0,-17.11 z M 103.34,120.59 69.341,86.595 86.442,69.495 120.54,103.49 c 4.7,4.7 4.7,12.4 0,17.1 -4.8,4.7 -12.4,4.7 -17.2,0 z" style="fill:#ffffff;fill-opacity:1" id="path6" /></svg>