<?xml version="1.0" encoding="UTF-8" standalone="no"?><svg xmlns:dc="http://purl.org/dc/elements/1.1/" xmlns:cc="http://creativecommons.org/ns#" xmlns:rdf="http://www.w3.org/1999/02/22-rdf-syntax-ns#" xmlns:svg="http://www.w3.org/2000/svg" xmlns="http://www.w3.org/2000/svg" viewBox="0 0 38 38" height="38" width="38" xml:space="preserve" id="svg2" version="1.1"><defs id="defs6" /><path d="m 16.28,17.87 c 1.895,0 3.545,0 5.439,0 0.473,0 0.945,0.472 1.418,0.711 l 1.894,2.577 c 0.231,0.475 0.474,0.705 0.474,1.178 v 2.349 c 0,0.94 -1.894,0.94 -1.894,0 v -2.586 l -2.135,-1.875 v 5.401 l 2.135,5.637 1.651,-4.465 h 1.664 l -4.262,10.104 c -0.472,1.172 -2.365,1.408 -3.07,0.703 0.231,-0.237 0.947,-0.471 1.179,-0.94 l 1.649,-3.761 -3.544,-6.338 -3.312,6.338 1.661,3.761 c 0.23,0.469 0.948,0.703 1.177,0.94 -0.703,0.705 -2.598,0.469 -3.068,-0.703 L 11.074,26.797 h 1.421 l 1.891,4.465 2.126,-5.637 v -5.401 l -2.127,1.875 v 2.586 c 0,0.94 -1.891,0.94 -1.891,0 v -2.349 c 0,-0.473 0.243,-0.703 0.474,-1.178 l 1.893,-2.577 C 15.092,18.342 15.806,17.87 16.28,17.87 M 18.878,12 c 1.661,0 2.841,1.172 2.841,2.587 0,1.408 -1.18,2.578 -2.841,2.578 -1.421,0 -2.598,-1.17 -2.598,-2.578 0,-1.415 1.177,-2.587 2.598,-2.587" style="fill:#ffffff;fill-opacity:1;fill-rule:nonzero;stroke:none;stroke-width:0.18231" id="path20" /><path d="m 28.849,16.905 c -0.01,0.04 -0.03,0.07 -0.04,0.106 0.07,0.08 0.106,0.176 0.133,0.272 0,0 0,0.03 0,0.04 0.03,0 0.05,0 0.09,-0.01 0,-0.01 0,-0.03 0,-0.04 -0.04,-0.12 -0.09,-0.241 -0.181,-0.349 m 1.734,-0.935 c 0.03,-0.03 0.05,-0.05 0.05,-0.08 -0.05,-0.08 -0.107,-0.151 -0.157,-0.224 -0.03,0.01 -0.05,0.03 -0.08,0.04 0,0 0,0 0,0 0.05,0.08 0.12,0.169 0.177,0.253 m 0.07,-0.1 c 0,-0.05 -0.04,-0.107 -0.12,-0.202 h -0.01 c 0,0 -0.03,0 -0.03,0.01 0.05,0.07 0.106,0.148 0.156,0.224 0,0 0,-0.01 0,-0.03 m -1.836,1.123 c -0.01,0.05 -0.01,0.09 0,0.138 0.04,0.09 0.08,0.156 0.12,0.17 0,0 0,0 0.01,0 0,0 0,-0.03 0,-0.04 -0.03,-0.09 -0.07,-0.187 -0.133,-0.272 m 0.787,-0.13 c 0.189,-0.15 0.378,-0.325 0.562,-0.493 0.12,-0.107 0.246,-0.227 0.372,-0.335 0.03,-0.01 0.04,-0.04 0.05,-0.05 -0.05,-0.08 -0.12,-0.169 -0.179,-0.253 0,0 0,0 0,0 -0.305,0.151 -0.628,0.336 -0.92,0.532 -0.2,0.12 -0.511,0.409 -0.631,0.646 0.08,0.107 0.148,0.224 0.182,0.35 0,0.01 0,0.03 0,0.04 0.133,-0.05 0.29,-0.195 0.406,-0.3 0.05,-0.05 0.107,-0.09 0.146,-0.134 m 8.418,2.984 c 0,0 0,0 0,0 0,0 0,0 0,0 v 0 m -8.906,-3.528 c 0.12,-0.107 0.229,-0.188 0.288,-0.225 0.09,-0.05 0.184,-0.12 0.28,-0.177 0.03,-0.172 -0.03,-0.355 -0.164,-0.478 l -0.3,-0.262 0.03,0.213 -0.21,-0.255 c -0.07,-0.08 -0.134,-0.182 -0.192,-0.28 l -0.552,-0.48 c 0.09,0.246 0.22,0.475 0.353,0.714 0.04,0.08 0.08,0.152 0.12,0.229 l 0.08,0.151 -0.171,-0.01 c -0.174,-0.01 -0.34,-0.07 -0.498,-0.12 -0.155,-0.05 -0.302,-0.09 -0.454,-0.106 l 0.254,0.221 c 0.07,0.04 0.144,0.08 0.22,0.12 0.08,0.04 0.145,0.08 0.217,0.12 l 0.2,0.12 -0.181,0.04 0.41,0.356 c 0.08,0.07 0.167,0.106 0.259,0.12 m 0.579,-0.413 c 0.206,-0.134 0.422,-0.248 0.633,-0.352 -0.12,-0.178 -0.249,-0.362 -0.36,-0.552 -0.107,-0.172 -0.18,-0.354 -0.256,-0.53 -0.09,-0.206 -0.184,-0.42 -0.308,-0.61 0,0 0,0 0,0 -0.307,0.234 -0.259,0.738 -0.188,1.194 l 0.01,0.107 0.302,0.263 c 0.14,0.12 0.196,0.306 0.162,0.477 m -0.918,-1.209 c -0.151,-0.264 -0.293,-0.515 -0.556,-0.643 0.03,0.107 0.05,0.212 0.09,0.313 l 0.552,0.48 c -0.03,-0.05 -0.07,-0.106 -0.09,-0.15 m -1.099,0.516 c 0.107,0.09 0.215,0.16 0.332,0.228 L 27.71,15.236 c -0.03,0 -0.05,0 -0.08,0 m 1.459,1.092 c -0.09,-0.01 -0.183,-0.05 -0.259,-0.12 l -0.411,-0.356 h -0.04 c -0.293,0.07 -0.588,0.07 -0.916,0.05 0.107,0.07 0.242,0.149 0.38,0.229 0.292,0.17 0.63,0.365 0.874,0.605 0.09,-0.157 0.24,-0.309 0.373,-0.429 M 27.627,15.23 c 0,0 0,0 0,0 v 0 c 0,0 0,0 0,0 m 3.015,0.95 c -0.12,0.107 -0.248,0.221 -0.367,0.331 -0.186,0.17 -0.377,0.346 -0.573,0.501 -0.04,0.03 -0.09,0.08 -0.137,0.12 -0.152,0.137 -0.332,0.299 -0.508,0.348 0,0.133 -0.01,0.268 -0.03,0.4 -0.03,0.192 -0.05,0.373 0,0.549 0.09,0.456 0.277,0.884 0.528,1.27 0.397,0.61 1.049,0.914 1.573,1.112 0.155,0.05 0.315,0.106 0.472,0.148 0.227,0.07 0.46,0.133 0.683,0.233 0.54,0.255 0.853,0.813 1.129,1.305 v 0.03 -0.03 C 33.283,22.151 33.12,21.814 32.96,21.487 l -0.08,-0.177 0.107,-0.03 c 0.536,-0.136 1.036,0.623 1.274,0.988 l 0.03,0.04 c 0.368,0.559 0.595,1.02 0.711,1.449 0.481,-0.424 0.04,-1.253 -0.248,-1.802 l -0.159,-0.3 0.287,0.177 c 0.53,0.332 0.677,1.113 0.794,1.741 0.04,0.184 0.07,0.358 0.107,0.507 v 0 C 35.935,24.07 36.035,24 36.091,23.87 36.334,23.324 35.71,21.926 35.19,21.242 l -0.155,-0.204 0.249,0.07 c 0.09,0.03 0.21,0.05 0.324,0.07 0.228,0.03 0.451,0 0.678,-0.08 h 0.03 c 0.679,-0.04 1.346,-0.633 1.707,-1.208 -0.193,0.07 -0.392,0.12 -0.584,0.159 -0.232,0.05 -0.453,0.106 -0.665,0.192 h -0.01 c -0.888,0.197 -1.689,-0.547 -1.993,-0.876 -0.359,-0.391 -0.596,-0.884 -0.824,-1.363 -0.107,-0.225 -0.22,-0.46 -0.34,-0.673 -0.334,-0.587 -0.74,-0.97 -1.238,-1.17 -0.376,-0.149 -0.812,-0.12 -1.234,-0.08 -0.12,0 -0.234,0.01 -0.35,0.03 -0.03,0.04 -0.07,0.07 -0.107,0.107 m -2.457,-1.044 c 0.09,0.03 0.188,0.05 0.282,0.08 -0.01,-0.03 -0.03,-0.04 -0.04,-0.05 -0.18,-0.321 -0.365,-0.653 -0.457,-1.032 L 11.871,0.1227 c -0.03,-0.027 -0.05,-0.04 -0.08,-0.053 0,0 0,0 0,0 -0.09,-0.053 -0.184,-0.067 -0.28,-0.067 -0.129,0 -0.254,0.067 -0.346,0.172 -0.159,0.1826 -0.162,0.4493 -0.02,0.6359 0,0 0,0 0,0 0.02,0.027 0.04,0.053 0.07,0.08 L 27.531,15.08 c 0.03,-0.03 0.07,-0.04 0.107,-0.03 0.205,0 0.397,0.07 0.583,0.12 M 7.5874,15.726 c -0.028,-0.01 -0.056,-0.03 -0.083,-0.04 -0.052,0.07 -0.1053,0.148 -0.1568,0.224 0.013,0.03 0.027,0.05 0.055,0.08 0.059,-0.08 0.1173,-0.17 0.178,-0.254 0,0 0,0 0,0 m 1.3665,1.563 c 0.033,0.01 0.064,0.01 0.089,0.01 0,0 0,-0.03 0.013,-0.04 0.025,-0.09 0.072,-0.187 0.132,-0.272 -0.013,-0.03 -0.021,-0.07 -0.039,-0.107 -0.084,0.107 -0.1483,0.223 -0.1815,0.348 0,0.01 -0.013,0.03 -0.013,0.04 M 7.4754,15.672 h -0.019 c -0.083,0.09 -0.1186,0.154 -0.116,0.201 0,0 0,0.03 0.013,0.03 0.052,-0.08 0.104,-0.15 0.1569,-0.224 -0.013,0 -0.02,0 -0.029,-0.01 m 1.5557,1.646 c 0,0 0.013,0 0.017,0 0.051,-0.01 0.092,-0.07 0.1253,-0.168 0.015,-0.04 0.013,-0.09 0,-0.139 -0.06,0.08 -0.1066,0.175 -0.132,0.271 0,0 0,0.03 -0.013,0.04 M 8.5097,16.259 C 8.215,16.062 7.8937,15.877 7.5874,15.726 c 0,0 0,0 0,0 -0.06,0.08 -0.1187,0.17 -0.178,0.255 0.016,0.01 0.035,0.04 0.056,0.05 0.1267,0.107 0.2527,0.225 0.3733,0.336 0.1832,0.168 0.3728,0.341 0.563,0.493 0.043,0.04 0.093,0.08 0.1458,0.134 0.1174,0.106 0.2788,0.252 0.406,0.3 0,-0.01 0,-0.03 0.013,-0.04 0.033,-0.12 0.097,-0.242 0.1815,-0.348 -0.12,-0.239 -0.4293,-0.52 -0.6289,-0.647 M 8.3282,15.928 c 0.096,0.05 0.1901,0.119 0.2817,0.178 0.057,0.04 0.1668,0.12 0.2847,0.224 0.093,-0.01 0.1832,-0.05 0.259,-0.12 l 0.4107,-0.356 -0.1815,-0.04 0.1995,-0.12 c 0.072,-0.04 0.1453,-0.08 0.2188,-0.12 0.075,-0.04 0.1476,-0.08 0.2189,-0.12 l 0.25,-0.217 c -0.15,0.02 -0.2962,0.06 -0.449,0.109 -0.1599,0.05 -0.3255,0.1 -0.4988,0.116 l -0.1715,0.01 0.083,-0.151 c 0.043,-0.08 0.084,-0.153 0.1266,-0.229 0.1342,-0.239 0.2624,-0.47 0.3552,-0.715 l -0.554,0.485 c -0.057,0.09 -0.1186,0.194 -0.1913,0.28 L 8.759,15.397 8.791,15.184 8.49,15.446 c -0.1407,0.127 -0.195,0.31 -0.1618,0.482 M 9.8099,14.07 c -0.2667,0.134 -0.4096,0.382 -0.5607,0.646 -0.028,0.05 -0.059,0.106 -0.088,0.15 l 0.5542,-0.481 c 0.037,-0.107 0.071,-0.207 0.095,-0.315 m 0.5366,1.166 c -0.03,0 -0.05,0 -0.08,0 l -0.25,0.224 c 0.116,-0.07 0.226,-0.138 0.327,-0.224 M 8.8946,16.33 c 0.1336,0.12 0.2782,0.272 0.3728,0.432 0.2444,-0.241 0.5821,-0.437 0.8746,-0.607 0.139,-0.08 0.269,-0.157 0.375,-0.227 -0.323,0 -0.6179,0 -0.9107,-0.07 h -0.043 l -0.4106,0.36 c -0.076,0.07 -0.1663,0.107 -0.2591,0.12 m -0.4033,-0.888 0.3011,-0.262 0.017,-0.12 c 0.071,-0.455 0.1187,-0.96 -0.1877,-1.195 0,0 0,0 0,0 -0.1277,0.201 -0.2211,0.415 -0.3108,0.621 -0.078,0.176 -0.1564,0.358 -0.2556,0.53 -0.1113,0.192 -0.2351,0.374 -0.3599,0.552 0.2095,0.106 0.4242,0.224 0.6335,0.352 -0.033,-0.171 0.021,-0.355 0.1623,-0.478 M 8.281,17.014 C 8.0861,16.859 7.8942,16.683 7.7087,16.513 7.5887,16.406 7.4643,16.287 7.3411,16.182 c -0.044,-0.04 -0.08,-0.07 -0.1066,-0.107 -0.1173,0 -0.2351,-0.01 -0.3505,-0.03 -0.4218,-0.03 -0.8575,-0.07 -1.2349,0.08 C 5.1508,16.335 4.746,16.718 4.4112,17.305 4.2904,17.518 4.1784,17.753 4.0706,17.978 3.8424,18.457 3.6062,18.95 3.2463,19.341 2.943,19.67 2.1414,20.415 1.2542,20.217 H 1.2395 C 1.0267,20.125 0.80674,20.074 0.57341,20.021 0.385,19.977 0.18958,19.933 -4.6126e-6,19.865 0.35583,20.441 1.0208,21.033 1.6964,21.07 h 0.027 c 0.2264,0.08 0.448,0.107 0.6779,0.08 0.1133,-0.01 0.2269,-0.04 0.3232,-0.07 l 0.2492,-0.05 -0.1546,0.203 c -0.5198,0.685 -1.1439,2.083 -0.9006,2.63 0.055,0.125 0.1557,0.194 0.3056,0.21 0.042,-0.152 0.075,-0.325 0.1085,-0.508 0.1179,-0.627 0.2643,-1.408 0.7951,-1.74 l 0.2881,-0.18 -0.1592,0.3 C 2.9643,22.497 2.5251,23.326 3.0051,23.75 3.1242,23.322 3.3499,22.861 3.718,22.301 l 0.025,-0.04 c 0.239,-0.365 0.7373,-1.125 1.2751,-0.988 l 0.108,0.03 -0.087,0.178 c -0.1588,0.328 -0.3232,0.664 -0.4533,1.008 l -0.015,0.04 0.017,-0.04 c 0.276,-0.492 0.588,-1.05 1.1293,-1.305 0.2223,-0.107 0.4556,-0.169 0.682,-0.233 0.1563,-0.04 0.3184,-0.09 0.4725,-0.148 0.5232,-0.198 1.176,-0.502 1.5732,-1.112 0.2502,-0.386 0.4281,-0.812 0.528,-1.27 0.037,-0.176 0.013,-0.357 -0.013,-0.549 -0.019,-0.133 -0.036,-0.267 -0.033,-0.4 -0.1756,-0.05 -0.3558,-0.211 -0.5081,-0.348 -0.051,-0.05 -0.097,-0.09 -0.1376,-0.12 M 26.829,0.172 C 26.739,0.0653 26.611,0.008 26.483,0 c -0.09,0 -0.193,0 -0.28,0.067 0,0 -10e-4,0 0,0 -0.03,0.013 -0.05,0.04 -0.08,0.053 L 9.9755,14.158 c -0.091,0.379 -0.2765,0.711 -0.4567,1.032 -0.013,0.01 -0.023,0.04 -0.033,0.05 0.093,-0.03 0.1855,-0.05 0.2817,-0.08 0.1855,-0.05 0.3775,-0.12 0.5825,-0.12 0.04,0 0.08,0 0.107,0.03 L 26.779,0.884 c 0.03,-0.027 0.05,-0.053 0.07,-0.08 0,0 0,0 0,0 0.14,-0.1867 0.136,-0.4533 -0.03,-0.636" style="fill:#ffffff;fill-opacity:1;fill-rule:nonzero;stroke:none;stroke-width:0.14933" id="path72" /></svg>