<?xml version="1.0" encoding="UTF-8" standalone="no"?><svg xmlns:dc="http://purl.org/dc/elements/1.1/" xmlns:cc="http://creativecommons.org/ns#" xmlns:rdf="http://www.w3.org/1999/02/22-rdf-syntax-ns#" xmlns:svg="http://www.w3.org/2000/svg" xmlns="http://www.w3.org/2000/svg" id="svg55514" version="1.1" viewBox="0 0 10.58333 10.58333" height="40" width="40"><defs id="defs55508" /><path d="M 0,0 C 0,0 0.379,0.149 1.29601,0.129 2.213,0.10699 2.82899,-0.105 2.82899,-0.105 c 0,0 1.58001,1.447 1.85401,1.249 C 4.95599,0.946 4.36,-0.717 4.36,-0.717 c 0,0 0.48599,-0.749 0.03999,-1.641 C 4.054,-3.049 3.72099,-3.354 3.125,-3.80099 2.53101,-4.24699 1.979,-4.82001 1.894,-5.41499 1.80901,-6.009 1.827,-6.605 1.21201,-6.605 c -0.61802,0 -0.66001,0.682 -0.70202,1.21199 -0.04199,0.53 -0.552,1.01902 -1.35899,1.67801 -0.72999,0.595 -0.977,0.99601 -1.104,1.592 -0.15399,0.72101 0.27501,1.422 0.27501,1.422 0,0 -0.51702,1.649 -0.21302,1.82 C -1.494,1.342 0,0 0,0 M -0.103,-3.145 C 0.073,-3.06599 0.623,-3.39799 0.62399,-3.634 0.625,-3.821 0.35001,-3.82001 0.09599,-3.649 -0.158,-3.478 -0.286,-3.229 -0.103,-3.145 M 1.901,-3.64 C 1.886,-3.446 2.38499,-3.04401 2.60699,-3.123 2.784,-3.185 2.688,-3.444 2.44,-3.625 2.194,-3.80299 1.91499,-3.84 1.901,-3.64" style="fill-opacity:1;stroke:none;fill:#ffffff;fill-rule:evenodd" id="path22130" transform="matrix(1.335353,0.000000,0.000000,-1.346570,3.443672,1.565600)" /><path d="M 0,0 C -0.08701,0 -2.66499,-0.278 -2.66499,-0.278" style="stroke-linejoin:miter;stroke-opacity:1;fill-opacity:1;stroke:#ffffff;stroke-linecap:butt;stroke-miterlimit:3.8640001;stroke-dasharray:none;stroke-width:0.2205;fill:#ffffff" id="path22134" transform="matrix(1.335353,0.000000,0.000000,-1.346570,5.073610,10.026600)" /><path d="M 0,0 C -0.08501,0.022 -2.526,0.64101 -2.526,0.64101" style="stroke-linejoin:miter;stroke-opacity:1;fill-opacity:1;stroke:#ffffff;stroke-linecap:butt;stroke-miterlimit:3.8640001;stroke-dasharray:none;stroke-width:0.2205;fill:#ffffff" id="path22138" transform="matrix(1.335353,0.000000,0.000000,-1.346570,5.073610,10.026600)" /><path d="M 0,0 C -0.076,0.04201 -2.153,1.541 -2.153,1.541" style="stroke-linejoin:miter;stroke-opacity:1;fill-opacity:1;stroke:#ffffff;stroke-linecap:butt;stroke-miterlimit:3.8640001;stroke-dasharray:none;stroke-width:0.2205;fill:#ffffff" id="path22142" transform="matrix(1.335353,0.000000,0.000000,-1.346570,5.073610,10.026600)" /><path d="M 0,0 C 0.076,0.04401 2.19701,1.535 2.19701,1.535" style="stroke-linejoin:miter;stroke-opacity:1;fill-opacity:1;stroke:#ffffff;stroke-linecap:butt;stroke-miterlimit:3.8640001;stroke-dasharray:none;stroke-width:0.2205;fill:#ffffff" id="path22146" transform="matrix(1.335353,0.000000,0.000000,-1.346570,5.089079,10.026600)" /><path d="M 0,0 C 0.08501,0.022 2.521,0.66499 2.521,0.66499" style="stroke-linejoin:miter;stroke-opacity:1;fill-opacity:1;stroke:#ffffff;stroke-linecap:butt;stroke-miterlimit:3.8640001;stroke-dasharray:none;stroke-width:0.2205;fill:#ffffff" id="path22150" transform="matrix(1.335353,0.000000,0.000000,-1.346570,5.089079,10.026600)" /><path d="M 0,0 C 0.08701,0 2.631,-0.304 2.631,-0.304" style="stroke-linejoin:miter;stroke-opacity:1;fill-opacity:1;stroke:#ffffff;stroke-linecap:butt;stroke-miterlimit:3.8640001;stroke-dasharray:none;stroke-width:0.2205;fill:#ffffff" id="path22154" transform="matrix(1.335353,0.000000,0.000000,-1.346570,5.089079,10.026600)" /></svg>