<?xml version="1.0" encoding="UTF-8" standalone="no"?><svg xmlns:dc="http://purl.org/dc/elements/1.1/" xmlns:cc="http://creativecommons.org/ns#" xmlns:rdf="http://www.w3.org/1999/02/22-rdf-syntax-ns#" xmlns:svg="http://www.w3.org/2000/svg" xmlns="http://www.w3.org/2000/svg" version="1.1" id="svg2" width="284.4407" height="284.4407" viewBox="0 0 284.4407 284.4407"><defs id="defs6" /><path style="fill:#ffffff;stroke-width:1.2564869;fill-opacity:1" d="m 111.7053,229.5817 c -1.9654,-1.6183 -3.4244,-5.5882 -5.3314,-14.5071 -3.6836,-17.2291 -3.3228,-17.5672 13.6331,-12.769 8.1303,2.3007 11.3023,5.5719 12.3816,12.7688 1.1003,7.3375 -1.0075,11.0989 -7.5302,13.4379 -9.1633,3.2858 -10.3444,3.3818 -13.1531,1.0694 z m -50.4167,-33.139 c -11.40263,-6.2089 -21.53306,-12.0858 -22.51207,-13.0599 -0.97902,-0.9742 -1.7666,-3.353 -1.75022,-5.2863 0.0372,-4.3873 23.43935,-56.4926 27.15022,-60.4505 2.86822,-3.0592 27.51042,-15.4011 46.90107,-23.49019 l 11.4661,-4.78328 7.2378,-22.58964 c 3.9809,-12.42429 8.2919,-23.64361 9.5801,-24.93179 4.1583,-4.15827 11.5075,-2.32446 13.6901,3.41601 0.9262,2.43618 -0.2868,7.68591 -5.7164,24.73921 -11.2273,35.26258 -7.8597,30.45098 -30.196,43.14338 -21.79949,12.3874 -21.55296,12.0377 -16.1415,22.8971 4.7315,9.4947 15.013,16.3465 27.5699,18.3727 l 5.083,0.8202 9.4406,-20.4046 c 5.9177,-12.7903 10.5853,-21.2319 12.5079,-22.6219 2.5917,-1.8735 7.9909,-2.4402 34.8301,-3.6561 28.616,-1.2963 32.0686,-1.2386 34.8476,0.5823 5.525,3.6202 5.2552,11.3964 -0.5024,14.4778 -1.272,0.6808 -13.8195,2.6996 -27.8833,4.4865 -14.0639,1.7868 -25.7991,3.4773 -26.0783,3.7565 -0.2792,0.2792 -3.8387,11.1113 -7.9101,24.0715 -7.8127,24.8701 -9.8318,28.4832 -18.1131,32.4129 -9.1499,4.3419 -32.0812,1.3902 -48.02576,-6.1818 -9.59776,-4.558 -22.07091,-15.2018 -26.82073,-22.8871 -1.41743,-2.2935 -3.01225,-4.1699 -3.54407,-4.1699 -1.51851,0 -9.04911,17.9295 -7.96491,18.9635 0.5333,0.5086 8.03737,4.7194 16.67572,9.3571 8.63834,4.6378 16.41285,9.3177 17.27669,10.3997 4.17682,5.2323 -0.21749,14.1209 -6.91068,13.9787 -1.90043,-0.041 -12.78475,-5.1534 -24.18736,-11.3621 z m 3.14121,-94.0696 C 56.10321,100.4735 49.84966,94.44626 47.26922,85.8335 42.45544,69.76657 59.73913,53.07608 75.72691,58.35252 c 6.06174,2.00057 12.74385,8.85517 14.5682,14.9443 4.87592,16.27436 -9.77722,32.74658 -25.8653,29.07628 z" id="path817" /><path style="opacity:1;fill:#ffffff;fill-opacity:1;stroke:none;stroke-width:1.074996;stroke-linejoin:round;stroke-miterlimit:4;stroke-dasharray:none;stroke-dashoffset:0;stroke-opacity:1;paint-order:markers stroke fill" d="M 28.56938,247.078 H 225.2602 c 4.9963,0 9.0186,4.0223 9.0186,9.0186 v 19.3255 c 0,4.9963 -4.0223,9.0186 -9.0186,9.0186 H 28.56938 c -4.99629,0 -9.01857,-4.0223 -9.01857,-9.0186 v -19.3255 c 0,-4.9963 4.02228,-9.0186 9.01857,-9.0186 z" id="rect819" /><path style="fill:none;stroke:#ffffff;stroke-width:18.2749329;stroke-linecap:round;stroke-linejoin:miter;stroke-miterlimit:4;stroke-dasharray:none;stroke-opacity:1;fill-opacity:1" d="m 62.92586,9.159476 101.35154,16.748784 20.6139,40.79831 70.8602,29.203 V 274.9926" id="path822" /></svg>