<?xml version="1.0" encoding="UTF-8" standalone="no"?><svg xmlns:dc="http://purl.org/dc/elements/1.1/" xmlns:cc="http://creativecommons.org/ns#" xmlns:rdf="http://www.w3.org/1999/02/22-rdf-syntax-ns#" xmlns:svg="http://www.w3.org/2000/svg" xmlns="http://www.w3.org/2000/svg" version="1.1" id="ico" x="0px" y="0px" viewBox="0 0 25.726 25.726" xml:space="preserve" width="25.726" height="25.726"><defs id="defs45"></defs><circle style="fill:#ffffff;fill-opacity:1" cx="3.35" cy="2.813" r="2.813" id="circle2" /><path style="fill:#ffffff;fill-opacity:1" d="m 5.018,11.613 9.561,9.56 C 13.402,21.154 12.227,20.948 11.118,20.506 10.673,20.422 8.883,20.132 8.2,20.815 6.637,22.378 5.209,24.512 4.427,25.294 3.646,26.075 2.537,25.75 1.489,24.702 0.44,23.653 0.139,22.522 0.897,21.764 1.655,21.006 3.813,19.555 5.377,17.991 6.093,17.274 5.721,15.292 5.664,15.012 5.237,13.921 5.038,12.768 5.018,11.613 Z M 22.408,3.782 C 17.759,-0.868 11.649,0.759 7.845,4.564 6.436,5.971 5.551,7.702 5.186,9.516 l 11.485,11.486 c 1.814,-0.365 3.546,-1.248 4.953,-2.656 C 25.43,14.54 27.06,8.433 22.408,3.782 Z" id="path6" /></svg>