<?xml version="1.0" encoding="UTF-8" standalone="no"?><svg xmlns:dc="http://purl.org/dc/elements/1.1/" xmlns:cc="http://creativecommons.org/ns#" xmlns:rdf="http://www.w3.org/1999/02/22-rdf-syntax-ns#" xmlns:svg="http://www.w3.org/2000/svg" xmlns="http://www.w3.org/2000/svg" xml:space="preserve" style="enable-background:new 0 0 512.001 512.001;" viewBox="0 0 512.001 512.001" y="0px" x="0px" id="Layer_1" version="1.1"><defs id="defs45" /><path id="path4" style="stroke-width:1.133057;fill:#ffffff;fill-opacity:1" d="m 413.06,451 h -29.61 l -34.64,-35.74 c -2.82,-2.91 -4.9,-6.17 -6.18,-9.68 -22.25,-60.81 -29.56,-123.56 -21.74,-186.5 0,-0.22 0,-0.43 0,-0.65 0,-0.1 0,-0.1 0,-0.15 0,-0 0,-0 0,-0 0,0 0,-0 0,-0 0,-24.06 -4.24,-125.93 -4.42,-130.209 -0.48,-14.04 -14.98,-25.039 -33.01,-25.039 h -5.1 c -8.83,0 -17.42,-1.828 -24.96,-5.225 4.36,-6.516 5.64,-14.295 2.78,-21.886 L 250.71,21.186 C 244.85,5.595 223.79,-3.375 203.78,1.19 l -2.55,0.583 C 181.21,6.34 169.69,22.74 175.56,38.332 l 5.51,14.674 c 2.14,5.69 6.33,10.632 12.05,14.34 -1.5,5.13 -5.44,9.691 -11.17,12.698 l -12.33,6.475 c -13.69,7.185 -21.56,19.621 -20.55,32.451 l 2.73,34.5 c 0.19,2.4 1.7,4.62 4.14,6.09 1.89,1.14 4.19,1.74 6.54,1.74 0.69,0 1.38,-0.1 2.07,-0.16 l 38.43,-5.88 c 0.18,0.1 0.36,0.2 0.54,0.29 -12,12.79 -22.36,26.52 -30.82,40.91 -8.53,14.5 -12,30.73 -10.05,46.94 0,0 0,0.1 0,0.12 h -0 c 0.7,5.03 1.3,10.27 1.88,15.33 2.37,20.87 4.83,42.46 15.64,61.47 31.48,55.37 41.29,96.84 43.79,109.87 L 191.58,451 h -5.14 c -5.91,0 -10.71,3.73 -10.71,8.34 v 44.32 c 0,4.61 4.8,8.34 10.71,8.34 h 226.62 c 5.91,0 10.7,-3.73 10.7,-8.34 v -44.32 c 0,-4.61 -4.79,-8.34 -10.7,-8.34 z M 235.68,40.549 c 2.55,6.766 -2.45,13.883 -11.14,15.866 l -2.55,0.582 c -4.21,0.96 -8.64,0.586 -12.49,-1.053 -1.93,-0.821 -3.59,-1.908 -4.92,-3.201 l 30,-15.135 z M 197.46,23.914 c 2.1,-2.997 5.58,-5.176 9.78,-6.135 l 2.56,-0.583 c 1.53,-0.35 3.08,-0.517 4.6,-0.517 4.99,0 9.7,1.789 12.8,4.779 l -29.99,15.128 -1.1,-2.942 c -1.24,-3.277 -0.76,-6.733 1.35,-9.73 z m 0.55,88.016 c -6.87,5.35 -10.66,12.48 -10.66,20.05 0,2.93 0.57,5.76 1.64,8.42 l -16.57,2.54 -1.97,-25 c -0.55,-6.96 3.71,-13.7 11.14,-17.59 l 12.33,-6.478 c 9.18,-4.82 15.82,-11.864 19.06,-19.875 1.44,0.131 2.89,0.205 4.34,0.205 3.57,0 7.16,-0.398 10.69,-1.202 l 2.55,-0.582 c 2.7,-0.616 5.24,-1.454 7.61,-2.471 11.8,6.29 25.79,9.701 40.24,9.701 h 5.1 c 6.34,0 11.43,3.867 11.6,8.852 0,0.252 0.27,6.45 0.66,16.05 -3.61,-0.79 -7.65,-0.1 -10.49,2.13 -4.18,3.25 -4.18,8.53 0,11.79 2.83,2.21 4.39,5.14 4.39,8.26 0,6.44 -6.73,11.68 -15,11.68 -8.27,0 -15,-5.24 -15,-11.68 0,-4.61 -4.79,-8.34 -10.71,-8.34 -5.91,0 -10.7,3.74 -10.7,8.34 0,1.63 0.19,3.23 0.53,4.79 -0,0.15 -0,0.3 -0,0.46 0,6.44 -6.73,11.68 -15,11.68 -8.27,0 -15,-5.24 -15,-11.68 0,-3.12 1.56,-6.06 4.39,-8.26 4.18,-3.26 4.18,-8.54 0,-11.8 -4.18,-3.25 -10.96,-3.25 -15.14,0 z m -5.84,91.47 c 8.59,-14.6 19.27,-28.49 31.76,-41.28 0.63,-0.64 1.32,-1.26 2.06,-1.83 10.81,-0.51 20.37,-4.72 26.61,-11.02 6.13,3.65 13.78,5.83 22.07,5.83 8.63,0 16.57,-2.36 22.81,-6.28 0.94,25.2 1.83,51.71 2.02,65.17 -53.5,28.82 -99.3,24.98 -115.95,22.16 -0.29,-11.37 2.65,-22.59 8.62,-32.75 z m 7.59,110.16 c -9.37,-16.48 -11.67,-36.66 -13.89,-56.19 -0.15,-1.33 -0.31,-2.68 -0.46,-4.03 6.05,0.75 13.65,1.35 22.55,1.35 23.12,0 54.84,-4.06 89.86,-20.09 -0.11,1.35 -0.21,2.71 -0.31,4.06 L 221,273.27 c -5.11,2.32 -6.85,7.42 -3.88,11.4 1.99,2.67 5.58,4.16 9.27,4.16 1.83,0 3.67,-0.37 5.37,-1.13 l 64.81,-29.32 c -0.1,3.85 -0.13,7.69 -0.11,11.54 -0.12,0.1 -0.24,0.14 -0.36,0.21 l -29.71,19.54 c -4.51,2.97 -5.08,8.23 -1.27,11.75 2.12,1.95 5.14,2.96 8.19,2.96 2.43,0 4.89,-0.65 6.9,-1.97 l 16.92,-11.13 c 2.33,40.11 10.64,79.87 24.91,118.87 2.01,5.5 5.27,10.6 9.69,15.16 l 24.9,25.68 h -77.48 l -33.68,-21.63 c -0.62,-3.56 -1.85,-9.7 -4.1,-18.07 14.92,-0.53 34.09,-2.36 48.96,-7.67 5.38,-1.91 7.74,-6.86 5.27,-11.05 -2.46,-4.19 -8.82,-6.03 -14.19,-4.11 -13.31,4.75 -32.97,5.99 -44.99,6.28 -0.59,-1.78 -1.21,-3.62 -1.86,-5.51 13.02,-4.05 27.52,-9.67 36.33,-16.53 4.18,-3.26 4.18,-8.54 0,-11.8 -4.18,-3.25 -10.96,-3.25 -15.14,0 -4.89,3.81 -14.71,8.19 -27.19,12.21 -6.77,-17.04 -16.06,-37.15 -28.8,-59.55 z M 245.49,451 h -20.26 l 10.13,-6.51 z m 156.86,44.32 h -205.2 v -27.64 h 205.2 z M 233.71,224.24 c 1.5,0.56 3.08,0.82 4.64,0.82 3.98,0 7.81,-1.74 9.65,-4.72 5.11,-8.26 9.2,-17.72 12.16,-28.11 1.28,-4.49 -2.36,-8.95 -8.13,-9.94 -5.78,-1 -11.49,1.83 -12.77,6.33 -2.61,9.14 -6.15,17.38 -10.55,24.49 -2.56,4.15 -0.33,9.13 5,11.13 z" /></svg>