<?xml version="1.0" encoding="UTF-8" standalone="no"?><svg xmlns:dc="http://purl.org/dc/elements/1.1/" xmlns:cc="http://creativecommons.org/ns#" xmlns:rdf="http://www.w3.org/1999/02/22-rdf-syntax-ns#" xmlns:svg="http://www.w3.org/2000/svg" xmlns="http://www.w3.org/2000/svg" id="svg6185" version="1.1" viewBox="0 0 12.7 12.7" height="48" width="48"><defs id="defs6179" /><path style="display:inline;fill:#ffffff;fill-opacity:1;fill-rule:nonzero;stroke-width:0.14152" d="m 8.0117,0.23825 c -0.046,-0.001 -0.092,0.003 -0.1373,0.0108 -0.079,0.016 -0.155,0.0427 -0.2259,0.0832 -0.077,0.038 -0.1405,0.0904 -0.199,0.15139 -0.053,0.0564 -0.1,0.12184 -0.1352,0.19122 -0.044,0.0828 -0.079,0.17332 -0.091,0.2682 -0.021,0.0974 -0.021,0.19914 0,0.29564 0.011,0.08 0.044,0.1582 0.08,0.2279 0.04,0.073 0.09,0.1349 0.146,0.1917 0.047,0.043 0.097,0.084 0.1556,0.1157 0.07,0.04 0.1492,0.07 0.2304,0.084 0.094,0.02 0.1966,0.019 0.2937,0 C 8.211,1.8411 8.2849,1.8141 8.3552,1.774 8.4222,1.736 8.4899,1.6851 8.5423,1.6283 8.5893,1.5823 8.6273,1.5293 8.66,1.4728 8.695,1.4108 8.721,1.3455 8.735,1.2769 c 0.01,-0.013 0.01,-0.025 0.011,-0.037 0,-0.014 0,-0.029 0.01,-0.043 0.016,-0.098 0.021,-0.19741 0,-0.29353 -0.017,-0.0845 -0.04,-0.1697 -0.081,-0.245 C 8.6369,0.58469 8.5928,0.51685 8.5311,0.45838 8.4843,0.41181 8.4343,0.37186 8.3782,0.34056 8.3057,0.29767 8.2287,0.26825 8.1499,0.25427 8.1043,0.24466 8.058,0.2392 8.0117,0.23825 Z M 5.8832,1.6753 c -0.094,0 -0.1879,0.01 -0.2723,0.04 -0.01,0 -0.024,0.012 -0.038,0.015 -0.013,0.01 -0.024,0.011 -0.035,0.015 -0.027,0.012 -0.057,0.021 -0.08,0.031 -0.082,0.03 -0.1616,0.055 -0.2373,0.079 C 5.097,1.8893 4.9806,1.9243 4.8568,1.9565 4.7437,1.9854 4.6257,2.0132 4.5082,2.044 4.432,2.0651 4.356,2.0881 4.2804,2.1029 4.2156,2.1137 4.1513,2.1198 4.0978,2.152 4.0531,2.1747 4.0229,2.2131 3.9893,2.2507 3.919,2.3338 3.8581,2.4156 3.7991,2.5022 3.72,2.6111 3.6441,2.7252 3.5671,2.839 3.4882,2.9607 3.4088,3.0848 3.33,3.2059 3.262,3.3118 3.1948,3.4173 3.1273,3.5224 c -0.01,0.016 -0.016,0.029 -0.026,0.044 l -2.0847,-0.3035 0.011,0.07 1.9879,0.3683 c 0,0 -0.01,0.01 -0.01,0.01 -0.01,0.013 -0.018,0.026 -0.027,0.037 -0.01,0.013 -0.011,0.024 -0.021,0.034 -0.011,0.01 -0.013,0.018 -0.021,0.028 -0.01,0.01 -0.011,0.011 -0.011,0.016 0,0.01 -0.01,0.011 -0.013,0.016 -0.018,0.028 -0.05,0.051 -0.082,0.066 -0.029,0.016 -0.059,0.024 -0.087,0.032 -0.03,0.01 -0.059,0.011 -0.088,0.024 -0.03,0.01 -0.053,0.019 -0.073,0.033 -0.012,0.01 -0.024,0.016 -0.034,0.024 -0.01,0.011 -0.017,0.021 -0.025,0.034 0,0 -0.01,0.01 -0.01,0.016 -0.01,0 -0.01,0.01 -0.01,0.013 0,0.01 -0.01,0.01 -0.01,0.013 0,0.01 0,0.01 -0.01,0.013 0,0.01 0,0.01 0,0.011 0,0.01 0,0.011 0,0.013 L 0.02067,3.1848 0,3.2866 2.5063,4.364 c 0,0 0,0.01 0.01,0.011 0.01,0.024 0.021,0.049 0.036,0.069 0.015,0.021 0.029,0.04 0.049,0.057 0.018,0.019 0.039,0.034 0.063,0.049 0.013,0.011 0.035,0.019 0.058,0.024 0.021,0.01 0.044,0.013 0.07,0.016 0,0 0.01,0 0.016,0 h 0.026 c 0.013,0 0.032,0 0.047,0 0.029,0 0.056,-0.01 0.082,-0.016 0.032,-0.013 0.067,-0.031 0.097,-0.055 0.033,-0.024 0.059,-0.053 0.085,-0.085 0.024,-0.033 0.043,-0.069 0.067,-0.1072 0.01,-0.021 0.016,-0.042 0.026,-0.063 0.011,-0.021 0.018,-0.044 0.029,-0.065 0.011,-0.016 0.021,-0.034 0.027,-0.051 0.013,-0.024 0.03,-0.046 0.047,-0.069 0.018,-0.029 0.035,-0.059 0.056,-0.089 0.018,-0.026 0.035,-0.054 0.053,-0.082 0.024,-0.031 0.044,-0.063 0.064,-0.097 0,-0.01 0.011,-0.01 0.016,-0.018 l 1.46,0.2733 c 0,0.013 -0.01,0.026 -0.011,0.04 -0.044,0.1056 -0.083,0.2127 -0.1172,0.3204 -0.039,0.1111 -0.065,0.2231 -0.094,0.3371 -0.024,0.1124 -0.04,0.2233 -0.05,0.3373 -0.01,0.093 -0.01,0.1874 0.019,0.276 0.016,0.081 0.052,0.1566 0.094,0.2265 0.085,0.1386 0.1963,0.2548 0.2966,0.3751 0.1138,0.1307 0.223,0.2659 0.3331,0.3988 0.1029,0.1241 0.2119,0.2444 0.3204,0.3664 0.085,0.097 0.1701,0.1939 0.2574,0.2868 0.05,0.052 0.1,0.1051 0.1493,0.1582 0.021,0.021 0.042,0.042 0.053,0.067 0.01,0.016 0.013,0.03 0.013,0.047 0,0.016 0,0.03 0,0.045 0,0.019 -0.01,0.034 -0.01,0.05 -0.01,0.016 -0.01,0.034 -0.016,0.049 -0.01,0.021 -0.013,0.039 -0.018,0.061 -0.016,0.037 -0.027,0.079 -0.038,0.1188 -0.021,0.064 -0.047,0.1323 -0.067,0.1995 -0.03,0.087 -0.057,0.1754 -0.089,0.2641 -0.026,0.08 -0.05,0.1598 -0.079,0.2418 -0.03,0.089 -0.059,0.1775 -0.085,0.2677 -0.01,0.016 -0.011,0.032 -0.016,0.047 H 5.75 c -0.056,0 -0.1111,0 -0.1664,-0.01 -0.1413,0 -0.2826,0 -0.4223,0 -0.1788,0 -0.355,0 -0.5313,0 H 4.1869 3.9413 c -0.038,0 -0.079,0 -0.1203,0 L 3.736,8.8005 c 0.048,0.01 0.091,0.01 0.1381,0.011 0.1024,0.01 0.1985,0.016 0.2987,0.021 0.153,0.013 0.3046,0.027 0.4517,0.038 0.1527,0.013 0.3013,0.028 0.4516,0.04 0.1847,0.016 0.3694,0.033 0.5546,0.05 0.034,0 0.069,0.01 0.1021,0.01 0,0.01 3e-4,0.016 -0.01,0.024 0,0.018 -0.01,0.034 -0.013,0.051 -0.013,0.04 -0.024,0.08 -0.036,0.119 -0.01,0.048 -0.026,0.096 -0.037,0.145 -0.011,0.04 -0.024,0.08 -0.029,0.1201 -0.01,0.031 -0.016,0.063 -0.021,0.095 0,0.019 0,0.035 0,0.052 0,0.034 0,0.069 -0.01,0.1002 0,0.021 -0.01,0.041 -0.019,0.06 -0.01,0.016 -0.011,0.027 -0.016,0.04 -0.01,0.011 -0.011,0.021 -0.021,0.029 -0.01,0.01 -0.013,0.016 -0.016,0.021 -0.01,0.01 -0.013,0.013 -0.016,0.021 -0.01,0.01 -0.01,0.013 -0.01,0.021 0,0.013 0,0.026 0,0.039 v 0.042 c 0,0.024 0,0.047 0,0.068 0,0.02 0.01,0.05 0.01,0.07 0,0.02 0.01,0.05 0.011,0.07 0,0.01 0,0.02 0,0.04 0,0.01 0.01,0.02 0.01,0.03 v 0 c -0.027,0 -0.054,-0.01 -0.082,-0.02 C 5.3748,10.198 5.3161,10.184 5.2603,10.17 5.1227,10.131 4.9817,10.096 4.8409,10.061 4.6681,10.014 4.4898,9.9691 4.3168,9.9257 4.1731,9.889 4.0305,9.8511 3.8821,9.8178 3.8009,9.7966 3.7244,9.7786 3.6418,9.7585 3.6074,9.7479 3.5659,9.7374 3.5252,9.7289 v 0 l 0.047,0.2082 c 0.067,0.021 0.1407,0.043 0.2082,0.063 0.1458,0.05 0.295,0.1 0.4442,0.145 0.2188,0.07 0.4379,0.141 0.6488,0.212 0.214,0.07 0.4225,0.141 0.6307,0.213 0.2487,0.09 0.4982,0.173 0.7443,0.261 0.046,0.02 0.094,0.03 0.141,0.05 0.059,0.02 0.1175,0.04 0.173,0.06 0.1199,0.04 0.2405,0.09 0.3546,0.128 0.296,0.109 0.586,0.216 0.8794,0.325 0.3625,0.135 0.7295,0.275 1.0901,0.412 0.3027,0.114 0.6017,0.226 0.9038,0.341 0.199,0.08 0.4007,0.155 0.6007,0.227 0.05,0.02 0.103,0.04 0.155,0.06 0.02,0 0.03,0 0.04,0.01 0.02,0 0.03,0 0.04,0 0.02,0 0.04,0 0.05,0 0.03,0 0.06,0 0.08,0 h 0.1 c 0.03,0 0.07,0 0.101,-0.01 0.05,0 0.109,-0.01 0.16,-0.02 0.05,-0.01 0.103,-0.02 0.153,-0.04 0.02,0 0.03,-0.02 0.04,-0.03 0,0 0.01,-0.01 0.02,-0.02 0,0 0,0 0,0 0,0 0,0 0,-0.01 v 0 c 0,0 0,0 0,-0.01 0,0 0,0 0,0 0,0 -0.01,0 -0.01,-0.01 0,0 -0.02,0 -0.02,-0.01 -0.01,0 -0.03,0 -0.04,0 -0.03,0 -0.07,0 -0.1,0 -0.05,0 -0.1,0 -0.141,0 -0.04,0 -0.08,0 -0.122,0 -0.04,0 -0.07,0 -0.109,-0.01 -0.03,0 -0.06,0 -0.09,-0.01 -0.03,0 -0.06,-0.01 -0.09,-0.02 C 10.441,12.204 10.289,12.126 10.13,12.059 9.8738,11.905 9.6015,11.802 9.3314,11.693 9.0091,11.567 8.6898,11.434 8.3728,11.301 8.1302,11.2 7.8897,11.098 7.6452,10.998 7.4433,10.913 7.2444,10.828 7.0475,10.741 c -0.029,-0.01 -0.055,-0.02 -0.078,-0.03 v 0 c 0,0 0,-0.01 0,-0.01 0,-0.01 0.01,-0.03 0.01,-0.04 v -0.06 c 0,-0.02 -3e-4,-0.04 -0.01,-0.06 0,-0.02 -0.01,-0.03 -0.019,-0.04 -0.01,-0.01 -0.018,-0.02 -0.031,-0.03 -0.027,-0.02 -0.048,-0.04 -0.067,-0.06 -0.03,-0.03 -0.053,-0.07 -0.076,-0.109 -0.029,-0.04 -0.056,-0.08 -0.091,-0.126 -0.027,-0.04 -0.056,-0.08 -0.087,-0.112 -0.042,-0.04 -0.092,-0.078 -0.1416,-0.1033 -0.03,-0.016 -0.062,-0.029 -0.091,-0.04 -0.019,-0.01 -0.041,-0.016 -0.058,-0.024 -0.013,-0.01 -0.024,-0.01 -0.033,-0.016 -0.011,-0.01 -0.019,-0.011 -0.024,-0.018 -0.01,-0.01 -0.011,-0.016 -0.013,-0.026 0,-0.01 -0.01,-0.011 -0.01,-0.016 0,-0.013 -0.01,-0.026 -0.01,-0.04 0,-0.024 -2e-4,-0.048 0.01,-0.072 0.01,-0.044 0.011,-0.086 0.021,-0.1307 0.013,-0.054 0.026,-0.1085 0.038,-0.1638 0.011,-0.059 0.028,-0.118 0.041,-0.1796 0.016,-0.055 0.032,-0.1096 0.044,-0.1646 0.01,-0.01 0.01,-0.016 0.01,-0.024 L 6.6372,9.07 c 0.065,0.01 0.1227,0.013 0.1876,0.019 0.481,0.047 0.9615,0.086 1.4396,0.1238 0.4717,0.038 0.9384,0.074 1.4067,0.1106 0.4069,0.032 0.8189,0.062 1.2259,0.088 0.296,0.018 0.595,0.033 0.891,0.061 0.06,0.01 0.126,0.013 0.19,0.013 h 0.06 c 0.02,0 0.04,0 0.06,0 0.03,-0.01 0.06,-0.011 0.09,-0.019 0.04,-0.01 0.07,-0.019 0.108,-0.031 0.03,-0.011 0.06,-0.024 0.1,-0.039 0.04,-0.016 0.08,-0.035 0.124,-0.054 0.05,-0.024 0.09,-0.046 0.136,-0.078 0.02,-0.011 0.03,-0.021 0.04,-0.036 0,-0.01 0.01,-0.013 0.01,-0.021 0,0 0,-0.01 0,-0.01 v -0.011 c 0,0 0,0 0,-0.01 0,0 0,0 0,-0.01 0,0 0,-0.01 0,-0.01 0,0 0,-0.01 -0.01,-0.01 0,0 -0.02,-0.01 -0.03,-0.01 -0.02,0 -0.03,-2e-4 -0.04,0 -0.03,0 -0.06,0.011 -0.1,0.019 -0.05,0.013 -0.09,0.024 -0.137,0.034 -0.04,0.011 -0.08,0.016 -0.124,0.021 -0.03,0.01 -0.07,0.011 -0.105,0.013 -0.03,0 -0.06,0.01 -0.08,0.01 -0.03,0 -0.06,0 -0.09,0 C 11.815,9.2275 11.66,9.209 11.498,9.1915 11.205,9.1669 10.924,9.1439 10.64,9.1172 10.288,9.0846 9.9326,9.0487 9.577,9.0127 9.2907,8.9836 8.9947,8.9542 8.7042,8.923 8.4263,8.8952 8.1491,8.8656 7.8686,8.8336 7.8242,8.8283 7.7861,8.823 7.74,8.8203 c 0,0 0,-0.01 0,-0.01 0,-0.01 0,-0.011 0,-0.016 0,-0.013 0.01,-0.024 0.011,-0.036 0,-0.016 0.01,-0.034 0.01,-0.047 0,-0.016 0,-0.029 -0.01,-0.044 0,-0.01 -0.01,-0.021 -0.013,-0.029 C 7.728,8.6283 7.727,8.6273 7.719,8.6253 7.709,8.6153 7.703,8.6143 7.693,8.6093 7.643,8.5913 7.5904,8.5693 7.5436,8.5423 7.4956,8.5153 7.4586,8.4853 7.415,8.4543 7.376,8.4213 7.341,8.3923 7.3001,8.3603 7.2671,8.3363 7.2331,8.3083 7.1943,8.2893 c -0.016,-0.01 -0.029,-0.013 -0.043,-0.019 -0.021,-0.01 -0.045,-0.013 -0.068,-0.013 -0.026,-0.01 -0.05,-0.01 -0.076,-0.01 -0.01,0 -0.013,-0.01 -0.021,-0.01 -0.01,-0.01 -0.013,-0.013 -0.013,-0.024 0,0 0,-0.01 0,-0.01 0,-0.01 -3e-4,-0.011 0,-0.013 0,-0.01 0.01,-0.018 0.011,-0.029 0.01,-0.011 0.01,-0.016 0.011,-0.024 0,-0.011 0,-0.021 0,-0.035 0,-0.021 0,-0.047 0.01,-0.071 0.01,-0.053 0.016,-0.1058 0.027,-0.1582 0.011,-0.065 0.027,-0.128 0.042,-0.1934 0.013,-0.068 0.032,-0.1355 0.05,-0.2008 0.011,-0.03 0.021,-0.061 0.031,-0.09 0.01,-0.036 0.024,-0.07 0.036,-0.105 0.024,-0.059 0.044,-0.1207 0.059,-0.1845 0.013,-0.06 0.024,-0.124 0.03,-0.1849 0,-0.067 0.01,-0.1352 0,-0.2005 0,-0.055 -0.011,-0.108 -0.021,-0.1612 C 7.2455,6.4989 7.2259,6.4349 7.2056,6.3748 7.1611,6.2584 7.1024,6.1483 7.0468,6.0393 6.9791,5.9076 6.9153,5.7761 6.8534,5.644 6.7862,5.5102 6.7182,5.3744 6.6542,5.2395 6.6068,5.1315 6.5563,5.0225 6.5047,4.9149 6.4809,4.8688 6.4571,4.822 6.4515,4.7717 c 0,-0.026 0,-0.052 0,-0.078 0.01,-0.036 0.016,-0.068 0.029,-0.1016 0.01,-0.031 0.027,-0.061 0.042,-0.091 0.013,-0.024 0.027,-0.047 0.037,-0.07 0.011,-0.01 0.016,-0.016 0.019,-0.024 0,-0.01 0.01,-0.01 0.01,-0.011 0.021,-0.019 0.036,-0.039 0.056,-0.057 C 6.7711,4.205 6.91,4.0764 7.0407,3.9462 7.1699,3.8258 7.2969,3.7033 7.4188,3.5787 7.5339,3.4655 7.6395,3.3499 7.7392,3.2223 7.8033,3.1385 7.8649,3.0477 7.912,2.9504 7.933,2.8974 7.956,2.845 7.968,2.7882 c 0.01,-0.036 0.016,-0.074 0.011,-0.1096 0,-0.013 0,-0.032 0,-0.046 0,-0.015 0,-0.03 -0.01,-0.044 0,-0.028 0,-0.053 -0.01,-0.081 C 7.949,2.4546 7.948,2.4048 7.94,2.3515 7.93,2.3095 7.927,2.2675 7.924,2.2254 c 0,-0.019 0,-0.039 -0.01,-0.057 0,-0.01 0,-0.011 0,-0.016 L 7.0765,1.8144 C 7.0209,1.804 6.9645,1.7911 6.9095,1.7808 6.8008,1.7604 6.6955,1.7411 6.5912,1.727 6.4579,1.7047 6.3232,1.6904 6.1917,1.6821 6.0885,1.6737 5.9859,1.6702 5.8832,1.6753 Z m -1.3565,1.092 c 0.099,0 0.2027,0 0.3019,0 0.088,0 0.1783,0.01 0.2662,0.01 0.029,0 0.063,0 0.091,0.01 0.013,0 0.035,-2e-4 0.05,0 0,0.035 0,0.073 -0.01,0.1101 0,0.07 -0.013,0.1413 -0.019,0.2135 -0.011,0.086 -0.019,0.1744 -0.032,0.2609 -0.01,0.07 -0.021,0.1386 -0.032,0.2072 -0.011,0.062 -0.024,0.1227 -0.041,0.1825 -0.01,0.01 -0.011,0.016 -0.011,0.024 L 5.0675,3.8499 3.6197,3.6375 c 0.011,-0.011 0.016,-0.021 0.026,-0.032 0.053,-0.078 0.1026,-0.1562 0.1587,-0.2326 0.047,-0.071 0.096,-0.141 0.14,-0.2104 0.044,-0.059 0.085,-0.1153 0.123,-0.174 0.027,-0.037 0.05,-0.073 0.074,-0.1061 0.019,-0.024 0.03,-0.045 0.045,-0.066 0,0 0,-0.01 0.01,-0.01 0,-0.01 0,-0.01 0.01,-0.01 0.01,-0.01 0.019,-0.01 0.029,-0.013 0.016,-0.01 0.037,-0.01 0.057,-0.011 0.076,-0.013 0.1604,-0.016 0.2403,-0.016 z" id="path560-8" /></svg>