<?xml version="1.0" encoding="UTF-8" standalone="no"?><svg xmlns:dc="http://purl.org/dc/elements/1.1/" xmlns:cc="http://creativecommons.org/ns#" xmlns:rdf="http://www.w3.org/1999/02/22-rdf-syntax-ns#" xmlns:svg="http://www.w3.org/2000/svg" xmlns="http://www.w3.org/2000/svg" height="197.21" width="197.21" xml:space="preserve" viewBox="0 0 197.21 197.21" y="0px" x="0px" id="ico" version="1.1"><defs id="defs47"></defs><path style="fill:#ffffff;fill-opacity:1" d="M 189.71,145.02 H 7.5 c -4.142,0 -7.5,3.36 -7.5,7.5 0,4.14 3.358,7.5 7.5,7.5 h 182.21 c 4.14,0 7.5,-3.36 7.5,-7.5 0,-4.14 -3.36,-7.5 -7.5,-7.5 z" id="path2" /><rect style="fill:#ffffff;fill-opacity:1" x="80.382" y="91.103" width="36.441" height="15" id="rect4" /><rect style="fill:#ffffff;fill-opacity:1" x="7.5" y="91.103" width="36.441" height="15" id="rect6" /><path style="fill:#ffffff;fill-opacity:1" d="m 7.5,52.185 h 182.21 c 4.14,0 7.5,-3.357 7.5,-7.5 0,-4.143 -3.36,-7.5 -7.5,-7.5 H 7.5 c -4.142,0 -7.5,3.357 -7.5,7.5 0,4.143 3.358,7.5 7.5,7.5 z" id="path8" /><rect style="fill:#ffffff;fill-opacity:1" x="153.26" y="91.103" width="36.441" height="15" id="rect10" /></svg>