<?xml version="1.0" encoding="UTF-8" standalone="no"?><svg xmlns:dc="http://purl.org/dc/elements/1.1/" xmlns:cc="http://creativecommons.org/ns#" xmlns:rdf="http://www.w3.org/1999/02/22-rdf-syntax-ns#" xmlns:svg="http://www.w3.org/2000/svg" xmlns="http://www.w3.org/2000/svg" id="svg5030" version="1.1" viewBox="0 0 10.58333 10.58333" height="40" width="40"><defs id="defs5024" /><g style="display:inline" transform="translate(0,-286.4167)" id="layer1"><path id="path834" d="m 2.3688959,290.93738 c -0.2052014,0 -0.4056323,0.10694 -0.5755177,0.25237 -0.1698854,0.14534 -0.310133,0.33257 -0.3658149,0.53448 -0.2576162,0.93409 -0.3782945,2.08428 -0.386279,3.08301 -0.00401,0.49936 0.02032,0.96042 0.071273,1.33891 0.048651,0.3503 0.1051495,0.77515 0.5593265,0.85422 h 3.7040539 3.7040534 c 0.4541776,-0.079 0.5106747,-0.50392 0.5593272,-0.85422 0.050954,-0.37849 0.075265,-0.83955 0.071273,-1.33891 -0.00798,-0.99873 -0.1286627,-2.14892 -0.3862793,-3.08301 -0.055681,-0.20191 -0.1959289,-0.38912 -0.3658144,-0.53448 -0.1698858,-0.14532 -0.3703167,-0.25237 -0.5755178,-0.25237 H 5.3759372 Z m 0,0.24687 h 0.8308159 v 4.86585 H 1.3494295 c -0.043403,-0.35129 -0.06501,-0.77833 -0.061315,-1.24079 0.00783,-0.9802 0.1284247,-2.11663 0.377419,-3.01946 0.036595,-0.13263 0.1492041,-0.29344 0.2883472,-0.41252 0.1391435,-0.11906 0.3038671,-0.19308 0.4150152,-0.19308 z m 1.071765,0 h 1.8148417 v 4.86585 H 3.4406609 Z m 2.0557126,0 h 1.8148414 v 4.86585 H 5.4963735 Z m 2.0557908,0 h 0.8308159 c 0.1111477,0 0.2758726,0.0742 0.4150157,0.19308 0.1391419,0.11908 0.251749,0.27982 0.2883467,0.41252 0.2489934,0.90283 0.3695831,2.03926 0.3774189,3.01946 0.0037,0.46246 -0.017909,0.8895 -0.061315,1.24079 H 7.5521643 Z" style="color:#000000;font-style:normal;font-variant:normal;font-weight:normal;font-stretch:normal;font-size:medium;line-height:normal;font-family:sans-serif;font-variant-ligatures:normal;font-variant-position:normal;font-variant-caps:normal;font-variant-numeric:normal;font-variant-alternates:normal;font-feature-settings:normal;text-indent:0;text-align:start;text-decoration:none;text-decoration-line:none;text-decoration-style:solid;text-decoration-color:#000000;letter-spacing:normal;word-spacing:normal;text-transform:none;writing-mode:lr-tb;direction:ltr;text-orientation:mixed;dominant-baseline:auto;baseline-shift:baseline;text-anchor:start;white-space:normal;shape-padding:0;clip-rule:nonzero;display:inline;overflow:visible;visibility:visible;opacity:1;isolation:auto;mix-blend-mode:normal;color-interpolation:sRGB;color-interpolation-filters:linearRGB;solid-color:#000000;solid-opacity:1;vector-effect:none;fill:#ffffff;fill-opacity:1;fill-rule:nonzero;stroke:none;stroke-width:0.2468925;stroke-linecap:butt;stroke-linejoin:miter;stroke-miterlimit:4;stroke-dasharray:none;stroke-dashoffset:0;stroke-opacity:1;color-rendering:auto;image-rendering:auto;shape-rendering:auto;text-rendering:auto;enable-background:accumulate" /><path id="path858" d="m 6.6501483,286.41594 -4.8053898,1.59267 0.00258,0.61288 3.2302929,-1.07125 v 3.62613 h 0.5818762 v -3.81889 l 2.8380726,-0.94102 z" style="color:#000000;font-style:normal;font-variant:normal;font-weight:normal;font-stretch:normal;font-size:medium;line-height:normal;font-family:sans-serif;font-variant-ligatures:normal;font-variant-position:normal;font-variant-caps:normal;font-variant-numeric:normal;font-variant-alternates:normal;font-feature-settings:normal;text-indent:0;text-align:start;text-decoration:none;text-decoration-line:none;text-decoration-style:solid;text-decoration-color:#000000;letter-spacing:normal;word-spacing:normal;text-transform:none;writing-mode:lr-tb;direction:ltr;text-orientation:mixed;dominant-baseline:auto;baseline-shift:baseline;text-anchor:start;white-space:normal;shape-padding:0;clip-rule:nonzero;display:inline;overflow:visible;visibility:visible;opacity:1;isolation:auto;mix-blend-mode:normal;color-interpolation:sRGB;color-interpolation-filters:linearRGB;solid-color:#000000;solid-opacity:1;vector-effect:none;fill:#ffffff;fill-opacity:1;fill-rule:nonzero;stroke:none;stroke-width:0.5820832;stroke-linecap:butt;stroke-linejoin:miter;stroke-miterlimit:4;stroke-dasharray:none;stroke-dashoffset:0;stroke-opacity:1;color-rendering:auto;image-rendering:auto;shape-rendering:auto;text-rendering:auto;enable-background:accumulate" /></g></svg>