<?xml version="1.0" encoding="UTF-8" standalone="no"?><svg xmlns:dc="http://purl.org/dc/elements/1.1/" xmlns:cc="http://creativecommons.org/ns#" xmlns:rdf="http://www.w3.org/1999/02/22-rdf-syntax-ns#" xmlns:svg="http://www.w3.org/2000/svg" xmlns="http://www.w3.org/2000/svg" id="svg2438" version="1.1" viewBox="0 0 10.58333 10.58333" height="40" width="40"><defs id="defs2432" /><path id="path4126" style="fill:#ffffff;fill-opacity:1;fill-rule:nonzero;stroke:none;stroke-width:2.03839" d="m 7.1132,2.06 c 0,-0.51 -0.418,-0.93 -0.9295,-0.92 -0.5159,0 -0.9378,0.42 -0.9333,0.93 0,0.51 0.4199,0.92 0.9352,0.93 C 6.6952,3 7.1151,2.58 7.1132,2.06 M 3.9741,7.26 C 3.9991,7.48 4.0985,7.63 4.276,7.7 4.4774,7.8 4.6612,7.8 4.8014,7.58 4.9239,7.44 5.0319,7.29 5.1443,7.14 5.5295,6.64 5.9128,6.14 6.2936,5.63 6.4792,5.38 6.4508,5.1 6.2306,4.94 6.0109,4.78 5.7292,4.84 5.5499,5.08 5.0712,5.7 4.59,6.33 4.1145,6.96 4.0495,7.06 4.0215,7.16 3.9743,7.26 M 5.063,5.24 C 5.038,5.04 4.9121,4.86 4.7302,4.8 4.5326,4.7 4.3349,4.8 4.2004,4.96 3.7091,5.59 3.2204,6.24 2.7348,6.88 2.5516,7.12 2.5838,7.41 2.8018,7.57 3.026,7.73 3.2906,7.68 3.4807,7.44 3.9574,6.81 4.4367,6.18 4.9072,5.55 4.9742,5.45 5.0114,5.34 5.0625,5.24 M 10.55,9.44 C 10.61,9.18 10.59,9.16 10.49,9.09 10.296,8.95 10.098,8.81 9.9143,8.65 9.4212,8.24 8.9589,7.79 8.443,7.41 7.8942,7 7.2583,6.82 6.5637,6.92 6.1577,7.02 5.7908,7.14 5.4365,7.34 5.1732,7.48 4.9143,7.65 4.639,7.76 3.9482,8.05 3.2737,8.07 2.6719,7.54 2.5235,7.42 2.3972,7.26 2.2703,7.11 2.0013,6.79 1.6654,6.66 1.2555,6.74 0.8053,6.84 0.4542,7.08 0.12014,7.37 -0.01878,7.5 -0.01625,7.63 0.03679,7.81 0.12204,7.71 0.1915,7.7 0.25844,7.64 0.42388,7.51 0.5767,7.36 0.75415,7.25 1.433,6.84 1.8384,6.95 2.1971,7.46 c 0.013,0 0.025,0 0.031,0.1 C 2.8192,8.23 3.5366,8.44 4.3992,8.2 4.8639,8.07 5.2655,7.81 5.6773,7.58 6.4515,7.13 7.2446,7.08 8.0295,7.48 c 0.3303,0.2 0.6422,0.43 0.9352,0.68 0.3833,0.32 0.7363,0.68 1.1153,1 0.13,0.12 0.3,0.19 0.466,0.28 M 0.0363,6.05 C 0.87048,5.31 1.6775,4.58 2.4927,3.85 2.7984,4.19 3.0857,4.52 3.3774,4.84 3.6161,5.1 3.8485,5.11 4.1131,4.84 4.3903,4.6 4.6492,4.34 4.9448,4.12 5.1999,3.93 5.2775,3.73 5.167,3.43 5.098,3.24 5.074,3.03 5.0224,2.8 4.5943,3.18 4.199,3.53 3.7974,3.89 3.7464,3.79 3.7054,3.79 3.6667,3.74 3.4652,3.52 3.2695,3.29 3.0592,3.08 2.9146,2.92 2.6986,2.9 2.5275,2.98 2.3519,3.08 2.2439,3.27 2.2888,3.46 c 0.025,0.1 0,0.15 -0.073,0.22 C 1.5269,4.3 0.84173,4.92 0.149,5.54 0.0126,5.66 -0.02655,5.79 0.0366,6 M 10.557,6 H 7.3361 C 7.5458,5.7 7.7415,5.44 7.9209,5.16 7.9869,5.06 8.0497,4.93 8.0535,4.82 c 0.019,-0.49 0.019,-0.98 0.013,-1.47 0,-0.32 -0.2223,-0.52 -0.4951,-0.5 -0.2671,0 -0.4401,0.23 -0.4382,0.54 0,0.36 0.019,0.72 0,1.08 0,0.12 -0.044,0.25 -0.108,0.35 C 6.7928,5.17 6.5364,5.51 6.3015,5.86 6.1449,6.09 6.1936,6.36 6.3935,6.5 6.6215,6.66 6.8785,6.61 7.068,6.39 7.112,6.29 7.2088,6.28 7.282,6.28 c 1.0312,0 2.0631,0 3.094,0 0.219,0 0.222,0 0.178,-0.28" /><path id="path4130" style="fill:#ffffff;fill-opacity:1;fill-rule:nonzero;stroke:none;stroke-width:2.03839" d="m 10.557,6.05 c 0.04,0.27 0.04,0.27 -0.179,0.27 -1.0319,0 -2.0631,0 -3.0924,0 -0.076,0 -0.1673,0.1 -0.216,0.11 C 6.8796,6.66 6.6232,6.71 6.3965,6.55 6.195,6.41 6.1483,6.14 6.3035,5.91 6.5378,5.55 6.7948,5.22 7.0291,4.87 7.0921,4.77 7.1308,4.64 7.1352,4.52 c 0.013,-0.36 0,-0.73 0,-1.09 0,-0.31 0.1717,-0.52 0.4382,-0.54 0.2754,0 0.4894,0.19 0.4957,0.5 0.01,0.49 0.01,0.98 -0.013,1.47 0,0.12 -0.067,0.24 -0.132,0.34 C 7.7448,5.48 7.549,5.75 7.3406,6.04 Z" /><path id="path4134-7" style="fill:#ffffff;fill-opacity:1;fill-rule:nonzero;stroke:none;stroke-width:2.03839" d="M 0.03626,6.05 C -0.02689,5.84 0.011,5.71 0.14866,5.59 0.84139,4.97 1.5247,4.35 2.2136,3.73 2.2846,3.63 2.3096,3.61 2.2866,3.51 2.2426,3.32 2.3516,3.12 2.5272,3.03 2.6984,2.93 2.9143,2.93 3.057,3.13 3.2692,3.34 3.465,3.57 3.6645,3.8 c 0.044,0 0.08,0.1 0.1326,0.14 0.4016,-0.36 0.7951,-0.71 1.2232,-1.09 0.05,0.23 0.075,0.44 0.1465,0.63 0.108,0.3 0.032,0.5 -0.2242,0.69 C 4.649,4.39 4.3901,4.65 4.1129,4.9 3.8483,5.13 3.6159,5.12 3.3772,4.9 3.0855,4.58 2.7962,4.25 2.4925,3.91 1.6773,4.64 0.86771,5.37 0.03606,6.11" /><path id="path4138" style="fill:#ffffff;fill-opacity:1;fill-rule:nonzero;stroke:none;stroke-width:2.03839" d="M 10.549,9.44 C 10.384,9.34 10.214,9.28 10.082,9.16 9.7029,8.84 9.3505,8.48 8.9691,8.16 8.6736,7.91 8.3635,7.68 8.0333,7.48 7.249,7.03 6.454,7.08 5.6791,7.58 5.2674,7.81 4.8677,8.07 4.401,8.2 3.541,8.44 2.8211,8.2 2.2325,7.56 c -0.013,0 -0.025,0 -0.038,-0.1 C 1.8378,6.95 1.4298,6.84 0.75099,7.25 0.57355,7.36 0.42073,7.51 0.25591,7.64 0.19091,7.74 0.12141,7.75 0.03553,7.82 -0.0213,7.62 -0.0213,7.5 0.11952,7.37 0.45357,7.08 0.80404,6.82 1.2524,6.74 1.6641,6.64 2.0007,6.74 2.2678,7.11 2.396,7.26 2.5204,7.42 2.6713,7.54 3.2725,8.07 3.9475,8.05 4.6384,7.76 4.9118,7.65 5.1707,7.48 5.4334,7.34 5.7883,7.14 6.1571,6.98 6.5625,6.92 c 0.6952,-0.1 1.3292,0.1 1.8792,0.49 0.516,0.38 0.9769,0.83 1.4701,1.24 0.1832,0.16 0.3812,0.3 0.5762,0.44 0.103,0.1 0.115,0.1 0.06,0.35" /><path id="path4142" style="fill:#ffffff;fill-opacity:1;fill-rule:nonzero;stroke:none;stroke-width:2.03839" d="M 5.0628,5.24 C 5.0118,5.34 4.9748,5.46 4.9081,5.55 4.4351,6.18 3.9577,6.81 3.481,7.44 3.2915,7.68 3.0263,7.73 2.8021,7.57 2.5843,7.41 2.5514,7.13 2.7331,6.88 3.2206,6.23 3.71,5.59 4.2012,4.95 4.3358,4.78 4.5334,4.73 4.7311,4.8 4.9123,4.9 5.0386,5.04 5.0632,5.24" /><path id="path4146" style="fill:#ffffff;fill-opacity:1;fill-rule:nonzero;stroke:none;stroke-width:2.03839" d="M 3.9741,7.26 C 4.0181,7.16 4.0491,7.05 4.1143,6.96 4.5898,6.33 5.071,5.7 5.5497,5.08 5.729,4.84 6.0107,4.78 6.2304,4.94 6.4508,5.1 6.4792,5.38 6.2934,5.63 5.9126,6.13 5.5293,6.64 5.1441,7.14 5.0336,7.29 4.9237,7.44 4.8012,7.58 4.661,7.75 4.4772,7.78 4.2758,7.7 4.0984,7.6 4.0024,7.48 3.9739,7.26" /><path id="path4150-0" style="fill:#ffffff;fill-opacity:1;fill-rule:nonzero;stroke:none;stroke-width:2.03839" d="M 7.1132,2.06 C 7.1132,2.58 6.6952,3 6.1856,3 5.6703,3 5.2541,2.58 5.2504,2.07 c 0,-0.51 0.4174,-0.93 0.9333,-0.93 0.5115,0 0.9295,0.41 0.9295,0.92" /></svg>