<?xml version="1.0" encoding="UTF-8" standalone="no"?><svg xmlns:dc="http://purl.org/dc/elements/1.1/" xmlns:cc="http://creativecommons.org/ns#" xmlns:rdf="http://www.w3.org/1999/02/22-rdf-syntax-ns#" xmlns:svg="http://www.w3.org/2000/svg" xmlns="http://www.w3.org/2000/svg" id="svg2438" version="1.1" viewBox="0 0 10.58333 10.58333" height="40" width="40"><defs id="defs2432" /><g transform="translate(0,-286.4167)" id="layer1"><path style="display:inline;fill:#ffffff;fill-opacity:1;stroke-width:0.0644415" d="m 5.291671,286.4175 c -0.16279,0 -0.31558,0.076 -0.40818,0.204 -0.35558,0.4879 -3.47502,4.8264 -3.47502,6.6943 1.6e-4,2.0315 1.74217,3.6842 3.8832,3.6842 2.141181,0 3.883191,-1.6527 3.883191,-3.6842 0,-1.8679 -3.119284,-6.2064 -3.474861,-6.6951 -0.0928,-0.128 -0.24518,-0.204 -0.40833,-0.204 z m -0.036,8.6122 c -1.68662,0 -1.56022,-1.1003 -2.42729,-1.1331 -0.49465,0 -0.42873,-0.164 -0.42877,-0.5808 0,-1.1667 1.82,-4.0373 2.89086,-5.5836 1.071008,1.5463 2.890853,4.4169 2.890853,5.5836 0,0.5144 0.0632,0.5716 -0.597442,0.6784 -0.851866,0.136 -0.167189,1.0411 -2.328211,1.0355 z" id="path77449" /></g></svg>