<?xml version="1.0" encoding="UTF-8" standalone="no"?><svg xmlns:dc="http://purl.org/dc/elements/1.1/" xmlns:cc="http://creativecommons.org/ns#" xmlns:rdf="http://www.w3.org/1999/02/22-rdf-syntax-ns#" xmlns:svg="http://www.w3.org/2000/svg" xmlns="http://www.w3.org/2000/svg" id="svg2438" version="1.1" viewBox="0 0 10.58333 10.58333" height="40" width="40"><defs id="defs2432" /><g transform="translate(0,-286.4167)" id="layer1"><path style="fill:#ffffff;fill-opacity:1;fill-rule:nonzero;stroke:none;stroke-width:1.4268224" d="m 3.86739,290.0729 c 0.490426,0.2565 1.09802,0.061 1.354351,-0.4347 0.256453,-0.4904 0.06109,-1.0979 -0.429091,-1.3543 -0.496046,-0.2565 -1.103518,-0.061 -1.359971,0.4292 -0.256453,0.4959 -0.06109,1.1035 0.434711,1.3598" id="path14788" /><path style="fill:#ffffff;fill-opacity:1;fill-rule:nonzero;stroke:none;stroke-width:1.4268224" d="m 2.613348,296.2763 -0.412475,-0.5071 -0.07819,-0.6466 1.805801,-0.7245 c 0.0171,0.017 0.03421,0.027 0.05009,0.039 0,0 0.523902,0.3176 1.181468,0.7134 z M 1.5934,290.8198 c 0.05009,0.039 0.0782,0.072 0.09408,0.084 0.106296,0.078 0.217478,0.1449 0.334525,0.1951 0.295306,0.094 1.281899,0.1895 1.281899,0.1895 0.0171,0.1895 0.04399,0.3845 0.07331,0.5629 l 0.28993,2.2128 c 0,0.027 0.01466,0.056 0.03299,0.094 l -1.616302,0.6465 z m 4.575959,0.9977 c 0,0 0.36226,0.1399 0.668684,0.156 0.134153,-0.015 0.261952,-0.033 0.390117,-0.073 0.04398,-0.023 0.161642,-0.056 0.345644,-0.1399 l 0.13403,1.0869 -0.167141,-0.1449 c -0.04398,-0.034 -0.106295,-0.044 -0.156144,-0.023 l -1.699873,0.68 -0.362259,-1.8393 z m 1.605184,2.1848 -1.761328,-0.4403 1.399068,-0.5574 0.908399,0.758 z m 1.749966,0.4404 -1.259663,-0.3178 0.412598,-0.1784 c 0.05009,-0.023 0.0843,-0.067 0.08797,-0.1227 0.01466,-0.05 -0.01466,-0.105 -0.0562,-0.1399 L 8.1241,293.1934 7.923361,291.5827 c 0.267571,-0.1399 0.373378,-0.2174 0.373378,-0.3956 0,0 -0.06109,-0.2621 -0.222854,-0.368 -0.111183,-0.061 -0.150524,-0.073 -0.245335,-0.033 l -0.540518,-4.3474 -0.367881,0.05 0.546139,4.431 c -0.45145,0.1671 -0.624211,0.2006 -0.624211,0.2006 0,0 -0.429214,-0.1002 -1.476896,-0.4738 -0.406855,-0.1504 -0.585236,-0.2564 -1.142615,-0.234 l -0.45145,0.023 c -0.624211,0 -1.46028,-0.1398 -1.46028,-0.1398 0,0 -0.373378,-0.2452 -0.869424,-0.7302 0,0 0,0 0,0 l -0.390239,-3.1491 -0.3677575,0.05 0.3622595,2.8982 h -0.02321 c -0.1894987,0.05 -0.3289046,0.2731 -0.3289046,0.2731 -0.067198,0.2006 0.039097,0.3122 0.3289046,0.6242 0.04398,0.05 0.09408,0.1002 0.150525,0.1505 l 0.557257,4.5369 -0.250833,0.1002 c -0.04399,0.023 -0.0843,0.061 -0.09408,0.1051 -0.01466,0.044 0,0.1001 0.03299,0.1397 l 0.418096,0.5183 v 0.015 h 0.01466 l 0.601975,0.7414 c 0.03299,0.038 0.07819,0.061 0.122667,0.061 0.02321,0 0.04399,0 0.06109,-0.017 l 2.853605,-1.254 c 1.164974,0.7023 2.575039,1.5606 2.575039,1.5606 0.256453,0.1504 0.573995,0.084 0.719021,-0.1505 0.139773,-0.2341 0.05009,-0.5518 -0.206237,-0.7023 l -1.911731,-1.2262 0.139773,-0.061 2.491346,0.6242 c 0.261951,0.067 0.529522,-0.094 0.596354,-0.3566 0.0672,-0.2621 -0.09408,-0.5295 -0.36226,-0.5965" id="path14790" /></g></svg>