<?xml version="1.0" encoding="UTF-8" standalone="no"?><svg xmlns:dc="http://purl.org/dc/elements/1.1/" xmlns:cc="http://creativecommons.org/ns#" xmlns:rdf="http://www.w3.org/1999/02/22-rdf-syntax-ns#" xmlns:svg="http://www.w3.org/2000/svg" xmlns="http://www.w3.org/2000/svg" id="svg78003" version="1.1" viewBox="0 0 10.583 10.584" height="40" width="40"><defs id="defs77997" /><path d="M 3.4763,9.74 C 3.289,9.74 3.1391,9.58 3.1391,9.39 c 0,-0.2 0.1624,-0.36 0.3372,-0.36 0.2124,0 0.3498,0.19 0.3498,0.36 0,0.2 -0.1624,0.35 -0.3498,0.35 M 6.1992,0.95 c 0,-0.41 -0.2249,-0.7 -0.7245,-0.7 -1.0991,0 -2.1233,0 -3.697,0 -0.662,0 -0.88679,0.22 -0.88679,0.77 0,1.46 0,4.46 0,5.2 0,1.11 0.53709,1 1.13659,1.17 0.4871,0.18 0.6994,0.26 0.7744,0.46 0,0 0,2.02 0,2.02 0,0.33 0.2623,0.58 0.5745,0.58 0,0 0.3997,0 0.3997,0 0.3247,0 0.562,-0.25 0.562,-0.58 0,0 0,-1.99 0,-1.99 0,-0.16 0.2124,-0.23 0.6495,-0.36 0.7744,-0.21 1.2615,-0.24 1.2865,-0.83 0,-0.81 0,-5.32 0,-5.72 m 2.6104,6.07 c 0,0 -1.1116,-0.78 -1.1116,-0.78 0,-0.19 0,-1.45 0.2748,-3.58 C 8.285,1.14 8.947,0.54 9.4341,0 c 0,0 0.1873,0.25 0.2248,1.76 0,1.12 0,3.35 0,5.28 0,0 -0.7744,0 -0.7744,0 m 0,0 m 0.8119,0.45 c 0,0 0,2.79 0,2.79 0,0.41 -0.8119,0.4 -0.8119,0 0,0 0,-2.82 0,-2.82 0,0 0.8119,0 0.8119,0 m 0,0" style="display:inline;fill:#ffffff;fill-opacity:1;fill-rule:nonzero;stroke:none;stroke-width:0.45334" id="path4615" /></svg>