<?xml version="1.0" encoding="UTF-8" standalone="no"?><svg xmlns:dc="http://purl.org/dc/elements/1.1/" xmlns:cc="http://creativecommons.org/ns#" xmlns:rdf="http://www.w3.org/1999/02/22-rdf-syntax-ns#" xmlns:svg="http://www.w3.org/2000/svg" xmlns="http://www.w3.org/2000/svg" id="svg4796" version="1.1" viewBox="0 0 10.583 10.584" height="40" width="40"><defs id="defs4790" /><path id="path4985" style="display:inline;fill:#ffffff;fill-opacity:1;fill-rule:nonzero;stroke:none;stroke-width:0.57798" d="m 9.9802,3.68 c 0.2138,0.15 0,0.37 -0.1914,0.26 0,0 -0.3153,-0.16 -0.3153,-0.16 0,0 0,0.16 0,0.16 -0.1576,0.19 -0.4054,0.14 -0.304,-0.16 0,0 0,-0.16 0,-0.16 0,0 -0.2815,-0.16 -0.2815,-0.16 0,0 0,0.16 0,0.16 -0.1577,0.21 -0.4392,0 -0.2815,-0.16 0,0 0,-0.14 0,-0.14 0,0 -0.3153,-0.16 -0.3153,-0.16 0,0 0,0.16 0,0.16 -0.1576,0.2 -0.4054,0 -0.2477,-0.16 0,0 0,-0.15 0,-0.15 0,0 -0.3378,-0.16 -0.3378,-0.16 0,0 0,0.16 0,0.16 -0.1577,0.2 -0.4166,0 -0.2477,-0.16 0,0 0,-0.15 0,-0.15 0,0 -0.3041,-0.16 -0.3041,-0.16 0,0 -0.1576,0.16 -0.1576,0.16 -0.1576,0.2 -0.3941,0 -0.2477,-0.16 0,0 0,-0.16 0,-0.16 0,0 -0.3266,-0.13 -0.3266,-0.13 -0.2026,-0.16 0,-0.41 0.214,-0.31 0,0 3.3442,1.74 3.3442,1.74 m 0,0 M 10.363,1.93 c 0,0 -0.5517,-0.28 -0.5517,-0.28 0,0 0.7767,-1.15 0.7767,-1.15 0,0 -0.6078,-0.33 -0.6078,-0.33 0,0 -0.9008,1.1 -0.9233,1.1 C 9.0569,1.27 8.4826,1 8.4826,1 7.8633,1.15 7.2665,1.37 6.8837,1.84 c 0,0 3.2763,1.6 3.2763,1.6 0.338,-0.49 0.394,-1.06 0.203,-1.51 M 7.7507,5.92 c 0,0 -0.2927,0.42 -0.2927,0.42 -0.1464,0.24 0.1801,0.33 0.2927,0.17 0,0 0.304,-0.43 0.304,-0.43 C 8.2011,5.87 7.8633,5.75 7.7507,5.92 M 8.3025,5.05 c 0,0 -0.2252,0.34 -0.2252,0.34 -0.1577,0.23 0.1689,0.33 0.2815,0.17 0,0 0.2252,-0.36 0.2252,-0.36 C 8.7416,5 8.4263,4.88 8.3025,5.04 M 8.7979,4.28 c 0,0 -0.1802,0.24 -0.1802,0.24 -0.1576,0.22 0.1802,0.34 0.3041,0.17 0,0 0.1576,-0.26 0.1576,-0.26 C 9.237,4.19 8.9218,4.07 8.7979,4.28 M 7.0526,6.12 c 0,0 0.304,-0.43 0.304,-0.43 C 7.503,5.51 7.199,5.38 7.0526,5.55 c 0,0 -0.2815,0.4 -0.2815,0.4 -0.1576,0.22 0.1576,0.34 0.2815,0.17 M 7.6944,5.2 c 0,0 0.2252,-0.34 0.2252,-0.34 C 8.0773,4.65 7.762,4.52 7.6381,4.7 c 0,0 -0.2477,0.35 -0.2477,0.35 -0.1464,0.21 0.1689,0.32 0.304,0.16 M 8.2687,4.33 c 0,0 0.2139,-0.26 0.2139,-0.26 C 8.629,3.88 8.3137,3.76 8.1899,3.93 c 0,0 -0.1689,0.24 -0.1689,0.24 -0.1577,0.21 0.1576,0.32 0.2477,0.16 M 6.332,5.77 c 0,0 0.3152,-0.39 0.3152,-0.39 C 6.8161,5.18 6.5009,5.02 6.377,5.22 c 0,0 -0.3265,0.45 -0.3265,0.45 C 5.8928,5.86 6.1968,5.99 6.332,5.81 M 7.0188,4.88 c 0,0 0.2815,-0.36 0.2815,-0.36 0.1464,-0.19 -0.1576,-0.33 -0.304,-0.14 0,0 -0.2477,0.33 -0.2477,0.33 -0.1689,0.2 0.1351,0.35 0.2702,0.16 M 7.6719,4.05 c 0,0 0.1802,-0.27 0.1802,-0.27 C 8.021,3.58 7.6944,3.44 7.5818,3.62 c 0,0 -0.2027,0.27 -0.2027,0.27 C 7.2328,4.08 7.548,4.24 7.6719,4.05 M 5.6113,5.46 c 0,0 0.3491,-0.44 0.3491,-0.44 C 6.1293,4.86 5.814,4.7 5.7014,4.87 c 0,0 -0.3378,0.4 -0.3378,0.4 C 5.1947,5.48 5.51,5.62 5.6113,5.44 M 6.377,4.57 c 0,0 0.2477,-0.33 0.2477,-0.33 C 6.8049,4.01 6.4783,3.88 6.377,4.07 6.377,4.07 6.073,4.4 6.073,4.4 5.9266,4.59 6.2419,4.74 6.377,4.57 M 7.0188,3.74 c 0,0 0.214,-0.23 0.214,-0.23 C 7.3904,3.3 7.0751,3.15 6.9625,3.35 c 0,0 -0.1914,0.23 -0.1914,0.23 -0.1689,0.2 0.1576,0.36 0.2477,0.16 M 5.0145,4.52 c 0,0 -0.3603,0.42 -0.3603,0.42 -0.1576,0.21 0.1577,0.36 0.259,0.19 0,0 0.3491,-0.43 0.3491,-0.43 C 5.4424,4.5 5.1271,4.37 5.0145,4.52 M 5.7352,3.76 c 0,0 -0.2928,0.31 -0.2928,0.31 -0.1801,0.18 0.1464,0.36 0.259,0.17 0,0 0.2928,-0.34 0.2928,-0.34 C 6.1405,3.74 5.859,3.56 5.7352,3.75 M 6.377,3.04 c 0,0 -0.2477,0.22 -0.2477,0.22 -0.1689,0.2 0.1689,0.35 0.2702,0.18 0,0 0.2252,-0.26 0.2252,-0.26 C 6.8049,3.01 6.4783,2.83 6.377,3.03 M 5.4086,9.85 C 4.6317,10.34 3.5958,10.11 3.0891,9.34 2.6387,8.55 2.8751,7.51 3.6521,7.05 c 0,0 0,0 0,0 0,0 0,0 0,0 0.1576,0.31 0.2364,0.72 0.349,1.02 C 3.866,8.24 3.866,8.27 3.866,8.43 3.866,8.72 4.0912,8.94 4.3727,8.94 4.6767,8.94 4.947,8.72 4.947,8.43 4.947,8.17 4.733,8 4.5078,7.94 4.3389,7.64 4.2714,7.2 4.1475,6.9 4.7781,6.74 5.4875,7.05 5.8703,7.62 6.3432,8.41 6.0842,9.41 5.3411,9.88 m 1.2724,-1.4 c 0,0 0.1576,0 0.1576,0 0,0 0,-0.15 0,-0.22 0,0 0,0 0,0 0,0 0,-0.16 0,-0.16 0,0 0,0 0,0 0,0 0,-0.15 0,-0.19 0,0 -0.1576,0 -0.1576,0 0,0 0,-0.15 0,-0.15 0,0 0.1576,0 0.1576,0 0,-0.16 0,-0.16 -0.1576,-0.21 0,0 0,0 0,0 0,0 0,-0.16 0,-0.16 0,0 0,0 0,0 0,0 0,-0.15 -0.1577,-0.16 0,0 0,0 0,0 0,0 -0.1464,-0.15 -0.1464,-0.15 0,0 0,-0.15 0,-0.15 0,0 -0.1689,-0.17 -0.1689,-0.17 0,0 0,0 0,0 0,0 -0.1463,-0.14 -0.1463,-0.14 0,0 0,0 0,0 0,0 -0.1352,-0.16 -0.1802,-0.16 0,0 0,0 0,0 0,0 -0.1464,-0.16 -0.1464,-0.16 0,0 0,-0.16 0,-0.16 0,0 -0.1576,0 -0.1689,-0.13 0,0 0,0 0,0 0,0 -0.1576,0 -0.1576,0 0,0 0,-0.16 0,-0.16 0,0 -0.1577,0 -0.2027,-0.16 0,0 0,0.16 0,0.16 0,0 -0.1464,0 -0.1464,0 0,0 0,-0.16 0,-0.16 0,0 -0.1689,0 -0.2139,0 0,0 0,0.16 0,0.16 0,0 -0.1464,0 -0.1464,0 0,0 0,-0.16 0,-0.16 0,0 -0.1576,0 -0.1689,0 0,0 0,0.16 0,0.16 0,0 -0.1576,0 -0.1576,0 0,0 0,-0.16 0,-0.16 0,0 0,0 -0.1577,0 C 3.8885,4.84 3.5507,3.88 3.3931,3.45 c 0,0 1.2836,-0.42 1.2836,-0.42 0,0 -0.1689,-0.5 -0.1689,-0.5 -0.6418,0.21 -1.7453,0.65 -1.7453,0.65 0,0 0.2365,0.63 0.2365,0.63 0,0 -2.9839,0.36 -2.9839,0.36 0,0 0,0.53 0,0.53 0,0 3.1528,-0.37 3.1528,-0.37 0,0 -2.0831,2.91 -2.0831,2.91 0,0 -0.15764,0 -0.20268,0 0,0 -0.86702,-1.68 -0.86702,-1.68 0,0 0,1.11 0,1.11 0,0 0.3941,0.78 0.3941,0.78 0,0 -0.13512,0.15 -0.13512,0.23 0,0 -0.27024,0 -0.27024,0 0,0 0,0.51 0,0.51 0,0 0.15764,0 0.15764,0 0,0.2 0.19142,0.38 0.40536,0.42 0.36032,0.16 0.77696,0 0.91206,-0.36 0.1576,-0.24 0,-0.47 -0.1576,-0.68 0,0 1.8916,-2.62 1.8916,-2.62 0,0 0.3153,1 0.3153,1 0,0 -0.1464,0 -0.1464,0 0,0 0,0 0,0 0,0 0,0 0,0 0,0 -0.1576,0 -0.1689,0.17 0,0 0,0 0,0 0,0 -0.1576,0.15 -0.1576,0.15 0,0 0,0 0,0 0,0 -0.1576,0.17 -0.1689,0.17 0,0 0,0.14 0,0.14 0,0 -0.1576,0.16 -0.1576,0.16 0,0 -0.1577,0 -0.1577,0 0,0 -0.1351,0.16 -0.1351,0.18 0,0 0,0 0,0 0,0 -0.1576,0.14 -0.1576,0.14 0,0 -0.1577,0 -0.1577,0 0,0.14 0,0.14 0,0.2 0,0 0,0 0,0 0,0 0,0.16 0,0.16 0,0 -0.1576,0 -0.1576,0 0,0 0,0.14 0,0.15 0,0 0,0 0,0 0,0 0,0.16 0,0.16 0,0 -0.1464,0 -0.1464,0 0,0 0,0.16 0,0.21 0,0 0.1464,0 0.1464,0 0,0 0,0.15 0,0.15 0,0 -0.1464,0 -0.1464,0 0,0.16 0,0.16 0,0.22 0,0 0.1464,0 0.1464,0 0,0 0,0.14 0,0.14 0,0 0,0 0,0 0,0 0,0.16 0,0.22 0,0 0.1576,0 0.1576,0 0,0 0,0.15 0,0.15 0,0 -0.1576,0 -0.1576,0 0,0 0,0.16 0.1576,0.17 0,0 0.1577,0 0.1577,0 0,0 0,0.17 0,0.17 0,0 0,0 0,0 0,0 0.1576,0.15 0.1576,0.16 0,0 0.1351,0 0.1351,0 0,0 0.1577,0.16 0.1577,0.16 0,0 0,0 0,0 0,0 0.1576,0.16 0.1576,0.16 0,0 0,0 0,0 0,0 0.1464,0.15 0.1464,0.15 0,0 0,0.15 0,0.15 0,0 0.1689,0.16 0.1689,0.16 0,0 0,0 0,0 0,0 0.1464,0.14 0.1464,0.14 0,0 0,0 0,0 0,0 0.1576,0.17 0.1689,0.17 0,0 0,-0.17 0,-0.17 0,0 0.1689,0 0.1689,0 0,0 0,0 0,0 0,0 0.1351,0 0.1914,0 0,0 0,-0.14 0,-0.14 0,0 0.1464,0 0.1464,0 0,0 0,0 0,0 0,0 0.1576,0 0.2139,0 0,0 0,-0.16 0,-0.16 0,0 0.1351,0 0.1351,0 0,0 0,0.16 0,0.16 0,0 0.1577,0 0.214,0 0,0 0,-0.16 0,-0.16 0,0 0.1463,0 0.1463,0 0,0 0,0 0,0 0,0 0.1464,0 0.214,0 0,0 0,-0.15 0,-0.15 0,0 0.1351,0 0.1351,0 0,0 0,0 0,0 0,0 0.1576,0 0.2139,0 0,0 0,-0.15 0,-0.15 0,0 0.1464,0 0.1464,0 0,0 0,0 0,0 0,0 0.1464,-0.16 0.1689,-0.16 0,0 0,-0.16 0,-0.16 0,0 0.1464,-0.15 0.1464,-0.15 0,0 0.1689,0 0.1689,0 0,0 0.1464,-0.17 0.1464,-0.17 0,0 0,0 0,0 0,0 0.1689,-0.13 0.1689,-0.13 0,0 0.1464,0 0.1464,0 0,0 0.1576,-0.15 0.1576,-0.15 0,0 0,0 0,0 0,0 0.1464,-0.17 0.1464,-0.17 0,0 0.1464,0 0.1464,0 0,0 0,-0.14 0.1576,-0.18 0,0 -0.1576,0 -0.1576,0 0,0 0,-0.14 0,-0.14 0,0 0.1576,0 0.1576,0 0,0 0,-0.17 0,-0.22 0,0 0,0 0,0 0,0 0,-0.14 0,-0.14 0,0 0,0 0,0 0,-0.17 0,-0.17 0,-0.21 0,0 -0.1576,0 -0.1576,0 0,0 -0.2252,0.82 -0.2252,0.82 m 0,0" /></svg>