<?xml version="1.0" encoding="UTF-8" standalone="no"?><svg xmlns:dc="http://purl.org/dc/elements/1.1/" xmlns:cc="http://creativecommons.org/ns#" xmlns:rdf="http://www.w3.org/1999/02/22-rdf-syntax-ns#" xmlns:svg="http://www.w3.org/2000/svg" xmlns="http://www.w3.org/2000/svg" id="svg5510" version="1.1" viewBox="0 0 10.583 10.584" height="40" width="40"><defs id="defs5504" /><g transform="translate(0,-286.42)" id="layer1"><path style="display:inline;fill:#ffffff;fill-rule:evenodd;stroke:none;stroke-width:0.55601;fill-opacity:1" d="m 6.542,291.77 c 0,0 1.809,-0.61 1.809,-0.61 0,0 -1.809,-0.18 -1.809,-0.18 0,0 0,0.79 0,0.79 m -0.6716,0.2 c 0,0 0.1517,0 0.1517,0 0,0 0,-0.37 0,-0.37 0,0 -0.1517,-0.23 -0.1517,-0.23 0,0 -0.1841,0.58 -0.1841,0.58 0,0 0.1841,0 0.1841,0 m 0,-1.57 c 0,0 -0.1733,0 -0.1733,0 0,0 -0.1733,0.3 -0.1733,0.3 0,0 0.2816,0 0.2816,0 0,0 0.1084,-0.3 0.1084,-0.3 m 3.0871,0.15 c 0,0 0,-0.15 0,-0.15 -0.1625,0 -0.3575,-0.17 -0.5091,-0.24 -0.3791,-0.26 -0.7799,-0.53 -1.1266,-0.84 -0.1841,-0.19 -0.2491,-0.45 -0.4007,-0.67 -0.3467,0 -0.7041,0 -1.0724,0 -0.1625,0 -0.3358,-0.16 -0.5091,-0.16 0,0 1.289,1.4 1.289,1.4 0,0 0,0.75 0,0.75 0,0 2.3722,0.28 2.3722,0.28 0,0 0,-0.17 0,-0.19 0,0 0.1625,-0.16 0.1625,-0.16 0,0 -0.1733,0 -0.1625,0 m -3.9862,1.88 c 0,0 -0.1516,0 -0.1516,0 0,0 0,0 0,0 0,0 -0.1517,0.16 -0.1517,0.16 0,0 0,0 0,0 0,0 -0.1516,0.14 -0.1516,0.14 0,0 0,0 0,0 0,0 -0.1408,0 -0.1408,0.16 0,0 0,0 0,0 0,0 -0.1517,0 -0.1517,0 0,0 0,0 0,0 0,0 -0.1408,0 -0.1516,0.14 0,0 0,0 0,0 0,0 -0.1625,0 -0.1625,0 0,0 0,0.16 0,0.16 0,0 -0.1408,0 -0.1733,0 0,0 0,0 0,0 0,0 -0.1408,0 -0.1408,0 0,0 0,0 0,0 0,0 -0.1625,0 -0.1733,0 0,0 0,0 0,0 0,0 -0.1517,0 -0.1517,0 0,0 0,0 0,0 0,0 -0.1408,0 -0.1516,0 0,0 0,0 0,0 0,0 -0.1625,0 -0.1625,0 0,0 0,0 0,0 0,0 -0.1408,0 -0.1625,0 0,0 0,-0.16 0,-0.16 0,0 -0.1516,0 -0.1516,0 0,0 0,0 0,0 0,0 -0.13,0 -0.1625,-0.14 0,0 0,0 0,0 0,0 -0.13,0 -0.13,0 0,0 0,0 0,0 0,0 -0.1625,-0.16 -0.1625,-0.16 0,0 0,0 0,0 0,0 -0.1408,-0.14 -0.1408,-0.14 0,0 0,0 0,0 0,0 -0.1517,0 -0.1517,-0.16 0,0 0,0 0,0 0,0 -0.1516,0 -0.1516,0 0,0 0,0 0,0 0,0 -0.1517,-0.14 -0.1517,-0.14 0,0 0,0 0,0 0,0 0,-0.13 0,-0.13 0,0 0,0 0,0 0,0 0,-0.17 -0.1408,-0.21 0,0 0,0 0,0 0,0 0,-0.13 0,-0.13 0,0 -0.1408,0 -0.1408,0 0,0 0,-0.14 0,-0.14 0,0 0,0 0,0 0,0 0,-0.16 0,-0.16 0,0 0,0 0,0 0,0 0,-0.14 0,-0.16 0,0 0.1408,0 0.1408,0 0,0 0,-0.15 0,-0.15 0,0 -0.1408,0 -0.1408,0 0,0 0,-0.16 0,-0.18 0,0 0,0 0,0 0,0 0,-0.15 0,-0.15 0,0 0,0 0,0 0,0 0,-0.15 0,-0.16 0,0 0.1408,0 0.1408,0 0,0 0,-0.16 0,-0.16 0,0 0,0 0,0 0,0 0,-0.13 0.1408,-0.15 0,0 0,0 0,0 0,0 0,-0.15 0,-0.15 0,0 0,0 0,0 0,0 0.1517,-0.14 0.1517,-0.14 0,0 0,0 0,0 0,0 0.1516,-0.15 0.1516,-0.15 0,0 0,0 0,0 0,0 0.1517,-0.15 0.1517,-0.15 0,0 0,0 0,0 0,0 0.1408,-0.15 0.1408,-0.15 0,0 0,0 0,0 0,0 0.1625,0 0.1625,-0.15 0,0 0,0 0,0 0,0 0.13,-0.16 0.13,-0.16 0,0 0,0 0,0 0,0 0.1516,0 0.1625,-0.13 0,0 0,0.13 0,0.13 0,0 0.1516,0 0.1516,0 0,0 0,0 0,0 0,0 0.1516,0 0.1625,0 0,0 0,0 0,0 0,0 0.1625,0 0.1625,0 0,0 0,-0.13 0,-0.13 0,0 0.1408,0 0.1516,0 0,0 0,0 0,0 0,0 0.1517,0 0.1517,0 0,0 0,0 0,0 0,0 0.1516,0 0.1733,0 0,0 0,0.13 0,0.13 0,0 0.1408,0 0.1408,0 0,0 0,0 0,0 0,0 0.1516,0 0.1733,0 0,0 0,0 0,0 0,0 0.1625,0 0.1625,0 0,0 0,-0.13 0,-0.13 0,0 0.13,0 0.1516,0.13 0,0 0,0 0,0 0,0 0.1517,0.16 0.1517,0.16 0,0 0,0 0,0 0,0 0.1408,0 0.1408,0.15 0,0 0,0 0,0 0,0 0.1516,0.15 0.1516,0.15 0,0 0,0 0,0 0,0 0.1517,0 0.1517,0.15 0,0 0,0 0,0 0,0 0.1516,0.15 0.1516,0.15 0,0 0,0 0,0 0,0 0,0 0,0 0,0 0.1408,-0.29 0.1408,-0.29 0,0 -0.3032,-0.22 -0.3032,-0.22 0,0 0,0 0,0 0,0 0,0 0,0 -0.3033,-0.22 -0.585,-0.42 -0.8558,-0.64 -0.4874,-0.36 -0.6282,-1.1 -0.1625,-1.49 0.3033,-0.23 0.65,-0.36 1.1374,-0.36 0.2816,0 2.1122,0.26 2.2314,0 0,-0.14 0.2058,-0.29 0.2383,-0.41 0.1516,-0.19 0.3358,-0.3 0.5633,-0.29 0.1408,0 0.3141,0.16 0.4224,0.22 0.13,0.13 0.1517,0.14 0.1842,0.25 0.1516,0.15 0,0.35 0.1516,0.49 0,0 0.1625,0.3 0.1625,0.3 0,0 0,0.23 0,0.2 0,0 -0.4441,-0.28 -0.4441,-0.28 0,0 0,0.14 0,0.14 0,0.16 -0.1517,0.25 -0.1517,0.29 0,0 -0.1516,0 -0.1516,0 0,0 -0.1517,0.13 -0.1517,0.13 0,0 0.325,0.24 0.325,0.24 0.1516,0 -0.1625,0.16 -0.2167,0.16 -0.1624,0 -0.2491,-0.15 -0.3899,-0.26 0,0 -0.2166,-0.15 -0.2166,-0.15 0,0 0,0.15 0,0.15 0.1408,0.23 0.1516,0.48 0.2816,0.67 0.1516,0.15 0.1625,0.22 0.26,0.32 0,0 1.0832,0.85 1.0832,0.85 0.1408,0 0.2924,0.15 0.4332,0.15 0,0 0.1409,0.16 0.1625,0.16 0,0.13 0.1408,0.23 0,0.27 0,0 -0.3466,0.15 -0.3466,0.15 0,0 -0.1408,0 -0.1408,0 0,0 -0.3791,2 -0.3791,2 0,0 0,0 0,0 0,0 0,-0.15 0,-0.15 0,0 0.1516,0 0.1733,0 0,0 0,0 0,0 0,0 0.1624,0 0.1624,0 0,0 0,0 0,0 0,0 0.1409,0 0.1409,0 0,0 0,0.15 0,0.15 0,0 0.1624,0 0.1624,0 0,0 0,0 0,0 0,0 0.1409,0 0.1409,0.15 0,0 0,0.14 0,0.14 0,0 0.1516,0 0.1516,0 0,0 0,0 0,0 0,0 0.1514,0.16 0.1514,0.16 0,0 0,0 0,0 0,0 0.141,0.15 0.141,0.15 0,0 0,0 0,0 0,0 0.141,0.14 0.141,0.14 0,0 0,0 0,0 0,0 0,0.16 0,0.16 0,0 0,0 0,0 0,0 0,0.14 0,0.14 0,0 0,0 0,0 0,0 0,0.15 0,0.15 0,0 0,0 0,0 0,0 0,0.14 0,0.17 0,0 0,0 0,0 0,0 0,0.14 0,0.14 0,0 0,0 0,0 0,0 0,0.14 0,0.17 0,0 -0.141,0 -0.141,0 0,0 0,0.15 0,0.15 0,0 0.141,0 0.141,0 0,0 0,0.15 0,0.16 0,0 0,0 0,0 0,0 0,0.14 0,0.14 0,0 0,0 0,0 0,0 0,0.17 0,0.18 0,0 0,0 0,0 0,0 0,0.15 0,0.15 0,0 0,0 0,0 0,0 0,0.15 0,0.15 0,0 0,0 0,0 0,0 0,0.15 0,0.15 0,0 0,0 0,0 0,0 0,0.14 -0.141,0.14 0,0 0,0 0,0 0,0 -0.141,0.14 -0.141,0.14 0,0 0,0 0,0 0,0 -0.1514,0.16 -0.1514,0.16 0,0 0,0 0,0 0,0 -0.1516,0 -0.1516,0 0,0 0,0 0,0 0,0 -0.1409,0.14 -0.1409,0.14 0,0 0,0 0,0 0,0 -0.1624,0 -0.1624,0 0,0 0,0 0,0 0,0 -0.1409,0 -0.1409,0.16 0,0 0,0 0,0 0,0 -0.1624,0 -0.1624,0 0,0 0,0.14 0,0.14 0,0 -0.13,0 -0.1733,0 0,0 0,0 0,0 0,0 -0.1409,0 -0.1409,0 0,0 0,0 0,0 0,0 -0.1408,0 -0.1624,0 0,0 0,-0.14 0,-0.14 0,0 -0.1409,0 -0.1409,0 0,0 0,0.14 0,0.14 0,0 -0.1516,0 -0.1624,0 0,0 0,0 0,0 0,0 -0.1517,0 -0.1517,0 0,0 0,0 0,0 0,0 -0.1516,0 -0.1625,0 0,0 0,-0.14 0,-0.14 0,0 -0.1516,0 -0.1516,0 0,0 0,0 0,0 0,0 -0.1517,0 -0.1625,-0.16 0,0 0,0 0,0 0,0 -0.1516,0 -0.1516,0 0,0 0,0 0,0 0,0 -0.1517,0 -0.1517,-0.14 0,0 0,0 0,0 0,0 -0.1408,0 -0.1408,0 0,0 0,0 0,0 0,0 0,-0.16 -0.1408,-0.16 0,0 0,0 0,0 0,0 -0.1625,-0.14 -0.1625,-0.14 0,0 0,0 0,0 0,0 -0.1408,-0.14 -0.1408,-0.14 0,0 0,0 0,0 0,0 0,-0.15 0,-0.15 0,0 -0.1517,0 -0.1517,0 0,0 0,-0.15 0,-0.15 0,0 0,0 0,0 0,0 0,-0.15 0,-0.15 0,0 -0.1516,0 -0.1516,0 0,0 0,-0.14 0,-0.18 0,0 0.1516,0 0.1516,0 0,0 0,-0.14 0,-0.14 0,0 -0.1516,0 -0.1516,0 0,0 0,-0.15 0,-0.16 0,0 0,0 0,0 0,0 0,-0.15 0,-0.15 0,0 0,0 0,0 0,0 0,-0.14 0,-0.17 0,0 0.1516,0 0.1516,0 0,0 0,-0.14 0,-0.14 0,0 -0.1516,0 -0.1516,0 0,0 0,-0.16 0,-0.17 0,0 0.1516,0 0.1516,0 0,0 0,-0.15 0,-0.15 0,0 0,0 0,0 0,0 0,-0.14 0,-0.14 0,0 0.1517,0 0.1517,0 0,0 0,-0.16 0,-0.16 0,0 0,0 0,0 0,0 0,-0.14 0.1408,-0.14 0,0 0,0 0,0 0,0 0.1625,-0.15 0.1625,-0.15 0,0 0,0 0,0 0,0 0.1408,-0.16 0.1408,-0.16 0,0 0,0 0,0 0,0 0.1408,0 0.1408,0 0,0 0,-0.14 0,-0.14 0,0 0.1517,0 0.1517,-0.15 0,0 0,0 0,0 0,0 0.1516,0 0.1516,0 0,0 0,-0.15 0,-0.15 0,0 0.1517,0 0.1625,0 0,0 0,0 0,0 0,0 0.1516,0 0.1516,0 0,0 0,0 0,0 0,0 0.1409,0 0.1625,0 0,0 0,0.15 0,0.15 0,0 0.1517,0 0.1517,0 0,0 0,0 0,0 0,0 0.1516,0 0.1624,0 0,0 0,0 0,0 0,0 0,0 0,0 0,0 0.2708,-1.38 0.2708,-1.38 0,0 -2.4155,0.87 -2.4155,0.87 0,0 0,0.19 0,0.19 0.2383,0.15 0.3358,0.15 0.4008,0.16 0,0 0.13,0.23 0,0.23 0,0 -0.2925,0 -0.2925,0 0,0 0,0.14 0,0.14 0,0 -0.2166,0 -0.2166,0 0,0 0,-0.14 0,-0.14 0,0 -0.4441,-0.17 -0.4441,-0.17 0,0 -0.2275,0.17 -0.2275,0.17 0,0 -0.2491,0 -0.2491,0 0,0 -0.1733,-0.18 -0.1733,-0.18 0,0 -0.1409,-0.15 -0.1409,-0.15 0,0 0.1084,-0.18 0.1084,-0.18 m 0.4332,-1.02 c 0,0 0,0 0,0 0,0 0.1409,0.24 0.1409,0.24 0,0 0.1624,-0.21 0.1624,-0.21 0,0 0.1625,-0.4 0.1625,-0.4 0,0 -0.3899,0 -0.3899,0 0,0 0,0 0,0.16 0,0 0,0 0,0 0,0 0,0.14 0,0.14 0,0 0,0 0,0 0,0 -0.1084,0.11 -0.1084,0.11 m -0.7799,0.84 c -0.2491,0.32 -0.639,0.51 -1.0507,0.51 -0.7799,0 -1.4298,-0.64 -1.4298,-1.4 0,-0.78 0.6499,-1.4 1.4298,-1.4 0.5633,0 1.0507,0.32 1.2782,0.78 0,0 0,0.16 0,0.16 0,0 -0.8774,0.14 -0.8774,0.14 -0.1516,-0.14 -0.2275,-0.17 -0.3574,-0.17 -0.2925,0 -0.4766,0.22 -0.4766,0.51 0,0.26 0.1841,0.48 0.4766,0.48 0.1516,0 0.1624,0 0.2166,0 0,0 0.1517,0 0.1517,0 0,0 0.639,0.39 0.639,0.39 m 0.2817,-0.41 c 0,0 0,0 0,0.15 0,0 -0.8016,-0.5 -0.8016,-0.5 0,0 0,0 0,0 0,0 0,0 0,0 0,0 0.5741,-0.15 0.5741,-0.15 0,0 0,0.15 0,0.15 0,0 0.1516,0.27 0.1516,0.27 0,0 0.1084,0.11 0.1084,0.11 m 3.5529,2.23 c 0,0 0.1949,-0.98 0.1949,-0.98 -0.7365,0 -1.3756,0.65 -1.3756,1.38 0,0.8 0.6607,1.41 1.4406,1.41 0.7799,0 1.4188,-0.61 1.4188,-1.41 0,-0.66 -0.498,-1.21 -1.1263,-1.35 0,0 -0.1841,0.87 -0.1841,0.87 0.2383,0 0.3574,0.27 0.3574,0.48 0,0.26 -0.2275,0.48 -0.4658,0.48 -0.2816,0 -0.4982,-0.22 -0.4982,-0.48 0,-0.15 0.1299,-0.32 0.2383,-0.4" id="path5001" /><path style="display:inline;fill:#ffffff;fill-rule:evenodd;stroke:none;stroke-width:0.55601;fill-opacity:1" d="m 5.4263,294.65 c 0,0 -5.13435,0 -5.13435,0 0,0 0,-0.85 0,-0.85 0,0 5.13435,0 5.13435,0 0,0 0,0.85 0,0.85 m 0,0" id="path5003" /><path style="display:inline;fill:#ffffff;fill-rule:evenodd;stroke:none;stroke-width:0.55601;fill-opacity:1" d="m 4.6031,297 c 0,0 -0.4875,0 -0.4875,0 0,0 0,-2.84 0,-2.84 0,0 0.4875,0 0.4875,0 0,0 0,2.84 0,2.84 m 0,0" id="path5005" /></g></svg>