<?xml version="1.0" encoding="UTF-8" standalone="no"?><svg xmlns:dc="http://purl.org/dc/elements/1.1/" xmlns:cc="http://creativecommons.org/ns#" xmlns:rdf="http://www.w3.org/1999/02/22-rdf-syntax-ns#" xmlns:svg="http://www.w3.org/2000/svg" xmlns="http://www.w3.org/2000/svg" id="svg6140" version="1.1" viewBox="0 0 10.583 10.584" height="40" width="40"><defs id="defs6134" /><path d="m 2.0386,3.35 c -0.4381,0.15 0.219,0.58 0.588,0.63 0.3228,0.15 0.8301,0.15 0.9569,0 C 3.7334,3.82 3.9178,3.76 4.2637,3.75 4.5519,3.75 4.7133,3.44 4.4597,3.36 4.2291,3.2 2.4421,3.2 2.0386,3.36 M 8.76,7.37 c -0.5303,0 -0.9454,-0.43 -0.9454,-0.96 0,-0.15 0,-0.3 0.1499,-0.44 0.2306,0.36 0.4727,0.65 0.807,0.89 0,0 0.1614,0 0.173,0 0.1729,0 0.2075,0 0.2651,-0.17 0.1614,-0.15 0,-0.36 0,-0.47 C 8.9791,6.03 8.7485,5.78 8.5525,5.44 c 0.1499,0 0.2075,0 0.3228,0 0.5303,0 0.9569,0.41 0.9569,0.95 0,0.54 -0.4266,0.94 -0.9569,0.94 M 2.0962,7.5 C 1.612,7.5 1.1509,7.05 1.1509,6.53 c 0,-0.51 0.4611,-0.95 0.9453,-0.95 0.3344,0 0.6341,0.18 0.8071,0.44 -0.5073,0.15 -0.8532,0.2 -0.8532,0.2 -0.1844,0 -0.2997,0.22 -0.2651,0.38 0,0.15 0.1844,0.27 0.3112,0.27 0,0 0,0 0,0 0,0 0.4151,0 0.8878,-0.2 0,0.46 -0.4381,0.87 -0.9454,0.87 m 6.779,-2.9 C 8.5525,4.64 8.3104,4.64 8.0798,4.8 7.9184,4.44 7.8146,4.07 7.6647,3.75 c 0,0 0,0 0,0 0,-0.16 -0.1498,-0.16 -0.1729,-0.22 0,0 0,-0.16 0,-0.16 0,-0.16 0,-0.23 -0.1499,-0.34 0,0 0.588,-0.34 0.588,-0.34 0.1614,0 0.1614,-0.21 0,-0.3 0,-0.15 -0.1614,-0.15 -0.2767,-0.15 0,0 -0.7378,0.46 -0.7378,0.46 -0.1614,0 -0.1614,0.18 -0.1614,0.27 0,0 0.1614,0.28 0.1614,0.45 0,0 0,0 0,0.15 0,0 -0.1614,0 -0.1614,0.17 0,0 -0.9454,0.91 -2.0061,1.49 -0.1499,0 -0.1499,0.16 -0.196,0.21 0,0 0,0 -0.1499,0 0,0 -0.5072,-1.22 -0.5072,-1.22 0,-0.16 -0.173,-0.16 -0.2998,-0.16 -0.1499,0 -0.1499,0.19 -0.1499,0.3 0,0 0.4727,1.25 0.4727,1.25 C 3.7795,5.61 3.6181,5.77 3.4451,5.78 3.1684,5.19 2.5459,4.76 1.7965,4.76 c -0.95692,0 -1.79854,0.82 -1.79854,1.79 0,1 0.84162,1.8 1.79854,1.8 1.0145,0 1.8216,-0.8 1.8216,-1.8 0,0 0,-0.16 0,-0.16 0.2075,0 0.3804,-0.16 0.5879,-0.21 0,0 0.1499,0.37 0.1499,0.37 0,0.16 0.1614,0.16 0.196,0.16 0,0 0,0 0.173,0 0.1498,0 0.1729,-0.17 0.1498,-0.3 0,0 -0.1498,-0.33 -0.1498,-0.33 0,0 0.1498,0 0.1959,-0.17 0,0 0,0 0.173,0 0,0 0.1499,0 0.196,0 C 6.1083,5.43 6.8462,4.82 7.2036,4.49 7.365,4.72 7.3881,4.96 7.4918,5.18 7.169,5.5 6.973,5.95 6.973,6.46 c 0,0.99 0.8186,1.8 1.7985,1.8 1.0031,0 1.8105,-0.81 1.8105,-1.8 0,-1.03 -0.8074,-1.81 -1.8105,-1.81" style="display:inline;fill:#ffffff;fill-opacity:1;fill-rule:nonzero;stroke:none;stroke-width:0.59178" id="path4947" /></svg>