<?xml version="1.0" encoding="UTF-8" standalone="no"?><svg xmlns:dc="http://purl.org/dc/elements/1.1/" xmlns:cc="http://creativecommons.org/ns#" xmlns:rdf="http://www.w3.org/1999/02/22-rdf-syntax-ns#" xmlns:svg="http://www.w3.org/2000/svg" xmlns="http://www.w3.org/2000/svg" xmlns:sodipodi="http://sodipodi.sourceforge.net/DTD/sodipodi-0.dtd" xmlns:inkscape="http://www.inkscape.org/namespaces/inkscape" version="1.1" id="svg53822" viewBox="0 0 48 48.000001" height="48" width="48" sodipodi:docname="29.svg" inkscape:version="0.92.3 (2405546, 2018-03-11)"><sodipodi:namedview pagecolor="#ffffff" bordercolor="#666666" borderopacity="1" objecttolerance="10" gridtolerance="10" guidetolerance="10" inkscape:pageopacity="0" inkscape:pageshadow="2" inkscape:window-width="1666" inkscape:window-height="930" id="namedview12" showgrid="false" inkscape:zoom="4.916667" inkscape:cx="24.40678" inkscape:cy="24" inkscape:window-x="0" inkscape:window-y="24" inkscape:window-maximized="0" inkscape:current-layer="svg53822" /><defs id="defs53824" /><path id="path28950" style="fill:#ffffff;fill-opacity:1;fill-rule:evenodd;stroke:none;stroke-width:3.6627252" d="m 47.84249,13.23145 0.1574,-2.30752 -1.39184,0.13736 L 40.6671,14.3028 40.04811,14.46762 33.10358,9.605353 31.8729,8.984521 h -1.00726 l -0.6959,0.164822 -0.619,0.219764 -6.32553,0.164822 -0.53842,0.164823 -6.17536,6.483028 -15.042811,-0.0824 -0.39192,0.0824 0.39192,0.30766 2.772674,0.38459 2.629855,0.21976 4.083922,0.0824 4.09128,0.0824 h 0.84609 l 0.69591,0.37909 0.77283,0.38459 0.31135,0.0824 0.61533,-0.0824 1.00358,-0.76368 1.23433,-1.39275 1.23436,-1.54659 0.61533,-0.84609 0.84975,-0.69775 0.77282,-0.13735 1.39185,0.0824 0.1574,0.30767 v 0.31042 l -4.71024,5.55452 -0.77286,3.09042 -5.47576,6.5572 -1.24166,0.38733 -1.23433,0.38733 -3.39535,0.92026 -3.626099,0.85433 -0.772853,0.46151 -0.461503,0.38458 -0.227181,1.08234 0.227181,0.69225 0.772853,0.62084 0.772826,0.13735 10.262956,-2.54376 1.15376,-0.53843 0.61899,-0.53842 0.53842,-0.62358 3.71035,-4.3156 0.76552,-0.62083 h 0.77302 l 1.46876,1.46692 1.38816,1.46692 0.92301,0.99992 0.93034,1.08234 0.53842,0.69775 0.23075,0.38458 -0.30766,1.77459 -0.30767,1.69768 -0.46519,1.92293 -0.54207,2.01358 -0.15384,0.99993 -0.15026,1.08508 0.22718,0.77192 0.46516,0.53018 1.23435,0.16482 1.0805,-0.85158 0.31132,-0.69226 0.30767,-1.38726 0.30402,-1.46417 0.77282,-3.1646 0.92669,-3.62609 0.1574,-1.08234 -0.38823,-0.76917 -0.53843,-0.77467 -0.84977,-0.84609 -0.69225,-0.85158 -1.46508,-1.69767 -1.46876,-1.70042 -0.31133,-0.69226 1.31493,-1.53834 4.78351,-5.56002 1.15741,-0.99992 h 0.69226 l 3.78361,2.62342 0.69591,0.37909 h 0.76917 l 4.55276,-2.46684 0.38459,-0.0824 0.38826,0.54117 -0.53842,1.23067 -0.46518,1.15651 -1.23433,2.47783 -1.00358,2.07677 -6.94452,14.59229 -2.01084,4.0876 -0.0733,0.38734 0.0733,0.16482 0.54573,-0.69775 0.53842,-0.61534 1.08417,-2.01083 0.84609,-2.08226 1.07684,-2.31301 3.08768,-6.17536 1.93027,-4.0876 1.38816,-2.85693 1.31125,-2.54376 0.99992,-2.00809 1.01459,-2.085 c 0,0 0.60801,-0.99993 0.84241,-1.07959" inkscape:connector-curvature="0" /><g id="g28952" transform="matrix(0,3.662724,-3.662724,0,42.90149,44.79773)" style="fill:#ffffff;fill-opacity:1"><path d="m 0,0 -0.041,-0.358 -0.084,-0.211 -0.107,-0.211 -0.126,-0.19 -0.168,-0.169 -0.273,-0.146 -0.128,-0.044 -0.041,0.107 0.169,0.104 0.147,0.086 v 0.062 l -0.254,-0.105 -0.021,-0.043 0.422,0.359 0.021,7.332 -0.168,0.063 -0.022,0.085 0.105,0.252 0.022,0.19 -0.611,1.032 -0.021,0.042 -0.486,0.738 -0.02,0.042 -1.115,1.77 -0.36,0.484 -0.021,0.105 -0.128,0.274 v 0.02 l 0.36,0.043 0.632,-0.99 0.612,-0.989 0.464,-0.697 0.442,-0.717 0.147,-0.189 0.105,0.021 v 0.801 l 0.149,0.212 0.103,0.041 0.148,-0.105 C -0.042,6.126 -0.058,3.065 0,0.084 V 0" style="fill:#ffffff;fill-opacity:1;fill-rule:evenodd;stroke:none" id="path28954" inkscape:connector-curvature="0" /></g><g id="g28956" transform="matrix(0,3.662724,-3.662724,0,37.11437,9.451518)" style="fill:#ffffff;fill-opacity:1"><path d="M 0,0 -0.104,-0.211 -0.211,-0.38 c -0.501,-0.549 -1.161,-0.338 -1.454,0.275 L -1.706,0.126 V 0.358 C -1.484,1.257 -0.326,1.424 0,0.505 L 0.021,0.253 0,0" style="fill:#ffffff;fill-opacity:1;fill-rule:evenodd;stroke:none" id="path28958" inkscape:connector-curvature="0" /></g></svg>