<?xml version="1.0" encoding="UTF-8" standalone="no"?><svg xmlns:dc="http://purl.org/dc/elements/1.1/" xmlns:cc="http://creativecommons.org/ns#" xmlns:rdf="http://www.w3.org/1999/02/22-rdf-syntax-ns#" xmlns:svg="http://www.w3.org/2000/svg" xmlns="http://www.w3.org/2000/svg" id="svg9573" version="1.1" viewBox="0 0 10.583 10.583" height="40" width="40"><defs id="defs9567" /><path style="display:inline;opacity:1;fill:#ffffff;fill-opacity:1;fill-rule:evenodd;stroke-width:0.02711" d="M 4.8,10.34 C 4.8,10.05 4.69,9.9 4.58,9.74 4.33,9.49 3.87,9.43 3.57,9.6 3.32,9.75 3.15,10.07 3.15,10.41 v 0.16 H 2.95 2.75 V 10.38 C 2.75,10.01 2.86,9.7 3.09,9.47 3.23,9.33 3.44,9.2 3.6,9.16 H 3.71 L 3.59,9.05 C 3.15,8.83 2.97,8.29 3.17,7.86 3.44,7.31 4.17,7.18 4.6,7.59 4.76,7.74 4.84,7.89 4.87,8.1 4.87,8.48 4.74,8.87 4.38,9.05 L 4.27,9.16 h 0.16 c 0.33,0.12 0.59,0.37 0.71,0.68 0,0.12 0.12,0.23 0.12,0.45 v 0.29 H 5.05 4.85 Z M 4.17,8.7 C 4.28,8.7 4.32,8.58 4.36,8.55 4.47,8.44 4.47,8.42 4.47,8.27 c 0,-0.16 0,-0.2 -0.11,-0.29 -0.19,-0.25 -0.53,-0.27 -0.74,0 -0.18,0.21 -0.18,0.44 0,0.65 0.15,0.16 0.34,0.2 0.54,0.11 z M 7.3,10.4 C 7.3,9.92 7.07,9.62 6.65,9.53 6.12,9.41 5.7,9.76 5.65,10.35 v 0.22 H 5.45 5.25 V 10.4 C 5.25,10.02 5.36,9.73 5.59,9.5 5.73,9.33 5.88,9.24 6.07,9.17 H 6.21 L 6.1,9.06 C 5.71,8.88 5.5,8.42 5.62,8.03 5.73,7.62 6.06,7.36 6.48,7.36 6.83,7.36 7.13,7.54 7.29,7.86 7.4,8.08 7.41,8.23 7.4,8.45 7.29,8.73 7.16,8.94 6.89,9.07 H 6.78 6.94 c 0.3,0.11 0.52,0.31 0.67,0.59 0.11,0.18 0.12,0.34 0.12,0.6 v 0.23 H 7.53 7.32 Z M 6.66,8.71 C 6.86,8.59 6.95,8.47 6.95,8.24 6.95,7.86 6.46,7.63 6.18,7.89 6.04,8.01 5.99,8.11 5.99,8.27 c 0,0.21 0.12,0.36 0.31,0.44 0.13,0.11 0.23,0.11 0.36,0 z M 1.9,6.14 c 0,-0.36 0,-1.89 0,-3.4 V 0 h 3.39 3.4 V 3.4 6.8 H 5.3 1.9 Z M 8.3,5.97 V 5.56 L 7.49,4.72 C 7.06,4.25 6.69,3.88 6.68,3.88 c 0,0 -0.24,0.25 -0.5,0.55 -0.45,0.51 -0.48,0.54 -0.51,0.48 0,0 -0.34,-0.36 -0.7,-0.76 L 4.33,3.43 4.21,3.55 c 0,0 -0.5,0.54 -1.01,1.1 L 2.27,5.66 v 0.38 0.38 h 3 2.98 z M 3.48,3.75 c 0.45,-0.5 0.84,-0.89 0.86,-0.89 0,0 0.33,0.34 0.69,0.73 0.37,0.41 0.68,0.75 0.69,0.74 0,0 0.23,-0.24 0.49,-0.53 L 6.69,3.25 6.8,3.37 c 0,0 0.4,0.42 0.78,0.82 0.4,0.42 0.73,0.76 0.74,0.76 0,0 0,-1.01 0,-2.23 V 0.47 H 5.31 2.32 V 2.78 5.07 L 2.48,4.89 C 2.59,4.77 3.02,4.3 3.48,3.8 Z M 5.81,2.76 C 5.55,2.76 5.31,2.53 5.19,2.28 5.19,2.15 5.08,2.1 5.08,1.88 c 0,-0.28 0,-0.42 0.21,-0.6 0.35,-0.4 1,-0.39 1.35,0 0.28,0.33 0.27,0.85 0,1.17 C 6.44,2.69 6.07,2.8 5.78,2.74 Z M 6.23,2.3 c 0.34,-0.2 0.33,-0.67 0,-0.85 -0.11,0 -0.31,0 -0.42,0 -0.14,0.11 -0.28,0.27 -0.28,0.43 0,0.17 0.14,0.37 0.28,0.44 0.13,0 0.34,0 0.45,0 z" id="path9554" /></svg>