<?xml version="1.0" encoding="UTF-8" standalone="no"?><svg xmlns:dc="http://purl.org/dc/elements/1.1/" xmlns:cc="http://creativecommons.org/ns#" xmlns:rdf="http://www.w3.org/1999/02/22-rdf-syntax-ns#" xmlns:svg="http://www.w3.org/2000/svg" xmlns="http://www.w3.org/2000/svg" xml:space="preserve" viewBox="0 0 523.29 523.29" height="523.29" width="523.29" y="0px" x="0px" id="ico" version="1.1"><defs id="defs41" /><circle style="fill:#ffffff;fill-opacity:1" cx="146.66" cy="46.579" r="46.579" id="circle2" /><path style="fill:#ffffff;fill-opacity:1" d="m 503.03,159.07 c -11.16,-4.7 -23.1,-10.91 -32.74,-17.67 -4.33,-3.02 -6.08,-1.81 -4.26,3.14 l 3.21,8.72 -37.37,0.22 C 424.63,17.356 301.08,4.581 299.8,4.466 c -7.85,-0.688 -14.87,5.097 -15.58,12.996 -0.71,7.879 5.1,14.869 12.99,15.577 4.19,0.373 99.22,10.279 105.93,120.601 l -77.36,0.46 c -3.64,-11.68 -14.4,-20.22 -27.27,-20.22 H 199 c -4.39,-10.24 -14.54,-17.41 -26.37,-17.41 h -50.2 L 58.124,84.331 C 43.943,77.255 26.711,82.983 19.635,97.164 12.55,111.35 18.287,128.56 32.458,135.65 l 59.565,29.77 V 278.58 L 34.82,487 c -4.198,15.28 4.791,31.06 20.071,35.27 2.544,0.68 5.097,1.02 7.612,1.02 12.594,0 24.146,-8.37 27.646,-21.11 L 141.93,313.53 h 8.94 l 47.98,188.15 c 3.3,12.97 14.97,21.61 27.77,21.61 2.35,0 4.74,-0.28 7.11,-0.9 15.35,-3.9 24.62,-19.54 20.71,-34.88 L 201.31,279.12 v -87.86 h 97.19 c 12.07,0 22.35,-7.46 26.6,-18.03 16.79,-0.1 48.15,-0.27 78.08,-0.45 -3.95,96.93 -90.97,125.88 -94.73,127.06 -7.56,2.34 -11.79,10.39 -9.45,17.95 1.92,6.15 7.58,10.09 13.7,10.09 1.4,0 2.84,-0.2 4.25,-0.63 1.14,-0.35 111.17,-35.99 115.09,-154.64 15.77,-0.1 29.27,-0.17 37.31,-0.22 l -3.12,8.74 c -1.77,4.99 0,6.17 4.3,3.08 9.57,-6.85 21.43,-13.18 32.54,-18.04 4.85,-2.12 4.83,-5.04 0,-7.1 z" id="path4" /></svg>