<?xml version="1.0" encoding="UTF-8" standalone="no"?><svg xmlns:dc="http://purl.org/dc/elements/1.1/" xmlns:cc="http://creativecommons.org/ns#" xmlns:rdf="http://www.w3.org/1999/02/22-rdf-syntax-ns#" xmlns:svg="http://www.w3.org/2000/svg" xmlns="http://www.w3.org/2000/svg" version="1.1" id="ico" x="0px" y="0px" viewBox="0 0 48 48" xml:space="preserve" width="48" height="48"><defs id="defs39"></defs><path d="m 1.343,37.064 c 0,0 2.626,0 2.626,0 0,0 0,-1.649 0,-1.649 0,-0.733 0.611,-1.282 1.283,-1.282 0,0 41.463,0 41.463,0 0.733,0 1.285,0.61 1.285,1.282 0,0 0,9.774 0,9.774 0,0.729 -0.612,1.342 -1.285,1.342 0,0 -41.463,0 -41.463,0 -0.733,0 -1.283,-0.613 -1.283,-1.342 0,0 0,-1.652 0,-1.652 0,0 -2.626,0 -2.626,0 -0.73198,0 -1.342985,-0.612 -1.342985,-1.281 0,0 0,-3.849 0,-3.849 0,-0.732 0.611005,-1.343 1.342985,-1.343 m 0,1.221 c 0,0 0,3.971 0,3.971 0,0 2.748,0 2.748,0 0,0 0,-3.91 0,-3.91 0,0 -2.748,0 -2.748,0 m 4.031,-2.931 c 0,0 0,9.83 0,9.83 0,0 12.763,0 12.763,0 0,0 0,-9.83 0,-9.83 0,0 -12.702,0 -12.702,0 m 30.717,5.983 c 0,0 8.242,0 8.242,0 0,0 0,-2.075 0,-2.075 0,0 -8.242,0 -8.242,0 0,0 0,2.075 0,2.075 M 10.198,36.147 c 0,0 2.321,0 2.321,0 0,0 0,2.993 0,2.993 0,0 2.992,0 2.992,0 0,0 0,2.318 0,2.318 0,0 -2.992,0 -2.992,0 0,0 0,2.994 0,2.994 0,0 -2.321,0 -2.321,0 0,0 0,-2.994 0,-2.994 0,0 -2.992,0 -2.992,0 0,0 0,-2.318 0,-2.318 0,0 2.992,0 2.992,0 0,0 0,-2.993 0,-2.993 m 28.65,-24.491 c -0.374,0 -0.742,0.02 -1.106,0.07 l -2.28,-7.8074 c 0.223,-0.259 0.358,-0.596 0.358,-0.964 0,-0.82 -0.665,-1.4856 -1.485,-1.4856 h -6.123 c -0.819,0 -1.484,0.6656 -1.484,1.4856 0,0.819 0.665,1.484 1.484,1.484 h 3.879 l -1.578,2.509 c -0.07,-0.02 -0.141,-0.02 -0.212,-0.02 l -13.256,0.193 c 0.328,-0.273 0.537,-0.685 0.537,-1.143 0,-0.821 -0.663,-1.485 -1.484,-1.485 h -3.576 c -0.819,0 -1.484,0.664 -1.484,1.485 0,0.819 0.665,1.484 1.484,1.484 h 0.267 c 0.04,0.132 0.09,0.263 0.165,0.386 l 0.596,0.981 -1.645,3.2464 c -0.871,-0.273 -1.797,-0.423 -2.7576,-0.423 -5.0449,0 -9.14936,4.104 -9.14936,9.15 0,5.044 4.10446,9.148 9.14936,9.148 4.3566,0 8.0086,-3.061 8.9266,-7.146 l 4.894,0.284 c 0.03,0 0.06,0 0.09,0 0.509,0 0.984,-0.262 1.257,-0.695 L 33.501,7.7716 34.896,12.55 c -3.07,1.478 -5.192,4.619 -5.192,8.249 0,5.044 4.104,9.148 9.148,9.148 5.046,0 9.15,-4.104 9.15,-9.148 0,-5.046 -4.104,-9.15 -9.15,-9.15 z m -23.483,0.166 4.947,8.142 -2.066,-0.119 C 17.97,17.216 16.576,14.914 14.551,13.428 Z M 2.9669,20.806 c 0,-3.409 2.7726,-6.182 6.1805,-6.182 0.4771,0 0.9416,0.06 1.3876,0.159 l -2.7117,5.352 c -0.2263,0.446 -0.2124,0.976 0.037,1.41 0.2497,0.435 0.7012,0.714 1.201,0.742 l 5.9897,0.347 c -0.781,2.518 -3.132,4.351 -5.9039,4.351 -3.4079,0 -6.1805,-2.771 -6.1805,-6.179 z m 8.5291,-1.351 1.686,-3.327 c 1.04,0.9 1.777,2.138 2.04,3.542 z M 23.073,18.79 17.783,10.085 28.64,9.9283 Z m 15.775,8.195 c -3.408,0 -6.18,-2.771 -6.18,-6.179 0,-2.278 1.237,-4.268 3.075,-5.341 l 1.68,5.756 c 0.232,0.787 1.055,1.24 1.842,1.01 0.787,-0.23 1.238,-1.056 1.008,-1.843 l -1.682,-5.756 c 0.09,0 0.171,0 0.257,0 3.408,0 6.181,2.773 6.181,6.181 0,3.408 -2.773,6.18 -6.181,6.18 z" style="fill:#ffffff;fill-opacity:1;stroke-width:2.52353" id="path949" /></svg>