<?xml version="1.0" encoding="UTF-8" standalone="no"?><svg xmlns:dc="http://purl.org/dc/elements/1.1/" xmlns:cc="http://creativecommons.org/ns#" xmlns:rdf="http://www.w3.org/1999/02/22-rdf-syntax-ns#" xmlns:svg="http://www.w3.org/2000/svg" xmlns="http://www.w3.org/2000/svg" xml:space="preserve" style="enable-background:new 0 0 226.969 226.969;" viewBox="0 0 226.969 226.969" y="0px" x="0px" id="Capa_1" version="1.1"><defs id="defs41"></defs><path style="fill:#ffffff;fill-opacity:1" d="m 217.29,83.307 c -1.03,0 -2.08,0.146 -3.13,0.436 L 203.14,86.779 191.49,58.398 C 188,49.892 177.68,42.971 168.48,42.971 h -7.75 V 19.442 c 0,-4.136 -3.37,-7.5 -7.5,-7.5 H 73.742 c -4.136,0 -7.5,3.364 -7.5,7.5 v 23.529 h -7.913 c -9.195,0 -19.518,6.92 -23.009,15.426 L 23.684,86.739 12.805,83.742 C 11.756,83.453 10.704,83.306 9.681,83.306 4.072,83.307 0,87.593 0,93.497 v 6.032 c 0,6.891 5.608,12.501 12.5,12.501 h 0.802 l -1.664,4.05 c -3.244,7.9 -5.884,21.28 -5.884,29.83 v 56.62 c 0,6.89 5.607,12.5 12.5,12.5 h 15.027 c 6.893,0 12.5,-5.61 12.5,-12.5 V 188.61 H 181.03 v 13.92 c 0,6.89 5.61,12.5 12.5,12.5 h 15.02 c 6.9,0 12.5,-5.61 12.5,-12.5 v -56.62 c 0,-8.55 -2.64,-21.93 -5.88,-29.83 l -1.66,-4.05 h 0.96 c 6.89,0 12.5,-5.61 12.5,-12.501 v -6.032 c 0,-5.904 -4.07,-10.19 -9.68,-10.19 z M 143.61,21.944 c 0,-0.165 0.14,-0.3 0.3,-0.3 h 5.78 c 0.16,0 0.3,0.135 0.3,0.3 v 20.797 c 0,0.1 -0.1,0.175 -0.13,0.23 h -6.12 c -0.1,-0.05 -0.13,-0.13 -0.13,-0.23 z m -41.44,-0.3 h 6.94 c 0.17,0 0.35,0.125 0.42,0.279 l 8.24,20.716 7.55,-9.345 c 0.1,-0.128 0.11,-0.346 0,-0.483 l -7.25,-10.917 c -0.1,-0.138 0,-0.25 0.14,-0.25 h 6.42 c 0.16,0 0.37,0.115 0.46,0.255 l 3.73,6.062 c 0.1,0.141 0.23,0.141 0.32,0 l 3.74,-6.062 c 0.1,-0.141 0.29,-0.255 0.45,-0.255 h 6.43 c 0.16,0 0.22,0.112 0.13,0.25 l -7.25,10.917 c -0.1,0.138 -0.1,0.355 0,0.483 l 7.69,9.514 c 0,0.06 0.1,0.122 0,0.164 h -6.81 c -0.1,-0.05 -0.17,-0.11 -0.22,-0.185 l -4.22,-6.755 c -0.1,-0.14 -0.23,-0.14 -0.32,0 l -4.21,6.755 c 0,0.08 -0.13,0.138 -0.22,0.185 h -12.85 c -0.1,-0.05 -0.16,-0.124 -0.19,-0.215 l -1.42,-4.336 c 0,-0.157 -0.22,-0.285 -0.39,-0.285 h -7.87 c -0.16,0 -0.34,0.127 -0.4,0.283 l -1.524,4.34 c -0.03,0.09 -0.108,0.162 -0.197,0.213 H 93.39 c -0.05,-0.05 -0.07,-0.121 -0.03,-0.208 l 8.4,-20.84 c 0.1,-0.155 0.25,-0.28 0.41,-0.28 z M 81.852,42.741 v -16.52 c 0,-0.165 -0.135,-0.3 -0.3,-0.3 h -6.945 c -0.165,0 -0.3,-0.135 -0.3,-0.3 v -3.678 c 0,-0.165 0.135,-0.3 0.3,-0.3 h 20.91 c 0.165,0 0.3,0.135 0.3,0.3 v 3.678 c 0,0.165 -0.135,0.3 -0.3,0.3 h -6.985 c -0.165,0 -0.3,0.135 -0.3,0.3 v 16.52 c 0,0.1 -0.06,0.175 -0.132,0.23 h -6.116 c -0.07,-0.05 -0.132,-0.13 -0.132,-0.23 z M 32.516,105.06 50.221,61.933 c 2.089,-5.088 8.298,-9.251 13.798,-9.251 h 98.771 c 5.5,0 11.71,4.163 13.8,9.251 l 17.7,43.127 c 2.09,5.09 -0.7,9.25 -6.2,9.25 H 38.718 c -5.5,0 -8.291,-4.16 -6.202,-9.25 z m 39.996,55.54 c 0,2.75 -2.25,5 -5,5 H 33.718 c -2.75,0 -5,-2.25 -5,-5 v -16.03 c 0,-2.75 2.25,-5 5,-5 h 33.794 c 2.75,0 5,2.25 5,5 z m 125.258,0 c 0,2.75 -2.25,5 -5,5 h -33.8 c -2.75,0 -5,-2.25 -5,-5 v -16.03 c 0,-2.75 2.25,-5 5,-5 h 33.8 c 2.75,0 5,2.25 5,5 z" id="path2" /><path style="fill:#ffffff;fill-opacity:1" d="m 108.16,33.858 c 0.16,0 0.24,-0.124 0.18,-0.275 l -2.49,-5.751 c -0.1,-0.151 -0.18,-0.153 -0.25,0 l -2.64,5.757 c -0.1,0.15 0,0.272 0.18,0.272 z" id="path4" /></svg>