<?xml version="1.0" encoding="UTF-8" standalone="no"?><svg xmlns:dc="http://purl.org/dc/elements/1.1/" xmlns:cc="http://creativecommons.org/ns#" xmlns:rdf="http://www.w3.org/1999/02/22-rdf-syntax-ns#" xmlns:svg="http://www.w3.org/2000/svg" xmlns="http://www.w3.org/2000/svg" id="svg6185" version="1.1" viewBox="0 0 12.7 12.7" height="48" width="48"><defs id="defs6179" /><path style="display:inline;fill:#ffffff;fill-opacity:1;fill-rule:evenodd;stroke-width:0.33421" id="path522-4" d="m 10.87,6.3599 c 0,-0.24 0.21,-0.4275 0.45,-0.4275 0.275,0 0.503,0.1575 0.503,0.4275 v 0.09 c 0,0.2326 -0.23,0.4353 -0.468,0.4353 h -0.04 c -0.224,0 -0.449,-0.1944 -0.449,-0.4203 z M 5.2807,6.2849 c 0,-0.1875 0.2566,-0.3525 0.4675,-0.3525 0.2441,0 0.4852,0.195 0.4852,0.4125 v 0.12 c 0,0.2099 -0.2364,0.4198 -0.4672,0.4198 -0.2516,0 -0.4855,-0.1574 -0.4855,-0.3973 z M 9.738,4.0274 c 0,-0.4125 0.355,-0.8324 0.736,-0.8324 h 0.199 c 0.394,0 0.736,0.4274 0.736,0.8324 z m 2.445,0 h -0.378 c -0.08,0 -0.05,-0.082 -0.05,-0.165 C 11.715,3.3149 11.195,2.835 10.587,2.835 9.919,2.835 9.383,3.3524 9.383,4.0274 H 4.9406 c -0.1147,0 -0.2339,-0.12 -0.2339,-0.24 0,-0.1875 0.2604,-0.9675 0.3163,-1.23 C 5.063,2.3774 5.1259,2.1225 5.1845,1.95 5.2195,1.845 5.2899,1.3799 5.3716,1.3799 h 6.3974 c 0.02,0.1575 0.252,0.975 0.316,1.1625 0.04,0.098 0.314,1.1325 0.314,1.155 v 0.09 c 0,0.1125 -0.103,0.2175 -0.215,0.2175 z M 6.485,0.63 c 0,-0.12003 0.1852,-0.28502 0.3054,-0.28502 h 3.4686 c 0.176,0 0.359,0.16499 0.359,0.33748 V 0.79498 C 10.618,0.93744 10.528,1.08 10.385,1.08 H 6.8265 C 6.6488,1.08 6.485,0.91492 6.485,0.74242 Z m 0.053,7.7101 c 0.1,-0.072 2.2196,0 2.5342,0 0.4253,0 0.8508,0 1.2758,0 0.343,0 0.253,0 0.253,0.3754 0,0.2098 0,0.4197 0,0.6295 0.01,0.1347 0.106,0.18 0.25,0.18 h 1.061 c 0.103,0 0.215,-0.1121 0.215,-0.217 V 8.3401 h 0.07 c 0.257,0 0.503,-0.2921 0.503,-0.5554 V 3.6149 c 0,-0.075 -0.209,-0.9 -0.244,-0.9975 C 12.356,2.3474 12.27,1.9199 12.2,1.6349 12.125,1.32 12.008,0.97498 11.941,0.65993 11.873,0.36 11.705,0 11.376,0 H 5.7482 C 5.6194,0 5.4056,0.13495 5.3452,0.22495 5.2174,0.41997 5.2482,0.47253 5.1728,0.68246 5.1188,0.83242 5.0914,1.0199 5.0369,1.1775 4.9964,1.2974 4.9293,1.5524 4.9077,1.6574 4.8497,1.95 4.7237,2.3699 4.6373,2.6474 4.5973,2.775 4.3822,3.5474 4.3822,3.6299 v 4.0426 c 0,0.3827 0.2314,0.6676 0.6112,0.6676 v 0.9524 c 0,0.105 0.071,0.2325 0.1617,0.2325 h 1.1862 c 0.3079,0 0.1975,-0.8475 0.1975,-1.1695 z" /><path d="m 6.6146,11.314 c 0,-0.05 -0.01,-0.08 -0.016,-0.104 -0.01,-0.03 -0.093,-0.1 -0.2452,-0.19 C 6.2001,10.93 6.0096,10.821 5.7814,10.701 L 5.439,10.513 c -0.022,-0.01 -0.063,-0.04 -0.1227,-0.08 -0.061,-0.04 -0.1141,-0.07 -0.1615,-0.1 -0.048,-0.02 -0.093,-0.03 -0.1357,-0.03 -0.077,0 -0.1787,0.07 -0.3035,0.21 -0.1249,0.14 -0.2477,0.281 -0.3684,0.423 -0.1204,0.142 -0.2152,0.214 -0.2841,0.214 -0.03,0 -0.065,0 -0.1066,-0.03 C 3.9155,11.1 3.8825,11.09 3.8564,11.08 3.8304,11.06 3.7944,11.05 3.7466,11.02 3.6986,10.99 3.6696,10.97 3.6556,10.96 3.2298,10.728 2.8627,10.456 2.5548,10.148 2.2469,9.8401 1.9745,9.473 1.7377,9.0467 1.7288,9.0338 1.711,9.004 1.6828,8.9562 1.6546,8.9087 1.6344,8.8723 1.6215,8.8465 1.6086,8.8207 1.5949,8.7876 1.5796,8.7464 1.5643,8.7053 1.557,8.6698 1.557,8.6398 1.557,8.5841 1.6014,8.5116 1.6894,8.4234 1.7777,8.3351 1.8746,8.2522 1.9801,8.1747 2.0856,8.0973 2.1825,8.0121 2.2708,7.9195 2.359,7.827 2.4032,7.7483 2.4032,7.6837 2.4032,7.641 2.3927,7.5955 2.371,7.5481 2.3492,7.5008 2.3169,7.4469 2.2739,7.3866 2.2308,7.3263 2.2028,7.2854 2.1899,7.2639 2.177,7.2381 2.1447,7.1766 2.093,7.0798 2.0413,6.9829 1.9875,6.8849 1.9315,6.7858 1.8755,6.6868 1.8185,6.5845 1.7603,6.479 1.7022,6.3735 1.6484,6.2863 1.5988,6.2174 1.5493,6.1485 1.5138,6.1097 1.4923,6.1012 1.4705,6.0923 1.4366,6.0883 1.3889,6.0883 1.1822,6.0883 0.96468,6.1358 0.73653,6.2304 0.53839,6.3208 0.36613,6.5242 0.21968,6.8408 0.07331,7.1573 0,7.4383 0,7.6837 c 0,0.069 0.00806,0.1422 0.01613,0.2196 0.01048,0.078 0.02177,0.1433 0.03226,0.197 0.01048,0.054 0.02984,0.125 0.05806,0.2133 0.0282,0.088 0.0492,0.1517 0.0645,0.1905 0.0153,0.039 0.0419,0.1098 0.0807,0.2132 0.0387,0.1033 0.0621,0.1679 0.071,0.1938 0.25839,0.7062 0.72465,1.3959 1.39855,2.0699 0.674,0.674 1.364,1.141 2.0702,1.399 0.026,0 0.091,0.03 0.1939,0.07 0.1033,0.04 0.1744,0.07 0.2132,0.08 0.039,0.02 0.1022,0.03 0.1905,0.06 0.088,0.02 0.1593,0.05 0.2132,0.06 0.054,0 0.1195,0.02 0.197,0.03 0.077,0 0.1507,0.02 0.2197,0.02 0.2454,0 0.5264,-0.07 0.8429,-0.219 0.317,-0.147 0.5205,-0.32 0.6108,-0.517 0.094,-0.229 0.142,-0.446 0.142,-0.653 z" id="path31" style="fill:#ffffff;fill-opacity:1;stroke-width:0.03722" /></svg>