<?xml version="1.0" encoding="UTF-8" standalone="no"?><svg xmlns:dc="http://purl.org/dc/elements/1.1/" xmlns:cc="http://creativecommons.org/ns#" xmlns:rdf="http://www.w3.org/1999/02/22-rdf-syntax-ns#" xmlns:svg="http://www.w3.org/2000/svg" xmlns="http://www.w3.org/2000/svg" version="1.1" id="svg2" height="48" width="48"><defs id="defs11" /><path id="path6" d="M 33.744241,-0.46581219 C 32.944092,-0.40232456 32.236366,0.15577601 31.678,0.75534372 31.311813,1.1485624 31.167133,1.6339036 30.576604,1.7598269 30.02735,1.8769851 29.482773,1.7882213 28.947524,1.878407 28.59275,1.9381588 28.385773,2.2748507 28.027643,2.3419692 27.580417,2.4257861 27.17385,2.34582 26.732014,2.3955162 25.962074,2.4820651 25.219734,2.781259 24.461802,2.9333985 24.050703,3.0159199 23.648393,2.9456954 23.229139,3.0590786 22.82224,3.1691003 22.480985,3.4975531 22.096588,3.6740953 21.17818,4.0958001 20.0993,4.5172951 19.287902,5.1292236 18.922976,5.4044455 19.089254,5.9031412 18.759937,6.2239853 18.493111,6.4840256 18.136905,6.592401 17.854144,6.8258742 16.937447,7.5829316 16.026711,8.7032015 15.994406,9.9492069 15.973907,10.740432 16.419373,11.510741 16.693564,12.205048 17.023118,13.03973 17.394913,13.874553 17.715701,14.714822 17.804775,14.948198 17.772857,15.214965 17.866531,15.436398 18.092063,15.969605 18.708563,16.397433 18.995071,16.91899 19.143661,17.18947 19.066249,17.520448 19.169663,17.808069 19.261734,18.064132 19.365494,18.567561 19.532615,18.768715 19.747934,19.027993 20.106488,19.066594 20.24509,19.408469 20.358337,19.687806 20.055099,20.682933 19.911934,20.964697 19.802973,21.179185 19.248678,22.156867 18.993766,22.141915 18.777169,22.129203 18.697884,21.799742 18.615629,21.645535 18.384184,21.211516 18.060074,20.795135 17.739949,20.42312 16.743766,19.265602 15.421618,18.413477 13.98014,17.923936 10.214781,16.645078 5.7482839,18.317364 3.8312823,21.83142 1.5299572,26.049976 3.210667,31.478084 7.5714112,33.572982 9.1905372,34.350828 10.90689,34.486619 12.665742,34.273044 14.108964,34.097811 15.593387,33.104702 16.663261,32.180218 17.011544,31.879283 17.433142,31.006877 17.906489,30.903377 18.144641,30.851353 18.373341,31.283583 18.492972,31.43774 18.740604,31.757014 19.066595,31.922109 19.470166,31.954976 19.993162,31.997618 20.704425,32.033132 21.143312,31.696424 21.460218,31.453294 21.707423,30.892885 22.077138,30.754569 22.605536,30.556946 23.416184,30.942748 23.956668,30.908749 24.465107,30.876811 24.893145,30.485604 25.246729,30.157792 L 25.241734,30.101699 C 25.158188,29.576313 26.561611,29.397063 26.86308,28.983769 27.057672,28.716987 27.034355,28.383434 26.938502,28.084795 26.878578,27.898178 26.685471,27.68286 26.834898,27.496825 26.98347,27.311941 27.270318,27.304048 27.471804,27.208645 27.841794,27.033441 28.177162,26.77859 28.547946,26.595118 29.792926,25.979179 30.974352,25.22724 32.215927,24.611149 32.873799,24.28468 33.504457,23.898904 34.158039,23.563598 34.338084,23.47118 34.71094,23.19542 34.897684,23.37758 35.164182,23.637504 34.904886,24.443368 34.898468,24.77509 34.878368,25.807081 34.835509,26.856759 34.868213,27.887439 34.883466,28.36853 35.041466,29.040832 34.751385,29.472108 34.554275,29.765174 34.02369,29.823695 33.707708,29.934327 33.017246,30.176177 32.357904,30.510301 31.761372,30.93455 29.362587,32.640476 27.993967,35.410434 27.963146,38.340213 27.905736,43.79972 32.941804,48.612824 38.478242,47.314018 39.359819,47.107219 40.216644,46.773022 40.988486,46.297145 41.804869,45.793836 42.592592,45.147041 43.188068,44.390942 43.930691,43.447942 44.508389,42.344805 44.841285,41.190593 45.246142,39.786742 45.291063,38.313739 45.062875,36.87388 44.670386,34.397985 43.127002,32.081183 41.017038,30.746323 40.415309,30.365633 39.749436,30.044935 39.069755,29.831364 38.741637,29.728227 38.20607,29.716812 37.934633,29.504878 37.67888,29.305174 37.397225,28.751947 37.227507,28.468873 37.060449,28.190371 37.112567,27.716792 37.144854,27.40199 37.223196,26.639253 36.943415,25.549428 37.236561,24.840724 37.289452,24.71287 37.458862,24.676328 37.542817,24.569625 37.789962,24.255532 38.164907,23.698517 38.192521,23.294404 38.256235,22.362334 37.37349,21.152535 38.169402,20.356423 38.055119,20.089051 37.942869,19.790867 37.774452,19.552344 37.705934,19.455261 37.48496,19.370357 37.475301,19.248584 37.454833,18.991402 37.788506,19.019228 37.909521,19.144541 38.194589,19.439728 38.326811,19.961613 38.505965,20.32645 38.708399,20.277268 38.886941,20.223203 38.929744,20.006014 39.26451,20.070168 39.373517,20.685811 39.708971,20.562081 39.875492,20.500662 39.966945,20.300709 39.992728,20.137501 40.053921,19.750471 39.983796,19.335102 40.042079,18.945784 40.084062,18.665626 40.225605,18.436475 40.17022,18.142824 40.052229,17.516983 39.311048,17.289865 38.996132,16.823305 38.865403,16.629596 38.959711,16.377542 38.859986,16.167561 38.500324,15.410022 37.921086,14.734287 37.471659,14.029635 37.238834,13.664602 37.185809,13.21253 36.864131,12.901717 36.343557,12.398801 35.795591,11.903878 35.337721,11.336181 35.189634,11.152556 34.945203,10.98701 34.872584,10.755674 34.572638,9.8007535 34.903316,8.7395472 35.736525,8.2157435 36.054722,8.015696 36.684616,8.1282407 36.837695,7.6847968 36.894873,7.519247 36.958862,6.8969181 36.773503,6.8053214 36.642863,6.740798 35.830483,6.9687436 35.952833,6.5179717 35.99816,6.3508191 36.257427,6.338557 36.340615,6.1901399 36.46658,5.9654293 36.43403,5.6948188 36.58988,5.4576671 36.854868,5.0543493 37.303993,4.9203555 37.674053,4.6367038 37.820389,4.5245012 37.961611,4.2881291 38.148143,4.246413 38.636529,4.1371627 40.529211,5.2599445 40.461883,4.0385883 40.433583,3.5259801 39.448619,3.0824429 39.098366,2.794246 37.703493,1.6465646 36.317559,0.29676591 34.572708,-0.34877442 34.287678,-0.45422787 34.010953,-0.4869752 33.744241,-0.46581219 Z M 26.997184,11.047132 C 27.28936,11.02917 27.503159,11.321306 27.788963,11.367093 27.988339,11.399034 28.177021,11.273788 28.375068,11.321963 28.5997,11.376532 28.728358,11.581803 28.92506,11.684657 29.895513,12.192062 30.723492,12.972843 31.502587,13.764379 31.764789,14.030736 32.282638,14.088424 32.4911,14.36895 32.820524,14.812393 32.788544,15.384011 32.933721,15.847255 32.989577,16.025693 33.347252,16.767381 33.484207,16.890142 33.604083,16.997578 33.776624,17.016206 33.896118,17.130855 34.104709,17.330972 34.149243,17.644756 34.332302,17.862356 34.469903,18.025938 34.685643,18.005408 34.844063,18.133045 35.181016,18.404504 35.036624,18.866652 35.027688,19.222739 35.018911,19.570559 35.21829,19.971843 34.75722,20.133787 34.396909,20.260353 33.944438,20.155045 33.571589,20.1528 33.022344,20.149417 32.487196,20.210926 31.935484,20.192498 31.282834,20.170732 30.622445,20.320375 29.970623,20.349816 29.184944,20.385243 28.38217,20.330908 27.603733,20.436928 27.055618,20.511525 26.412414,20.479023 25.855445,20.486616 25.682307,20.488976 25.438132,20.474735 25.34257,20.302601 25.261952,20.157296 25.344673,19.96161 25.32819,19.803865 25.274232,19.287434 25.195305,18.750105 25.079631,18.242903 25.04118,18.074561 24.82282,17.761274 24.998889,17.614028 25.170167,17.470713 26.018296,17.883297 26.250801,17.94248 26.398609,17.980088 26.660136,17.925659 26.657181,17.724303 26.653844,17.493807 26.310123,17.331903 26.133663,17.262074 25.637752,17.065777 24.974927,17.102009 24.62051,16.638854 24.386378,16.332796 24.331193,15.778666 24.212644,15.411881 24.062942,14.948644 23.693059,14.547449 23.520233,14.0848 23.366799,13.674195 23.443382,13.231572 23.291383,12.804782 23.17643,12.482116 22.560948,11.870078 22.8649,11.567096 23.066795,11.365816 23.689586,11.525455 23.98083,11.499517 25.003534,11.408438 25.930105,11.261153 26.937896,11.055947 26.95811,11.051832 26.977706,11.048331 26.997184,11.047132 Z M 10.999386,19.54987 C 11.609701,19.499386 12.476647,19.479455 12.626082,19.860846 13.046768,19.743096 13.527975,20.015531 13.900438,20.203202 15.017572,20.76607 15.78614,21.649488 16.43978,22.6874 16.64095,23.006798 17.197502,23.882637 16.933053,24.258372 16.802169,24.444338 16.563514,24.398665 16.368238,24.423518 15.890976,24.484285 15.243679,24.612776 14.785108,24.423161 14.23085,24.193954 13.759067,23.79567 13.185326,23.600934 12.246439,23.282273 11.054094,23.405367 10.225948,23.998773 9.7386835,24.347875 9.6611446,24.936414 9.3023934,25.333719 9.1550953,25.49678 8.9177917,25.489784 8.7377035,25.599565 8.5649097,25.704851 8.4622201,25.888321 8.3064303,26.014313 8.1051598,26.176977 7.6536558,26.3527 7.7196462,26.686735 7.8047297,27.11711 8.8274086,27.181629 9.1594032,27.279388 9.4525507,27.365624 9.5697014,27.632442 9.7523577,27.846744 9.9081041,28.029403 10.188895,28.163499 10.287994,28.385635 10.446442,28.740726 10.047002,29.472707 9.7681259,29.670497 L 9.7731207,29.72659 C 11.317435,30.228798 12.969553,29.998778 14.591096,29.862902 15.031307,29.826016 15.443998,29.903698 15.891253,29.86019 15.71335,30.406429 15.004499,30.879821 14.539121,31.183834 12.899437,32.255011 10.767179,32.524233 8.9378019,31.774553 5.6073188,30.409757 4.2169336,26.519681 5.5365422,23.262649 6.3639546,21.22055 8.3327725,19.790888 10.510632,19.596931 10.62091,19.587111 10.795951,19.566699 10.999386,19.54987 Z M 24.582586,21.589412 C 24.606921,21.586385 24.630391,21.584833 24.65286,21.58492 25.671416,21.588798 26.685762,21.556148 27.703959,21.562321 28.246238,21.565647 28.825701,21.481034 29.351461,21.650588 29.367935,21.434949 29.995263,21.51585 30.186633,21.505535 31.118168,21.45531 31.978367,21.375535 32.864274,21.733516 L 33.235807,22.096203 33.245798,22.208392 C 32.779722,22.512128 32.26598,22.876902 31.739165,23.066978 31.164486,23.274319 29.985751,23.447001 29.683453,24.108745 L 29.381424,23.990761 29.336899,24.02653 29.331904,23.970436 29.214723,23.924333 28.939243,24.005405 28.934248,23.949312 29.097533,23.87823 29.092538,23.822136 C 28.944024,23.819757 28.806626,23.785972 28.822063,23.959303 L 28.765967,23.9643 C 28.731887,23.645116 29.091272,23.745694 29.31192,23.746059 L 29.331904,23.970436 29.381424,23.990761 29.65348,23.772179 29.480202,23.731072 29.410262,22.945752 29.46636,22.940756 29.588536,23.042954 29.385285,22.665281 29.329198,22.670276 29.058714,22.807443 C 28.900433,22.544949 28.478673,22.538806 28.187321,22.545812 28.113032,22.266453 28.000515,22.09436 27.73971,21.963745 L 27.881877,22.290319 27.687472,22.646867 C 27.426426,22.606849 27.155199,22.548964 27.024329,22.819004 L 26.851051,22.777897 C 26.890539,23.051082 26.981811,23.196741 27.23757,23.308866 L 27.399722,23.859818 27.216453,23.706521 27.002066,23.838692 26.910999,23.451027 26.68662,23.47101 26.757705,23.634298 26.523335,23.542091 26.609405,23.873662 C 26.396978,23.847575 26.422956,23.684634 26.406154,23.495989 L 26.17678,23.459877 26.125678,23.520967 26.262851,23.791448 25.81909,23.887507 C 25.828038,23.655352 25.764205,23.55757 25.554745,23.458735 L 25.650809,23.902494 25.314235,23.932469 C 25.251098,23.495843 24.945383,23.377705 24.540052,23.492563 24.549074,23.702424 24.366127,23.912704 24.167373,23.75191 L 24.111286,23.756905 24.075173,23.986278 24.243453,23.971291 24.248449,24.027385 23.794697,24.011256 C 23.744201,23.802884 23.568591,23.83215 23.382053,23.821849 L 23.402036,24.046226 23.16267,23.897925 23.382053,23.821849 23.372062,23.70966 23.025507,23.627445 C 23.132405,23.098386 22.940394,22.40134 23.705919,22.379526 23.668231,22.018788 24.217521,21.634815 24.582586,21.589412 Z M 34.25795,21.392075 C 34.418965,21.374678 34.578,21.403255 34.710395,21.512565 34.44479,21.739422 34.213844,21.714813 33.971171,21.465321 34.064199,21.429768 34.161337,21.402515 34.25795,21.392075 Z M 28.360599,22.58692 28.421693,22.638018 Z M 27.405862,23.293879 27.798523,23.258908 27.919553,23.983138 27.863465,23.988133 C 27.862186,23.79338 27.769188,23.724125 27.60159,23.686357 L 27.56051,23.760688 27.568004,23.84483 27.511906,23.849826 27.56051,23.760688 27.553016,23.676547 C 27.570171,23.679632 27.585771,23.682791 27.60159,23.686357 L 27.706311,23.493277 27.701315,23.437183 Z M 24.616131,23.711944 24.682219,23.819137 24.570025,23.829128 Z M 25.293117,24.330124 25.517496,24.310141 25.542475,24.590612 26.118403,24.708939 25.859055,24.336261 26.083434,24.316279 C 26.309306,24.808351 26.763137,24.601822 27.194181,24.72621 L 27.113116,24.450733 27.718717,24.723668 28.928108,24.515251 C 28.772843,24.805273 28.31871,24.989212 28.019467,25.105025 L 28.095546,25.324406 27.549592,25.542646 C 27.122276,25.380836 26.533109,26.146787 26.081414,26.198153 25.497001,26.264562 25.262064,25.61435 24.873189,25.328688 L 24.975392,25.206508 24.726035,24.946019 C 24.49141,24.935988 24.477131,24.661347 24.456695,24.461154 L 25.557461,24.758895 Z M 23.225896,24.786322 C 23.682051,24.72235 24.395056,25.751177 24.005627,26.022583 23.664221,26.26043 22.466873,25.165434 23.138212,24.813566 23.16593,24.799037 23.195485,24.790586 23.225896,24.786322 Z M 20.104439,25.546663 C 20.265329,25.539477 20.330383,25.780535 20.325002,25.959898 20.316173,26.253161 19.839171,27.327085 19.452265,27.210811 19.231794,27.144563 19.298241,26.837743 19.315914,26.671697 19.356389,26.29205 19.401871,25.433127 19.977999,25.595028 20.025673,25.563113 20.067318,25.54832 20.104439,25.546663 Z M 14.89942,26.381252 C 15.096361,26.363913 15.303129,26.381802 15.457082,26.472935 15.719456,26.628288 15.366442,26.967556 15.185688,27.01656 14.78053,27.126368 13.776771,26.653862 14.569013,26.440713 14.66722,26.414284 14.781256,26.391654 14.89942,26.381252 Z M 23.066751,25.895942 C 23.350638,25.85855 23.651793,26.337745 23.278842,26.491917 22.924227,26.638498 22.690391,26.036446 23.011435,25.909702 23.030005,25.90237 23.047831,25.898434 23.066751,25.895942 Z M 36.049796,25.124867 36.170838,25.849097 36.072664,28.119407 35.889654,29.040333 Z M 24.635094,26.662661 C 24.94898,26.640202 25.029263,26.987318 24.638049,27.132381 24.222531,27.286479 24.082383,26.845357 24.486055,26.69537 24.539715,26.675431 24.590246,26.665871 24.635094,26.662661 Z M 13.586462,27.886925 C 14.241881,27.792589 15.026429,28.529136 15.515391,28.814119 15.722749,28.934965 16.01371,29.220528 15.676537,29.393427 15.342968,29.564428 14.693748,29.458297 14.32769,29.444648 13.473262,29.412808 12.522512,29.705389 11.683682,29.554673 11.517912,29.524882 11.106682,28.805691 11.191059,28.665649 11.3078,28.471894 11.689333,28.550077 11.873689,28.553616 12.557735,28.566706 12.874565,28.110712 13.456715,27.917916 13.499131,27.903865 13.542773,27.893214 13.586462,27.886925 Z M 34.722091,31.801657 C 34.578923,33.045152 34.818653,34.38046 34.620318,35.598848 34.580841,35.841184 34.400289,35.985737 34.335117,36.20554 34.279607,36.392992 34.401143,36.559066 34.313549,36.756952 34.234001,36.93665 34.002315,37.134705 34.035704,37.347088 34.074053,37.591089 34.401001,37.679064 34.42722,37.934151 34.446166,38.118986 34.290509,38.289067 34.240797,38.459607 34.161762,38.730797 34.197849,39.213028 34.31494,39.470708 34.607784,40.115354 35.200842,40.872178 35.890441,41.111382 37.397331,41.633997 39.056156,40.421293 39.349667,38.965786 39.524265,38.099942 39.454711,36.906687 38.686088,36.335738 38.388526,36.114766 38.069531,35.878458 37.729142,35.728356 37.509573,35.631553 37.239767,35.611213 37.118107,35.374632 36.941801,35.031592 37.109132,34.551556 37.123791,34.188569 37.158699,33.32352 37.112743,32.453065 37.134149,31.586843 38.088242,31.57984 39.092406,32.049896 39.87767,32.55457 43.940542,35.165964 43.930337,41.67541 39.783955,44.199389 39.130935,44.596895 38.360894,44.924707 37.593893,45.002229 34.620173,45.302739 31.819756,43.916857 30.650747,41.040898 29.509757,38.23391 30.178073,34.867116 32.559972,32.918275 33.1648,32.423404 33.939865,31.936172 34.722091,31.801657 Z" style="fill:#ffffff;stroke:none;stroke-width:0.9331586;fill-opacity:1" /></svg>