<?xml version="1.0" encoding="UTF-8" standalone="no"?><svg xmlns:dc="http://purl.org/dc/elements/1.1/" xmlns:cc="http://creativecommons.org/ns#" xmlns:rdf="http://www.w3.org/1999/02/22-rdf-syntax-ns#" xmlns:svg="http://www.w3.org/2000/svg" xmlns="http://www.w3.org/2000/svg" xmlns:sodipodi="http://sodipodi.sourceforge.net/DTD/sodipodi-0.dtd" xmlns:inkscape="http://www.inkscape.org/namespaces/inkscape" width="48" height="48" viewBox="0 0 48 48.000001" id="svg69016" version="1.1" sodipodi:docname="296.svg" inkscape:version="0.92.3 (2405546, 2018-03-11)"><sodipodi:namedview pagecolor="#ffffff" bordercolor="#666666" borderopacity="1" objecttolerance="10" gridtolerance="10" guidetolerance="10" inkscape:pageopacity="0" inkscape:pageshadow="2" inkscape:window-width="1443" inkscape:window-height="480" id="namedview6" showgrid="false" inkscape:zoom="6.95321668" inkscape:cx="48.24706286" inkscape:cy="30.0273347" inkscape:window-x="1367" inkscape:window-y="462" inkscape:window-maximized="0" inkscape:current-layer="svg69016" /><defs id="defs69018" /><path style="fill:#ffffff;fill-opacity:1;fill-rule:nonzero;stroke:none;stroke-width:1.199585" d="M 5.3216,21.152 0.17418,18.274 v -0.873 l 9.24762,5.195 10.8752,5.7 c 1.057,0.503 0.534,1.929 0.534,1.929 0,0 -3.016,3.905 -5.39,6.658 -2.152,2.492 -4.168,0.892 -2.676,-1.036 l 3.606,-5.254 c 0,0 -1.172,-0.708 -7.7445,-2.656 C 1.6281,25.863 3.9157,22.345 5.3216,21.152" id="path828" /><path style="fill:#ffffff;fill-opacity:1;fill-rule:nonzero;stroke:none;stroke-width:1.199585" d="M 31.493,46.781 -5.005e-6,36.691 0.01919,35.344 31.532,45.336 c 1.415,0.427 5.292,1.687 7.483,0.603 -0.436,1.298 -4.895,1.957 -7.522,0.842" id="path826" /><path style="fill:#ffffff;fill-opacity:1;fill-rule:nonzero;stroke:none;stroke-width:1.199585" d="m 21.044,25.639 c 0.378,0.622 0.91,4.228 0.959,5.051 0.06,0.824 0.737,1.755 1.27,1.996 0.533,0.253 4.061,1.648 7.425,2.85 1.87,0.669 2.637,-1.648 1.192,-2.17 -0.872,-0.341 -5.447,-2.075 -5.864,-2.337 -0.417,-0.271 -0.407,-0.757 -0.407,-0.757 0,0 -0.388,-11.001 -5.05,-13.221 -6.32,-3.025 -11.4959,1.823 -12.9498,2.851 4.6708,3.275 11.7568,5.737 13.4248,5.737" id="path824" /><path style="fill:#ffffff;fill-opacity:1;fill-rule:nonzero;stroke:none;stroke-width:1.199585" d="m 31.686,17.924 c 0.1,-1.968 -1.415,-3.644 -3.382,-3.741 -1.968,-0.1 -3.645,1.414 -3.751,3.381 -0.1,1.979 1.425,3.656 3.392,3.753 1.968,0.1 3.644,-1.416 3.741,-3.393" id="path42118" /><path inkscape:connector-curvature="0" style="fill:#ffffff;fill-opacity:1;stroke-width:0.03125" d="M 47,2 C 47,1.447812533 46.552188,1 46,1 H 45 C 44.44781334,1 44,1.447812533 44,2 H 43.5 L 42.77625066,0.5527188 C 42.60687466,0.214 42.26062534,0 41.88187466,0 h -3.76374932 c -0.37875068,0 -0.725,0.214 -0.89437468,0.55275 L 36.5,2 H 33 c -0.55224934,0 -1,0.447812533 -1,1 v 7.99999999 c 0,0.55218746 0.44775066,1 1,1 h 14 c 0.552188,0 1,-0.44781254 1,-1 V 3 C 48,2.447812533 47.552188,2 47,2 Z m -7,8.49999999 c -1.93312534,0 -3.5,-1.566875058 -3.5,-3.49999999 0,-1.932812534 1.56687466,-3.5 3.5,-3.5 1.93312534,0 3.5,1.567187466 3.5,3.5 0,1.933124932 -1.56687466,3.49999999 -3.5,3.49999999 z" id="path2" /></svg>