<?xml version="1.0" encoding="UTF-8" standalone="no"?><svg xmlns:dc="http://purl.org/dc/elements/1.1/" xmlns:cc="http://creativecommons.org/ns#" xmlns:rdf="http://www.w3.org/1999/02/22-rdf-syntax-ns#" xmlns:svg="http://www.w3.org/2000/svg" xmlns="http://www.w3.org/2000/svg" id="svg4" version="1.1" viewBox="0 0 61.594 61.594"><defs id="defs8" /><path d="m 40.78,11.01 c -2.551,0 -5.411,-2.4228 -5.411,-5.4128 0,-2.99 2.424,-5.41299 5.411,-5.41299 2.991,0 5.414,2.86109 5.414,5.41299 0,2.552 -2.862,5.4138 -5.414,5.4128 z M 13.069,55.142 c 4.146,-5.713 7.852,-11.706 11.303,-17.852 0.561,-5.542 1.894,-10.824 3.945,-15.9 -2.436,1.923 -5.148,4.74 -5.433,8.626 -0.338,4.614 -7.1,4.45 -6.76,-0.196 0.713,-9.729 7.244,-16.337 16.906,-18.2 0.721,-0.14 1.375,-0.08 1.951,0.12 2.666,-0.58 5.701,1.199 6.569,3.85 0,0 0,0 0,0.01 1.976,3.985 5.233,11.632 7.21,15.618 2.061,4.155 -3.709,6.638 -5.777,2.468 -0.952,-1.922 -3.76,-6.275 -4.677,-8.214 -1.722,4.169 -2.873,8.529 -3.232,13.103 2.457,6.162 3.788,12.592 3.48,19.352 -0.208,4.634 -7.429,4.653 -7.218,0 0.224,-4.881 -0.481,-9.543 -1.964,-14.049 -0.151,0 -0.301,0 -0.452,-0 -2.972,5.116 -6.142,10.114 -9.623,14.912 -2.707,3.729 -8.975,0.134 -6.234,-3.642 z" style="fill:#ffffff;fill-opacity:1" id="path9" /></svg>