<?xml version="1.0" encoding="UTF-8" standalone="no"?><svg xmlns:dc="http://purl.org/dc/elements/1.1/" xmlns:cc="http://creativecommons.org/ns#" xmlns:rdf="http://www.w3.org/1999/02/22-rdf-syntax-ns#" xmlns:svg="http://www.w3.org/2000/svg" xmlns="http://www.w3.org/2000/svg" width="100" height="100" viewBox="0 0 26.45833272 26.45833408" version="1.1" id="svg3186"><defs id="defs3180" /><g id="layer1"><path id="path10631" style="display:inline;fill:#ffffff;fill-opacity:1;fill-rule:nonzero;stroke:none;stroke-width:0.649291" d="m 2.340718177,0.9656171991 c -0.17940288,7.9256e-4 -0.32838514,0.1069311699 -0.4298367,0.3535852699 -0.26123754,0.63407223 0.77112335,1.98561188 0.77112335,1.98561188 0,0 -0.66211577,-0.7177201 -1.21756319,-0.87750639 -0.9358904603,-0.27138345 -0.8700892503,0.91300747 -0.5454437103,1.46845499 0.4565325703,0.78625008 1.2710621803,1.62095786 1.2710621803,1.62095786 0,0 -1.01700963,-0.85765423 -1.5902113203,-0.68011358 -0.70762418,0.22065685 -0.59088605,0.91570201 -0.0430452,1.50412099 0.36613762,0.38993018 0.7390968103,0.67903302 1.0183255803,0.87135709 -0.30507651,-0.15765071 -0.7336060703,-0.31345612 -1.1806673403,-0.25212167 -0.54276591,0.0735558 -0.60405993,0.90249429 0.31914914,1.60250993 0.3880525603,0.29420978 1.3368597803,0.66228058 1.3368597803,0.66228058 0,0 -0.8368319,-0.28413288 -1.3897438403,0.0430452 -0.55544731,0.32464457 -0.36759382,1.037377231 0.7686636303,1.587751591 0.79893149,0.38805257 1.63079675,0.62415487 1.63079676,0.62415487 0,0 -0.55302672,-0.0253429 -0.97405055,0.18263448 -0.67465293,0.33225302 0.0128315,1.39959716 1.25814862,1.52133905 1.06016864,0.10398774 1.54962588,0.0381257 1.54962588,0.0381257 0,0 -1.03496481,0.0910905 -1.33931951,0.78096224 -0.30181824,0.68987082 0.40567937,1.48911329 1.53179288,1.33440006 1.12357566,-0.15471332 1.53179288,-0.45935338 1.53179288,-0.45935338 0,0 -0.73016938,0.49999488 -0.86459285,0.96667137 -0.24855614,0.85472907 0.73054766,1.25264276 1.46353555,0.84430012 0.83190274,-0.46160447 1.08009882,-1.90707055 2.15041336,-1.39220356 L 10.68902007,13.6707046 c 0,0 -0.854530683,-0.78087998 -1.574838043,-2.02619733 -0.7203056,-1.24785431 0.0960608,-2.557057721 -0.76374418,-3.386424481 0,0 -2.59702395,-3.28175614 -4.03763631,-5.42492042 C 3.690776847,1.906783059 2.878926797,0.9632395291 2.340718177,0.9656171991 Z M 24.11726625,1.155015919 c -0.53820847,-0.001427 -1.34944307,0.94122251 -1.97146849,1.86570036 -1.44061219,2.14316427 -4.03579152,5.42799507 -4.03579152,5.42799507 -0.86234145,0.82683009 -0.0452824,2.135495421 -0.76558897,3.383349831 -0.72030609,1.24785383 -1.57483803,2.02619732 -1.57483803,2.02619732 l 1.32087158,1.62833704 c 1.07031366,-0.51740244 1.31904878,0.92867747 2.153488,1.39281849 0.73045133,0.40580644 1.70963293,0.009891 1.46107582,-0.84737477 -0.13442347,-0.4666775 -0.86520778,-0.96605646 -0.86520778,-0.96605646 3e-8,0 0.40875515,0.30402511 1.53486753,0.45873844 1.12357656,0.15725022 1.83115238,-0.64391431 1.52933316,-1.33378512 -0.3043546,-0.68987179 -1.33931949,-0.78157718 -1.33931949,-0.78157718 0,10e-9 0.48945714,0.0664011 1.54962588,-0.0350511 1.24531711,-0.12174178 1.93280154,-1.18962323 1.25814861,-1.52441371 -0.42102383,-0.20542912 -0.97159083,-0.18263447 -0.97159083,-0.18263447 0,0 0.82932882,-0.23364355 1.63079675,-0.62169515 1.13625746,-0.55291163 1.32165123,-1.263030271 0.76620392,-1.590211311 -0.55291085,-0.32464255 -1.38974384,-0.0430452 -1.38974384,-0.0430452 0,0 0.94819325,-0.36745587 1.33624485,-0.66166566 0.92321004,-0.70001552 0.86252997,-1.5271093 0.31976407,-1.60066513 -0.44521413,-0.0626295 -0.87402958,0.093031 -1.17943746,0.2508918 0.2790614,-0.19265075 0.651725,-0.48153997 1.0170957,-0.87197202 0.54784088,-0.58841907 0.66711548,-1.28100441 -0.0430451,-1.50166126 -0.5732018,-0.17754066 -1.5877516,0.67703893 -1.5877516,0.67703893 0,0 0.81145496,-0.8341696 1.26798753,-1.61788321 0.32464451,-0.55544722 0.39044675,-1.74037662 -0.54544372,-1.47152965 -0.55544743,0.1597863 -1.21694826,0.88058105 -1.21694826,0.88058105 0,0 1.03428244,-1.35461431 0.77050841,-1.98868654 -0.10145156,-0.24601992 -0.2504339,-0.35126496 -0.42983672,-0.35174039 z M 13.31170041,10.71842131 c -2.36128523,-0.0380373 -2.36128523,3.43177181 0,3.39626338 2.14316486,0.0228165 2.14316486,-3.41908961 0,-3.39626338 z m -0.0848605,3.9380175 c -0.75866706,0 -1.51669008,0.0109948 -1.54839602,0.0338212 -1.08045888,0.51993901 -1.912312943,2.30565644 -2.181159913,3.37597064 -0.0203053,0.043117 0.0226,1.71188877 0.007379,1.75501281 0.002536,0.70001083 1.004260633,0.78610607 1.001722433,0.0860903 -0.0253628,-1.23263644 0.043378,-2.1074831 0.90825295,-3.08141876 0.50472267,-0.35254355 0.11170141,3.80419843 0.24105291,3.87775429 0,0.0101449 0.12175632,4.06061988 0.12175632,4.07330229 0.007609,1.06777885 1.29565941,0.82706292 1.29565941,0.0129136 l 0.0104538,-3.52539886 h 0.26380535 l 0.0350511,3.52539886 c -0.002536,0.81414836 1.28612991,1.05740091 1.29627435,-0.0129136 0.24348514,-1.10328598 -0.18756514,-7.6847451 0.36280923,-7.95105658 0.86487689,0.97393538 0.93300282,1.84878232 0.90763802,3.08141876 -0.002536,0.70002062 0.99725504,0.61392541 1.00233736,-0.0860903 -0.0177342,-0.0431173 0.0378898,-1.71189862 0.004919,-1.75501281 -0.2916736,-1.13372132 -1.06019647,-2.84335063 -2.17870018,-3.37597064 -0.0329719,-0.0228264 -0.79218867,-0.0338212 -1.55085512,-0.0338212 z" /></g></svg>