<?xml version="1.0" encoding="UTF-8" standalone="no"?><svg xmlns:dc="http://purl.org/dc/elements/1.1/" xmlns:cc="http://creativecommons.org/ns#" xmlns:rdf="http://www.w3.org/1999/02/22-rdf-syntax-ns#" xmlns:svg="http://www.w3.org/2000/svg" xmlns="http://www.w3.org/2000/svg" width="100" height="100" viewBox="0 0 26.45833272 26.45833408" version="1.1" id="svg3186"><defs id="defs3180" /><path id="path10595" style="fill:#ffffff;fill-opacity:1;fill-rule:nonzero;stroke:#ffffff;stroke-width:0.448154;stroke-linecap:round;stroke-linejoin:round;stroke-miterlimit:3.864;stroke-opacity:1" d="M 8.490576476,0.2240533922 C 8.319264803,0.2749136052 8.148734003,0.3254905602 7.982774931,0.4057928932 6.178635808,1.275741516 5.410359565,3.460513605 6.277630793,5.26465188 6.604196343,5.939196381 7.139965824,6.413342761 7.742237356,6.766675413 L 8.405052006,5.248616055 C 8.193586251,5.018414312 7.942903696,4.629016825 7.80103543,4.334573287 7.121136958,2.921242133 7.454668783,1.289405589 8.490576476,0.2240533922 Z m 9.557359624,0 c 1.03590769,1.0653521968 1.36943924,2.6971887408 0.68954104,4.1105198948 -0.14186826,0.294443538 -0.39255082,0.683841025 -0.60401657,0.914042768 l 0.66281465,1.518059358 C 19.39854702,6.413342761 19.93699362,5.939196381 20.26088178,5.26465188 21.1308304,3.460513605 20.35987648,1.275741516 18.55573764,0.4057928932 18.38977857,0.3254905632 18.21925051,0.2749136052 18.0479361,0.2240533922 Z M 4.364020758,6.285600264 C 2.005792261,6.023276843 0.3924781422,8.124376388 0.3924781422,8.124376388 c 0,0 1.8540364948,1.442574282 2.3572682278,1.865502506 0.503231463,0.422929046 3.282001569,0.518492116 3.282001569,0.518492116 L 7.05269631,8.322151713 c 0,0 -1.850848552,-1.942864796 -2.688675552,-2.036551449 z m 17.730291862,0 c -0.83782699,0.09368665 -2.68867555,2.036551449 -2.68867555,2.036551449 l 1.02094837,2.186219297 c 0,0 2.78411508,-0.0955631 3.28734685,-0.518492116 0.50323146,-0.422928224 2.35192295,-1.865502506 2.35192295,-1.865502506 0,0 -1.61331412,-2.101099545 -3.97154262,-1.838776124 z m -8.92661664,0.775065504 -3.575991941,0.0053453 c -0.15525223,0.33727184 -1.431825376,3.229534889 -1.892228918,4.324331069 0.789645661,2.54024918 1.305671307,5.8409603 2.116730654,8.50433956 0.982371835,-0.27302971 2.195070935,-0.44102227 3.388907155,-0.41693179 h 0.0534528 c 1.19651334,-0.0240833 2.40386661,0.1439026 3.38356188,0.41693179 0.81373619,-2.66337926 1.32708526,-5.96409038 2.11673065,-8.50433956 -0.46040327,-1.09479618 -1.73697614,-3.987059229 -1.89222892,-4.324331069 l -3.57064666,-0.0053453 h -0.0641434 z m 0.0534528,13.897726522 c -0.67186766,-0.018747 -1.34338575,0.0131936 -1.96171755,0.12294144 -1.02252401,0.17399103 -2.620531022,0.4768357 -1.747906373,3.22854877 0.398838239,1.25540208 0.805562383,2.07958567 1.828085563,1.90291948 0.62903974,-0.32388818 1.23909865,-0.46239579 1.89222892,-0.44365821 0.65313027,-0.018747 1.26051343,0.11976921 1.89222892,0.44365821 1.02252428,0.17666479 1.42924787,-0.6475174 1.82808556,-1.90291948 0.8726252,-2.75171304 -0.72270579,-3.05455861 -1.74790637,-3.22854877 -0.61833261,-0.10974777 -1.28984962,-0.14168017 -1.96171755,-0.12294144 h -0.0106906 z" /></svg>