<?xml version="1.0" encoding="UTF-8" standalone="no"?><svg xmlns:dc="http://purl.org/dc/elements/1.1/" xmlns:cc="http://creativecommons.org/ns#" xmlns:rdf="http://www.w3.org/1999/02/22-rdf-syntax-ns#" xmlns:svg="http://www.w3.org/2000/svg" xmlns="http://www.w3.org/2000/svg" width="100" height="100" viewBox="0 0 26.45833272 26.45833408" version="1.1" id="svg3186"><defs id="defs3180" /><path id="path8" style="stroke-width:0.165809;fill:#ffffff;fill-opacity:1" d="m 3.766924147,5.435454471 c -0.197313176,-0.001658 -0.275269469,0.0763889 -0.275269469,0.2853087 v 5.783249619 h 0.0097154 v 5.75701805 c 0,0.19897125 -0.0015674,0.19884171 -0.197222478,0.19884171 -0.116066541,0 -0.245397832,-0.0363097 -0.331618748,0.0482531 a 0.646656559,0.646656559 0 0 1 -0.411284971,0.13925397 2.264956049,2.264956049 0 0 0 -1.86697469,1.37278503 c -0.24042357,0.53888044 -0.431000741,1.10263232 -0.639920553,1.65809374 -0.04145201,0.11109226 -0.121027868,0.25375301 0.05473005,0.31510258 0.175757978,0.0613495 0.200616703,-0.10297017 0.235436358,-0.21406249 a 0.1857064989,0.1857064989 0 0 1 0.212119415,-0.15415091 c 0.179074122,0.009949 0.359767501,0 0.540499697,0 A 0.1525446241,0.1525446241 0 0 0 1.262943532,20.4593382 c 0,-0.10114395 -0.07627231,-0.14735013 -0.165809374,-0.14735013 a 2.888399296,2.888399296 0 0 0 -0.293404869,0 c -0.293482592,0.0182391 -0.286785447,0.0215423 -0.182325541,-0.26199176 a 0.2255007487,0.2255007487 0 0 1 0.251952523,-0.16580938 c 0.159176999,0.0149225 0.31348337,0 0.479292722,0 0.09616948,-0.003316 0.175848614,-0.0315297 0.175848614,-0.15091243 0,-0.11938288 -0.07976981,-0.15771322 -0.185887853,-0.15771322 H 0.939744791 c -0.03813612,-0.001658 -0.08611693,0.006788 -0.101040087,-0.0479293 a 0.4228139038,0.4228139038 0 0 1 0.286604094,-0.37630956 c 0.200629321,-0.009949 0.401401136,-0.0165679 0.60203052,-0.0281746 0.09616942,-0.004974 0.175730462,-0.023278 0.18070631,-0.1492932 0.0049743,-0.1260151 -0.08280108,-0.16580938 -0.183944775,-0.16580938 -0.127673238,1e-8 -0.257056386,0.0181354 -0.384729563,0.0181354 -0.04476853,0 -0.104343008,0.0267107 -0.129214728,-0.0213739 -0.02487147,-0.0480847 0.02978102,-0.0814796 0.05796851,-0.11464164 a 2.084223831,2.084223831 0 0 1 1.464109726,-0.74096064 0.2039455301,0.2039455301 0 0 1 0.203699407,0.0744847 0.2470559673,0.2470559673 0 0 0 0.202404021,0.0994209 c 0.109434061,0.003316 0.13443534,0.043253 0.09132469,0.14605474 -0.165809352,0.39296828 -0.331618769,0.79076824 -0.497428122,1.18042025 l -0.497428122,1.16908563 a 0.2652949984,0.2652949984 0 0 0 0.08128546,0.33161874 0.2835340296,0.2835340296 0 0 0 0.346515684,0.008096 0.3797034665,0.3797034665 0 0 0 0.127595495,-0.20531863 C 3.13674486,19.93728467 3.491654729,19.1212953 3.823273434,18.30219698 a 0.261978811,0.261978811 0 0 1 0.280127165,-0.17390554 h 3.97942497 1.080999394 c 0.09285302,0 0.165951867,0.009677 0.146054742,0.13569166 -0.06963994,0.43331517 -0.137185695,0.86609055 -0.20240402,1.29830035 -0.05969138,0.38467772 -0.117724762,0.77101361 -0.165809374,1.16066562 a 0.2636369047,0.2636369047 0 0 0 0.23057866,0.29696718 0.2752435609,0.2752435609 0 0 0 0.306682572,-0.20240402 1.095999962,1.095999962 0 0 0 0.03983311,-0.18070631 l 0.331618748,-2.16879957 c 0.06300758,-0.38799381 0.02137387,-0.33971491 0.394444959,-0.33971491 h 8.33030181 c 0.0945114,0 0.1841651,-0.006749 0.20240402,0.12921473 0.0696399,0.49742812 0.14426707,0.99485624 0.22053942,1.49228436 0.0580332,0.34488354 0.1094344,0.67651518 0.16580938,1.00813395 a 0.2686111859,0.2686111859 0 0 0 0.31510258,0.24709483 0.2735854671,0.2735854671 0 0 0 0.24709483,-0.30182488 0.9749591193,0.9749591193 0 0 0 -0.01684,-0.1541509 C 19.59482793,19.81119184 19.47712919,19.07502415 19.36272072,18.33717239 19.32955882,18.1232783 19.33135942,18.1231099 19.5502278,18.1231099 h 5.01411434 a 0.2686111859,0.2686111859 0 0 1 0.2901664,0.18912631 c 0.16580936,0.40291678 0.33161877,0.80093701 0.49742812,1.1988795 0.18902269,0.44602724 0.37625777,0.89347936 0.57191281,1.33619039 a 0.2769016546,0.2769016546 0 0 0 0.37630955,0.14281628 0.2818759358,0.2818759358 0 0 0 0.13439627,-0.36659417 c -0.0132643,-0.0381362 -0.0313869,-0.0761817 -0.04631,-0.11431779 -0.31669585,-0.75609074 -0.6317726,-1.50066553 -0.95178467,-2.24846579 -0.0447685,-0.10777592 -0.0183557,-0.1408732 0.0877624,-0.1408732 a 0.2586626235,0.2586626235 0 0 0 0.24871406,-0.23543636 0.3200120919,0.3200120919 0 0 0 -0.33161875,-0.41614266 c -0.27358534,-0.003316 -0.26523023,0.0248066 -0.26523023,-0.27365024 V 12.80555145 6.007367111 a 3.31618748,3.31618748 0 0 0 -0.00842,-0.3397149 c -0.0149228,-0.159177 -0.12597623,-0.23065533 -0.29178565,-0.22734019 -0.16580934,0.003316 -0.26361099,0.0731893 -0.26361099,0.23899866 v 0.30830181 c 0.004974,0.57535854 0.003523,0.57195169 -0.53369892,0.77755529 a 5.675654873,5.675654873 0 0 1 -2.62639457,0.34165798 6.546154088,6.546154088 0 0 1 -1.96833863,-0.51232505 0.2785597484,0.2785597484 0 0 1 -0.19560325,-0.30506335 c 0.00829,-0.19897125 -0.008187,-0.40144003 -0.0181354,-0.60041128 -0.00829,-0.17244176 -0.0913765,-0.24543413 -0.26879254,-0.24709483 -0.17741599,-0.001658 -0.27365024,0.0748085 -0.27365024,0.2406179 a 4.335915131,4.335915131 0 0 0 0,0.46407194 0.1989712488,0.1989712488 0 0 1 -0.14573089,0.22053942 c -0.40291678,0.15751892 -0.80411072,0.31502491 -1.21863413,0.44269807 a 10.44599056,10.44599056 0 0 1 -3.47228147,0.46601503 10.13924322,10.13924322 0 0 1 -3.83013177,-0.88863462 0.1774160302,0.1774160302 0 0 1 -0.127595492,-0.18750709 v -0.47896888 c -0.0033162,-0.19233882 -0.0730986,-0.27709439 -0.270411771,-0.28207023 -0.197313114,-0.004974 -0.290166405,0.0779951 -0.290166405,0.27365024 v 0.58713358 c -0.0016581,0.26197876 2.07262e-4,0.26345555 -0.243532518,0.3529926 a 6.632374961,6.632374961 0 0 1 -3.31618748,0.32319875 7.501216081,7.501216081 0 0 1 -1.517220542,-0.41776189 0.3100635294,0.3100635294 0 0 1 -0.242237133,-0.35461185 4.191660975,4.191660975 0 0 0 -0.01651617,-0.4776735 c -0.0049743,-0.21223594 -0.07277475,-0.2885057 -0.270087992,-0.29016625 z m 14.910537503,1.03274627 c 0.0404808,-4.21e-4 0.0404808,0.042683 0.0404808,0.15771322 v 4.730748699 l 0.0281746,4.69383021 c 0,0.22881725 -0.004961,0.23561782 -0.23543636,0.2140625 -0.8207564,-0.0795887 -1.63995832,-0.0961306 -2.46900521,-0.12597627 -1.05786382,-0.0397942 -2.11392705,-0.0315166 -3.17013274,-0.0132777 -0.92355823,0.0132648 -1.83390347,0.0580074 -2.74751314,0.13925397 -0.142595832,-1e-8 -0.165809375,-0.0547171 -0.165809375,-0.16580938 V 13.34637515 7.773301881 6.644049361 c 0,-0.16580936 -1.81332e-4,-0.16574458 0.145730895,-0.0994209 a 9.928665317,9.928665317 0 0 0 2.62153688,0.76265836 10.16079844,10.16079844 0 0 0 3.5053138,-0.0761039 11.21700416,11.21700416 0 0 0 2.32133124,-0.72120601 c 0.0621785,-0.0254932 0.10104009,-0.0415236 0.12532861,-0.04177617 z M 4.145176781,6.646640131 c 0.02472567,3.5948e-4 0.06347391,0.0159332 0.125652416,0.0408047 a 6.856217616,6.856217616 0 0 0 4.317844499,0.27850792 5.249524782,5.249524782 0 0 0 0.643159019,-0.21892018 c 0.117724299,-0.0447685 0.15253167,-0.0283301 0.15253167,0.10265932 v 2.72095773 5.655977959 0.94336467 c 0.0016581,0.0994859 -0.02985868,0.14420234 -0.137634735,0.1541509 a 30.45586582,30.45586582 0 0 0 -4.164988983,0.6632375 c -0.24042357,0.0596914 -0.49264817,0.13446105 -0.738046022,0.20078478 v 0.0479293 h 0.0068008 c 0.07627235,0.0447682 0.15742825,0.001825 0.238674822,0.006801 0.623443287,0.00829 1.246769931,0.0114643 1.870213154,0.0197546 0.215552228,0.001658 0.432788332,-0.0165162 0.64834056,-0.0165162 0.704689797,0 1.411322738,0.0181354 2.116012598,0.0181354 0.06466565,0 0.154150902,-0.0331619 0.154150902,0.0829047 0,0.11606648 -0.09948565,0.0877624 -0.165809374,0.0877624 H 4.262409215 c -0.142595894,0 -0.165809374,-0.061207 -0.165809374,-0.18556401 V 12.79745569 6.798524361 c 0.0051816,-0.11088504 0.0073675,-0.1524831 0.04857694,-0.15188423 z m 15.143706929,0.0272031 c 0.0242885,6.9952e-4 0.0631501,0.0172805 0.12532857,0.0433954 a 6.66387874,6.66387874 0 0 0 2.67626693,0.55215818 5.722081498,5.722081498 0 0 0 2.3378474,-0.52074507 c 0.16580941,-0.0679819 0.16580938,-0.0563492 0.16580938,0.10946009 v 5.905987409 4.43896307 c 0,0.23047501 -1.8133e-4,0.23025481 -0.22734019,0.23025481 h -4.80847186 -0.10751701 c -0.0679819,-0.003316 -0.16580938,0.0232392 -0.16580938,-0.0978016 0,-0.12104063 0.0961694,-0.0945632 0.16580938,-0.0945632 0.62344322,0.0348203 1.26670589,-0.00658 1.86859392,0.0116585 0.60188803,0.0182389 1.20549892,-0.0116585 1.80738694,-0.0116585 0.32498636,-0.001658 0.64315901,0.01684 0.97477778,0.01684 0.0580332,0 0.11938294,0.0198193 0.16580937,-0.0382139 h 0.006801 c -0.0431104,-0.072956 -0.12288026,-0.0729172 -0.18588786,-0.0845239 a 22.17700378,22.17700378 0 0 0 -2.52503064,-0.53078431 c -0.70303171,-0.11275039 -1.40966465,-0.19231298 -2.11601259,-0.26361099 -0.10445972,-0.016581 -0.15738937,-0.0514009 -0.15738937,-0.16580938 -0.0397942,-0.72127077 0.0280578,-1.4375673 -0.00842,-2.15552185 a 0.1260151242,0.1260151242 0 0 1 0.0100392,0.0265554 c 0.0182389,0.0812466 -0.0296384,0.20559067 0.0466339,0.23543636 0.0762723,0.0298457 0.10917511,-0.0994856 0.14896936,-0.16580937 a 0.6035461215,0.6035461215 0 0 1 0.33161875,-0.26523024 c 0.34985775,-0.1376218 0.69988396,-0.27849496 1.04310936,-0.43103961 a 0.2453978736,0.2453978736 0 0 1 0.31315951,0.0628262 c 0.34654161,0.33161877 0.70329084,0.66323748 1.05314859,0.99485625 a 0.3797034665,0.3797034665 0 0 0 0.24353251,0.11949932 0.255346436,0.255346436 0 0 0 0.25389561,-0.16580937 0.2802178421,0.2802178421 0 0 0 -0.0829047,-0.33161875 l -0.99485644,-0.93008687 c -0.00829,-0.006632 -0.0233169,-0.0117881 -0.0233169,-0.0200785 -0.22218457,-0.42115584 -0.50071839,-0.83899544 -0.4708727,-1.32647499 0.0298457,-0.48747956 0.0995504,-0.97144863 0.1492932,-1.45892819 a 0.2769016546,0.2769016546 0 0 0 -0.23543636,-0.31024488 0.2818759358,0.2818759358 0 0 0 -0.35007799,0.23705559 c -0.0315041,0.17078369 -0.0478257,0.35493571 -0.0660647,0.52074507 -0.0342673,0.33161874 -0.0682021,0.66323749 -0.10136393,0.99485624 a 0.2072617175,0.2072617175 0 0 1 -0.13763473,0.18750709 c -0.33161876,0.13596365 -0.66323747,0.27330047 -0.99485624,0.41258035 -0.12767331,0.0563752 -0.15254442,0.0301436 -0.16580938,-0.10913625 -0.0364779,-0.5057186 0.0497428,-1.01655396 0,-1.51398208 -0.0215553,-0.23047501 0.021646,-0.46417553 0.0100392,-0.69465059 -0.0265293,-0.596913749 0.0214647,-1.193957039 -0.0100392,-1.790870789 -0.0116068,-0.24373978 0.0148969,-0.49920278 0.0148969,-0.74128448 0,-0.24208164 -0.0181354,-0.48236283 -0.0181354,-0.72444447 0,-0.1160666 0,-0.15887907 0.0404808,-0.1577132 z m -4.27898293,2.70249849 a 0.4393948412,0.4393948412 0 0 0 -0.30959719,0.11982319 0.5571194967,0.5571194967 0 0 0 -0.1492932,0.3481349 c -0.11440847,0.643340419 -0.22881698,1.286706659 -0.33161875,1.933363219 -0.0265295,0.14757036 -0.0796144,0.1541766 -0.19236478,0.0978016 -0.0746142,-0.0397942 -0.15904748,-0.0711164 -0.24029406,-0.10427854 a 8.585609384,8.585609384 0 0 0 -1.04958629,-0.40804651 0.7080060269,0.7080060269 0 0 0 -0.79601453,0.36659416 c -0.12767324,0.26861119 -0.0529295,0.53376368 0.21568172,0.76589682 a 0.3432254042,0.3432254042 0 0 1 0.10265932,0.16580937 c 0.12104082,0.37804537 0.23871373,0.75606485 0.36141262,1.13411022 0.0613495,0.19068075 0.12628716,0.37965165 0.19592709,0.56867434 a 0.331618748,0.331618748 0 0 0 0.44431731,0.22377787 0.3515158729,0.3515158729 0 0 0 0.21892019,-0.44755576 c -0.0182392,-0.0646657 -0.0448722,-0.12607989 -0.0647693,-0.19074555 -0.12269896,-0.37141301 -0.24393411,-0.74099949 -0.36497493,-1.1124125 a 6.993839398,6.993839398 0 0 0 1.27206879,0.45241346 0.5322480906,0.5322480906 0 0 0 0.61822284,-0.44755576 c 0.0630075,-0.30840544 0.11275017,-0.61844307 0.16580938,-0.9268485 0.11440847,-0.66323747 0.23052682,-1.32647501 0.34327722,-1.989712489 a 0.4443691224,0.4443691224 0 0 0 -0.22053942,-0.48576965 0.4393948412,0.4393948412 0 0 0 -0.21924403,-0.06347389 z m -3.48685455,0.3319426 a 0.9434553379,0.9434553379 0 0 0 -0.93656388,0.932030029 0.9268744008,0.9268744008 0 0 0 0.92361003,0.93656389 0.9401391509,0.9401391509 0 0 0 0.94692697,-0.92166696 0.9616943692,0.9616943692 0 0 0 -0.93041081,-0.946926959 0.9434553379,0.9434553379 0 0 0 -0.003562,0 z M 22.0046599,11.46644661 a 0.7361936207,0.7361936207 0 1 0 0.0178116,1.47188203 0.7361936207,0.7361936207 0 1 0 0.0132777,-1.47058665 0.7361936207,0.7361936207 0 0 0 -0.0310893,-0.001295 z M 7.42703654,11.49753591 A 0.8439697138,0.8439697138 0 0 0 7.4393427,13.18542352 0.8290468701,0.8290468701 0 0 0 8.281667273,12.34471818 0.8439697138,0.8439697138 0 0 0 7.42703654,11.49753591 Z m 10.13995568,0.3445726 a 0.3548320604,0.3548320604 0 0 0 -0.14411166,0.68169674 c 0.30343116,0.14922844 0.610308,0.29859935 0.92037157,0.43622115 0.35980632,0.16580934 0.36808375,0.16075733 0.35979338,-0.24547561 0,-0.0812466 -0.003357,-0.16419011 0.001619,-0.24709481 a 0.1823903114,0.1823903114 0 0 0 -0.12597627,-0.18912632 c -0.2851921,-0.12933131 -0.56879088,-0.26673288 -0.85398304,-0.39606419 a 0.3548320604,0.3548320604 0 0 0 -0.15771298,-0.040157 z M 6.893337617,13.14040886 a 0.5339061844,0.5339061844 0 0 0 -0.446908078,0.23414098 c -0.351515893,0.49742812 -0.71310989,0.99485624 -1.044728595,1.49228436 a 0.5272738094,0.5272738094 0 0 0 0.165809374,0.75585757 c 0.122698956,0.0845628 0.245475555,0.16267456 0.411284971,0.26879254 -0.182390144,0.0381363 -0.321799705,0.067878 -0.464395786,0.10104009 -0.266953049,0.0663237 -0.414393897,0.26358513 -0.364651085,0.48576965 A 0.4112072476,0.4112072476 0 0 0 5.698344277,16.7966351 C 6.160952429,16.6971495 6.62374194,16.59283204 7.086350092,16.48671406 A 0.3962844039,0.3962844039 0 0 0 7.41796884,16.15509531 0.4062329664,0.4062329664 0 0 0 7.228842522,15.7156357 C 7.038161764,15.59293674 6.849307455,15.46676621 6.655310489,15.34904154 6.55085027,15.28603404 6.521043779,15.24319559 6.612238909,15.13044519 c 0.207261737,-0.25534641 0.401025515,-0.52250681 0.590048202,-0.79277607 0.05969137,-0.0862207 0.104408112,-0.10605312 0.195603246,-0.0579685 0.504060475,0.26197885 1.034715285,0.14426701 1.558672884,0.0961824 A 0.3017730607,0.3017730607 0 0 0 9.202038839,14.04426427 0.2951406858,0.2951406858 0 0 0 8.896975497,13.75733632 3.016072514,3.016072514 0 0 0 8.565356749,13.77385252 1.852090708,1.852090708 0 0 1 7.505731218,13.64463779 c -0.03813605,-0.0198971 -0.09942085,-0.0199359 -0.09942085,-0.0812854 A 0.4543176848,0.4543176848 0 0 0 7.006683869,13.1540105 0.5339061844,0.5339061844 0 0 0 6.893337617,13.14040886 Z M 18.6680701,14.10741432 c -0.0447685,-0.0116067 -0.0629686,0.0446 -0.0845239,0.0761039 -0.15420272,0.2387655 -0.30836658,0.47592475 -0.45759501,0.71634831 a 0.331618748,0.331618748 0 0 0 0.0563493,0.42456268 0.3498577792,0.3498577792 0 0 0 0.38634879,0.0761039 c 0.13596373,-0.051401 0.13601551,-0.13760883 0.13601551,-0.2768887 v -0.41614266 h 0.001619 v -0.47929273 c -0.001658,-0.0431105 0.006555,-0.10918796 -0.0382137,-0.1207947 z m -1.53276517,3.12835654 c 0.17713105,0.001865 0.35522066,0.01684 0.53305123,0.01684 0.29348259,0.006632 0.58673201,-0.0148969 0.8802146,-0.0148969 0.0746142,-0.001658 0.16580938,-0.0183297 0.16580938,0.11431779 0,0.13264739 -0.0862209,0.11464164 -0.16580938,0.11464164 H 14.3272325 l -4.17017052,-0.00842 a 0.9766172128,0.9766172128 0 0 1 -0.13925397,0 c -0.07295615,-0.0116066 -0.07452615,-0.0661683 -0.07286545,-0.13083396 0.0016581,-0.0646655 0.03479404,-0.0963766 0.09780163,-0.0880862 0.25866262,0.0298457 0.51573194,-0.009949 0.77107836,0 0.61846894,0.0182389 1.25346703,-0.009949 1.85369698,0 0.60022989,0.009949 1.20355584,0.0315039 1.80544387,0 0.23047501,-0.0116068 0.46449944,0.021607 0.69497445,0.0116585 0.59691374,-0.0265293 1.19363318,0.0231618 1.79054693,-0.0116585 0.0588623,-0.003316 0.11777647,-0.004184 0.17682015,-0.003562 z" /></svg>