<?xml version="1.0" encoding="UTF-8" standalone="no"?><svg width="48" height="48" viewBox="0 0 12.7 12.7" version="1.1" id="svg6185" xmlns="http://www.w3.org/2000/svg" xmlns:svg="http://www.w3.org/2000/svg" xmlns:rdf="http://www.w3.org/1999/02/22-rdf-syntax-ns#" xmlns:cc="http://creativecommons.org/ns#" xmlns:dc="http://purl.org/dc/elements/1.1/"><defs id="defs6179" /><path fill="#000000" d="M 6.0724879,0.00841408 V 1.846941 H 6.6320402 V 0.00841408 Z M 1.9070256,2.3265566 v 0.2398081 c 0,1.7479327 0.5550224,3.4852074 1.3703691,4.8014862 C 3.6850679,8.0259901 4.15669,8.5802128 4.6736086,8.9798928 5.0493085,9.270327 5.4569819,9.480825 5.8753133,9.5740835 H 1.0213353 L 1.6592244,11.759 h 4.4132634 v 0.932586 H 6.6320402 V 11.759 H 11.041841 L 11.678665,9.5740835 H 6.8265507 C 7.2448821,9.4808253 7.6525554,9.270327 8.0282543,8.9798928 8.545174,8.5802128 9.0167961,8.0259901 9.4244694,7.3678509 10.239817,6.0515721 10.79404,4.3142974 10.79404,2.5663647 V 2.3265566 H 6.0724879 Z m 0.5710097,0.4796156 h 0.615507 C 3.1255166,3.9039594 3.3759819,5.4813623 3.847604,6.8456029 3.9621794,7.1839983 4.0927411,7.5090712 4.239291,7.8101633 4.0767538,7.607659 3.9195468,7.3838382 3.7703329,7.1440301 3.0402515,5.960978 2.5259967,4.3889044 2.4780353,2.8061722 Z m 1.1723932,0 h 0.9299219 c 0.013325,1.8278689 0.1332268,3.455898 0.3756989,4.649608 0.069272,0.3437247 0.1492139,0.650146 0.2398081,0.9192638 C 4.8814422,7.94339 4.6096608,7.354528 4.3805108,6.7070469 3.9302051,5.4014266 3.6850678,3.8506689 3.6504285,2.8061722 Z m 1.4894742,0 H 6.0724879 V 8.945254 C 6.0325225,8.8919634 5.9898877,8.830679 5.9499202,8.7587369 5.7847191,8.4549801 5.6301762,7.9753639 5.5102726,7.3758445 5.2731285,6.222102 5.1532248,4.6180539 5.1399027,2.8061722 Z m 1.4921375,0 H 7.5619623 C 7.5512506,4.6180539 7.4287356,6.222102 7.1942564,7.3758445 7.0716879,7.9753639 6.9171448,8.4549801 6.7519436,8.7587369 6.7119783,8.8306788 6.6720129,8.8919634 6.6320401,8.945254 Z m 1.4894733,0 h 0.929921 C 9.0167929,3.8506689 8.7716589,5.4014266 8.3213531,6.7070469 8.0948682,7.354528 7.8204216,7.94339 7.5060065,8.375044 7.596606,8.1059262 7.6792017,7.7995049 7.7458146,7.4557802 7.9882867,6.2620702 8.1108553,4.6340411 8.1215135,2.8061722 Z m 1.4894733,0 H 10.226494 C 10.175871,4.3889044 9.6642775,5.960978 8.934196,7.1440301 8.7849821,7.3838382 8.6251101,7.607659 8.4652379,7.8101633 8.6091229,7.5090712 8.7396845,7.1839983 8.8542601,6.8456029 9.3285461,5.4813623 9.5763484,3.9039594 9.6109868,2.8061722 Z M 1.7364953,10.053699 h 0.9173991 l 0.3570468,1.225685 H 2.093543 Z m 1.4929377,0 h 0.9165989 l 0.3570476,1.225685 H 3.5864807 Z m 1.4921372,0 h 1.3509176 v 1.225685 H 5.0786179 Z m 1.91047,0 H 7.9829576 L 7.6259099,11.279384 H 6.6320401 Z m 1.9264559,0 h 0.913935 L 9.1153845,11.279384 H 8.1987856 Z m 1.4894749,0 h 0.916599 l -0.357047,1.225685 H 9.6909229 Z" id="path2" style="fill:#ffffff;fill-opacity:1;stroke-width:0.0266453" /></svg>