<?xml version="1.0" encoding="UTF-8" standalone="no"?><svg xmlns:dc="http://purl.org/dc/elements/1.1/" xmlns:cc="http://creativecommons.org/ns#" xmlns:rdf="http://www.w3.org/1999/02/22-rdf-syntax-ns#" xmlns:svg="http://www.w3.org/2000/svg" xmlns="http://www.w3.org/2000/svg" xmlns:sodipodi="http://sodipodi.sourceforge.net/DTD/sodipodi-0.dtd" xmlns:inkscape="http://www.inkscape.org/namespaces/inkscape" id="svg31309" version="1.1" viewBox="0 0 12.7 12.7" height="48" width="48" sodipodi:docname="31.svg" inkscape:version="0.92.3 (2405546, 2018-03-11)"><sodipodi:namedview pagecolor="#ffffff" bordercolor="#666666" borderopacity="1" objecttolerance="10" gridtolerance="10" guidetolerance="10" inkscape:pageopacity="0" inkscape:pageshadow="2" inkscape:window-width="2050" inkscape:window-height="906" id="namedview7" showgrid="false" inkscape:zoom="6.953217" inkscape:cx="49.4367" inkscape:cy="19.0992" inkscape:window-x="905" inkscape:window-y="251" inkscape:window-maximized="0" inkscape:current-layer="svg31309" /><defs id="defs31303" /><path style="fill:#ffffff;fill-opacity:1;stroke-width:0.0409842" d="M 2.119142,1.25e-6 C 0.9474583,1.25e-6 -2.3e-6,0.947691 -2.3e-6,2.119146 v 8.466494 c 0,1.1671 0.9474606,2.11436 2.1191443,2.11436 H 10.58297 C 11.75206,12.7 12.7,11.75274 12.7,10.58564 V 2.119146 C 12.7,0.947691 11.75206,1.25e-6 10.58297,1.25e-6 Z M 6.349998,2.272069 c 0.532056,0 0.953111,0.450464 0.917005,0.981254 L 7.006822,7.068419 c -0.02357,0.345293 -0.310755,0.613814 -0.656824,0.613814 -0.34607,0 -0.632762,-0.268562 -0.656292,-0.613814 L 5.433526,3.253323 C 5.397295,2.722493 5.817942,2.272069 6.349998,2.272069 Z m 0,6.188581 A 0.9836222,0.9836222 0 0 1 7.333375,9.444558 0.9836222,0.9836222 0 0 1 6.349998,10.42794 0.9836222,0.9836222 0 0 1 5.36662,9.444558 0.9836222,0.9836222 0 0 1 6.349998,8.46065 Z" id="path1029" inkscape:connector-curvature="0" /><g id="g1033" transform="matrix(0.2645833,0,0,0.2645833,-52.47578,-123.1868)" /><g id="g1035" transform="matrix(0.2645833,0,0,0.2645833,-52.47578,-123.1868)" /><g id="g1037" transform="matrix(0.2645833,0,0,0.2645833,-52.47578,-123.1868)" /><g id="g1039" transform="matrix(0.2645833,0,0,0.2645833,-52.47578,-123.1868)" /><g id="g1041" transform="matrix(0.2645833,0,0,0.2645833,-52.47578,-123.1868)" /><g id="g1043" transform="matrix(0.2645833,0,0,0.2645833,-52.47578,-123.1868)" /><g id="g1045" transform="matrix(0.2645833,0,0,0.2645833,-52.47578,-123.1868)" /><g id="g1047" transform="matrix(0.2645833,0,0,0.2645833,-52.47578,-123.1868)" /><g id="g1049" transform="matrix(0.2645833,0,0,0.2645833,-52.47578,-123.1868)" /><g id="g1051" transform="matrix(0.2645833,0,0,0.2645833,-52.47578,-123.1868)" /><g id="g1053" transform="matrix(0.2645833,0,0,0.2645833,-52.47578,-123.1868)" /><g id="g1055" transform="matrix(0.2645833,0,0,0.2645833,-52.47578,-123.1868)" /><g id="g1057" transform="matrix(0.2645833,0,0,0.2645833,-52.47578,-123.1868)" /><g id="g1059" transform="matrix(0.2645833,0,0,0.2645833,-52.47578,-123.1868)" /><g id="g1061" transform="matrix(0.2645833,0,0,0.2645833,-52.47578,-123.1868)" /></svg>