<?xml version="1.0" encoding="UTF-8" standalone="no"?><svg xmlns:dc="http://purl.org/dc/elements/1.1/" xmlns:cc="http://creativecommons.org/ns#" xmlns:rdf="http://www.w3.org/1999/02/22-rdf-syntax-ns#" xmlns:svg="http://www.w3.org/2000/svg" xmlns="http://www.w3.org/2000/svg" width="48" height="48" viewBox="0 0 12.7 12.7" version="1.1" id="svg6185"><defs id="defs6179" /><path d="m 11.09832,8.5236 c 0.67022,0 1.21257,-0.5477 1.21257,-1.2185 0,-0.6667 -0.54235,-1.209 -1.21257,-1.209 -0.673,0 -1.212198,0.5423 -1.212198,1.209 0,0.6708 0.539198,1.2185 1.212198,1.2185 z m -2.384746,0.693 0.805325,1.2567 1.837881,0.7278 c 0,0 -0.75448,0.8396 -1.865113,0.4349 L 0.2666357,8.0008 C -0.1385088,7.7557 -0.2605658,6.3679 1.22348,6.1772 m 7.659501,2.8602 0.872119,1.3156 2.20953,0.8819 c 0.0544,0.019 0.11145,0.028 0.17298,0.028 0.31057,0 0.56239,-0.2522 0.56239,-0.5629 0,-0.2344 -0.14575,-0.4376 -0.34942,-0.5205 L 10.6723,9.5257 9.448947,7.3549 c 0,0 -0.100255,-0.2406 -0.452326,-0.3708 L 4.989234,5.3785 2.606386,1.343 C 2.468208,1.1126 2.214162,0.954 1.922235,0.954 c -0.44071,0 -0.79678,0.3592 -0.79678,0.7999 0,0.14 0.03704,0.2705 0.101138,0.3864 l 2.92533,4.9602 4.7311,1.9372 z M 0.7167737,7.0017 8.972041,10.3231 8.861516,10.5936 0.6062075,7.2762 Z" id="path1361-5" style="display:inline;fill:#ffffff;fill-rule:evenodd;stroke-width:0.4208864;fill-opacity:1" /></svg>