<?xml version="1.0" encoding="UTF-8" standalone="no"?><svg xmlns:dc="http://purl.org/dc/elements/1.1/" xmlns:cc="http://creativecommons.org/ns#" xmlns:rdf="http://www.w3.org/1999/02/22-rdf-syntax-ns#" xmlns:svg="http://www.w3.org/2000/svg" xmlns="http://www.w3.org/2000/svg" version="1.1" id="svg69016" viewBox="0 0 48 48.000001" height="48" width="48"><defs id="defs69018"><clipPath id="clipPath25293" clipPathUnits="userSpaceOnUse"><path id="path25295" d="M 1649.764,271.557 1658.267,271.557 1658.267,280.058 1649.764,280.058 1649.764,271.557 Z" /></clipPath><clipPath id="clipPath25271" clipPathUnits="userSpaceOnUse"><path id="path25273" d="M 0,0 1808.504,0 1808.504,765.354 0,765.354 0,0 Z" /></clipPath></defs><path id="path25277" style="fill:#ffffff;fill-opacity:1;fill-rule:nonzero;stroke:none;stroke-width:8.0767288" d="M 46.50076,2.6183e-5 H 1.489149 L 21.98789,20.63607 V 43.96974 H 10.85008 v 4.03029 H 36.69561 V 43.96974 H 25.99395 V 20.63607 Z M 32.68148,8.981349 c 0,3.133771 -2.6734,5.831401 -5.79102,5.831401 -3.12569,0 -5.79101,-2.69763 -5.79101,-5.831401 0,-3.158001 2.66532,-5.847552 5.79101,-5.847552 3.11762,0 5.79102,2.689551 5.79102,5.847552" /></svg>