<?xml version="1.0" encoding="UTF-8" standalone="no"?><svg xmlns:dc="http://purl.org/dc/elements/1.1/" xmlns:cc="http://creativecommons.org/ns#" xmlns:rdf="http://www.w3.org/1999/02/22-rdf-syntax-ns#" xmlns:svg="http://www.w3.org/2000/svg" xmlns="http://www.w3.org/2000/svg" version="1.1" id="svg69016" viewBox="0 0 48 48.000001" height="48" width="48"><defs id="defs69018" /><path id="path18988" style="fill:#ffffff;fill-opacity:1;fill-rule:evenodd;stroke:none;stroke-width:1.113327" d="m 39.9384,6.941648 c 0.97527,0 1.729,0.426404 1.9717,1.410585 l 4.19279,16.924797 c 0,1.02092 -0.81273,1.75126 -1.94053,1.75126 h -4.12487 c -1.13114,0 -2.04296,-0.82831 -2.04296,-1.84812 V 8.266507 c 0,-1.008674 0.81384,-1.324859 1.94387,-1.324859 M 2.0529e-5,5.008912 37.21743,4.947679 c 5.0456,0 5.49538,0.231572 6.36934,3.636126 L 47.79292,25.14232 48,26.88245 v 8.87544 c 0,1.17901 -0.13249,1.58093 -1.3115,1.58093 l -20.208,0.0234 c -1.0699,0.0501 -1.39722,-1.14227 -1.39722,-1.72565 0,-5.51876 -4.47558,-9.99434 -9.99545,-9.99434 -5.507631,0 -9.982092,4.47558 -9.982092,9.9832 0.01447,0.60677 -0.145846,1.77576 -1.509671,1.77576 L 2.0529e-5,37.43567 Z M 0.2171193,6.989521 6.771275,6.941648 c 0.67913,0 1.240247,0.55889 1.240247,1.252493 V 20.93617 c 0,0.6936 -0.561117,1.25249 -1.240247,1.25249 l -6.5541557,0.0234 z m 9.6436387,1.20462 c 0,-0.693603 0.560002,-1.252493 1.251382,-1.252493 h 12.74314 c 0.69249,0 1.25026,0.55889 1.25026,1.252493 V 20.93617 c 0,0.6936 -0.55777,1.25249 -1.25026,1.25249 H 11.11214 c -0.69138,0 -1.251382,-0.55889 -1.251382,-1.25249 z M 26.95367,9.033589 c 0,-1.155633 0.82943,-2.091941 1.84033,-2.091941 1.00644,0 1.83253,0.936308 1.83253,2.091941 V 24.98645 c 0,1.15452 -0.82609,2.0886 -1.83253,2.0886 -1.0109,0 -1.84033,-0.93408 -1.84033,-2.0886 z m 5.52321,0 c 0,-1.155633 0.81162,-2.091941 1.83365,-2.091941 1.00979,0 1.8381,0.936308 1.8381,2.091941 V 24.98645 c 0,1.15452 -0.82831,2.0886 -1.8381,2.0886 -1.02203,0 -1.83365,-0.93408 -1.83365,-2.0886 z" /><path id="path18992" style="fill:#ffffff;fill-opacity:1;fill-rule:evenodd;stroke:none;stroke-width:2.4731059" d="m 10.73527,35.6364 c 0,-2.40702 1.95612,-4.35199 4.36535,-4.35199 2.39367,0 4.33864,1.94497 4.33864,4.35199 0.0148,2.40814 -1.94497,4.35423 -4.33864,4.34087 -2.40923,0 -4.36535,-1.94611 -4.36535,-4.34087 m -3.062774,0 c 0,-4.1104 3.329964,-7.42923 7.414764,-7.42923 4.1104,0 7.44371,3.31883 7.44371,7.42923 0,4.09816 -3.33331,7.42924 -7.43035,7.41588 -4.09816,0 -7.428124,-3.31772 -7.428124,-7.41588" /></svg>