<?xml version="1.0" encoding="UTF-8" standalone="no"?><svg xmlns:dc="http://purl.org/dc/elements/1.1/" xmlns:cc="http://creativecommons.org/ns#" xmlns:rdf="http://www.w3.org/1999/02/22-rdf-syntax-ns#" xmlns:svg="http://www.w3.org/2000/svg" xmlns="http://www.w3.org/2000/svg" xmlns:sodipodi="http://sodipodi.sourceforge.net/DTD/sodipodi-0.dtd" xmlns:inkscape="http://www.inkscape.org/namespaces/inkscape" xml:space="preserve" viewBox="0 0 48 48" y="0px" x="0px" id="Capa_1" version="1.1" sodipodi:docname="35.svg" width="48" height="48" inkscape:version="0.92.3 (2405546, 2018-03-11)"><sodipodi:namedview pagecolor="#ffffff" bordercolor="#666666" borderopacity="1" objecttolerance="10" gridtolerance="10" guidetolerance="10" inkscape:pageopacity="0" inkscape:pageshadow="2" inkscape:window-width="1585" inkscape:window-height="776" id="namedview6" showgrid="false" inkscape:zoom="0.7398119" inkscape:cx="-214.2436" inkscape:cy="154.0932" inkscape:window-x="1133" inkscape:window-y="281" inkscape:window-maximized="0" inkscape:current-layer="Capa_1" /><defs id="defs37" /><path inkscape:connector-curvature="0" style="display:inline;fill:#ffffff;fill-rule:evenodd;stroke-width:1.7094609;fill-opacity:1" id="path896-6" d="m 11.9987,8.7275 c 0,-1.2562 0.3796,-1.6363 1.636,-1.6363 h 17.4554 c 3.4685,0 4.3454,6.4148 5.4549,8.7281 v 1.0897 c 0,2.7947 2.3009,0.4597 4.3641,3.2726 H 7.0893 c 1.3196,-1.801 0.5949,-0.6117 2.7282,-1.6363 h 1.636 18.5459 c 0.8923,0 1.6377,-0.3258 1.6377,-1.0897 l -0.1538,-2.154 -0.4001,-2.7548 c -1.1249,-0.753 -1.4154,-1.6365 -2.7266,-1.6365 H 16.3563 L 14.7287,10.8863 11.9919,9.8185 V 8.727 Z M 2.1814,32.7272 3.2719,33.272 h 41.4544 1.0925 c 0.3726,-0.6644 0.5435,-0.5829 0.5435,-1.6363 v -3.8173 l -0.035,-1.0446 -1.0617,-0.5917 H 2.7207 c -0.9916,0 -0.5454,5.3631 -0.5454,6.5451 z M 3.8173,20.7281 C 2.0377,22.0315 1.0821,24.6796 0,26.7269 v 1.0915 2.181 2.1828 c 2.007,4.183 0.2427,3.2058 3.9626,6.9453 3.2497,3.2689 3.8275,2.2046 7.4909,3.9623 h 2.1812 20.7273 2.183 c 3.9232,-1.8808 3.5948,-0.024 7.2343,-3.6745 C 47.6804,35.5038 45.87,36.6187 48,32.1822 v -2.1828 -2.181 -1.0915 c -1.2239,-2.3133 -1.571,-3.4971 -3.2737,-5.4538 -1.3932,-2.0815 -3.1129,-4.2862 -6.5454,-4.3641 0,-6.6448 -2.7198,-9.6855 -7.0908,-11.9988 h -1.0907 -14.727 l -1.612,0.095 -2.2069,0.4487 C 10.7013,6.578 9.8175,6.8712 9.8175,8.1817 v 1.0914 c 0,1.3105 0.8838,1.6021 1.6667,2.6084 l 2.1505,0.6642 h 1.6377 12.0005 c 1.2717,0 2.7265,1.4554 2.7265,2.7262 v 1.6363 H 10.3628 c -1.8803,0 -2.1129,0.4035 -3.7111,0.6478 L 3.8173,20.7272 Z M 31.0901,7.0912 H 13.6347 c -1.2564,0 -1.636,0.3801 -1.636,1.6363 V 9.819 l 2.737,1.068 1.6274,0.024 h 12.0003 c 1.3112,0 1.6019,0.8831 2.7267,1.6363 l 0.4,2.7548 0.1538,2.154 c 0,0.7638 -0.7436,1.0896 -1.636,1.0896 H 11.462 9.8261 C 7.691,19.5703 8.4175,18.3816 7.0978,20.182 H 40.916 C 38.8527,17.3692 36.5518,19.7042 36.5518,16.9094 V 15.8198 C 35.4424,13.5065 34.5654,7.0916 31.0969,7.0916 Z" /></svg>