<?xml version="1.0" encoding="UTF-8" standalone="no"?><svg xmlns:dc="http://purl.org/dc/elements/1.1/" xmlns:cc="http://creativecommons.org/ns#" xmlns:rdf="http://www.w3.org/1999/02/22-rdf-syntax-ns#" xmlns:svg="http://www.w3.org/2000/svg" xmlns="http://www.w3.org/2000/svg" version="1.1" id="svg53822" viewBox="0 0 40 40" height="40" width="40"><defs id="defs53824" /><path d="m 14.78711,26.58182 h 9.4769 c 3.5999,0 3.87643,-0.19753 3.68693,2.11599 -0.14197,1.94192 -1.52403,1.83822 -3.25731,1.83822 -3.43077,0 -8.0504,0 -9.44974,0 -3.22831,0.0617 -3.82891,0.12963 -4.01965,-2.2592 -0.15431,-1.96105 2.65857,-1.69501 3.56287,-1.69501 m -13.45889,6.3739 c 1.534526,0 32.74725,0 33.66142,0 3.91471,0 5.01036,-3.00115 5.01036,-3.91224 0,-1.44934 -1.13269,-2.59252 -2.58142,-2.6024 -0.32097,0 -0.56171,0.0741 -0.85738,0.17284 0.0741,0.0679 0.0926,0.0988 0.16049,0.16666 0.40122,0.38888 0.65739,0.86602 0.63702,1.37095 -0.0679,1.06602 -1.31416,2.42833 -3.40978,2.36228 -0.95245,0 -1.84687,-0.16049 -2.43759,-0.71418 0,0 -0.41974,-0.3148 -0.40122,-1.78205 0,-0.65492 0,-0.91602 0.0679,-1.10367 0.0741,-0.19753 0.16666,-0.22839 0.36418,-0.22839 0.20987,0 3.99928,0 4.2289,0 0.21604,0 0.92343,-0.30863 0.95244,-1.20984 0.20987,-3.07708 -1.79995,-6.03934 -4.66777,-6.28872 -4.19186,-0.16666 -8.00102,-0.72344 -9.03,-0.84874 -1.7518,-0.19753 -5.3338,-0.71048 -5.50479,-5.28319 -0.0864,-2.42154 -0.15431,-3.449911 -0.0864,-4.135071 0.0617,-0.69628 -0.0617,-2.46598 -1.34441,-1.67712 -2.20858,1.37157 -4.86715,2.820911 -7.695467,2.5524 -0.555541,-0.0617 -0.762325,0.0864 -0.885779,0.781461 -0.20987,1.23886 -1.610449,5.49615 -3.344352,7.88682 -1.904269,2.6308 -0.561713,7.72633 2.399934,7.9825 1.382061,0.12345 1.468478,0.35801 1.382061,0.89689 -0.104936,0.54319 -0.154317,1.11355 -0.283943,1.70551 -0.27777,1.237 -0.693808,1.65798 -2.333887,1.65798 H 3.139281 c -0.512331,0 -0.915407,0 -1.219102,0.0864 -0.308633,0.12346 -1.2481134,0.81788 -1.5246491,1.02837 -0.2654248,0.21604 -0.6376368,0.36419 -0.1790074,0.72344 0.4567776,0.36419 0.7222024,0.36419 1.1141665,0.36419" style="display:inline;fill:#ffffff;fill-opacity:1;fill-rule:evenodd;stroke:none;stroke-width:1.2024009" id="path12188" /></svg>