<?xml version="1.0" encoding="UTF-8" standalone="no"?><svg xmlns:dc="http://purl.org/dc/elements/1.1/" xmlns:cc="http://creativecommons.org/ns#" xmlns:rdf="http://www.w3.org/1999/02/22-rdf-syntax-ns#" xmlns:svg="http://www.w3.org/2000/svg" xmlns="http://www.w3.org/2000/svg" width="48" height="48" viewBox="0 0 12.7 12.7" version="1.1" id="svg31309"><defs id="defs31303" /><path id="path25005" style="fill:#ffffff;fill-rule:evenodd;stroke-width:1.7053846;fill-opacity:1" d="m 3.993494,8.5139 c 0,0.5972 -0.489442,1.072 -1.07473,1.072 -0.579661,0 -1.05359,-0.4748 -1.05359,-1.072 0,-0.5824 0.473929,-1.0544 1.05359,-1.0544 0.585288,0 1.07473,0.472 1.07473,1.0544 z M 12.7,6.9673 C 12.7,6.3876 12.6251,6.0498 12.42151,5.4992 12.2699,5.0554 12.11744,4.8264 11.88823,4.4118 11.64641,3.9525 11.42999,3.7388 11.188,3.2651 10.98711,2.8962 10.87847,2.6825 10.74153,2.2853 c -0.1516,-0.4582 -0.2292,-0.734 -0.29128,-1.2106 -0.03,-0.4127 -0.0455,-0.6575 0,-1.0691 C 10.28312,0.2814 10.19001,0.4483 10.00481,0.724 9.79385,1.0591 9.654182,1.2445 9.393936,1.5669 9.164732,1.8271 9.013127,1.963 8.753055,2.2086 8.492816,2.4533 8.340353,2.5922 8.046346,2.8058 7.726756,3.0203 7.525861,3.1254 7.160734,3.2495 c 0.41441,0.031 0.643614,0.092 1.040801,0.2475 0.304069,0.1049 0.473922,0.198 0.749515,0.3934 0.275759,0.1835 0.430098,0.2913 0.641905,0.5543 0.182648,0.2292 0.277636,0.3817 0.383543,0.6572 0.105902,0.3224 0.155192,0.505 0.155192,0.8428 0,0.3196 -0.0183,0.5023 -0.139671,0.7961 C 9.884236,6.9828 9.775603,7.1069 9.564647,7.2768 9.393936,7.4266 9.255118,7.4905 9.044162,7.5653 8.814107,7.6433 8.662669,7.6563 8.415218,7.6273 8.123937,7.6093 7.969599,7.5031 7.70936,7.3825 7.346114,7.2118 7.17523,7.0474 6.838418,6.831 6.472272,6.5854 6.289625,6.403 5.889717,6.2176 5.508218,6.0195 5.279014,5.9445 4.879957,5.8359 4.495564,5.7459 4.282049,5.7126 3.900382,5.6971 c -0.458407,0 -0.718646,0 -1.145844,0.1233 C 2.385659,5.9134 2.203011,6.0039 1.880695,6.1737 1.545585,6.339 1.360385,6.4623 1.053583,6.6941 0.7623022,6.9388 0.5796547,7.0913 0.3806418,7.4127 0.1824736,7.704 0.0893612,7.903 0.0127879,8.2526 -5e-8,8.3614 -5e-8,8.4235 -5e-8,8.5468 -5e-8,8.776 0.0300105,8.913 0.0893612,9.1422 0.1824736,9.449 0.2883803,9.6159 0.4582333,9.8917 c 0.2730336,0.4282 0.4711954,0.6574 0.8400747,1.0108 0.368872,0.3651 0.610696,0.5513 1.07183,0.8244 0.473761,0.2912 0.765041,0.4301 1.30104,0.6136 0.672948,0.2292 1.084625,0.3058 1.804129,0.3368 0.75224,0.047 1.195133,0 1.945672,-0.167 0.54862,-0.1241 0.841776,-0.2164 1.363111,-0.4309 0.548626,-0.2292 0.870092,-0.3653 1.36038,-0.7032 0.48928,-0.3377 0.734,-0.5641 1.13307,-1.0225 C 11.59985,9.9821 11.78335,9.7684 12.00966,9.3403 12.24159,8.8692 12.31918,8.6682 12.45528,8.2245 12.59494,7.748 12.68448,7.475 12.7,6.9673 Z" /></svg>