<?xml version="1.0" encoding="UTF-8" standalone="no"?><svg xmlns:dc="http://purl.org/dc/elements/1.1/" xmlns:cc="http://creativecommons.org/ns#" xmlns:rdf="http://www.w3.org/1999/02/22-rdf-syntax-ns#" xmlns:svg="http://www.w3.org/2000/svg" xmlns="http://www.w3.org/2000/svg" width="48" height="48" viewBox="0 0 48 48.000001" id="svg69809" version="1.1"><defs id="defs69811" /><path d="m 45.80452,4.336 -19.19108,7.253 v 7.794 l -3.05583,0 V 12.782 L 2.195482,21.03 2.305946,19.279 44.1996,3.076 Z" style="fill:#ffffff;fill-opacity:1;fill-rule:evenodd;stroke:none" id="path42671" /><path id="path4148" d="m 34.74574,19.383 c 0,0 5.9445,6.788 5.95879,13.08 0.0161,6.29 -6.80877,12.462 -6.80877,12.462 H 15.03548 c 0,0 -7.083765,-6.214 -7.083765,-12.462 -0.01429,-6.241 5.858795,-13.08 5.858795,-13.08 8.59416,-0.607 12.82317,0 20.93523,0 z" style="fill:#ffffff;fill-opacity:1;fill-rule:evenodd;stroke:none" /><path id="path4144" d="m 37.55996,31.226 c 0,0 -0.38928,-2.196 -1.24105,-4.549 -0.63391,-1.743 -2.1928,-3.861 -2.1928,-3.861 H 14.51585 c 0,0 -1.26962,2.009 -1.97496,3.604 -0.68034,1.578 -1.37139,4.806 -1.37139,4.806 z" style="fill:#ffffff;fill-opacity:1;fill-rule:evenodd;stroke:none" /><path id="path4150" d="m 15.01192,21.882 -0.28236,11.436 0.0941,0.235" style="fill:#ffffff;fill-rule:evenodd;stroke:#ffffff;stroke-width:1px;stroke-linecap:butt;stroke-linejoin:miter;stroke-opacity:1;fill-opacity:1" /><path style="fill:#ffffff;fill-rule:evenodd;stroke:#ffffff;stroke-width:1px;stroke-linecap:butt;stroke-linejoin:miter;stroke-opacity:1;fill-opacity:1" d="m 33.64741,22.259 -0.28236,11.435 0.0941,0.236" id="path4152" /><path id="path4154" d="m 14.88518,25.662 18.08659,0.253 0.37216,-0.08" style="fill:#ffffff;fill-rule:evenodd;stroke:#ffffff;stroke-width:1.1918597px;stroke-linecap:butt;stroke-linejoin:miter;stroke-opacity:1;fill-opacity:1" /></svg>