<?xml version="1.0" encoding="UTF-8" standalone="no"?><svg xmlns:dc="http://purl.org/dc/elements/1.1/" xmlns:cc="http://creativecommons.org/ns#" xmlns:rdf="http://www.w3.org/1999/02/22-rdf-syntax-ns#" xmlns:svg="http://www.w3.org/2000/svg" xmlns="http://www.w3.org/2000/svg" width="40" height="40" viewBox="0 0 10.58333 10.58333" version="1.1" id="svg5030"><defs id="defs5024" /><path d="M 0.82329,7.21 C 0.53762,6.64 1.2764,6.27 1.5617,6.83 L 2.4634,8.6 c 0.196,0.36 0.5772,0.61 1.0183,0.61 0.1377,0 0.2662,0 0.3919,-0.1 L 5.0098,8.78 C 5.6109,8.6 5.8441,9.39 5.2372,9.57 L 4.0424,9.92 c -0.1779,0.1 -0.3709,0.1 -0.5698,0.1 -0.7669,0 -1.4322,-0.43 -1.7583,-1.07 L 0.82329,7.19 Z M 4.9783,0.00207 0.17931,1.5405 V 2.1678 L 3.5128,1.0986 V 4.7005 L 4.07,5.7861 V 0.92034 L 6.9328,0.00207 Z M 1.7813,5.91 C 1.2728,4.95 2.7322,4.16 3.2689,5.1 L 4.317,7.09 6.3118,6.52 c 0.3303,-0.1 0.7864,0.27 0.7864,0.69 l 0.01,2.84 c 0,0.71 -1.0419,0.71 -1.0419,0 0,-0.66 -0.019,-2.07 -0.019,-2.07 L 3.9644,8.61 C 3.5084,8.74 3.1314,8.51 2.9536,8.18 L 1.7814,5.92 Z M 2.1756,4.58 C 2.6854,4.43 2.9769,3.89 2.8289,3.38 2.6792,2.87 2.1442,2.58 1.6328,2.73 1.1214,2.87 0.82662,3.41 0.97787,3.92 1.1272,4.43 1.6609,4.73 2.1756,4.58 Z M 6.9991,5.6347 V 5.0229 Q 7.1827,4.6253 7.5192,4.2582 7.8556,3.8912 8.3451,3.4935 8.8039,3.0959 8.9875,2.8512 9.2016,2.6065 9.2016,2.3618 q 0,-0.5812 -0.6118,-0.5812 -0.2753,0 -0.4283,0.1529 -0.1529,0.153 -0.2141,0.4588 L 7.0603,2.3312 Q 7.1215,1.7194 7.5192,1.3829 7.9168,1.0465 8.5898,1.0465 q 0.7342,0 1.1318,0.3364 0.3974,0.3365 0.3974,0.9483 0,0.3058 -0.1526,0.5505 Q 9.844,3.157 9.6605,3.3712 9.4769,3.5853 9.2322,3.7688 8.9875,3.9523 8.7733,4.1359 8.5286,4.3194 8.3451,4.5029 8.1615,4.6864 8.0698,4.9006 H 10.18 v 0.7341 z" style="fill:#ffffff;fill-opacity:1;fill-rule:evenodd;stroke-width:0.30588" id="path1812-3" /></svg>