<?xml version="1.0" encoding="UTF-8" standalone="no"?><svg xmlns:dc="http://purl.org/dc/elements/1.1/" xmlns:cc="http://creativecommons.org/ns#" xmlns:rdf="http://www.w3.org/1999/02/22-rdf-syntax-ns#" xmlns:svg="http://www.w3.org/2000/svg" xmlns="http://www.w3.org/2000/svg" width="48" height="48" viewBox="0 0 12.7 12.7" version="1.1" id="svg8"><defs id="defs2" /><path d="m 10.353,12.123 c 0,-0.288 0.237,-0.521 0.529,-0.521 0.292,0 0.529,0.233 0.529,0.521 0,0.29 -0.237,0.524 -0.529,0.524 -0.292,0 -0.529,-0.234 -0.529,-0.524 z M 0.81019,3.8356 C 0.84736,3.6346 1.0123,3.5191 1.0222,3.5103 L 6.235,0.0747 c 0.2063,-0.1359 0.4875,-0.081 0.6281,0.1222 l 0.2638,0.3827 c 0.098,0.15 0.055,0.3449 -0.093,0.4421 -0.1489,0.099 -0.312,0.024 -0.4078,-0.1258 l -0.2013,-0.4958 -4.672,3.089 3.7161,0.671 c 0.2641,0.042 0.4539,0.3066 0.3951,0.5636 L 5.0559,7.852 7.6704,11.775 c 0.1578,0.268 0.062,0.613 -0.2084,0.765 -0.2737,0.156 -0.6187,0.06 -0.7762,-0.207 0,0 -2.7284,-4.1027 -2.7387,-4.1307 L 3.805,8.7755 4.217,12.048 c 0.051,0.305 -0.1583,0.593 -0.4682,0.644 -0.3091,0.05 -0.601,-0.155 -0.6536,-0.46 L 2.6726,8.8733 c -0.013,-0.081 0,-0.2592 0.023,-0.3357 L 3.6268,4.8295 1.2003,4.3926 C 0.94021,4.3466 0.76543,4.097 0.81018,3.8356 Z M 4.6832,2.9179 c 0,-0.5175 0.4255,-0.9372 0.9511,-0.9372 0.5248,0 0.9503,0.4195 0.9503,0.9372 0,0.5204 -0.4255,0.9414 -0.9503,0.9414 -0.5247,0 -0.9511,-0.421 -0.9511,-0.9414 z" style="stroke-width:0.0130282;fill:#ffffff;fill-opacity:1" id="path956" /></svg>