<?xml version="1.0" encoding="UTF-8" standalone="no"?><svg xmlns:dc="http://purl.org/dc/elements/1.1/" xmlns:cc="http://creativecommons.org/ns#" xmlns:rdf="http://www.w3.org/1999/02/22-rdf-syntax-ns#" xmlns:svg="http://www.w3.org/2000/svg" xmlns="http://www.w3.org/2000/svg" width="48" height="48" viewBox="0 0 12.7 12.7" version="1.1" id="svg6185"><defs id="defs6179" /><path id="_141400424-8" transform="scale(0.26458)" d="M 47.463 6.4297 L 0 25.352 L 0.53711 26.701 L 14.512 21.129 L 14.512 25.326 L 9.9648 25.326 L 9.9648 26.381 L 9.9785 26.381 C 9.9785 26.381 7.5963 28.774 7.5918 33.965 L 8.3398 33.965 C 8.3427 29.292 10.486 27.145 10.486 27.145 L 19.734 27.145 C 19.734 27.145 21.857 29.333 21.857 33.941 L 21.857 33.965 L 22.604 33.965 L 22.604 33.941 C 22.604 28.815 20.252 26.381 20.252 26.381 L 20.227 26.381 L 20.227 25.326 L 15.693 25.326 L 15.693 21.021 L 14.783 21.021 L 32.316 14.031 L 32.316 18.264 L 27.77 18.264 L 27.77 19.318 L 38.031 19.318 L 38.031 18.264 L 33.498 18.264 L 33.498 13.961 L 32.494 13.961 L 48 7.7793 L 47.463 6.4297 z M 21.857 33.965 L 8.3438 33.965 L 8.3438 33.969 L 7.5918 33.969 L 7.5918 33.979 C 7.5918 35.574 7.8207 36.911 8.1211 37.992 C 8.1214 37.993 8.1208 37.995 8.1211 37.996 C 8.1212 37.996 8.123 37.996 8.123 37.996 C 8.8326 40.424 9.9707 41.57 9.9707 41.57 L 20.26 41.57 C 20.26 41.57 21.371 40.428 22.064 37.996 L 22.074 37.996 C 22.384 36.914 22.604 35.575 22.604 33.969 L 21.857 33.969 C 21.857 33.967 21.857 33.966 21.857 33.965 z M 27.783 19.32 C 27.783 19.32 25.401 21.714 25.396 26.904 L 26.145 26.904 C 26.147 22.232 28.291 20.084 28.291 20.084 L 37.539 20.084 C 37.539 20.084 39.662 22.273 39.662 26.881 L 39.662 26.904 L 40.408 26.904 L 40.408 26.881 C 40.408 21.755 38.057 19.32 38.057 19.32 L 27.783 19.32 z M 39.662 26.904 L 26.148 26.904 L 26.148 26.908 L 25.396 26.908 L 25.396 26.918 C 25.396 28.515 25.625 29.854 25.926 30.936 C 26.635 33.364 27.775 34.51 27.775 34.51 L 38.064 34.51 C 38.064 34.51 39.176 33.368 39.869 30.936 L 39.879 30.936 C 40.189 29.854 40.408 28.514 40.408 26.908 L 39.662 26.908 C 39.662 26.907 39.662 26.906 39.662 26.904 z " style="fill:#ffffff;fill-opacity:1;fill-rule:nonzero;stroke-width:1.4135" /></svg>