<?xml version="1.0" encoding="UTF-8" standalone="no"?><svg xmlns:dc="http://purl.org/dc/elements/1.1/" xmlns:cc="http://creativecommons.org/ns#" xmlns:rdf="http://www.w3.org/1999/02/22-rdf-syntax-ns#" xmlns:svg="http://www.w3.org/2000/svg" xmlns="http://www.w3.org/2000/svg" xmlns:sodipodi="http://sodipodi.sourceforge.net/DTD/sodipodi-0.dtd" xmlns:inkscape="http://www.inkscape.org/namespaces/inkscape" width="40" height="40" viewBox="0 0 40 40" id="svg53822" version="1.1" sodipodi:docname="42.svg" inkscape:version="0.92.3 (2405546, 2018-03-11)"><sodipodi:namedview pagecolor="#ffffff" bordercolor="#666666" borderopacity="1" objecttolerance="10" gridtolerance="10" guidetolerance="10" inkscape:pageopacity="0" inkscape:pageshadow="2" inkscape:window-width="1703" inkscape:window-height="867" id="namedview11" showgrid="false" inkscape:zoom="4.916667" inkscape:cx="-32.64406" inkscape:cy="24" inkscape:window-x="1168" inkscape:window-y="270" inkscape:window-maximized="0" inkscape:current-layer="svg53822" /><defs id="defs53824" /><path inkscape:connector-curvature="0" id="path12188" style="display:inline;fill:#ffffff;fill-opacity:1;fill-rule:evenodd;stroke:none;stroke-width:1.2024009" d="m 14.78714,32.4524 h 9.4769 c 3.5999,0 3.87643,-0.19753 3.68693,2.11599 -0.14197,1.94192 -1.52403,1.83822 -3.25731,1.83822 -3.43077,0 -8.0504,0 -9.44974,0 -3.22831,0.0617 -3.82891,0.12963 -4.01965,-2.2592 -0.15431,-1.96105 2.65857,-1.69501 3.56287,-1.69501 M 1.328248,38.8263 c 1.534526,0 32.747252,0 33.661422,0 3.91471,0 5.01036,-3.00115 5.01036,-3.91224 0,-1.44934 -1.13269,-2.59252 -2.58142,-2.6024 -0.32097,0 -0.56171,0.0741 -0.85738,0.17284 0.0741,0.0679 0.0926,0.0988 0.16049,0.16666 0.40122,0.38888 0.65739,0.86602 0.63702,1.37095 -0.0679,1.06602 -1.31416,2.42833 -3.40978,2.36228 -0.95245,0 -1.84687,-0.16049 -2.43759,-0.71418 0,0 -0.41974,-0.3148 -0.40122,-1.78205 0,-0.65492 0,-0.91602 0.0679,-1.10367 0.0741,-0.19753 0.16666,-0.22839 0.36418,-0.22839 0.20987,0 3.99928,0 4.2289,0 0.21604,0 0.92343,-0.30863 0.95244,-1.20984 0.20987,-3.07708 -1.79995,-6.03934 -4.66777,-6.28872 -4.19186,-0.16666 -8.00102,-0.72344 -9.03,-0.84874 -1.7518,-0.19753 -5.3338,-0.71048 -5.50479,-5.28319 -0.0864,-2.42154 -0.15431,-3.44991 -0.0864,-4.13507 0.0617,-0.69628 -0.0617,-2.46598 -1.34441,-1.67712 -2.20858,1.37157 -4.86715,2.82091 -7.695469,2.5524 -0.555541,-0.0617 -0.762325,0.0864 -0.885779,0.78146 -0.20987,1.23886 -1.610449,5.49615 -3.344352,7.88682 -1.904269,2.6308 -0.561713,7.72633 2.399934,7.9825 1.382061,0.12345 1.468478,0.35801 1.382061,0.89689 -0.104936,0.54319 -0.154317,1.11355 -0.283943,1.70551 -0.27777,1.237 -0.693808,1.65798 -2.333887,1.65798 H 3.139309 c -0.512331,0 -0.915407,0 -1.219102,0.0864 -0.308633,0.12346 -1.2481138,0.81788 -1.5246495,1.02837 -0.2654248,0.21604 -0.6376368,0.36419 -0.1790074,0.72344 0.4567776,0.36419 0.7222024,0.36419 1.1141669,0.36419" /><path inkscape:connector-curvature="0" id="path12192" style="display:inline;fill:#ffffff;fill-opacity:1;fill-rule:nonzero;stroke:none;stroke-width:1.2024009" d="M 0.8134473,10.67028 19.99811,1.173628 39.18091,10.67028 v 4.7437 L 19.99811,5.917325 0.8134473,15.41398 Z" /></svg>