<?xml version="1.0" encoding="UTF-8" standalone="no"?><svg xmlns:dc="http://purl.org/dc/elements/1.1/" xmlns:cc="http://creativecommons.org/ns#" xmlns:rdf="http://www.w3.org/1999/02/22-rdf-syntax-ns#" xmlns:svg="http://www.w3.org/2000/svg" xmlns="http://www.w3.org/2000/svg" width="48" height="48" viewBox="0 0 48 48.000001" id="svg69016" version="1.1"><defs id="defs69018"><clipPath clipPathUnits="userSpaceOnUse" id="clipPath25293"><path d="M 1649.764,271.557 1658.267,271.557 1658.267,280.058 1649.764,280.058 1649.764,271.557 Z" id="path25295" /></clipPath><clipPath clipPathUnits="userSpaceOnUse" id="clipPath25271"><path d="M 0,0 1808.504,0 1808.504,765.354 0,765.354 0,0 Z" id="path25273" /></clipPath><clipPath clipPathUnits="userSpaceOnUse" id="clipPath25905"><path d="M 0,0 1808.504,0 1808.504,765.354 0,765.354 0,0 Z" id="path25907" /></clipPath></defs><path d="m 45.057,38.631 -9.919,-3.609 c 0,1.96 0.233,4.128 0.688,5.667 l -2.389,1.032 -3.98,-0.811 c -2.226,0.311 -4.544,0.461 -6.92,0.461 -8.361,0 -15.8595,-1.74 -21.59827,-4.811 -0.0844,-0.06 -0.50636,-0.337 -0.50636,-0.337 -0.0649,-0.611 -0.0649,-1.5 -0.0649,-2.11 0,-9.42 3.69383,-17.879 9.53643,-22.877 l 0.01,-0.07 h 0.065 C 13.604,8.0806 17.999,6.2824 22.738,6.2824 c 8.693,0 15.782,6.1866 19.521,15.0676 3.142,1.98 5.304,7.336 5.304,13.425 0,0.772 0.04,1.642 0,2.389 z" style="fill:none;fill-opacity:1;fill-rule:nonzero;stroke:none;stroke-width:6.4918" id="path25911" /><path d="m 42.521,25.387 c 0,0 -1.98,2.791 -2.642,5.771 -0.656,2.967 -0.773,5.103 -0.773,5.103 l -3.992,-1.5 c 0,0 0.493,-7.388 2.181,-8.926 1.688,-1.539 2.603,-2.383 3.791,-1.61 1.195,0.785 1.435,1.162 1.435,1.162" style="fill:#ffffff;fill-opacity:1;fill-rule:nonzero;stroke:none;stroke-width:6.4918" id="path25915" /><path d="M 32.646565,40.907761 C 32.250568,39.129021 32.029849,37.187988 32.029849,35.149579 32.029849,29.800377 33.581377,24.821204 36.080701,22.211521 33.672262,23.120366 31.542967,25.24966 30.354977,29.858802 29.491574,33.208545 29.381215,37.129562 29.861604,40.34947 Z M 42.741236,21.211791 C 45.948161,23.302135 47.999554,28.988908 47.999554,35.149579 47.999554,35.948064 47.863227,37.596968 47.863227,37.596968 L 44.98089,39.129021 35.613295,35.480658 C 35.639262,37.356774 36.035259,39.278332 36.437747,41.08953 L 33.360658,42.316471 29.29033,41.49851 C 27.083135,41.797131 24.791547,41.946441 22.435042,41.946441 14.729335,41.946441 6.8353666,40.388421 0.070963,36.558288 0.019029,35.798754 -4.462529e-4,35.058694 -4.462529e-4,34.318635 -4.462529e-4,18.660533 9.9903572,5.683525 22.616811,5.683525 31.452083,5.683525 39.014972,12.064915 42.741236,21.211791 M 35.63277,34.169324 44.448567,37.596968 C 44.519976,36.837434 44.565418,36.058424 44.565418,35.246955 44.565418,28.911007 42.228388,24.65891 40.086111,24.65891 38.073668,24.65891 35.879457,28.430617 35.63277,34.169324 M 45.714458,37.337298 46.681729,36.817958 C 46.714187,36.389503 46.766121,35.668919 46.766121,35.149579 46.766121,27.249119 43.448837,21.581821 40.014701,21.581821 36.587057,21.581821 33.263281,27.249119 33.263281,35.149579 33.263281,37.149038 33.490493,39.057612 33.879998,40.777926 L 35.009562,40.317012 C 34.671991,38.668107 34.373371,36.947793 34.373371,35.246955 34.373371,29.190152 36.593549,23.412494 40.086111,23.412494 43.578672,23.412494 45.805342,29.190152 45.805342,35.246955 45.805342,35.967539 45.766392,36.649173 45.714458,37.337298 M 14.820219,33.18907 C 14.937071,30.949416 15.099364,28.891532 15.294117,26.989449 11.911915,26.522043 8.7244659,25.730049 5.8356371,24.671894 5.3747228,26.450634 4.9982013,28.391667 4.7385313,30.469027 7.7571951,31.708951 11.158872,32.63078 14.820219,33.18907 M 16.475616,19.101972 C 16.962497,16.713008 17.520787,14.694074 18.111537,12.993236 16.092602,12.82445 14.132094,12.551797 12.255978,12.181767 10.912186,13.622935 9.6527861,15.3822 8.5426969,17.511494 11.022545,18.232078 13.684163,18.790368 16.475616,19.101972 M 20.773154,26.560993 C 20.825088,24.24993 20.883514,22.159587 20.954923,20.283471 17.981702,20.212062 15.099364,19.880982 12.385813,19.342167 11.769097,21.101431 11.22379,23.06194 10.769367,25.24966 13.891899,25.989719 17.254626,26.450634 20.773154,26.560993 M 21.363903,12.272651 C 21.46128,10.863942 21.558656,9.682443 21.662524,8.6827135 20.825088,8.6632383 20.000636,8.6242878 19.189167,8.5723538 18.163471,9.422773 17.131282,10.532862 16.131553,11.902622 17.832391,12.123341 19.578672,12.233701 21.363903,12.272651 M 26.739072,33.5591 C 26.674155,31.299971 26.563795,29.229103 26.427468,27.320528 25.116135,27.411413 23.785326,27.469838 22.435042,27.469838 20.286273,27.469838 18.189438,27.340003 16.164011,27.099809 15.962767,29.008383 15.800473,31.079251 15.690114,33.29943 17.858358,33.59805 20.117487,33.747361 22.435042,33.747361 23.895686,33.747361 25.336854,33.66946 26.739072,33.5591 M 25.54459,19.342167 C 25.174561,16.901269 24.739613,14.86286 24.278699,13.123071 23.668475,13.162021 23.051758,13.162021 22.435042,13.162021 21.273019,13.162021 20.136963,13.123071 19.01389,13.051661 18.410157,14.7525 17.838883,16.790909 17.34551,19.192857 19.000906,19.361642 20.701745,19.433052 22.435042,19.433052 23.486706,19.433052 24.525386,19.400593 25.54459,19.342167 M 27.011726,12.084391 C 26.096389,10.714631 25.181052,9.5850668 24.330633,8.6632383 23.772343,8.6827135 23.220544,8.6827135 22.655762,8.6827135 22.435042,9.682443 22.337666,10.863942 22.24029,12.292127 H 22.435042 C 23.98657,12.292127 25.512132,12.214226 27.011726,12.084391 M 34.55514,17.972408 C 33.44505,15.771705 32.172667,13.97349 30.84835,12.493371 29.017677,12.791991 27.122086,12.993236 25.174561,13.08412 25.622491,14.823909 26.050947,16.862319 26.420977,19.290233 29.270855,19.063022 32.003882,18.621583 34.55514,17.972408 M 34.678483,11.694886 C 33.763146,11.941572 32.821842,12.142816 31.861063,12.311602 33.133446,13.804704 34.360387,15.602919 35.418542,17.751688 36.638991,17.420609 37.813998,17.044088 38.943563,16.622124 37.697147,14.7525 36.26247,13.08412 34.678483,11.694886 M 29.264363,8.2737332 C 28.024439,8.4425187 26.752056,8.5528785 25.460198,8.6048125 26.271666,9.552608 27.141561,10.662697 27.99198,11.993506 30.017406,11.772787 31.977915,11.435216 33.841047,10.993777 32.419354,9.864212 30.880809,8.955367 29.264363,8.2737332 M 17.903801,7.605083 C 19.455329,7.734918 21.045808,7.812819 22.655762,7.812819 24.259224,7.812819 25.830227,7.734918 27.36228,7.605083 25.836719,7.163644 24.24624,6.9234492 22.616811,6.9234492 21.000365,6.9234492 19.42287,7.163644 17.903801,7.605083 M 11.308182,11.071678 C 12.554598,11.363806 13.839965,11.584526 15.15779,11.792262 16.066635,10.454961 17.014431,9.3643473 17.968718,8.4749775 17.30656,8.4230435 16.650893,8.3451425 16.001718,8.2737332 14.33983,8.955367 12.762334,9.9031625 11.308182,11.071678 M 6.2186503,16.732484 C 6.7055316,16.920744 7.1924129,17.083038 7.6987694,17.251824 8.7569246,15.180955 9.9643902,13.441166 11.26274,11.954556 L 10.477238,11.772787 C 8.8932514,13.181496 7.4585746,14.843384 6.2186503,16.732484 M 3.2519205,22.672435 C 5.2903301,23.62023 7.5299839,24.412224 9.9254397,25.041924 10.37337,22.880171 10.912186,20.913171 11.52241,19.173382 9.4904924,18.731943 7.5559509,18.160669 5.7382608,17.492018 4.7709901,19.082497 3.9335543,20.822286 3.2519205,22.672435 M 1.628983,29.021367 C 2.356059,29.410872 3.1155938,29.761426 3.9010956,30.118472 4.1737491,28.041112 4.5502706,26.13903 5.0111848,24.379765 4.3100758,24.10062 3.6219503,23.801999 2.9662835,23.509871 2.3755343,25.24966 1.9211118,27.099809 1.628983,29.021367 M 8.5621721,38.797942 C 8.5816474,36.688123 8.6725319,34.688664 8.8348256,32.799565 6.1732081,32.04003 3.7063431,31.079251 1.499148,29.930212 1.3238708,31.358397 1.2329863,32.81904 1.2329863,34.318635 1.2329863,34.818499 1.239478,35.318364 1.2589533,35.798754 3.4336896,36.999727 5.8810793,38.018932 8.5621721,38.797942 M 20.584893,40.667566 C 20.597877,38.518797 20.61086,36.480387 20.636827,34.578305 16.767744,34.44847 13.08043,33.909654 9.6852449,33.020285 9.5359346,34.909384 9.4450501,36.928318 9.4255749,39.038137 12.853219,39.985932 16.618434,40.537731 20.584893,40.667566 M 28.413944,34.279684 C 26.479402,34.500404 24.479943,34.610763 22.435042,34.610763 L 21.513214,34.59778 C 21.487247,36.519338 21.467771,38.538272 21.454788,40.706517 H 22.435042 C 24.512402,40.706517 26.550812,40.596157 28.608696,40.336487 28.342535,38.466863 28.264634,36.370028 28.413944,34.279684 M 30.023898,26.911548 C 29.134528,27.041383 28.219191,27.151743 27.297363,27.249119 27.43369,29.151202 27.544049,31.228562 27.608967,33.487691 L 28.491845,33.390314 C 28.62168,32.078981 28.842399,30.780631 29.154003,29.540707 29.407182,28.579928 29.705802,27.690558 30.023898,26.911548 M 31.77667,23.899376 C 31.439099,22.360831 31.043103,20.952121 30.621139,19.673246 28.011455,20.082227 25.265445,20.302946 22.435042,20.302946 H 21.831309 C 21.7599,22.17257 21.701474,24.269405 21.643049,26.580469 H 22.435042 C 25.207019,26.580469 27.901096,26.379224 30.465337,25.970244 30.861334,25.171759 31.302773,24.490125 31.77667,23.899376 M 39.469394,20.361372 C 39.086381,19.452527 38.677401,18.602108 38.235962,17.803622 36.119651,18.530698 33.860522,19.101972 31.491033,19.530428 31.854571,20.640517 32.185651,21.822016 32.490763,23.10089 34.516189,21.062481 37.022005,20.432781 39.469394,20.361372 M 39.073398,17.511494 C 39.553787,18.400863 40.001718,19.342167 40.410698,20.361372 40.637909,20.380847 40.858629,20.413306 41.072857,20.471732 40.579484,19.400593 40.027685,18.361913 39.41746,17.381659 Z" style="fill:#ffffff;fill-opacity:1;fill-rule:nonzero;stroke:none;stroke-width:6.4917502" id="path25923" /></svg>