<?xml version="1.0" encoding="UTF-8" standalone="no"?><svg xmlns:dc="http://purl.org/dc/elements/1.1/" xmlns:cc="http://creativecommons.org/ns#" xmlns:rdf="http://www.w3.org/1999/02/22-rdf-syntax-ns#" xmlns:svg="http://www.w3.org/2000/svg" xmlns="http://www.w3.org/2000/svg" width="48" height="48" viewBox="0 0 48 48.000001" id="svg69016" version="1.1"><defs id="defs69018" /><path d="m 24.56684,27.39271 h 8.97346 l 3.6657,-6.33939 h -8.96824 z m 0.0834,20.27864 -2.98125,0.32841 5.63513,-9.84661 H 18.33067 L 13.37999,46.7591 11.12802,45.80201 30.98495,11.46578 c 0.80851,-1.39392 2.91139,-0.17202 2.09297,1.21982 l -3.56666,6.16111 h 8.97398 l 4.14685,-7.20265 c 0.80331,-1.39861 2.9015,-0.19287 2.09298,1.21513 z M 19.61043,35.93976 h 8.96356 l 3.68551,-6.33992 h -8.97346 l -3.67561,6.33992" style="display:inline;opacity:1;fill:#ffffff;fill-opacity:1;fill-rule:evenodd;stroke:none;stroke-width:4.960485" id="path11074" /><path d="m 17.95482,6.567234 c 0,-1.845362 -1.50288,-3.348758 -3.35293,-3.348758 -1.85057,0 -3.34354,1.503396 -3.34354,3.348758 0,1.854744 1.49297,3.392545 3.34354,3.392545 1.85005,0 3.35293,-1.537801 3.35293,-3.392545" style="display:inline;opacity:1;fill:#ffffff;fill-opacity:1;fill-rule:nonzero;stroke:none;stroke-width:4.960485" id="path11086" /><path d="m 5.783253,40.12414 c 0,0 -0.30756,1.53259 1.547184,1.87038 1.870384,0.33884 2.272297,-1.58732 2.272297,-1.58732 L 13.09954,25.88775 c 0,0 2.40626,0.4848 3.54684,-1.07177 1.1312,-1.5623 3.2445,-3.27369 3.2445,-3.27369 l -0.46394,6.00211 c 0,0 0.099,1.37412 1.33397,1.48307 1.79115,0.15117 1.91522,-1.20522 1.91522,-1.20522 L 23.9658,15.64443 c 0,0 -0.81895,-1.88498 -2.80297,-0.18245 -1.97412,1.69627 -4.51905,3.67039 -4.51905,3.67039 L 25.21585,2.226986 c 0,0 0.68914,-1.200528 -0.50565,-1.968907 -1.26986,-0.8137314 -2.00384,0.5551722 -2.00384,0.5551722 L 15.6476,13.46753 12.25922,13.75945 6.495333,9.979588 6.677784,4.74116 c 0,0 0.773592,-2.158134 -1.478374,-2.440673 C 3.934764,2.138888 3.939456,3.917524 3.939456,3.917524 l -0.848137,8.001256 7.252161,4.79221 -0.877845,7.51958 -3.68551,15.89357" style="display:inline;opacity:1;fill:#ffffff;fill-opacity:1;fill-rule:nonzero;stroke:none;stroke-width:4.960485" id="path11090" /></svg>