<?xml version="1.0" encoding="UTF-8" standalone="no"?><svg xmlns:dc="http://purl.org/dc/elements/1.1/" xmlns:cc="http://creativecommons.org/ns#" xmlns:rdf="http://www.w3.org/1999/02/22-rdf-syntax-ns#" xmlns:svg="http://www.w3.org/2000/svg" xmlns="http://www.w3.org/2000/svg" width="48" height="48" viewBox="0 0 48 48.000001" id="svg69016" version="1.1"><defs id="defs69018" /><path id="path45632" style="fill:#ffffff;fill-opacity:1;fill-rule:evenodd;stroke:none;stroke-width:1.09153" d="m 30.296,18.3 c 0,4 -2.795,4.8 -5.934,4.8 h -5.205 v -9.5 h 5.205 c 3.139,0 5.934,0.7 5.934,4.7 m 6.511,0 c 0,-5.1 -2.946,-10.1 -10.61,-10.1 H 12.41 v 31.5 h 6.747 V 28.5 h 7.04 c 7.664,0 10.61,-5.1 10.61,-10.2 M 1.1076e-5,8 C 1.1076e-5,3.5 3.5813,0 8.0097,0 H 39.999 C 44.418,0 48,3.5 48,8 v 32 c 0,4.4 -3.582,8 -8.001,8 H 8.0097 C 3.5813,48 1.1076e-5,44.4 1.1076e-5,40 Z" /></svg>