<?xml version="1.0" encoding="UTF-8" standalone="no"?><svg xmlns:dc="http://purl.org/dc/elements/1.1/" xmlns:cc="http://creativecommons.org/ns#" xmlns:rdf="http://www.w3.org/1999/02/22-rdf-syntax-ns#" xmlns:svg="http://www.w3.org/2000/svg" xmlns="http://www.w3.org/2000/svg" version="1.1" id="svg69016" viewBox="0 0 48 48.000001" height="48" width="48"><defs id="defs69018"><clipPath id="clipPath25293" clipPathUnits="userSpaceOnUse"><path id="path25295" d="M 1649.764,271.557 1658.267,271.557 1658.267,280.058 1649.764,280.058 1649.764,271.557 Z" /></clipPath><clipPath id="clipPath25271" clipPathUnits="userSpaceOnUse"><path id="path25273" d="M 0,0 1808.504,0 1808.504,765.354 0,765.354 0,0 Z" /></clipPath><clipPath id="clipPath25905" clipPathUnits="userSpaceOnUse"><path id="path25907" d="M 0,0 1808.504,0 1808.504,765.354 0,765.354 0,0 Z" /></clipPath><clipPath id="clipPath25585" clipPathUnits="userSpaceOnUse"><path id="path25587" d="M 0,0 1808.504,0 1808.504,765.354 0,765.354 0,0 Z" /></clipPath><clipPath id="clipPath25561" clipPathUnits="userSpaceOnUse"><path id="path25563" d="M 0,0 1808.504,0 1808.504,765.354 0,765.354 0,0 Z" /></clipPath><clipPath id="clipPath25201" clipPathUnits="userSpaceOnUse"><path id="path25203" d="M 0,0 1808.504,0 1808.504,765.354 0,765.354 0,0 Z" /></clipPath><clipPath id="clipPath25073" clipPathUnits="userSpaceOnUse"><path id="path25075" d="M 0,0 1808.504,0 1808.504,765.354 0,765.354 0,0 Z" /></clipPath></defs><path id="path25079" style="fill:#ffffff;fill-opacity:1;fill-rule:nonzero;stroke:none;stroke-width:5.9084191" d="M 21.1202,13.48004 -0.0023979,21.64548 0.1039536,19.80796 15.28859,13.93499 15.05816,13.3796 15.09361,11.50072 28.97249,6.059066 30.27234,7.370735 30.50277,8.056111 46.56185,1.840455 47.9976,2.11815 v 0.968981 l -22.55835,8.720829 -0.64401,0.24815 3.00738,12.76809 h 3.06056 c 1.70754,0 3.09601,1.26441 3.09601,2.81241 V 43.3471 c 0,1.55391 -1.38847,2.81241 -3.09601,2.81241 H 15.82035 c -1.70753,0 -3.09601,-1.2585 -3.09601,-2.81241 V 27.63661 c 0,-1.548 1.38848,-2.81241 3.09601,-2.81241 l 3.06647,-0.0414 c 0.40177,-1.70754 1.90251,-7.65141 2.88331,-11.56278 z m 3.49778,23.89365 h 7.19055 V 27.85522 H 24.61798 Z M 20.51163,24.78285 h 5.68981 l -0.55539,-2.35156 h -4.57903 z m 1.00443,-4.03545 h 3.67504 l -0.53176,-2.26884 h -2.60561 z m 0.99262,-4.17726 h 1.69571 l -0.8449,-3.57459 z m -7.44461,20.80355 h 7.55096 v -9.51847 h -7.55096 z" /></svg>