<?xml version="1.0" encoding="UTF-8" standalone="no"?><svg xmlns:dc="http://purl.org/dc/elements/1.1/" xmlns:cc="http://creativecommons.org/ns#" xmlns:rdf="http://www.w3.org/1999/02/22-rdf-syntax-ns#" xmlns:svg="http://www.w3.org/2000/svg" xmlns="http://www.w3.org/2000/svg" width="48" height="48" viewBox="0 0 12.7 12.7" version="1.1" id="svg6185"><defs id="defs6179" /><ellipse transform="rotate(44.332)" rx="0.99561" ry="0.98075" id="ellipse1816-1" cx="2.6568" cy="0.45926" style="fill:#ffffff;fill-opacity:1;fill-rule:evenodd;stroke-width:0.02779" /><path style="fill:#ffffff;fill-opacity:1;fill-rule:evenodd;stroke-width:0.02779" d="M 2.2613,3.9631 4.0864,4.961 C 4.3175,5.0873 4.4017,5.3751 4.2754,5.6062 4.149,5.8373 3.8613,5.9217 3.6302,5.7953 L 1.8051,4.7974 C 1.574,4.6711 1.4897,4.3833 1.616,4.1522 1.7424,3.9211 2.0302,3.8367 2.2613,3.9631 Z" id="_136587680-6" /><path id="rect1821-2" d="M 1.464,3.579 C 0.9618,3.5787 0.55734,3.9827 0.55707,4.4849 v 1.6047 c -2e-5,0.038 0.006,0.075 0.0109,0.1119 v 0.3294 c -5e-5,0.07 0.01,0.1379 0.0249,0.2035 -0.004,0.024 -0.0109,0.048 -0.0109,0.074 0,0.3622 0.42083,0.6551 0.94613,0.6569 l 2.1837,0.01 0.6517,1.293 C 4.5265,9.0894 4.9181,9.2185 5.2416,9.0555 5.565,8.8926 5.6938,8.501 5.5308,8.1774 L 4.8091,6.7444 C 4.8038,6.7338 4.7958,6.7259 4.7905,6.7161 4.7175,6.405 4.332,6.1679 3.8597,6.1663 L 2.3808,6.161 V 4.9281 c -10e-5,-0.039 -0.01,-0.076 -0.011,-0.113 V 4.486 C 2.3701,3.9838 1.9661,3.5793 1.464,3.579 Z" style="fill:#ffffff;fill-opacity:1;fill-rule:evenodd;stroke-width:0.37149" /><path id="_55647952-2" d="m 0,8.0057 v 0.5667 h 3.0871 v 2.0336 h 0.5675 2.5046 v 1.864 h 0.5675 v -1.864 0 -0.567 H 3.6546 v -1.9931 0 -0.04 z" style="fill:#ffffff;fill-opacity:1;fill-rule:evenodd;stroke-width:0.37149" /><rect x="9.1759" y="8.7" width="3.5241" height="3.7695" id="rect1834-4" style="fill:#ffffff;fill-opacity:1;fill-rule:evenodd;stroke-width:0.37149" /><path d="m 8.1729,2.49 c 0,0 -0.059,0.15 -0.1778,0.29 C 7.857,2.94 7.7079,3.06 7.5463,3.15 7.2689,3.29 6.946,3.36 6.5806,3.36 6.3666,3.36 6.0589,3.26 5.6546,3.17 5.2502,3.03 4.941,2.97 4.7286,2.97 c -0.059,0 -0.1463,0 -0.2612,0 -0.1144,0 -0.2014,0 -0.2608,0 -0.075,0 -0.1129,0 -0.1129,-0.1 0,-0.1 0.084,-0.15 0.2538,-0.25 0.1353,-0.1 0.2596,-0.14 0.3729,-0.18 0.1557,-0.1 0.3214,-0.1 0.4964,-0.1 0.192,0 0.4693,0 0.8339,0.16 0.3642,0.11 0.6416,0.16 0.832,0.16 0.1754,0 0.5738,-0.12 1.1977,-0.37 0.062,0 0.093,0 0.093,0.11 z m -0.214,0.1 C 7.5836,2.79 7.2237,2.9 6.8783,2.9 6.6879,2.9 6.4106,2.8 6.0464,2.73 5.6821,2.63 5.4048,2.57 5.2129,2.57 c -0.3202,0 -0.6294,0.11 -0.9248,0.31 0.1699,0 0.3273,0 0.472,0 0.2195,0 0.5354,0.1 0.948,0.19 0.4142,0.13 0.7301,0.2 0.9484,0.2 C 6.924,3.27 7.1781,3.17 7.4196,3.1 7.6595,2.98 7.8405,2.82 7.9589,2.62 Z" id="path1836-4" style="fill:#ffffff;fill-opacity:1;fill-rule:evenodd;stroke-width:0.37149" /><path d="m 7.5933,0.33 c 0,0.1 -0.059,0.16 -0.1778,0.3 C 7.2774,0.79 7.1284,0.91 6.9667,0.99 6.6894,1.14 6.3665,1.21 6.001,1.21 5.787,1.21 5.4794,1.11 5.075,1.01 4.6707,0.88 4.3615,0.82 4.1491,0.82 c -0.059,0 -0.1463,0 -0.2612,0 -0.1145,0 -0.2014,0 -0.2608,0 -0.075,0 -0.1129,0 -0.1129,-0.1 0,-0.1 0.084,-0.15 0.2537,-0.26 0.1353,-0.1 0.2596,-0.14 0.373,-0.17 0.1557,0 0.3213,-0.1 0.4963,-0.1 0.192,0 0.4693,0.1 0.834,0.16 0.3642,0.11 0.6415,0.16 0.8319,0.16 0.1754,0 0.5739,-0.12 1.1978,-0.37 0.062,0 0.092,0 0.092,0.1 z m -0.214,0.1 C 7.0041,0.63 6.6442,0.73 6.2988,0.73 6.1084,0.73 5.8311,0.73 5.4669,0.57 5.1026,0.47 4.8253,0.41 4.6333,0.41 4.3131,0.41 4.004,0.52 3.7085,0.72 c 0.17,0 0.3273,0 0.4721,0 0.2195,0 0.5353,0.1 0.9479,0.19 0.4143,0.13 0.7301,0.2 0.9484,0.2 C 6.3444,1.11 6.5985,1.01 6.84,0.93 7.08,0.82 7.2609,0.66 7.3793,0.46 Z" id="path1838-2" style="fill:#ffffff;fill-opacity:1;fill-rule:evenodd;stroke-width:0.37149" /><path d="m 12.282,0.72 c 0,0.1 -0.06,0.15 -0.178,0.29 C 11.966,1.17 11.817,1.29 11.655,1.38 11.378,1.52 11.055,1.6 10.689,1.6 10.475,1.6 10.168,1.5 9.7633,1.4 9.3589,1.27 9.0498,1.2 8.8373,1.2 c -0.059,0 -0.1463,0 -0.2612,0 -0.1144,0 -0.2013,0 -0.2607,0 -0.076,0 -0.1129,0 -0.1129,-0.1 0,-0.1 0.084,-0.16 0.2537,-0.26 0.1353,-0.1 0.2596,-0.14 0.3729,-0.17 0.1558,-0.1 0.3214,-0.1 0.4964,-0.1 0.192,0 0.4693,0.1 0.8335,0.17 0.365,0.1 0.642,0.16 0.832,0.16 0.176,0 0.574,-0.13 1.198,-0.37 0.06,0 0.09,0 0.09,0.1 z m -0.214,0.1 c -0.376,0.2 -0.736,0.3 -1.081,0.3 -0.19,0 -0.468,-0.1 -0.832,-0.16 C 9.7909,0.85 9.5135,0.8 9.3216,0.8 9.0014,0.8 8.6922,0.9 8.3968,1.11 c 0.1699,0 0.3273,0 0.472,0 0.2195,0 0.5354,0.1 0.948,0.2 0.4142,0.13 0.7302,0.19 0.9482,0.19 0.268,0 0.522,-0.1 0.763,-0.17 0.24,-0.12 0.421,-0.27 0.54,-0.47 z" id="path1840-5" style="fill:#ffffff;fill-opacity:1;fill-rule:evenodd;stroke-width:0.37149" /><path d="m 11.984,6.87 c 0,0.1 -0.06,0.15 -0.177,0.29 -0.139,0.16 -0.288,0.28 -0.449,0.37 -0.278,0.14 -0.6,0.22 -0.966,0.22 -0.214,0 -0.5215,-0.1 -0.9259,-0.2 -0.4044,-0.13 -0.7135,-0.2 -0.926,-0.2 -0.059,0 -0.1463,0 -0.2611,0 -0.1145,0 -0.2014,0 -0.2608,0 -0.076,0 -0.1129,0 -0.1129,-0.1 0,-0.1 0.084,-0.16 0.2537,-0.26 0.1353,-0.1 0.2596,-0.14 0.3729,-0.17 0.1558,-0.1 0.3214,-0.1 0.4964,-0.1 0.192,0 0.4693,0.1 0.8339,0.17 0.3638,0.1 0.6418,0.16 0.8318,0.16 0.176,0 0.574,-0.13 1.198,-0.37 0.06,0 0.09,0 0.09,0.1 z m -0.214,0.1 c -0.375,0.2 -0.735,0.3 -1.08,0.3 -0.191,0 -0.468,-0.1 -0.8321,-0.16 C 9.4937,7 9.2163,6.95 9.0244,6.95 c -0.3202,0 -0.6294,0.1 -0.9248,0.31 0.1699,0 0.3273,0 0.472,0 0.2195,0 0.5354,0.1 0.948,0.2 0.4142,0.13 0.7304,0.19 0.9484,0.19 0.267,0 0.522,-0.1 0.763,-0.17 0.24,-0.12 0.421,-0.27 0.539,-0.47 z" id="path1842-0" style="fill:#ffffff;fill-opacity:1;fill-rule:evenodd;stroke-width:0.37149" /><path d="m 9.8409,4.91 c 0,0.1 -0.059,0.16 -0.1778,0.3 C 9.525,5.37 9.3759,5.49 9.2143,5.57 8.9369,5.72 8.614,5.79 8.2486,5.79 8.0346,5.79 7.727,5.69 7.3226,5.6 6.9182,5.46 6.6091,5.4 6.3966,5.4 c -0.059,0 -0.1463,0 -0.2612,0 -0.1144,0 -0.2014,0 -0.2608,0 -0.075,0 -0.1128,0 -0.1128,-0.1 0,-0.1 0.084,-0.15 0.2537,-0.25 0.1353,-0.1 0.2596,-0.14 0.3729,-0.18 0.1558,-0.1 0.3214,-0.1 0.4964,-0.1 0.192,0 0.4693,0 0.8339,0.16 0.3643,0.11 0.6416,0.16 0.832,0.16 0.1754,0 0.5738,-0.12 1.1977,-0.37 0.062,0 0.092,0 0.092,0.1 z m -0.214,0.1 C 9.2516,5.21 8.8917,5.32 8.5463,5.32 8.3559,5.32 8.0786,5.22 7.7144,5.15 7.3501,5.05 7.0728,4.99 6.8809,4.99 6.5607,4.99 6.2515,5.1 5.9561,5.3 c 0.1699,0 0.3273,0 0.472,0 0.2195,0 0.5354,0.1 0.948,0.19 0.4142,0.13 0.7301,0.2 0.9484,0.2 0.2675,0 0.5216,-0.1 0.7631,-0.17 C 9.3275,5.4 9.5085,5.24 9.6269,5.04 Z" id="path1844-4" style="fill:#ffffff;fill-opacity:1;fill-rule:evenodd;stroke-width:0.37149" /><path d="m 12.478,3.15 c 0,0.1 -0.06,0.16 -0.177,0.3 -0.138,0.16 -0.287,0.28 -0.449,0.36 -0.277,0.15 -0.6,0.22 -0.966,0.22 -0.214,0 -0.521,-0.1 -0.9258,-0.2 C 9.5558,3.7 9.2467,3.64 9.0342,3.64 c -0.059,0 -0.1463,0 -0.2612,0 -0.1144,0 -0.2013,0 -0.2608,0 -0.075,0 -0.1128,0 -0.1128,-0.1 0,-0.1 0.084,-0.15 0.2537,-0.26 0.1353,-0.1 0.2596,-0.14 0.3729,-0.17 0.1558,-0.1 0.3214,-0.1 0.4964,-0.1 0.192,0 0.4693,0.1 0.8336,0.16 0.365,0.11 0.642,0.16 0.832,0.16 0.176,0 0.574,-0.12 1.198,-0.37 0.06,0 0.09,0 0.09,0.1 z m -0.214,0.1 c -0.375,0.2 -0.735,0.3 -1.08,0.3 -0.19,0 -0.468,-0.1 -0.832,-0.16 C 9.9877,3.29 9.7104,3.23 9.5185,3.23 c -0.3202,0 -0.6294,0.1 -0.9248,0.31 0.1699,0 0.3273,0 0.472,0 0.2195,0 0.5354,0.1 0.9483,0.19 0.414,0.13 0.73,0.2 0.948,0.2 0.268,0 0.522,-0.1 0.763,-0.18 0.24,-0.11 0.421,-0.27 0.539,-0.47 z" id="path1846-2" style="fill:#ffffff;fill-opacity:1;fill-rule:evenodd;stroke-width:0.37149" /></svg>