<?xml version="1.0" encoding="UTF-8" standalone="no"?><svg xmlns:dc="http://purl.org/dc/elements/1.1/" xmlns:cc="http://creativecommons.org/ns#" xmlns:rdf="http://www.w3.org/1999/02/22-rdf-syntax-ns#" xmlns:svg="http://www.w3.org/2000/svg" xmlns="http://www.w3.org/2000/svg" id="svg5030" version="1.1" viewBox="0 0 10.58333 10.58333" height="40" width="40"><defs id="defs5024" /><path d="M 0.82329,7.21 C 0.53762,6.64 1.2764,6.27 1.5617,6.83 L 2.4634,8.6 c 0.196,0.36 0.5772,0.61 1.0183,0.61 0.1377,0 0.2662,0 0.3919,-0.1 L 5.0098,8.78 C 5.6109,8.6 5.8441,9.39 5.2372,9.57 L 4.0424,9.92 c -0.1779,0.1 -0.3709,0.1 -0.5698,0.1 -0.7669,0 -1.4322,-0.43 -1.7583,-1.07 L 0.82329,7.19 Z M 4.9783,0.00207 0.17931,1.5405 V 2.1678 L 3.5128,1.0986 V 4.7005 L 4.07,5.7861 V 0.92034 L 6.9328,0.00207 Z M 1.7813,5.91 C 1.2728,4.95 2.7322,4.16 3.2689,5.1 L 4.317,7.09 6.3118,6.52 c 0.3303,-0.1 0.7864,0.27 0.7864,0.69 l 0.01,2.84 c 0,0.71 -1.0419,0.71 -1.0419,0 0,-0.66 -0.019,-2.07 -0.019,-2.07 L 3.9644,8.61 C 3.5084,8.74 3.1314,8.51 2.9536,8.18 L 1.7814,5.92 Z M 2.1756,4.58 C 2.6854,4.43 2.9769,3.89 2.8289,3.38 2.6792,2.87 2.1442,2.58 1.6328,2.73 1.1214,2.87 0.82662,3.41 0.97787,3.92 1.1272,4.43 1.6609,4.73 2.1756,4.58 Z M 10.202,4.3802 q 0,0.6352 -0.4174,0.9817 -0.417,0.3465 -1.1871,0.3465 -0.7283,0 -1.1582,-0.3337 Q 7.0094,5.0378 6.9356,4.4059 l 0.9176,-0.08 q 0.087,0.6513 0.7411,0.6513 0.3241,0 0.5038,-0.1604 0.1796,-0.1605 0.1796,-0.4909 0,-0.3016 -0.2181,-0.462 Q 8.8414,3.7032 8.4115,3.7032 H 8.097 V 2.9749 h 0.2952 q 0.3882,0 0.5839,-0.1572 0.1957,-0.1604 0.1957,-0.4556 0,-0.2791 -0.1572,-0.4363 -0.154,-0.1604 -0.4523,-0.1604 -0.2792,0 -0.4524,0.154 -0.1701,0.154 -0.1957,0.4363 L 7.0126,2.2916 q 0.071,-0.584 0.4845,-0.9143 0.4138,-0.3305 1.0812,-0.3305 0.709,0 1.1069,0.3208 0.4008,0.3176 0.4008,0.8822 0,0.4236 -0.25,0.6963 -0.2471,0.2727 -0.7155,0.3625 v 0.013 q 0.5198,0.061 0.7989,0.3433 0.2826,0.2792 0.2826,0.7155 z" style="fill:#ffffff;fill-opacity:1;fill-rule:evenodd;stroke-width:0.30588" id="path1812-3" /></svg>