<?xml version="1.0" encoding="UTF-8" standalone="no"?><svg xmlns:dc="http://purl.org/dc/elements/1.1/" xmlns:cc="http://creativecommons.org/ns#" xmlns:rdf="http://www.w3.org/1999/02/22-rdf-syntax-ns#" xmlns:svg="http://www.w3.org/2000/svg" xmlns="http://www.w3.org/2000/svg" id="svg6185" version="1.1" viewBox="0 0 12.7 12.7" height="48" width="48"><defs id="defs6179" /><path id="polygon756-9" transform="scale(0.26458)" d="M 6.082 2.3867 L 6.082 8.7969 L -0.074219 8.8379 L -0.074219 13.121 L 15.986 13.174 L 15.986 9.0117 L 10.633 8.9453 L 10.633 2.4004 L 6.082 2.3867 z M -0.074219 14.809 L -0.074219 20.457 L 22.68 20.551 L 22.547 19.158 L 22.547 17.766 L 22.547 14.902 L -0.074219 14.809 z M -0.074219 22.076 L -0.074219 27.189 L -0.074219 30.91 L -0.074219 32.289 L -0.074219 34.055 L 0.19336 34.055 L 0.32617 34.055 L 0.46094 34.055 L 0.72852 34.055 L 0.86133 34.055 L 1.1289 34.055 L 1.2637 34.055 L 1.3965 34.055 L 1.666 34.055 L 1.7988 34.055 L 2.0664 34.055 L 2.2012 34.055 L 2.4688 34.055 L 2.6016 34.055 L 2.7363 34.055 L 3.0039 34.055 L 3.1367 34.055 L 3.4043 34.055 L 3.5391 34.055 L 3.6738 34.055 L 3.9414 34.055 L 4.0742 34.055 L 4.209 34.055 L 4.4766 34.055 L 4.6094 34.055 L 7.6875 32.877 L 7.8223 32.744 L 8.0898 32.609 L 8.2246 32.477 L 8.4922 32.477 L 8.625 32.477 L 8.6855 32.445 L 13.637 32.535 L 13.711 32.609 L 13.846 32.609 L 16.791 33.787 L 16.924 33.922 L 17.191 34.055 L 17.326 34.055 L 17.594 34.189 L 17.727 34.189 L 17.861 34.189 L 18.129 34.189 L 18.264 34.189 L 18.531 34.189 L 18.664 34.189 L 18.932 34.189 L 19.066 34.189 L 19.334 34.189 L 19.467 34.189 L 19.734 34.189 L 19.869 34.189 L 20.137 34.189 L 20.271 34.189 L 20.539 34.189 L 20.672 34.189 L 20.807 34.189 L 20.939 34.189 L 21.207 34.189 L 21.342 34.189 L 21.609 34.189 L 21.742 34.189 L 21.877 34.189 L 22.145 34.189 L 22.277 34.055 L 22.412 34.055 L 22.68 34.055 L 22.814 33.922 L 25.758 32.771 L 25.777 32.752 L 31.734 32.857 L 31.781 32.904 L 34.459 34.016 L 34.727 34.148 L 34.861 34.283 L 34.994 34.283 L 35.262 34.418 L 35.396 34.418 L 35.529 34.418 L 35.797 34.418 L 35.932 34.418 L 36.199 34.418 L 36.332 34.418 L 36.467 34.418 L 36.734 34.418 L 36.869 34.418 L 37.137 34.418 L 37.27 34.418 L 37.537 34.418 L 37.672 34.418 L 37.939 34.418 L 38.072 34.418 L 38.207 34.418 L 38.475 34.418 L 38.607 34.418 L 38.875 34.418 L 39.01 34.418 L 39.277 34.418 L 39.412 34.418 L 39.545 34.418 L 39.812 34.418 L 39.947 34.283 L 40.08 34.283 L 40.348 34.283 L 40.482 34.148 L 43.561 32.998 L 43.695 32.865 L 43.963 32.865 L 44.096 32.73 L 44.23 32.73 L 44.498 32.73 L 44.631 32.73 L 44.898 32.73 L 45.033 32.73 L 45.301 32.73 L 45.568 32.73 L 45.703 32.73 L 45.971 32.73 L 46.104 32.73 L 46.371 32.73 L 46.506 32.73 L 46.773 32.73 L 46.906 32.73 L 47.174 32.73 L 47.309 32.73 L 47.443 32.73 L 47.711 32.73 L 47.844 32.73 L 47.844 30.215 L 47.711 30.215 L 47.576 30.215 L 47.443 30.215 L 47.174 30.215 L 47.041 30.215 L 46.906 30.215 L 46.639 30.215 L 46.506 30.215 L 46.238 30.215 L 46.104 30.215 L 45.971 30.215 L 45.703 30.215 L 45.568 30.215 L 45.301 30.215 L 45.168 30.215 L 44.898 30.215 L 44.766 30.215 L 44.631 30.215 L 44.363 30.215 L 44.23 30.215 L 43.963 30.215 L 43.828 30.215 L 43.695 30.215 L 43.428 30.215 L 43.293 30.348 L 43.16 30.348 L 42.891 30.482 L 40.08 31.594 L 39.947 31.594 L 39.68 31.727 L 39.545 31.727 L 39.412 31.727 L 39.145 31.727 L 39.01 31.727 L 38.875 31.727 L 38.607 31.727 L 38.475 31.727 L 38.34 31.727 L 38.072 31.727 L 37.939 31.727 L 37.672 31.727 L 37.537 31.727 L 37.404 31.727 L 37.25 31.727 L 42.355 22.156 L -0.074219 22.076 z M 10.5 35.381 L 10.365 35.729 L 10.098 35.729 L 9.9648 35.729 L 9.8301 35.729 L 9.5625 35.729 L 9.4277 35.729 L 9.2949 35.729 L 9.0273 35.729 L 8.8926 35.729 L 8.7598 35.863 L 8.625 35.863 L 5.8145 36.973 L 5.5469 36.973 L 5.4121 37.107 L 5.2793 37.107 L 5.0117 37.107 L 4.877 37.107 L 4.7441 37.107 L 4.4766 37.107 L 4.3418 37.107 L 4.0742 37.107 L 3.9414 37.107 L 3.8066 37.107 L 3.5391 37.107 L 3.4043 37.107 L 3.1367 37.107 L 3.0039 37.107 L 2.7363 37.107 L 2.6016 37.107 L 2.4688 37.107 L 2.2012 37.107 L 2.0664 37.107 L 1.9336 37.107 L 1.7988 37.107 L 1.5312 37.107 L 1.3965 37.107 L 1.2637 37.107 L 1.1289 37.107 L 0.86133 37.107 L 0.72852 37.107 L 0.59375 36.973 L 0.46094 36.973 L 0.19336 36.973 L 0.058594 36.973 L -0.074219 36.84 L -0.074219 39.984 L 0.19336 39.984 L 0.32617 39.984 L 0.46094 39.984 L 0.72852 39.984 L 0.86133 39.984 L 1.1289 39.984 L 1.2637 39.984 L 1.3965 39.984 L 1.666 39.984 L 1.7988 39.984 L 2.0664 39.984 L 2.2012 39.984 L 2.4688 39.984 L 2.6016 39.984 L 2.7363 39.984 L 3.0039 39.984 L 3.1367 39.984 L 3.4043 39.984 L 3.5391 39.984 L 3.6738 39.984 L 3.9414 39.984 L 4.0742 39.984 L 4.209 39.984 L 4.4766 39.852 L 4.6094 39.852 L 7.6875 38.674 L 7.8223 38.674 L 8.0898 38.539 L 8.2246 38.406 L 8.4922 38.406 L 8.625 38.406 L 8.8926 38.271 L 9.0273 38.271 L 9.2949 38.271 L 9.4277 38.271 L 9.6953 38.271 L 9.8301 38.271 L 10.098 38.271 L 10.365 38.271 L 10.5 38.271 L 10.768 38.271 L 11.035 38.271 L 11.168 38.271 L 11.303 38.271 L 11.57 38.271 L 11.703 38.271 L 11.838 38.271 L 12.105 38.271 L 12.24 38.271 L 12.508 38.271 L 12.641 38.271 L 12.775 38.271 L 13.043 38.271 L 13.176 38.406 L 13.311 38.406 L 13.578 38.406 L 13.711 38.406 L 13.846 38.406 L 16.791 39.57 L 16.924 39.705 L 17.191 39.838 L 17.326 39.838 L 17.594 39.973 L 17.727 39.973 L 17.861 39.973 L 18.129 39.973 L 18.264 39.973 L 18.531 39.973 L 18.664 39.973 L 18.932 39.973 L 19.066 39.973 L 19.334 39.973 L 19.467 39.973 L 19.734 39.973 L 19.869 39.973 L 20.137 39.973 L 20.271 39.973 L 20.539 39.973 L 20.672 39.973 L 20.807 39.973 L 21.074 39.973 L 21.207 39.973 L 21.475 39.973 L 21.609 39.973 L 21.742 39.973 L 22.01 39.973 L 22.145 39.973 L 22.277 39.838 L 22.547 39.838 L 22.68 39.838 L 22.814 39.705 L 25.758 38.566 L 25.893 38.434 L 26.16 38.299 L 26.293 38.164 L 26.562 38.164 L 26.695 38.164 L 26.963 38.164 L 27.098 38.164 L 27.23 38.164 L 27.498 38.164 L 27.633 38.164 L 27.9 38.164 L 28.033 38.164 L 28.301 38.164 L 28.436 38.164 L 28.703 38.164 L 28.838 38.164 L 29.105 38.164 L 29.238 38.164 L 29.506 38.164 L 29.641 38.164 L 29.773 38.164 L 30.041 38.164 L 30.176 38.164 L 30.443 38.164 L 30.576 38.164 L 30.711 38.164 L 30.979 38.164 L 31.113 38.299 L 31.246 38.299 L 31.514 38.299 L 31.648 38.434 L 31.781 38.566 L 34.592 39.678 L 34.727 39.811 L 34.861 39.945 L 34.994 39.945 L 35.262 40.078 L 35.396 40.078 L 35.664 40.078 L 35.797 40.078 L 35.932 40.078 L 36.199 40.078 L 36.332 40.078 L 36.6 40.078 L 36.734 40.078 L 37.002 40.078 L 37.137 40.078 L 37.27 40.078 L 37.537 40.078 L 37.672 40.078 L 37.939 40.078 L 38.072 40.078 L 38.34 40.078 L 38.475 40.078 L 38.607 40.078 L 38.875 40.078 L 39.01 40.078 L 39.277 40.078 L 39.412 40.078 L 39.68 40.078 L 39.812 40.078 L 39.947 39.945 L 40.215 39.945 L 40.348 39.945 L 40.482 39.811 L 43.561 38.674 L 43.828 38.539 L 43.963 38.406 L 44.096 38.271 L 44.363 38.271 L 44.498 38.271 L 44.766 38.271 L 44.898 38.271 L 45.168 38.271 L 45.301 38.271 L 45.568 38.271 L 45.703 38.271 L 45.971 38.271 L 46.238 38.271 L 46.371 38.271 L 46.639 38.271 L 46.773 38.271 L 46.906 38.271 L 47.174 38.271 L 47.309 38.271 L 47.576 38.271 L 47.711 38.271 L 47.979 38.271 L 47.979 35.756 L 47.844 35.756 L 47.711 35.756 L 47.443 35.756 L 47.309 35.756 L 47.041 35.756 L 46.906 35.756 L 46.639 35.756 L 46.506 35.756 L 46.371 35.756 L 46.104 35.756 L 45.971 35.756 L 45.703 35.756 L 45.568 35.756 L 45.436 35.756 L 45.168 35.756 L 45.033 35.756 L 44.766 35.756 L 44.631 35.756 L 44.363 35.756 L 44.23 35.756 L 44.096 35.756 L 43.828 35.756 L 43.695 35.756 L 43.561 35.756 L 43.293 35.756 L 43.16 35.756 L 42.891 35.889 L 40.08 37 L 39.947 37 L 39.68 37.135 L 39.545 37.135 L 39.412 37.268 L 39.277 37.268 L 39.01 37.268 L 38.875 37.268 L 38.742 37.268 L 38.475 37.268 L 38.34 37.268 L 38.207 37.268 L 37.939 37.268 L 37.805 37.268 L 37.537 37.268 L 37.404 37.268 L 37.27 37.268 L 37.002 37.268 L 36.869 37.268 L 36.734 37.268 L 36.467 37.268 L 36.332 37.268 L 36.199 37.268 L 35.932 37.268 L 35.797 37.268 L 35.664 37.268 L 35.529 37.268 L 35.262 37.268 L 35.129 37.268 L 34.994 37.268 L 34.861 37.268 L 34.592 37.268 L 34.459 37.268 L 31.781 36.156 L 31.514 36.023 L 31.381 35.889 L 31.246 35.889 L 30.979 35.889 L 30.846 35.889 L 30.711 35.756 L 30.443 35.756 L 30.309 35.756 L 30.176 35.756 L 29.908 35.756 L 29.773 35.756 L 29.506 35.756 L 29.373 35.756 L 29.238 35.756 L 28.971 35.756 L 28.838 35.756 L 28.703 35.756 L 28.436 35.756 L 28.301 35.756 L 28.168 35.756 L 27.9 35.756 L 27.766 35.756 L 27.633 35.756 L 27.365 35.756 L 27.23 35.756 L 26.963 35.756 L 26.83 35.756 L 26.695 35.756 L 26.562 35.756 L 26.293 35.756 L 26.16 35.889 L 26.025 35.889 L 23.215 37 L 22.947 37 L 22.814 37.135 L 22.68 37.135 L 22.412 37.135 L 22.277 37.135 L 22.145 37.135 L 21.877 37.135 L 21.742 37.135 L 21.475 37.135 L 21.342 37.135 L 21.207 37.135 L 20.939 37.135 L 20.807 37.135 L 20.539 37.135 L 20.404 37.135 L 20.137 37.135 L 20.002 37.135 L 19.869 37.135 L 19.602 37.135 L 19.467 37.135 L 19.199 37.135 L 19.066 37.135 L 18.932 37.135 L 18.664 37.135 L 18.531 37.135 L 18.396 37.135 L 18.129 37.135 L 17.994 37.135 L 17.861 37 L 17.594 37 L 17.459 37 L 17.326 36.867 L 14.381 35.783 L 14.248 35.648 L 14.113 35.514 L 13.846 35.514 L 13.711 35.514 L 13.443 35.514 L 13.311 35.381 L 13.176 35.381 L 12.908 35.381 L 12.775 35.381 L 12.641 35.381 L 12.373 35.381 L 12.24 35.381 L 11.973 35.381 L 11.838 35.381 L 11.57 35.381 L 11.436 35.381 L 11.168 35.381 L 11.035 35.381 L 10.9 35.381 L 10.768 35.381 L 10.5 35.381 z M 8.8926 40.588 L 8.7598 40.721 L 8.625 40.721 L 5.8145 41.832 L 5.5469 41.832 L 5.4121 41.832 L 5.2793 41.967 L 5.0117 41.967 L 4.877 41.967 L 4.7441 41.967 L 4.4766 41.967 L 4.3418 41.967 L 4.0742 41.967 L 3.9414 41.967 L 3.8066 41.967 L 3.5391 41.967 L 3.4043 41.967 L 3.1367 41.967 L 3.0039 41.967 L 2.7363 41.967 L 2.6016 41.967 L 2.4688 41.967 L 2.2012 41.967 L 2.0664 41.967 L 1.9336 41.967 L 1.7988 41.967 L 1.5312 41.967 L 1.3965 41.967 L 1.2637 41.967 L 1.1289 41.967 L 0.86133 41.967 L 0.72852 41.967 L 0.59375 41.832 L 0.46094 41.832 L 0.19336 41.832 L 0.058594 41.832 L -0.074219 41.832 L -0.074219 44.979 L 0.19336 44.979 L 0.32617 44.979 L 0.46094 44.979 L 0.72852 44.979 L 0.86133 44.979 L 1.1289 44.979 L 1.2637 44.979 L 1.3965 44.979 L 1.666 44.979 L 1.7988 44.979 L 2.0664 44.979 L 2.2012 44.979 L 2.4688 44.979 L 2.6016 44.979 L 2.7363 44.979 L 3.0039 44.979 L 3.1367 44.979 L 3.4043 44.979 L 3.5391 44.979 L 3.6738 44.979 L 3.9414 44.844 L 4.0742 44.844 L 4.209 44.844 L 4.4766 44.711 L 4.6094 44.711 L 7.6875 43.533 L 7.8223 43.533 L 8.0898 43.398 L 8.2246 43.266 L 8.4922 43.131 L 8.625 43.131 L 8.8926 42.996 L 9.0273 42.996 L 9.2949 42.996 L 9.4277 42.996 L 9.6953 42.996 L 9.8301 42.996 L 10.098 42.996 L 10.365 42.996 L 10.5 42.996 L 10.768 42.996 L 11.035 42.996 L 11.168 42.996 L 11.303 42.996 L 11.57 42.996 L 11.703 42.996 L 11.838 42.996 L 12.105 42.996 L 12.24 42.996 L 12.508 42.996 L 12.641 42.996 L 12.775 42.996 L 13.043 42.996 L 13.176 43.131 L 13.311 43.131 L 13.578 43.266 L 13.711 43.266 L 13.846 43.266 L 16.791 44.43 L 16.924 44.43 L 17.191 44.562 L 17.326 44.562 L 17.594 44.697 L 17.727 44.697 L 17.994 44.83 L 18.129 44.83 L 18.264 44.83 L 18.531 44.83 L 18.799 44.83 L 18.932 44.83 L 19.066 44.83 L 19.334 44.83 L 19.467 44.83 L 19.734 44.83 L 19.869 44.83 L 20.137 44.83 L 20.271 44.83 L 20.539 44.83 L 20.672 44.83 L 20.807 44.83 L 21.074 44.83 L 21.207 44.83 L 21.475 44.83 L 21.609 44.83 L 21.742 44.83 L 22.01 44.83 L 22.145 44.83 L 22.277 44.697 L 22.547 44.697 L 22.68 44.697 L 22.814 44.562 L 25.758 43.426 L 26.025 43.291 L 26.16 43.158 L 26.293 43.158 L 26.562 43.158 L 26.695 43.158 L 26.963 43.158 L 27.098 43.158 L 27.365 43.158 L 27.498 43.158 L 27.633 43.158 L 27.9 43.158 L 28.033 43.158 L 28.301 43.158 L 28.436 43.158 L 28.703 43.158 L 28.838 43.158 L 29.105 43.158 L 29.238 43.158 L 29.506 43.158 L 29.641 43.158 L 29.908 43.158 L 30.041 43.158 L 30.176 43.158 L 30.443 43.158 L 30.576 43.158 L 30.711 43.158 L 30.979 43.158 L 31.113 43.291 L 31.246 43.291 L 31.514 43.426 L 31.648 43.426 L 31.781 43.559 L 34.592 44.67 L 34.727 44.67 L 34.861 44.805 L 35.129 44.805 L 35.262 44.938 L 35.396 44.938 L 35.664 45.072 L 35.797 45.072 L 35.932 45.072 L 36.199 45.072 L 36.332 45.072 L 36.6 45.072 L 36.734 45.072 L 37.002 45.072 L 37.137 45.072 L 37.27 45.072 L 37.537 45.072 L 37.672 45.072 L 37.939 45.072 L 38.072 45.072 L 38.34 45.072 L 38.475 45.072 L 38.742 45.072 L 38.875 45.072 L 39.01 45.072 L 39.277 45.072 L 39.412 45.072 L 39.68 45.072 L 39.812 45.072 L 39.947 44.938 L 40.215 44.938 L 40.348 44.938 L 40.615 44.805 L 43.561 43.666 L 43.828 43.533 L 43.963 43.398 L 44.23 43.398 L 44.363 43.398 L 44.631 43.398 L 44.766 43.398 L 44.898 43.398 L 45.168 43.398 L 45.301 43.398 L 45.568 43.398 L 45.703 43.398 L 45.971 43.398 L 46.238 43.398 L 46.371 43.398 L 46.639 43.398 L 46.773 43.398 L 47.041 43.398 L 47.174 43.398 L 47.309 43.398 L 47.576 43.398 L 47.711 43.398 L 47.979 43.398 L 47.979 40.883 L 47.844 40.883 L 47.711 40.883 L 47.443 40.883 L 47.309 40.883 L 47.041 40.883 L 46.906 40.883 L 46.773 40.883 L 46.506 40.883 L 46.371 40.883 L 46.104 40.883 L 45.971 40.883 L 45.703 40.883 L 45.568 40.883 L 45.436 40.883 L 45.168 40.883 L 45.033 40.883 L 44.766 40.883 L 44.631 40.883 L 44.498 40.883 L 44.23 40.883 L 44.096 40.883 L 43.828 40.883 L 43.695 40.883 L 43.561 40.883 L 43.293 41.016 L 43.16 41.016 L 43.025 41.016 L 40.08 42.127 L 39.947 42.127 L 39.812 42.262 L 39.545 42.262 L 39.412 42.395 L 39.277 42.395 L 39.01 42.395 L 38.875 42.395 L 38.742 42.395 L 38.475 42.395 L 38.34 42.395 L 38.207 42.395 L 37.939 42.395 L 37.805 42.395 L 37.537 42.395 L 37.404 42.395 L 37.27 42.395 L 37.002 42.395 L 36.869 42.395 L 36.734 42.395 L 36.6 42.395 L 36.332 42.395 L 36.199 42.395 L 36.064 42.395 L 35.797 42.395 L 35.664 42.395 L 35.529 42.395 L 35.262 42.395 L 35.129 42.395 L 34.994 42.395 L 34.861 42.395 L 34.592 42.395 L 34.459 42.395 L 31.781 41.27 L 31.648 41.137 L 31.381 41.137 L 31.246 41.137 L 30.979 41.137 L 30.846 41.137 L 30.711 41.002 L 30.576 41.002 L 30.309 41.002 L 30.176 41.002 L 29.908 41.002 L 29.773 41.002 L 29.641 41.002 L 29.373 41.002 L 29.238 41.002 L 28.971 41.002 L 28.838 41.002 L 28.703 41.002 L 28.436 41.002 L 28.301 41.002 L 28.168 41.002 L 27.9 41.002 L 27.766 41.002 L 27.633 41.002 L 27.365 41.002 L 27.23 41.002 L 27.098 41.002 L 26.83 41.002 L 26.695 41.002 L 26.562 41.002 L 26.293 41.002 L 26.16 41.137 L 26.025 41.137 L 23.215 42.248 L 22.947 42.248 L 22.814 42.248 L 22.68 42.381 L 22.412 42.381 L 22.277 42.381 L 22.145 42.381 L 21.877 42.381 L 21.742 42.381 L 21.475 42.381 L 21.342 42.381 L 21.207 42.381 L 20.939 42.381 L 20.807 42.381 L 20.539 42.381 L 20.404 42.381 L 20.137 42.381 L 20.002 42.381 L 19.869 42.381 L 19.602 42.381 L 19.467 42.381 L 19.199 42.381 L 19.066 42.381 L 18.932 42.381 L 18.664 42.381 L 18.531 42.381 L 18.396 42.381 L 18.129 42.381 L 17.994 42.381 L 17.861 42.248 L 17.594 42.248 L 17.459 42.248 L 17.326 42.113 L 14.381 41.016 L 14.248 40.883 L 14.113 40.883 L 13.846 40.748 L 13.711 40.748 L 13.578 40.748 L 13.311 40.615 L 13.176 40.615 L 12.908 40.615 L 12.775 40.615 L 12.641 40.615 L 12.373 40.615 L 12.24 40.615 L 11.973 40.615 L 11.838 40.615 L 11.57 40.615 L 11.436 40.615 L 11.168 40.615 L 11.035 40.615 L 10.9 40.615 L 10.768 40.615 L 10.5 40.615 L 10.365 40.588 L 10.098 40.588 L 9.9648 40.588 L 9.8301 40.588 L 9.5625 40.588 L 9.4277 40.588 L 9.2949 40.588 L 9.0273 40.588 L 8.8926 40.588 z " style="fill:#ffffff;fill-opacity:1;fill-rule:evenodd;stroke-width:1.33852" /></svg>