<?xml version="1.0" encoding="UTF-8" standalone="no"?><svg xmlns:dc="http://purl.org/dc/elements/1.1/" xmlns:cc="http://creativecommons.org/ns#" xmlns:rdf="http://www.w3.org/1999/02/22-rdf-syntax-ns#" xmlns:svg="http://www.w3.org/2000/svg" xmlns="http://www.w3.org/2000/svg" id="svg6185" version="1.1" viewBox="0 0 12.7 12.7" height="48" width="48"><defs id="defs6179" /><path d="m 6.9716,1.3875 h 2.077 V 4.3828 H 6.9716 V 1.3875 M 0.04906,12.7 c 0,0 11.42194,-4.8596 11.42194,-4.8596 0,0 0.02,-4e-4 0.02,-4e-4 0,0 1.11,-0.5019 1.11,-0.5019 0,0 0.05,-0.4051 0.05,-0.4051 0,0 -12.53336,5.361 -12.53336,5.361 0,0 -0.06859,0.406 -0.06859,0.406 M 3.7688,2.5444 h 2.077 V 5.5397 H 3.7688 V 2.5444 M 2.9079,10.813 9.7322,7.9117 9.7922,1.4458 c 0,0 8e-4,-0.3383 -0.09,-0.47529 C 9.4745,0.62728 9.0266,0.37748 8.7834,0.28891 8.5779,0.21408 8.1347,0.2162 7.8023,0.23091 6.4388,0.29123 4.9336,0.79048 3.8851,1.4105 3.3864,1.7054 3.1735,2.1358 2.9081,2.6257 l 5e-4,8.1883 v 0" style="fill:#ffffff;fill-opacity:1;fill-rule:nonzero;stroke-width:1.14283" id="path875" /></svg>