<?xml version="1.0" encoding="UTF-8" standalone="no"?><svg xmlns:dc="http://purl.org/dc/elements/1.1/" xmlns:cc="http://creativecommons.org/ns#" xmlns:rdf="http://www.w3.org/1999/02/22-rdf-syntax-ns#" xmlns:svg="http://www.w3.org/2000/svg" xmlns="http://www.w3.org/2000/svg" version="1.1" id="svg8912" viewBox="0 0 48.000001 48.000001" height="48" width="48"><defs id="defs8914" /><path d="m 0,0 c -4.849,0 -5.7,-3.275 -12.746,-0.71 v 2.317 l 0.645,-0.21 c 6.192,-2.349 6.98,0.754 12.101,0.754 3.693,0 6.695,-2.49 10.035,-1.3 5.048,1.792 5.975,1.212 10.528,0.11 1.093,-0.274 2.086,-0.297 3.103,-0.187 l 0.05,-2.163 C 21.907,-1.573 20.553,-1.334 18.368,-0.688 12.318,1.08 10.68,-3.059 4.817,-1.092 3.189,-0.548 1.835,0 0,0 M -11.707,5.1537 0.22898,6.0397 4.849,7.5577 15.551,14.219 c 0.754,0.614 1.878,0.22 2.141,0.02 l 5.362,-3.975 C 24.334,9.3157 23.195,7.7647 21.919,8.7147 L 16.905,11.86 12.264,8.3337 c 0.765,-0.472 1.749,-1.105 2.611,-1.738 1.717,-1.244 4.314,-3.789 4.314,-3.789 0,0 -3.638,1.147 -6.041,0.578 C 11.784,3.0577 10.06,2.3477 10.06,2.3477 L 4.946,4.6947 0.98198,3.5277 0.62198,3.4627 -11.631,3.2337 c -1.585,-0.08 -1.671,1.857 -0.08,1.92 m 3.9101,-13.5729 c -1.672,0.054 -3.7801,0.458 -4.9491,0.818 v 2.249 c 2.316,-0.687 5.5151,-1.539 9.6681,-0.02 6.571,2.425 7.195,-2.939 15.2329,-0.067 1.223,0.437 2.36,0.677 3.462,0.677 2.339,0 4.457,-1.199 6.805,-1.244 0.447,0 0.905,0.021 1.386,0.087 l 0.05,-2.162 c -0.504,-0.044 -0.994,-0.066 -1.485,-0.066 -2.381,0.045 -4.598,1.245 -6.761,1.245 -3.603,0 -5.9199,-2.969 -12.1009,-0.829 -6.181,2.14 -5.384,-0.884 -11.313,-0.688 m 11.2256,4.183 c -6.464,2.599 -8.071,-2.929 -16.1607,-0.034 v 2.283 c 1.896,-0.687 4.5427,-1.464 6.9667,-0.786 4.41,1.213 5.72101,2.31504 10.307,0.479 6.2603,-2.51 6.8813,2.64404 14.7433,0.241 1.999,-0.611 3.126,-0.709 4.457,-0.545 l 0.04,-2.141 c -1.682,-0.176 -3.135,-0.013 -5.374,0.678 -6.53,1.986 -7.656,-3.104 -14.9843,-0.175 M -0.60152,10.549 c 0,1.749 1.408,3.146 3.15502,3.146 1.727,0 3.146,-1.397 3.146,-3.146 0,-1.7365 -1.419,-3.1455 -3.146,-3.1455 -1.74702,0 -3.15502,1.409 -3.15502,3.1455" style="stroke:none;fill-opacity:1;fill-rule:nonzero;fill:#ffffff" transform="matrix(-1.306997,0.000000,0.000000,-1.306997,31.189000,27.948200)" id="path18098" /></svg>