<?xml version="1.0" encoding="UTF-8" standalone="no"?><svg xmlns:dc="http://purl.org/dc/elements/1.1/" xmlns:cc="http://creativecommons.org/ns#" xmlns:rdf="http://www.w3.org/1999/02/22-rdf-syntax-ns#" xmlns:svg="http://www.w3.org/2000/svg" xmlns="http://www.w3.org/2000/svg" xmlns:sodipodi="http://sodipodi.sourceforge.net/DTD/sodipodi-0.dtd" xmlns:inkscape="http://www.inkscape.org/namespaces/inkscape" version="1.1" id="svg8912" viewBox="0 0 48.000001 48.000001" height="48" width="48" sodipodi:docname="53.svg" inkscape:version="0.92.3 (2405546, 2018-03-11)"><sodipodi:namedview pagecolor="#ffffff" bordercolor="#666666" borderopacity="1" objecttolerance="10" gridtolerance="10" guidetolerance="10" inkscape:pageopacity="0" inkscape:pageshadow="2" inkscape:window-width="1541" inkscape:window-height="784" id="namedview6" showgrid="false" inkscape:zoom="6.9532" inkscape:cx="27.07" inkscape:cy="16.723" inkscape:window-x="982" inkscape:window-y="226" inkscape:window-maximized="0" inkscape:current-layer="svg8912" /><defs id="defs8914"></defs><path id="XMLID_3_" style="stroke-width:0.18987;fill:#ffffff;fill-opacity:1" d="m 31.481,31.26 c 0.645,-0.474 1.386,-0.835 2.221,-0.835 l 10.576,0.02 c 2.051,0 3.722,1.671 3.722,3.721 0,2.051 -1.652,3.722 -3.722,3.722 l -8.829,-0.02 -11.278,7.955 c -3.968,2.867 -6.38,-0.284 -6.38,-0.284 L 8.9433,36.691 C 7.4623,34.906 7.7851,31.526 9.5509,30.026 L 21.798,21.311 c 1.215,-1.025 3.018,-0.854 4.044,0.342 1.025,1.215 0.854,3.038 -0.361,4.044 l -7.842,5.734 5.639,5.563 z M 20.753,20.685 9.361,0.67226 7.1775,0.69124 19.196,21.805 Z m 6.836,11.98 -2.943,-5.126 -1.538,1.12 2.943,5.165 z m 8.335,6.931 c 0.247,-0.171 0.588,-0.114 0.778,0.114 l 1.007,1.386 c 0.17,0.246 0.114,0.588 -0.114,0.778 l -7.386,5.354 C 29.962,47.399 29.62,47.342 29.43,47.114 L 28.424,45.728 C 28.253,45.482 28.31,45.14 28.538,44.95 Z M 5.4307,30.235 c 3,0 5.4493,-2.43 5.4493,-5.449 0,-3 -2.4304,-5.431 -5.4493,-5.431 -2.9999,0 -5.430268,2.431 -5.430268,5.431 0,3.019 2.449368,5.449 5.430268,5.449 z" /></svg>