<?xml version="1.0" encoding="UTF-8" standalone="no"?><svg xmlns:dc="http://purl.org/dc/elements/1.1/" xmlns:cc="http://creativecommons.org/ns#" xmlns:rdf="http://www.w3.org/1999/02/22-rdf-syntax-ns#" xmlns:svg="http://www.w3.org/2000/svg" xmlns="http://www.w3.org/2000/svg" version="1.1" id="svg8912" viewBox="0 0 48.000001 48.000001" height="48" width="48"><defs id="defs8914" /><path id="path19030" style="fill:#ffffff;fill-opacity:1;fill-rule:evenodd;stroke:none" d="M 47.94497,11.777 C 47.86627,10.761 47.71126,10.188 47.33328,9.224 47.04594,8.613 46.81342,8.263 46.36985,7.687 45.93822,7.063 45.60079,6.739 45.02725,6.257 44.16876,5.58 43.58331,5.295 42.57934,4.951 41.75898,4.629 41.27728,4.526 40.41757,4.382 c -1.19592,-0.196 -1.92686,-0.142 -3.17643,0 -1.82552,0.144 -2.82711,0.479 -4.55603,1.145 -2.00437,0.78 -3.0596,1.446 -4.79332,2.696 -1.68003,1.249 -2.60531,2.069 -3.8561,3.699 -0.9491,1.196 -1.48329,1.914 -2.14744,3.305 -0.48289,1.005 -0.73091,1.628 -1.0004,2.789 -0.28736,1.002 -0.2492,1.629 -0.44354,2.64 -0.0405,0.524 -0.0405,0.808 -0.14548,1.343 -0.19675,0.572 -0.32552,0.914 -0.57235,1.434 -0.3243,0.677 -0.5735,1.016 -1.05523,1.587 -0.72734,0.912 -1.19831,1.392 -2.16174,2.109 L 4.147244e-5,38.617 3.881168,43.746 19.4785,31.022 c 1.01469,-0.766 1.64307,-1.157 2.83899,-1.585 0.71661,-0.289 1.19834,-0.38 1.96621,-0.468 0.53419,-0.05 0.7691,-0.105 1.30087,-0.105 0.4853,0 0.77148,0.105 1.23888,0.141 1.15899,0.143 1.78495,0.391 2.93321,0.391 1.11726,0 1.78019,-0.142 2.87478,-0.339 1.49642,-0.283 2.35851,-0.571 3.74999,-1.198 1.7826,-0.768 2.73647,-1.354 4.27343,-2.498 1.87441,-1.394 2.88791,-2.36 4.28416,-4.272 0.89548,-1.25 1.43083,-2.071 2.00317,-3.556 0.53181,-1.198 0.72972,-1.965 0.92409,-3.255 0.13234,-0.963 0.18123,-1.549 0.0787,-2.501 m -30.09167,2.059 c 0,-3.451 -2.8283,-6.292 -6.28972,-6.292 -3.465012,0 -6.290929,2.841 -6.290929,6.292 0,3.461 2.825917,6.288 6.290929,6.288 3.46142,0 6.28972,-2.827 6.28972,-6.288" /></svg>