<?xml version="1.0" encoding="UTF-8" standalone="no"?><svg xmlns:dc="http://purl.org/dc/elements/1.1/" xmlns:cc="http://creativecommons.org/ns#" xmlns:rdf="http://www.w3.org/1999/02/22-rdf-syntax-ns#" xmlns:svg="http://www.w3.org/2000/svg" xmlns="http://www.w3.org/2000/svg" width="40" height="40" viewBox="0 0 10.58333 10.58333" version="1.1" id="svg5030"><defs id="defs5024" /><path d="M 0.82329,7.21 C 0.53762,6.64 1.2764,6.27 1.5617,6.83 L 2.4634,8.6 c 0.196,0.36 0.5772,0.61 1.0183,0.61 0.1377,0 0.2662,0 0.3919,-0.1 L 5.0098,8.78 C 5.6109,8.6 5.8441,9.39 5.2372,9.57 L 4.0424,9.92 c -0.1779,0.1 -0.3709,0.1 -0.5698,0.1 -0.7669,0 -1.4322,-0.43 -1.7583,-1.07 L 0.82329,7.19 Z M 4.9783,0.00207 0.17931,1.5405 V 2.1678 L 3.5128,1.0986 V 4.7005 L 4.07,5.7861 V 0.92034 L 6.9328,0.00207 Z M 1.7813,5.91 C 1.2728,4.95 2.7322,4.16 3.2689,5.1 L 4.317,7.09 6.3118,6.52 c 0.3303,-0.1 0.7864,0.27 0.7864,0.69 l 0.01,2.84 c 0,0.71 -1.0419,0.71 -1.0419,0 0,-0.66 -0.019,-2.07 -0.019,-2.07 L 3.9644,8.61 C 3.5084,8.74 3.1314,8.51 2.9536,8.18 L 1.7814,5.92 Z M 2.1756,4.58 C 2.6854,4.43 2.9769,3.89 2.8289,3.38 2.6792,2.87 2.1442,2.58 1.6328,2.73 1.1214,2.87 0.82662,3.41 0.97787,3.92 1.1272,4.43 1.6609,4.73 2.1756,4.58 Z M 10.237,4.361 q 0,0.6352 -0.4203,0.9881 Q 9.3964,5.6988 8.6168,5.6988 7.8436,5.6988 7.4169,5.3491 6.9933,4.9994 6.9933,4.3674 6.9933,3.9343 7.2436,3.6391 7.4939,3.3407 7.9142,3.2701 V 3.2573 Q 7.5484,3.1771 7.3238,2.8947 7.0992,2.6124 7.0992,2.2434 q 0,-0.555 0.3914,-0.8758 0.3947,-0.3208 1.1134,-0.3208 0.7347,0 1.1261,0.3144 0.3949,0.3111 0.3949,0.8886 0,0.369 -0.2248,0.6481 -0.2214,0.2792 -0.5968,0.353 v 0.013 q 0.4363,0.071 0.6834,0.3593 0.2502,0.2856 0.2502,0.738 z M 9.1975,2.298 Q 9.1975,1.9771 9.0499,1.8295 8.9023,1.6788 8.604,1.6788 q -0.584,0 -0.584,0.6192 0,0.6481 0.5904,0.6481 0.2951,0 0.4395,-0.1508 Q 9.1975,2.6445 9.1975,2.298 Z m 0.1059,1.9892 q 0,-0.7091 -0.7059,-0.7091 -0.3272,0 -0.5037,0.1861 Q 7.9206,3.9503 7.9206,4.3 q 0,0.3978 0.1732,0.5807 0.1733,0.1828 0.5294,0.1828 0.3497,0 0.5134,-0.1828 0.1668,-0.1829 0.1668,-0.5935 z" style="fill:#ffffff;fill-opacity:1;fill-rule:evenodd;stroke-width:0.30588" id="path1812-3" /></svg>