<?xml version="1.0" encoding="UTF-8" standalone="no"?><svg xmlns:dc="http://purl.org/dc/elements/1.1/" xmlns:cc="http://creativecommons.org/ns#" xmlns:rdf="http://www.w3.org/1999/02/22-rdf-syntax-ns#" xmlns:svg="http://www.w3.org/2000/svg" xmlns="http://www.w3.org/2000/svg" width="48" height="48" viewBox="0 0 12.7 12.7" version="1.1" id="svg6185"><defs id="defs6179" /><path d="M 1.309884,10.29992 11.42918,6.042061 11.46783,1.84113 11.40966,1.531213 11.17702,1.301061 11.00503,1.183473 10.81226,1.088368 10.17498,1.050702 9.519412,1.108417 9.116437,1.223101 8.711798,1.37596 2.29244,4.016515 1.944717,4.190993 1.67759,4.403686 1.482749,4.674133 1.309925,4.98201 v 5.31803 z M 10.98508,3.74803 H 9.539347 9.501524 V 1.74269 H 10.98506 Z M 7.555209,2.553638 H 8.904556 V 4.499145 H 7.555209 Z M 5.684485,5.423914 V 3.421085 h 1.39006 V 5.40563 L 5.684485,5.42407 Z M 3.778033,6.234038 V 4.247805 H 5.106192 L 5.086261,6.17546 Z M 1.908139,7.043731 v -1.83251 h 1.347272 l 0.01993,1.850362 -1.36721,-0.01805 z m 7.629129,-2.312354 0.159945,0.009 0.164512,0.0067 0.0698,0.333183 0.232225,0.103424 0.28167,-0.172399 0.21936,0.225601 -0.16493,0.281669 0.086,0.238862 0.33651,0.05485 -0.0403,0.320314 -0.30037,0.06976 -0.10427,0.231016 0.17573,0.292889 L 10.42174,6.959694 10.15212,6.773598 9.914073,6.852107 9.829321,7.192353 9.504032,7.168027 9.448781,6.859365 9.226518,6.757551 8.935713,6.929557 8.700157,6.710626 8.862594,6.422327 8.796122,6.192135 8.479975,6.109467 8.481544,5.800805 8.783567,5.716058 8.888258,5.474684 8.729144,5.205061 8.951822,4.984482 9.235566,5.155625 9.468214,5.07586 9.537177,4.731455 Z m 0.2314,0.732007 C 10.0387,5.501834 10.21983,5.753762 10.18078,6.025072 10.14175,6.296775 9.896625,6.488673 9.627002,6.449634 9.362366,6.411576 9.175003,6.157569 9.214054,5.885867 9.253092,5.615027 9.504032,5.424738 9.768664,5.463384 Z" id="path961-1" style="fill:#ffffff;fill-rule:nonzero;stroke-width:0.39235;fill-opacity:1" /><polygon transform="matrix(0.39235,0,0,0.39235,-1.487689,-232.8739)" points="33.1653,611.342 36.0147,610.114 36.1608,609.081 3.98445,622.195 3.79174,623.228 33.1155,611.342 " id="polygon965-4" style="fill:#ffffff;fill-rule:nonzero;fill-opacity:1" /></svg>