<?xml version="1.0" encoding="UTF-8" standalone="no"?><svg xmlns:dc="http://purl.org/dc/elements/1.1/" xmlns:cc="http://creativecommons.org/ns#" xmlns:rdf="http://www.w3.org/1999/02/22-rdf-syntax-ns#" xmlns:svg="http://www.w3.org/2000/svg" xmlns="http://www.w3.org/2000/svg" width="48" height="48" viewBox="0 0 48 48.000001" id="svg69016" version="1.1"><defs id="defs69018" /><path id="path55572" style="fill-opacity:1;stroke:none;fill:#ffffff;fill-rule:evenodd" d="m 0,0 20.201,14.795 c -0.024,1.754 0.016,5.188 -0.065,10.287 L -23.353,7.725 -23.296,5.972 -8.081,0.089 Z m 2.263,-0.04 17.995,13.801 c -0.025,1.778 -0.041,5.568 -0.057,11.418 l -0.347,0.04 -43.288,-16.346 0.033,-3.847 12.711,-5.074 z" transform="matrix(1.096982,0.000000,0.000000,-1.096982,25.777350,46.080800)" /><path id="path55576" style="fill-opacity:1;stroke:none;fill:#ffffff;fill-rule:nonzero" d="m 0,0 -24.888,8.355 -1.05,-0.404 25.025,-8.638 z" transform="matrix(1.096982,0.000000,0.000000,-1.096982,29.323240,44.919800)" /><path id="path55580" style="fill-opacity:1;stroke:none;fill:#ffffff;fill-rule:nonzero" d="m 0,0 -24.128,7.175 -0.921,-0.347 24.274,-7.41 z" transform="matrix(1.096982,0.000000,0.000000,-1.096982,33.577240,41.692800)" /><path id="path55584" style="fill-opacity:1;stroke:none;fill:#ffffff;fill-rule:nonzero" d="m 0,0 -23.304,6.23 -0.832,-0.307 23.49,-6.408 z" transform="matrix(1.096982,0.000000,0.000000,-1.096982,37.158580,38.962800)" /><path id="path55588" style="fill-opacity:1;stroke:none;fill:#ffffff;fill-rule:nonzero" d="M 0,0 -22.528,5.455 -23.231,5.188 -0.55,-0.42 Z" transform="matrix(1.096982,0.000000,0.000000,-1.096982,40.243820,36.613800)" /><path id="path55592" style="fill-opacity:1;stroke:none;fill:#ffffff;fill-rule:nonzero" d="M 0,0 -21.735,4.824 -22.382,4.582 -0.484,-0.372 Z" transform="matrix(1.096982,0.000000,0.000000,-1.096982,42.919840,34.574800)" /><path id="path55596" style="fill-opacity:1;stroke:none;fill:#ffffff;fill-rule:nonzero" d="M 0,0 -21.009,4.291 -21.574,4.072 -0.428,-0.323 Z" transform="matrix(1.096982,0.000000,0.000000,-1.096982,45.277730,32.792800)" /><path id="path55600" style="fill-opacity:1;stroke:none;fill:#ffffff;fill-rule:nonzero" d="M 0,0 -20.298,3.854 -20.823,3.652 -0.38,-0.283 Z" transform="matrix(1.096982,0.000000,0.000000,-1.096982,47.352780,31.224800)" /><path id="path55604" style="fill-opacity:1;stroke:none;fill:#ffffff;fill-rule:nonzero" d="m 0,0 18.933,-3.394 v 0.315 L 0.461,0.178 Z" transform="matrix(1.096982,0.000000,0.000000,-1.096982,27.168940,26.216800)" /><path id="path55608" style="fill-opacity:1;stroke:none;fill:#ffffff;fill-rule:nonzero" d="m 0,0 16.751,-2.812 v 0.275 L 0.444,0.17 Z" transform="matrix(1.096982,0.000000,0.000000,-1.096982,29.562200,25.303800)" /><path id="path55612" style="fill-opacity:1;stroke:none;fill:#ffffff;fill-rule:nonzero" d="m 0,0 14.755,-2.327 v 0.242 L 0.404,0.153 Z" transform="matrix(1.096982,0.000000,0.000000,-1.096982,31.751860,24.469800)" /><path id="path55616" style="fill-opacity:1;stroke:none;fill:#ffffff;fill-rule:nonzero" d="m 0,0 12.913,-1.931 v 0.218 L 0.389,0.137 Z" transform="matrix(1.096982,0.000000,0.000000,-1.096982,33.772230,23.698800)" /><path id="path55620" style="fill-opacity:1;stroke:none;fill:#ffffff;fill-rule:nonzero" d="m 0,0 11.216,-1.584 v 0.202 L 0.34,0.129 Z" transform="matrix(1.096982,0.000000,0.000000,-1.096982,35.634120,22.998800)" /><path id="path55624" style="fill-opacity:1;stroke:none;fill:#ffffff;fill-rule:nonzero" d="m 0,0 9.641,-1.293 v 0.178 L 0.3,0.113 Z" transform="matrix(1.096982,0.000000,0.000000,-1.096982,37.362090,22.342800)" /><path id="path55628" style="fill-opacity:1;stroke:none;fill:#ffffff;fill-rule:nonzero" d="M 0,0 8.21,-1.042 V -0.88 L 0.307,0.113 Z" transform="matrix(1.096982,0.000000,0.000000,-1.096982,38.931470,21.748800)" /><path id="path55632" style="fill-opacity:1;stroke:none;fill:#ffffff;fill-rule:nonzero" d="m 0,0 6.853,-0.833 v 0.138 l -6.57,0.8 z" transform="matrix(1.096982,0.000000,0.000000,-1.096982,40.420560,21.180800)" /><path id="path55636" style="fill-opacity:1;stroke:none;fill:#ffffff;fill-rule:nonzero" d="m 0,0 5.6,-0.655 v 0.13 L 0.267,0.097 Z" transform="matrix(1.096982,0.000000,0.000000,-1.096982,41.795030,20.657800)" /><path id="path55640" style="fill-opacity:1;stroke:none;fill:#ffffff;fill-rule:nonzero" d="M 0,0 4.429,-0.493 V -0.38 L 0.243,0.089 Z" transform="matrix(1.096982,0.000000,0.000000,-1.096982,43.079560,20.170800)" /><path id="path55644" style="fill-opacity:1;stroke:none;fill:#ffffff;fill-rule:nonzero" d="M 0,0 3.313,-0.355 V -0.25 L 0.194,0.089 Z" transform="matrix(1.096982,0.000000,0.000000,-1.096982,44.302910,19.718800)" /><path id="path55648" style="fill-opacity:1;stroke:none;fill:#ffffff;fill-rule:nonzero" d="m 0,0 2.312,-0.242 0.015,0.105 -2.1,0.21 z" transform="matrix(1.096982,0.000000,0.000000,-1.096982,45.401910,19.284800)" /><path id="path55652" style="fill-opacity:1;stroke:none;fill:#ffffff;fill-rule:nonzero" d="M 0,0 1.342,-0.129 1.357,-0.049 0.21,0.073 Z" transform="matrix(1.096982,0.000000,0.000000,-1.096982,46.465810,18.884800)" /><path id="path55656" style="fill-opacity:1;stroke:none;fill:#ffffff;fill-rule:nonzero" d="M 0,0 0.429,-0.04 0.202,0.073 Z" transform="matrix(1.096982,0.000000,0.000000,-1.096982,47.467480,18.504800)" /><path id="path55660" style="fill-opacity:1;stroke:none;fill:#ffffff;fill-rule:nonzero" d="m 0,0 12.589,-5.01 2.909,0.025 -15.515,5.987 z" transform="matrix(1.096982,0.000000,0.000000,-1.096982,0.018649,40.540800)" /><path d="m 19.72359,1046.401 2.43749,1.462 16.32639,-11.797 c 1.91642,-1.33 1.53467,-4.813 -0.0165,-5.797 -0.31044,0.523 -0.86881,3.128 -2.23345,3.697 l -8.44786,6.372 -1.06407,-4.379 6.16065,-2.473 c 2.17202,-0.824 2.67663,-4.299 1.39975,-5.628 -0.44318,0.425 -1.59502,2.828 -3.06717,3.048 l -5.158,2.2 -0.57592,-2.403 0.17661,-8.652 1.88901,2.332 0.28302,4.361 c 0,1.738 2.70296,1.977 2.70296,0.222 l -0.0439,-4.37 c 0,-0.878 -0.33677,-1.33 -0.6911,-2.234 l -2.72161,-4.919 c -0.328,-0.453 -1.32954,-1.357 -1.99322,-1.392 -2.6163,-0.115 -4.16743,-0.816 -6.71901,-0.932 -0.62199,-0.03 -1.95153,1.393 -2.57133,1.782 l -2.42871,4.442 c -0.31923,0.806 -0.6198,1.214 -0.60334,2.039 l 0.0186,4.139 c 0,1.657 2.48248,1.87 2.46383,0.204 l 0.19526,-4.459 2.33109,-1.915 0.31044,8.288 0.66368,6.569 -6.55886,2.774 1.99431,2.003 9.41321,-3.776 1.57855,5.097 z m 2.26088,-11.576 -0.48925,-4.379 1.26811,4.051 z" style="fill-opacity:1;stroke:none;stroke-width:1.096982;fill:#ffffff;fill-rule:evenodd" id="path55668" transform="matrix(1.000000,0.000000,0.000000,1.000000,0.000000,-1004.362200)" /><path id="path55672" style="fill-opacity:1;stroke:none;fill:#ffffff;fill-rule:nonzero" d="m 0,0 c -2.408,0 -4.104,-1.697 -4.104,-3.733 0,-2.037 1.696,-3.733 4.104,-3.733 2.036,0 3.749,1.696 3.749,3.733 C 3.749,-1.697 2.036,0 0,0" transform="matrix(1.096982,0.000000,0.000000,-1.096982,22.940740,1.866800)" /></svg>