<?xml version="1.0" encoding="UTF-8" standalone="no"?><svg xmlns:dc="http://purl.org/dc/elements/1.1/" xmlns:cc="http://creativecommons.org/ns#" xmlns:rdf="http://www.w3.org/1999/02/22-rdf-syntax-ns#" xmlns:svg="http://www.w3.org/2000/svg" xmlns="http://www.w3.org/2000/svg" id="svg6185" version="1.1" viewBox="0 0 12.7 12.7" height="48" width="48"><defs id="defs6179" /><ellipse id="_130723576-7" transform="rotate(-2.1912)" rx="0.57283" ry="0.56488" cx="4.9612" cy="5.3331" style="fill:#ffffff;fill-opacity:1;fill-rule:evenodd;stroke-width:0.05963" /><rect id="_88015416-4" transform="rotate(-26.999)" width="0.47732" height="1.3365" rx="0.23866" ry="0.23866" x="1.7154" y="8.0276" style="fill:#ffffff;fill-opacity:1;fill-rule:evenodd;stroke-width:0.05963" /><rect id="_88015352-8" transform="rotate(-56.249)" width="0.47733" height="1.3366" rx="0.23866" ry="0.23866" x="-3.017" y="8.8523" style="fill:#ffffff;fill-opacity:1;fill-rule:evenodd;stroke-width:0.05963" /><rect id="_139711576-2" transform="rotate(45.272)" width="0.4774" height="1.3367" rx="0.2387" ry="0.2387" x="7.4583" y="1.1942" style="fill:#ffffff;fill-opacity:1;fill-rule:evenodd;stroke-width:0.05964" /><rect id="_139711528-3" transform="rotate(7.3216)" width="0.47738" height="1.3367" rx="0.23869" ry="0.23869" x="4.3619" y="6.4922" style="fill:#ffffff;fill-opacity:1;fill-rule:evenodd;stroke-width:0.05964" /><rect id="_140132264-6" transform="matrix(0.72735,-0.68626,0.68627,0.72735,0,0)" width="0.70008" height="2.0527" rx="0.35003" ry="0.43009" x="-2.4792" y="9.2879" style="fill:#ffffff;fill-opacity:1;fill-rule:evenodd;stroke-width:0.0661" /><rect id="_141433312-3" transform="matrix(0.97658,-0.21517,0.21527,0.97656,0,0)" width="0.70008" height="2.0525" rx="0.35003" ry="0.43004" x="3.4695" y="10.208" style="fill:#ffffff;fill-opacity:1;fill-rule:evenodd;stroke-width:0.06609" /><rect id="_140176184-0" transform="matrix(0.87303,0.48766,-0.48769,0.87302,0,0)" width="0.70013" height="2.0526" rx="0.35005" ry="0.43008" x="8.0911" y="6.0827" style="fill:#ffffff;fill-opacity:1;fill-rule:evenodd;stroke-width:0.0661" /><rect id="_140135608-3" transform="rotate(8.5255)" width="0.7001" height="1.6706" rx="0.35004" ry="0.35004" x="5.3305" y="7.5378" style="fill:#ffffff;fill-opacity:1;fill-rule:evenodd;stroke-width:0.05963" /><rect id="_141410648-5" transform="rotate(11.12)" width="1.0661" height="1.7184" rx="0.53302" ry="0.53302" x="5.6146" y="4.7093" style="fill:#ffffff;fill-opacity:1;fill-rule:evenodd;stroke-width:0.05963" /><rect id="_130794080-2" transform="rotate(8.9536)" width="1.066" height="1.7183" x="5.4065" y="6.0417" style="fill:#ffffff;fill-opacity:1;fill-rule:evenodd;stroke-width:0.05963" /><path id="_140211152-8" d="M 4.2389,6.3051 H 5.6515 C 5.5455,5.9151 5.1781,5.7333 4.9244,5.7939 4.6707,5.8507 4.4889,6.0665 4.2389,6.2862 Z" style="fill:#ffffff;fill-opacity:1;fill-rule:evenodd;stroke-width:0.37871" /><path style="fill:#ffffff;fill-rule:evenodd;stroke-width:0.3787051;fill-opacity:1" id="path1640-0" d="M 8.0721945,12.418535 C 8.1187109,12.407702 8.5497758,12.305054 9.0301633,12.18998 9.5105507,12.074894 10.111238,11.953381 10.365065,11.920112 11.197122,11.810628 11.481427,11.709587 11.626986,11.469788 11.671495,11.396812 11.748085,11.161434 11.797006,10.946899 11.845525,10.732762 11.928931,10.493375 11.981863,10.415181 12.035196,10.336988 12.149879,10.057508 12.236894,9.7936405 12.324311,9.5297996 12.449821,9.1761222 12.515985,9.007707 L 12.636284,8.7017424 12.637799,7.4301977 C 12.638178,6.731273 12.657037,5.9224655 12.679101,5.633361 12.714775,5.1653933 12.70917,5.050718 12.627775,4.5931849 12.545573,4.1348421 12.541563,4.0510327 12.589681,3.8152566 12.681907,3.3605248 12.689125,3.0056526 12.614941,2.5324808 12.556393,2.1603635 12.499856,1.9831199 12.285323,1.5019296 L 12.026281,0.92090615 11.77406,0.79619441 C 11.635317,0.72721398 11.409958,0.64260807 11.273624,0.60771958 10.87985,0.50747492 10.154054,0.44692455 9.6832895,0.47579915 9.4450991,0.49022981 9.0797963,0.51230727 8.8712813,0.5251183 8.6058241,0.54118187 8.3989111,0.52777344 8.1775654,0.48060495 7.8014355,0.40040656 6.7071292,0.30498098 5.7166789,0.2664815 4.9231176,0.23561555 4.2454398,0.28614279 3.6836498,0.41846149 3.2433596,0.52231713 2.7709931,0.5227154 1.8912156,0.41997492 1.4144373,0.36423034 1.1938908,0.3542072 1.1269243,0.38467488 0.90758201,0.48452127 0.58759073,1.1124742 0.45686644,1.6999363 0.39350825,1.9850316 0.39030085,2.093308 0.43198516,2.5776977 0.56110442,4.0778098 0.44039265,6.0691352 0.1107907,7.8836286 0.00412858,8.471874 -0.00349166,8.5889655 9.1984493e-4,9.6114982 0.00614648,10.934367 0.02337699,11.012959 0.39950753,11.41476 0.67458759,11.709082 1.178235,12.074787 1.4047954,12.144963 1.534714,12.185467 5.2615285,12.3206 6.1793961,12.318595 6.3642533,12.31821 6.7095074,12.347072 6.9464936,12.382757 7.3547036,12.444502 7.8876213,12.461349 8.0720771,12.418428 V 12.418428 Z M 1.9911369,11.139781 C 1.6214224,10.947297 1.3086497,10.69267 1.2112089,10.504606 0.99347234,10.083568 0.91206972,7.6098442 1.0456012,5.4649457 1.1197819,4.269192 1.3655918,1.5869736 1.4052877,1.540429 1.4205117,1.5223608 1.5320024,1.5737112 1.6523019,1.6547061 1.772999,1.7357143 1.9370049,1.8143063 2.0172033,1.8295468 2.1611604,1.8563902 2.582201,1.8325736 2.8897626,1.7806259 3.0365259,1.755734 3.062187,1.7669918 3.2117566,1.9241758 3.4603727,2.1856271 3.6765073,2.8733206 3.6765073,3.4046398 3.6765073,3.7643311 3.8084368,3.9335429 4.0061247,3.8280809 4.0774992,3.789993 4.0899322,3.716605 4.1147942,3.2049471 4.1665214,2.1306923 4.3164925,1.4698555 4.561901,1.2356725 4.6842038,1.118581 4.711872,1.1113723 5.0254474,1.1129654 5.2086991,1.1141071 5.3771167,1.1329984 5.3991726,1.1554741 5.446488,1.2027887 5.5687909,2.0934009 5.5707942,2.4065742 5.5723089,2.7113175 5.6918965,2.844061 5.8951967,2.7686684 5.9753951,2.738599 5.9902328,2.7025024 5.9902328,2.5308744 5.9902328,2.0336471 6.1454186,1.1951684 6.2508766,1.1237984 6.347916,1.0576324 6.7805866,1.1093677 6.9056957,1.2019921 7.0664939,1.3210882 7.1960147,1.7100524 7.2798223,2.3243712 7.3528025,2.8592882 7.4069346,2.9827918 7.5689371,2.9827918 7.7177038,2.9827918 7.7537944,2.8973894 7.7999094,2.4322361 7.8239572,2.1912427 7.8708825,1.8985139 7.9041669,1.7814225 7.9671228,1.5604753 8.1215058,1.297431 8.2041089,1.2701627 8.2554349,1.2533159 8.3953815,1.728094 8.4731751,2.1836225 8.4988513,2.3339961 8.5305149,2.8737321 8.5433492,3.3825889 8.5561873,3.8986677 8.5850522,4.3313354 8.6083085,4.3606083 8.662842,4.4287789 8.8701566,4.4287789 8.923891,4.3606083 8.9471436,4.331747 8.9772203,3.883029 8.9908536,3.3617328 9.0145227,2.4623055 9.0465914,2.1070351 9.1480429,1.6053869 L 9.1929534,1.3844398 9.4527982,1.3851965 C 9.7615602,1.3855815 10.468913,1.5243389 10.564347,1.6025327 10.601649,1.6330269 10.729955,1.8094474 10.850254,1.9943113 11.087642,2.3604147 11.247637,2.5380566 11.421667,2.6278798 11.570033,2.7048655 11.626975,2.884512 11.626975,3.2782819 11.626975,3.5810338 11.639813,3.6279501 11.81905,3.9764101 L 12.011527,4.3501338 11.992289,5.6333079 C 11.975058,6.8054044 11.92372,7.4497926 11.840314,7.5380228 11.804224,7.5761107 11.685931,6.9333156 11.64463,6.4745877 11.628989,6.3009551 11.597311,6.1353543 11.574456,6.1064797 11.5115,6.0274894 11.299777,6.0415218 11.254465,6.1273491 11.23322,6.1678399 11.202738,6.5511884 11.186696,6.9790503 11.170677,7.4073105 11.138979,7.8331677 11.11612,7.9257922 11.092868,8.0184166 10.982593,8.2550157 10.870314,8.4514958 10.758036,8.6483874 10.653377,8.8588999 10.638138,8.9198485 10.622914,8.9808104 10.556739,9.094291 10.490977,9.1720732 L 10.37148,9.31403 10.262409,9.0698239 C 10.113241,8.7349979 9.9905368,8.2766551 9.9584566,7.9330141 9.9243732,7.5697119 9.8389638,7.4458099 9.6645323,7.5067586 L 9.5446341,7.5488558 9.5177839,8.1158601 C 9.4508176,9.512913 9.2162363,10.711481 8.9539905,10.994585 8.8092305,11.150561 8.516908,11.186259 7.407764,11.182648 5.8009901,11.177418 4.3389724,11.273268 2.6524016,11.305754 2.3420338,11.311768 2.3023341,11.301731 1.9911673,11.139741 V 11.139741 11.139741 Z" /></svg>