<?xml version="1.0" encoding="UTF-8" standalone="no"?><svg xmlns:dc="http://purl.org/dc/elements/1.1/" xmlns:cc="http://creativecommons.org/ns#" xmlns:rdf="http://www.w3.org/1999/02/22-rdf-syntax-ns#" xmlns:svg="http://www.w3.org/2000/svg" xmlns="http://www.w3.org/2000/svg" id="svg5030" version="1.1" viewBox="0 0 10.58333 10.58333" height="40" width="40"><defs id="defs5024" /><g transform="translate(0,-286.4167)" id="layer1"><path d="m 0.82329,293.63 c -0.28567,-0.57 0.45311,-0.94 0.73841,-0.38 l 0.9017,1.77 c 0.196,0.36 0.5772,0.61 1.0183,0.61 0.1377,0 0.2662,-0 0.3919,-0.1 l 1.1362,-0.33 c 0.6011,-0.18 0.8343,0.61 0.2274,0.79 l -1.1948,0.35 c -0.1779,0.1 -0.3709,0.1 -0.5698,0.1 -0.7669,0 -1.4322,-0.43 -1.7583,-1.07 l -0.89101,-1.76 z m 4.15611,-7.21 -4.80112,1.54 v 0.63 l 3.33402,-1.07 v 3.6 l 0.5588,1.09 v -4.87 l 2.8627,-0.92 z m -3.1981,5.91 c -0.5085,-0.96 0.9509,-1.75 1.4876,-0.81 l 1.0481,1.99 1.9948,-0.57 c 0.3303,-0.1 0.7864,0.27 0.7864,0.69 l 0.01,2.84 c 0,0.71 -1.0419,0.71 -1.0419,-0 -0,-0.66 -0.019,-2.07 -0.019,-2.07 l -2.0829,0.63 c -0.456,0.13 -0.833,-0.1 -1.0108,-0.43 L 1.7813,292.33 Z M 2.1756,291 c 0.5098,-0.15 0.8013,-0.69 0.6533,-1.2 -0.1497,-0.51 -0.6847,-0.8 -1.1961,-0.65 -0.5114,0.14 -0.80618,0.68 -0.65493,1.19 0.14933,0.51 0.68303,0.81 1.19773,0.66 z m 7.6251,0.13 v 0.92 H 8.9408 v -0.92 H 6.8843 v -0.68 l 1.909,-2.92 h 1.0074 v 2.93 h 0.6033 v 0.67 z m -0.8599,-2.15 q 0,-0.17 0.01,-0.38 0.013,-0.2 0.019,-0.26 -0.083,0.18 -0.3016,0.52 l -1.0491,1.6 h 1.3218 z" style="fill:#ffffff;fill-rule:evenodd;stroke-width:0.3058813;fill-opacity:1" id="path1812-3" /></g></svg>