<?xml version="1.0" encoding="UTF-8" standalone="no"?><svg xmlns:dc="http://purl.org/dc/elements/1.1/" xmlns:cc="http://creativecommons.org/ns#" xmlns:rdf="http://www.w3.org/1999/02/22-rdf-syntax-ns#" xmlns:svg="http://www.w3.org/2000/svg" xmlns="http://www.w3.org/2000/svg" xmlns:sodipodi="http://sodipodi.sourceforge.net/DTD/sodipodi-0.dtd" xmlns:inkscape="http://www.inkscape.org/namespaces/inkscape" version="1.1" id="svg69016" viewBox="0 0 48 48.000001" height="48" width="48" sodipodi:docname="61.svg" inkscape:version="0.92.3 (2405546, 2018-03-11)"><sodipodi:namedview pagecolor="#ffffff" bordercolor="#666666" borderopacity="1" objecttolerance="10" gridtolerance="10" guidetolerance="10" inkscape:pageopacity="0" inkscape:pageshadow="2" inkscape:window-width="1320" inkscape:window-height="687" id="namedview10" showgrid="false" inkscape:zoom="4.916667" inkscape:cx="24" inkscape:cy="24" inkscape:window-x="1717" inkscape:window-y="323" inkscape:window-maximized="0" inkscape:current-layer="svg69016" /><defs id="defs69018" /><path id="path16864" style="fill:#ffffff;fill-opacity:1;fill-rule:evenodd;stroke:none;stroke-width:2.4486859" d="M 46.57219,9.066564 41.88296,42.93189 42.25342,43.1033 47.51141,9.091051 Z" inkscape:connector-curvature="0" /><path id="path16868" style="fill:#ffffff;fill-opacity:1;fill-rule:nonzero;stroke:none;stroke-width:2.4486859" d="m 37.15462,7.903438 c 0.79305,-1.856104 0.0384,-3.736695 -1.54534,-4.405186 -1.57025,-0.668491 -3.4396,0.09795 -4.23265,1.944257 -0.66617,1.594094 0.0759,3.474685 1.65861,4.143176 1.58499,0.668495 3.45209,-0.09795 4.11938,-1.682247" inkscape:connector-curvature="0" /><path id="path16872" style="fill:#ffffff;fill-opacity:1;fill-rule:nonzero;stroke:none;stroke-width:2.4486859" d="m 22.51941,24.32433 c -0.12341,0.36975 -0.17435,0.6538 -0.18586,0.9256 -0.0147,0.14692 -0.0147,0.31098 0,0.4579 0.05,0.95254 0.37049,1.70919 0.0725,2.50011 -0.28324,0.70522 -2.73264,6.91754 -2.73264,6.91754 l -9.45325,6.23435 c -1.990586,1.2268 -0.518901,3.39143 1.47053,2.16464 0,0 2.49022,-1.39575 4.77764,-2.64703 2.28966,-1.24883 5.5446,-3.08044 5.5446,-3.08044 0.10089,-0.0735 0.68089,-0.7542 0.70581,-0.86684 0,0 1.95432,-3.37674 2.77005,-5.14714 0.32174,-0.68073 0.7398,-1.64306 1.13972,-2.55887 l 7.82862,4.25336 1.07857,9.65272 c 0.14717,2.32381 2.92072,2.03976 2.77116,-0.28404 L 37.8854,32.40254 c 0,-0.25956 -0.54495,-1.19985 -0.76472,-1.34922 0,0 -2.21604,-2.01772 -3.4668,-3.05596 -0.66732,-0.5681 -2.18886,-1.54757 -3.45208,-2.3385 -0.06,-0.7444 0.10088,-1.1264 0.10088,-1.1264 0.16088,-0.4579 3.94603,-8.16636 4.15449,-8.85934 0.20275,-0.68074 0.90523,-0.58279 1.3754,-0.40893 0.45884,0.17141 3.1439,0.94274 4.27005,1.30025 0.59253,0.1959 1.12387,0.35996 1.49548,-0.17141 0.34669,-0.51912 3.72396,-4.50313 4.07178,-5.2206 0.33422,-0.7297 1.07629,-0.33547 1.94073,-1.1117 0.84291,-0.781131 0.14839,-1.696939 -0.49395,-2.118113 -0.65598,-0.418725 -1.2621,-0.07346 -1.63144,0.607274 -0.35915,0.678286 -4.95095,5.073679 -4.95095,5.073679 0,0 -4.3675,-1.4986 -5.13335,-1.94426 C 34.6441,11.24589 33.19847,10.8639 32.5663,10.69004 l -0.43279,-0.0735 c -1.45922,0.049 -3.51325,0.22038 -4.39468,0.81541 -1.43429,0.97703 -4.91921,2.01527 -5.5412,2.36544 -0.49735,0.2718 -1.87954,3.83464 -2.72245,5.93806 l -0.24698,0.60482 c -0.11215,0.31099 -0.26171,0.61707 -0.26171,0.61707 -0.23336,0.47015 -0.72961,0.52157 -1.08876,0.76889 -0.14619,0.12243 -0.60725,0.31098 -0.67863,0.50688 0,0 -0.0509,0.19589 -0.0509,0.28649 L -4.27962e-6,27.55414 0.0249723,27.96307 17.39749,23.43545 c 0.24585,0.41873 1.06496,0.66605 1.68355,0.59259 1.18619,-0.12244 1.39577,-1.31005 1.53285,-1.90508 0.0499,-0.1959 0.32291,-0.91581 0.69337,-1.80713 l 0.14839,-0.24732 c 0.70356,-1.63327 1.47169,-3.04127 1.55893,-3.2543 0.18806,-0.3722 3.66167,-0.91581 3.66167,-0.91581 0,0 -2.10274,4.78963 -2.95586,6.06294 -0.6299,0.91581 -1.00151,1.69694 -1.20091,2.36543 m -0.025,0.0735 c -0.0884,0.262 -0.14962,0.57054 -0.16088,0.85459 0.0122,-0.27181 0.0622,-0.55585 0.16088,-0.85459" inkscape:connector-curvature="0" /></svg>