<?xml version="1.0" encoding="UTF-8" standalone="no"?><svg xmlns:dc="http://purl.org/dc/elements/1.1/" xmlns:cc="http://creativecommons.org/ns#" xmlns:rdf="http://www.w3.org/1999/02/22-rdf-syntax-ns#" xmlns:svg="http://www.w3.org/2000/svg" xmlns="http://www.w3.org/2000/svg" width="48" height="48" viewBox="0 0 12.7 12.7" version="1.1" id="svg6185"><defs id="defs6179" /><path id="_55821584-4" transform="scale(0.26458)" d="M 9.0078 8.0508 C 8.2455 8.0924 7.4859 8.3564 6.8281 8.8535 C 5.0848 10.174 4.732 12.656 6.0586 14.41 C 7.371 16.143 9.8701 16.498 11.615 15.18 C 13.369 13.852 13.697 11.358 12.385 9.623 C 11.557 8.5268 10.278 7.9814 9.0078 8.0508 z M 26.678 13.883 C 26.333 13.901 25.987 14.017 25.678 14.234 L 19.762 18.711 L 17.506 16.15 C 16.133 14.575 13.721 14.347 12.107 15.711 C 10.488 17.086 10.316 19.508 11.666 21.125 L 17.463 27.932 L 6.0117 27.932 C 2.7042 27.932 0 30.636 0 33.943 C -5.9212e-16 37.25 2.7042 39.955 6.0117 39.955 L 38.799 39.955 C 42.105 39.955 44.809 37.25 44.809 33.943 C 44.809 30.636 42.105 27.932 38.799 27.932 L 28.594 27.932 L 35.131 22.986 L 44.814 27.078 C 45.939 27.519 47.355 26.976 47.834 25.793 C 48.306 24.61 47.745 23.322 46.559 22.785 L 34.115 17.549 C 33.356 17.243 32.529 17.372 31.908 17.814 L 23.998 23.799 L 22.113 21.469 L 27.861 17.119 C 28.608 16.479 28.802 15.394 28.193 14.592 C 27.819 14.095 27.252 13.853 26.678 13.883 z M 7.25 32.684 L 37.428 32.684 C 38.034 32.684 38.527 33.177 38.527 33.783 C 38.527 34.39 38.034 34.885 37.428 34.885 L 7.25 34.885 C 6.6435 34.885 6.1484 34.39 6.1484 33.783 C 6.1484 33.177 6.6435 32.684 7.25 32.684 z " style="fill:#ffffff;fill-opacity:1;fill-rule:evenodd;stroke-width:1.77348" /></svg>