<?xml version="1.0" encoding="UTF-8" standalone="no"?><svg xmlns:dc="http://purl.org/dc/elements/1.1/" xmlns:cc="http://creativecommons.org/ns#" xmlns:rdf="http://www.w3.org/1999/02/22-rdf-syntax-ns#" xmlns:svg="http://www.w3.org/2000/svg" xmlns="http://www.w3.org/2000/svg" id="svg31309" version="1.1" viewBox="0 0 12.7 12.7" height="48" width="48"><defs id="defs31303" /><path d="m 6.1535,1.1001 h 1.3057 c 0,0.1467 -0.1468,0.2934 -0.1468,0.4548 H 6.3296 c -0.6015,0 -1.1003,0.4254 -1.1003,0.9388 v 0 c 0,0.5135 0.4988,0.9389 1.1003,0.9389 H 8.222 c 0.4107,0 0.7922,-0.1467 0.9682,-0.3961 H 9.8064 C 9.6156,3.5793 9.0875,3.8874 8.4861,3.8874 H 6.0802 c -0.7629,0 -1.3937,-0.6308 -1.3937,-1.3937 v 0 c 0,-0.7628 0.6308,-1.3936 1.3937,-1.3936 z m 2.1565,0 h 0.2494 c 0.7628,0 1.379,0.5428 1.379,1.3203 v 0 c 0,0 0,0 0,0 H 9.3956 c 0,0 0,0 0,0 v 0 C 9.3956,1.8923 8.9115,1.5549 8.2953,1.5549 H 8.1486 c 0,-0.1761 0,-0.3228 0.1467,-0.4548 z M 8.8968,0.16121 h 2.4062 c 0.763,0 1.393,0.63081 1.393,1.39369 v 0 c 0,0.7775 -0.63,1.4083 -1.393,1.4083 H 8.8968 C 8.134,2.9632 7.5032,2.3324 7.5032,1.5549 v 0 c 0,-0.76288 0.6308,-1.39369 1.3936,-1.39369 z m 0.2641,0.45477 h 1.8921 c 0.602,0 1.101,0.42542 1.101,0.93892 v 0 c 0,0.5281 -0.499,0.9535 -1.101,0.9535 H 9.1609 C 8.5447,2.5084 8.0606,2.083 8.0606,1.5549 v 0 c 0,-0.5135 0.4841,-0.93892 1.1003,-0.93892 z M 3.707,5.6719 C 3.2188,5.5024 2.6861,5.7604 2.5167,6.2516 c -0.094,0.2683 -0.06,0.5677 0.077,0.781 L 3.4844,8.4698 2.1658,9.3101 c -0.1616,0.12 -0.2559,0.3264 -0.2249,0.5403 0.043,0.3136 0.3231,0.4556 0.6377,0.4106 0.072,-0.01 0.1129,-0.04 0.1731,-0.07 L 4.5458,9.0146 c 0.13,-0.09 0.2507,-0.2751 0.2325,-0.4043 -0.013,-0.093 -0,-0.1775 -0.037,-0.2267 L 4.1591,7.3925 5.5274,7.7832 5.9417,8.7711 c 0.06,0.1761 0.175,0.2835 0.3331,0.323 l 1.7839,0.494 C 8.2528,9.6362 8.4496,9.5173 8.4973,9.3219 8.546,9.1276 8.4259,8.929 8.2318,8.881 L 6.8216,8.4912 6.1972,6.7009 C 6.1182,6.4879 5.9478,6.3233 5.7423,6.2479 Z m 4.5911,6.8391 c 0.3811,0.108 0.7776,-0.111 0.887,-0.493 l -0.277,-0.08 c -0.065,0.228 -0.304,0.358 -0.5302,0.293 L 0.07762,9.9119 -5.5e-6,10.19 Z M 7.3352,7.5063 C 7.7129,7.4064 7.9368,7.0195 7.8372,6.6425 7.7376,6.2659 7.3523,6.0422 6.9745,6.1421 6.5986,6.2416 6.3728,6.6268 6.4724,7.0032 c 0.1,0.3772 0.4869,0.6024 0.8628,0.5031 z" style="fill:#ffffff;fill-opacity:1;fill-rule:evenodd;stroke-width:1.467" id="path23322" /></svg>