<?xml version="1.0" encoding="UTF-8" standalone="no"?><svg xmlns:dc="http://purl.org/dc/elements/1.1/" xmlns:cc="http://creativecommons.org/ns#" xmlns:rdf="http://www.w3.org/1999/02/22-rdf-syntax-ns#" xmlns:svg="http://www.w3.org/2000/svg" xmlns="http://www.w3.org/2000/svg" id="svg6185" version="1.1" viewBox="0 0 12.7 12.7" height="48" width="48"><defs id="defs6179" /><g transform="translate(0,-284.29998)" id="layer1"><path id="_138289312-8" d="m 6.0167,289.1 c -0.4159,0 -0.7945,0.3 -0.9398,0.71 -0.1075,0.31 -0.069,0.65 0.089,0.9 l 1.0178,1.64 -1.5073,0.96 c -0.1844,0.14 -0.2922,0.38 -0.2569,0.61 0.049,0.37 0.3697,0.53 0.7292,0.49 0.082,0 0.1286,-0.11 0.1972,-0.11 l 2.0515,-1.35 c 0.1483,-0.11 0.2869,-0.32 0.2658,-0.45 -0.015,-0.11 -0.011,-0.2 -0.043,-0.27 l -0.6651,-1.13 1.564,0.45 0.4736,1.12 c 0.067,0.2 0.2006,0.33 0.3811,0.38 l 2.0382,0.56 c 0.222,0.1 0.447,-0.11 0.503,-0.31 0.05,-0.22 -0.08,-0.45 -0.305,-0.5 L 9.9985,292.36 9.2843,290.31 C 9.1983,290.07 8.999,289.88 8.7645,289.8 l -2.327,-0.66 h -6e-4 c -0.1394,-0.1 -0.2819,-0.1 -0.4202,-0.1 z m 4.3183,0.57 c -0.05,0 -0.108,0 -0.162,0 -0.4298,0.12 -0.6876,0.55 -0.574,0.98 0.1136,0.44 0.557,0.7 0.986,0.59 0.433,-0.12 0.689,-0.57 0.574,-1 -0.1,-0.38 -0.449,-0.62 -0.824,-0.59 z m -8.0464,4.32 -0.089,0.31 9.4864,2.67 c 0.435,0.12 0.889,-0.13 1.014,-0.56 l -0.316,-0.1 c -0.07,0.25 -0.347,0.4 -0.606,0.32 z" style="fill:#ffffff;fill-opacity:1;fill-rule:evenodd;stroke-width:0.44894" /><path id="rect1501-7" transform="matrix(0.26458,0,0,0.26458,0,284.3)" d="M 10.811 0 C 6.6832 0 3.3066 3.3747 3.3066 7.502 C 3.3066 7.5624 3.3111 7.6192 3.3125 7.6797 L 3.3223 7.6797 L 3.3223 48 L 5.6113 48 L 5.6113 7.6797 L 5.6406 7.6797 C 5.6392 7.6192 5.6367 7.5624 5.6367 7.502 C 5.6367 4.6483 7.9729 2.3136 10.826 2.3125 L 10.828 2.3125 L 10.906 2.3125 C 11.659 2.3125 12.37 2.4836 13.018 2.7754 L 12.387 3.6152 L 17.217 10.279 L 25.234 3.6523 L 14.99 0.15625 L 14.441 0.88477 C 13.39 0.32201 12.192 0 10.922 0 L 10.811 0 z M 23.588 6.1621 L 19.795 9.3008 C 20.699 9.9989 22.01 10.01 22.928 9.252 L 22.959 9.2031 L 22.959 9.2324 C 23.877 8.4742 24.109 7.1837 23.588 6.1621 z " style="fill:#ffffff;fill-opacity:1;fill-rule:evenodd;stroke-width:1.43995" /></g></svg>