<?xml version="1.0" encoding="UTF-8" standalone="no"?><svg xmlns:dc="http://purl.org/dc/elements/1.1/" xmlns:cc="http://creativecommons.org/ns#" xmlns:rdf="http://www.w3.org/1999/02/22-rdf-syntax-ns#" xmlns:svg="http://www.w3.org/2000/svg" xmlns="http://www.w3.org/2000/svg" width="48" height="48" viewBox="0 0 48 48.000001" id="svg69016" version="1.1"><defs id="defs69018" /><path d="m 0,0 20.201,14.795 c -0.02,1.754 0.02,5.188 -0.07,10.287 L -23.353,7.725 -23.296,5.972 -8.081,0.089 Z m 2.263,-0.04 17.995,13.801 c -0.02,1.778 -0.04,5.568 -0.06,11.418 l -0.347,0.04 -43.288,-16.346 0.03,-3.847 12.711,-5.074 z" style="stroke:none;fill-opacity:1;fill-rule:evenodd;fill:#ffffff" id="path55572" transform="matrix(1.097000,0.000000,0.000000,-1.097000,25.777000,46.038000)" /><path d="m 0,0 -24.888,8.355 -1.05,-0.404 25.025,-8.638 z" style="stroke:none;fill-opacity:1;fill-rule:nonzero;fill:#ffffff" id="path55576" transform="matrix(1.097000,0.000000,0.000000,-1.097000,29.323000,44.938000)" /><path d="m 0,0 -24.128,7.175 -0.921,-0.347 24.274,-7.41 z" style="stroke:none;fill-opacity:1;fill-rule:nonzero;fill:#ffffff" id="path55580" transform="matrix(1.097000,0.000000,0.000000,-1.097000,33.577000,41.738000)" /><path d="m 0,0 -23.304,6.23 -0.832,-0.307 23.49,-6.408 z" style="stroke:none;fill-opacity:1;fill-rule:nonzero;fill:#ffffff" id="path55584" transform="matrix(1.097000,0.000000,0.000000,-1.097000,37.159000,38.938000)" /><path d="M 0,0 -22.528,5.455 -23.231,5.188 -0.55,-0.42 Z" style="stroke:none;fill-opacity:1;fill-rule:nonzero;fill:#ffffff" id="path55588" transform="matrix(1.097000,0.000000,0.000000,-1.097000,40.244000,36.638000)" /><path d="M 0,0 -21.735,4.824 -22.382,4.582 -0.484,-0.372 Z" style="stroke:none;fill-opacity:1;fill-rule:nonzero;fill:#ffffff" id="path55592" transform="matrix(1.097000,0.000000,0.000000,-1.097000,42.920000,34.538000)" /><path d="M 0,0 -21.009,4.291 -21.574,4.072 -0.428,-0.323 Z" style="stroke:none;fill-opacity:1;fill-rule:nonzero;fill:#ffffff" id="path55596" transform="matrix(1.097000,0.000000,0.000000,-1.097000,45.278000,32.838000)" /><path d="M 0,0 -20.298,3.854 -20.823,3.652 -0.38,-0.283 Z" style="stroke:none;fill-opacity:1;fill-rule:nonzero;fill:#ffffff" id="path55600" transform="matrix(1.097000,0.000000,0.000000,-1.097000,47.353000,31.238000)" /><path d="m 0,0 18.933,-3.394 v 0.315 L 0.461,0.178 Z" style="stroke:none;fill-opacity:1;fill-rule:nonzero;fill:#ffffff" id="path55604" transform="matrix(1.097000,0.000000,0.000000,-1.097000,27.169000,26.238000)" /><path d="m 0,0 16.751,-2.812 v 0.275 L 0.444,0.17 Z" style="stroke:none;fill-opacity:1;fill-rule:nonzero;fill:#ffffff" id="path55608" transform="matrix(1.097000,0.000000,0.000000,-1.097000,29.562000,25.338000)" /><path d="m 0,0 14.755,-2.327 v 0.242 L 0.404,0.153 Z" style="stroke:none;fill-opacity:1;fill-rule:nonzero;fill:#ffffff" id="path55612" transform="matrix(1.097000,0.000000,0.000000,-1.097000,31.752000,24.438000)" /><path d="m 0,0 12.913,-1.931 v 0.218 L 0.389,0.137 Z" style="stroke:none;fill-opacity:1;fill-rule:nonzero;fill:#ffffff" id="path55616" transform="matrix(1.097000,0.000000,0.000000,-1.097000,33.772000,23.738000)" /><path d="m 0,0 11.216,-1.584 v 0.202 L 0.34,0.129 Z" style="stroke:none;fill-opacity:1;fill-rule:nonzero;fill:#ffffff" id="path55620" transform="matrix(1.097000,0.000000,0.000000,-1.097000,35.634000,23.038000)" /><path d="m 0,0 9.641,-1.293 v 0.178 L 0.3,0.113 Z" style="stroke:none;fill-opacity:1;fill-rule:nonzero;fill:#ffffff" id="path55624" transform="matrix(1.097000,0.000000,0.000000,-1.097000,37.362000,22.338000)" /><path d="M 0,0 8.21,-1.042 V -0.88 L 0.307,0.113 Z" style="stroke:none;fill-opacity:1;fill-rule:nonzero;fill:#ffffff" id="path55628" transform="matrix(1.097000,0.000000,0.000000,-1.097000,38.931000,21.738000)" /><path d="m 0,0 6.853,-0.833 v 0.138 l -6.57,0.8 z" style="stroke:none;fill-opacity:1;fill-rule:nonzero;fill:#ffffff" id="path55632" transform="matrix(1.097000,0.000000,0.000000,-1.097000,40.421000,21.138000)" /><path d="m 0,0 5.6,-0.655 v 0.13 L 0.267,0.097 Z" style="stroke:none;fill-opacity:1;fill-rule:nonzero;fill:#ffffff" id="path55636" transform="matrix(1.097000,0.000000,0.000000,-1.097000,41.795000,20.638000)" /><path d="M 0,0 4.429,-0.493 V -0.38 L 0.243,0.089 Z" style="stroke:none;fill-opacity:1;fill-rule:nonzero;fill:#ffffff" id="path55640" transform="matrix(1.097000,0.000000,0.000000,-1.097000,43.080000,20.138000)" /><path d="M 0,0 3.313,-0.355 V -0.25 L 0.194,0.089 Z" style="stroke:none;fill-opacity:1;fill-rule:nonzero;fill:#ffffff" id="path55644" transform="matrix(1.097000,0.000000,0.000000,-1.097000,44.303000,19.738000)" /><path d="m 0,0 2.312,-0.242 0.015,0.105 -2.1,0.21 z" style="stroke:none;fill-opacity:1;fill-rule:nonzero;fill:#ffffff" id="path55648" transform="matrix(1.097000,0.000000,0.000000,-1.097000,45.402000,19.238000)" /><path d="M 0,0 1.342,-0.129 1.357,-0.049 0.21,0.073 Z" style="stroke:none;fill-opacity:1;fill-rule:nonzero;fill:#ffffff" id="path55652" transform="matrix(1.097000,0.000000,0.000000,-1.097000,46.466000,18.838000)" /><path d="M 0,0 0.429,-0.04 0.202,0.073 Z" style="stroke:none;fill-opacity:1;fill-rule:nonzero;fill:#ffffff" id="path55656" transform="matrix(1.097000,0.000000,0.000000,-1.097000,47.467000,18.538000)" /><path d="m 0,0 12.589,-5.01 2.909,0.025 -15.515,5.987 z" style="stroke:none;fill-opacity:1;fill-rule:nonzero;fill:#ffffff" id="path55660" transform="matrix(1.097000,0.000000,0.000000,-1.097000,0.018650,40.538000)" /><path id="path55668" style="fill:#ffffff;fill-opacity:1;fill-rule:evenodd;stroke:none;stroke-width:1.09698" d="m 19.724,42 2.437,1.5 16.326,-11.8 c 1.917,-1.4 1.535,-4.8 -0.02,-5.8 -0.31,0.5 -0.869,3.1 -2.233,3.7 l -8.448,6.3 -1.064,-4.3 6.16,-2.5 c 2.172,-0.8 2.677,-4.3 1.4,-5.6 -0.443,0.4 -1.595,2.8 -3.067,3 l -5.158,2.2 -0.576,-2.4 0.177,-8.6 1.889,2.3 0.283,4.3 c 0,1.8 2.702,2 2.702,0.3 l -0.04,-4.4 c 0,-0.9 -0.337,-1.3 -0.692,-2.2 l -2.721,-5 c -0.328,-0.4 -1.33,-1.3 -1.993,-1.3 -2.617,-0.2 -4.168,-0.9 -6.719,-1 -0.622,0 -1.952,1.4 -2.572,1.8 l -2.428,4.4 c -0.32,0.8 -0.62,1.3 -0.604,2.1 l 0.02,4.1 c 0,1.7 2.482,1.9 2.464,0.2 l 0.195,-4.4 2.331,-1.9 0.31,8.2 0.664,6.6 -6.559,2.8 1.995,2 9.413,-3.8 1.578,5.1 z m 2.26,-11.6 -0.489,-4.4 1.268,4.1 z" /><path d="m 0,0 c -2.408,0 -4.104,-1.697 -4.104,-3.733 0,-2.037 1.696,-3.733 4.104,-3.733 2.036,0 3.749,1.696 3.749,3.733 C 3.749,-1.697 2.036,0 0,0" style="stroke:none;fill-opacity:1;fill-rule:nonzero;fill:#ffffff" id="path55672" transform="matrix(1.097000,0.000000,0.000000,-1.097000,22.941000,1.837800)" /></svg>