<?xml version="1.0" encoding="UTF-8" standalone="no"?><svg xmlns:dc="http://purl.org/dc/elements/1.1/" xmlns:cc="http://creativecommons.org/ns#" xmlns:rdf="http://www.w3.org/1999/02/22-rdf-syntax-ns#" xmlns:svg="http://www.w3.org/2000/svg" xmlns="http://www.w3.org/2000/svg" version="1.1" id="svg53822" viewBox="0 0 48 48.000001" height="48" width="48"><defs id="defs53824" /><path id="path29204" style="fill:#ffffff;fill-opacity:1;fill-rule:evenodd;stroke:none;stroke-width:3.9122" d="M 46.246,21.024 V 16.419 L 23.97,-1.628e-4 1.7525,16.419 v 4.55 L 23.97,4.6632 46.246,21.024" /><path id="path29212" style="fill:#ffffff;stroke:#ffffff;stroke-width:0.8450255;stroke-linecap:butt;stroke-linejoin:miter;stroke-miterlimit:22.9260006;stroke-dasharray:none;stroke-opacity:1;fill-opacity:1" d="M 24.992188,16.191406 C 24.462172,16.183983 23.92806,16.204763 23.388672,16.251953 14.754546,17.006999 8.3640947,24.615868 9.1191406,33.253906 9.8780986,41.888032 17.488921,48.272624 26.123047,47.517578 34.757173,46.762532 41.141765,39.149744 40.386719,30.519531 40.06759,26.870222 38.511969,23.63147 36.183594,21.154297 28.904952,28.041157 24.198371,30.1367 20.619141,29.517578 17.037625,28.898061 14.871019,25.61121 12.611328,22.224609 L 13.3125,21.755859 C 15.571348,25.141198 17.626065,28.141201 20.761719,28.683594 23.893008,29.225232 28.387742,27.361753 35.585938,20.554688 32.798827,17.891601 29.060174,16.248381 24.992188,16.191406 Z M 24.992188,16.191406 C 24.462172,16.183983 23.92806,16.204763 23.388672,16.251953 14.754546,17.006999 8.3640947,24.615868 9.1191406,33.253906 9.1580448,33.696491 9.2207719,34.130552 9.2949219,34.560547 L 9.4101562,33.841797 C 12.733717,34.368899 16.451905,34.666481 20.220703,34.566406 20.142786,33.667124 20.088127,32.761427 20.080078,31.851562 20.025601,25.693119 21.732476,19.476737 26.871094,16.34375 26.252965,16.259955 25.628338,16.200316 24.992188,16.191406 Z M 27.498047,16.447266 27.705078,16.820312 C 22.600128,19.654929 20.869293,25.680865 20.923828,31.845703 20.931813,32.748366 20.989656,33.649026 21.070312,34.544922 27.947356,34.249234 34.911658,32.557442 39.902344,28.337891 L 40.072266,28.539062 C 38.71026,22.282262 33.674647,17.543266 27.498047,16.447266 Z M 40.208984,29.166016 C 35.04223,33.410342 28.048698,35.104957 21.166016,35.400391 21.310248,36.663467 21.519514,37.89969 21.773438,39.083984 23.120297,38.356262 24.682848,37.895724 26.310547,37.810547 31.194746,37.554106 33.182279,38.199443 37.8125,40.273438 L 37.466797,41.044922 C 32.856508,38.979856 31.157766,38.404109 26.355469,38.65625 24.77427,38.738995 23.254133,39.214868 21.974609,39.945312 22.701399,42.984686 23.720393,45.603093 24.759766,47.21875 L 24.232422,47.558594 C 24.856272,47.578702 25.485682,47.573315 26.123047,47.517578 34.757173,46.762532 41.141765,39.149744 40.386719,30.519531 40.346688,30.061768 40.286749,29.610305 40.208984,29.166016 Z M 9.3125,34.681641 C 10.208713,39.650024 13.4082,43.719277 17.6875,45.878906 17.37702,43.82525 18.279696,41.888304 19.833984,40.453125 20.190186,40.12422 20.584425,39.823646 21.001953,39.546875 20.709255,38.225815 20.469068,36.843979 20.3125,35.421875 16.47042,35.523749 12.689694,35.215341 9.3125,34.681641 Z M 21.207031,40.433594 C 20.925186,40.634852 20.653898,40.845399 20.408203,41.072266 18.931764,42.435561 18.161795,44.185508 18.558594,46.03125 L 18.191406,46.109375 C 19.975565,46.93228 21.92618,47.44095 23.972656,47.541016 22.915119,45.852727 21.924598,43.337123 21.207031,40.433594 Z" /></svg>