<?xml version="1.0" encoding="UTF-8" standalone="no"?><svg xmlns:dc="http://purl.org/dc/elements/1.1/" xmlns:cc="http://creativecommons.org/ns#" xmlns:rdf="http://www.w3.org/1999/02/22-rdf-syntax-ns#" xmlns:svg="http://www.w3.org/2000/svg" xmlns="http://www.w3.org/2000/svg" width="48" height="48" viewBox="0 0 12.7 12.7" version="1.1" id="svg6185"><defs id="defs6179" /><path d="m 12.50812,11.37837 h 10e-4 l 0.0688,-0.069 -0.0704,0.069 z M 8.470608,6.23751 H 10.2208 V 5.526591 5.496649 5.469311 5.440671 l -0.005,-0.03124 -0.004,-0.02083 -0.005,-0.02994 -0.003,-0.02604 -0.006,-0.02604 -0.006,-0.03124 -0.005,-0.02473 -0.006,-0.02473 -0.009,-0.02473 -0.007,-0.02734 L 10.149,5.149081 10.143,5.120441 10.1288,5.094401 10.115,5.069671 10.1041,5.042331 10.0911,5.017601 10.0718,4.994171 10.0565,4.965531 10.0412,4.943401 10.0227,4.919971 10.0022,4.899141 9.98173,4.875711 9.96127,4.852281 9.94397,4.831451 9.91957,4.814531 9.895668,4.79367 9.868929,4.776747 9.846538,4.761125 9.820983,4.744202 9.79384,4.729882 9.769067,4.712958 9.739581,4.69994 9.715185,4.684318 9.68648,4.6713 9.655809,4.658282 h -0.0244 l -0.0287,-0.01302 -0.03223,-0.01302 H 9.539024 L 9.509538,4.619228 H 9.480429 9.451308 9.416692 9.387206 9.351042 9.319994 9.28383 9.247665 9.211501 9.175337 l -0.0342,0.01302 -0.02911,0.01302 -0.0358,0.01302 h -0.03145 l -0.03187,0.01302 -0.03735,0.01432 -0.02596,0.01953 -0.03462,0.01432 -0.03145,0.01692 -0.02674,0.01692 -0.02949,0.01823 -0.02243,0.02083 -0.02047,0.01692 -0.02046,0.01692 -0.01808,0.01823 -0.02005,0.02213 -0.0228,0.01692 -0.01534,0.02213 -0.01415,0.01823 -0.02046,0.02083 -0.01493,0.02343 -0.01652,0.02083 -0.01534,0.02083 -0.02555,0.04426 -0.02871,0.05207 -0.01808,0.04686 -0.02046,0.04817 -0.01652,0.05077 -0.009,0.05207 -0.0082,0.02734 -0.0026,0.02213 -0.0039,0.02994 v 0.02083 l -0.0022,0.03124 v 0.02343 0.03124 0.02473 0.717689 z m 4.229392,0 H 10.65962 V 5.539218 5.491051 5.44028 l -0.003,-0.04947 -0.006,-0.04817 -0.005,-0.04947 L 10.63422,5.2424 10.62232,5.19423 10.61082,5.14867 10.59352,5.0979 10.57542,5.05494 10.55772,5.00547 10.53962,4.96381 10.51482,4.91825 10.48922,4.87789 10.46722,4.82972 10.43932,4.79197 10.40792,4.74901 10.38082,4.71126 10.34702,4.6722 10.30852,4.63835 10.27552,4.5993 10.24172,4.56936 10.20042,4.53161 10.16422,4.50037 10.11662,4.46913 10.08122,4.43919 10.03282,4.40795 9.99114,4.38191 9.94317,4.36108 9.89559,4.33374 9.84645,4.31031 9.79768,4.29339 9.73949,4.27517 9.68366,4.25825 9.62428,4.24523 9.5653,4.22961 H 9.50946 9.45127 9.39111 9.32662 9.27983 9.22713 9.17523 9.12609 L 9.07615,4.24263 9.02818,4.25565 8.9755,4.26867 8.93146,4.28169 8.88349,4.29731 8.84141,4.31554 8.79305,4.33116 8.74823,4.35589 8.70538,4.37412 8.66448,4.39755 8.62162,4.41838 8.58073,4.44962 8.54298,4.47956 8.50445,4.5069 8.46395,4.53554 8.42975,4.56808 8.3983,4.60193 8.36607,4.63708 8.33027,4.67223 8.30395,4.70868 8.27328,4.75034 8.24654,4.78809 8.22014,4.82584 8.19735,4.8701 8.17414,4.91176 8.15684,4.95342 8.13638,4.99898 8.12104,5.04454 8.10058,5.10573 8.08368,5.16431 8.06913,5.232 8.04986,5.29449 8.04366,5.35698 8.03456,5.41817 8.03196,5.45332 V 5.48456 L 8.02816,5.51841 V 5.54965 6.250285 H 3.559771 L 3.840915,6.729204 H 12.7 V 6.250268 Z M 4.57967e-5,2.874018 3.022664,7.758157 l 0.01965,0.03905 0.02321,0.04036 0.0244,0.04166 0.02555,0.03775 0.02005,0.04426 0.01533,0.03775 0.02046,0.04426 0.01927,0.04036 0.0062,0.02604 0.0082,0.02864 0.0062,0.02864 0.0051,0.02213 0.0066,0.02994 v 0.02994 l 0.0022,0.02213 v 0.03385 0.02734 L 3.223,8.359594 v 0.02734 L 3.21115,8.411664 3.20495,8.442904 3.19402,8.467634 3.17868,8.489764 3.16216,8.517104 3.14169,8.537934 3.12123,8.558764 3.10118,8.578294 3.07169,8.591314 3.0489,8.608234 3.02765,8.621254 2.99816,8.634274 2.96749,8.647294 2.93484,8.660314 H 2.89119 2.85621 L 2.81492,8.673334 H 2.77481 2.7351 2.6946 2.6588 2.62222 v 1.09196 0.02213 0.02083 0.02734 l 0.0051,0.02083 0.0026,0.01823 0.0055,0.02083 0.0026,0.02343 0.0039,0.02473 0.0074,0.01953 0.0091,0.02213 0.0039,0.01952 0.0091,0.0208 0.01652,0.0195 0.0062,0.0182 0.01415,0.0221 0.01093,0.0182 0.01534,0.0234 0.01652,0.0143 0.01533,0.0182 0.0169,0.0182 0.01965,0.0169 0.02046,0.0143 0.01808,0.0143 0.02279,0.013 0.02125,0.013 0.01924,0.0143 0.0244,0.013 h 0.02281 l 0.02243,0.0143 0.02321,0.013 h 0.02949 0.01968 0.0244 0.03462 0.02403 0.02792 0.02949 0.02357 0.03223 0.02555 3.844037 0.05229 0.0405 0.04719 l 0.04443,-0.013 h 0.04365 l 0.04523,-0.013 0.04285,-0.0143 0.03853,-0.0143 0.02674,-0.013 0.02243,-0.013 0.02321,-0.013 0.01534,-0.013 0.02046,-0.0143 0.02005,-0.0182 0.01768,-0.0169 0.01927,-0.0169 0.01533,-0.0182 0.01415,-0.0182 0.01455,-0.0208 0.0091,-0.0208 0.0169,-0.0208 0.01146,-0.0182 0.0062,-0.02604 0.01146,-0.02213 0.0066,-0.03124 0.01146,-0.03385 0.0026,-0.03515 0.0055,-0.03124 0.0051,-0.03645 v -0.03515 l 0.0039,-0.03385 V 9.696294 8.947622 8.92419 8.896852 l -0.0039,-0.02083 v -0.02734 l -0.0051,-0.02604 -0.0022,-0.02213 -0.003,-0.02734 -0.0091,-0.02343 -0.0051,-0.02473 L 7.735909,8.70158 7.723281,8.678147 7.71547,8.653413 7.702843,8.626075 7.69373,8.607849 7.679579,8.58702 7.668514,8.559682 7.648049,8.538853 7.632714,8.515421 7.61225,8.494592 7.591785,8.471159 7.569355,8.452934 7.54889,8.434708 7.528426,8.420388 7.500906,8.403465 7.473763,8.389145 7.450955,8.372221 H 7.424632 L 7.3924,8.359203 7.363291,8.346185 7.336929,8.333167 h -0.0283 -0.03187 -0.02005 l -0.01263,-0.01302 h -0.01655 -0.01768 -0.01415 -0.02005 -0.01015 -0.01886 -0.06488 -0.05898 l -0.06331,0.01302 H 6.893402 6.835211 6.77702 l -0.06644,0.01302 h -0.0582 l -1.089197,0.09633 h -0.03383 -0.04128 -0.03264 -0.03814 -0.0342 -0.03814 -0.0405 -0.03185 -0.03735 -0.03498 -0.03735 -0.02989 -0.03223 -0.03892 -0.0358 l -0.02714,-0.01302 -0.03892,-0.01302 -0.03071,-0.01302 h -0.03145 l -0.03695,-0.01302 -0.03223,-0.01302 -0.02871,-0.01302 -0.0358,-0.01302 h -0.0287 L 4.705958,8.335771 4.67491,8.318847 4.642274,8.303225 4.613165,8.288905 4.584864,8.275887 4.553412,8.261567 4.531802,8.243342 4.497603,8.223815 4.470864,8.201684 4.445309,8.18476 4.418974,8.167837 4.39105,8.144404 4.363907,8.126179 4.341112,8.10535 4.314777,8.080615 4.291565,8.054579 4.256586,8.01943 4.219237,7.979074 4.183437,7.94002 4.151985,7.902267 4.111095,7.858006 4.079643,7.820253 4.045028,7.782501 4.015542,7.738239 3.980563,7.696581 3.951076,7.652319 3.922372,7.610661 3.892885,7.5664 3.862215,7.526044 3.835892,7.477877 3.811496,7.43752 3.783195,7.389353 1.226036e-4,1.265499 v 1.55163 z m 0,3.842429 H 1.843425 L 1.531997,6.23751 H 4.57967e-5 Z M 11.13855,8.39982 h -0.0519 -0.0551 -0.0547 l -0.0499,0.01302 -0.0515,0.01302 -0.0444,0.01302 -0.0523,0.01692 -0.0456,0.01823 -0.0499,0.01432 -0.0405,0.02604 -0.0429,0.02213 -0.0448,0.02473 -0.0428,0.02864 -0.0381,0.02604 -0.0405,0.03124 -0.0385,0.02994 -0.0279,0.03775 -0.0354,0.03385 -0.0319,0.03775 -0.0263,0.04036 -0.0295,0.03775 -0.0283,0.04036 -0.0236,0.04166 -0.0165,0.04166 -0.0205,0.04426 -0.0205,0.04687 -0.009,0.04296 -0.0134,0.04817 -0.009,0.04817 -0.009,0.05207 -0.001,0.04817 -0.003,0.04426 0.003,0.05598 0.001,0.04426 0.009,0.05077 0.009,0.05077 0.0134,0.04556 0.009,0.04426 0.0205,0.04687 0.0205,0.04426 0.0165,0.04426 0.0236,0.04166 0.0283,0.04036 0.0295,0.03775 0.0263,0.03775 0.0319,0.03775 0.0354,0.03645 0.0279,0.0325 0.0385,0.0326 0.0405,0.0273 0.0381,0.0286 0.0428,0.0299 0.0448,0.0234 0.0429,0.026 0.0405,0.0182 0.0499,0.0182 0.0456,0.0156 0.0523,0.0169 0.0444,0.0169 0.0515,0.013 0.0499,0.013 h 0.0547 0.0551 0.0519 0.0555 0.0527 0.0492 l 0.0519,-0.013 0.0527,-0.013 0.0491,-0.0169 0.0448,-0.0169 0.048,-0.0156 0.0468,-0.0182 0.0436,-0.0182 0.044,-0.026 0.0409,-0.0234 0.0456,-0.0299 0.0369,-0.0286 0.0405,-0.0273 0.0385,-0.0326 0.0326,-0.0325 0.0346,-0.03645 0.0291,-0.03775 0.0275,-0.03775 0.0272,-0.03775 0.0244,-0.04036 0.0248,-0.04166 0.0181,-0.04426 0.0255,-0.04426 0.0153,-0.04687 0.0161,-0.04426 0.009,-0.04556 0.0114,-0.05077 0.001,-0.05077 0.008,-0.04426 0.004,-0.05598 -0.004,-0.04426 -0.008,-0.04817 -0.006,-0.05207 -0.006,-0.04817 -0.0142,-0.04817 -0.0111,-0.04296 -0.0205,-0.04687 -0.0205,-0.04426 -0.0181,-0.04166 -0.0248,-0.04166 -0.0244,-0.04036 -0.0271,-0.03775 -0.0299,-0.04036 -0.0295,-0.03775 -0.0319,-0.03385 -0.0378,-0.03124 -0.0334,-0.03124 -0.0405,-0.03645 -0.0397,-0.02734 -0.0429,-0.02734 -0.0409,-0.02473 -0.044,-0.02083 -0.0464,-0.02734 -0.044,-0.01432 -0.048,-0.01823 -0.0448,-0.01692 -0.0491,-0.01302 -0.0527,-0.01302 -0.0519,-0.01302 h -0.0492 -0.0527 -0.0555 z" id="path768-8" style="display:inline;fill:#ffffff;fill-rule:evenodd;stroke-width:0.3713579;fill-opacity:1" /></svg>