<?xml version="1.0" encoding="UTF-8" standalone="no"?><svg xmlns:dc="http://purl.org/dc/elements/1.1/" xmlns:cc="http://creativecommons.org/ns#" xmlns:rdf="http://www.w3.org/1999/02/22-rdf-syntax-ns#" xmlns:svg="http://www.w3.org/2000/svg" xmlns="http://www.w3.org/2000/svg" id="svg31309" version="1.1" viewBox="0 0 12.7 12.7" height="48" width="48"><defs id="defs31303" /><path d="M 5.1256,1.6389 C 4.4504,1.4043 3.7141,1.7611 3.4796,2.4403 3.3498,2.8111 3.3962,3.2252 3.5867,3.52 L 4.8178,5.5073 2.9944,6.6692 C 2.7712,6.8351 2.6406,7.1205 2.6836,7.4162 2.7431,7.8507 3.1304,8.0458 3.5653,7.9842 3.6646,7.9703 3.7214,7.9257 3.8047,7.8797 L 6.2854,6.2607 C 6.4651,6.136 6.632,5.8801 6.6069,5.7016 6.5891,5.5728 6.6011,5.4562 6.5556,5.3881 L 5.7507,4.0177 7.6426,4.558 8.2154,5.9238 c 0.082,0.2435 0.2419,0.3921 0.4605,0.4468 l 2.4671,0.6831 c 0.268,0.066 0.54,-0.098 0.606,-0.3683 0.07,-0.2686 -0.1,-0.5432 -0.367,-0.6095 L 9.4321,5.5368 8.5688,3.0613 C 8.4594,2.7671 8.2239,2.5393 7.9397,2.4352 Z M 11.474,11.095 C 12,11.245 12.549,10.941 12.7,10.413 l -0.383,-0.11 c -0.09,0.315 -0.42,0.495 -0.733,0.405 L 0.10724,7.5013 1.6459e-6,7.8854 Z M 10.142,4.1751 C 10.664,4.037 10.974,3.5021 10.836,2.9807 10.699,2.4601 10.166,2.1508 9.6435,2.2888 9.1238,2.4263 8.8116,2.9591 8.9491,3.4795 9.087,4.0009 9.6225,4.3124 10.142,4.1751 Z" style="fill:#ffffff;fill-rule:evenodd;stroke-width:1.4589652;fill-opacity:1" id="path21686" /></svg>