<?xml version="1.0" encoding="UTF-8" standalone="no"?><svg xmlns:dc="http://purl.org/dc/elements/1.1/" xmlns:cc="http://creativecommons.org/ns#" xmlns:rdf="http://www.w3.org/1999/02/22-rdf-syntax-ns#" xmlns:svg="http://www.w3.org/2000/svg" xmlns="http://www.w3.org/2000/svg" height="496.08" width="496.08" version="1.1" id="ico" x="0px" y="0px" viewBox="0 0 496.08 496.08" xml:space="preserve"><defs id="defs38" /><path d="m 475.92,453.71 c -4.38,-9.53 -15.64,-13.72 -25.23,-9.32 -19.02,8.75 -39.12,20.1 -69.05,9.06 l -48.11,-17.81 28.36,-104.96 c 2.53,-9.36 0.13,-19.37 -6.37,-26.56 l -60.31,-66.81 40.16,-39.12 6.09,19.73 c 2.36,7.67 8.45,13.64 16.16,15.85 l 75.87,21.75 c 12.54,3.6 25.77,-3.6 29.41,-16.29 3.62,-12.64 -3.68,-25.81 -16.3,-29.41 l -63.49,-18.2 -9.59,-31.03 c 12.78,-14.69 12.53,-36.89 -1.3,-51.08 L 360.97,97.952 C 355.89,92.75 347.4,88.422 343.17,87.345 L 250.12,63.491 C 241.65,61.3 232.6,63.993 226.69,70.457 L 170.7,131.48 c -8.88,9.68 -8.23,24.71 1.45,33.59 9.66,8.9 24.75,8.19 33.59,-1.45 l 46.37,-50.53 30.98,7.95 -66.2,64.5 c -11.02,9.84 -19.4,22.51 -13.55,36.43 l 26.18,62.29 -126.94,65.92 -1.37,-0.5 C 71.318,338.59 63.46,316.9 54.711,297.87 c -4.384,-9.53 -15.642,-13.73 -25.227,-9.32 -9.547,4.38 -13.729,15.68 -9.325,25.22 8.749,19.03 22.067,54.64 67.86,71.58 L 368.45,489.12 c 45.78,17.02 79.12,-1.43 98.15,-10.18 9.54,-4.38 13.72,-15.68 9.32,-25.23 z M 279.15,322.8 c 3.78,-1.94 6.75,-4.77 9.2,-7.93 l 14.4,15.94 -23,84.93 -104.94,-38.82 z M 426.8,75.364 c 17.37,-16.942 17.71,-44.75 0.78,-62.102 -16.92,-17.369 -44.69,-17.722 -62.04,-0.8 -17.35,16.924 -17.74,44.697 -0.8,62.048 16.87,17.388 44.69,17.741 62.06,0.854 z" style="fill:#ffffff;fill-opacity:1" id="XMLID_474_" /></svg>