<?xml version="1.0" encoding="UTF-8" standalone="no"?><svg xmlns:dc="http://purl.org/dc/elements/1.1/" xmlns:cc="http://creativecommons.org/ns#" xmlns:rdf="http://www.w3.org/1999/02/22-rdf-syntax-ns#" xmlns:svg="http://www.w3.org/2000/svg" xmlns="http://www.w3.org/2000/svg" width="48" height="48" viewBox="0 0 48 48.000001" id="svg69016" version="1.1"><defs id="defs69018" /><path d="M21.208329 7.846147C21.231528612 7.880946418 21.26632803 7.921545739 21.289527642 7.956345157C21.480924441 8.211540889 21.724520367 8.4261373 21.991315905 8.60013439C22.234911831 8.762531674 22.507507272 8.878529734 22.797502422 8.965528279C23.070097863 9.035127115 23.365892916 9.069926533 23.655888066 9.052526824C23.893684089 9.046726921 24.125680209 9.011927503 24.351876426 8.94812857C24.595472352 8.872729831 24.844868181 8.762531674 25.059464592 8.623334002C25.09426401 8.60013439 25.134863331 8.565334972 25.169662749 8.54213536C25.21026207 8.513135845 25.250861391 8.489936233 25.291460712 8.466736621C25.366859451 8.402937688 25.436458287 8.350738561 25.50025722 8.275339822C25.662654504 8.118742441 25.813451982 7.956345157 25.929450042 7.764948358C26.097647229 7.515552529 26.219445192 7.242957088 26.283244125 6.958761841C26.37024267 6.680366497 26.399242185 6.384571444 26.381842476 6.100376197C26.376042573 5.850980368 26.341243155 5.624784151 26.277444222 5.398587934C26.178845871 5.102792881 26.045448102 4.83019744 25.871451012 4.580801611C25.662654504 4.273406752 25.401658869 4.01821102 25.09426401 3.821014318C24.844868181 3.652817131 24.57227274 3.536819071 24.293877396 3.455620429C24.003882246 3.38022169 23.713887096 3.351222175 23.423891946 3.362821981C23.186095923 3.362821981 22.954099803 3.409221205 22.722103683 3.478820041C22.432108533 3.565818586 22.153713189 3.693416452 21.90431736 3.879013348C21.602722404 4.07621005 21.341726769 4.348805491 21.15032997 4.662000253C20.987932686 4.893996373 20.871934626 5.17819162 20.796535887 5.456586964C20.715337245 5.740782211 20.680537827 6.036577264 20.697937536 6.326572414C20.703737439 6.558568534 20.74433676 6.796364557 20.813935596 7.028360677C20.877734529 7.277756506 20.987932686 7.509752626 21.127130358 7.724349037C21.161929776 7.764948358 21.185129388 7.805547679 21.208329 7.846147M6.9144680565 7.7144892019C6.9144680565 7.7144892019 10.2552121845 12.4820094679 10.2552121845 12.4820094679C10.2552121845 12.4820094679 10.4524088865 12.7140055879 10.7598037455 12.9402018049C11.0729985075 13.1721979249 11.5427906505 13.2301969549 11.5427906505 13.2301969549C11.5427906505 13.2301969549 17.8124857935 12.8010041329 17.8124857935 12.8010041329C17.8124857935 12.8010041329 18.1894794885 22.6434395239 18.1894794885 22.6434395239C18.1894794885 22.6434395239 24.0125821005 18.4559095579 24.0125821005 18.4559095579C24.0125821005 18.4559095579 24.6041722065 12.6328069459 24.6041722065 12.6328069459C24.6041722065 12.6328069459 38.1179461965 12.0644164519 38.1179461965 12.0644164519C38.2223444505 12.0412168399 39.3417257295 12.0238171309 39.2373274755 10.5680414779C39.1503289305 9.2746631089 37.9903483305 9.4602600049 37.8105513375 9.4254605869C37.8105513375 9.4254605869 11.9719834725 10.6666398289 11.9719834725 10.6666398289C10.7250043275 8.8976694139 9.5766235335 6.9605018119 9.1068313905 6.3979112209C8.9966332335 6.2761132579 8.3180445825 5.2901297479 7.1290644675 6.1543152949C6.4504758165 6.6299073409 6.9144680565 7.7144892019 6.9144680565 7.7144892019M18.3652165494 24.4640290756C18.3652165494 24.4640290756 32.0877870474 18.0261367456 32.0877870474 18.0261367456C33.2825670654 17.4635461546 34.1699522244 18.1537346116 33.9147564924 19.4471129806C33.9147564924 19.4471129806 31.6411945164 31.1049180106 31.6411945164 31.1049180106C31.3106000454 32.8042895896 28.7586427254 32.2996980286 29.0892371964 30.6003264496C29.0892371964 30.6003264496 30.8756073204 21.4654792246 30.8756073204 21.4654792246C30.8756073204 21.4654792246 19.4729980224 26.8187896936 19.4729980224 26.8187896936C17.8954244064 27.5669771806 16.7934428364 25.2006167566 18.3652165494 24.4640290756M18.2080391781 24.5568275236C18.2080391781 24.5568275236 27.2674876641 18.7047253966 27.2674876641 18.7047253966C28.5028670031 17.9101386856 29.5758490581 18.6467263666 29.2452545871 20.0909022136C29.2452545871 20.0909022136 26.9078936781 30.0783351796 26.9078936781 30.0783351796C26.5077003711 31.7661069526 23.9789426631 31.1687169436 24.3675361641 29.4867450736C24.3675361641 29.4867450736 25.9741092951 22.6370596306 25.9741092951 22.6370596306C25.9741092951 22.6370596306 19.6232155101 26.7375910516 19.6232155101 26.7375910516C18.1674398571 27.6829752406 16.7522635251 25.4964118096 18.2080391781 24.5568275236M20.804249758 23.3579875735C20.804249758 23.3579875735 38.0935866039 10.4532033985 38.0935866039 10.4532033985C38.0935866039 10.4532033985 38.4821801049 10.9171956385 38.4821801049 10.9171956385C38.4821801049 10.9171956385 21.158043841 23.8393795225 21.158043841 23.8393795225C21.158043841 23.8393795225 20.804249758 23.3579875735 20.804249758 23.3579875735M8.8237961241 6.74874735337C8.8237961241 6.74874735337 0.4487361921 12.9894429814 0.4487361921 12.9894429814C0.4487361921 12.9894429814 0.3907371621 12.2702550094 0.3907371621 12.2702550094C0.3907371621 12.2702550094 8.4468024291 6.26155550137 8.4468024291 6.26155550137C8.4468024291 6.26155550137 8.8237961241 6.74874735337 8.8237961241 6.74874735337M39.8277576009 36.7267639885C39.8277576009 36.7267639885 11.0138394969 29.6508823285 11.0138394969 29.6508823285C11.0138394969 29.6508823285 11.2980347439 28.3111047355 11.2980347439 28.3111047355C11.2980347439 28.3111047355 40.1351524599 35.2883880445 40.1351524599 35.2883880445C41.4169310229 35.5783831945 44.9722715619 36.4599684505 46.8630399399 35.3695866865C46.5498451779 36.5469669955 42.2521170549 37.5503502145 39.8277576009 36.7267639885M0.3826172979 35.8996978207C0.3826172979 35.8996978207 3.1665707379 35.1399105277 6.0317228199 34.5947196457C10.7992430859 33.6899347777 14.4531819759 33.5855365237 14.4531819759 33.5855365237C14.4531819759 33.5855365237 14.6503786779 40.0814278837 14.6503786779 40.0814278837C14.6503786779 40.0814278837 28.3033503399 39.1070441797 37.1134029969 42.5869859797C43.2844997889 45.0287451427 47.6402269419 47.5401031417 47.6402269419 47.5401031417C47.6402269419 47.5401031417 0.3826172979 47.6793008137 0.3826172979 47.6793008137C0.3826172979 47.6793008137 0.3826172979 35.8996978207 0.3826172979 35.8996978207" style="stroke:none;fill-opacity:1;fill-rule:nonzero;fill:#ffffff" id="path25603" /></svg>