<?xml version="1.0" encoding="UTF-8" standalone="no"?><svg xmlns:dc="http://purl.org/dc/elements/1.1/" xmlns:cc="http://creativecommons.org/ns#" xmlns:rdf="http://www.w3.org/1999/02/22-rdf-syntax-ns#" xmlns:svg="http://www.w3.org/2000/svg" xmlns="http://www.w3.org/2000/svg" id="svg6185" version="1.1" viewBox="0 0 12.7 12.7" height="48" width="48"><defs id="defs6179" /><path d="m 3.51837,9.621601 0.04686,0.208665 c 0.06729,0.02042 0.140963,0.04244 0.208249,0.06286 0.145804,0.04924 0.295164,0.0949 0.444523,0.144174 0.218688,0.0713 0.437754,0.14097 0.648385,0.21264 0.214262,0.0717 0.422511,0.14096 0.63076,0.21267 0.248718,0.0865 0.498609,0.173 0.744491,0.26151 0.04607,0.017 0.09372,0.034 0.140963,0.0492 0.05847,0.0208 0.117362,0.0417 0.173036,0.0625 0.119745,0.0429 0.240284,0.0865 0.354393,0.12856 0.295958,0.10893 0.586319,0.21585 0.879856,0.32478 0.36245,0.13457 0.729287,0.27515 1.089732,0.41169 0.302728,0.11377 0.601901,0.22671 0.903873,0.34123 0.19902,0.0785 0.400879,0.15458 0.600309,0.22747 0.0533,0.0193 0.10292,0.0385 0.155,0.0553 0.0151,0.004 0.0268,0.008 0.0384,0.0129 0.0147,0.004 0.0265,0.004 0.0385,0.005 0.017,0 0.0352,0.004 0.0525,0.004 0.0265,0.004 0.0557,0.006 0.0853,0.006 h 0.0961 c 0.0329,-0.004 0.0681,-0.006 0.10053,-0.009 0.0545,-0.006 0.10855,-0.0132 0.16021,-0.0227 0.0533,-0.0114 0.10329,-0.0219 0.15258,-0.0424 0.0189,-0.007 0.0329,-0.0159 0.0449,-0.0257 0.008,-0.005 0.0147,-0.0106 0.0204,-0.0159 0.004,-0.004 0.005,-0.008 0.005,-0.009 0.004,-0.004 0.004,-0.005 0.004,-0.009 v -0.005 c 0,-0.005 0,-0.007 -0.004,-0.009 0,0 -0.004,-0.004 -0.005,-0.006 -0.006,-0.005 -0.009,-0.008 -0.0144,-0.011 -0.006,-0.004 -0.0148,-0.008 -0.0212,-0.0117 -0.014,-0.004 -0.0295,-0.005 -0.0405,-0.008 -0.0295,-0.006 -0.0681,-0.006 -0.10012,-0.008 -0.0465,0 -0.0973,0 -0.14096,0 -0.0436,0 -0.0853,-0.004 -0.12217,-0.007 -0.0359,0 -0.0733,-0.005 -0.10851,-0.0106 -0.0299,-0.004 -0.0565,-0.008 -0.0857,-0.014 -0.0287,-0.005 -0.0617,-0.0129 -0.0877,-0.0212 -0.16741,-0.0441 -0.31919,-0.11774 -0.47819,-0.18502 C 9.864885,11.80137 9.592528,11.69883 9.322629,11.58949 9.000233,11.46335 8.680636,11.33037 8.363876,11.19742 8.121172,11.09651 7.880888,10.99477 7.636594,10.89466 7.434776,10.81016 7.235718,10.72487 7.038702,10.63837 c -0.02912,-0.01 -0.05567,-0.0235 -0.07852,-0.0333 v -0.007 c 0,-0.006 0,-0.009 0.0038,-0.0144 0,-0.0144 0.0057,-0.028 0.0079,-0.0417 v -0.0593 c 0,-0.0193 0,-0.0384 -0.0079,-0.0565 -0.0038,-0.0155 -0.0091,-0.0329 -0.01891,-0.0428 -0.0083,-0.0125 -0.01967,-0.0212 -0.03139,-0.0295 -0.02685,-0.0193 -0.04766,-0.0396 -0.06729,-0.0641 -0.02988,-0.0333 -0.05325,-0.0705 -0.07648,-0.10893 -0.02912,-0.0416 -0.05567,-0.0845 -0.09092,-0.12614 C 6.652142,10.015 6.622522,9.9766 6.592112,9.942978 6.549642,9.902928 6.500392,9.864458 6.450317,9.839232 c -0.0295,-0.01626 -0.06207,-0.02912 -0.09089,-0.03964 -0.0174,-0.0083 -0.04126,-0.01513 -0.05847,-0.02307 -0.01286,-0.0045 -0.02269,-0.0079 -0.03253,-0.01589 -0.01173,-0.0049 -0.01778,-0.01097 -0.02383,-0.01778 -0.0079,-0.0083 -0.01135,-0.01664 -0.01437,-0.02572 0,-0.0064 -0.0061,-0.01059 -0.0083,-0.01664 -0.0038,-0.0121 -0.0061,-0.02647 -0.0061,-0.04047 0,-0.02269 0,-0.04803 0.0061,-0.07167 0.0064,-0.04365 0.01173,-0.08571 0.02042,-0.130562 0.0121,-0.05446 0.02648,-0.108928 0.03843,-0.164186 0.01173,-0.05889 0.02799,-0.11774 0.04085,-0.179428 0.01664,-0.05526 0.03177,-0.109722 0.04365,-0.164602 0.0064,-0.0083 0.0064,-0.0174 0.0083,-0.02534 l 0.255526,0.02534 c 0.06486,0.0068 0.122544,0.01286 0.187409,0.01929 0.480984,0.04686 0.961552,0.08654 1.439737,0.12417 0.471756,0.03805 0.93833,0.07368 1.406492,0.110138 0.407679,0.03177 0.818959,0.06248 1.226639,0.0885 0.29517,0.01929 0.59472,0.0329 0.89109,0.06048 0.0609,0.0064 0.12576,0.01324 0.18983,0.01437 h 0.0556 c 0.0204,0 0.0413,0 0.0621,-0.0038 0.0321,-0.0049 0.0641,-0.01135 0.0937,-0.01929 0.0384,-0.0079 0.0725,-0.01967 0.10809,-0.03139 0.0329,-0.01097 0.0641,-0.02345 0.0945,-0.03926 0.0433,-0.01589 0.0845,-0.03518 0.12534,-0.05446 0.0481,-0.02345 0.0937,-0.04607 0.13537,-0.07731 0.0147,-0.01097 0.0261,-0.02231 0.0374,-0.03631 0.006,-0.0053 0.0117,-0.01248 0.0117,-0.02118 0.004,0 0.004,-0.0042 0.006,-0.0072 v -0.0095 c 0,0 0,-0.0038 -0.004,-0.0064 0,-0.0038 -0.004,-0.0038 -0.004,-0.0057 -0.004,0 -0.006,-0.0045 -0.006,-0.0045 -0.006,0 -0.008,-0.0042 -0.0148,-0.0061 -0.008,-0.0038 -0.0166,-0.0053 -0.0257,-0.0053 -0.0155,0 -0.0265,0 -0.0384,0 -0.0321,0.0038 -0.0649,0.01173 -0.10012,0.0174 -0.0469,0.01286 -0.0909,0.02421 -0.13696,0.03404 -0.0385,0.0095 -0.0829,0.01475 -0.12375,0.02118 -0.0321,0.0064 -0.0673,0.01097 -0.10454,0.01399 -0.0291,0.0038 -0.0565,0.0045 -0.0857,0.0076 -0.0329,0 -0.0621,0 -0.0909,-0.0038 C 11.80558,9.125072 11.65058,9.104648 11.4884,9.087968 11.20405,9.05582 10.9233,9.033505 10.63857,9.006689 10.28694,8.974162 9.931717,8.938193 9.576113,8.902148 9.289762,8.873025 8.993804,8.843297 8.703443,8.812056 8.425526,8.784446 8.148403,8.754793 7.868066,8.72272 7.823587,8.71629 7.78516,8.713265 7.739092,8.708726 c 0.0038,-0.0038 0.0038,-0.0045 0.0038,-0.0064 0,-0.0064 0.0038,-0.01097 0.0038,-0.01513 0.0038,-0.01248 0.0091,-0.02345 0.01173,-0.03593 0.0038,-0.01589 0.0061,-0.03404 0.0061,-0.04724 0,-0.01551 -0.0038,-0.02837 -0.0061,-0.04365 -0.0038,-0.0087 -0.0083,-0.02042 -0.01475,-0.0295 -0.0064,-0.0049 -0.01135,-0.0095 -0.01702,-0.01324 -0.0057,-0.0076 -0.01513,-0.01097 -0.0261,-0.01551 C 7.650475,8.483571 7.598016,8.46205 7.551154,8.434818 7.503498,8.409099 7.465827,8.377934 7.422181,8.34673 7.383337,8.313825 7.348503,8.285042 7.307655,8.253007 7.274372,8.228044 7.24037,8.200926 7.201942,8.181712 c -0.01475,-0.0079 -0.0295,-0.01399 -0.04368,-0.01929 -0.02042,-0.0079 -0.04444,-0.0121 -0.06808,-0.01399 -0.0261,-0.0057 -0.05004,-0.0057 -0.07606,-0.0087 -0.0061,-0.0038 -0.01399,-0.0045 -0.02042,-0.0061 -0.0064,-0.0045 -0.01437,-0.01324 -0.01437,-0.02345 0,-0.0038 0,-0.0045 0.0038,-0.0087 0,-0.0042 0,-0.0091 0.0038,-0.01248 0.0038,-0.0079 0.0091,-0.01929 0.01173,-0.02912 0.0042,-0.0091 0.0042,-0.01475 0.0095,-0.02307 0,-0.01097 0.0038,-0.02156 0.0038,-0.03442 0.0038,-0.02231 0.0038,-0.04686 0.0083,-0.07129 0.0064,-0.05325 0.01475,-0.105713 0.02685,-0.158172 0.01172,-0.0649 0.02648,-0.128142 0.04164,-0.193423 0.01437,-0.06808 0.03177,-0.135365 0.05004,-0.200646 0.01059,-0.02988 0.02005,-0.06089 0.03101,-0.09051 0.0064,-0.03555 0.02458,-0.06971 0.03593,-0.104918 0.02345,-0.05889 0.04365,-0.120955 0.05809,-0.184648 0.01437,-0.06006 0.02421,-0.124132 0.03064,-0.185026 0.0038,-0.06729 0.0045,-0.135365 0.0038,-0.200608 C 7.29438,6.557895 7.288706,6.505436 7.276982,6.452182 7.262231,6.388111 7.241807,6.324041 7.221307,6.263941 7.176829,6.147411 7.118393,6.037689 7.062719,5.928762 6.995018,5.796989 6.930947,5.665633 6.869297,5.533482 6.802011,5.399706 6.733931,5.263546 6.669861,5.128597 6.622583,5.020879 6.572507,4.911951 6.520879,4.804196 6.497051,4.758167 6.473223,4.711305 6.467588,4.661228 c 0,-0.0261 0,-0.05284 0.0038,-0.07848 0.0064,-0.03593 0.01551,-0.06729 0.0295,-0.101326 0.0083,-0.03064 0.02685,-0.06086 0.04164,-0.09051 0.01399,-0.02345 0.0261,-0.04686 0.03744,-0.06967 0.0095,-0.0076 0.01513,-0.0174 0.01929,-0.02307 0,-0.0045 0.0045,-0.0064 0.0045,-0.0098 0.02042,-0.01929 0.03555,-0.03846 0.05564,-0.0573 C 6.788395,4.09609 6.927354,3.967155 7.057916,3.836971 7.187267,3.716432 7.31382,3.594304 7.435986,3.469756 7.550889,3.356403 7.65664,3.240667 7.756339,3.112904 c 0.06407,-0.0837 0.125759,-0.174209 0.17262,-0.271525 0.02042,-0.05325 0.04406,-0.105335 0.05567,-0.162181 0.0087,-0.03593 0.01513,-0.07451 0.0121,-0.109722 0,-0.01437 0,-0.03215 -0.0038,-0.04607 -0.0038,-0.01513 -0.0038,-0.02988 -0.0064,-0.04406 -0.0038,-0.02761 -0.0038,-0.05246 -0.0057,-0.0809 -0.0053,-0.05326 -0.01095,-0.102916 -0.017,-0.15617 -0.0083,-0.04164 -0.01475,-0.08449 -0.0174,-0.126136 -0.0038,-0.01891 -0.0038,-0.03847 -0.0061,-0.05647 C 7.9366,2.054376 7.9366,2.048703 7.9366,2.044164 L 7.083559,1.705353 C 7.027885,1.694763 6.971417,1.681904 6.916575,1.671313 6.807647,1.65089 6.702312,1.631638 6.598188,1.617644 6.464827,1.595329 6.330256,1.581335 6.1989,1.572787 6.09557,1.564466 5.993072,1.561062 5.890536,1.566357 c -0.0941,0 -0.188241,0.0076 -0.272736,0.03964 -0.0083,0.0042 -0.02383,0.01172 -0.03805,0.01475 -0.0121,0.0057 -0.02269,0.01097 -0.03517,0.01475 -0.0261,0.0121 -0.05647,0.0208 -0.07927,0.03139 -0.08211,0.0295 -0.161387,0.05526 -0.23707,0.0789 -0.123754,0.03442 -0.240321,0.0685 -0.364038,0.101326 -0.113352,0.02875 -0.231509,0.05688 -0.348833,0.08771 -0.0761,0.02118 -0.152196,0.04406 -0.227878,0.05885 -0.06487,0.01097 -0.128936,0.01664 -0.182227,0.04887 -0.04486,0.02269 -0.07527,0.06089 -0.108928,0.09853 C 3.925865,2.224349 3.864972,2.306461 3.80612,2.39296 3.726807,2.501887 3.651125,2.616035 3.574233,2.729766 3.495336,2.851515 3.416061,2.975269 3.337164,3.096603 3.269084,3.202353 3.201798,3.308066 3.134513,3.412985 c -0.0087,0.01513 -0.01702,0.0295 -0.0261,0.04406 L 1.023924,3.153487 1.035271,3.22395 3.02324,3.592413 c 0,0 -0.0053,0.0042 -0.0053,0.0064 -0.0087,0.01286 -0.01816,0.02572 -0.02685,0.03744 -0.0061,0.01324 -0.01172,0.02345 -0.02042,0.03404 -0.0091,0.0087 -0.01475,0.01929 -0.0208,0.02799 -0.0057,0.0053 -0.0095,0.01021 -0.01135,0.01664 -0.0038,0.0064 -0.0083,0.0095 -0.01248,0.01626 -0.01967,0.02761 -0.05008,0.05083 -0.08211,0.06528 -0.02874,0.01475 -0.05885,0.02421 -0.08688,0.03215 -0.02988,0.0064 -0.05968,0.01172 -0.0885,0.02307 -0.0295,0.0076 -0.05246,0.01929 -0.07288,0.03291 -0.01248,0.0068 -0.02383,0.01513 -0.03366,0.02345 -0.0079,0.0098 -0.01626,0.02118 -0.02496,0.03404 -0.0038,0.0038 -0.0095,0.0076 -0.0095,0.01513 -0.0057,0.0042 -0.0057,0.0083 -0.0087,0.01362 -0.0038,0.0049 -0.0061,0.0087 -0.0083,0.01286 0,0.0045 -0.0038,0.0087 -0.0064,0.01324 0,0.0042 -0.0038,0.0061 -0.0038,0.01097 0,0.0042 -0.0038,0.01059 -0.0038,0.01437 L 0.0260254,3.075536 0.0052232,3.176861 2.511431,4.254565 c 0.0038,0.0038 0.0038,0.0061 0.0061,0.01021 0.0087,0.02496 0.02042,0.04887 0.03517,0.06929 0.01437,0.02118 0.02912,0.04043 0.04924,0.05685 0.01853,0.01891 0.03884,0.03404 0.0629,0.04887 0.01437,0.01097 0.03517,0.01929 0.05806,0.02496 0.02042,0.0083 0.04365,0.01399 0.0705,0.01664 0.0038,0 0.0061,0 0.01475,0.0038 h 0.02648 c 0.01399,0 0.03139,0 0.04645,-0.0038 0.02875,-0.0038 0.05605,-0.0083 0.08207,-0.01664 0.03215,-0.0121 0.06729,-0.03139 0.09694,-0.05488 0.03253,-0.02307 0.05889,-0.05284 0.08529,-0.08487 0.02345,-0.03328 0.04327,-0.06887 0.06729,-0.106923 0.01135,-0.02042 0.01702,-0.04206 0.0261,-0.06328 0.01172,-0.02042 0.01815,-0.04448 0.02874,-0.06528 0.0091,-0.01664 0.02042,-0.03404 0.02685,-0.05087 0.01437,-0.02231 0.0295,-0.04607 0.04686,-0.06967 0.01778,-0.02837 0.03517,-0.05847 0.05605,-0.08934 0.0174,-0.02572 0.03517,-0.05363 0.05288,-0.08128 0.02307,-0.03063 0.04365,-0.06328 0.06407,-0.09652 0.0038,-0.0042 0.0091,-0.01135 0.01475,-0.01815 l 1.459745,0.273529 c -0.0038,0.01362 -0.0087,0.02648 -0.01173,0.03964 -0.04365,0.105335 -0.08249,0.212674 -0.117324,0.320391 -0.03843,0.110933 -0.06449,0.223075 -0.0941,0.337222 -0.02269,0.112521 -0.04047,0.223453 -0.05008,0.337601 -0.0057,0.09289 -0.0057,0.186992 0.01816,0.275534 0.01551,0.0809 0.05246,0.156962 0.0941,0.226668 0.08491,0.138542 0.196259,0.254694 0.296374,0.374817 0.113731,0.130978 0.223075,0.265928 0.333213,0.39891 0.102914,0.124132 0.211842,0.244672 0.320354,0.366837 0.08533,0.0969 0.170199,0.193838 0.257531,0.28673 0.05004,0.05246 0.100115,0.104918 0.149359,0.158172 0.02118,0.02118 0.04164,0.04168 0.05325,0.06729 0.0087,0.01475 0.01437,0.02988 0.01437,0.04607 0.0038,0.01513 0.0038,0.0295 0,0.04486 0,0.01815 -0.0057,0.03404 -0.0087,0.05045 -0.0057,0.01664 -0.0087,0.03366 -0.01702,0.04887 -0.0061,0.02042 -0.01248,0.03964 -0.01816,0.06086 -0.01475,0.03744 -0.02648,0.0781 -0.03744,0.118573 -0.0208,0.06407 -0.04686,0.13215 -0.06729,0.199436 -0.0295,0.0865 -0.05609,0.175381 -0.0885,0.263885 -0.02647,0.08011 -0.05008,0.160214 -0.0789,0.242289 -0.0295,0.08892 -0.05889,0.177423 -0.08533,0.267553 -0.0057,0.01551 -0.01097,0.03215 -0.01475,0.04682 h -0.08491 c -0.05605,0 -0.110894,0 -0.16619,-0.0053 -0.141342,0 -0.282342,0 -0.422095,-0.0038 -0.179012,0 -0.355226,0 -0.531439,-0.0042 H 4.188124 3.94262 c -0.03846,0 -0.0789,0.0038 -0.120539,0.0038 l -0.08453,0.163807 c 0.04769,0.0045 0.09092,0.0064 0.137786,0.01097 0.102536,0.0083 0.198642,0.01589 0.298757,0.02232 0.15299,0.01286 0.304771,0.02647 0.451747,0.03847 0.152575,0.01248 0.301556,0.02761 0.451748,0.04002 0.18461,0.01626 0.36922,0.03328 0.554245,0.05049 0.03442,0.0038 0.06929,0.0072 0.102536,0.0083 0,0.0087 0,0.01626 -0.0064,0.02496 -0.0038,0.0174 -0.0087,0.03404 -0.01399,0.05125 -0.01286,0.04043 -0.02345,0.07969 -0.03593,0.118534 -0.01173,0.04766 -0.0261,0.09611 -0.03782,0.145388 -0.01172,0.04005 -0.02345,0.07969 -0.0295,0.120123 -0.0087,0.03139 -0.01475,0.06248 -0.02042,0.09531 0,0.01815 -0.0038,0.03442 -0.0038,0.05208 0,0.03366 0,0.06967 -0.0083,0.100532 -0.0038,0.02156 -0.0064,0.04085 -0.01816,0.06006 -0.0049,0.01475 -0.01135,0.02685 -0.0174,0.03964 -0.0064,0.01135 -0.01173,0.0208 -0.02118,0.0295 -0.0079,0.0064 -0.01399,0.01513 -0.01626,0.02118 -0.0064,0.0057 -0.01248,0.01475 -0.01475,0.02118 -0.0042,0.0068 -0.0064,0.01286 -0.0064,0.02042 -0.0038,0.01324 -0.0038,0.02572 -0.0038,0.03884 v 0.04247 c 0.0038,0.02231 0.0038,0.04603 0.0038,0.06725 0.0038,0.02458 0.0064,0.04807 0.0087,0.07292 0.0038,0.02231 0.0061,0.04644 0.0091,0.07008 0.0038,0.0129 0.0038,0.025 0.0038,0.0374 0.0038,0.0114 0.0057,0.0208 0.0057,0.0325 v 0.008 C 5.48451,10.12518 5.45769,10.11678 5.42925,10.10848 5.3732,10.09298 5.314724,10.07898 5.25905,10.06398 5.121158,10.02528 4.980157,9.98961 4.839194,9.954776 4.666612,9.90833 4.487978,9.863473 4.314979,9.820205 4.171217,9.783517 4.028628,9.745317 3.880441,9.712109 3.799161,9.690551 3.722685,9.672434 3.640157,9.652426 3.605739,9.64297 3.564475,9.631245 3.523627,9.623303 Z M 8.74501,1.129814 c 0.0038,-0.01437 0.0038,-0.02912 0.0061,-0.04327 0.01475,-0.097695 0.02042,-0.197432 0,-0.293538 C 8.739336,0.7085133 8.715887,0.6236027 8.675379,0.5482988 8.636952,0.4746213 8.592889,0.4065415 8.531201,0.3480684 8.48434,0.3016229 8.434301,0.2615692 8.378249,0.2303281 8.305744,0.1874757 8.228851,0.1578609 8.149954,0.1438289 8.05903,0.1245397 7.964928,0.1222703 7.87442,0.1385338 c -0.0789,0.015885 -0.154579,0.042852 -0.225458,0.083284 -0.07689,0.038049 -0.140963,0.090508 -0.199436,0.151402 -0.05325,0.056468 -0.09974,0.1221276 -0.134949,0.1914178 -0.04368,0.082906 -0.0789,0.1729984 -0.09051,0.2679319 -0.02118,0.097316 -0.02118,0.1994365 0,0.2959585 0.01173,0.07969 0.04365,0.157794 0.07928,0.227462 0.04043,0.07251 0.08971,0.135366 0.146182,0.19225 0.04686,0.04282 0.0969,0.08408 0.155789,0.11532 0.06967,0.04043 0.14936,0.07008 0.230678,0.08449 0.0941,0.02005 0.196637,0.01891 0.293537,0 0.08249,-0.0174 0.15579,-0.04406 0.22629,-0.08449 0.06725,-0.03843 0.134533,-0.08892 0.186993,-0.145388 0.04728,-0.04603 0.08533,-0.09932 0.11774,-0.15579 0.0348,-0.06207 0.06089,-0.127347 0.07493,-0.195805 0.0038,-0.01286 0.0064,-0.02534 0.0095,-0.03669 z M 5.069039,3.742945 3.620905,3.530271 c 0.01172,-0.01059 0.0174,-0.02118 0.0261,-0.03215 0.05325,-0.07807 0.102498,-0.156167 0.158588,-0.232644 0.04724,-0.07092 0.09648,-0.141 0.140169,-0.210253 0.04402,-0.05889 0.08529,-0.115357 0.122922,-0.174209 0.02685,-0.03631 0.05008,-0.07288 0.07368,-0.10575 0.01816,-0.02345 0.02988,-0.04486 0.04448,-0.06607 0.0038,0 0.0038,-0.0045 0.0057,-0.0045 0,-0.0038 0.0038,-0.0057 0.0083,-0.0076 0.0087,-0.0057 0.01816,-0.0083 0.02912,-0.01286 0.01551,-0.0045 0.03593,-0.0064 0.05647,-0.01097 0.07568,-0.01286 0.160176,-0.01475 0.240284,-0.01664 0.09932,-0.0038 0.202651,-0.0038 0.301971,0 0.08767,0 0.178597,0.0042 0.266306,0.0064 0.02874,0.0038 0.06248,0.0038 0.0913,0.0045 0.01437,0 0.03517,0 0.04966,0 0,0.03518 -0.0038,0.07251 -0.0057,0.109722 -0.0038,0.06971 -0.01286,0.141379 -0.01853,0.213468 -0.01135,0.0857 -0.01929,0.174625 -0.03177,0.261124 -0.01172,0.07009 -0.02042,0.138581 -0.03253,0.207039 -0.01172,0.06207 -0.02383,0.122959 -0.04043,0.182605 -0.0061,0.0083 -0.0091,0.0174 -0.0091,0.02534 l -0.02912,0.07409 z" id="path562-8" style="fill:#ffffff;fill-rule:nonzero;stroke-width:0.3782213;fill-opacity:1" /><path id="_136461576-3" d="M4.42246752617 7.739061525C4.34054989066 7.74910246124 4.23281686257 7.8837568401 4.23281686257 7.8837568401C4.23281686257 7.8837568401 4.19819349193 7.96540460065 4.19819349193 7.96540460065C4.19819349193 7.96540460065 4.16667103757 8.03930271634 4.16667103757 8.03930271634C4.16667103757 8.03930271634 4.01474201504 8.2578935013 4.01474201504 8.2578935013C4.01474201504 8.2578935013 3.56205586374 8.82788265866 3.56205586374 8.82788265866C3.757066985 9.03851477796 4.00287545403 9.19451309164 4.30723091569 9.32707726244C4.30723091569 9.32707726244 4.45140764753 9.21029019382 4.45140764753 9.21029019382C4.45140764753 9.21029019382 4.52530576322 9.16326315807 4.52530576322 9.16326315807C4.52530576322 9.16326315807 4.56096100872 9.16326315807 4.56096100872 9.16326315807C4.56096100872 9.16326315807 4.6622461418 9.21752390124 4.6622461418 9.21752390124C4.89651613312 9.34248923966 5.22377921689 9.32289420046 5.3371425776 9.05370979688C5.3371425776 9.05370979688 5.36039680384 8.99531626256 5.36039680384 8.99531626256C5.39924556978 8.90200831599 5.43457537783 8.77709589422 5.32163799622 8.71419650631C5.32163799622 8.71419650631 5.27823046003 8.7105796526 5.27823046003 8.7105796526C5.17289720246 8.68696823891 5.05206200935 8.69859667495 4.97437241497 8.61652822695C4.97437241497 8.61652822695 4.8493144724 8.48423657695 4.8493144724 8.48423657695C4.8493144724 8.48423657695 4.83019568314 8.46408062116 4.83019568314 8.46408062116C4.83019568314 8.46408062116 4.81159283132 8.4439273112 4.81159283132 8.4439273112C4.81159283132 8.4439273112 4.79195545879 8.42428993867 4.79195545879 8.42428993867C4.79195545879 8.42428993867 4.77231808626 8.40413662871 4.77231808626 8.40413662871C4.77231808626 8.40413662871 4.73201146634 8.36383000879 4.73201146634 8.36383000879C4.73201146634 8.36383000879 4.71185551055 8.34419263626 4.71185551055 8.34419263626C4.71185551055 8.34419263626 4.69118626315 8.32507120117 4.69118626315 8.32507120117C4.69118626315 8.32507120117 4.67103295319 8.30595241191 4.67103295319 8.30595241191C4.67103295319 8.30595241191 4.6508769974 8.28786549753 4.6508769974 8.28786549753C4.6508769974 8.28786549753 4.6312422707 8.27029452057 4.6312422707 8.27029452057C4.6312422707 8.27029452057 4.61160489818 8.25272618945 4.61160489818 8.25272618945C4.61160489818 8.25272618945 4.59196752565 8.23670567064 4.59196752565 8.23670567064C4.59196752565 8.23670567064 4.57284609056 8.22223560996 4.57284609056 8.22223560996C4.57284609056 8.22223560996 4.55424323874 8.20776554928 4.55424323874 8.20776554928C4.55424323874 8.20776554928 4.54545907318 8.20156636256 4.54545907318 8.20156636256C4.54545907318 8.20156636256 4.53822271992 8.19484859258 4.53822271992 8.19484859258C4.53822271992 8.19484859258 4.53770678249 8.19588046745 4.53770678249 8.19588046745C4.53770678249 8.19588046745 4.54545907318 8.1018290418 4.54545907318 8.1018290418C4.54545907318 8.1018290418 4.56871329941 8.00829619941 4.56871329941 8.00829619941C4.58830569278 7.93019385509 4.53724111588 7.77836537422 4.45554043867 7.74319431615C4.44527725246 7.7387890042 4.43417004553 7.73762748351 4.42246752617 7.739061525C4.42246752617 7.739061525 4.42246752617 7.739061525 4.42246752617 7.739061525M0.457853198568 8.56536840007C0.457853198568 8.56536840007 0.375687648503 8.56950119121 0.375687648503 8.56950119121C0.254732519783 8.56950119121 0.340899707052 9.08071316847 0.438216090625 9.39270715C0.481030695648 9.52966075775 0.555306107124 9.58730287548 0.567407088932 9.61491478867C0.567407088932 9.61491478867 0.54363613151 9.64230445189 0.54363613151 9.64230445189C0.290152100945 9.99352026181 0.364559804071 10.3482656129 0.45423581569 10.7151077126C0.481467787259 10.8320455937 0.598626066249 10.992184636 0.508496029688 11.2184351075C0.508496029688 11.2184351075 0.45423581569 11.3316053224 0.45423581569 11.3316053224C0.348938806039 11.515046216 0.321702336554 11.8309824886 0.376204379688 12.0380242126C0.376204379688 12.0380242126 0.407210102865 12.1744486537 0.407210102865 12.1744486537C0.450062807883 12.3538784644 0.543806523156 12.5687412707 0.754475684115 12.5687412707C0.844189531145 12.5687412707 0.97345328986 12.5292125257 0.942061275065 12.4199131645C0.942061275065 12.4199131645 0.82888973724 12.0809158113 0.82888973724 12.0809158113C0.782028330643 11.944335266 0.828746068508 11.2924549315 0.942061275065 11.3238556775C0.942061275065 11.3238556775 0.93379304694 11.6907586313 0.93379304694 11.6907586313C0.98065471812 11.948248453 1.08649359437 12.30344095 1.21542953438 12.3579001306C1.21542953438 12.3579001306 1.39474663262 12.4323141837 1.39474663262 12.4323141837C1.39474663262 12.4323141837 1.39061251855 12.4323141837 1.39061251855 12.4323141837C1.63248451725 12.5376447955 1.60898422854 12.209474191 1.52290416855 12.0809158113C1.52290416855 12.0809158113 1.40611551243 11.846820445 1.40611551243 11.846820445C1.35154547139 11.7687207465 1.34771404063 11.616886974 1.36322417826 11.5775857706C1.36322417826 11.5775857706 1.37872717214 11.5310773181 1.37872717214 11.5310773181C1.37872717214 11.5310773181 1.59318410762 10.9729732426 1.59318410762 10.9729732426C1.59318410762 10.9729732426 1.6324583235 10.7269927944 1.6324583235 10.7269927944C1.64410924912 10.6373122849 1.61278920098 10.5007132187 1.73374398574 10.4810123462C1.73374398574 10.4810123462 1.99160951576 10.4463889756 1.99160951576 10.4463889756C2.35447545754 10.6414397843 2.67396614229 10.7310567939 3.14605947865 10.8510162163C3.14605947865 10.8510162163 3.20445565879 11.0029452388 3.20445565879 11.0029452388C3.20445565879 11.0029452388 3.13417439681 11.6075577668 3.13417439681 11.6075577668C3.13417439681 11.6075577668 3.11143875384 11.9041821044 3.11143875384 11.9041821044C3.07217723795 12.1072100997 3.0093545792 12.3956217717 3.44268381628 12.380122482C3.5869716731 12.3997122295 3.73544523773 12.2401314579 3.60288106693 12.1227728894C3.41584448632 12.02507286 3.45056839862 11.9040683336 3.48195856133 11.7755073081C3.48195856133 11.7755073081 3.62975214688 11.0809761456 3.62975214688 11.0809761456C3.62975214688 11.0809761456 3.66541003822 11.833384905 3.66541003822 11.833384905C3.66541003822 11.833384905 3.66541003822 11.8669737549 3.66541003822 11.8669737549C3.66541003822 11.8669737549 3.66541003822 11.9336381632 3.66541003822 11.9336381632C3.66541003822 11.9336381632 3.66541003822 11.9661924924 3.66541003822 11.9661924924C3.66541003822 11.9661924924 3.66489145495 11.9982335301 3.66489145495 11.9982335301C3.66489145495 11.9982335301 3.66489145495 12.0297559844 3.66489145495 12.0297559844C3.66489145495 12.0297559844 3.66489145495 12.0602439181 3.66489145495 12.0602439181C3.66489145495 12.0602439181 3.66489145495 12.0896999769 3.66489145495 12.0896999769C3.66489145495 12.0896999769 3.66489145495 12.118121515 3.66489145495 12.118121515C3.66489145495 12.118121515 3.66489145495 12.1465430531 3.66489145495 12.1465430531C3.66489145495 12.1465430531 3.66902689193 12.1734167788 3.66902689193 12.1734167788C3.66902689193 12.1734167788 3.67315968307 12.1987374007 3.67315968307 12.1987374007C3.67315968307 12.1987374007 3.67884557819 12.223542085 3.67884557819 12.223542085C3.67884557819 12.223542085 3.68607928561 12.2473122487 3.68607928561 12.2473122487C3.68607928561 12.2473122487 3.69434751374 12.2690160168 3.69434751374 12.2690160168C3.69434751374 12.2690160168 3.70468213744 12.28968791 3.70468213744 12.28968791C3.70468213744 12.28968791 3.71036803255 12.3000225337 3.71036803255 12.3000225337C3.71036803255 12.3000225337 3.71708580254 12.3088066993 3.71708580254 12.3088066993C3.71708580254 12.3088066993 3.72380357253 12.3175935107 3.72380357253 12.3175935107C3.72380357253 12.3175935107 3.73103727995 12.3258617388 3.73103727995 12.3258617388C3.73103727995 12.3258617388 3.73878957064 12.3346459044 3.73878957064 12.3346459044C3.73878957064 12.3346459044 3.74705779876 12.3429141325 3.74705779876 12.3429141325C3.74705779876 12.3429141325 3.75584196432 12.3506664232 3.75584196432 12.3506664232C3.75584196432 12.3506664232 3.76514471315 12.3579001306 3.76514471315 12.3579001306C3.76514471315 12.3579001306 3.77547933685 12.3646179006 3.77547933685 12.3646179006C3.77547933685 12.3646179006 3.78633254381 12.3708197331 3.78633254381 12.3708197331C3.78633254381 12.3708197331 3.79821762565 12.3770215657 3.79821762565 12.3770215657C3.79821762565 12.3770215657 3.81061864492 12.382704815 3.81061864492 12.382704815C3.81061864492 12.382704815 3.82302231003 12.3878721268 3.82302231003 12.3878721268C3.82302231003 12.3878721268 3.83645785 12.3925235012 3.83645785 12.3925235012C3.83645785 12.3925235012 3.85092791068 12.3966589382 3.85092791068 12.3966589382C3.85092791068 12.3966589382 3.86539797135 12.4007917294 3.86539797135 12.4007917294C3.86539797135 12.4007917294 3.8808999069 12.4049271663 3.8808999069 12.4049271663C3.8808999069 12.4049271663 3.89743636315 12.4085440201 3.89743636315 12.4085440201C3.89743636315 12.4085440201 3.9150073401 12.4126768112 3.9150073401 12.4126768112C3.9150073401 12.4126768112 3.93309160866 12.4126768112 3.93309160866 12.4126768112C3.93309160866 12.4126768112 3.95221304375 12.4126768112 3.95221304375 12.4126768112C3.95221304375 12.4126768112 3.97185041628 12.4126768112 3.97185041628 12.4126768112C3.97185041628 12.4126768112 3.99251966367 12.4126768112 3.99251966367 12.4126768112C3.99251966367 12.4126768112 4.01370749434 12.4126768112 4.01370749434 12.4126768112C4.01370749434 12.4126768112 4.0359298457 12.4126768112 4.0359298457 12.4126768112C4.0359298457 12.4126768112 4.05918407194 12.4126768112 4.05918407194 12.4126768112C4.05918407194 12.4126768112 4.08295423561 12.4126768112 4.08295423561 12.4126768112C4.08295423561 12.4126768112 4.10827485742 12.4085440201 4.10827485742 12.4085440201C4.10827485742 12.4085440201 4.13462999994 12.4049271663 4.13462999994 12.4049271663C4.13462999994 12.4049271663 4.16150372572 12.4007917294 4.16150372572 12.4007917294C4.16150372572 12.4007917294 4.16408605872 12.3966589382 4.16408605872 12.3966589382C4.30868347801 12.3265787595 4.25778294275 12.1822432777 4.18372343125 12.1434421368C4.07036800803 12.1081943496 3.9849208313 12.0962828094 3.99251966367 11.9517250776C3.99251966367 11.9517250776 3.98477001881 11.8116811369 3.98477001881 11.8116811369C3.96914902078 11.5073309669 3.98896895579 11.2031845261 4.05504863496 10.9104442713C4.05504863496 10.9104442713 4.08605515189 10.7424947299 4.08605515189 10.7424947299C4.17206324522 10.3331843648 4.27343833661 10.1804298424 4.18372343125 9.49399228307C3.8521000147 9.37303802748 3.64929956108 9.22867608733 3.42304644375 8.99841717884C3.42304644375 8.99841717884 3.21995759434 9.12347247559 3.21995759434 9.12347247559C3.11863277377 9.18595646771 3.02127141103 9.25551806312 2.91196675814 9.28728657995C2.91196675814 9.28728657995 2.59984101413 9.37306977747 2.59984101413 9.37306977747C2.59984101413 9.37306977747 0.843875999935 9.35343240495 0.843875999935 9.35343240495C0.598372595448 9.40789687725 0.660503898037 8.56536840007 0.457853198568 8.56536840007C0.457853198568 8.56536840007 0.457853198568 8.56536840007 0.457853198568 8.56536840007" style="stroke-width:0.141521818869;fill-rule:evenodd;fill-opacity:1;fill:#ffffff" /></svg>