<?xml version="1.0" encoding="UTF-8" standalone="no"?><svg xmlns:dc="http://purl.org/dc/elements/1.1/" xmlns:cc="http://creativecommons.org/ns#" xmlns:rdf="http://www.w3.org/1999/02/22-rdf-syntax-ns#" xmlns:svg="http://www.w3.org/2000/svg" xmlns="http://www.w3.org/2000/svg" xmlns:sodipodi="http://sodipodi.sourceforge.net/DTD/sodipodi-0.dtd" xmlns:inkscape="http://www.inkscape.org/namespaces/inkscape" id="svg6185" version="1.1" viewBox="0 0 12.7 12.7" height="48" width="48" sodipodi:docname="78.svg" inkscape:version="0.92.3 (2405546, 2018-03-11)"><sodipodi:namedview pagecolor="#ffffff" bordercolor="#666666" borderopacity="1" objecttolerance="10" gridtolerance="10" guidetolerance="10" inkscape:pageopacity="0" inkscape:pageshadow="2" inkscape:window-width="1722" inkscape:window-height="874" id="namedview12" showgrid="false" inkscape:zoom="4.916667" inkscape:cx="24.40678" inkscape:cy="24" inkscape:window-x="0" inkscape:window-y="24" inkscape:window-maximized="0" inkscape:current-layer="svg6185" /><defs id="defs6179" /><path inkscape:connector-curvature="0" style="fill:#ffffff;fill-rule:nonzero;stroke-width:0.4187311;fill-opacity:1" id="path558-8" d="m 12.6105,2.847916 0.0896,-0.552013 h -0.36312 l -1.64758,0.82557 -0.09,0.09225 L 8.771778,1.927461 8.408654,1.74301 H 8.131999 L 7.950646,1.83526 h -0.18399 l -1.643143,0.0922 h -0.0922 L 4.386365,3.674366 H 0.4580813 0.2758495 l 0.1822318,0.0922 3.7460517,0.184451 0.182232,0.09137 0.183572,0.0922 h 0.08957 0.184451 L 5.118391,3.951021 5.391487,3.58258 5.755532,3.121473 5.939062,2.937943 6.123513,2.753492 h 0.181771 0.366222 l 0.09225,0.09442 v 0.09003 L 5.481515,4.411249 5.301963,5.146792 3.838832,6.894157 3.198593,7.169933 1.371459,7.630579 c 0,0 -0.4983733,0.163598 -0.365803,0.605234 0.06959,0.231851 0.458008,0.221216 0.458008,0.221216 L 4.111929,7.814151 4.478612,7.720606 4.659504,7.538374 4.754388,7.354384 5.755532,6.252158 5.939062,6.067707 H 6.123513 L 6.487097,6.435688 6.852859,6.80191 7.129096,7.078608 7.402653,7.354384 7.492638,7.538374 7.587104,7.720606 7.492638,8.180373 7.402653,8.6406 7.311328,9.101288 7.129096,9.652841 7.03463,10.20347 c 0,0 0.02387,0.26514 0.184451,0.36803 0.301947,0.19508 0.639779,-0.18358 0.639779,-0.18358 L 7.950646,10.20347 8.040673,9.835491 8.131999,9.377944 8.31423,8.549275 8.588248,7.630579 V 7.354384 L 8.498221,7.169933 8.31423,6.894157 8.131999,6.710585 7.950646,6.435688 7.587104,6.067707 7.219081,5.60526 7.129096,5.42127 7.402653,4.963262 8.682672,3.490375 9.046675,3.21372 h 0.183572 l 0.911573,0.737301 0.18399,0.09137 h 0.27356 l 1.18782,-0.644218 h 0.0913 l 0.09,0.0922 -0.27356,0.644218 -0.27398,0.644218 -0.27447,0.552474 -1.826677,3.862208 -0.48242,0.974519 -0.0335,0.16184 L 8.92629,10.23408 9.867555,8.365285 10.14199,7.814151 11.1467,5.700145 11.51338,4.963262 11.87868,4.22684 12.1527,3.674366 12.42625,3.121473 c 0,0 0.0931,-0.18353 0.18445,-0.273557 z M 8.646326,1.112552 c 0,0.482395 0.390132,0.872569 0.873431,0.872569 0.483253,0 0.873433,-0.390174 0.873433,-0.872569 0,-0.4832784 -0.39018,-0.8738875 -0.873433,-0.8738875 -0.483299,0 -0.873431,0.3906133 -0.873431,0.8738875 z M 11.87851,11.12439 c 0,0 0.36886,-0.10954 0.54758,-0.36844 0.24784,-0.35739 0.25714,-0.56575 0.25714,-0.74401 0,0 -0.26912,0.45537 -0.33875,0.52497 -0.094,0.0935 -0.0758,0.0683 -0.28198,0.21904 H 5.025265 L 4.93394,10.5715 H 4.843913 L 4.569937,10.6637 H 4.386365 L 3.380364,10.11391 2.651018,9.65372 V 9.562353 L 0.9165081,8.549275 0.4580813,8.180373 H 0.3689753 L 0.0940783,7.998602 7.32075e-5,8.364824 1.005656,9.009042 l 0.915555,0.553311 0.729807,0.456667 0.639779,0.46245 0.183991,0.09 v 0.0922 h -0.82377 l -0.182232,0.18445 v 0.0922 l 0.09086,0.18403 h 0.45671 0.364003 1.006001 0.915556 1.095568 5.480986 z" /><g id="_55612264-5" style="fill:#ffffff;fill-rule:evenodd;fill-opacity:1" transform="matrix(-0.4187311,0,0,0.4187311,355.6681,-40.57743)"><path inkscape:connector-curvature="0" style="fill:#ffffff;fill-opacity:1" d="m 835.987,126.212 0.072,0.011 0.069,0.01 0.067,0.01 h 0.064 0.062 0.058 0.057 0.054 0.052 0.05 0.049 l 0.045,-0.01 0.043,-0.01 0.041,-0.01 0.039,-0.01 0.038,-0.011 0.035,-0.013 0.034,-0.013 0.032,-0.015 0.031,-0.016 0.029,-0.017 0.028,-0.018 0.025,-0.018 0.023,-0.021 0.022,-0.02 0.02,-0.023 0.02,-0.022 0.018,-0.024 0.017,-0.025 0.015,-0.026 0.027,-0.055 0.022,-0.058 0.019,-0.062 0.015,-0.065 0.012,-0.068 0.01,-0.071 v -0.074 -0.076 -0.078 -0.081 -0.083 -0.084 -0.086 -0.1768 -0.089 l 0.094,-1.9885 0.3918,1.836 c 0.083,0.3399 0.1747,0.6597 -0.3198,0.918 -0.3505,0.3103 0.041,0.7327 0.4225,0.6809 1.1457,0.041 0.9805,-0.7222 0.8767,-1.259 l -0.061,-0.7836 -0.1853,-1.5988 0.1546,-0.4024 c 1.2484,-0.3198 2.0933,-0.5569 3.0527,-1.0726 l 0.6808,0.092 c 0.3198,0.052 0.2382,0.413 0.269,0.6501 l 0.1027,0.6502 0.5675,1.476 0.041,0.1228 c 0.041,0.1038 0.031,0.5051 -0.1133,0.7116 l -0.3092,0.6194 c -0.2276,0.3399 -0.289,1.2071 0.3505,0.9286 h -0.011 l 0.4744,-0.1959 c 0.3409,-0.144 0.6194,-1.0832 0.7433,-1.764 l -0.021,-0.9699 c 0.2996,-0.083 0.4235,1.6402 0.2996,2.0012 l -0.2996,0.8969 c -0.083,0.289 0.2583,0.3928 0.4955,0.3928 0.557,0 0.8047,-0.5675 0.918,-1.0419 l 0.083,-0.3611 c 0.1441,-0.5474 0.072,-1.3828 -0.2064,-1.8678 l -0.144,-0.2986 c -0.2383,-0.5982 0.072,-1.0218 0.144,-1.3309 0.2372,-0.97 0.433,-1.9081 -0.2372,-2.8367 l -0.062,-0.072 c 0.032,-0.073 0.2276,-0.2266 0.3409,-0.5887 0.2573,-0.8249 0.485,-2.176 0.1652,-2.176 l -0.217,-0.011 c -0.5358,0 -0.3717,2.2278 -1.0208,2.0839 l -4.642,0.052 -0.8259,-0.2265 c -0.289,-0.084 -0.5463,-0.269 -0.8142,-0.4342 l -0.5369,-0.3303 c -0.5982,0.6088 -1.1351,0.991 -2.0118,1.3108 -0.2372,1.8149 0.031,2.2183 0.2584,3.3005 l 0.083,0.4436 c 0.1747,0.7741 0.2266,1.5788 0.1853,2.3835 l -0.02,0.3706 c 0.02,0.3822 -0.2065,0.4129 -0.5062,0.5061 -0.1958,0.1027 -0.3303,0.485 0.052,0.6703 h -0.01 0.01 z" id="_87735872-6" /><path inkscape:connector-curvature="0" style="fill:#ffffff;fill-opacity:1" d="m 834.992,115.092 -0.018,0.017 -0.024,0.017 -0.049,0.038 -0.05,0.039 -0.052,0.042 -0.052,0.045 -0.052,0.047 -0.054,0.048 -0.053,0.05 -0.054,0.051 -0.054,0.052 -0.1059,0.1059 -0.052,0.053 -0.052,0.053 -0.05,0.053 -0.05,0.053 -0.3303,0.3505 c -0.2055,0.217 -0.5252,0.1853 -0.8037,0.2477 l -0.1144,0.01 c -0.2986,0.1663 -0.2054,0.4966 -0.1027,0.7433 l 0.061,0.1546 c 0.2997,0.7116 1.1658,0.7635 1.7852,0.4331 l 0.2679,-0.144 h 0.093 l 0.1959,0.1239 0.3812,0.3092 c 0.8047,-0.3505 1.4549,-0.7635 1.9705,-1.3204 l -1.1965,-1.5057 -0.4023,-0.5781 -0.083,-0.1959 -0.092,-0.216 c 0,0 -0.3717,-0.4649 -0.5888,-0.3717 -0.216,0.093 -0.3504,0.4945 -0.2986,0.701 l 0.061,0.2477 0.021,0.2478 v 0 z" id="_137707376-4" /></g></svg>